<svg width="113" height="113" viewBox="0 0 113 113" fill="none" xmlns="http://www.w3.org/2000/svg">
<circle cx="56.5" cy="56.5" r="56.5" fill="url(#paint0_linear_1119_8830)"/>
<path d="M33.2591 85V66.49H26.9891V62.8H43.9691V66.49H37.6991V85H33.2591ZM55.3352 85.42C49.4252 85.42 45.4052 81.04 45.4052 73.81C45.4052 66.58 49.4252 62.41 55.3352 62.41C61.2152 62.41 65.2352 66.61 65.2352 73.81C65.2352 81.04 61.2152 85.42 55.3352 85.42ZM55.3352 81.58C58.6352 81.58 60.7352 78.55 60.7352 73.81C60.7352 69.07 58.6352 66.22 55.3352 66.22C52.0052 66.22 49.9352 69.07 49.9352 73.81C49.9352 78.55 52.0052 81.58 55.3352 81.58ZM69.6011 85V62.8H76.8911C81.7811 62.8 85.5611 64.51 85.5611 69.79C85.5611 74.86 81.7811 77.11 77.0111 77.11H74.0411V85H69.6011ZM74.0411 73.6H76.7111C79.7711 73.6 81.2411 72.31 81.2411 69.79C81.2411 67.18 79.6211 66.34 76.5611 66.34H74.0411V73.6Z" fill="white"/>
<path d="M56.6172 21L79.2362 40.6429V52.5L56.6172 32.8571V21Z" fill="#FFC000"/>
<path d="M56.6172 21L33.9981 40.6429V52.6429L56.6172 33V21Z" fill="#FFC000"/>
<defs>
<linearGradient id="paint0_linear_1119_8830" x1="15" y1="4.88969e-07" x2="113" y2="113" gradientUnits="userSpaceOnUse">
<stop stop-color="#2F85CC"/>
<stop offset="1" stop-color="#000436"/>
</linearGradient>
</defs>
</svg>
