<svg width="34" height="80" viewBox="0 0 34 80" fill="none" xmlns="http://www.w3.org/2000/svg">
<path d="M0 5C0 2.23858 2.23858 0 5 0H34V80H5C2.23858 80 0 77.7614 0 75V5Z" fill="url(#paint0_linear_1119_8794)"/>
<path d="M13.0687 20.9263H13.9567V31.9543H13.0687V20.9263ZM11.9887 23.2423L12.6727 23.3503C12.6127 24.3223 12.3847 25.7023 12.0727 26.5783L11.3647 26.3383C11.6767 25.5343 11.9047 24.2143 11.9887 23.2423ZM13.9807 23.1343L14.6287 22.8583C15.0007 23.5663 15.3967 24.4903 15.5527 25.0423L14.8687 25.3903C14.7367 24.8143 14.3407 23.8543 13.9807 23.1343ZM15.6247 22.8463H21.5647V26.9263H20.6767V23.6983H15.6247V22.8463ZM14.9887 26.4463H22.5967V27.3103H14.9887V26.4463ZM17.9767 20.9263H18.8767V24.9343C18.8767 27.2863 18.5767 30.1783 15.2167 32.0143C15.0967 31.8223 14.7967 31.4983 14.5927 31.3183C17.8567 29.6863 17.9767 27.0343 17.9767 24.9343V20.9263ZM19.0807 27.9703L19.8367 27.6103C20.7367 28.8223 21.8887 30.4783 22.4767 31.4623L21.6607 31.9183C21.1207 30.9343 19.9807 29.2303 19.0807 27.9703ZM16.2487 38.6823V40.2063H20.9647V38.6823H16.2487ZM15.4087 37.9503H21.8407V40.9383H15.4087V37.9503ZM14.9167 36.1863H22.3567V36.9663H14.9167V36.1863ZM18.1327 34.9383H19.0087V44.4183H18.1327V34.9383ZM17.9167 40.6623L18.5767 40.9143C17.8327 42.1983 16.4767 43.4463 15.2167 44.0703C15.0967 43.8543 14.8327 43.5543 14.6407 43.3863C15.8647 42.8823 17.2207 41.7663 17.9167 40.6623ZM18.3487 41.2383L18.9007 40.6743C20.0887 41.4063 21.5887 42.4743 22.3207 43.2183L21.7207 43.8663C21.0247 43.1223 19.5487 41.9823 18.3487 41.2383ZM12.0247 35.3223L12.7087 34.9383C13.2247 35.5263 13.8487 36.3063 14.1487 36.7983L13.4287 37.2663C13.1407 36.7623 12.5167 35.9223 12.0247 35.3223ZM11.5807 37.6983H14.1127V38.4543H11.5807V37.6983ZM13.7167 43.2063C14.4607 44.7783 16.0207 44.9943 18.4207 44.9943C19.6927 44.9943 21.4447 44.9463 22.6807 44.8383C22.5487 45.0303 22.4407 45.4383 22.3927 45.6783C21.2527 45.7503 19.7407 45.7743 18.4207 45.7743C15.6007 45.7743 14.0287 45.4623 13.1167 43.4823L13.7167 43.2063ZM13.7167 40.6983H13.9807L14.1367 40.6743L14.5447 40.8423C14.1607 43.3623 13.2367 45.0663 11.9887 45.9903C11.8687 45.8103 11.5687 45.4983 11.3887 45.3663C12.5767 44.5503 13.4167 43.0143 13.7167 40.8543V40.6983ZM11.7607 41.5983V40.9143L12.1927 40.6983H14.0887V41.4303H12.4687C12.1567 41.4303 11.8447 41.5023 11.7607 41.5983ZM11.7607 41.5863C11.7007 41.3823 11.5207 40.9623 11.4247 40.7823C11.6047 40.7343 11.7967 40.6503 12.0007 40.4223C12.3607 40.0623 13.4647 38.4183 13.8607 37.7823V37.7463L14.1247 37.6383L14.7127 37.9023C14.1607 38.7183 13.1047 40.2663 12.4327 41.0223C12.4327 41.0223 11.7607 41.3583 11.7607 41.5863ZM15.7207 49.5983H22.3567V50.2223H15.7207V49.5983ZM16.1407 50.7983H22.0207V51.3983H16.1407V50.7983ZM18.5167 48.9383H19.3927V51.1223H18.5167V48.9383ZM16.5487 52.4063V53.7503H21.5047V52.4063H16.5487ZM15.8047 51.8783H22.2727V54.2663H15.8047V51.8783ZM16.9807 56.2103V56.7263H21.1087V56.2103H16.9807ZM16.9807 57.1583V57.7103H21.1087V57.1583H16.9807ZM16.9807 55.2623V55.7663H21.1087V55.2623H16.9807ZM16.1647 54.7103H21.9487V58.2503H16.1647V54.7103ZM19.6087 58.7663L20.0287 58.2263C20.9527 58.5983 21.9727 59.0783 22.6087 59.4143L22.0927 60.0023C21.4927 59.6663 20.5087 59.1743 19.6087 58.7663ZM17.6647 58.2383L18.4087 58.6823C17.7127 59.1863 16.5967 59.7023 15.6967 59.9783C15.5527 59.8223 15.3007 59.5583 15.1087 59.4143C16.0447 59.1503 17.1367 58.6703 17.6647 58.2383ZM11.9767 52.5623H15.0607V53.2823H11.9767V52.5623ZM11.8807 54.1703H15.1207V54.8903H11.8807V54.1703ZM11.4847 50.9303H15.3607V51.6743H11.4847V50.9303ZM12.3967 55.7903H15.0487V59.2823H12.3967V58.5383H14.2927V56.5343H12.3967V55.7903ZM11.9527 55.7903H12.6967V59.8463H11.9527V55.7903ZM12.4927 49.3103L13.2487 49.0103C13.6687 49.4783 14.1247 50.1143 14.3287 50.5343L13.5367 50.8943C13.3447 50.4623 12.9007 49.7903 12.4927 49.3103ZM17.7127 51.9623H18.3247V54.1463H17.7127V51.9623ZM19.6687 51.9623H20.2927V54.1463H19.6687V51.9623ZM17.1607 64.5823H21.5887V65.4583H17.1607V64.5823ZM11.5927 63.6823H17.4607V64.5223H11.5927V63.6823ZM12.9967 66.1183H16.1167V66.9463H12.9967V66.1183ZM12.9967 68.6143H16.1167V69.4303H12.9967V68.6143ZM21.3247 64.5823H21.4807L21.6487 64.5583L22.2247 64.7143C21.6487 69.4903 19.8127 72.3103 17.2447 73.7983C17.1007 73.5703 16.8487 73.2343 16.6447 73.0663C19.0207 71.8303 20.8087 69.0103 21.3247 64.7983V64.5823ZM18.2527 65.5063C18.8887 68.9743 20.2807 71.8183 22.7527 73.0903C22.5487 73.2703 22.2607 73.6063 22.1167 73.8463C19.5127 72.3703 18.1327 69.4423 17.3887 65.6743L18.2527 65.5063ZM12.5287 64.0063H13.3927V71.7943H12.5287V64.0063ZM15.7447 64.0063H16.6087V73.9423H15.7447V64.0063ZM11.3527 71.5303C12.5287 71.3863 14.3407 71.1343 16.0927 70.8703L16.1407 71.6983C14.4967 71.9623 12.7687 72.2383 11.5207 72.4303L11.3527 71.5303Z" fill="white"/>
<path d="M4.68699 7.91521H3.77734V4.79297H7.63423V5.52935H4.68699V7.91521Z" fill="#FFC000"/>
<path d="M31.1225 7.91521H30.225V5.52935H27.2656V4.79297H31.1225V7.91521Z" fill="#FFC000"/>
<path d="M7.63423 20.1491H3.77734V17.0269H4.68699V19.4225H7.63423V20.1491Z" fill="#FFC000"/>
<path d="M31.1225 20.1491H27.2656V19.4225H30.225V17.0269H31.1225V20.1491Z" fill="#FFC000"/>
<path d="M11.4739 7.36475H9.93359V17.5759H11.4739V7.36475Z" fill="white"/>
<path d="M9.02273 7.36475H8.23438V17.5759H9.02273V7.36475Z" fill="white"/>
<path d="M13.4231 7.36475H11.8828V17.5759H13.4231V7.36475Z" fill="white"/>
<path d="M15.4019 7.36475H14.7227V17.5759H15.4019V7.36475Z" fill="white"/>
<path d="M17.3782 7.36475H16.1289V17.5759H17.3782V7.36475Z" fill="white"/>
<path d="M20.2513 7.36475H18.7109V17.5759H20.2513V7.36475Z" fill="white"/>
<path d="M21.5491 7.36475H20.9062V17.5759H21.5491V7.36475Z" fill="white"/>
<path d="M23.9153 7.36475H22.375V17.5759H23.9153V7.36475Z" fill="white"/>
<path d="M26.6574 7.36475H24.4258V17.5759H26.6574V7.36475Z" fill="white"/>
<defs>
<linearGradient id="paint0_linear_1119_8794" x1="17" y1="0" x2="17" y2="80" gradientUnits="userSpaceOnUse">
<stop stop-color="#2973B7"/>
<stop offset="1" stop-color="#0A1E54"/>
</linearGradient>
</defs>
</svg>
