<svg width="113" height="113" viewBox="0 0 113 113" fill="none" xmlns="http://www.w3.org/2000/svg">
<circle cx="56.5" cy="56.5" r="56.5" fill="url(#paint0_linear_1119_8829)"/>
<path d="M27.72 74.56H28.904V89.264H27.72V74.56ZM26.28 77.648L27.192 77.792C27.112 79.088 26.808 80.928 26.392 82.096L25.448 81.776C25.864 80.704 26.168 78.944 26.28 77.648ZM28.936 77.504L29.8 77.136C30.296 78.08 30.824 79.312 31.032 80.048L30.12 80.512C29.944 79.744 29.416 78.464 28.936 77.504ZM31.128 77.12H39.048V82.56H37.864V78.256H31.128V77.12ZM30.28 81.92H40.424V83.072H30.28V81.92ZM34.264 74.56H35.464V79.904C35.464 83.04 35.064 86.896 30.584 89.344C30.424 89.088 30.024 88.656 29.752 88.416C34.104 86.24 34.264 82.704 34.264 79.904V74.56ZM35.736 83.952L36.744 83.472C37.944 85.088 39.48 87.296 40.264 88.608L39.176 89.216C38.456 87.904 36.936 85.632 35.736 83.952ZM47.96 79.568V81.6H54.248V79.568H47.96ZM46.84 78.592H55.416V82.576H46.84V78.592ZM46.184 76.24H56.104V77.28H46.184V76.24ZM50.472 74.576H51.64V87.216H50.472V74.576ZM50.184 82.208L51.064 82.544C50.072 84.256 48.264 85.92 46.584 86.752C46.424 86.464 46.072 86.064 45.816 85.84C47.448 85.168 49.256 83.68 50.184 82.208ZM50.76 82.976L51.496 82.224C53.08 83.2 55.08 84.624 56.056 85.616L55.256 86.48C54.328 85.488 52.36 83.968 50.76 82.976ZM42.328 75.088L43.24 74.576C43.928 75.36 44.76 76.4 45.16 77.056L44.2 77.68C43.816 77.008 42.984 75.888 42.328 75.088ZM41.736 78.256H45.112V79.264H41.736V78.256ZM44.584 85.6C45.576 87.696 47.656 87.984 50.856 87.984C52.552 87.984 54.888 87.92 56.536 87.776C56.36 88.032 56.216 88.576 56.152 88.896C54.632 88.992 52.616 89.024 50.856 89.024C47.096 89.024 45 88.608 43.784 85.968L44.584 85.6ZM44.584 82.256H44.936L45.144 82.224L45.688 82.448C45.176 85.808 43.944 88.08 42.28 89.312C42.12 89.072 41.72 88.656 41.48 88.48C43.064 87.392 44.184 85.344 44.584 82.464V82.256ZM41.976 83.456V82.544L42.552 82.256H45.08V83.232H42.92C42.504 83.232 42.088 83.328 41.976 83.456ZM41.976 83.44C41.896 83.168 41.656 82.608 41.528 82.368C41.768 82.304 42.024 82.192 42.296 81.888C42.776 81.408 44.248 79.216 44.776 78.368V78.32L45.128 78.176L45.912 78.528C45.176 79.616 43.768 81.68 42.872 82.688C42.872 82.688 41.976 83.136 41.976 83.44ZM63.256 75.456H72.104V76.288H63.256V75.456ZM63.816 77.056H71.656V77.856H63.816V77.056ZM66.984 74.576H68.152V77.488H66.984V74.576ZM64.36 79.2V80.992H70.968V79.2H64.36ZM63.368 78.496H71.992V81.68H63.368V78.496ZM64.936 84.272V84.96H70.44V84.272H64.936ZM64.936 85.536V86.272H70.44V85.536H64.936ZM64.936 83.008V83.68H70.44V83.008H64.936ZM63.848 82.272H71.56V86.992H63.848V82.272ZM68.44 87.68L69 86.96C70.232 87.456 71.592 88.096 72.44 88.544L71.752 89.328C70.952 88.88 69.64 88.224 68.44 87.68ZM65.848 86.976L66.84 87.568C65.912 88.24 64.424 88.928 63.224 89.296C63.032 89.088 62.696 88.736 62.44 88.544C63.688 88.192 65.144 87.552 65.848 86.976ZM58.264 79.408H62.376V80.368H58.264V79.408ZM58.136 81.552H62.456V82.512H58.136V81.552ZM57.608 77.232H62.776V78.224H57.608V77.232ZM58.824 83.712H62.36V88.368H58.824V87.376H61.352V84.704H58.824V83.712ZM58.232 83.712H59.224V89.12H58.232V83.712ZM58.952 75.072L59.96 74.672C60.52 75.296 61.128 76.144 61.4 76.704L60.344 77.184C60.088 76.608 59.496 75.712 58.952 75.072ZM65.912 78.608H66.728V81.52H65.912V78.608ZM68.52 78.608H69.352V81.52H68.52V78.608ZM81.176 76.768H87.08V77.936H81.176V76.768ZM73.752 75.568H81.576V76.688H73.752V75.568ZM75.624 78.816H79.784V79.92H75.624V78.816ZM75.624 82.144H79.784V83.232H75.624V82.144ZM86.728 76.768H86.936L87.16 76.736L87.928 76.944C87.16 83.312 84.712 87.072 81.288 89.056C81.096 88.752 80.76 88.304 80.488 88.08C83.656 86.432 86.04 82.672 86.728 77.056V76.768ZM82.632 78C83.48 82.624 85.336 86.416 88.632 88.112C88.36 88.352 87.976 88.8 87.784 89.12C84.312 87.152 82.472 83.248 81.48 78.224L82.632 78ZM75 76H76.152V86.384H75V76ZM79.288 76H80.44V89.248H79.288V76ZM73.432 86.032C75 85.84 77.416 85.504 79.752 85.152L79.816 86.256C77.624 86.608 75.32 86.976 73.656 87.232L73.432 86.032Z" fill="white"/>
<path d="M27.0909 30.8102H25V22.5986H33.8656V24.5353H27.0909V30.8102Z" fill="#FFC000"/>
<path d="M87.8617 30.8102H85.7986V24.5353H78.9961V22.5986H87.8617V30.8102Z" fill="#FFC000"/>
<path d="M33.8656 62.9845H25V54.7729H27.0909V61.0736H33.8656V62.9845Z" fill="#FFC000"/>
<path d="M87.8617 62.9845H78.9961V61.0736H85.7986V54.7729H87.8617V62.9845Z" fill="#FFC000"/>
<path d="M42.6969 29.3633H39.1562V56.2187H42.6969V29.3633Z" fill="white"/>
<path d="M37.0661 29.3633H35.2539V56.2187H37.0661V29.3633Z" fill="white"/>
<path d="M47.1852 29.3633H43.6445V56.2187H47.1852V29.3633Z" fill="white"/>
<path d="M51.7292 29.3633H50.168V56.2187H51.7292V29.3633Z" fill="white"/>
<path d="M56.2739 29.3633H53.4023V56.2187H56.2739V29.3633Z" fill="white"/>
<path d="M62.8805 29.3633H59.3398V56.2187H62.8805V29.3633Z" fill="white"/>
<path d="M65.8604 29.3633H64.3828V56.2187H65.8604V29.3633Z" fill="white"/>
<path d="M71.3024 29.3633H67.7617V56.2187H71.3024V29.3633Z" fill="white"/>
<path d="M77.6024 29.3633H72.4727V56.2187H77.6024V29.3633Z" fill="white"/>
<defs>
<linearGradient id="paint0_linear_1119_8829" x1="15" y1="4.88969e-07" x2="113" y2="113" gradientUnits="userSpaceOnUse">
<stop stop-color="#2F85CC"/>
<stop offset="1" stop-color="#000436"/>
</linearGradient>
</defs>
</svg>
