<svg width="1116" height="450" viewBox="0 0 1116 450" fill="none" xmlns="http://www.w3.org/2000/svg">
<g filter="url(#filter0_d_1115_4366)">
<rect x="4" y="16" width="1100" height="422" rx="40" fill="white"/>
</g>
<path d="M35.1532 90V88.784H37.7612V80.048H35.6652V79.104C36.7212 78.928 37.4732 78.656 38.0972 78.272H39.2172V88.784H41.5852V90H35.1532ZM46.7962 90.224C44.9722 90.224 43.8522 89.456 43.0522 88.656L43.7882 87.696C44.4442 88.384 45.3082 89.008 46.6522 89.008C48.0442 89.008 49.1482 87.936 49.1482 86.24C49.1482 84.56 48.1882 83.552 46.7322 83.552C45.9482 83.552 45.4522 83.808 44.7802 84.256L43.9962 83.76L44.3642 78.272H50.0762V79.52H45.6442L45.3402 82.912C45.8682 82.624 46.3962 82.448 47.1002 82.448C49.0522 82.448 50.6362 83.6 50.6362 86.192C50.6362 88.752 48.7642 90.224 46.7962 90.224ZM55.9432 90.224C53.7032 90.224 52.2792 88.192 52.2792 84.096C52.2792 80.032 53.7032 78.064 55.9432 78.064C58.1512 78.064 59.5752 80.032 59.5752 84.096C59.5752 88.192 58.1512 90.224 55.9432 90.224ZM55.9432 89.04C57.2712 89.04 58.1672 87.552 58.1672 84.096C58.1672 80.688 57.2712 79.232 55.9432 79.232C54.5992 79.232 53.6872 80.688 53.6872 84.096C53.6872 87.552 54.5992 89.04 55.9432 89.04ZM35.1532 144V142.784H37.7612V134.048H35.6652V133.104C36.7212 132.928 37.4732 132.656 38.0972 132.272H39.2172V142.784H41.5852V144H35.1532ZM43.3242 144V143.152C47.0042 139.936 48.6842 137.584 48.6842 135.584C48.6842 134.24 47.9962 133.248 46.5402 133.248C45.5802 133.248 44.7482 133.84 44.0922 134.608L43.2442 133.792C44.2042 132.752 45.2282 132.064 46.7162 132.064C48.8122 132.064 50.1242 133.424 50.1242 135.52C50.1242 137.872 48.2842 140.256 45.5162 142.864C46.1402 142.8 46.8442 142.752 47.4362 142.752H50.6842V144H43.3242ZM55.6712 144.224C53.8472 144.224 52.7272 143.456 51.9272 142.656L52.6632 141.696C53.3192 142.384 54.1832 143.008 55.5272 143.008C56.9192 143.008 58.0232 141.936 58.0232 140.24C58.0232 138.56 57.0632 137.552 55.6072 137.552C54.8232 137.552 54.3272 137.808 53.6552 138.256L52.8712 137.76L53.2392 132.272H58.9512V133.52H54.5192L54.2152 136.912C54.7432 136.624 55.2712 136.448 55.9752 136.448C57.9272 136.448 59.5112 137.6 59.5112 140.192C59.5112 142.752 57.6392 144.224 55.6712 144.224ZM35.1532 198V196.784H37.7612V188.048H35.6652V187.104C36.7212 186.928 37.4732 186.656 38.0972 186.272H39.2172V196.784H41.5852V198H35.1532ZM47.0682 198.224C44.8282 198.224 43.4042 196.192 43.4042 192.096C43.4042 188.032 44.8282 186.064 47.0682 186.064C49.2762 186.064 50.7002 188.032 50.7002 192.096C50.7002 196.192 49.2762 198.224 47.0682 198.224ZM47.0682 197.04C48.3962 197.04 49.2922 195.552 49.2922 192.096C49.2922 188.688 48.3962 187.232 47.0682 187.232C45.7242 187.232 44.8122 188.688 44.8122 192.096C44.8122 195.552 45.7242 197.04 47.0682 197.04ZM55.9432 198.224C53.7032 198.224 52.2792 196.192 52.2792 192.096C52.2792 188.032 53.7032 186.064 55.9432 186.064C58.1512 186.064 59.5752 188.032 59.5752 192.096C59.5752 196.192 58.1512 198.224 55.9432 198.224ZM55.9432 197.04C57.2712 197.04 58.1672 195.552 58.1672 192.096C58.1672 188.688 57.2712 187.232 55.9432 187.232C54.5992 187.232 53.6872 188.688 53.6872 192.096C53.6872 195.552 54.5992 197.04 55.9432 197.04ZM41.3347 252C41.5427 247.568 42.3427 244.72 44.6467 241.52H38.9667V240.272H46.2947V241.152C43.5427 244.688 43.0467 247.424 42.8547 252H41.3347ZM51.2337 252.224C49.4097 252.224 48.2897 251.456 47.4897 250.656L48.2257 249.696C48.8817 250.384 49.7457 251.008 51.0897 251.008C52.4817 251.008 53.5857 249.936 53.5857 248.24C53.5857 246.56 52.6257 245.552 51.1697 245.552C50.3857 245.552 49.8897 245.808 49.2177 246.256L48.4337 245.76L48.8017 240.272H54.5137V241.52H50.0817L49.7777 244.912C50.3057 244.624 50.8337 244.448 51.5377 244.448C53.4897 244.448 55.0737 245.6 55.0737 248.192C55.0737 250.752 53.2017 252.224 51.2337 252.224ZM38.8867 306V305.152C42.5667 301.936 44.2467 299.584 44.2467 297.584C44.2467 296.24 43.5587 295.248 42.1027 295.248C41.1427 295.248 40.3107 295.84 39.6547 296.608L38.8067 295.792C39.7667 294.752 40.7907 294.064 42.2787 294.064C44.3747 294.064 45.6867 295.424 45.6867 297.52C45.6867 299.872 43.8467 302.256 41.0787 304.864C41.7027 304.8 42.4067 304.752 42.9987 304.752H46.2467V306H38.8867ZM51.2337 306.224C49.4097 306.224 48.2897 305.456 47.4897 304.656L48.2257 303.696C48.8817 304.384 49.7457 305.008 51.0897 305.008C52.4817 305.008 53.5857 303.936 53.5857 302.24C53.5857 300.56 52.6257 299.552 51.1697 299.552C50.3857 299.552 49.8897 299.808 49.2177 300.256L48.4337 299.76L48.8017 294.272H54.5137V295.52H50.0817L49.7777 298.912C50.3057 298.624 50.8337 298.448 51.5377 298.448C53.4897 298.448 55.0737 299.6 55.0737 302.192C55.0737 304.752 53.2017 306.224 51.2337 306.224ZM47.0682 360.224C44.8282 360.224 43.4042 358.192 43.4042 354.096C43.4042 350.032 44.8282 348.064 47.0682 348.064C49.2762 348.064 50.7002 350.032 50.7002 354.096C50.7002 358.192 49.2762 360.224 47.0682 360.224ZM47.0682 359.04C48.3962 359.04 49.2922 357.552 49.2922 354.096C49.2922 350.688 48.3962 349.232 47.0682 349.232C45.7242 349.232 44.8122 350.688 44.8122 354.096C44.8122 357.552 45.7242 359.04 47.0682 359.04Z" fill="black"/>
<path d="M76.0877 381V379.784H78.6957V371.048H76.5997V370.104C77.6557 369.928 78.4077 369.656 79.0317 369.272H80.1517V379.784H82.5197V381H76.0877ZM87.2987 381.224C86.0187 381.224 85.1227 380.712 84.4667 380.024L85.2827 379.096C85.7787 379.672 86.4987 380.008 87.2507 380.008C88.8187 380.008 90.1787 378.648 90.1787 374.632C90.1787 371.752 89.2667 370.2 87.6187 370.2C86.4987 370.2 85.6347 371.256 85.6347 372.872C85.6347 374.44 86.3387 375.48 87.7307 375.48C88.5147 375.48 89.4267 375.016 90.1947 373.848L90.2747 375.016C89.5387 375.944 88.4987 376.552 87.4907 376.552C85.5227 376.552 84.2587 375.304 84.2587 372.872C84.2587 370.6 85.7947 369.064 87.6187 369.064C89.8747 369.064 91.5547 370.904 91.5547 374.632C91.5547 379.4 89.5067 381.224 87.2987 381.224ZM96.1737 381.224C94.8937 381.224 93.9977 380.712 93.3417 380.024L94.1577 379.096C94.6537 379.672 95.3737 380.008 96.1257 380.008C97.6937 380.008 99.0537 378.648 99.0537 374.632C99.0537 371.752 98.1417 370.2 96.4937 370.2C95.3737 370.2 94.5097 371.256 94.5097 372.872C94.5097 374.44 95.2137 375.48 96.6057 375.48C97.3897 375.48 98.3017 375.016 99.0697 373.848L99.1497 375.016C98.4137 375.944 97.3737 376.552 96.3657 376.552C94.3977 376.552 93.1337 375.304 93.1337 372.872C93.1337 370.6 94.6697 369.064 96.4937 369.064C98.7497 369.064 100.43 370.904 100.43 374.632C100.43 379.4 98.3817 381.224 96.1737 381.224ZM105.049 381.224C103.769 381.224 102.873 380.712 102.217 380.024L103.033 379.096C103.529 379.672 104.249 380.008 105.001 380.008C106.569 380.008 107.929 378.648 107.929 374.632C107.929 371.752 107.017 370.2 105.369 370.2C104.249 370.2 103.385 371.256 103.385 372.872C103.385 374.44 104.089 375.48 105.481 375.48C106.265 375.48 107.177 375.016 107.945 373.848L108.025 375.016C107.289 375.944 106.249 376.552 105.241 376.552C103.273 376.552 102.009 375.304 102.009 372.872C102.009 370.6 103.545 369.064 105.369 369.064C107.625 369.064 109.305 370.904 109.305 374.632C109.305 379.4 107.257 381.224 105.049 381.224ZM110.356 383.864L115.156 368.296H116.196L111.412 383.864H110.356ZM120.909 381.224C118.749 381.224 117.165 379.912 117.165 378.104C117.165 376.52 118.253 375.432 119.325 374.856V374.792C118.461 374.2 117.725 373.304 117.725 372.072C117.725 370.296 119.117 369.112 120.957 369.112C122.957 369.112 124.173 370.392 124.173 372.184C124.173 373.432 123.309 374.472 122.605 375.016V375.096C123.629 375.688 124.589 376.584 124.589 378.184C124.589 379.896 123.101 381.224 120.909 381.224ZM121.709 374.648C122.509 373.944 122.925 373.144 122.925 372.264C122.925 371.112 122.189 370.184 120.925 370.184C119.853 370.184 119.069 370.952 119.069 372.072C119.069 373.48 120.333 374.104 121.709 374.648ZM120.941 380.12C122.285 380.12 123.181 379.304 123.181 378.136C123.181 376.568 121.741 375.976 120.093 375.304C119.133 375.912 118.477 376.84 118.477 377.96C118.477 379.208 119.533 380.12 120.941 380.12Z" fill="black"/>
<path d="M195.884 381V380.152C199.564 376.936 201.244 374.584 201.244 372.584C201.244 371.24 200.556 370.248 199.1 370.248C198.14 370.248 197.308 370.84 196.652 371.608L195.804 370.792C196.764 369.752 197.788 369.064 199.276 369.064C201.372 369.064 202.684 370.424 202.684 372.52C202.684 374.872 200.844 377.256 198.076 379.864C198.7 379.8 199.404 379.752 199.996 379.752H203.244V381H195.884ZM208.503 381.224C206.263 381.224 204.839 379.192 204.839 375.096C204.839 371.032 206.263 369.064 208.503 369.064C210.711 369.064 212.135 371.032 212.135 375.096C212.135 379.192 210.711 381.224 208.503 381.224ZM208.503 380.04C209.831 380.04 210.727 378.552 210.727 375.096C210.727 371.688 209.831 370.232 208.503 370.232C207.159 370.232 206.247 371.688 206.247 375.096C206.247 378.552 207.159 380.04 208.503 380.04ZM217.378 381.224C215.138 381.224 213.714 379.192 213.714 375.096C213.714 371.032 215.138 369.064 217.378 369.064C219.586 369.064 221.01 371.032 221.01 375.096C221.01 379.192 219.586 381.224 217.378 381.224ZM217.378 380.04C218.706 380.04 219.602 378.552 219.602 375.096C219.602 371.688 218.706 370.232 217.378 370.232C216.034 370.232 215.122 371.688 215.122 375.096C215.122 378.552 216.034 380.04 217.378 380.04ZM222.509 381V380.152C226.189 376.936 227.869 374.584 227.869 372.584C227.869 371.24 227.181 370.248 225.725 370.248C224.765 370.248 223.933 370.84 223.277 371.608L222.429 370.792C223.389 369.752 224.413 369.064 225.901 369.064C227.997 369.064 229.309 370.424 229.309 372.52C229.309 374.872 227.469 377.256 224.701 379.864C225.325 379.8 226.029 379.752 226.621 379.752H229.869V381H222.509ZM230.856 383.864L235.656 368.296H236.696L231.912 383.864H230.856ZM241.409 381.224C239.249 381.224 237.665 379.912 237.665 378.104C237.665 376.52 238.753 375.432 239.825 374.856V374.792C238.961 374.2 238.225 373.304 238.225 372.072C238.225 370.296 239.617 369.112 241.457 369.112C243.457 369.112 244.673 370.392 244.673 372.184C244.673 373.432 243.809 374.472 243.105 375.016V375.096C244.129 375.688 245.089 376.584 245.089 378.184C245.089 379.896 243.601 381.224 241.409 381.224ZM242.209 374.648C243.009 373.944 243.425 373.144 243.425 372.264C243.425 371.112 242.689 370.184 241.425 370.184C240.353 370.184 239.569 370.952 239.569 372.072C239.569 373.48 240.833 374.104 242.209 374.648ZM241.441 380.12C242.785 380.12 243.681 379.304 243.681 378.136C243.681 376.568 242.241 375.976 240.593 375.304C239.633 375.912 238.977 376.84 238.977 377.96C238.977 379.208 240.033 380.12 241.441 380.12Z" fill="black"/>
<path d="M316.384 381V380.152C320.064 376.936 321.744 374.584 321.744 372.584C321.744 371.24 321.056 370.248 319.6 370.248C318.64 370.248 317.808 370.84 317.152 371.608L316.304 370.792C317.264 369.752 318.288 369.064 319.776 369.064C321.872 369.064 323.184 370.424 323.184 372.52C323.184 374.872 321.344 377.256 318.576 379.864C319.2 379.8 319.904 379.752 320.496 379.752H323.744V381H316.384ZM329.003 381.224C326.763 381.224 325.339 379.192 325.339 375.096C325.339 371.032 326.763 369.064 329.003 369.064C331.211 369.064 332.635 371.032 332.635 375.096C332.635 379.192 331.211 381.224 329.003 381.224ZM329.003 380.04C330.331 380.04 331.227 378.552 331.227 375.096C331.227 371.688 330.331 370.232 329.003 370.232C327.659 370.232 326.747 371.688 326.747 375.096C326.747 378.552 327.659 380.04 329.003 380.04ZM337.878 381.224C335.638 381.224 334.214 379.192 334.214 375.096C334.214 371.032 335.638 369.064 337.878 369.064C340.086 369.064 341.51 371.032 341.51 375.096C341.51 379.192 340.086 381.224 337.878 381.224ZM337.878 380.04C339.206 380.04 340.102 378.552 340.102 375.096C340.102 371.688 339.206 370.232 337.878 370.232C336.534 370.232 335.622 371.688 335.622 375.096C335.622 378.552 336.534 380.04 337.878 380.04ZM346.481 381.224C344.657 381.224 343.537 380.456 342.737 379.656L343.473 378.696C344.129 379.384 344.993 380.008 346.337 380.008C347.729 380.008 348.833 378.936 348.833 377.24C348.833 375.56 347.873 374.552 346.417 374.552C345.633 374.552 345.137 374.808 344.465 375.256L343.681 374.76L344.049 369.272H349.761V370.52H345.329L345.025 373.912C345.553 373.624 346.081 373.448 346.785 373.448C348.737 373.448 350.321 374.6 350.321 377.192C350.321 379.752 348.449 381.224 346.481 381.224ZM351.356 383.864L356.156 368.296H357.196L352.412 383.864H351.356ZM361.909 381.224C359.749 381.224 358.165 379.912 358.165 378.104C358.165 376.52 359.253 375.432 360.325 374.856V374.792C359.461 374.2 358.725 373.304 358.725 372.072C358.725 370.296 360.117 369.112 361.957 369.112C363.957 369.112 365.173 370.392 365.173 372.184C365.173 373.432 364.309 374.472 363.605 375.016V375.096C364.629 375.688 365.589 376.584 365.589 378.184C365.589 379.896 364.101 381.224 361.909 381.224ZM362.709 374.648C363.509 373.944 363.925 373.144 363.925 372.264C363.925 371.112 363.189 370.184 361.925 370.184C360.853 370.184 360.069 370.952 360.069 372.072C360.069 373.48 361.333 374.104 362.709 374.648ZM361.941 380.12C363.285 380.12 364.181 379.304 364.181 378.136C364.181 376.568 362.741 375.976 361.093 375.304C360.133 375.912 359.477 376.84 359.477 377.96C359.477 379.208 360.533 380.12 361.941 380.12Z" fill="black"/>
<path d="M436.884 381V380.152C440.564 376.936 442.244 374.584 442.244 372.584C442.244 371.24 441.556 370.248 440.1 370.248C439.14 370.248 438.308 370.84 437.652 371.608L436.804 370.792C437.764 369.752 438.788 369.064 440.276 369.064C442.372 369.064 443.684 370.424 443.684 372.52C443.684 374.872 441.844 377.256 439.076 379.864C439.7 379.8 440.404 379.752 440.996 379.752H444.244V381H436.884ZM449.503 381.224C447.263 381.224 445.839 379.192 445.839 375.096C445.839 371.032 447.263 369.064 449.503 369.064C451.711 369.064 453.135 371.032 453.135 375.096C453.135 379.192 451.711 381.224 449.503 381.224ZM449.503 380.04C450.831 380.04 451.727 378.552 451.727 375.096C451.727 371.688 450.831 370.232 449.503 370.232C448.159 370.232 447.247 371.688 447.247 375.096C447.247 378.552 448.159 380.04 449.503 380.04ZM458.378 381.224C456.138 381.224 454.714 379.192 454.714 375.096C454.714 371.032 456.138 369.064 458.378 369.064C460.586 369.064 462.01 371.032 462.01 375.096C462.01 379.192 460.586 381.224 458.378 381.224ZM458.378 380.04C459.706 380.04 460.602 378.552 460.602 375.096C460.602 371.688 459.706 370.232 458.378 370.232C457.034 370.232 456.122 371.688 456.122 375.096C456.122 378.552 457.034 380.04 458.378 380.04ZM467.269 381.224C465.109 381.224 463.525 379.912 463.525 378.104C463.525 376.52 464.613 375.432 465.685 374.856V374.792C464.821 374.2 464.085 373.304 464.085 372.072C464.085 370.296 465.477 369.112 467.317 369.112C469.317 369.112 470.533 370.392 470.533 372.184C470.533 373.432 469.669 374.472 468.965 375.016V375.096C469.989 375.688 470.949 376.584 470.949 378.184C470.949 379.896 469.461 381.224 467.269 381.224ZM468.069 374.648C468.869 373.944 469.285 373.144 469.285 372.264C469.285 371.112 468.549 370.184 467.285 370.184C466.213 370.184 465.429 370.952 465.429 372.072C465.429 373.48 466.693 374.104 468.069 374.648ZM467.301 380.12C468.645 380.12 469.541 379.304 469.541 378.136C469.541 376.568 468.101 375.976 466.453 375.304C465.493 375.912 464.837 376.84 464.837 377.96C464.837 379.208 465.893 380.12 467.301 380.12ZM471.856 383.864L476.656 368.296H477.696L472.912 383.864H471.856ZM482.409 381.224C480.249 381.224 478.665 379.912 478.665 378.104C478.665 376.52 479.753 375.432 480.825 374.856V374.792C479.961 374.2 479.225 373.304 479.225 372.072C479.225 370.296 480.617 369.112 482.457 369.112C484.457 369.112 485.673 370.392 485.673 372.184C485.673 373.432 484.809 374.472 484.105 375.016V375.096C485.129 375.688 486.089 376.584 486.089 378.184C486.089 379.896 484.601 381.224 482.409 381.224ZM483.209 374.648C484.009 373.944 484.425 373.144 484.425 372.264C484.425 371.112 483.689 370.184 482.425 370.184C481.353 370.184 480.569 370.952 480.569 372.072C480.569 373.48 481.833 374.104 483.209 374.648ZM482.441 380.12C483.785 380.12 484.681 379.304 484.681 378.136C484.681 376.568 483.241 375.976 481.593 375.304C480.633 375.912 479.977 376.84 479.977 377.96C479.977 379.208 481.033 380.12 482.441 380.12Z" fill="black"/>
<path d="M556.884 381V380.152C560.564 376.936 562.244 374.584 562.244 372.584C562.244 371.24 561.556 370.248 560.1 370.248C559.14 370.248 558.308 370.84 557.652 371.608L556.804 370.792C557.764 369.752 558.788 369.064 560.276 369.064C562.372 369.064 563.684 370.424 563.684 372.52C563.684 374.872 561.844 377.256 559.076 379.864C559.7 379.8 560.404 379.752 560.996 379.752H564.244V381H556.884ZM569.503 381.224C567.263 381.224 565.839 379.192 565.839 375.096C565.839 371.032 567.263 369.064 569.503 369.064C571.711 369.064 573.135 371.032 573.135 375.096C573.135 379.192 571.711 381.224 569.503 381.224ZM569.503 380.04C570.831 380.04 571.727 378.552 571.727 375.096C571.727 371.688 570.831 370.232 569.503 370.232C568.159 370.232 567.247 371.688 567.247 375.096C567.247 378.552 568.159 380.04 569.503 380.04ZM575.338 381V379.784H577.946V371.048H575.85V370.104C576.906 369.928 577.658 369.656 578.282 369.272H579.402V379.784H581.77V381H575.338ZM584.213 381V379.784H586.821V371.048H584.725V370.104C585.781 369.928 586.533 369.656 587.157 369.272H588.277V379.784H590.645V381H584.213ZM591.856 383.864L596.656 368.296H597.696L592.912 383.864H591.856ZM602.409 381.224C600.249 381.224 598.665 379.912 598.665 378.104C598.665 376.52 599.753 375.432 600.825 374.856V374.792C599.961 374.2 599.225 373.304 599.225 372.072C599.225 370.296 600.617 369.112 602.457 369.112C604.457 369.112 605.673 370.392 605.673 372.184C605.673 373.432 604.809 374.472 604.105 375.016V375.096C605.129 375.688 606.089 376.584 606.089 378.184C606.089 379.896 604.601 381.224 602.409 381.224ZM603.209 374.648C604.009 373.944 604.425 373.144 604.425 372.264C604.425 371.112 603.689 370.184 602.425 370.184C601.353 370.184 600.569 370.952 600.569 372.072C600.569 373.48 601.833 374.104 603.209 374.648ZM602.441 380.12C603.785 380.12 604.681 379.304 604.681 378.136C604.681 376.568 603.241 375.976 601.593 375.304C600.633 375.912 599.977 376.84 599.977 377.96C599.977 379.208 601.033 380.12 602.441 380.12Z" fill="black"/>
<path d="M676.884 381V380.152C680.564 376.936 682.244 374.584 682.244 372.584C682.244 371.24 681.556 370.248 680.1 370.248C679.14 370.248 678.308 370.84 677.652 371.608L676.804 370.792C677.764 369.752 678.788 369.064 680.276 369.064C682.372 369.064 683.684 370.424 683.684 372.52C683.684 374.872 681.844 377.256 679.076 379.864C679.7 379.8 680.404 379.752 680.996 379.752H684.244V381H676.884ZM689.503 381.224C687.263 381.224 685.839 379.192 685.839 375.096C685.839 371.032 687.263 369.064 689.503 369.064C691.711 369.064 693.135 371.032 693.135 375.096C693.135 379.192 691.711 381.224 689.503 381.224ZM689.503 380.04C690.831 380.04 691.727 378.552 691.727 375.096C691.727 371.688 690.831 370.232 689.503 370.232C688.159 370.232 687.247 371.688 687.247 375.096C687.247 378.552 688.159 380.04 689.503 380.04ZM695.338 381V379.784H697.946V371.048H695.85V370.104C696.906 369.928 697.658 369.656 698.282 369.272H699.402V379.784H701.77V381H695.338ZM708.229 381V373.016C708.229 372.424 708.277 371.48 708.325 370.872H708.245C707.957 371.448 707.637 372.04 707.317 372.616L704.645 376.616H711.173V377.768H703.109V376.808L707.989 369.272H709.605V381H708.229ZM711.856 383.864L716.656 368.296H717.696L712.912 383.864H711.856ZM722.409 381.224C720.249 381.224 718.665 379.912 718.665 378.104C718.665 376.52 719.753 375.432 720.825 374.856V374.792C719.961 374.2 719.225 373.304 719.225 372.072C719.225 370.296 720.617 369.112 722.457 369.112C724.457 369.112 725.673 370.392 725.673 372.184C725.673 373.432 724.809 374.472 724.105 375.016V375.096C725.129 375.688 726.089 376.584 726.089 378.184C726.089 379.896 724.601 381.224 722.409 381.224ZM723.209 374.648C724.009 373.944 724.425 373.144 724.425 372.264C724.425 371.112 723.689 370.184 722.425 370.184C721.353 370.184 720.569 370.952 720.569 372.072C720.569 373.48 721.833 374.104 723.209 374.648ZM722.441 380.12C723.785 380.12 724.681 379.304 724.681 378.136C724.681 376.568 723.241 375.976 721.593 375.304C720.633 375.912 719.977 376.84 719.977 377.96C719.977 379.208 721.033 380.12 722.441 380.12Z" fill="black"/>
<path d="M796.884 381V380.152C800.564 376.936 802.244 374.584 802.244 372.584C802.244 371.24 801.556 370.248 800.1 370.248C799.14 370.248 798.308 370.84 797.652 371.608L796.804 370.792C797.764 369.752 798.788 369.064 800.276 369.064C802.372 369.064 803.684 370.424 803.684 372.52C803.684 374.872 801.844 377.256 799.076 379.864C799.7 379.8 800.404 379.752 800.996 379.752H804.244V381H796.884ZM809.503 381.224C807.263 381.224 805.839 379.192 805.839 375.096C805.839 371.032 807.263 369.064 809.503 369.064C811.711 369.064 813.135 371.032 813.135 375.096C813.135 379.192 811.711 381.224 809.503 381.224ZM809.503 380.04C810.831 380.04 811.727 378.552 811.727 375.096C811.727 371.688 810.831 370.232 809.503 370.232C808.159 370.232 807.247 371.688 807.247 375.096C807.247 378.552 808.159 380.04 809.503 380.04ZM815.338 381V379.784H817.946V371.048H815.85V370.104C816.906 369.928 817.658 369.656 818.282 369.272H819.402V379.784H821.77V381H815.338ZM825.957 381C826.165 376.568 826.965 373.72 829.269 370.52H823.589V369.272H830.917V370.152C828.165 373.688 827.669 376.424 827.477 381H825.957ZM831.856 383.864L836.656 368.296H837.696L832.912 383.864H831.856ZM842.409 381.224C840.249 381.224 838.665 379.912 838.665 378.104C838.665 376.52 839.753 375.432 840.825 374.856V374.792C839.961 374.2 839.225 373.304 839.225 372.072C839.225 370.296 840.617 369.112 842.457 369.112C844.457 369.112 845.673 370.392 845.673 372.184C845.673 373.432 844.809 374.472 844.105 375.016V375.096C845.129 375.688 846.089 376.584 846.089 378.184C846.089 379.896 844.601 381.224 842.409 381.224ZM843.209 374.648C844.009 373.944 844.425 373.144 844.425 372.264C844.425 371.112 843.689 370.184 842.425 370.184C841.353 370.184 840.569 370.952 840.569 372.072C840.569 373.48 841.833 374.104 843.209 374.648ZM842.441 380.12C843.785 380.12 844.681 379.304 844.681 378.136C844.681 376.568 843.241 375.976 841.593 375.304C840.633 375.912 839.977 376.84 839.977 377.96C839.977 379.208 841.033 380.12 842.441 380.12Z" fill="black"/>
<path d="M916.884 381V380.152C920.564 376.936 922.244 374.584 922.244 372.584C922.244 371.24 921.556 370.248 920.1 370.248C919.14 370.248 918.308 370.84 917.652 371.608L916.804 370.792C917.764 369.752 918.788 369.064 920.276 369.064C922.372 369.064 923.684 370.424 923.684 372.52C923.684 374.872 921.844 377.256 919.076 379.864C919.7 379.8 920.404 379.752 920.996 379.752H924.244V381H916.884ZM929.503 381.224C927.263 381.224 925.839 379.192 925.839 375.096C925.839 371.032 927.263 369.064 929.503 369.064C931.711 369.064 933.135 371.032 933.135 375.096C933.135 379.192 931.711 381.224 929.503 381.224ZM929.503 380.04C930.831 380.04 931.727 378.552 931.727 375.096C931.727 371.688 930.831 370.232 929.503 370.232C928.159 370.232 927.247 371.688 927.247 375.096C927.247 378.552 928.159 380.04 929.503 380.04ZM934.634 381V380.152C938.314 376.936 939.994 374.584 939.994 372.584C939.994 371.24 939.306 370.248 937.85 370.248C936.89 370.248 936.058 370.84 935.402 371.608L934.554 370.792C935.514 369.752 936.538 369.064 938.026 369.064C940.122 369.064 941.434 370.424 941.434 372.52C941.434 374.872 939.594 377.256 936.826 379.864C937.45 379.8 938.154 379.752 938.746 379.752H941.994V381H934.634ZM947.253 381.224C945.013 381.224 943.589 379.192 943.589 375.096C943.589 371.032 945.013 369.064 947.253 369.064C949.461 369.064 950.885 371.032 950.885 375.096C950.885 379.192 949.461 381.224 947.253 381.224ZM947.253 380.04C948.581 380.04 949.477 378.552 949.477 375.096C949.477 371.688 948.581 370.232 947.253 370.232C945.909 370.232 944.997 371.688 944.997 375.096C944.997 378.552 945.909 380.04 947.253 380.04ZM951.856 383.864L956.656 368.296H957.696L952.912 383.864H951.856ZM962.409 381.224C960.249 381.224 958.665 379.912 958.665 378.104C958.665 376.52 959.753 375.432 960.825 374.856V374.792C959.961 374.2 959.225 373.304 959.225 372.072C959.225 370.296 960.617 369.112 962.457 369.112C964.457 369.112 965.673 370.392 965.673 372.184C965.673 373.432 964.809 374.472 964.105 375.016V375.096C965.129 375.688 966.089 376.584 966.089 378.184C966.089 379.896 964.601 381.224 962.409 381.224ZM963.209 374.648C964.009 373.944 964.425 373.144 964.425 372.264C964.425 371.112 963.689 370.184 962.425 370.184C961.353 370.184 960.569 370.952 960.569 372.072C960.569 373.48 961.833 374.104 963.209 374.648ZM962.441 380.12C963.785 380.12 964.681 379.304 964.681 378.136C964.681 376.568 963.241 375.976 961.593 375.304C960.633 375.912 959.977 376.84 959.977 377.96C959.977 379.208 961.033 380.12 962.441 380.12Z" fill="black"/>
<g filter="url(#filter1_d_1115_4366)">
<rect x="436.63" width="234.238" height="54" fill="#FFB600"/>
</g>
<path d="M492.799 17.675H513.649V20.1H492.799V17.675ZM493.724 36.1H512.849V38.55H493.724V36.1ZM498.024 21.175H508.224V23.275H498.024V21.175ZM498.024 24.375H508.224V26.475H498.024V24.375ZM491.474 27.575H514.849V30.025H491.474V27.575ZM497.149 32.125H509.224V34.475H497.149V32.125ZM496.249 15.775H499.274V28.925H496.249V15.775ZM507.149 15.8H510.199V28.925H507.149V15.8ZM501.574 30.55H504.649V37.525H501.574V30.55ZM497.799 28.275L500.299 29.2C498.699 31.85 495.999 34.2 493.149 35.475C492.724 34.775 491.874 33.725 491.249 33.175C493.849 32.225 496.474 30.3 497.799 28.275ZM508.649 28.275C509.974 30.2 512.549 32 515.124 32.925C514.474 33.475 513.599 34.55 513.149 35.25C510.449 34.05 507.849 31.675 506.274 29.175L508.649 28.275ZM521.424 23H534.799V25.775H521.424V23ZM518.524 28.375H537.749V31.075H518.524V28.375ZM517.299 35.975H539.074V38.7H517.299V35.975ZM526.499 24.325H529.724V37.25H526.499V24.325ZM520.174 31.9L522.599 30.9C523.524 32.15 524.524 33.9 524.924 35.075L522.324 36.2C521.974 35.05 521.049 33.225 520.174 31.9ZM533.449 30.925L536.299 31.975C535.349 33.525 534.299 35.15 533.474 36.2L531.199 35.275C531.974 34.1 532.924 32.275 533.449 30.925ZM529.274 17.075C531.574 19.575 536.124 22 540.274 23.125C539.574 23.775 538.649 24.975 538.199 25.75C534.024 24.3 529.574 21.45 526.774 18.3L529.274 17.075ZM527.824 15.5L530.649 16.75C527.799 21.175 523.249 24.1 518.199 25.9C517.774 25.025 516.949 23.875 516.174 23.125C520.924 21.75 525.449 19.225 527.824 15.5ZM547.774 27.25H564.774V29.8H547.774V27.25ZM554.399 24.825H557.199V36.15C557.199 37.6 556.924 38.325 555.974 38.725C555.024 39.15 553.674 39.175 551.799 39.175C551.699 38.4 551.324 37.275 550.974 36.5C552.174 36.55 553.499 36.55 553.899 36.55C554.299 36.55 554.399 36.45 554.399 36.1V24.825ZM561.149 15.8L563.149 17.925C559.274 19.05 553.799 19.65 549.124 19.925C549.049 19.275 548.724 18.225 548.449 17.625C552.949 17.325 558.124 16.7 561.149 15.8ZM549.274 23.55H563.049V33.6H549.049V31.225H560.449V25.925H549.274V23.55ZM548.974 20.825L551.049 19.9C551.749 20.8 552.399 22.025 552.649 22.875L550.499 23.95C550.249 23.075 549.624 21.775 548.974 20.825ZM553.949 20.075L556.124 19.375C556.749 20.375 557.299 21.75 557.524 22.675L555.249 23.5C555.074 22.575 554.499 21.125 553.949 20.075ZM560.549 18.975L563.324 19.675C562.549 21.1 561.724 22.475 561.049 23.4L558.574 22.7C559.274 21.7 560.124 20.1 560.549 18.975ZM542.324 18.25L543.799 16.05C545.249 16.675 547.174 17.775 548.099 18.675L546.524 21.1C545.649 20.2 543.799 18.975 542.324 18.25ZM540.999 25.175L542.374 22.925C543.849 23.5 545.799 24.55 546.774 25.4L545.274 27.875C544.374 27.025 542.474 25.85 540.999 25.175ZM541.699 36.925C542.899 35.075 544.649 32 545.999 29.125L547.949 31.125C546.774 33.725 545.324 36.525 543.974 38.95L541.699 36.925ZM574.024 18.05H589.299V20.625H574.024V18.05ZM572.924 36.275H589.849V38.775H572.924V36.275ZM575.099 22.35H587.949V36.725H585.199V24.525H577.749V36.725H575.099V22.35ZM577.074 25.9H585.674V27.975H577.074V25.9ZM577.024 29.375H586.324V31.375H577.024V29.375ZM576.949 32.8H585.724V34.85H576.949V32.8ZM580.299 15.825L583.474 15.925C583.049 18.575 582.424 21.5 581.874 23.325L579.274 23.125C579.724 21.15 580.149 18.075 580.299 15.825ZM571.574 15.85L574.324 16.725C572.774 20.975 570.324 25.5 567.724 28.375C567.449 27.625 566.649 25.975 566.174 25.25C568.324 22.95 570.349 19.425 571.574 15.85ZM569.099 22.8L571.874 19.95V19.975V39.225H569.099V22.8ZM600.474 21.375V22.375H605.624V21.375H600.474ZM598.099 19.875H608.149V23.875H598.099V19.875ZM599.524 28.625V33.425H606.599V28.625H599.524ZM597.249 27H609.024V35.075H597.249V27ZM602.149 30.6V31.45H603.924V30.6H602.149ZM600.549 29.35H605.649V32.7H600.549V29.35ZM596.074 24.625H610.299V26.25H596.074V24.625ZM601.774 22.9H604.299V25.35H601.774V22.9ZM592.449 16.625H613.974V39.25H611.049V19.075H595.249V39.25H592.449V16.625ZM594.224 35.9H612.524V38.375H594.224V35.9Z" fill="black"/>
<path d="M436.63 0V16H424L436.63 0Z" fill="#975B02"/>
<path d="M670.869 0V16H683.499L670.869 0Z" fill="#975B02"/>
<path d="M1072 356H75V322.681L84.1784 335.453L96.225 318.793L108.272 342.117L120.892 331.566L128.349 342.117L136.954 332.676L142.117 342.117L157.605 346.004H229.885L266.025 329.344L272.909 343.228L305.033 322.681L309.048 332.676L326.831 315.461L331.994 327.123L353.793 308.242L358.382 324.347L382.475 302.134L391.08 312.685L405.421 295.47L410.584 305.466L423.204 276.589L432.383 298.802L439.84 288.251L445.003 307.687L452.46 295.47L462.212 326.013L470.243 310.463L473.685 324.347L489.174 294.359L492.042 306.576L501.794 287.695L503.515 296.58L510.972 284.363L514.414 294.359L523.593 280.476L525.887 290.472L537.934 283.253L543.097 267.704L553.996 281.587L560.306 267.704L563.748 277.699L574.074 262.706L580.384 284.363L584.973 275.478L590.136 290.472L605.051 271.591L608.492 286.585L620.539 278.81L625.702 267.704L631.438 278.81L640.617 263.816L644.632 274.367L649.221 261.595L653.237 275.478L656.679 267.704L658.974 283.253L669.873 258.263L677.33 270.48L684.214 252.71L687.082 261.04L693.392 237.716L696.261 247.157L705.439 222.722L708.307 231.608L714.044 215.503L716.338 222.722L726.09 199.954L735.269 221.056L744.447 202.175L753.625 223.833L758.788 209.395L763.951 231.608L776.571 205.507L778.866 216.058L788.618 195.511L794.354 216.058L798.37 205.507L800.091 216.058L823.61 172.743L826.479 181.628L845.983 149.42L851.719 166.079L855.735 155.528L863.192 167.19L868.355 155.528L874.091 192.18L882.123 169.967L887.859 184.96L895.89 166.079L899.332 176.075L904.495 161.637L913.1 184.96L921.131 161.637L925.146 171.633L930.883 155.528L937.193 223.833L953.255 172.743L956.123 183.85L972.759 124.43L980.216 148.309L987.1 115.545L991.116 123.319L1001.44 90L1007.75 109.992L1013.49 91.1106L1018.65 127.762L1022.67 109.992L1030.12 135.537L1038.73 105.549L1043.89 123.319L1049.63 109.992L1055.36 126.096L1061.1 116.656L1062.82 127.762L1066.84 111.658L1068.56 117.766L1072 103.328V356Z" fill="#FFC000"/>
<path d="M75.1895 85H1071.85" stroke="black"/>
<path d="M75.1895 139H1071.85" stroke="black"/>
<path d="M75.1895 193H1071.85" stroke="black"/>
<path d="M75.1895 247H1071.85" stroke="black"/>
<path d="M75.1895 301H1071.85" stroke="black"/>
<path d="M75 355H1071.66" stroke="black"/>
<defs>
<filter id="filter0_d_1115_4366" x="0" y="12" width="1116" height="438" filterUnits="userSpaceOnUse" color-interpolation-filters="sRGB">
<feFlood flood-opacity="0" result="BackgroundImageFix"/>
<feColorMatrix in="SourceAlpha" type="matrix" values="0 0 0 0 0 0 0 0 0 0 0 0 0 0 0 0 0 0 127 0" result="hardAlpha"/>
<feOffset dx="4" dy="4"/>
<feGaussianBlur stdDeviation="4"/>
<feComposite in2="hardAlpha" operator="out"/>
<feColorMatrix type="matrix" values="0 0 0 0 0 0 0 0 0 0 0 0 0 0 0 0 0 0 0.25 0"/>
<feBlend mode="normal" in2="BackgroundImageFix" result="effect1_dropShadow_1115_4366"/>
<feBlend mode="normal" in="SourceGraphic" in2="effect1_dropShadow_1115_4366" result="shape"/>
</filter>
<filter id="filter1_d_1115_4366" x="436.63" y="0" width="238.238" height="58" filterUnits="userSpaceOnUse" color-interpolation-filters="sRGB">
<feFlood flood-opacity="0" result="BackgroundImageFix"/>
<feColorMatrix in="SourceAlpha" type="matrix" values="0 0 0 0 0 0 0 0 0 0 0 0 0 0 0 0 0 0 127 0" result="hardAlpha"/>
<feOffset dx="2" dy="2"/>
<feGaussianBlur stdDeviation="1"/>
<feComposite in2="hardAlpha" operator="out"/>
<feColorMatrix type="matrix" values="0 0 0 0 0 0 0 0 0 0 0 0 0 0 0 0 0 0 0.25 0"/>
<feBlend mode="normal" in2="BackgroundImageFix" result="effect1_dropShadow_1115_4366"/>
<feBlend mode="normal" in="SourceGraphic" in2="effect1_dropShadow_1115_4366" result="shape"/>
</filter>
</defs>
</svg>
