<svg width="346" height="343" viewBox="0 0 346 343" fill="none" xmlns="http://www.w3.org/2000/svg">
<g filter="url(#filter0_d_1115_4364)">
<rect x="4" y="16" width="330" height="315" rx="10" fill="white"/>
</g>
<path d="M23.0836 99V97.936H25.3656V90.292H23.5316V89.466C24.4556 89.312 25.1136 89.074 25.6596 88.738H26.6396V97.936H28.7116V99H23.0836ZM33.2712 99.196C31.6752 99.196 30.6952 98.524 29.9952 97.824L30.6392 96.984C31.2132 97.586 31.9692 98.132 33.1452 98.132C34.3632 98.132 35.3292 97.194 35.3292 95.71C35.3292 94.24 34.4892 93.358 33.2152 93.358C32.5292 93.358 32.0952 93.582 31.5072 93.974L30.8212 93.54L31.1432 88.738H36.1412V89.83H32.2632L31.9972 92.798C32.4592 92.546 32.9212 92.392 33.5372 92.392C35.2452 92.392 36.6312 93.4 36.6312 95.668C36.6312 97.908 34.9932 99.196 33.2712 99.196ZM41.2748 99.196C39.3148 99.196 38.0688 97.418 38.0688 93.834C38.0688 90.278 39.3148 88.556 41.2748 88.556C43.2068 88.556 44.4528 90.278 44.4528 93.834C44.4528 97.418 43.2068 99.196 41.2748 99.196ZM41.2748 98.16C42.4368 98.16 43.2208 96.858 43.2208 93.834C43.2208 90.852 42.4368 89.578 41.2748 89.578C40.0988 89.578 39.3008 90.852 39.3008 93.834C39.3008 96.858 40.0988 98.16 41.2748 98.16ZM23.0836 130V128.936H25.3656V121.292H23.5316V120.466C24.4556 120.312 25.1136 120.074 25.6596 119.738H26.6396V128.936H28.7116V130H23.0836ZM30.2332 130V129.258C33.4532 126.444 34.9232 124.386 34.9232 122.636C34.9232 121.46 34.3212 120.592 33.0472 120.592C32.2072 120.592 31.4792 121.11 30.9052 121.782L30.1632 121.068C31.0032 120.158 31.8992 119.556 33.2012 119.556C35.0352 119.556 36.1832 120.746 36.1832 122.58C36.1832 124.638 34.5732 126.724 32.1512 129.006C32.6972 128.95 33.3132 128.908 33.8312 128.908H36.6732V130H30.2332ZM41.0368 130.196C39.4408 130.196 38.4608 129.524 37.7608 128.824L38.4048 127.984C38.9788 128.586 39.7348 129.132 40.9108 129.132C42.1288 129.132 43.0948 128.194 43.0948 126.71C43.0948 125.24 42.2548 124.358 40.9808 124.358C40.2948 124.358 39.8608 124.582 39.2728 124.974L38.5868 124.54L38.9088 119.738H43.9068V120.83H40.0288L39.7628 123.798C40.2248 123.546 40.6868 123.392 41.3028 123.392C43.0108 123.392 44.3968 124.4 44.3968 126.668C44.3968 128.908 42.7588 130.196 41.0368 130.196ZM23.0836 161V159.936H25.3656V152.292H23.5316V151.466C24.4556 151.312 25.1136 151.074 25.6596 150.738H26.6396V159.936H28.7116V161H23.0836ZM33.5092 161.196C31.5492 161.196 30.3032 159.418 30.3032 155.834C30.3032 152.278 31.5492 150.556 33.5092 150.556C35.4412 150.556 36.6872 152.278 36.6872 155.834C36.6872 159.418 35.4412 161.196 33.5092 161.196ZM33.5092 160.16C34.6712 160.16 35.4552 158.858 35.4552 155.834C35.4552 152.852 34.6712 151.578 33.5092 151.578C32.3332 151.578 31.5352 152.852 31.5352 155.834C31.5352 158.858 32.3332 160.16 33.5092 160.16ZM41.2748 161.196C39.3148 161.196 38.0688 159.418 38.0688 155.834C38.0688 152.278 39.3148 150.556 41.2748 150.556C43.2068 150.556 44.4528 152.278 44.4528 155.834C44.4528 159.418 43.2068 161.196 41.2748 161.196ZM41.2748 160.16C42.4368 160.16 43.2208 158.858 43.2208 155.834C43.2208 152.852 42.4368 151.578 41.2748 151.578C40.0988 151.578 39.3008 152.852 39.3008 155.834C39.3008 158.858 40.0988 160.16 41.2748 160.16ZM28.4924 192C28.6744 188.122 29.3744 185.63 31.3904 182.83H26.4204V181.738H32.8324V182.508C30.4244 185.602 29.9904 187.996 29.8224 192H28.4924ZM37.154 192.196C35.558 192.196 34.578 191.524 33.878 190.824L34.522 189.984C35.096 190.586 35.852 191.132 37.028 191.132C38.246 191.132 39.212 190.194 39.212 188.71C39.212 187.24 38.372 186.358 37.098 186.358C36.412 186.358 35.978 186.582 35.39 186.974L34.704 186.54L35.026 181.738H40.024V182.83H36.146L35.88 185.798C36.342 185.546 36.804 185.392 37.42 185.392C39.128 185.392 40.514 186.4 40.514 188.668C40.514 190.908 38.876 192.196 37.154 192.196ZM26.3504 223V222.258C29.5704 219.444 31.0404 217.386 31.0404 215.636C31.0404 214.46 30.4384 213.592 29.1644 213.592C28.3244 213.592 27.5964 214.11 27.0224 214.782L26.2804 214.068C27.1204 213.158 28.0164 212.556 29.3184 212.556C31.1524 212.556 32.3004 213.746 32.3004 215.58C32.3004 217.638 30.6904 219.724 28.2684 222.006C28.8144 221.95 29.4304 221.908 29.9484 221.908H32.7904V223H26.3504ZM37.154 223.196C35.558 223.196 34.578 222.524 33.878 221.824L34.522 220.984C35.096 221.586 35.852 222.132 37.028 222.132C38.246 222.132 39.212 221.194 39.212 219.71C39.212 218.24 38.372 217.358 37.098 217.358C36.412 217.358 35.978 217.582 35.39 217.974L34.704 217.54L35.026 212.738H40.024V213.83H36.146L35.88 216.798C36.342 216.546 36.804 216.392 37.42 216.392C39.128 216.392 40.514 217.4 40.514 219.668C40.514 221.908 38.876 223.196 37.154 223.196ZM33.5092 254.196C31.5492 254.196 30.3032 252.418 30.3032 248.834C30.3032 245.278 31.5492 243.556 33.5092 243.556C35.4412 243.556 36.6872 245.278 36.6872 248.834C36.6872 252.418 35.4412 254.196 33.5092 254.196ZM33.5092 253.16C34.6712 253.16 35.4552 251.858 35.4552 248.834C35.4552 245.852 34.6712 244.578 33.5092 244.578C32.3332 244.578 31.5352 245.852 31.5352 248.834C31.5352 251.858 32.3332 253.16 33.5092 253.16Z" fill="black"/>
<path d="M55 259.201L56.064 259.201L56.064 261.483L63.708 261.483L63.708 259.649L64.534 259.649C64.688 260.573 64.926 261.231 65.262 261.777L65.262 262.757L56.064 262.757L56.064 264.829L55 264.829L55 259.201ZM54.804 269.01C54.804 267.89 55.252 267.106 55.854 266.532L56.666 267.246C56.162 267.68 55.868 268.31 55.868 268.968C55.868 270.34 57.058 271.53 60.572 271.53C63.092 271.53 64.45 270.732 64.45 269.29C64.45 268.31 63.526 267.554 62.112 267.554C60.74 267.554 59.83 268.17 59.83 269.388C59.83 270.074 60.236 270.872 61.258 271.544L60.236 271.614C59.424 270.97 58.892 270.06 58.892 269.178C58.892 267.456 59.984 266.35 62.112 266.35C64.1 266.35 65.444 267.694 65.444 269.29C65.444 271.264 63.834 272.734 60.572 272.734C56.4 272.734 54.804 270.942 54.804 269.01ZM54.804 276.776C54.804 275.656 55.252 274.872 55.854 274.298L56.666 275.012C56.162 275.446 55.868 276.076 55.868 276.734C55.868 278.106 57.058 279.296 60.572 279.296C63.092 279.296 64.45 278.498 64.45 277.056C64.45 276.076 63.526 275.32 62.112 275.32C60.74 275.32 59.83 275.936 59.83 277.154C59.83 277.84 60.236 278.638 61.258 279.31L60.236 279.38C59.424 278.736 58.892 277.826 58.892 276.944C58.892 275.222 59.984 274.116 62.112 274.116C64.1 274.116 65.444 275.46 65.444 277.056C65.444 279.03 63.834 280.5 60.572 280.5C56.4 280.5 54.804 278.708 54.804 276.776ZM54.804 284.542C54.804 283.422 55.252 282.638 55.854 282.064L56.666 282.778C56.162 283.212 55.868 283.842 55.868 284.5C55.868 285.872 57.058 287.062 60.572 287.062C63.092 287.062 64.45 286.264 64.45 284.822C64.45 283.842 63.526 283.086 62.112 283.086C60.74 283.086 59.83 283.702 59.83 284.92C59.83 285.606 60.236 286.404 61.258 287.076L60.236 287.146C59.424 286.502 58.892 285.592 58.892 284.71C58.892 282.988 59.984 281.882 62.112 281.882C64.1 281.882 65.444 283.226 65.444 284.822C65.444 286.796 63.834 288.266 60.572 288.266C56.4 288.266 54.804 286.474 54.804 284.542Z" fill="black"/>
<path d="M87 260.585L87.742 260.585C90.556 263.805 92.614 265.275 94.364 265.275C95.54 265.275 96.408 264.673 96.408 263.399C96.408 262.559 95.89 261.831 95.218 261.257L95.932 260.515C96.842 261.355 97.444 262.251 97.444 263.553C97.444 265.387 96.254 266.535 94.42 266.535C92.362 266.535 90.276 264.925 87.994 262.503C88.05 263.049 88.092 263.665 88.092 264.183L88.092 267.025L87 267.025L87 260.585ZM86.804 271.626C86.804 269.666 88.582 268.42 92.166 268.42C95.722 268.42 97.444 269.666 97.444 271.626C97.444 273.558 95.722 274.804 92.166 274.804C88.582 274.804 86.804 273.558 86.804 271.626ZM87.84 271.626C87.84 272.788 89.142 273.572 92.166 273.572C95.148 273.572 96.422 272.788 96.422 271.626C96.422 270.45 95.148 269.652 92.166 269.652C89.142 269.652 87.84 270.45 87.84 271.626ZM86.804 279.392C86.804 277.432 88.582 276.186 92.166 276.186C95.722 276.186 97.444 277.432 97.444 279.392C97.444 281.324 95.722 282.57 92.166 282.57C88.582 282.57 86.804 281.324 86.804 279.392ZM87.84 279.392C87.84 280.554 89.142 281.338 92.166 281.338C95.148 281.338 96.422 280.554 96.422 279.392C96.422 278.216 95.148 277.418 92.166 277.418C89.142 277.418 87.84 278.216 87.84 279.392ZM87 283.882L87.742 283.882C90.556 287.102 92.614 288.572 94.364 288.572C95.54 288.572 96.408 287.97 96.408 286.696C96.408 285.856 95.89 285.128 95.218 284.554L95.932 283.812C96.842 284.652 97.444 285.548 97.444 286.85C97.444 288.684 96.254 289.832 94.42 289.832C92.362 289.832 90.276 288.222 87.994 285.8C88.05 286.346 88.092 286.962 88.092 287.48L88.092 290.322L87 290.322L87 283.882Z" fill="black"/>
<path d="M119 259.585L119.742 259.585C122.556 262.805 124.614 264.275 126.364 264.275C127.54 264.275 128.408 263.673 128.408 262.399C128.408 261.559 127.89 260.831 127.218 260.257L127.932 259.515C128.842 260.355 129.444 261.251 129.444 262.553C129.444 264.387 128.254 265.535 126.42 265.535C124.362 265.535 122.276 263.925 119.994 261.503C120.05 262.049 120.092 262.665 120.092 263.183L120.092 266.025L119 266.025L119 259.585ZM118.804 270.626C118.804 268.666 120.582 267.42 124.166 267.42C127.722 267.42 129.444 268.666 129.444 270.626C129.444 272.558 127.722 273.804 124.166 273.804C120.582 273.804 118.804 272.558 118.804 270.626ZM119.84 270.626C119.84 271.788 121.142 272.572 124.166 272.572C127.148 272.572 128.422 271.788 128.422 270.626C128.422 269.45 127.148 268.652 124.166 268.652C121.142 268.652 119.84 269.45 119.84 270.626ZM118.804 278.392C118.804 276.432 120.582 275.186 124.166 275.186C127.722 275.186 129.444 276.432 129.444 278.392C129.444 280.324 127.722 281.57 124.166 281.57C120.582 281.57 118.804 280.324 118.804 278.392ZM119.84 278.392C119.84 279.554 121.142 280.338 124.166 280.338C127.148 280.338 128.422 279.554 128.422 278.392C128.422 277.216 127.148 276.418 124.166 276.418C121.142 276.418 119.84 277.216 119.84 278.392ZM118.804 285.92C118.804 284.324 119.476 283.344 120.176 282.644L121.016 283.288C120.414 283.862 119.868 284.618 119.868 285.794C119.868 287.012 120.806 287.978 122.29 287.978C123.76 287.978 124.642 287.138 124.642 285.864C124.642 285.178 124.418 284.744 124.026 284.156L124.46 283.47L129.262 283.792L129.262 288.79L128.17 288.79L128.17 284.912L125.202 284.646C125.454 285.108 125.608 285.57 125.608 286.186C125.608 287.894 124.6 289.28 122.332 289.28C120.092 289.28 118.804 287.642 118.804 285.92Z" fill="black"/>
<path d="M151 259.585L151.742 259.585C154.556 262.805 156.614 264.275 158.364 264.275C159.54 264.275 160.408 263.673 160.408 262.399C160.408 261.559 159.89 260.831 159.218 260.257L159.932 259.515C160.842 260.355 161.444 261.251 161.444 262.553C161.444 264.387 160.254 265.535 158.42 265.535C156.362 265.535 154.276 263.925 151.994 261.503C152.05 262.049 152.092 262.665 152.092 263.183L152.092 266.025L151 266.025L151 259.585ZM150.804 270.626C150.804 268.666 152.582 267.42 156.166 267.42C159.722 267.42 161.444 268.666 161.444 270.626C161.444 272.558 159.722 273.804 156.166 273.804C152.582 273.804 150.804 272.558 150.804 270.626ZM151.84 270.626C151.84 271.788 153.142 272.572 156.166 272.572C159.148 272.572 160.422 271.788 160.422 270.626C160.422 269.45 159.148 268.652 156.166 268.652C153.142 268.652 151.84 269.45 151.84 270.626ZM150.804 278.392C150.804 276.432 152.582 275.186 156.166 275.186C159.722 275.186 161.444 276.432 161.444 278.392C161.444 280.324 159.722 281.57 156.166 281.57C152.582 281.57 150.804 280.324 150.804 278.392ZM151.84 278.392C151.84 279.554 153.142 280.338 156.166 280.338C159.148 280.338 160.422 279.554 160.422 278.392C160.422 277.216 159.148 276.418 156.166 276.418C153.142 276.418 151.84 277.216 151.84 278.392ZM150.804 286.172C150.804 284.282 151.952 282.896 153.534 282.896C154.92 282.896 155.872 283.848 156.376 284.786L156.432 284.786C156.95 284.03 157.734 283.386 158.812 283.386C160.366 283.386 161.402 284.604 161.402 286.214C161.402 287.964 160.282 289.028 158.714 289.028C157.622 289.028 156.712 288.272 156.236 287.656L156.166 287.656C155.648 288.552 154.864 289.392 153.464 289.392C151.966 289.392 150.804 288.09 150.804 286.172ZM156.558 286.872C157.174 287.572 157.874 287.936 158.644 287.936C159.652 287.936 160.464 287.292 160.464 286.186C160.464 285.248 159.792 284.562 158.812 284.562C157.58 284.562 157.034 285.668 156.558 286.872ZM151.77 286.2C151.77 287.376 152.484 288.16 153.506 288.16C154.878 288.16 155.396 286.9 155.984 285.458C155.452 284.618 154.64 284.044 153.66 284.044C152.568 284.044 151.77 284.968 151.77 286.2Z" fill="black"/>
<path d="M183 258.585L183.742 258.585C186.556 261.805 188.614 263.275 190.364 263.275C191.54 263.275 192.408 262.673 192.408 261.399C192.408 260.559 191.89 259.831 191.218 259.257L191.932 258.515C192.842 259.355 193.444 260.251 193.444 261.553C193.444 263.387 192.254 264.535 190.42 264.535C188.362 264.535 186.276 262.925 183.994 260.503C184.05 261.049 184.092 261.665 184.092 262.183L184.092 265.025L183 265.025L183 258.585ZM182.804 269.626C182.804 267.666 184.582 266.42 188.166 266.42C191.722 266.42 193.444 267.666 193.444 269.626C193.444 271.558 191.722 272.804 188.166 272.804C184.582 272.804 182.804 271.558 182.804 269.626ZM183.84 269.626C183.84 270.788 185.142 271.572 188.166 271.572C191.148 271.572 192.422 270.788 192.422 269.626C192.422 268.45 191.148 267.652 188.166 267.652C185.142 267.652 183.84 268.45 183.84 269.626ZM183 274.732L184.064 274.732L184.064 277.014L191.708 277.014L191.708 275.18L192.534 275.18C192.688 276.104 192.926 276.762 193.262 277.308L193.262 278.288L184.064 278.288L184.064 280.36L183 280.36L183 274.732ZM183 282.498L184.064 282.498L184.064 284.78L191.708 284.78L191.708 282.946L192.534 282.946C192.688 283.87 192.926 284.528 193.262 285.074L193.262 286.054L184.064 286.054L184.064 288.126L183 288.126L183 282.498Z" fill="black"/>
<path d="M215 259.085L215.742 259.085C218.556 262.305 220.614 263.775 222.364 263.775C223.54 263.775 224.408 263.173 224.408 261.899C224.408 261.059 223.89 260.331 223.218 259.757L223.932 259.015C224.842 259.855 225.444 260.751 225.444 262.053C225.444 263.887 224.254 265.035 222.42 265.035C220.362 265.035 218.276 263.425 215.994 261.003C216.05 261.549 216.092 262.165 216.092 262.683L216.092 265.525L215 265.525L215 259.085ZM214.804 270.126C214.804 268.166 216.582 266.92 220.166 266.92C223.722 266.92 225.444 268.166 225.444 270.126C225.444 272.058 223.722 273.304 220.166 273.304C216.582 273.304 214.804 272.058 214.804 270.126ZM215.84 270.126C215.84 271.288 217.142 272.072 220.166 272.072C223.148 272.072 224.422 271.288 224.422 270.126C224.422 268.95 223.148 268.152 220.166 268.152C217.142 268.152 215.84 268.95 215.84 270.126ZM215 275.232L216.064 275.232L216.064 277.514L223.708 277.514L223.708 275.68L224.534 275.68C224.688 276.604 224.926 277.262 225.262 277.808L225.262 278.788L216.064 278.788L216.064 280.86L215 280.86L215 275.232ZM215 286.512L221.986 286.512C222.504 286.512 223.33 286.554 223.862 286.596L223.862 286.526C223.358 286.274 222.84 285.994 222.336 285.714L218.836 283.376L218.836 289.088L217.828 289.088L217.828 282.032L218.668 282.032L225.262 286.302L225.262 287.716L215 287.716L215 286.512Z" fill="black"/>
<path d="M247 259.085L247.742 259.085C250.556 262.305 252.614 263.775 254.364 263.775C255.54 263.775 256.408 263.173 256.408 261.899C256.408 261.059 255.89 260.331 255.218 259.757L255.932 259.015C256.842 259.855 257.444 260.751 257.444 262.053C257.444 263.887 256.254 265.035 254.42 265.035C252.362 265.035 250.276 263.425 247.994 261.003C248.05 261.549 248.092 262.165 248.092 262.683L248.092 265.525L247 265.525L247 259.085ZM246.804 270.126C246.804 268.166 248.582 266.92 252.166 266.92C255.722 266.92 257.444 268.166 257.444 270.126C257.444 272.058 255.722 273.304 252.166 273.304C248.582 273.304 246.804 272.058 246.804 270.126ZM247.84 270.126C247.84 271.288 249.142 272.072 252.166 272.072C255.148 272.072 256.422 271.288 256.422 270.126C256.422 268.95 255.148 268.152 252.166 268.152C249.142 268.152 247.84 268.95 247.84 270.126ZM247 275.232L248.064 275.232L248.064 277.514L255.708 277.514L255.708 275.68L256.534 275.68C256.688 276.604 256.926 277.262 257.262 277.808L257.262 278.788L248.064 278.788L248.064 280.86L247 280.86L247 275.232ZM247 284.524C250.878 284.706 253.37 285.406 256.17 287.422L256.17 282.452L257.262 282.452L257.262 288.864L256.492 288.864C253.398 286.456 251.004 286.022 247 285.854L247 284.524Z" fill="black"/>
<path d="M279 258.585L279.742 258.585C282.556 261.805 284.614 263.275 286.364 263.275C287.54 263.275 288.408 262.673 288.408 261.399C288.408 260.559 287.89 259.831 287.218 259.257L287.932 258.515C288.842 259.355 289.444 260.251 289.444 261.553C289.444 263.387 288.254 264.535 286.42 264.535C284.362 264.535 282.276 262.925 279.994 260.503C280.05 261.049 280.092 261.665 280.092 262.183L280.092 265.025L279 265.025L279 258.585ZM278.804 269.626C278.804 267.666 280.582 266.42 284.166 266.42C287.722 266.42 289.444 267.666 289.444 269.626C289.444 271.558 287.722 272.804 284.166 272.804C280.582 272.804 278.804 271.558 278.804 269.626ZM279.84 269.626C279.84 270.788 281.142 271.572 284.166 271.572C287.148 271.572 288.422 270.788 288.422 269.626C288.422 268.45 287.148 267.652 284.166 267.652C281.142 267.652 279.84 268.45 279.84 269.626ZM279 274.116L279.742 274.116C282.556 277.336 284.614 278.806 286.364 278.806C287.54 278.806 288.408 278.204 288.408 276.93C288.408 276.09 287.89 275.362 287.218 274.788L287.932 274.046C288.842 274.886 289.444 275.782 289.444 277.084C289.444 278.918 288.254 280.066 286.42 280.066C284.362 280.066 282.276 278.456 279.994 276.034C280.05 276.58 280.092 277.196 280.092 277.714L280.092 280.556L279 280.556L279 274.116ZM278.804 285.158C278.804 283.198 280.582 281.952 284.166 281.952C287.722 281.952 289.444 283.198 289.444 285.158C289.444 287.09 287.722 288.336 284.166 288.336C280.582 288.336 278.804 287.09 278.804 285.158ZM279.84 285.158C279.84 286.32 281.142 287.104 284.166 287.104C287.148 287.104 288.422 286.32 288.422 285.158C288.422 283.982 287.148 283.184 284.166 283.184C281.142 283.184 279.84 283.982 279.84 285.158Z" fill="black"/>
<g filter="url(#filter1_d_1115_4364)">
<rect x="52" width="234" height="39" fill="#FFB600"/>
</g>
<path d="M119.874 12.04H136.554V13.98H119.874V12.04ZM120.614 26.78H135.914V28.74H120.614V26.78ZM124.054 14.84H132.214V16.52H124.054V14.84ZM124.054 17.4H132.214V19.08H124.054V17.4ZM118.814 19.96H137.514V21.92H118.814V19.96ZM123.354 23.6H133.014V25.48H123.354V23.6ZM122.634 10.52H125.054V21.04H122.634V10.52ZM131.354 10.54H133.794V21.04H131.354V10.54ZM126.894 22.34H129.354V27.92H126.894V22.34ZM123.874 20.52L125.874 21.26C124.594 23.38 122.434 25.26 120.154 26.28C119.814 25.72 119.134 24.88 118.634 24.44C120.714 23.68 122.814 22.14 123.874 20.52ZM132.554 20.52C133.614 22.06 135.674 23.5 137.734 24.24C137.214 24.68 136.514 25.54 136.154 26.1C133.994 25.14 131.914 23.24 130.654 21.24L132.554 20.52ZM142.774 16.3H153.474V18.52H142.774V16.3ZM140.454 20.6H155.834V22.76H140.454V20.6ZM139.474 26.68H156.894V28.86H139.474V26.68ZM146.834 17.36H149.414V27.7H146.834V17.36ZM141.774 23.42L143.714 22.62C144.454 23.62 145.254 25.02 145.574 25.96L143.494 26.86C143.214 25.94 142.474 24.48 141.774 23.42ZM152.394 22.64L154.674 23.48C153.914 24.72 153.074 26.02 152.414 26.86L150.594 26.12C151.214 25.18 151.974 23.72 152.394 22.64ZM149.054 11.56C150.894 13.56 154.534 15.5 157.854 16.4C157.294 16.92 156.554 17.88 156.194 18.5C152.854 17.34 149.294 15.06 147.054 12.54L149.054 11.56ZM147.894 10.3L150.154 11.3C147.874 14.84 144.234 17.18 140.194 18.62C139.854 17.92 139.194 17 138.574 16.4C142.374 15.3 145.994 13.28 147.894 10.3ZM163.854 19.7H177.454V21.74H163.854V19.7ZM169.154 17.76H171.394V26.82C171.394 27.98 171.174 28.56 170.414 28.88C169.654 29.22 168.574 29.24 167.074 29.24C166.994 28.62 166.694 27.72 166.414 27.1C167.374 27.14 168.434 27.14 168.754 27.14C169.074 27.14 169.154 27.06 169.154 26.78V17.76ZM174.554 10.54L176.154 12.24C173.054 13.14 168.674 13.62 164.934 13.84C164.874 13.32 164.614 12.48 164.394 12C167.994 11.76 172.134 11.26 174.554 10.54ZM165.054 16.74H176.074V24.78H164.874V22.88H173.994V18.64H165.054V16.74ZM164.814 14.56L166.474 13.82C167.034 14.54 167.554 15.52 167.754 16.2L166.034 17.06C165.834 16.36 165.334 15.32 164.814 14.56ZM168.794 13.96L170.534 13.4C171.034 14.2 171.474 15.3 171.654 16.04L169.834 16.7C169.694 15.96 169.234 14.8 168.794 13.96ZM174.074 13.08L176.294 13.64C175.674 14.78 175.014 15.88 174.474 16.62L172.494 16.06C173.054 15.26 173.734 13.98 174.074 13.08ZM159.494 12.5L160.674 10.74C161.834 11.24 163.374 12.12 164.114 12.84L162.854 14.78C162.154 14.06 160.674 13.08 159.494 12.5ZM158.434 18.04L159.534 16.24C160.714 16.7 162.274 17.54 163.054 18.22L161.854 20.2C161.134 19.52 159.614 18.58 158.434 18.04ZM158.994 27.44C159.954 25.96 161.354 23.5 162.434 21.2L163.994 22.8C163.054 24.88 161.894 27.12 160.814 29.06L158.994 27.44ZM184.854 12.34H197.074V14.4H184.854V12.34ZM183.974 26.92H197.514V28.92H183.974V26.92ZM185.714 15.78H195.994V27.28H193.794V17.52H187.834V27.28H185.714V15.78ZM187.294 18.62H194.174V20.28H187.294V18.62ZM187.254 21.4H194.694V23H187.254V21.4ZM187.194 24.14H194.214V25.78H187.194V24.14ZM189.874 10.56L192.414 10.64C192.074 12.76 191.574 15.1 191.134 16.56L189.054 16.4C189.414 14.82 189.754 12.36 189.874 10.56ZM182.894 10.58L185.094 11.28C183.854 14.68 181.894 18.3 179.814 20.6C179.594 20 178.954 18.68 178.574 18.1C180.294 16.26 181.914 13.44 182.894 10.58ZM180.914 16.14L183.134 13.86V13.88V29.28H180.914V16.14ZM206.014 15V15.8H210.134V15H206.014ZM204.114 13.8H212.154V17H204.114V13.8ZM205.254 20.8V24.64H210.914V20.8H205.254ZM203.434 19.5H212.854V25.96H203.434V19.5ZM207.354 22.38V23.06H208.774V22.38H207.354ZM206.074 21.38H210.154V24.06H206.074V21.38ZM202.494 17.6H213.874V18.9H202.494V17.6ZM207.054 16.22H209.074V18.18H207.054V16.22ZM199.594 11.2H216.814V29.3H214.474V13.16H201.834V29.3H199.594V11.2ZM201.014 26.62H215.654V28.6H201.014V26.62Z" fill="black"/>
<path d="M52 0V16H39L52 0Z" fill="#975B02"/>
<path d="M286 0V16H298L286 0Z" fill="#975B02"/>
<path d="M318 248H54V228.96L56.4304 236.259L59.6203 226.739L62.8101 240.067L66.1519 234.038L68.1266 240.067L70.4051 234.672L71.7722 240.067L75.8734 242.288H95.0127L104.582 232.768L106.405 240.701L114.911 228.96L115.975 234.672L120.684 224.835L122.051 231.499L127.823 220.71L129.038 229.912L135.418 217.219L137.696 223.248L141.494 213.411L142.861 219.123L146.203 202.622L148.633 215.315L150.608 209.286L151.975 220.392L153.949 213.411L156.532 230.864L158.658 221.979L159.57 229.912L163.671 212.777L164.43 219.758L167.013 208.969L167.468 214.046L169.443 207.065L170.354 212.777L172.785 204.843L173.392 210.555L176.582 206.43L177.949 197.545L180.835 205.478L182.506 197.545L183.418 203.257L186.152 194.689L187.823 207.065L189.038 201.987L190.405 210.555L194.354 199.766L195.266 208.334L198.456 203.891L199.823 197.545L201.342 203.891L203.772 195.324L204.835 201.353L206.051 194.054L207.114 201.987L208.025 197.545L208.633 206.43L211.519 192.15L213.494 199.132L215.316 188.977L216.076 193.737L217.747 180.409L218.506 185.804L220.937 171.841L221.696 176.919L223.215 167.716L223.823 171.841L226.405 158.831L228.835 170.889L231.266 160.1L233.696 172.476L235.063 164.225L236.43 176.919L239.772 162.004L240.38 168.033L242.962 156.292L244.481 168.033L245.544 162.004L246 168.033L252.228 143.282L252.987 148.359L258.152 129.954L259.671 139.474L260.734 133.445L262.709 140.109L264.076 133.445L265.595 154.388L267.722 141.695L269.24 150.263L271.367 139.474L272.278 145.186L273.646 136.935L275.924 150.263L278.051 136.935L279.114 142.647L280.633 133.445L282.304 172.476L286.557 143.282L287.316 149.628L291.722 115.674L293.696 129.319L295.519 110.597L296.582 115.04L299.316 96L300.987 107.424L302.506 96.6347L303.873 117.578L304.937 107.424L306.911 122.021L309.19 104.885L310.557 115.04L312.076 107.424L313.595 116.626L315.114 111.232L315.57 117.578L316.633 108.376L317.089 111.866L318 103.616V248Z" fill="#FFC000"/>
<path d="M54 93H318" stroke="black"/>
<path d="M54 124H318" stroke="black"/>
<path d="M54 155H318" stroke="black"/>
<path d="M54 186H318" stroke="black"/>
<path d="M54 217H318" stroke="black"/>
<path d="M54 248H318" stroke="black"/>
<defs>
<filter id="filter0_d_1115_4364" x="0" y="12" width="346" height="331" filterUnits="userSpaceOnUse" color-interpolation-filters="sRGB">
<feFlood flood-opacity="0" result="BackgroundImageFix"/>
<feColorMatrix in="SourceAlpha" type="matrix" values="0 0 0 0 0 0 0 0 0 0 0 0 0 0 0 0 0 0 127 0" result="hardAlpha"/>
<feOffset dx="4" dy="4"/>
<feGaussianBlur stdDeviation="4"/>
<feComposite in2="hardAlpha" operator="out"/>
<feColorMatrix type="matrix" values="0 0 0 0 0 0 0 0 0 0 0 0 0 0 0 0 0 0 0.25 0"/>
<feBlend mode="normal" in2="BackgroundImageFix" result="effect1_dropShadow_1115_4364"/>
<feBlend mode="normal" in="SourceGraphic" in2="effect1_dropShadow_1115_4364" result="shape"/>
</filter>
<filter id="filter1_d_1115_4364" x="52" y="0" width="238" height="43" filterUnits="userSpaceOnUse" color-interpolation-filters="sRGB">
<feFlood flood-opacity="0" result="BackgroundImageFix"/>
<feColorMatrix in="SourceAlpha" type="matrix" values="0 0 0 0 0 0 0 0 0 0 0 0 0 0 0 0 0 0 127 0" result="hardAlpha"/>
<feOffset dx="2" dy="2"/>
<feGaussianBlur stdDeviation="1"/>
<feComposite in2="hardAlpha" operator="out"/>
<feColorMatrix type="matrix" values="0 0 0 0 0 0 0 0 0 0 0 0 0 0 0 0 0 0 0.25 0"/>
<feBlend mode="normal" in2="BackgroundImageFix" result="effect1_dropShadow_1115_4364"/>
<feBlend mode="normal" in="SourceGraphic" in2="effect1_dropShadow_1115_4364" result="shape"/>
</filter>
</defs>
</svg>
