<svg width="237" height="71" viewBox="0 0 237 71" fill="none" xmlns="http://www.w3.org/2000/svg">
<g filter="url(#filter0_d_1115_8703)">
<rect x="5" y="1" width="226.261" height="61" rx="30.5" fill="black" stroke="#FFC000" stroke-width="2"/>
<path d="M61.2431 23.448H81.2591V25.776H61.2431V23.448ZM62.1311 41.136H80.4911V43.488H62.1311V41.136ZM66.2591 26.808H76.0511V28.824H66.2591V26.808ZM66.2591 29.88H76.0511V31.896H66.2591V29.88ZM59.9711 32.952H82.4111V35.304H59.9711V32.952ZM65.4191 37.32H77.0111V39.576H65.4191V37.32ZM64.5551 21.624H67.4591V34.248H64.5551V21.624ZM75.0191 21.648H77.9471V34.248H75.0191V21.648ZM69.6671 35.808H72.6191V42.504H69.6671V35.808ZM66.0431 33.624L68.4431 34.512C66.9071 37.056 64.3151 39.312 61.5791 40.536C61.1711 39.864 60.3551 38.856 59.7551 38.328C62.2511 37.416 64.7711 35.568 66.0431 33.624ZM76.4591 33.624C77.7311 35.472 80.2031 37.2 82.6751 38.088C82.0511 38.616 81.2111 39.648 80.7791 40.32C78.1871 39.168 75.6911 36.888 74.1791 34.488L76.4591 33.624ZM88.7231 28.56H101.563V31.224H88.7231V28.56ZM85.9391 33.72H104.395V36.312H85.9391V33.72ZM84.7631 41.016H105.667V43.632H84.7631V41.016ZM93.5951 29.832H96.6911V42.24H93.5951V29.832ZM87.5231 37.104L89.8511 36.144C90.7391 37.344 91.6991 39.024 92.0831 40.152L89.5871 41.232C89.2511 40.128 88.3631 38.376 87.5231 37.104ZM100.267 36.168L103.003 37.176C102.091 38.664 101.083 40.224 100.291 41.232L98.1071 40.344C98.8511 39.216 99.7631 37.464 100.267 36.168ZM96.2591 22.872C98.4671 25.272 102.835 27.6 106.819 28.68C106.147 29.304 105.259 30.456 104.827 31.2C100.819 29.808 96.5471 27.072 93.8591 24.048L96.2591 22.872ZM94.8671 21.36L97.5791 22.56C94.8431 26.808 90.4751 29.616 85.6271 31.344C85.2191 30.504 84.4271 29.4 83.6831 28.68C88.2431 27.36 92.5871 24.936 94.8671 21.36ZM109.387 42V24.24H114.259C119.683 24.24 123.019 27.048 123.019 33.048C123.019 39.024 119.683 42 114.451 42H109.387ZM112.939 39.144H114.019C117.355 39.144 119.395 37.368 119.395 33.048C119.395 28.728 117.355 27.072 114.019 27.072H112.939V39.144ZM126.52 42V24.24H130.432L133.456 32.568C133.864 33.672 134.176 34.824 134.56 35.976H134.656C135.064 34.824 135.376 33.672 135.736 32.568L138.688 24.24H142.624V42H139.384V34.584C139.384 32.904 139.672 30.432 139.864 28.752H139.744L138.28 32.928L135.544 40.416H133.504L130.768 32.928L129.328 28.752H129.232C129.424 30.432 129.688 32.904 129.688 34.584V42H126.52Z" fill="white"/>
<path d="M173.74 43.7732C173.74 44.3028 173.717 44.7987 173.745 45.2926C173.822 46.6313 172.769 47.5434 171.5 47.5371C166.076 47.5077 160.65 47.5245 155.226 47.5245C153.839 47.5245 153 46.688 153 45.3052C153 38.0359 153 30.7665 153 23.4972C153 22.1333 153.843 21.2926 155.209 21.2926C155.822 21.2926 156.434 21.2926 157.083 21.2926C157.083 21.0468 157.094 20.8261 157.083 20.6054C156.972 18.7392 158.529 17.5308 160.15 17.5371C164.832 17.556 169.516 17.5434 174.199 17.5434C174.774 17.5434 175.348 17.5245 175.903 17.7263C177.071 18.1487 177.822 19.1827 177.822 20.4289C177.824 27.2506 177.826 34.0702 177.822 40.8919C177.822 42.466 176.588 43.7164 174.991 43.7732C174.585 43.7879 174.178 43.7753 173.738 43.7753L173.74 43.7732ZM171.866 34.438C171.866 30.817 171.866 27.1981 171.866 23.5771C171.866 23.3038 171.733 23.1672 171.467 23.1672C166.072 23.1672 160.675 23.1672 155.28 23.1672C155.011 23.1672 154.877 23.3038 154.877 23.5771C154.877 30.7981 154.877 38.0191 154.877 45.2401C154.877 45.5133 155.011 45.6506 155.28 45.652C160.675 45.652 166.072 45.652 171.467 45.652C171.734 45.652 171.868 45.5154 171.868 45.2422C171.868 41.6422 171.868 38.0401 171.868 34.4401L171.866 34.438ZM173.74 41.9028C174.108 41.9028 174.447 41.9049 174.785 41.9028C175.556 41.8965 175.951 41.4972 175.951 40.7301C175.951 35.0705 175.951 29.411 175.951 23.7536C175.951 22.6503 175.951 21.549 175.951 20.4457C175.951 19.9729 175.699 19.6219 175.245 19.4874C175.071 19.437 174.879 19.4222 174.697 19.4222C169.867 19.418 165.038 19.4201 160.208 19.4201C160.12 19.4201 160.032 19.418 159.946 19.4243C159.492 19.4622 159.055 19.748 159 20.1284C158.947 20.5046 158.987 20.8954 158.987 21.2926H159.357C163.434 21.2926 167.513 21.2947 171.591 21.2905C172.313 21.2905 172.902 21.5427 173.343 22.1207C173.661 22.5347 173.743 23.0138 173.743 23.5266C173.738 29.5182 173.738 35.5077 173.738 41.4993C173.738 41.6233 173.738 41.7472 173.738 41.9049L173.74 41.9028Z" fill="#FFC000"/>
<path d="M163.535 28.3185C165.019 28.3185 166.5 28.3143 167.984 28.3206C168.478 28.3206 168.871 28.6863 168.921 29.1549C168.97 29.6173 168.669 30.046 168.209 30.1616C168.125 30.1826 168.034 30.1889 167.948 30.1889C165.01 30.1889 162.074 30.1931 159.136 30.1889C158.413 30.1889 157.947 29.5122 158.231 28.8817C158.403 28.4971 158.718 28.3164 159.141 28.3164C160.603 28.3164 162.068 28.3164 163.531 28.3164L163.535 28.3185Z" fill="#FFC000"/>
<path d="M163.509 33.94C162.084 33.94 160.66 33.94 159.235 33.94C158.585 33.94 158.157 33.5702 158.152 33.009C158.148 32.4437 158.575 32.0654 159.22 32.0654C162.118 32.0654 165.016 32.0654 167.914 32.0654C168.408 32.0654 168.757 32.3155 168.887 32.7505C169.001 33.133 168.862 33.566 168.507 33.7677C168.322 33.8728 168.087 33.9295 167.872 33.9316C166.418 33.9463 164.964 33.9379 163.511 33.9379L163.509 33.94Z" fill="#FFC000"/>
<path d="M163.509 37.6871C162.084 37.6871 160.66 37.6871 159.235 37.6871C158.585 37.6871 158.157 37.3172 158.152 36.7561C158.148 36.1908 158.575 35.8125 159.22 35.8125C162.118 35.8125 165.016 35.8125 167.914 35.8125C168.408 35.8125 168.757 36.0626 168.887 36.4976C169.001 36.8801 168.862 37.313 168.507 37.5148C168.322 37.6199 168.087 37.6766 167.872 37.6787C166.418 37.6934 164.964 37.685 163.511 37.685L163.509 37.6871Z" fill="#FFC000"/>
</g>
<defs>
<filter id="filter0_d_1115_8703" x="0" y="0" width="236.262" height="71" filterUnits="userSpaceOnUse" color-interpolation-filters="sRGB">
<feFlood flood-opacity="0" result="BackgroundImageFix"/>
<feColorMatrix in="SourceAlpha" type="matrix" values="0 0 0 0 0 0 0 0 0 0 0 0 0 0 0 0 0 0 127 0" result="hardAlpha"/>
<feOffset dy="4"/>
<feGaussianBlur stdDeviation="2"/>
<feComposite in2="hardAlpha" operator="out"/>
<feColorMatrix type="matrix" values="0 0 0 0 0 0 0 0 0 0 0 0 0 0 0 0 0 0 0.25 0"/>
<feBlend mode="normal" in2="BackgroundImageFix" result="effect1_dropShadow_1115_8703"/>
<feBlend mode="normal" in="SourceGraphic" in2="effect1_dropShadow_1115_8703" result="shape"/>
</filter>
</defs>
</svg>
