<svg width="122" height="45" viewBox="0 0 122 45" fill="none" xmlns="http://www.w3.org/2000/svg">
<g filter="url(#filter0_d_1115_8705)">
<rect x="4.5" y="0.5" width="113" height="36" rx="9.5" fill="black" stroke="#FFC000"/>
<path d="M12.602 12.391H27.452V13.795H12.602V12.391ZM13.214 25.621H26.912V27.025H13.214V25.621ZM16.238 14.803H23.708V16.045H16.238V14.803ZM16.238 17.089H23.708V18.331H16.238V17.089ZM11.702 19.411H28.28V20.815H11.702V19.411ZM15.626 22.651H24.392V24.019H15.626V22.651ZM15.23 10.807H16.94V20.185H15.23V10.807ZM23.114 10.825H24.842V20.185H23.114V10.825ZM19.082 21.301H20.828V26.413H19.082V21.301ZM16.256 19.807L17.678 20.329C16.562 22.201 14.6 23.911 12.638 24.811C12.386 24.415 11.9 23.821 11.54 23.515C13.376 22.795 15.284 21.337 16.256 19.807ZM23.816 19.807C24.77 21.265 26.624 22.633 28.496 23.299C28.118 23.605 27.614 24.217 27.362 24.613C25.454 23.785 23.546 22.093 22.466 20.311L23.816 19.807ZM33.248 16.117H42.698V17.701H33.248V16.117ZM31.034 19.897H44.948V21.445H31.034V19.897ZM30.206 25.495H45.812V27.061H30.206V25.495ZM37.046 16.855H38.864V26.251H37.046V16.855ZM32.42 22.201L33.806 21.625C34.49 22.579 35.228 23.911 35.516 24.775L34.04 25.405C33.77 24.559 33.086 23.191 32.42 22.201ZM42.014 21.625L43.634 22.237C42.95 23.371 42.158 24.613 41.528 25.423L40.25 24.883C40.844 24.001 41.6 22.633 42.014 21.625ZM38.63 11.653C40.322 13.579 43.652 15.487 46.586 16.351C46.19 16.711 45.668 17.395 45.398 17.827C42.464 16.783 39.188 14.641 37.226 12.355L38.63 11.653ZM37.874 10.627L39.476 11.347C37.478 14.407 34.184 16.621 30.62 17.917C30.368 17.431 29.9 16.765 29.468 16.351C32.87 15.307 36.164 13.309 37.874 10.627ZM51.824 20.383V21.409H60.356V20.383H51.824ZM51.824 22.435V23.497H60.356V22.435H51.824ZM51.824 18.331V19.357H60.356V18.331H51.824ZM50.168 17.269H62.066V24.559H50.168V17.269ZM57.584 25.423L58.718 24.505C60.626 25.135 62.732 25.945 63.992 26.539L62.462 27.475C61.364 26.899 59.456 26.071 57.584 25.423ZM53.156 24.559L54.704 25.261C53.246 26.161 50.942 27.025 49.124 27.529C48.836 27.205 48.242 26.557 47.864 26.269C49.736 25.891 51.896 25.261 53.156 24.559ZM55.226 11.977H62.588V13.255H55.226V11.977ZM55.46 10.735L56.954 11.077C56.468 12.571 55.586 14.029 54.632 14.947C54.344 14.695 53.714 14.281 53.354 14.083C54.29 13.255 55.046 12.013 55.46 10.735ZM57.458 12.877H59.024V13.543C59.024 14.875 58.376 16.495 53.3 17.179C53.138 16.801 52.706 16.207 52.4 15.883C56.972 15.397 57.458 14.317 57.458 13.471V12.877ZM58.844 13.795C59.762 14.911 61.796 15.577 64.334 15.757C63.992 16.081 63.578 16.693 63.38 17.125C60.698 16.765 58.682 15.757 57.638 14.047L58.844 13.795ZM48.188 11.797H52.652V13.093H48.188V11.797ZM47.792 14.605H53.102V15.937H47.792V14.605ZM62.012 11.977H62.282L62.534 11.905L63.686 12.265C63.236 13.237 62.642 14.317 62.102 15.001L60.788 14.515C61.202 13.903 61.706 12.967 62.012 12.193V11.977ZM66.494 16.279H71.66V17.593H66.494V16.279ZM66.494 18.673H71.696V19.987H66.494V18.673ZM65.774 13.831H72.326V15.217H65.774V13.831ZM67.178 21.121H71.696V26.467H67.178V25.081H70.328V22.507H67.178V21.121ZM66.494 21.121H67.826V27.277H66.494V21.121ZM67.646 11.383L68.852 10.735C69.338 11.473 69.86 12.445 70.13 13.093L68.852 13.867C68.636 13.201 68.078 12.139 67.646 11.383ZM72.326 18.511H78.284V20.113H72.326V18.511ZM78.842 11.797H80.534C80.408 18.511 80.39 25.297 81.254 25.531C81.362 25.567 81.47 24.415 81.542 23.173C81.794 23.605 82.226 24.235 82.478 24.487C82.244 27.079 81.506 27.637 80.552 27.241C78.662 26.557 78.842 19.573 78.842 11.797ZM74.576 12.841H76.178V27.511H74.576V12.841ZM72.542 11.797H79.616V13.417H72.542V11.797Z" fill="white"/>
<path d="M98.5081 10C100.9 10 103.292 10 105.685 10C107.291 10.0019 108.609 11.0744 108.934 12.6451C108.976 12.8448 108.997 13.052 108.997 13.2555C109.001 15.4556 109.001 17.6557 108.997 19.8558C108.997 20.2704 108.75 20.5822 108.362 20.6792C108.01 20.7667 107.622 20.6032 107.464 20.2704C107.394 20.1221 107.364 19.9433 107.362 19.7779C107.356 17.6595 107.358 15.5412 107.358 13.4228C107.358 12.3142 106.679 11.6411 105.567 11.6411C100.851 11.6411 96.1349 11.6411 91.4171 11.6411C90.3218 11.6411 89.6411 12.3218 89.6411 13.4171C89.6411 16.8951 89.6411 20.3731 89.6411 23.851C89.6411 24.933 90.3256 25.6195 91.4038 25.6214C92.676 25.6214 93.9462 25.629 95.2184 25.6195C95.5835 25.6176 95.8554 25.745 96.0817 26.034C96.7986 26.9563 97.525 27.871 98.2495 28.7875C98.4624 29.0556 98.529 29.0537 98.742 28.7818C99.4627 27.8615 100.187 26.9449 100.9 26.0207C101.115 25.7431 101.376 25.6157 101.726 25.6176C103.011 25.6252 104.296 25.6214 105.58 25.6214C106.637 25.6214 107.293 25.0015 107.358 23.9461C107.385 23.4935 107.748 23.1532 108.195 23.1627C108.64 23.1703 108.988 23.5278 108.997 23.9823C109.033 25.7108 107.558 27.2377 105.808 27.2587C104.612 27.2739 103.416 27.2663 102.22 27.2587C102.066 27.2587 101.973 27.3081 101.881 27.4279C101.246 28.2494 100.607 29.069 99.9609 29.8809C99.3448 30.653 98.3731 30.8545 97.5668 30.3658C97.3557 30.2384 97.1675 30.054 97.0096 29.8619C96.3517 29.0499 95.7071 28.2266 95.0643 27.4013C94.9826 27.2967 94.9008 27.2625 94.7734 27.2625C93.6382 27.2663 92.5048 27.2644 91.3696 27.2625C89.4376 27.2625 88 25.8325 88 23.9005C88 20.3883 88 16.8761 88 13.3639C88 11.4319 89.4357 10 91.3715 10C93.7504 10 96.1292 10 98.5081 10Z" fill="#FFC000"/>
<path d="M97.6797 20.2908C97.6797 19.5739 97.6797 18.857 97.6797 18.1401C97.6797 17.6248 98.0258 17.2578 98.5012 17.2578C98.9785 17.2578 99.3188 17.6248 99.3207 18.142C99.3207 19.5758 99.3207 21.0096 99.3207 22.4434C99.3207 22.9587 98.9747 23.3257 98.4993 23.3257C98.0239 23.3257 97.6816 22.9568 97.6797 22.4415C97.6797 21.7246 97.6797 21.0077 97.6797 20.2908Z" fill="#FFC000"/>
<path d="M99.3207 15.2521C99.3207 15.7028 98.9499 16.0698 98.4974 16.0698C98.0467 16.0698 97.6797 15.699 97.6797 15.2464C97.6797 14.7938 98.0505 14.4287 98.5031 14.4287C98.9556 14.4287 99.3207 14.7995 99.3207 15.2502V15.2521Z" fill="#FFC000"/>
</g>
<defs>
<filter id="filter0_d_1115_8705" x="0" y="0" width="122" height="45" filterUnits="userSpaceOnUse" color-interpolation-filters="sRGB">
<feFlood flood-opacity="0" result="BackgroundImageFix"/>
<feColorMatrix in="SourceAlpha" type="matrix" values="0 0 0 0 0 0 0 0 0 0 0 0 0 0 0 0 0 0 127 0" result="hardAlpha"/>
<feOffset dy="4"/>
<feGaussianBlur stdDeviation="2"/>
<feComposite in2="hardAlpha" operator="out"/>
<feColorMatrix type="matrix" values="0 0 0 0 0 0 0 0 0 0 0 0 0 0 0 0 0 0 0.25 0"/>
<feBlend mode="normal" in2="BackgroundImageFix" result="effect1_dropShadow_1115_8705"/>
<feBlend mode="normal" in="SourceGraphic" in2="effect1_dropShadow_1115_8705" result="shape"/>
</filter>
</defs>
</svg>
