<svg width="237" height="71" viewBox="0 0 237 71" fill="none" xmlns="http://www.w3.org/2000/svg">
<g filter="url(#filter0_d_1115_8704)">
<rect x="5" y="1" width="226.261" height="61" rx="30.5" fill="black" stroke="#FFC000" stroke-width="2"/>
<path d="M52.04 23.448H72.056V25.776H52.04V23.448ZM52.928 41.136H71.288V43.488H52.928V41.136ZM57.056 26.808H66.848V28.824H57.056V26.808ZM57.056 29.88H66.848V31.896H57.056V29.88ZM50.768 32.952H73.208V35.304H50.768V32.952ZM56.216 37.32H67.808V39.576H56.216V37.32ZM55.352 21.624H58.256V34.248H55.352V21.624ZM65.816 21.648H68.744V34.248H65.816V21.648ZM60.464 35.808H63.416V42.504H60.464V35.808ZM56.84 33.624L59.24 34.512C57.704 37.056 55.112 39.312 52.376 40.536C51.968 39.864 51.152 38.856 50.552 38.328C53.048 37.416 55.568 35.568 56.84 33.624ZM67.256 33.624C68.528 35.472 71 37.2 73.472 38.088C72.848 38.616 72.008 39.648 71.576 40.32C68.984 39.168 66.488 36.888 64.976 34.488L67.256 33.624ZM79.52 28.56H92.36V31.224H79.52V28.56ZM76.736 33.72H95.192V36.312H76.736V33.72ZM75.56 41.016H96.464V43.632H75.56V41.016ZM84.392 29.832H87.488V42.24H84.392V29.832ZM78.32 37.104L80.648 36.144C81.536 37.344 82.496 39.024 82.88 40.152L80.384 41.232C80.048 40.128 79.16 38.376 78.32 37.104ZM91.064 36.168L93.8 37.176C92.888 38.664 91.88 40.224 91.088 41.232L88.904 40.344C89.648 39.216 90.56 37.464 91.064 36.168ZM87.056 22.872C89.264 25.272 93.632 27.6 97.616 28.68C96.944 29.304 96.056 30.456 95.624 31.2C91.616 29.808 87.344 27.072 84.656 24.048L87.056 22.872ZM85.664 21.36L88.376 22.56C85.64 26.808 81.272 29.616 76.424 31.344C76.016 30.504 75.224 29.4 74.48 28.68C79.04 27.36 83.384 24.936 85.664 21.36ZM104.888 34.68V35.712H115.328V34.68H104.888ZM104.888 37.344V38.4H115.328V37.344H104.888ZM104.888 32.04V33.048H115.328V32.04H104.888ZM102.104 30.312H118.232V40.104H102.104V30.312ZM111.896 41.28L113.792 39.768C116.264 40.632 119.072 41.784 120.704 42.6L118.136 44.136C116.744 43.344 114.272 42.168 111.896 41.28ZM106.016 39.864L108.656 41.064C106.688 42.336 103.568 43.536 101.12 44.208C100.616 43.656 99.632 42.6 98.984 42.096C101.528 41.64 104.384 40.8 106.016 39.864ZM108.8 23.088H118.52V25.176H108.8V23.088ZM108.992 21.48L111.512 22.056C110.84 24.048 109.616 26.016 108.32 27.216C107.84 26.808 106.784 26.112 106.184 25.776C107.456 24.72 108.464 23.112 108.992 21.48ZM111.44 24.696H114.056V25.656C114.056 27.408 113.096 29.52 106.304 30.288C106.04 29.64 105.32 28.656 104.816 28.128C110.72 27.672 111.44 26.496 111.44 25.536V24.696ZM113.816 25.656C115.064 27.096 117.704 27.792 121.16 27.96C120.608 28.512 119.912 29.544 119.6 30.264C115.856 29.808 113.24 28.488 111.8 26.064L113.816 25.656ZM99.488 22.8H105.656V24.912H99.488V22.8ZM98.96 26.52H106.232V28.704H98.96V26.52ZM117.512 23.088H117.944L118.352 22.968L120.32 23.568C119.72 24.912 118.88 26.424 118.112 27.384L115.904 26.544C116.456 25.728 117.128 24.456 117.512 23.424V23.088ZM123.872 28.944H130.88V31.128H123.872V28.944ZM123.872 32.208H130.928V34.368H123.872V32.208ZM122.912 25.608H131.72V27.888H122.912V25.608ZM125.048 35.52H130.928V42.816H125.048V40.512H128.672V37.824H125.048V35.52ZM123.896 35.52H126.104V43.848H123.896V35.52ZM125.312 22.584L127.352 21.504C127.952 22.512 128.624 23.832 128.984 24.72L126.848 25.992C126.56 25.08 125.864 23.616 125.312 22.584ZM131.72 31.968H139.424V34.632H131.72V31.968ZM140.048 22.848H142.904C142.688 30.768 142.712 40.704 143.576 40.992C143.72 41.04 143.84 39.456 143.912 37.92C144.32 38.664 145.016 39.792 145.424 40.248C145.04 43.776 143.816 44.52 142.328 43.872C139.784 42.84 140.048 32.808 140.048 22.848ZM134.408 24.624H137.096V44.16H134.408V24.624ZM132.056 22.848H141.368V25.584H132.056V22.848Z" fill="white"/>
<path d="M170.28 18.9297C173.759 18.9297 177.237 18.9297 180.716 18.9297C183.052 18.9325 184.968 20.492 185.441 22.776C185.502 23.0663 185.533 23.3677 185.533 23.6636C185.538 26.8628 185.538 30.0621 185.533 33.2614C185.533 33.8642 185.173 34.3176 184.609 34.4587C184.097 34.5859 183.533 34.3481 183.304 33.8642C183.202 33.6485 183.157 33.3886 183.155 33.148C183.146 30.0676 183.149 26.9873 183.149 23.9069C183.149 22.2949 182.162 21.316 180.544 21.316C173.687 21.316 166.829 21.316 159.969 21.316C158.376 21.316 157.386 22.3059 157.386 23.8986C157.386 28.9561 157.386 34.0135 157.386 39.0709C157.386 40.6443 158.382 41.6425 159.95 41.6452C161.799 41.6452 163.647 41.6563 165.496 41.6425C166.027 41.6397 166.423 41.825 166.752 42.2453C167.794 43.5864 168.851 44.9164 169.904 46.2492C170.214 46.6391 170.311 46.6363 170.62 46.2409C171.668 44.9026 172.722 43.5698 173.759 42.2259C174.071 41.8222 174.45 41.6369 174.959 41.6397C176.828 41.6508 178.697 41.6452 180.564 41.6452C182.101 41.6452 183.055 40.7438 183.149 39.2092C183.188 38.5511 183.716 38.0561 184.366 38.0699C185.013 38.081 185.519 38.6008 185.533 39.2617C185.585 41.7752 183.439 43.9956 180.895 44.026C179.156 44.0481 177.417 44.0371 175.678 44.026C175.454 44.026 175.318 44.0979 175.185 44.2721C174.262 45.4666 173.333 46.6584 172.393 47.8391C171.497 48.9618 170.084 49.2549 168.911 48.5442C168.604 48.359 168.331 48.0908 168.101 47.8115C167.144 46.6308 166.207 45.4335 165.272 44.2334C165.154 44.0813 165.035 44.0315 164.849 44.0315C163.199 44.0371 161.551 44.0343 159.9 44.0315C157.09 44.0315 155 41.9522 155 39.1428C155 34.0356 155 28.9284 155 23.8212C155 21.0118 157.088 18.9297 159.903 18.9297C163.362 18.9297 166.821 18.9297 170.28 18.9297Z" fill="#FFC000"/>
<path d="M169.074 33.8948C169.074 32.8523 169.074 31.8099 169.074 30.7674C169.074 30.018 169.577 29.4844 170.269 29.4844C170.963 29.4844 171.458 30.018 171.461 30.7702C171.461 32.8551 171.461 34.94 171.461 37.0249C171.461 37.7742 170.957 38.3079 170.266 38.3079C169.575 38.3079 169.077 37.7715 169.074 37.0221C169.074 35.9797 169.074 34.9372 169.074 33.8948Z" fill="#FFC000"/>
<path d="M171.461 26.5674C171.461 27.2228 170.921 27.7564 170.263 27.7564C169.608 27.7564 169.074 27.2172 169.074 26.5591C169.074 25.901 169.613 25.3701 170.272 25.3701C170.93 25.3701 171.461 25.9093 171.461 26.5647V26.5674Z" fill="#FFC000"/>
</g>
<defs>
<filter id="filter0_d_1115_8704" x="0" y="0" width="236.262" height="71" filterUnits="userSpaceOnUse" color-interpolation-filters="sRGB">
<feFlood flood-opacity="0" result="BackgroundImageFix"/>
<feColorMatrix in="SourceAlpha" type="matrix" values="0 0 0 0 0 0 0 0 0 0 0 0 0 0 0 0 0 0 127 0" result="hardAlpha"/>
<feOffset dy="4"/>
<feGaussianBlur stdDeviation="2"/>
<feComposite in2="hardAlpha" operator="out"/>
<feColorMatrix type="matrix" values="0 0 0 0 0 0 0 0 0 0 0 0 0 0 0 0 0 0 0.25 0"/>
<feBlend mode="normal" in2="BackgroundImageFix" result="effect1_dropShadow_1115_8704"/>
<feBlend mode="normal" in="SourceGraphic" in2="effect1_dropShadow_1115_8704" result="shape"/>
</filter>
</defs>
</svg>
