<svg width="1116" height="405" viewBox="0 0 1116 405" fill="none" xmlns="http://www.w3.org/2000/svg">
<g filter="url(#filter0_d_1115_1512)">
<rect x="4" y="16" width="1100" height="377" rx="40" fill="white"/>
</g>
<path d="M34.4492 82V81.152C38.1292 77.936 39.8092 75.584 39.8092 73.584C39.8092 72.24 39.1212 71.248 37.6652 71.248C36.7052 71.248 35.8732 71.84 35.2172 72.608L34.3692 71.792C35.3292 70.752 36.3532 70.064 37.8412 70.064C39.9372 70.064 41.2492 71.424 41.2492 73.52C41.2492 75.872 39.4092 78.256 36.6412 80.864C37.2652 80.8 37.9692 80.752 38.5612 80.752H41.8092V82H34.4492ZM47.0682 82.224C44.8282 82.224 43.4042 80.192 43.4042 76.096C43.4042 72.032 44.8282 70.064 47.0682 70.064C49.2762 70.064 50.7002 72.032 50.7002 76.096C50.7002 80.192 49.2762 82.224 47.0682 82.224ZM47.0682 81.04C48.3962 81.04 49.2922 79.552 49.2922 76.096C49.2922 72.688 48.3962 71.232 47.0682 71.232C45.7242 71.232 44.8122 72.688 44.8122 76.096C44.8122 79.552 45.7242 81.04 47.0682 81.04ZM55.9432 82.224C53.7032 82.224 52.2792 80.192 52.2792 76.096C52.2792 72.032 53.7032 70.064 55.9432 70.064C58.1512 70.064 59.5752 72.032 59.5752 76.096C59.5752 80.192 58.1512 82.224 55.9432 82.224ZM55.9432 81.04C57.2712 81.04 58.1672 79.552 58.1672 76.096C58.1672 72.688 57.2712 71.232 55.9432 71.232C54.5992 71.232 53.6872 72.688 53.6872 76.096C53.6872 79.552 54.5992 81.04 55.9432 81.04ZM35.1532 136V134.784H37.7612V126.048H35.6652V125.104C36.7212 124.928 37.4732 124.656 38.0972 124.272H39.2172V134.784H41.5852V136H35.1532ZM46.7962 136.224C44.9722 136.224 43.8522 135.456 43.0522 134.656L43.7882 133.696C44.4442 134.384 45.3082 135.008 46.6522 135.008C48.0442 135.008 49.1482 133.936 49.1482 132.24C49.1482 130.56 48.1882 129.552 46.7322 129.552C45.9482 129.552 45.4522 129.808 44.7802 130.256L43.9962 129.76L44.3642 124.272H50.0762V125.52H45.6442L45.3402 128.912C45.8682 128.624 46.3962 128.448 47.1002 128.448C49.0522 128.448 50.6362 129.6 50.6362 132.192C50.6362 134.752 48.7642 136.224 46.7962 136.224ZM55.9432 136.224C53.7032 136.224 52.2792 134.192 52.2792 130.096C52.2792 126.032 53.7032 124.064 55.9432 124.064C58.1512 124.064 59.5752 126.032 59.5752 130.096C59.5752 134.192 58.1512 136.224 55.9432 136.224ZM55.9432 135.04C57.2712 135.04 58.1672 133.552 58.1672 130.096C58.1672 126.688 57.2712 125.232 55.9432 125.232C54.5992 125.232 53.6872 126.688 53.6872 130.096C53.6872 133.552 54.5992 135.04 55.9432 135.04ZM35.1532 190V188.784H37.7612V180.048H35.6652V179.104C36.7212 178.928 37.4732 178.656 38.0972 178.272H39.2172V188.784H41.5852V190H35.1532ZM47.0682 190.224C44.8282 190.224 43.4042 188.192 43.4042 184.096C43.4042 180.032 44.8282 178.064 47.0682 178.064C49.2762 178.064 50.7002 180.032 50.7002 184.096C50.7002 188.192 49.2762 190.224 47.0682 190.224ZM47.0682 189.04C48.3962 189.04 49.2922 187.552 49.2922 184.096C49.2922 180.688 48.3962 179.232 47.0682 179.232C45.7242 179.232 44.8122 180.688 44.8122 184.096C44.8122 187.552 45.7242 189.04 47.0682 189.04ZM55.9432 190.224C53.7032 190.224 52.2792 188.192 52.2792 184.096C52.2792 180.032 53.7032 178.064 55.9432 178.064C58.1512 178.064 59.5752 180.032 59.5752 184.096C59.5752 188.192 58.1512 190.224 55.9432 190.224ZM55.9432 189.04C57.2712 189.04 58.1672 187.552 58.1672 184.096C58.1672 180.688 57.2712 179.232 55.9432 179.232C54.5992 179.232 53.6872 180.688 53.6872 184.096C53.6872 187.552 54.5992 189.04 55.9432 189.04ZM42.3587 244.224C40.5347 244.224 39.4147 243.456 38.6147 242.656L39.3507 241.696C40.0067 242.384 40.8707 243.008 42.2147 243.008C43.6067 243.008 44.7107 241.936 44.7107 240.24C44.7107 238.56 43.7507 237.552 42.2947 237.552C41.5107 237.552 41.0147 237.808 40.3427 238.256L39.5587 237.76L39.9267 232.272H45.6387V233.52H41.2067L40.9027 236.912C41.4307 236.624 41.9587 236.448 42.6627 236.448C44.6147 236.448 46.1987 237.6 46.1987 240.192C46.1987 242.752 44.3267 244.224 42.3587 244.224ZM51.5057 244.224C49.2657 244.224 47.8417 242.192 47.8417 238.096C47.8417 234.032 49.2657 232.064 51.5057 232.064C53.7137 232.064 55.1377 234.032 55.1377 238.096C55.1377 242.192 53.7137 244.224 51.5057 244.224ZM51.5057 243.04C52.8337 243.04 53.7297 241.552 53.7297 238.096C53.7297 234.688 52.8337 233.232 51.5057 233.232C50.1617 233.232 49.2497 234.688 49.2497 238.096C49.2497 241.552 50.1617 243.04 51.5057 243.04ZM47.0682 298.224C44.8282 298.224 43.4042 296.192 43.4042 292.096C43.4042 288.032 44.8282 286.064 47.0682 286.064C49.2762 286.064 50.7002 288.032 50.7002 292.096C50.7002 296.192 49.2762 298.224 47.0682 298.224ZM47.0682 297.04C48.3962 297.04 49.2922 295.552 49.2922 292.096C49.2922 288.688 48.3962 287.232 47.0682 287.232C45.7242 287.232 44.8122 288.688 44.8122 292.096C44.8122 295.552 45.7242 297.04 47.0682 297.04Z" fill="black"/>
<path d="M80.0082 317V316.152C83.6882 312.936 85.3682 310.584 85.3682 308.584C85.3682 307.24 84.6802 306.248 83.2242 306.248C82.2642 306.248 81.4322 306.84 80.7762 307.608L79.9282 306.792C80.8882 305.752 81.9122 305.064 83.4002 305.064C85.4962 305.064 86.8082 306.424 86.8082 308.52C86.8082 310.872 84.9682 313.256 82.2002 315.864C82.8242 315.8 83.5282 315.752 84.1202 315.752H87.3682V317H80.0082ZM92.6272 317.224C90.3872 317.224 88.9632 315.192 88.9632 311.096C88.9632 307.032 90.3872 305.064 92.6272 305.064C94.8352 305.064 96.2592 307.032 96.2592 311.096C96.2592 315.192 94.8352 317.224 92.6272 317.224ZM92.6272 316.04C93.9552 316.04 94.8512 314.552 94.8512 311.096C94.8512 307.688 93.9552 306.232 92.6272 306.232C91.2832 306.232 90.3712 307.688 90.3712 311.096C90.3712 314.552 91.2832 316.04 92.6272 316.04ZM101.502 317.224C99.2622 317.224 97.8382 315.192 97.8382 311.096C97.8382 307.032 99.2622 305.064 101.502 305.064C103.71 305.064 105.134 307.032 105.134 311.096C105.134 315.192 103.71 317.224 101.502 317.224ZM101.502 316.04C102.83 316.04 103.726 314.552 103.726 311.096C103.726 307.688 102.83 306.232 101.502 306.232C100.158 306.232 99.2462 307.688 99.2462 311.096C99.2462 314.552 100.158 316.04 101.502 316.04ZM110.377 317.224C108.137 317.224 106.713 315.192 106.713 311.096C106.713 307.032 108.137 305.064 110.377 305.064C112.585 305.064 114.009 307.032 114.009 311.096C114.009 315.192 112.585 317.224 110.377 317.224ZM110.377 316.04C111.705 316.04 112.601 314.552 112.601 311.096C112.601 307.688 111.705 306.232 110.377 306.232C109.033 306.232 108.121 307.688 108.121 311.096C108.121 314.552 109.033 316.04 110.377 316.04ZM114.98 319.864L119.78 304.296H120.82L116.036 319.864H114.98ZM122.478 317V315.784H125.086V307.048H122.99V306.104C124.046 305.928 124.798 305.656 125.422 305.272H126.542V315.784H128.91V317H122.478ZM134.393 317.224C132.153 317.224 130.729 315.192 130.729 311.096C130.729 307.032 132.153 305.064 134.393 305.064C136.601 305.064 138.025 307.032 138.025 311.096C138.025 315.192 136.601 317.224 134.393 317.224ZM134.393 316.04C135.721 316.04 136.617 314.552 136.617 311.096C136.617 307.688 135.721 306.232 134.393 306.232C133.049 306.232 132.137 307.688 132.137 311.096C132.137 314.552 133.049 316.04 134.393 316.04Z" fill="black"/>
<path d="M207.461 317V316.152C211.141 312.936 212.821 310.584 212.821 308.584C212.821 307.24 212.133 306.248 210.677 306.248C209.717 306.248 208.885 306.84 208.229 307.608L207.381 306.792C208.341 305.752 209.365 305.064 210.853 305.064C212.949 305.064 214.261 306.424 214.261 308.52C214.261 310.872 212.421 313.256 209.653 315.864C210.277 315.8 210.981 315.752 211.573 315.752H214.821V317H207.461ZM220.08 317.224C217.84 317.224 216.416 315.192 216.416 311.096C216.416 307.032 217.84 305.064 220.08 305.064C222.288 305.064 223.712 307.032 223.712 311.096C223.712 315.192 222.288 317.224 220.08 317.224ZM220.08 316.04C221.408 316.04 222.304 314.552 222.304 311.096C222.304 307.688 221.408 306.232 220.08 306.232C218.736 306.232 217.824 307.688 217.824 311.096C217.824 314.552 218.736 316.04 220.08 316.04ZM228.955 317.224C226.715 317.224 225.291 315.192 225.291 311.096C225.291 307.032 226.715 305.064 228.955 305.064C231.163 305.064 232.587 307.032 232.587 311.096C232.587 315.192 231.163 317.224 228.955 317.224ZM228.955 316.04C230.283 316.04 231.179 314.552 231.179 311.096C231.179 307.688 230.283 306.232 228.955 306.232C227.611 306.232 226.699 307.688 226.699 311.096C226.699 314.552 227.611 316.04 228.955 316.04ZM237.59 317.224C235.75 317.224 234.614 316.456 233.846 315.608L234.582 314.648C235.27 315.368 236.15 316.008 237.494 316.008C238.886 316.008 239.878 315.16 239.878 313.816C239.878 312.408 238.934 311.48 236.23 311.48V310.344C238.646 310.344 239.462 309.384 239.462 308.104C239.462 306.984 238.71 306.248 237.494 306.248C236.55 306.248 235.718 306.728 235.062 307.4L234.278 306.456C235.158 305.656 236.198 305.064 237.542 305.064C239.51 305.064 240.95 306.136 240.95 308.008C240.95 309.432 240.118 310.376 238.87 310.824V310.888C240.246 311.224 241.366 312.264 241.366 313.88C241.366 315.96 239.686 317.224 237.59 317.224ZM242.433 319.864L247.233 304.296H248.273L243.489 319.864H242.433ZM249.931 317V315.784H252.539V307.048H250.443V306.104C251.499 305.928 252.251 305.656 252.875 305.272H253.995V315.784H256.363V317H249.931ZM261.846 317.224C259.606 317.224 258.182 315.192 258.182 311.096C258.182 307.032 259.606 305.064 261.846 305.064C264.054 305.064 265.478 307.032 265.478 311.096C265.478 315.192 264.054 317.224 261.846 317.224ZM261.846 316.04C263.174 316.04 264.07 314.552 264.07 311.096C264.07 307.688 263.174 306.232 261.846 306.232C260.502 306.232 259.59 307.688 259.59 311.096C259.59 314.552 260.502 316.04 261.846 316.04Z" fill="black"/>
<path d="M334.915 317V316.152C338.595 312.936 340.275 310.584 340.275 308.584C340.275 307.24 339.587 306.248 338.131 306.248C337.171 306.248 336.339 306.84 335.683 307.608L334.835 306.792C335.795 305.752 336.819 305.064 338.307 305.064C340.403 305.064 341.715 306.424 341.715 308.52C341.715 310.872 339.875 313.256 337.107 315.864C337.731 315.8 338.435 315.752 339.027 315.752H342.275V317H334.915ZM347.534 317.224C345.294 317.224 343.87 315.192 343.87 311.096C343.87 307.032 345.294 305.064 347.534 305.064C349.742 305.064 351.166 307.032 351.166 311.096C351.166 315.192 349.742 317.224 347.534 317.224ZM347.534 316.04C348.862 316.04 349.758 314.552 349.758 311.096C349.758 307.688 348.862 306.232 347.534 306.232C346.19 306.232 345.278 307.688 345.278 311.096C345.278 314.552 346.19 316.04 347.534 316.04ZM356.409 317.224C354.169 317.224 352.745 315.192 352.745 311.096C352.745 307.032 354.169 305.064 356.409 305.064C358.617 305.064 360.041 307.032 360.041 311.096C360.041 315.192 358.617 317.224 356.409 317.224ZM356.409 316.04C357.737 316.04 358.633 314.552 358.633 311.096C358.633 307.688 357.737 306.232 356.409 306.232C355.065 306.232 354.153 307.688 354.153 311.096C354.153 314.552 355.065 316.04 356.409 316.04ZM365.652 317.224C363.396 317.224 361.716 315.288 361.716 311.416C361.716 306.824 363.78 305.064 366.052 305.064C367.268 305.064 368.164 305.576 368.804 306.264L367.988 307.16C367.54 306.616 366.82 306.28 366.116 306.28C364.468 306.28 363.092 307.576 363.092 311.416C363.092 314.424 364.004 316.072 365.652 316.072C366.772 316.072 367.636 315 367.636 313.416C367.636 311.816 366.932 310.808 365.524 310.808C364.772 310.808 363.828 311.256 363.044 312.424L362.996 311.256C363.716 310.312 364.804 309.736 365.748 309.736C367.732 309.736 369.012 310.952 369.012 313.416C369.012 315.688 367.46 317.224 365.652 317.224ZM369.887 319.864L374.687 304.296H375.727L370.943 319.864H369.887ZM377.385 317V315.784H379.993V307.048H377.897V306.104C378.953 305.928 379.705 305.656 380.329 305.272H381.449V315.784H383.817V317H377.385ZM389.3 317.224C387.06 317.224 385.636 315.192 385.636 311.096C385.636 307.032 387.06 305.064 389.3 305.064C391.508 305.064 392.932 307.032 392.932 311.096C392.932 315.192 391.508 317.224 389.3 317.224ZM389.3 316.04C390.628 316.04 391.524 314.552 391.524 311.096C391.524 307.688 390.628 306.232 389.3 306.232C387.956 306.232 387.044 307.688 387.044 311.096C387.044 314.552 387.956 316.04 389.3 316.04Z" fill="black"/>
<path d="M462.368 317V316.152C466.048 312.936 467.728 310.584 467.728 308.584C467.728 307.24 467.04 306.248 465.584 306.248C464.624 306.248 463.792 306.84 463.136 307.608L462.288 306.792C463.248 305.752 464.272 305.064 465.76 305.064C467.856 305.064 469.168 306.424 469.168 308.52C469.168 310.872 467.328 313.256 464.56 315.864C465.184 315.8 465.888 315.752 466.48 315.752H469.728V317H462.368ZM474.987 317.224C472.747 317.224 471.323 315.192 471.323 311.096C471.323 307.032 472.747 305.064 474.987 305.064C477.195 305.064 478.619 307.032 478.619 311.096C478.619 315.192 477.195 317.224 474.987 317.224ZM474.987 316.04C476.315 316.04 477.211 314.552 477.211 311.096C477.211 307.688 476.315 306.232 474.987 306.232C473.643 306.232 472.731 307.688 472.731 311.096C472.731 314.552 473.643 316.04 474.987 316.04ZM483.862 317.224C481.622 317.224 480.198 315.192 480.198 311.096C480.198 307.032 481.622 305.064 483.862 305.064C486.07 305.064 487.494 307.032 487.494 311.096C487.494 315.192 486.07 317.224 483.862 317.224ZM483.862 316.04C485.19 316.04 486.086 314.552 486.086 311.096C486.086 307.688 485.19 306.232 483.862 306.232C482.518 306.232 481.606 307.688 481.606 311.096C481.606 314.552 482.518 316.04 483.862 316.04ZM492.033 317.224C490.753 317.224 489.857 316.712 489.201 316.024L490.017 315.096C490.513 315.672 491.233 316.008 491.985 316.008C493.553 316.008 494.913 314.648 494.913 310.632C494.913 307.752 494.001 306.2 492.353 306.2C491.233 306.2 490.369 307.256 490.369 308.872C490.369 310.44 491.073 311.48 492.465 311.48C493.249 311.48 494.161 311.016 494.929 309.848L495.009 311.016C494.273 311.944 493.233 312.552 492.225 312.552C490.257 312.552 488.993 311.304 488.993 308.872C488.993 306.6 490.529 305.064 492.353 305.064C494.609 305.064 496.289 306.904 496.289 310.632C496.289 315.4 494.241 317.224 492.033 317.224ZM497.34 319.864L502.14 304.296H503.18L498.396 319.864H497.34ZM504.837 317V315.784H507.445V307.048H505.349V306.104C506.405 305.928 507.157 305.656 507.781 305.272H508.901V315.784H511.269V317H504.837ZM516.752 317.224C514.512 317.224 513.088 315.192 513.088 311.096C513.088 307.032 514.512 305.064 516.752 305.064C518.96 305.064 520.384 307.032 520.384 311.096C520.384 315.192 518.96 317.224 516.752 317.224ZM516.752 316.04C518.08 316.04 518.976 314.552 518.976 311.096C518.976 307.688 518.08 306.232 516.752 306.232C515.408 306.232 514.496 307.688 514.496 311.096C514.496 314.552 515.408 316.04 516.752 316.04Z" fill="black"/>
<path d="M589.821 317V316.152C593.501 312.936 595.181 310.584 595.181 308.584C595.181 307.24 594.493 306.248 593.037 306.248C592.077 306.248 591.245 306.84 590.589 307.608L589.741 306.792C590.701 305.752 591.725 305.064 593.213 305.064C595.309 305.064 596.621 306.424 596.621 308.52C596.621 310.872 594.781 313.256 592.013 315.864C592.637 315.8 593.341 315.752 593.933 315.752H597.181V317H589.821ZM602.44 317.224C600.2 317.224 598.776 315.192 598.776 311.096C598.776 307.032 600.2 305.064 602.44 305.064C604.648 305.064 606.072 307.032 606.072 311.096C606.072 315.192 604.648 317.224 602.44 317.224ZM602.44 316.04C603.768 316.04 604.664 314.552 604.664 311.096C604.664 307.688 603.768 306.232 602.44 306.232C601.096 306.232 600.184 307.688 600.184 311.096C600.184 314.552 601.096 316.04 602.44 316.04ZM608.275 317V315.784H610.883V307.048H608.787V306.104C609.843 305.928 610.595 305.656 611.219 305.272H612.339V315.784H614.707V317H608.275ZM616.446 317V316.152C620.126 312.936 621.806 310.584 621.806 308.584C621.806 307.24 621.118 306.248 619.662 306.248C618.702 306.248 617.87 306.84 617.214 307.608L616.366 306.792C617.326 305.752 618.35 305.064 619.838 305.064C621.934 305.064 623.246 306.424 623.246 308.52C623.246 310.872 621.406 313.256 618.638 315.864C619.262 315.8 619.966 315.752 620.558 315.752H623.806V317H616.446ZM624.793 319.864L629.593 304.296H630.633L625.849 319.864H624.793ZM632.29 317V315.784H634.898V307.048H632.802V306.104C633.858 305.928 634.61 305.656 635.234 305.272H636.354V315.784H638.722V317H632.29ZM644.205 317.224C641.965 317.224 640.541 315.192 640.541 311.096C640.541 307.032 641.965 305.064 644.205 305.064C646.413 305.064 647.837 307.032 647.837 311.096C647.837 315.192 646.413 317.224 644.205 317.224ZM644.205 316.04C645.533 316.04 646.429 314.552 646.429 311.096C646.429 307.688 645.533 306.232 644.205 306.232C642.861 306.232 641.949 307.688 641.949 311.096C641.949 314.552 642.861 316.04 644.205 316.04Z" fill="black"/>
<path d="M717.273 317V316.152C720.953 312.936 722.633 310.584 722.633 308.584C722.633 307.24 721.945 306.248 720.489 306.248C719.529 306.248 718.697 306.84 718.041 307.608L717.193 306.792C718.153 305.752 719.177 305.064 720.665 305.064C722.761 305.064 724.073 306.424 724.073 308.52C724.073 310.872 722.233 313.256 719.465 315.864C720.089 315.8 720.793 315.752 721.385 315.752H724.633V317H717.273ZM729.892 317.224C727.652 317.224 726.228 315.192 726.228 311.096C726.228 307.032 727.652 305.064 729.892 305.064C732.1 305.064 733.524 307.032 733.524 311.096C733.524 315.192 732.1 317.224 729.892 317.224ZM729.892 316.04C731.22 316.04 732.116 314.552 732.116 311.096C732.116 307.688 731.22 306.232 729.892 306.232C728.548 306.232 727.636 307.688 727.636 311.096C727.636 314.552 728.548 316.04 729.892 316.04ZM735.727 317V315.784H738.335V307.048H736.239V306.104C737.295 305.928 738.047 305.656 738.671 305.272H739.791V315.784H742.159V317H735.727ZM747.37 317.224C745.546 317.224 744.426 316.456 743.626 315.656L744.362 314.696C745.018 315.384 745.882 316.008 747.226 316.008C748.618 316.008 749.722 314.936 749.722 313.24C749.722 311.56 748.762 310.552 747.306 310.552C746.522 310.552 746.026 310.808 745.354 311.256L744.57 310.76L744.938 305.272H750.65V306.52H746.218L745.914 309.912C746.442 309.624 746.97 309.448 747.674 309.448C749.626 309.448 751.21 310.6 751.21 313.192C751.21 315.752 749.338 317.224 747.37 317.224ZM752.245 319.864L757.045 304.296H758.085L753.301 319.864H752.245ZM759.742 317V315.784H762.35V307.048H760.254V306.104C761.31 305.928 762.062 305.656 762.686 305.272H763.806V315.784H766.174V317H759.742ZM771.657 317.224C769.417 317.224 767.993 315.192 767.993 311.096C767.993 307.032 769.417 305.064 771.657 305.064C773.865 305.064 775.289 307.032 775.289 311.096C775.289 315.192 773.865 317.224 771.657 317.224ZM771.657 316.04C772.985 316.04 773.881 314.552 773.881 311.096C773.881 307.688 772.985 306.232 771.657 306.232C770.313 306.232 769.401 307.688 769.401 311.096C769.401 314.552 770.313 316.04 771.657 316.04Z" fill="black"/>
<path d="M844.727 317V316.152C848.407 312.936 850.087 310.584 850.087 308.584C850.087 307.24 849.399 306.248 847.943 306.248C846.983 306.248 846.151 306.84 845.495 307.608L844.647 306.792C845.607 305.752 846.631 305.064 848.119 305.064C850.215 305.064 851.527 306.424 851.527 308.52C851.527 310.872 849.687 313.256 846.919 315.864C847.543 315.8 848.247 315.752 848.839 315.752H852.087V317H844.727ZM857.346 317.224C855.106 317.224 853.682 315.192 853.682 311.096C853.682 307.032 855.106 305.064 857.346 305.064C859.554 305.064 860.978 307.032 860.978 311.096C860.978 315.192 859.554 317.224 857.346 317.224ZM857.346 316.04C858.674 316.04 859.57 314.552 859.57 311.096C859.57 307.688 858.674 306.232 857.346 306.232C856.002 306.232 855.09 307.688 855.09 311.096C855.09 314.552 856.002 316.04 857.346 316.04ZM863.181 317V315.784H865.789V307.048H863.693V306.104C864.749 305.928 865.501 305.656 866.125 305.272H867.245V315.784H869.613V317H863.181ZM875.112 317.224C872.952 317.224 871.368 315.912 871.368 314.104C871.368 312.52 872.456 311.432 873.528 310.856V310.792C872.664 310.2 871.928 309.304 871.928 308.072C871.928 306.296 873.32 305.112 875.16 305.112C877.16 305.112 878.376 306.392 878.376 308.184C878.376 309.432 877.512 310.472 876.808 311.016V311.096C877.832 311.688 878.792 312.584 878.792 314.184C878.792 315.896 877.304 317.224 875.112 317.224ZM875.912 310.648C876.712 309.944 877.128 309.144 877.128 308.264C877.128 307.112 876.392 306.184 875.128 306.184C874.056 306.184 873.272 306.952 873.272 308.072C873.272 309.48 874.536 310.104 875.912 310.648ZM875.144 316.12C876.488 316.12 877.384 315.304 877.384 314.136C877.384 312.568 875.944 311.976 874.296 311.304C873.336 311.912 872.68 312.84 872.68 313.96C872.68 315.208 873.736 316.12 875.144 316.12ZM879.699 319.864L884.499 304.296H885.539L880.755 319.864H879.699ZM887.197 317V315.784H889.805V307.048H887.709V306.104C888.765 305.928 889.517 305.656 890.141 305.272H891.261V315.784H893.629V317H887.197ZM899.112 317.224C896.872 317.224 895.448 315.192 895.448 311.096C895.448 307.032 896.872 305.064 899.112 305.064C901.32 305.064 902.744 307.032 902.744 311.096C902.744 315.192 901.32 317.224 899.112 317.224ZM899.112 316.04C900.44 316.04 901.336 314.552 901.336 311.096C901.336 307.688 900.44 306.232 899.112 306.232C897.768 306.232 896.856 307.688 896.856 311.096C896.856 314.552 897.768 316.04 899.112 316.04Z" fill="black"/>
<path d="M972.181 317V316.152C975.861 312.936 977.541 310.584 977.541 308.584C977.541 307.24 976.853 306.248 975.397 306.248C974.437 306.248 973.605 306.84 972.949 307.608L972.101 306.792C973.061 305.752 974.085 305.064 975.573 305.064C977.669 305.064 978.981 306.424 978.981 308.52C978.981 310.872 977.141 313.256 974.373 315.864C974.997 315.8 975.701 315.752 976.293 315.752H979.541V317H972.181ZM984.8 317.224C982.56 317.224 981.136 315.192 981.136 311.096C981.136 307.032 982.56 305.064 984.8 305.064C987.008 305.064 988.432 307.032 988.432 311.096C988.432 315.192 987.008 317.224 984.8 317.224ZM984.8 316.04C986.128 316.04 987.024 314.552 987.024 311.096C987.024 307.688 986.128 306.232 984.8 306.232C983.456 306.232 982.544 307.688 982.544 311.096C982.544 314.552 983.456 316.04 984.8 316.04ZM989.931 317V316.152C993.611 312.936 995.291 310.584 995.291 308.584C995.291 307.24 994.603 306.248 993.147 306.248C992.187 306.248 991.355 306.84 990.699 307.608L989.851 306.792C990.811 305.752 991.835 305.064 993.323 305.064C995.419 305.064 996.731 306.424 996.731 308.52C996.731 310.872 994.891 313.256 992.123 315.864C992.747 315.8 993.451 315.752 994.043 315.752H997.291V317H989.931ZM999.51 317V315.784H1002.12V307.048H1000.02V306.104C1001.08 305.928 1001.83 305.656 1002.45 305.272H1003.57V315.784H1005.94V317H999.51ZM1007.15 319.864L1011.95 304.296H1012.99L1008.21 319.864H1007.15ZM1014.65 317V315.784H1017.26V307.048H1015.16V306.104C1016.22 305.928 1016.97 305.656 1017.59 305.272H1018.71V315.784H1021.08V317H1014.65ZM1026.57 317.224C1024.33 317.224 1022.9 315.192 1022.9 311.096C1022.9 307.032 1024.33 305.064 1026.57 305.064C1028.77 305.064 1030.2 307.032 1030.2 311.096C1030.2 315.192 1028.77 317.224 1026.57 317.224ZM1026.57 316.04C1027.89 316.04 1028.79 314.552 1028.79 311.096C1028.79 307.688 1027.89 306.232 1026.57 306.232C1025.22 306.232 1024.31 307.688 1024.31 311.096C1024.31 314.552 1025.22 316.04 1026.57 316.04Z" fill="black"/>
<g filter="url(#filter1_d_1115_1512)">
<rect x="436.881" width="234.238" height="54" fill="#1F7893"/>
</g>
<path d="M493.05 17.675H513.9V20.1H493.05V17.675ZM493.975 36.1H513.1V38.55H493.975V36.1ZM498.275 21.175H508.475V23.275H498.275V21.175ZM498.275 24.375H508.475V26.475H498.275V24.375ZM491.725 27.575H515.1V30.025H491.725V27.575ZM497.4 32.125H509.475V34.475H497.4V32.125ZM496.5 15.775H499.525V28.925H496.5V15.775ZM507.4 15.8H510.45V28.925H507.4V15.8ZM501.825 30.55H504.9V37.525H501.825V30.55ZM498.05 28.275L500.55 29.2C498.95 31.85 496.25 34.2 493.4 35.475C492.975 34.775 492.125 33.725 491.5 33.175C494.1 32.225 496.725 30.3 498.05 28.275ZM508.9 28.275C510.225 30.2 512.8 32 515.375 32.925C514.725 33.475 513.85 34.55 513.4 35.25C510.7 34.05 508.1 31.675 506.525 29.175L508.9 28.275ZM521.675 23H535.05V25.775H521.675V23ZM518.775 28.375H538V31.075H518.775V28.375ZM517.55 35.975H539.325V38.7H517.55V35.975ZM526.75 24.325H529.975V37.25H526.75V24.325ZM520.425 31.9L522.85 30.9C523.775 32.15 524.775 33.9 525.175 35.075L522.575 36.2C522.225 35.05 521.3 33.225 520.425 31.9ZM533.7 30.925L536.55 31.975C535.6 33.525 534.55 35.15 533.725 36.2L531.45 35.275C532.225 34.1 533.175 32.275 533.7 30.925ZM529.525 17.075C531.825 19.575 536.375 22 540.525 23.125C539.825 23.775 538.9 24.975 538.45 25.75C534.275 24.3 529.825 21.45 527.025 18.3L529.525 17.075ZM528.075 15.5L530.9 16.75C528.05 21.175 523.5 24.1 518.45 25.9C518.025 25.025 517.2 23.875 516.425 23.125C521.175 21.75 525.7 19.225 528.075 15.5ZM548.025 27.25H565.025V29.8H548.025V27.25ZM554.65 24.825H557.45V36.15C557.45 37.6 557.175 38.325 556.225 38.725C555.275 39.15 553.925 39.175 552.05 39.175C551.95 38.4 551.575 37.275 551.225 36.5C552.425 36.55 553.75 36.55 554.15 36.55C554.55 36.55 554.65 36.45 554.65 36.1V24.825ZM561.4 15.8L563.4 17.925C559.525 19.05 554.05 19.65 549.375 19.925C549.3 19.275 548.975 18.225 548.7 17.625C553.2 17.325 558.375 16.7 561.4 15.8ZM549.525 23.55H563.3V33.6H549.3V31.225H560.7V25.925H549.525V23.55ZM549.225 20.825L551.3 19.9C552 20.8 552.65 22.025 552.9 22.875L550.75 23.95C550.5 23.075 549.875 21.775 549.225 20.825ZM554.2 20.075L556.375 19.375C557 20.375 557.55 21.75 557.775 22.675L555.5 23.5C555.325 22.575 554.75 21.125 554.2 20.075ZM560.8 18.975L563.575 19.675C562.8 21.1 561.975 22.475 561.3 23.4L558.825 22.7C559.525 21.7 560.375 20.1 560.8 18.975ZM542.575 18.25L544.05 16.05C545.5 16.675 547.425 17.775 548.35 18.675L546.775 21.1C545.9 20.2 544.05 18.975 542.575 18.25ZM541.25 25.175L542.625 22.925C544.1 23.5 546.05 24.55 547.025 25.4L545.525 27.875C544.625 27.025 542.725 25.85 541.25 25.175ZM541.95 36.925C543.15 35.075 544.9 32 546.25 29.125L548.2 31.125C547.025 33.725 545.575 36.525 544.225 38.95L541.95 36.925ZM574.275 18.05H589.55V20.625H574.275V18.05ZM573.175 36.275H590.1V38.775H573.175V36.275ZM575.35 22.35H588.2V36.725H585.45V24.525H578V36.725H575.35V22.35ZM577.325 25.9H585.925V27.975H577.325V25.9ZM577.275 29.375H586.575V31.375H577.275V29.375ZM577.2 32.8H585.975V34.85H577.2V32.8ZM580.55 15.825L583.725 15.925C583.3 18.575 582.675 21.5 582.125 23.325L579.525 23.125C579.975 21.15 580.4 18.075 580.55 15.825ZM571.825 15.85L574.575 16.725C573.025 20.975 570.575 25.5 567.975 28.375C567.7 27.625 566.9 25.975 566.425 25.25C568.575 22.95 570.6 19.425 571.825 15.85ZM569.35 22.8L572.125 19.95V19.975V39.225H569.35V22.8ZM600.725 21.375V22.375H605.875V21.375H600.725ZM598.35 19.875H608.4V23.875H598.35V19.875ZM599.775 28.625V33.425H606.85V28.625H599.775ZM597.5 27H609.275V35.075H597.5V27ZM602.4 30.6V31.45H604.175V30.6H602.4ZM600.8 29.35H605.9V32.7H600.8V29.35ZM596.325 24.625H610.55V26.25H596.325V24.625ZM602.025 22.9H604.55V25.35H602.025V22.9ZM592.7 16.625H614.225V39.25H611.3V19.075H595.5V39.25H592.7V16.625ZM594.475 35.9H612.775V38.375H594.475V35.9Z" fill="white"/>
<path d="M436.881 0V16H424.251L436.881 0Z" fill="#021228"/>
<path d="M671.12 0V16H683.75L671.12 0Z" fill="#021228"/>
<path d="M75 293V266.122L88.7155 262.189L92.7159 266.122L107.003 262.189L112.718 266.122L129.862 264.811L143.578 257.6L150.435 263.5L156.722 260.222L160.722 263.5L170.437 262.189L175.58 265.467L191.01 258.911L195.582 262.189L220.727 249.733L223.585 253.667L233.3 249.733L241.872 254.978L256.159 248.422L259.588 249.733L279.59 247.767L284.161 244.489L290.448 247.767L318.45 237.278L326.451 243.178L353.31 230.067L355.025 235.311L364.74 227.444L367.026 230.722L369.312 227.444L373.312 234L384.17 226.133L386.456 230.722L389.314 226.133L393.314 235.311L407.029 230.722L413.316 243.178L421.888 234L425.317 253.667L427.603 246.456L429.889 254.322L433.889 246.456L440.747 257.6L451.605 245.8L455.605 246.456L458.463 241.211H464.177L467.606 237.278H483.036L489.322 230.722L495.609 239.244L503.038 230.722L506.467 235.311L514.467 225.478L518.468 229.411H523.611L539.041 217.611L542.47 221.544L545.327 216.3L548.185 222.856L551.042 220.889L554.471 225.478L557.9 219.578L561.329 225.478L577.902 211.711L584.759 221.544L600.189 209.089L604.761 214.333L607.047 209.089L611.619 213.022L629.335 200.567L639.05 207.122L641.336 199.256L643.622 205.811L647.622 195.978L652.194 201.878L653.908 195.978L657.337 205.811L664.195 195.322L676.196 188.767L679.054 194.011L684.197 190.733L688.769 199.256L696.198 188.767L699.055 195.322L706.484 188.111L708.199 194.011L716.771 184.178L720.2 190.733L723.629 182.867L727.629 195.322L735.63 181.556L744.202 194.011L746.488 186.144L747.631 194.011L756.775 180.9L757.918 184.178L760.775 178.933L762.49 186.144L765.918 177.622L768.776 180.9L772.205 177.622C774.89 180.908 779.998 187.282 780.224 188.037C780.968 186.8 796.326 170.299 804.207 161.889L807.065 166.478L809.351 161.889L811.637 165.167H816.78L826.495 155.333H829.353L832.781 147.467L835.639 157.3L842.497 159.922L852.783 148.122H858.498L862.498 144.189L864.213 154.022L869.356 147.467L873.928 160.578L887.643 133.7L889.358 140.911L897.359 125.833L899.073 133.7L902.502 125.833L905.359 133.7L922.504 110.756L927.647 161.889L935.076 118.622L936.791 125.833L945.934 104.856L949.935 112.067L952.792 104.856L953.935 118.622L957.935 105.511L962.507 96.3333L968.793 106.822L975.08 82.5667L979.08 89.7778L991.081 68.8L995.082 82.5667L999.653 65.5222L1001.94 74.0444L1004.23 57L1008.23 78.6333L1010.51 68.8L1013.94 91.7444L1017.37 78.6333L1021.37 101.578L1024.23 87.1556L1027.66 105.511L1032.8 85.1889L1038.51 117.311L1046.51 94.3667L1048.23 101.578L1052.8 87.8111L1058.52 101.578L1063.09 83.2222L1067.66 91.7444L1071.66 78.6333V293H75Z" fill="#2F9EBF"/>
<path d="M75.1895 73H1071.85" stroke="black"/>
<path d="M75.1895 128H1071.85" stroke="black"/>
<path d="M75.1895 183H1071.85" stroke="black"/>
<path d="M75.1895 238H1071.85" stroke="black"/>
<path d="M75.1895 293H1071.85" stroke="black"/>
<defs>
<filter id="filter0_d_1115_1512" x="0" y="12" width="1116" height="393" filterUnits="userSpaceOnUse" color-interpolation-filters="sRGB">
<feFlood flood-opacity="0" result="BackgroundImageFix"/>
<feColorMatrix in="SourceAlpha" type="matrix" values="0 0 0 0 0 0 0 0 0 0 0 0 0 0 0 0 0 0 127 0" result="hardAlpha"/>
<feOffset dx="4" dy="4"/>
<feGaussianBlur stdDeviation="4"/>
<feComposite in2="hardAlpha" operator="out"/>
<feColorMatrix type="matrix" values="0 0 0 0 0 0 0 0 0 0 0 0 0 0 0 0 0 0 0.25 0"/>
<feBlend mode="normal" in2="BackgroundImageFix" result="effect1_dropShadow_1115_1512"/>
<feBlend mode="normal" in="SourceGraphic" in2="effect1_dropShadow_1115_1512" result="shape"/>
</filter>
<filter id="filter1_d_1115_1512" x="436.881" y="0" width="238.238" height="58" filterUnits="userSpaceOnUse" color-interpolation-filters="sRGB">
<feFlood flood-opacity="0" result="BackgroundImageFix"/>
<feColorMatrix in="SourceAlpha" type="matrix" values="0 0 0 0 0 0 0 0 0 0 0 0 0 0 0 0 0 0 127 0" result="hardAlpha"/>
<feOffset dx="2" dy="2"/>
<feGaussianBlur stdDeviation="1"/>
<feComposite in2="hardAlpha" operator="out"/>
<feColorMatrix type="matrix" values="0 0 0 0 0 0 0 0 0 0 0 0 0 0 0 0 0 0 0.25 0"/>
<feBlend mode="normal" in2="BackgroundImageFix" result="effect1_dropShadow_1115_1512"/>
<feBlend mode="normal" in="SourceGraphic" in2="effect1_dropShadow_1115_1512" result="shape"/>
</filter>
</defs>
</svg>
