<svg width="346" height="348" viewBox="0 0 346 348" fill="none" xmlns="http://www.w3.org/2000/svg">
<g filter="url(#filter0_d_1115_1513)">
<rect x="4" y="16" width="330" height="320" rx="10" fill="white"/>
</g>
<path d="M11.0252 93V92.258C14.2452 89.444 15.7152 87.386 15.7152 85.636C15.7152 84.46 15.1132 83.592 13.8392 83.592C12.9992 83.592 12.2712 84.11 11.6972 84.782L10.9552 84.068C11.7952 83.158 12.6912 82.556 13.9932 82.556C15.8272 82.556 16.9752 83.746 16.9752 85.58C16.9752 87.638 15.3652 89.724 12.9432 92.006C13.4892 91.95 14.1052 91.908 14.6232 91.908H17.4652V93H11.0252ZM22.0669 93.196C20.1069 93.196 18.8609 91.418 18.8609 87.834C18.8609 84.278 20.1069 82.556 22.0669 82.556C23.9989 82.556 25.2449 84.278 25.2449 87.834C25.2449 91.418 23.9989 93.196 22.0669 93.196ZM22.0669 92.16C23.2289 92.16 24.0129 90.858 24.0129 87.834C24.0129 84.852 23.2289 83.578 22.0669 83.578C20.8909 83.578 20.0929 84.852 20.0929 87.834C20.0929 90.858 20.8909 92.16 22.0669 92.16ZM29.8325 93.196C27.8725 93.196 26.6265 91.418 26.6265 87.834C26.6265 84.278 27.8725 82.556 29.8325 82.556C31.7645 82.556 33.0105 84.278 33.0105 87.834C33.0105 91.418 31.7645 93.196 29.8325 93.196ZM29.8325 92.16C30.9945 92.16 31.7785 90.858 31.7785 87.834C31.7785 84.852 30.9945 83.578 29.8325 83.578C28.6565 83.578 27.8585 84.852 27.8585 87.834C27.8585 90.858 28.6565 92.16 29.8325 92.16ZM11.6412 133V131.936H13.9232V124.292H12.0892V123.466C13.0132 123.312 13.6712 123.074 14.2172 122.738H15.1972V131.936H17.2692V133H11.6412ZM21.8289 133.196C20.2329 133.196 19.2529 132.524 18.5529 131.824L19.1969 130.984C19.7709 131.586 20.5269 132.132 21.7029 132.132C22.9209 132.132 23.8869 131.194 23.8869 129.71C23.8869 128.24 23.0469 127.358 21.7729 127.358C21.0869 127.358 20.6529 127.582 20.0649 127.974L19.3789 127.54L19.7009 122.738H24.6989V123.83H20.8209L20.5549 126.798C21.0169 126.546 21.4789 126.392 22.0949 126.392C23.8029 126.392 25.1889 127.4 25.1889 129.668C25.1889 131.908 23.5509 133.196 21.8289 133.196ZM29.8325 133.196C27.8725 133.196 26.6265 131.418 26.6265 127.834C26.6265 124.278 27.8725 122.556 29.8325 122.556C31.7645 122.556 33.0105 124.278 33.0105 127.834C33.0105 131.418 31.7645 133.196 29.8325 133.196ZM29.8325 132.16C30.9945 132.16 31.7785 130.858 31.7785 127.834C31.7785 124.852 30.9945 123.578 29.8325 123.578C28.6565 123.578 27.8585 124.852 27.8585 127.834C27.8585 130.858 28.6565 132.16 29.8325 132.16ZM11.6412 173V171.936H13.9232V164.292H12.0892V163.466C13.0132 163.312 13.6712 163.074 14.2172 162.738H15.1972V171.936H17.2692V173H11.6412ZM22.0669 173.196C20.1069 173.196 18.8609 171.418 18.8609 167.834C18.8609 164.278 20.1069 162.556 22.0669 162.556C23.9989 162.556 25.2449 164.278 25.2449 167.834C25.2449 171.418 23.9989 173.196 22.0669 173.196ZM22.0669 172.16C23.2289 172.16 24.0129 170.858 24.0129 167.834C24.0129 164.852 23.2289 163.578 22.0669 163.578C20.8909 163.578 20.0929 164.852 20.0929 167.834C20.0929 170.858 20.8909 172.16 22.0669 172.16ZM29.8325 173.196C27.8725 173.196 26.6265 171.418 26.6265 167.834C26.6265 164.278 27.8725 162.556 29.8325 162.556C31.7645 162.556 33.0105 164.278 33.0105 167.834C33.0105 171.418 31.7645 173.196 29.8325 173.196ZM29.8325 172.16C30.9945 172.16 31.7785 170.858 31.7785 167.834C31.7785 164.852 30.9945 163.578 29.8325 163.578C28.6565 163.578 27.8585 164.852 27.8585 167.834C27.8585 170.858 28.6565 172.16 29.8325 172.16ZM17.9461 213.196C16.3501 213.196 15.3701 212.524 14.6701 211.824L15.3141 210.984C15.8881 211.586 16.6441 212.132 17.8201 212.132C19.0381 212.132 20.0041 211.194 20.0041 209.71C20.0041 208.24 19.1641 207.358 17.8901 207.358C17.2041 207.358 16.7701 207.582 16.1821 207.974L15.4961 207.54L15.8181 202.738H20.8161V203.83H16.9381L16.6721 206.798C17.1341 206.546 17.5961 206.392 18.2121 206.392C19.9201 206.392 21.3061 207.4 21.3061 209.668C21.3061 211.908 19.6681 213.196 17.9461 213.196ZM25.9497 213.196C23.9897 213.196 22.7437 211.418 22.7437 207.834C22.7437 204.278 23.9897 202.556 25.9497 202.556C27.8817 202.556 29.1277 204.278 29.1277 207.834C29.1277 211.418 27.8817 213.196 25.9497 213.196ZM25.9497 212.16C27.1117 212.16 27.8957 210.858 27.8957 207.834C27.8957 204.852 27.1117 203.578 25.9497 203.578C24.7737 203.578 23.9757 204.852 23.9757 207.834C23.9757 210.858 24.7737 212.16 25.9497 212.16ZM22.0669 253.196C20.1069 253.196 18.8609 251.418 18.8609 247.834C18.8609 244.278 20.1069 242.556 22.0669 242.556C23.9989 242.556 25.2449 244.278 25.2449 247.834C25.2449 251.418 23.9989 253.196 22.0669 253.196ZM22.0669 252.16C23.2289 252.16 24.0129 250.858 24.0129 247.834C24.0129 244.852 23.2289 243.578 22.0669 243.578C20.8909 243.578 20.0929 244.852 20.0929 247.834C20.0929 250.858 20.8909 252.16 22.0669 252.16Z" fill="black"/>
<path d="M47 258.085L47.742 258.085C50.556 261.305 52.614 262.775 54.364 262.775C55.54 262.775 56.408 262.173 56.408 260.899C56.408 260.059 55.89 259.331 55.218 258.757L55.932 258.015C56.842 258.855 57.444 259.751 57.444 261.053C57.444 262.887 56.254 264.035 54.42 264.035C52.362 264.035 50.276 262.425 47.994 260.003C48.05 260.549 48.092 261.165 48.092 261.683L48.092 264.525L47 264.525L47 258.085ZM46.804 269.126C46.804 267.166 48.582 265.92 52.166 265.92C55.722 265.92 57.444 267.166 57.444 269.126C57.444 271.058 55.722 272.304 52.166 272.304C48.582 272.304 46.804 271.058 46.804 269.126ZM47.84 269.126C47.84 270.288 49.142 271.072 52.166 271.072C55.148 271.072 56.422 270.288 56.422 269.126C56.422 267.95 55.148 267.152 52.166 267.152C49.142 267.152 47.84 267.95 47.84 269.126ZM46.804 276.892C46.804 274.932 48.582 273.686 52.166 273.686C55.722 273.686 57.444 274.932 57.444 276.892C57.444 278.824 55.722 280.07 52.166 280.07C48.582 280.07 46.804 278.824 46.804 276.892ZM47.84 276.892C47.84 278.054 49.142 278.838 52.166 278.838C55.148 278.838 56.422 278.054 56.422 276.892C56.422 275.716 55.148 274.918 52.166 274.918C49.142 274.918 47.84 275.716 47.84 276.892ZM46.804 284.658C46.804 282.698 48.582 281.452 52.166 281.452C55.722 281.452 57.444 282.698 57.444 284.658C57.444 286.59 55.722 287.836 52.166 287.836C48.582 287.836 46.804 286.59 46.804 284.658ZM47.84 284.658C47.84 285.82 49.142 286.604 52.166 286.604C55.148 286.604 56.422 285.82 56.422 284.658C56.422 283.482 55.148 282.684 52.166 282.684C49.142 282.684 47.84 283.482 47.84 284.658Z" fill="black"/>
<path d="M84 258.085L84.742 258.085C87.556 261.305 89.614 262.775 91.364 262.775C92.54 262.775 93.408 262.173 93.408 260.899C93.408 260.059 92.89 259.331 92.218 258.757L92.932 258.015C93.842 258.855 94.444 259.751 94.444 261.053C94.444 262.887 93.254 264.035 91.42 264.035C89.362 264.035 87.276 262.425 84.994 260.003C85.05 260.549 85.092 261.165 85.092 261.683L85.092 264.525L84 264.525L84 258.085ZM83.804 269.126C83.804 267.166 85.582 265.92 89.166 265.92C92.722 265.92 94.444 267.166 94.444 269.126C94.444 271.058 92.722 272.304 89.166 272.304C85.582 272.304 83.804 271.058 83.804 269.126ZM84.84 269.126C84.84 270.288 86.142 271.072 89.166 271.072C92.148 271.072 93.422 270.288 93.422 269.126C93.422 267.95 92.148 267.152 89.166 267.152C86.142 267.152 84.84 267.95 84.84 269.126ZM83.804 276.892C83.804 274.932 85.582 273.686 89.166 273.686C92.722 273.686 94.444 274.932 94.444 276.892C94.444 278.824 92.722 280.07 89.166 280.07C85.582 280.07 83.804 278.824 83.804 276.892ZM84.84 276.892C84.84 278.054 86.142 278.838 89.166 278.838C92.148 278.838 93.422 278.054 93.422 276.892C93.422 275.716 92.148 274.918 89.166 274.918C86.142 274.918 84.84 275.716 84.84 276.892ZM83.804 284.448C83.804 282.838 84.476 281.844 85.218 281.172L86.058 281.816C85.428 282.418 84.868 283.188 84.868 284.364C84.868 285.582 85.61 286.45 86.786 286.45C88.018 286.45 88.83 285.624 88.83 283.258L89.824 283.258C89.824 285.372 90.664 286.086 91.784 286.086C92.764 286.086 93.408 285.428 93.408 284.364C93.408 283.538 92.988 282.81 92.4 282.236L93.226 281.55C93.926 282.32 94.444 283.23 94.444 284.406C94.444 286.128 93.506 287.388 91.868 287.388C90.622 287.388 89.796 286.66 89.404 285.568L89.348 285.568C89.054 286.772 88.144 287.752 86.73 287.752C84.91 287.752 83.804 286.282 83.804 284.448Z" fill="black"/>
<path d="M121 258.085L121.742 258.085C124.556 261.305 126.614 262.775 128.364 262.775C129.54 262.775 130.408 262.173 130.408 260.899C130.408 260.059 129.89 259.331 129.218 258.757L129.932 258.015C130.842 258.855 131.444 259.751 131.444 261.053C131.444 262.887 130.254 264.035 128.42 264.035C126.362 264.035 124.276 262.425 121.994 260.003C122.05 260.549 122.092 261.165 122.092 261.683L122.092 264.525L121 264.525L121 258.085ZM120.804 269.126C120.804 267.166 122.582 265.92 126.166 265.92C129.722 265.92 131.444 267.166 131.444 269.126C131.444 271.058 129.722 272.304 126.166 272.304C122.582 272.304 120.804 271.058 120.804 269.126ZM121.84 269.126C121.84 270.288 123.142 271.072 126.166 271.072C129.148 271.072 130.422 270.288 130.422 269.126C130.422 267.95 129.148 267.152 126.166 267.152C123.142 267.152 121.84 267.95 121.84 269.126ZM120.804 276.892C120.804 274.932 122.582 273.686 126.166 273.686C129.722 273.686 131.444 274.932 131.444 276.892C131.444 278.824 129.722 280.07 126.166 280.07C122.582 280.07 120.804 278.824 120.804 276.892ZM121.84 276.892C121.84 278.054 123.142 278.838 126.166 278.838C129.148 278.838 130.422 278.054 130.422 276.892C130.422 275.716 129.148 274.918 126.166 274.918C123.142 274.918 121.84 275.716 121.84 276.892ZM120.804 284.98C120.804 283.006 122.498 281.536 125.886 281.536C129.904 281.536 131.444 283.342 131.444 285.33C131.444 286.394 130.996 287.178 130.394 287.738L129.61 287.024C130.086 286.632 130.38 286.002 130.38 285.386C130.38 283.944 129.246 282.74 125.886 282.74C123.254 282.74 121.812 283.538 121.812 284.98C121.812 285.96 122.75 286.716 124.136 286.716C125.536 286.716 126.418 286.1 126.418 284.868C126.418 284.21 126.026 283.384 125.004 282.698L126.026 282.656C126.852 283.286 127.356 284.238 127.356 285.064C127.356 286.8 126.292 287.92 124.136 287.92C122.148 287.92 120.804 286.562 120.804 284.98Z" fill="black"/>
<path d="M158 258.085L158.742 258.085C161.556 261.305 163.614 262.775 165.364 262.775C166.54 262.775 167.408 262.173 167.408 260.899C167.408 260.059 166.89 259.331 166.218 258.757L166.932 258.015C167.842 258.855 168.444 259.751 168.444 261.053C168.444 262.887 167.254 264.035 165.42 264.035C163.362 264.035 161.276 262.425 158.994 260.003C159.05 260.549 159.092 261.165 159.092 261.683L159.092 264.525L158 264.525L158 258.085ZM157.804 269.126C157.804 267.166 159.582 265.92 163.166 265.92C166.722 265.92 168.444 267.166 168.444 269.126C168.444 271.058 166.722 272.304 163.166 272.304C159.582 272.304 157.804 271.058 157.804 269.126ZM158.84 269.126C158.84 270.288 160.142 271.072 163.166 271.072C166.148 271.072 167.422 270.288 167.422 269.126C167.422 267.95 166.148 267.152 163.166 267.152C160.142 267.152 158.84 267.95 158.84 269.126ZM157.804 276.892C157.804 274.932 159.582 273.686 163.166 273.686C166.722 273.686 168.444 274.932 168.444 276.892C168.444 278.824 166.722 280.07 163.166 280.07C159.582 280.07 157.804 278.824 157.804 276.892ZM158.84 276.892C158.84 278.054 160.142 278.838 163.166 278.838C166.148 278.838 167.422 278.054 167.422 276.892C167.422 275.716 166.148 274.918 163.166 274.918C160.142 274.918 158.84 275.716 158.84 276.892ZM157.804 284.042C157.804 282.922 158.252 282.138 158.854 281.564L159.666 282.278C159.162 282.712 158.868 283.342 158.868 284C158.868 285.372 160.058 286.562 163.572 286.562C166.092 286.562 167.45 285.764 167.45 284.322C167.45 283.342 166.526 282.586 165.112 282.586C163.74 282.586 162.83 283.202 162.83 284.42C162.83 285.106 163.236 285.904 164.258 286.576L163.236 286.646C162.424 286.002 161.892 285.092 161.892 284.21C161.892 282.488 162.984 281.382 165.112 281.382C167.1 281.382 168.444 282.726 168.444 284.322C168.444 286.296 166.834 287.766 163.572 287.766C159.4 287.766 157.804 285.974 157.804 284.042Z" fill="black"/>
<path d="M195 258.085L195.742 258.085C198.556 261.305 200.614 262.775 202.364 262.775C203.54 262.775 204.408 262.173 204.408 260.899C204.408 260.059 203.89 259.331 203.218 258.757L203.932 258.015C204.842 258.855 205.444 259.751 205.444 261.053C205.444 262.887 204.254 264.035 202.42 264.035C200.362 264.035 198.276 262.425 195.994 260.003C196.05 260.549 196.092 261.165 196.092 261.683L196.092 264.525L195 264.525L195 258.085ZM194.804 269.126C194.804 267.166 196.582 265.92 200.166 265.92C203.722 265.92 205.444 267.166 205.444 269.126C205.444 271.058 203.722 272.304 200.166 272.304C196.582 272.304 194.804 271.058 194.804 269.126ZM195.84 269.126C195.84 270.288 197.142 271.072 200.166 271.072C203.148 271.072 204.422 270.288 204.422 269.126C204.422 267.95 203.148 267.152 200.166 267.152C197.142 267.152 195.84 267.95 195.84 269.126ZM195 274.232L196.064 274.232L196.064 276.514L203.708 276.514L203.708 274.68L204.534 274.68C204.688 275.604 204.926 276.262 205.262 276.808L205.262 277.788L196.064 277.788L196.064 279.86L195 279.86L195 274.232ZM195 281.382L195.742 281.382C198.556 284.602 200.614 286.072 202.364 286.072C203.54 286.072 204.408 285.47 204.408 284.196C204.408 283.356 203.89 282.628 203.218 282.054L203.932 281.312C204.842 282.152 205.444 283.048 205.444 284.35C205.444 286.184 204.254 287.332 202.42 287.332C200.362 287.332 198.276 285.722 195.994 283.3C196.05 283.846 196.092 284.462 196.092 284.98L196.092 287.822L195 287.822L195 281.382Z" fill="black"/>
<path d="M232 258.085L232.742 258.085C235.556 261.305 237.614 262.775 239.364 262.775C240.54 262.775 241.408 262.173 241.408 260.899C241.408 260.059 240.89 259.331 240.218 258.757L240.932 258.015C241.842 258.855 242.444 259.751 242.444 261.053C242.444 262.887 241.254 264.035 239.42 264.035C237.362 264.035 235.276 262.425 232.994 260.003C233.05 260.549 233.092 261.165 233.092 261.683L233.092 264.525L232 264.525L232 258.085ZM231.804 269.126C231.804 267.166 233.582 265.92 237.166 265.92C240.722 265.92 242.444 267.166 242.444 269.126C242.444 271.058 240.722 272.304 237.166 272.304C233.582 272.304 231.804 271.058 231.804 269.126ZM232.84 269.126C232.84 270.288 234.142 271.072 237.166 271.072C240.148 271.072 241.422 270.288 241.422 269.126C241.422 267.95 240.148 267.152 237.166 267.152C234.142 267.152 232.84 267.95 232.84 269.126ZM232 274.232L233.064 274.232L233.064 276.514L240.708 276.514L240.708 274.68L241.534 274.68C241.688 275.604 241.926 276.262 242.262 276.808L242.262 277.788L233.064 277.788L233.064 279.86L232 279.86L232 274.232ZM231.804 284.42C231.804 282.824 232.476 281.844 233.176 281.144L234.016 281.788C233.414 282.362 232.868 283.118 232.868 284.294C232.868 285.512 233.806 286.478 235.29 286.478C236.76 286.478 237.642 285.638 237.642 284.364C237.642 283.678 237.418 283.244 237.026 282.656L237.46 281.97L242.262 282.292L242.262 287.29L241.17 287.29L241.17 283.412L238.202 283.146C238.454 283.608 238.608 284.07 238.608 284.686C238.608 286.394 237.6 287.78 235.332 287.78C233.092 287.78 231.804 286.142 231.804 284.42Z" fill="black"/>
<path d="M269 258.085L269.742 258.085C272.556 261.305 274.614 262.775 276.364 262.775C277.54 262.775 278.408 262.173 278.408 260.899C278.408 260.059 277.89 259.331 277.218 258.757L277.932 258.015C278.842 258.855 279.444 259.751 279.444 261.053C279.444 262.887 278.254 264.035 276.42 264.035C274.362 264.035 272.276 262.425 269.994 260.003C270.05 260.549 270.092 261.165 270.092 261.683L270.092 264.525L269 264.525L269 258.085ZM268.804 269.126C268.804 267.166 270.582 265.92 274.166 265.92C277.722 265.92 279.444 267.166 279.444 269.126C279.444 271.058 277.722 272.304 274.166 272.304C270.582 272.304 268.804 271.058 268.804 269.126ZM269.84 269.126C269.84 270.288 271.142 271.072 274.166 271.072C277.148 271.072 278.422 270.288 278.422 269.126C278.422 267.95 277.148 267.152 274.166 267.152C271.142 267.152 269.84 267.95 269.84 269.126ZM269 274.232L270.064 274.232L270.064 276.514L277.708 276.514L277.708 274.68L278.534 274.68C278.688 275.604 278.926 276.262 279.262 276.808L279.262 277.788L270.064 277.788L270.064 279.86L269 279.86L269 274.232ZM268.804 284.672C268.804 282.782 269.952 281.396 271.534 281.396C272.92 281.396 273.872 282.348 274.376 283.286L274.432 283.286C274.95 282.53 275.734 281.886 276.812 281.886C278.366 281.886 279.402 283.104 279.402 284.714C279.402 286.464 278.282 287.528 276.714 287.528C275.622 287.528 274.712 286.772 274.236 286.156L274.166 286.156C273.648 287.052 272.864 287.892 271.464 287.892C269.966 287.892 268.804 286.59 268.804 284.672ZM274.558 285.372C275.174 286.072 275.874 286.436 276.644 286.436C277.652 286.436 278.464 285.792 278.464 284.686C278.464 283.748 277.792 283.062 276.812 283.062C275.58 283.062 275.034 284.168 274.558 285.372ZM269.77 284.7C269.77 285.876 270.484 286.66 271.506 286.66C272.878 286.66 273.396 285.4 273.984 283.958C273.452 283.118 272.64 282.544 271.66 282.544C270.568 282.544 269.77 283.468 269.77 284.7Z" fill="black"/>
<path d="M306 258.085L306.742 258.085C309.556 261.305 311.614 262.775 313.364 262.775C314.54 262.775 315.408 262.173 315.408 260.899C315.408 260.059 314.89 259.331 314.218 258.757L314.932 258.015C315.842 258.855 316.444 259.751 316.444 261.053C316.444 262.887 315.254 264.035 313.42 264.035C311.362 264.035 309.276 262.425 306.994 260.003C307.05 260.549 307.092 261.165 307.092 261.683L307.092 264.525L306 264.525L306 258.085ZM305.804 269.126C305.804 267.166 307.582 265.92 311.166 265.92C314.722 265.92 316.444 267.166 316.444 269.126C316.444 271.058 314.722 272.304 311.166 272.304C307.582 272.304 305.804 271.058 305.804 269.126ZM306.84 269.126C306.84 270.288 308.142 271.072 311.166 271.072C314.148 271.072 315.422 270.288 315.422 269.126C315.422 267.95 314.148 267.152 311.166 267.152C308.142 267.152 306.84 267.95 306.84 269.126ZM306 273.616L306.742 273.616C309.556 276.836 311.614 278.306 313.364 278.306C314.54 278.306 315.408 277.704 315.408 276.43C315.408 275.59 314.89 274.862 314.218 274.288L314.932 273.546C315.842 274.386 316.444 275.282 316.444 276.584C316.444 278.418 315.254 279.566 313.42 279.566C311.362 279.566 309.276 277.956 306.994 275.534C307.05 276.08 307.092 276.696 307.092 277.214L307.092 280.056L306 280.056L306 273.616ZM306 281.998L307.064 281.998L307.064 284.28L314.708 284.28L314.708 282.446L315.534 282.446C315.688 283.37 315.926 284.028 316.262 284.574L316.262 285.554L307.064 285.554L307.064 287.626L306 287.626L306 281.998Z" fill="black"/>
<g filter="url(#filter1_d_1115_1513)">
<rect x="52" width="234" height="39" fill="#1F7893"/>
</g>
<path d="M120.464 11.54H137.144V13.48H120.464V11.54ZM121.204 26.28H136.504V28.24H121.204V26.28ZM124.644 14.34H132.804V16.02H124.644V14.34ZM124.644 16.9H132.804V18.58H124.644V16.9ZM119.404 19.46H138.104V21.42H119.404V19.46ZM123.944 23.1H133.604V24.98H123.944V23.1ZM123.224 10.02H125.644V20.54H123.224V10.02ZM131.944 10.04H134.384V20.54H131.944V10.04ZM127.484 21.84H129.944V27.42H127.484V21.84ZM124.464 20.02L126.464 20.76C125.184 22.88 123.024 24.76 120.744 25.78C120.404 25.22 119.724 24.38 119.224 23.94C121.304 23.18 123.404 21.64 124.464 20.02ZM133.144 20.02C134.204 21.56 136.264 23 138.324 23.74C137.804 24.18 137.104 25.04 136.744 25.6C134.584 24.64 132.504 22.74 131.244 20.74L133.144 20.02ZM143.364 15.8H154.064V18.02H143.364V15.8ZM141.044 20.1H156.424V22.26H141.044V20.1ZM140.064 26.18H157.484V28.36H140.064V26.18ZM147.424 16.86H150.004V27.2H147.424V16.86ZM142.364 22.92L144.304 22.12C145.044 23.12 145.844 24.52 146.164 25.46L144.084 26.36C143.804 25.44 143.064 23.98 142.364 22.92ZM152.984 22.14L155.264 22.98C154.504 24.22 153.664 25.52 153.004 26.36L151.184 25.62C151.804 24.68 152.564 23.22 152.984 22.14ZM149.644 11.06C151.484 13.06 155.124 15 158.444 15.9C157.884 16.42 157.144 17.38 156.784 18C153.444 16.84 149.884 14.56 147.644 12.04L149.644 11.06ZM148.484 9.8L150.744 10.8C148.464 14.34 144.824 16.68 140.784 18.12C140.444 17.42 139.784 16.5 139.164 15.9C142.964 14.8 146.584 12.78 148.484 9.8ZM164.444 19.2H178.044V21.24H164.444V19.2ZM169.744 17.26H171.984V26.32C171.984 27.48 171.764 28.06 171.004 28.38C170.244 28.72 169.164 28.74 167.664 28.74C167.584 28.12 167.284 27.22 167.004 26.6C167.964 26.64 169.024 26.64 169.344 26.64C169.664 26.64 169.744 26.56 169.744 26.28V17.26ZM175.144 10.04L176.744 11.74C173.644 12.64 169.264 13.12 165.524 13.34C165.464 12.82 165.204 11.98 164.984 11.5C168.584 11.26 172.724 10.76 175.144 10.04ZM165.644 16.24H176.664V24.28H165.464V22.38H174.584V18.14H165.644V16.24ZM165.404 14.06L167.064 13.32C167.624 14.04 168.144 15.02 168.344 15.7L166.624 16.56C166.424 15.86 165.924 14.82 165.404 14.06ZM169.384 13.46L171.124 12.9C171.624 13.7 172.064 14.8 172.244 15.54L170.424 16.2C170.284 15.46 169.824 14.3 169.384 13.46ZM174.664 12.58L176.884 13.14C176.264 14.28 175.604 15.38 175.064 16.12L173.084 15.56C173.644 14.76 174.324 13.48 174.664 12.58ZM160.084 12L161.264 10.24C162.424 10.74 163.964 11.62 164.704 12.34L163.444 14.28C162.744 13.56 161.264 12.58 160.084 12ZM159.024 17.54L160.124 15.74C161.304 16.2 162.864 17.04 163.644 17.72L162.444 19.7C161.724 19.02 160.204 18.08 159.024 17.54ZM159.584 26.94C160.544 25.46 161.944 23 163.024 20.7L164.584 22.3C163.644 24.38 162.484 26.62 161.404 28.56L159.584 26.94ZM185.444 11.84H197.664V13.9H185.444V11.84ZM184.564 26.42H198.104V28.42H184.564V26.42ZM186.304 15.28H196.584V26.78H194.384V17.02H188.424V26.78H186.304V15.28ZM187.884 18.12H194.764V19.78H187.884V18.12ZM187.844 20.9H195.284V22.5H187.844V20.9ZM187.784 23.64H194.804V25.28H187.784V23.64ZM190.464 10.06L193.004 10.14C192.664 12.26 192.164 14.6 191.724 16.06L189.644 15.9C190.004 14.32 190.344 11.86 190.464 10.06ZM183.484 10.08L185.684 10.78C184.444 14.18 182.484 17.8 180.404 20.1C180.184 19.5 179.544 18.18 179.164 17.6C180.884 15.76 182.504 12.94 183.484 10.08ZM181.504 15.64L183.724 13.36V13.38V28.78H181.504V15.64ZM206.604 14.5V15.3H210.724V14.5H206.604ZM204.704 13.3H212.744V16.5H204.704V13.3ZM205.844 20.3V24.14H211.504V20.3H205.844ZM204.024 19H213.444V25.46H204.024V19ZM207.944 21.88V22.56H209.364V21.88H207.944ZM206.664 20.88H210.744V23.56H206.664V20.88ZM203.084 17.1H214.464V18.4H203.084V17.1ZM207.644 15.72H209.664V17.68H207.644V15.72ZM200.184 10.7H217.404V28.8H215.064V12.66H202.424V28.8H200.184V10.7ZM201.604 26.12H216.244V28.1H201.604V26.12Z" fill="white"/>
<path d="M52 0V16H39L52 0Z" fill="#021228"/>
<path d="M285.87 0V16H298.5L285.87 0Z" fill="#021228"/>
<path d="M44 248V228.525L47.8119 225.675L48.9237 228.525L52.8945 225.675L54.4828 228.525L59.2477 227.575L63.0596 222.35L64.9656 226.625L66.7127 224.25L67.8245 226.625L70.5247 225.675L71.9541 228.05L76.2425 223.3L77.5132 225.675L84.5017 216.65L85.2959 219.5L87.996 216.65L90.3784 220.45L94.3492 215.7L95.3022 216.65L100.861 215.225L102.132 212.85L103.879 215.225L111.662 207.625L113.885 211.9L121.35 202.4L121.827 206.2L124.527 200.5L125.162 202.875L125.798 200.5L126.909 205.25L129.927 199.55L130.562 202.875L131.357 199.55L132.468 206.2L136.28 202.875L138.028 211.9L140.41 205.25L141.363 219.5L141.998 214.275L142.634 219.975L143.745 214.275L145.651 222.35L148.669 213.8L149.781 214.275L150.575 210.475H152.163L153.116 207.625H157.405L159.152 202.875L160.899 209.05L162.964 202.875L163.917 206.2L166.14 199.075L167.252 201.925H168.682L172.97 193.375L173.923 196.225L174.717 192.425L175.511 197.175L176.306 195.75L177.259 199.075L178.212 194.8L179.165 199.075L183.771 189.1L185.677 196.225L189.965 187.2L191.236 191L191.871 187.2L193.142 190.05L198.065 181.025L200.765 185.775L201.401 180.075L202.036 184.825L203.148 177.7L204.419 181.975L204.895 177.7L205.848 184.825L207.754 177.225L211.089 172.475L211.884 176.275L213.313 173.9L214.584 180.075L216.648 172.475L217.443 177.225L219.507 172L219.984 176.275L222.366 169.15L223.319 173.9L224.272 168.2L225.384 177.225L227.608 167.25L229.99 176.275L230.626 170.575L230.943 176.275L233.485 166.775L233.802 169.15L234.596 165.35L235.073 170.575L236.026 164.4L236.82 166.775L237.773 164.4C238.519 166.781 239.939 171.399 240.002 171.947C240.208 171.05 244.477 159.094 246.667 153L247.462 156.325L248.097 153L248.732 155.375H250.162L252.862 148.25H253.656L254.609 142.55L255.403 149.675L257.309 151.575L260.168 143.025H261.756L262.868 140.175L263.345 147.3L264.774 142.55L266.045 152.05L269.857 132.575L270.333 137.8L272.557 126.875L273.033 132.575L273.986 126.875L274.78 132.575L279.545 115.95L280.975 153L283.04 121.65L283.516 126.875L286.057 111.675L287.169 116.9L287.963 111.675L288.281 121.65L289.393 112.15L290.663 105.5L292.411 113.1L294.158 95.525L295.269 100.75L298.605 85.55L299.717 95.525L300.987 83.175L301.623 89.35L302.258 77L303.37 92.675L304.005 85.55L304.958 102.175L305.911 92.675L307.023 109.3L307.817 98.85L308.77 112.15L310.2 97.425L311.788 120.7L314.011 104.075L314.488 109.3L315.759 99.325L317.347 109.3L318.618 96L319.888 102.175L321 92.675V248H44Z" fill="#2F9EBF"/>
<path d="M44 88.5933H321" stroke="black"/>
<path d="M44 128.445H321" stroke="black"/>
<path d="M44 168.297H321" stroke="black"/>
<path d="M44 208.148H321" stroke="black"/>
<path d="M44 248H321" stroke="black"/>
<defs>
<filter id="filter0_d_1115_1513" x="0" y="12" width="346" height="336" filterUnits="userSpaceOnUse" color-interpolation-filters="sRGB">
<feFlood flood-opacity="0" result="BackgroundImageFix"/>
<feColorMatrix in="SourceAlpha" type="matrix" values="0 0 0 0 0 0 0 0 0 0 0 0 0 0 0 0 0 0 127 0" result="hardAlpha"/>
<feOffset dx="4" dy="4"/>
<feGaussianBlur stdDeviation="4"/>
<feComposite in2="hardAlpha" operator="out"/>
<feColorMatrix type="matrix" values="0 0 0 0 0 0 0 0 0 0 0 0 0 0 0 0 0 0 0.25 0"/>
<feBlend mode="normal" in2="BackgroundImageFix" result="effect1_dropShadow_1115_1513"/>
<feBlend mode="normal" in="SourceGraphic" in2="effect1_dropShadow_1115_1513" result="shape"/>
</filter>
<filter id="filter1_d_1115_1513" x="52" y="0" width="238" height="43" filterUnits="userSpaceOnUse" color-interpolation-filters="sRGB">
<feFlood flood-opacity="0" result="BackgroundImageFix"/>
<feColorMatrix in="SourceAlpha" type="matrix" values="0 0 0 0 0 0 0 0 0 0 0 0 0 0 0 0 0 0 127 0" result="hardAlpha"/>
<feOffset dx="2" dy="2"/>
<feGaussianBlur stdDeviation="1"/>
<feComposite in2="hardAlpha" operator="out"/>
<feColorMatrix type="matrix" values="0 0 0 0 0 0 0 0 0 0 0 0 0 0 0 0 0 0 0.25 0"/>
<feBlend mode="normal" in2="BackgroundImageFix" result="effect1_dropShadow_1115_1513"/>
<feBlend mode="normal" in="SourceGraphic" in2="effect1_dropShadow_1115_1513" result="shape"/>
</filter>
</defs>
</svg>
