<svg width="188" height="46" viewBox="0 0 188 46" fill="none" xmlns="http://www.w3.org/2000/svg">
<path d="M97.4138 11.3931H76.0784C75.7387 11.3931 75.4167 11.54 75.1783 11.7954C74.9398 12.0509 74.8027 12.4021 74.8027 12.7597V33.2661C74.8027 33.6301 74.9398 33.9749 75.1783 34.2304C75.4167 34.4858 75.7446 34.6327 76.0784 34.6327H97.4257C97.7655 34.6327 98.0874 34.4858 98.3258 34.2304C98.5643 33.9749 98.7014 33.6237 98.7014 33.2661V12.7597C98.7014 12.5809 98.6656 12.4021 98.6 12.2361C98.5345 12.07 98.4391 11.9167 98.3199 11.789C98.2006 11.6613 98.0576 11.5591 97.9026 11.4952C97.7476 11.425 97.5807 11.3931 97.4078 11.3931H97.4138ZM90.3437 13.1174H92.1798C92.2692 13.6346 92.4123 14.484 92.5375 15.4547H90.3795C90.3258 14.3755 90.3258 13.5516 90.3437 13.1174ZM77.7476 13.1174H87.9533C87.9533 13.558 87.9533 14.3755 88.0963 15.4547H77.7476V13.1174ZM95.7387 32.9659H77.7357V17.179H88.3288C88.6925 20.2572 89.4495 23.2715 90.5762 26.1326C89.533 27.8186 88.2096 29.2874 86.6716 30.4689C86.5464 30.5519 86.6716 30.6988 86.6716 30.6988L87.1544 31.695C87.1544 31.695 87.1843 31.7334 87.2021 31.7397C87.22 31.7525 87.2439 31.7589 87.2618 31.7589C87.2796 31.7589 87.3035 31.7589 87.3214 31.7397C87.3392 31.727 87.3571 31.7142 87.3691 31.695C88.9309 30.7179 90.3199 29.4471 91.4525 27.9335C92.2036 29.4662 93.1872 30.852 94.3616 32.0335C94.3795 32.0527 94.3974 32.0654 94.4153 32.0782C94.4331 32.091 94.457 32.091 94.4808 32.091C94.5047 32.091 94.5285 32.091 94.5464 32.0782C94.5643 32.0654 94.5881 32.0527 94.6001 32.0335L95.3273 31.1011C95.3273 31.1011 95.4287 31.0181 95.3273 30.9095C94.2364 29.5045 93.3482 27.9399 92.6746 26.2603C93.4734 24.9894 94.1887 23.6611 94.8206 22.2817C94.922 22.0645 94.7431 21.9943 94.7431 21.9943L93.1992 21.3237C93.1992 21.3237 93.1515 21.311 93.1276 21.311C93.1038 21.311 93.0799 21.3173 93.0561 21.3301C93.0322 21.3429 93.0144 21.3557 93.0024 21.3748C92.9846 21.394 92.9726 21.4195 92.9667 21.4387C92.6328 22.2561 92.2632 23.1055 91.846 23.9293C91.1962 21.7069 90.767 19.4142 90.5702 17.096H94.3974C94.3974 17.096 94.9577 17.096 94.9339 16.3744C94.7014 15.0077 94.4868 13.7624 94.3616 13.0407H95.7625L95.7387 32.9595V32.9659Z" fill="#231815"/>
<path d="M87.5585 28.0994V26.8988C87.5585 26.6817 87.3797 26.7328 87.3797 26.7328C84.6852 27.5247 81.9132 27.9845 79.1233 28.0994C79.0577 28.0994 78.9981 28.125 78.9504 28.1761C78.9027 28.2272 78.8789 28.291 78.8789 28.3613V30.2324C78.8789 30.2644 78.8789 30.3027 78.8908 30.3346C78.9027 30.3666 78.9206 30.3985 78.9445 30.424C78.9683 30.4496 78.9922 30.4687 79.0279 30.4815C79.0577 30.4943 79.0935 30.5007 79.1233 30.4943C81.9668 30.2324 84.7567 29.5108 87.3916 28.3485C87.4393 28.3357 87.4869 28.3038 87.5168 28.2591C87.5466 28.2144 87.5645 28.1633 87.5585 28.1058V28.0994Z" fill="#231815"/>
<path d="M80.1839 25.5133H86.2465C86.5863 25.5133 86.9082 25.3664 87.1467 25.1109C87.3851 24.8555 87.5222 24.5042 87.5222 24.1466V20.0849C87.5222 19.7209 87.3851 19.376 87.1467 19.1206C86.9082 18.8651 86.5803 18.7183 86.2465 18.7183H80.1839C79.8441 18.7183 79.5222 18.8651 79.2838 19.1206C79.0453 19.376 78.9082 19.7273 78.9082 20.0849V24.1019C78.9082 24.2871 78.932 24.4659 78.9917 24.6383C79.0513 24.8108 79.1467 24.964 79.2659 25.0982C79.3851 25.2323 79.5282 25.3344 79.6832 25.4047C79.8382 25.4749 80.011 25.5133 80.178 25.5133H80.1839ZM81.7636 20.1552H84.6608V24.038H81.7636V20.1552Z" fill="#231815"/>
<path d="M128.417 25.8837C126.789 25.0663 125.293 23.9806 123.976 22.6714H128.429C128.494 22.6714 128.554 22.6395 128.602 22.5884C128.649 22.5373 128.673 22.467 128.673 22.3968V21.0301C128.673 20.9599 128.649 20.896 128.602 20.8449C128.554 20.7938 128.494 20.7683 128.429 20.7683H113.245C113.782 20.0275 114.277 19.2803 114.724 18.5395H125.555C125.621 18.5395 125.681 18.5076 125.722 18.4628C125.77 18.4118 125.794 18.3479 125.794 18.284V16.9174C125.794 16.8471 125.764 16.7833 125.722 16.7386C125.675 16.6875 125.615 16.6619 125.555 16.6619H115.809C116.232 15.87 116.602 15.1164 116.894 14.4331H127.558C127.624 14.4331 127.684 14.4076 127.731 14.3565C127.779 14.3054 127.803 14.2415 127.803 14.1713V12.8046C127.803 12.7344 127.773 12.6705 127.725 12.6258C127.678 12.5747 127.618 12.5492 127.558 12.5492H117.692C117.794 12.2745 117.871 12.0319 117.937 11.8531C118.002 11.6742 117.937 11.3996 117.734 11.3358C117.162 11.2017 115.976 10.9398 115.63 10.844C115.576 10.8121 115.517 10.7993 115.457 10.7993C115.397 10.7993 115.338 10.8057 115.278 10.8312C115.225 10.8568 115.171 10.8951 115.129 10.9398C115.087 10.9845 115.058 11.042 115.04 11.1059L114.849 11.7764L114.634 12.447H105.83C105.764 12.447 105.704 12.4789 105.663 12.5236C105.621 12.5747 105.591 12.6386 105.591 12.7024V14.0691C105.591 14.1393 105.615 14.2032 105.663 14.2543C105.71 14.3054 105.77 14.3309 105.836 14.3309H113.901C113.609 15.0398 113.275 15.7806 112.882 16.5597H107.779C107.713 16.5597 107.654 16.5853 107.606 16.6364C107.558 16.6875 107.534 16.7513 107.534 16.8216V18.1882C107.534 18.2585 107.558 18.3223 107.606 18.3734C107.654 18.4245 107.713 18.4501 107.779 18.4501H111.827C111.391 19.2037 110.909 19.9381 110.384 20.6789H104.87C104.834 20.6789 104.804 20.6789 104.774 20.6917C104.745 20.7044 104.715 20.7236 104.691 20.7491C104.667 20.7747 104.649 20.8002 104.637 20.8385C104.625 20.8705 104.619 20.9024 104.619 20.9407V22.3074C104.619 22.3457 104.619 22.3776 104.637 22.4096C104.649 22.4415 104.667 22.4734 104.691 22.499C104.715 22.5245 104.739 22.5437 104.768 22.5564C104.798 22.5692 104.834 22.5756 104.864 22.5756H108.846C107.695 23.8912 106.342 24.9768 104.84 25.7879C104.792 25.8007 104.751 25.8262 104.709 25.8645C104.673 25.8965 104.643 25.9412 104.625 25.9923C104.608 26.0434 104.602 26.0944 104.602 26.1455C104.602 26.1966 104.619 26.2477 104.649 26.2924L104.929 27.046C104.947 27.0907 104.971 27.129 105.007 27.161C105.037 27.1929 105.078 27.2184 105.12 27.2312C105.162 27.244 105.21 27.2504 105.251 27.2504C105.293 27.2504 105.341 27.2312 105.377 27.212C106.301 26.8544 107.195 26.3946 108.029 25.8454C109.681 26.3499 111.302 26.9885 112.864 27.7485C113.055 27.8443 113.132 27.7485 113.132 27.7485L113.836 26.1647C113.836 26.1647 113.859 26.1136 113.865 26.0881C113.865 26.0625 113.865 26.0306 113.865 26.005C113.859 25.9795 113.842 25.9539 113.83 25.9284C113.812 25.9092 113.788 25.8901 113.764 25.8773C112.447 25.3409 111.093 24.9194 109.716 24.6064C110.39 24.0061 111.028 23.3611 111.63 22.6778H121.15C121.74 23.3356 122.384 23.9359 123.064 24.4851C121.788 25.0535 120.453 25.4367 119.081 25.6219C118.944 25.6219 118.891 25.7304 118.926 25.8965C119.117 26.5223 119.183 27.0205 119.374 27.6463C119.451 27.8507 119.54 27.8507 119.666 27.8124C121.377 27.3142 123.022 26.5734 124.554 25.6091C125.585 26.2988 126.682 26.8736 127.821 27.3334C127.862 27.3589 127.904 27.3717 127.952 27.3717C127.999 27.3717 128.041 27.3717 128.083 27.3525C128.125 27.3334 128.16 27.3078 128.196 27.2759C128.226 27.244 128.256 27.1993 128.268 27.1546L128.548 26.401C128.572 26.3627 128.59 26.318 128.596 26.2669C128.602 26.2222 128.596 26.1711 128.59 26.1264C128.578 26.0817 128.554 26.037 128.53 25.9987C128.5 25.9603 128.464 25.9284 128.423 25.9092L128.417 25.8837ZM126.718 31.9123C124.464 30.7884 122.116 29.9134 119.701 29.3004C119.487 29.3004 119.457 29.3962 119.457 29.3962L119.01 30.4371C119.01 30.4371 118.909 30.6542 119.099 30.7245C121.21 31.6313 123.266 32.6851 125.251 33.8793C125.347 33.9432 125.466 33.9623 125.579 33.9432C125.692 33.9176 125.794 33.8538 125.865 33.758C126.247 33.1704 126.402 32.8831 126.783 32.2827C126.801 32.2572 126.819 32.2189 126.825 32.187C126.831 32.155 126.831 32.1167 126.825 32.0848C126.825 32.0528 126.807 32.0145 126.789 31.989C126.771 31.9634 126.748 31.9379 126.718 31.9187V31.9123ZM114.163 30.2328C114.086 29.6708 114.074 29.741 113.973 29.179C113.973 29.1535 113.961 29.1215 113.943 29.1024C113.925 29.0768 113.907 29.0577 113.883 29.0449C113.859 29.0321 113.836 29.0194 113.806 29.0194C113.776 29.0194 113.752 29.0194 113.728 29.0321C111.338 30.2328 108.834 31.146 106.265 31.7655C106.11 31.8357 106.062 31.9443 106.128 32.0912C106.342 32.5829 106.7 33.4578 106.855 33.8027C106.891 33.8793 106.956 33.9368 107.034 33.9623C107.111 33.9879 107.195 33.9879 107.266 33.9496C109.621 33.0236 111.892 31.8676 114.056 30.5074C114.098 30.4754 114.128 30.4371 114.151 30.386C114.169 30.3349 114.181 30.2838 114.175 30.2328H114.163ZM116.715 23.9997H115.35C115.308 23.9997 115.272 23.9997 115.236 24.0189C115.201 24.0317 115.165 24.0572 115.135 24.0892C115.105 24.1211 115.081 24.153 115.07 24.1913C115.052 24.2297 115.046 24.2744 115.046 24.3127V31.9251C115.046 32.634 114.92 33.0172 113.847 33.0172H113.222C113.222 33.0172 113.198 33.0172 113.186 33.0172C113.174 33.0172 113.162 33.0299 113.156 33.0363C113.144 33.0427 113.138 33.0555 113.138 33.0683C113.138 33.081 113.138 33.0938 113.138 33.1066V34.3264C113.138 34.3774 113.144 34.4285 113.162 34.4796C113.18 34.5307 113.21 34.5754 113.239 34.6073C113.275 34.6457 113.317 34.6712 113.359 34.6904C113.406 34.7095 113.454 34.7159 113.502 34.7159H114.64C117.192 34.7159 118.032 34.3455 118.032 31.9826V25.3536C118.032 25.1748 118.002 24.996 117.943 24.83C117.883 24.6639 117.794 24.5106 117.675 24.3829C117.561 24.2552 117.418 24.1466 117.269 24.0764C117.114 24.0061 116.947 23.9678 116.78 23.9614L116.715 23.987V23.9997Z" fill="#231815"/>
<path d="M142.259 24.3126L142.014 23.0545C142.014 23.0545 141.997 23.0417 141.991 23.0354C141.979 23.0354 141.967 23.029 141.961 23.029C141.949 23.029 141.937 23.029 141.931 23.0354C141.919 23.0354 141.913 23.0481 141.907 23.0545C141.21 23.4377 140.494 23.7762 139.761 24.0827V18.3542H141.764C141.806 18.3542 141.842 18.3542 141.877 18.3351C141.913 18.3223 141.949 18.2967 141.979 18.2648C142.008 18.2329 142.032 18.201 142.044 18.1626C142.062 18.1243 142.068 18.0796 142.068 18.0413V16.7577C142.068 16.7129 142.062 16.6746 142.044 16.6363C142.026 16.598 142.002 16.5597 141.979 16.5341C141.949 16.5022 141.913 16.483 141.877 16.4639C141.842 16.4511 141.8 16.4447 141.764 16.4447H139.761V11.687C139.761 11.6039 139.731 11.5209 139.678 11.4634C139.624 11.406 139.546 11.374 139.469 11.374H137.424C137.347 11.374 137.275 11.406 137.216 11.4634C137.162 11.5209 137.132 11.6039 137.132 11.687V16.4447H134.45C134.372 16.4447 134.295 16.4767 134.241 16.5341C134.187 16.5916 134.157 16.6746 134.157 16.7577V18.0413C134.157 18.1243 134.187 18.2073 134.241 18.2648C134.295 18.3223 134.372 18.3542 134.45 18.3542H137.132V24.9832C136.19 25.2961 135.219 25.5707 134.247 25.8581C134.217 25.8581 134.193 25.8773 134.169 25.8964C134.146 25.9156 134.134 25.9411 134.128 25.973C134.122 26.005 134.128 26.0369 134.128 26.0625C134.14 26.0944 134.157 26.1135 134.181 26.1327C134.396 26.6244 134.807 27.6207 134.962 27.9783C134.962 28.0997 135.087 28.1955 135.266 28.1124C135.85 27.8953 136.542 27.6335 137.144 27.3333V31.8293C137.144 32.5381 137.001 32.9213 135.868 32.9213H134.771C134.694 32.9213 134.682 32.9213 134.682 33.0043V34.371C134.682 34.4413 134.706 34.5051 134.754 34.5562C134.801 34.6073 134.861 34.6328 134.926 34.6328H136.739C139.469 34.6328 139.803 34.2497 139.803 31.8995V26.0241C140.685 25.5452 141.514 25.0662 142.229 24.6575C142.253 24.4787 142.295 24.4659 142.265 24.3126H142.259Z" fill="#231815"/>
<path d="M157.765 17.2557H155.44C155.099 17.2557 154.92 16.996 154.904 16.4766V11.4314C154.886 11.3101 154.838 11.1951 154.767 11.1057C154.677 11.0291 154.564 10.9844 154.445 10.9844H145.664C145.551 10.9844 145.443 11.0291 145.36 11.1057C145.3 11.2079 145.258 11.3165 145.235 11.4314V14.1647C145.187 14.963 144.972 15.7421 144.609 16.4383C144.239 17.1344 143.732 17.7347 143.118 18.1881L142.838 18.3669C142.838 18.3669 142.82 18.418 142.82 18.4435C142.82 18.4691 142.826 18.4946 142.838 18.5202L143.923 19.8868C143.923 19.8868 143.971 19.906 144.001 19.906C144.03 19.906 144.054 19.8996 144.078 19.8868C144.615 19.5739 147.905 17.1535 147.905 14.599V13.3026C147.905 13.1238 147.995 13.0408 148.162 13.0152H151.899C151.941 13.0152 151.983 13.0152 152.024 13.028C152.066 13.0408 152.102 13.0663 152.138 13.0982C152.168 13.1302 152.191 13.1685 152.209 13.2132C152.227 13.2579 152.233 13.3026 152.233 13.3473V17.013C152.144 17.6772 152.293 18.3541 152.656 18.897C153.062 19.3759 154.636 19.3632 155.208 19.3632H157.634C157.688 19.3632 157.741 19.3376 157.783 19.2993C157.825 19.261 157.849 19.2035 157.849 19.146V17.3579C157.849 17.3579 157.843 17.3132 157.825 17.3004C157.807 17.2876 157.789 17.2749 157.771 17.2749L157.765 17.2557Z" fill="#231815"/>
<path d="M156.245 20.5767H144.239C144.161 20.5767 144.09 20.6086 144.03 20.6661C143.977 20.7235 143.947 20.8066 143.947 20.8896V22.3393C143.947 22.4223 143.977 22.5053 144.03 22.5628C144.084 22.6203 144.161 22.6522 144.239 22.6522H154.445C151.893 27.4866 147.744 31.1268 142.82 32.8639L142.397 32.998C142.397 32.998 142.373 33.0427 142.373 33.0682C142.373 33.0938 142.379 33.1193 142.397 33.1385L143.1 34.5051H143.255L143.78 34.3391C146.79 33.5153 149.592 31.9825 151.983 29.8559C154.373 27.7229 156.287 25.0471 157.586 22.0263C157.586 22.0263 158.099 20.5767 156.245 20.5767Z" fill="#231815"/>
<path d="M158.236 33.0428L157.813 32.9087C153.223 31.2674 149.288 27.9912 146.671 23.6294H144.347C144.299 23.6294 144.251 23.6294 144.209 23.6549C144.168 23.6741 144.126 23.6996 144.096 23.7316C144.06 23.7635 144.037 23.8082 144.019 23.8529C144.001 23.8976 143.989 23.9487 143.989 23.9998C143.983 24.07 143.983 24.1339 143.989 24.2042C146.856 29.294 151.464 32.9853 156.835 34.4861L157.36 34.6521H157.515L158.218 33.2854C158.218 33.2854 158.278 33.2791 158.296 33.2535C158.32 33.2344 158.332 33.2024 158.332 33.1705C158.332 33.1386 158.326 33.1066 158.302 33.0875C158.284 33.0619 158.254 33.0492 158.23 33.0492L158.236 33.0428Z" fill="#231815"/>
<path d="M187.97 32.7425C187.1 31.5418 186.074 30.4753 184.936 29.5685H186.813C186.921 29.5557 187.022 29.5238 187.111 29.4663C187.207 29.4088 187.29 29.3386 187.356 29.2492C187.421 29.1598 187.469 29.0576 187.499 28.949C187.529 28.8405 187.535 28.7255 187.523 28.6105V16.036C187.505 15.7805 187.404 15.5378 187.237 15.3463C187.07 15.1547 186.855 15.0333 186.617 14.995H182.42C182.545 14.1903 182.688 13.5198 182.79 13.0664H187.254C187.32 13.0664 187.38 13.0344 187.421 12.9897C187.469 12.9386 187.493 12.8748 187.499 12.8109V11.8019C187.499 11.7316 187.475 11.6678 187.427 11.6167C187.38 11.5656 187.32 11.54 187.254 11.54H176.769C176.703 11.54 176.643 11.5656 176.596 11.6167C176.548 11.6678 176.524 11.7316 176.524 11.8019V12.8109C176.524 12.8812 176.554 12.945 176.602 12.9897C176.643 13.0408 176.703 13.0664 176.769 13.0664H180.596L180.173 14.995H177.824C177.591 14.995 177.371 15.0972 177.198 15.2696C177.031 15.442 176.93 15.6783 176.918 15.9274V28.6297C176.918 28.8596 176.989 29.0831 177.138 29.2556C177.281 29.428 177.484 29.5366 177.699 29.5557H179.308C178.718 30.9735 177.925 32.289 176.959 33.4513C176.924 33.496 176.9 33.5535 176.9 33.611C176.9 33.6685 176.918 33.726 176.959 33.7707C177.442 34.1411 177.973 34.4476 178.527 34.6711C178.706 34.6711 178.772 34.8372 178.909 34.6711C179.767 33.445 180.477 32.1102 181.013 30.6925C181.013 30.5839 181.126 30.4434 181.013 30.3093C180.62 30.0091 180.19 29.7729 179.737 29.6004H184.536L183.576 30.4051C183.576 30.4051 183.463 30.5584 183.576 30.6542C184.524 31.8739 185.377 33.1703 186.128 34.537C186.152 34.5689 186.181 34.5945 186.217 34.6136C186.253 34.6328 186.289 34.6392 186.325 34.6392C186.36 34.6392 186.402 34.6328 186.432 34.6136C186.468 34.5945 186.497 34.5689 186.521 34.537C186.891 34.1538 187.553 33.4322 187.94 33.049C187.976 33.0107 187.994 32.9596 188 32.9021C188 32.8446 187.994 32.7936 187.964 32.7489L187.97 32.7425ZM179.165 16.4319H185.305V19.2866H179.165V16.4319ZM179.165 20.8321H185.305V23.6612H179.165V20.8321ZM179.165 28.0613V25.245H185.305V28.0613H179.165ZM176.041 32.7105H173.377V30.7563H175.928C175.958 30.7563 175.994 30.7563 176.023 30.7436C176.053 30.7308 176.083 30.7116 176.107 30.6861C176.131 30.6605 176.149 30.635 176.161 30.5967C176.173 30.5647 176.178 30.5264 176.178 30.4945V29.3067C176.178 29.2364 176.155 29.1725 176.107 29.1215C176.059 29.0704 176 29.0448 175.934 29.0448H173.383V27.1864H175.934C175.964 27.1864 176 27.1864 176.029 27.1736C176.059 27.1609 176.089 27.1417 176.113 27.1162C176.137 27.0906 176.155 27.0651 176.167 27.0268C176.178 26.9948 176.184 26.9565 176.184 26.9246V25.7367C176.184 25.6665 176.161 25.6026 176.113 25.5515C176.065 25.5004 176.006 25.4749 175.94 25.4749H173.389V23.6165H175.94C175.97 23.6165 176.006 23.6165 176.035 23.6037C176.065 23.5909 176.095 23.5718 176.119 23.5462C176.143 23.5207 176.161 23.4951 176.173 23.4568C176.184 23.4249 176.19 23.393 176.19 23.3546V22.1668C176.19 22.0965 176.167 22.0327 176.119 21.9816C176.071 21.9305 176.012 21.905 175.946 21.905H173.633C173.788 21.5601 174.205 20.5383 174.217 20.5383C174.229 20.5383 174.319 20.2765 174.217 20.2765H172.942C172.888 20.2765 172.834 20.2956 172.787 20.3212C172.739 20.3467 172.697 20.385 172.661 20.4297C172.596 20.4936 172.536 20.5702 172.483 20.6469C172.292 21.062 172.089 21.4707 171.857 21.8603H169.931C170.11 21.4643 170.426 20.6852 170.593 20.2318C170.593 20.0976 170.682 19.9699 170.593 19.9699H169.138C169.061 19.9699 168.989 20.0018 168.93 20.0466C168.87 20.0913 168.822 20.1551 168.792 20.2318C168.375 21.3685 167.785 22.435 167.058 23.3738C167.058 22.4861 167.058 21.5665 167.135 20.6405V19.2738H175.606C175.678 19.2802 175.749 19.2738 175.815 19.2483C175.88 19.2227 175.94 19.1844 175.994 19.1269C176.041 19.0758 176.083 19.0056 176.107 18.9353C176.131 18.8651 176.137 18.7885 176.131 18.7118V14.7459C176.143 14.6693 176.131 14.5927 176.107 14.5224C176.083 14.4522 176.047 14.3883 175.994 14.3308C175.94 14.2797 175.88 14.2414 175.815 14.2159C175.749 14.1903 175.678 14.184 175.606 14.1967H167.135V13.6347C167.135 13.4176 167.225 13.309 167.439 13.2771C169.728 13.2324 172.018 13.0472 174.289 12.7151V10.6523C171.451 11.0738 168.59 11.3037 165.728 11.3484C165.383 11.3484 165.216 11.5784 165.228 12.0573V20.6277C165.228 22.6266 165.126 24.4531 164.959 26.0944C164.792 27.7356 163.684 33.1193 163.618 33.1193C163.553 33.1193 163.618 33.3939 163.719 33.4322L164.995 33.7451C165.061 33.7643 165.126 33.7579 165.186 33.726C165.246 33.694 165.293 33.6429 165.317 33.5791C166.086 31.0693 166.617 28.4828 166.915 25.8581C167.302 25.5324 167.666 25.1811 168 24.7916V33.7323C167.988 33.8217 168 33.9112 168.023 33.9942C168.047 34.0772 168.095 34.1538 168.149 34.2177C168.208 34.2816 168.274 34.3263 168.351 34.3582C168.429 34.3901 168.512 34.3965 168.596 34.3901H176.047C176.113 34.3901 176.173 34.3646 176.22 34.3135C176.268 34.2624 176.292 34.1985 176.292 34.1283V32.9277C176.286 32.8638 176.256 32.7999 176.214 32.7552C176.173 32.7105 176.113 32.685 176.047 32.6786L176.041 32.7105ZM167.111 15.9785H174.05C174.164 15.9785 174.229 15.9785 174.229 16.1318V17.4984C174.229 17.6198 174.229 17.6772 174.05 17.6772H167.111V15.9849V15.9785ZM171.654 32.7105H169.919C169.752 32.7105 169.675 32.6275 169.675 32.4359V30.7563H171.642L171.654 32.7105ZM171.654 29.0448H169.687V27.1864H171.654V29.0448ZM171.654 25.4749H169.687V23.8783C169.687 23.84 169.687 23.8081 169.699 23.7761C169.711 23.7442 169.728 23.7123 169.752 23.6867C169.776 23.6612 169.806 23.642 169.836 23.6293C169.866 23.6165 169.901 23.6165 169.931 23.6165H171.654V25.4749Z" fill="#231815"/>
<path d="M17.7646 13.8263C28.483 8.68533 39.3563 7.19733 47.7021 9.04296C46.6767 8.55122 45.8183 7.72739 45.252 6.69282C44.4651 5.19843 43.2788 3.99142 41.8481 3.22507C40.4114 2.4651 38.8019 2.17772 37.2162 2.41401C35.9167 2.57367 34.6052 2.26074 33.4904 1.52632C32.167 0.530061 30.5873 0 28.9718 0C27.3563 0 25.7766 0.536447 24.4532 1.52632C23.3325 2.27351 22.0091 2.58644 20.7035 2.41401C19.1179 2.19688 17.5083 2.49065 16.0836 3.26339C14.6588 4.03613 13.4785 5.24952 12.7035 6.75029C12.024 7.97007 10.9629 8.88969 9.70504 9.33673C8.25049 9.85402 6.96882 10.812 6.01502 12.0956C5.06122 13.3792 4.48298 14.9375 4.34587 16.566C4.17895 17.9646 3.57091 19.261 2.62307 20.2445C1.78849 21.1066 1.12679 22.1412 0.679697 23.2844C0.220681 24.4211 -0.00584661 25.6537 0.000114639 26.8926V27.0139C5.08506 21.4515 11.1119 16.9747 17.7646 13.8199V13.8263Z" fill="url(#paint0_linear_943_1996)"/>
<path d="M27.2189 20.6596C35.3679 16.5213 44.3575 14.6373 53.3649 15.1929C53.043 13.8262 52.4052 12.5745 51.5169 11.54C50.6228 10.5054 49.508 9.72625 48.2621 9.27283L47.7137 9.04292C39.3679 7.19729 28.4946 8.68529 17.7763 13.8262C11.1354 16.9427 5.10859 21.3812 0.0117188 26.9053C0.0355638 29.1278 0.810527 31.2735 2.18161 32.9404C3.55866 34.6072 5.44242 35.6929 7.49905 35.9994C12.9238 29.3832 19.66 24.1401 27.2129 20.6596H27.2189Z" fill="url(#paint1_linear_943_1996)"/>
<path d="M55.2915 20.1807C54.3496 19.2163 53.7475 17.9391 53.5687 16.5596C53.5329 16.1381 53.4673 15.7167 53.366 15.3015C44.3704 14.714 35.3809 16.5596 27.2199 20.6596C19.6551 24.1529 12.9189 29.4088 7.49414 36.0506C7.88758 36.108 8.28699 36.1336 8.68043 36.1336H21.1335C21.6998 36.1336 22.2423 36.3826 22.6476 36.8105C23.053 37.2384 23.2736 37.8195 23.2795 38.4326V38.9627C23.2795 39.5566 23.0828 40.125 22.7251 40.572C22.3615 41.0191 21.8608 41.3128 21.3183 41.3959L11.1842 43.2798C11.0113 43.2926 10.8503 43.3756 10.7311 43.5033C10.6119 43.6311 10.5344 43.8035 10.5225 43.9887V45.3554H47.4226V43.9887C47.4107 43.8035 47.3332 43.6311 47.214 43.5033C47.0947 43.3756 46.9338 43.2926 46.7609 43.2798L36.6268 41.4214C36.0783 41.3384 35.5836 41.0446 35.2199 40.5976C34.8563 40.1505 34.6596 39.5822 34.6596 38.9882V38.4262C34.6596 37.8132 34.8861 37.2256 35.2855 36.7914C35.6849 36.3571 36.2333 36.108 36.8056 36.1016H49.2706C50.4092 36.1016 51.5418 35.8653 52.591 35.3992C53.6462 34.933 54.6 34.2496 55.4047 33.3875C56.2095 32.5253 56.8474 31.4971 57.2825 30.3668C57.7177 29.2364 57.9383 28.0294 57.9383 26.8096C57.9383 25.5707 57.6998 24.3445 57.2468 23.2014C56.7877 22.0646 56.126 21.03 55.2855 20.1807H55.2915Z" fill="#0E8A41"/>
<defs>
<linearGradient id="paint0_linear_943_1996" x1="36.2624" y1="-1.88395" x2="6.41997" y2="32.5187" gradientUnits="userSpaceOnUse">
<stop stop-color="#6DB131"/>
<stop offset="0.36" stop-color="#45A136"/>
<stop offset="0.79" stop-color="#1D913E"/>
<stop offset="1" stop-color="#0E8A41"/>
</linearGradient>
<linearGradient id="paint1_linear_943_1996" x1="44.8701" y1="-2.9952" x2="9.28292" y2="38.0064" gradientUnits="userSpaceOnUse">
<stop stop-color="#48A839"/>
<stop offset="0.22" stop-color="#349D3B"/>
<stop offset="0.52" stop-color="#1F923E"/>
<stop offset="0.78" stop-color="#148C41"/>
<stop offset="1" stop-color="#0E8A41"/>
</linearGradient>
</defs>
</svg>
