<svg width="210" height="344" viewBox="0 0 210 344" fill="none" xmlns="http://www.w3.org/2000/svg">
<g filter="url(#filter0_d_1114_1011)">
<rect x="31" y="67" width="147" height="245" fill="white"/>
</g>
<g filter="url(#filter1_d_1114_1011)">
<path d="M179.533 64.4116V16H30.467V64.4116H20L105 107.927L190 64.4116H179.533Z" fill="url(#paint0_linear_1114_1011)"/>
</g>
<path d="M31 312L31 81.9688L34.7637 83.7899V308.226H174.252V83.856L178.016 82.0348V312H31Z" fill="url(#paint1_linear_1114_1011)"/>
<path d="M59.328 139.512H68.704V140.424H59.328V139.512ZM66 138.2L66.56 137.624C67.184 137.896 67.92 138.344 68.304 138.712L67.728 139.352C67.344 138.968 66.608 138.504 66 138.2ZM67.056 141.16L68.032 141.352C67.232 144.376 65.632 146.616 63.424 148.04C63.28 147.848 62.928 147.448 62.72 147.272C64.896 146.008 66.368 143.928 67.056 141.16ZM59.168 146.056C60.4 145.848 62.192 145.544 64 145.208L64.032 146.056C62.368 146.376 60.656 146.728 59.328 146.968L59.168 146.056ZM60.752 142.184V143.8H62.576V142.184H60.752ZM59.888 141.432H63.456V144.536H59.888V141.432ZM64.064 137.8H65.088C65.296 142.328 66 146.552 67.552 146.792C67.776 146.84 67.936 146.168 68.048 145.128C68.24 145.32 68.608 145.576 68.832 145.672C68.624 147.432 68.064 148.072 67.216 147.768C65.008 147.288 64.352 142.744 64.064 137.8ZM57.312 136.312H70.688V150.344H69.488V137.4H58.448V150.344H57.312V136.312ZM58.016 148.504H70.16V149.592H58.016V148.504ZM73.328 137H86.752V140.296H85.536V138.104H74.512V140.296H73.328V137ZM75.344 139.64H84.624V140.696H75.344V139.64ZM78.288 141.8L79.184 141.288C82.272 143.96 82.16 148.616 80.704 149.688C80.208 150.136 79.776 150.248 79.056 150.248C78.704 150.264 78.192 150.248 77.696 150.232C77.68 149.896 77.568 149.416 77.36 149.096C77.952 149.144 78.496 149.176 78.832 149.176C79.248 149.176 79.552 149.128 79.84 148.84C80.848 148.088 81.008 144.232 78.288 141.8ZM79.936 139.944L80.928 140.376C79.28 141.992 76.432 143.224 73.936 143.976C73.808 143.736 73.488 143.24 73.28 143.016C75.728 142.408 78.48 141.336 79.936 139.944ZM79.456 142.936L80.24 143.512C78.72 144.68 75.936 145.976 73.856 146.648C73.712 146.36 73.456 145.96 73.232 145.704C75.296 145.192 78.08 143.992 79.456 142.936ZM80.352 144.856L81.2 145.48C79.456 147.08 76.224 148.728 73.6 149.512C73.456 149.208 73.2 148.776 72.976 148.504C75.568 147.88 78.784 146.344 80.352 144.856ZM83.12 143.816C83.84 145.976 85.392 147.832 87.44 148.632C87.184 148.856 86.816 149.304 86.656 149.608C84.464 148.632 82.88 146.584 82.064 144.072L83.12 143.816ZM84.64 141.304L85.616 142.088C84.272 143.176 82.448 144.424 81.056 145.192L80.272 144.504C81.664 143.704 83.536 142.344 84.64 141.304ZM78.768 135.816L80 135.464C80.352 136.024 80.768 136.792 80.912 137.304L79.616 137.72C79.472 137.208 79.12 136.408 78.768 135.816ZM89.008 137.64H103.024V138.776H89.008V137.64ZM92.784 143.352H100.4V144.392H92.784V143.352ZM99.968 140.632H101.136V148.792C101.136 149.496 100.992 149.864 100.448 150.056C99.936 150.248 99.04 150.248 97.664 150.248C97.616 149.912 97.44 149.416 97.264 149.08C98.336 149.128 99.312 149.112 99.6 149.112C99.872 149.096 99.968 149.016 99.968 148.776V140.632ZM94.24 135.56L95.456 135.848C94.384 139.32 92.464 142.84 89.456 144.968C89.296 144.696 88.912 144.264 88.688 144.04C91.504 142.088 93.376 138.728 94.24 135.56ZM92.688 146.056H100.4V147.096H92.688V146.056ZM92.704 140.632H100.304V141.72H92.704V140.632ZM92.064 140.632H93.264V144.872C93.264 146.648 92.992 148.904 91.424 150.376C91.264 150.104 90.816 149.608 90.576 149.432C91.92 148.152 92.064 146.376 92.064 144.856V140.632ZM112 144.28H118.112V145.416H112V144.28ZM108.416 144.968C109.568 148.28 112.144 148.92 115.488 148.92C116 148.92 118.72 148.92 119.408 148.904C119.232 149.192 119.04 149.736 118.976 150.072H115.424C111.536 150.072 108.864 149.256 107.424 145.368L108.416 144.968ZM111.456 141.464H112.688V149.416L111.456 149.016V141.464ZM107.872 137.496V140.648H116.4V137.496H107.872ZM106.688 136.36H117.648V141.8H106.688V136.36ZM107.616 143L108.88 143.144C108.496 145.768 107.6 148.712 105.552 150.296C105.344 150.056 104.944 149.656 104.688 149.48C106.592 148.024 107.376 145.304 107.616 143ZM129.584 135.608L130.704 135.864C130.064 138.152 128.976 140.36 127.76 141.784C127.568 141.592 127.104 141.208 126.832 141.048C128.048 139.736 129.008 137.688 129.584 135.608ZM133.792 137.944H134.944C134.944 137.944 134.944 138.408 134.928 138.584C134.8 146.264 134.688 148.744 134.16 149.48C133.856 149.944 133.52 150.088 133.04 150.136C132.56 150.2 131.824 150.184 131.088 150.152C131.072 149.8 130.928 149.288 130.736 148.968C131.52 149.032 132.224 149.032 132.544 149.032C132.816 149.048 132.944 148.984 133.104 148.776C133.504 148.232 133.664 145.624 133.792 138.232V137.944ZM129.344 140.792H132.512V146.456H129.344V145.464H131.504V141.8H129.344V140.792ZM128.72 140.792H129.712V147.688H128.72V140.792ZM129.168 137.944H134.224V139.016H129.168V137.944ZM123.824 135.544L124.912 135.736C124.192 137.224 123.04 138.792 121.344 140.024C121.184 139.8 120.832 139.48 120.576 139.336C122.176 138.248 123.28 136.776 123.824 135.544ZM124.624 141.496L125.728 141.688C124.88 143.32 123.504 145 121.36 146.264C121.216 146.024 120.88 145.672 120.64 145.512C122.624 144.424 123.968 142.84 124.624 141.496ZM123.504 137.112H126.656V138.104H122.592L123.504 137.112ZM126.224 137.112H126.432L126.656 137.064L127.36 137.4C126.352 140.424 124 142.392 121.52 143.432C121.376 143.176 121.088 142.792 120.864 142.584C123.152 141.736 125.392 139.832 126.224 137.32V137.112ZM124.144 142.888H127.152V143.928H123.184L124.144 142.888ZM126.8 142.888H127.008L127.232 142.84L127.952 143.144C126.928 146.984 124.304 149.176 121.296 150.216C121.168 149.96 120.88 149.544 120.656 149.32C123.44 148.456 125.936 146.36 126.8 143.08V142.888ZM121.696 139.08L122.544 138.536C123.392 139.048 124.432 139.864 124.944 140.424L124.032 141.032C123.552 140.472 122.544 139.64 121.696 139.08ZM122.112 145.144L123.008 144.6C123.904 145.24 124.976 146.168 125.472 146.84L124.544 147.464C124.048 146.792 123.008 145.816 122.112 145.144ZM136.848 148.424H151.152V149.592H136.848V148.424ZM140.064 140.44H147.968V141.56H140.064V140.44ZM140.064 144.424H147.968V145.576H140.064V144.424ZM139.376 136.488H148.8V149H147.568V137.656H140.576V149H139.376V136.488ZM44.432 157.512L45.632 157.816C44.752 160.184 43.328 162.408 41.84 163.848C41.6 163.64 41.104 163.24 40.8 163.08C42.32 161.752 43.648 159.672 44.432 157.512ZM44.176 159.496H54.496V160.664H43.6L44.176 159.496ZM43.392 163.128H54.144V164.248H44.592V168.04H43.392V163.128ZM40.752 167.432H55.248V168.6H40.752V167.432ZM48.192 160.104H49.424V172.296H48.192V160.104ZM63.216 158.36H71.184V159.384H63.216V158.36ZM63.52 166.68H70.88V167.704H63.52V166.68ZM62.624 170.84H71.376V171.88H62.624V170.84ZM66.464 167.176H67.664V171.608H66.464V167.176ZM64.496 159.928L65.52 160.184C65.12 161.016 64.544 162.056 64.048 162.888C64.704 163.864 65.376 165 65.68 165.752L64.704 166.152C64.384 165.304 63.712 164.04 62.944 162.904C63.536 161.928 64.176 160.696 64.496 159.928ZM67.12 159.928L68.128 160.184C67.728 161.016 67.12 162.056 66.624 162.888C67.312 163.832 68.016 164.968 68.368 165.704L67.376 166.136C67.056 165.288 66.32 164.024 65.504 162.904C66.128 161.912 66.784 160.696 67.12 159.928ZM69.84 159.928L70.88 160.184C70.448 161.048 69.808 162.056 69.296 162.888C70.016 163.832 70.768 164.984 71.12 165.736L70.16 166.152C69.792 165.304 68.992 164.04 68.128 162.904C68.784 161.928 69.488 160.696 69.84 159.928ZM56.816 159.304H62.816V160.376H56.816V159.304ZM56.608 168.424H62.944V169.496H56.608V168.424ZM59.312 157.576H60.32V161.944H59.312V157.576ZM59.408 162.008H60.256V166.664H60.336V172.312H59.312V166.664H59.408V162.008ZM58.016 164.76V166.232H61.664V164.76H58.016ZM58.016 162.456V163.896H61.664V162.456H58.016ZM57.12 161.56H62.608V167.128H57.12V161.56ZM74.096 160.136H78.96V170.6H74.096V169.512H77.84V161.208H74.096V160.136ZM73.376 160.136H74.496V171.88H73.376V160.136ZM74.016 164.584H78.432V165.656H74.016V164.584ZM75.824 157.528L77.12 157.768C76.8 158.76 76.4 159.864 76.08 160.584L75.12 160.344C75.392 159.576 75.696 158.36 75.824 157.528ZM81.232 160.088H86.144V161.208H81.232V160.088ZM85.728 160.088H86.848C86.848 160.088 86.848 160.536 86.848 160.712C86.592 168.056 86.368 170.536 85.728 171.32C85.376 171.784 85.008 171.928 84.448 171.976C83.904 172.04 82.96 172.008 82.064 171.96C82.032 171.608 81.888 171.112 81.664 170.792C82.704 170.872 83.664 170.888 84.032 170.888C84.352 170.888 84.544 170.84 84.72 170.632C85.248 170.056 85.504 167.4 85.728 160.344V160.088ZM81.568 157.496L82.72 157.768C82.128 160.152 81.184 162.504 80.08 164.024C79.872 163.832 79.376 163.496 79.088 163.336C80.176 161.928 81.056 159.72 81.568 157.496ZM80.832 164.248L81.76 163.704C82.672 164.84 83.776 166.392 84.288 167.336L83.264 167.976C82.784 167 81.712 165.416 80.832 164.248ZM89.36 163.352H102.72V166.184H101.52V164.424H90.512V166.184H89.36V163.352ZM94.832 158.392L95.84 158.776C95.344 159.432 94.816 160.104 94.384 160.568L93.648 160.216C94.048 159.72 94.56 158.92 94.832 158.392ZM91.984 161.032L92.768 160.376C93.584 160.904 94.72 161.688 95.312 162.184L94.512 162.92C93.952 162.424 92.832 161.608 91.984 161.032ZM90.24 166.392H100.608V167.496H90.24V166.392ZM92.208 157.56H93.28C93.136 160.824 92.528 162.44 89.376 163.32C89.264 163.064 88.976 162.648 88.768 162.44C91.616 161.72 92.08 160.408 92.208 157.56ZM100.272 166.392H101.488C101.488 166.392 101.472 166.744 101.456 166.936C101.232 170.04 100.992 171.304 100.512 171.784C100.208 172.104 99.872 172.216 99.328 172.248C98.832 172.28 97.872 172.28 96.864 172.216C96.832 171.864 96.688 171.384 96.464 171.08C97.488 171.16 98.48 171.176 98.848 171.176C99.168 171.176 99.36 171.144 99.52 171.016C99.856 170.712 100.08 169.512 100.272 166.568V166.392ZM94.912 164.664H96.176C95.904 169 95.056 171.256 89.52 172.28C89.424 171.976 89.12 171.464 88.88 171.208C94.032 170.344 94.672 168.504 94.912 164.664ZM101.824 158.392L102.864 158.792C102.336 159.464 101.712 160.2 101.248 160.696L100.48 160.328C100.928 159.8 101.52 158.952 101.824 158.392ZM98.672 160.968L99.408 160.264C100.544 160.952 102.096 161.976 102.912 162.6L102.128 163.4C101.36 162.76 99.808 161.704 98.672 160.968ZM98.896 157.56H100C99.856 160.664 99.248 162.296 96.272 163.208C96.16 162.936 95.856 162.504 95.632 162.312C98.32 161.576 98.784 160.264 98.896 157.56ZM89.184 158.824L89.904 158.264C90.352 158.728 90.944 159.352 91.232 159.752L90.512 160.408C90.208 159.992 89.632 159.32 89.184 158.824ZM96.096 158.84L96.768 158.28C97.2 158.664 97.76 159.24 98.032 159.576L97.328 160.248C97.04 159.864 96.512 159.272 96.096 158.84ZM105.104 168.024H112.4V168.936H105.104V168.024ZM104.672 160.312H112.656V161.24H104.672V160.312ZM108.144 158.856H109.248V170.632H108.144V158.856ZM104.656 170.664C106.608 170.488 109.6 170.2 112.464 169.896L112.48 170.84C109.76 171.16 106.864 171.496 104.832 171.704L104.656 170.664ZM106.144 165.032V166.216H111.328V165.032H106.144ZM106.144 163.08V164.232H111.328V163.08H106.144ZM105.136 162.248H112.352V167.048H105.136V162.248ZM111.776 157.72L112.384 158.648C110.496 159.064 107.52 159.336 105.12 159.416C105.072 159.16 104.96 158.76 104.832 158.52C107.216 158.392 110.128 158.104 111.776 157.72ZM112.544 161.304H118.32V162.424H112.544V161.304ZM117.856 161.304H119.008C119.008 161.304 118.992 161.752 118.992 161.912C118.816 168.664 118.656 170.904 118.128 171.592C117.84 172.008 117.52 172.152 117.04 172.2C116.592 172.248 115.824 172.248 115.088 172.2C115.056 171.864 114.928 171.368 114.736 171.048C115.52 171.112 116.224 171.128 116.544 171.128C116.8 171.128 116.96 171.08 117.104 170.872C117.504 170.376 117.68 168.072 117.856 161.592V161.304ZM114.48 157.768H115.632C115.616 164.136 115.6 169.512 111.776 172.376C111.584 172.088 111.168 171.704 110.88 171.512C114.544 168.888 114.464 163.816 114.48 157.768ZM121.312 161.064H133.728V162.28H121.312V161.064ZM133.264 161.064H134.512C134.512 161.064 134.496 161.512 134.48 161.704C134.112 168.328 133.776 170.712 133.072 171.512C132.688 171.976 132.304 172.104 131.696 172.152C131.136 172.216 130.112 172.184 129.12 172.12C129.104 171.768 128.944 171.24 128.72 170.888C129.808 170.984 130.832 171 131.232 171C131.584 171 131.776 170.952 131.984 170.76C132.592 170.168 132.944 167.672 133.264 161.32V161.064ZM126.544 157.592H127.808V160.376C127.808 164.024 127.36 168.968 121.76 172.344C121.584 172.056 121.136 171.608 120.848 171.4C126.16 168.232 126.544 163.688 126.544 160.376V157.592ZM146.368 159.336H147.488V168.184H146.368V159.336ZM149.392 157.64H150.544V170.696C150.544 171.448 150.352 171.816 149.888 172.024C149.424 172.216 148.624 172.248 147.312 172.248C147.248 171.928 147.072 171.4 146.912 171.048C147.888 171.08 148.752 171.08 149.008 171.064C149.28 171.048 149.392 170.968 149.392 170.696V157.64ZM138.656 164.44H144.016V165.24H138.656V164.44ZM139.392 170.568H144.336V171.512H139.392V170.568ZM137.968 162.52H139.088V164.68C139.088 166.68 138.848 169.592 137.552 171.624C137.328 171.432 136.832 171.208 136.528 171.096C137.808 169.144 137.968 166.504 137.968 164.68V162.52ZM138.64 162.52H144.528V167.24H138.576V166.344H143.424V163.416H138.64V162.52ZM138.928 167.976H144.912V172.152H143.84V168.872H139.968V172.184H138.928V167.976ZM141.088 157.688L142.192 158.088C141.056 159.976 139.12 161.592 137.232 162.616C137.104 162.36 136.768 161.768 136.56 161.512C138.336 160.664 140.112 159.288 141.088 157.688ZM140.72 159L141.344 158.152C142.672 158.936 144.56 160.088 145.472 160.824L144.832 161.816C143.92 161.048 142.08 159.832 140.72 159ZM139.712 160.92H143.088V161.72H139.712V160.92ZM158.944 159.576H166.4V160.632H158.944V159.576ZM157.088 162.68H167.024V163.72H157.088V162.68ZM159.296 157.784L160.384 158.024C159.84 159.656 158.944 161.24 158.032 162.296C157.792 162.12 157.312 161.848 157.024 161.72C158 160.744 158.816 159.272 159.296 157.784ZM161.568 157.576H162.752V163.352H161.568V157.576ZM153.328 158.12L154.224 157.592C154.96 158.36 155.84 159.384 156.288 160.04L155.36 160.696C154.928 160.024 154.032 158.904 153.328 158.12ZM152.752 161.256H156.16V162.264H152.752V161.256ZM155.6 168.6C156.592 170.696 158.672 170.984 161.856 170.984C163.536 170.984 165.888 170.904 167.52 170.776C167.344 171.032 167.184 171.592 167.12 171.928C165.616 172.008 163.6 172.056 161.84 172.056C158.096 172.056 156 171.608 154.8 168.968L155.6 168.6ZM155.76 165.256H156.048L156.24 165.224L156.848 165.448C156.304 168.856 154.992 171.112 153.232 172.328C153.072 172.072 152.672 171.672 152.432 171.496C154.112 170.408 155.312 168.392 155.76 165.464V165.256ZM152.976 166.456V165.544L153.552 165.256H156.128V166.232H153.92C153.504 166.232 153.088 166.328 152.976 166.456ZM152.976 166.456C152.896 166.184 152.656 165.624 152.528 165.384C152.768 165.32 153.024 165.208 153.28 164.888C153.776 164.408 155.28 162.232 155.808 161.384L155.792 161.336L156.16 161.192L156.944 161.528C156.208 162.616 154.768 164.68 153.872 165.704C153.872 165.704 152.976 166.152 152.976 166.456ZM159.52 165.992V168.568H164.752V165.992H159.52ZM158.352 164.984H165.952V169.576H158.352V164.984ZM70.096 192.728C72.112 192.616 75.312 192.424 78.352 192.2L78.32 193.288C75.456 193.512 72.384 193.752 70.256 193.896L70.096 192.728ZM76.4 190.856L77.408 190.408C78.24 191.496 79.12 192.936 79.456 193.896L78.4 194.376C78.08 193.432 77.216 191.944 76.4 190.856ZM71.824 186.856V189.096H77.408V186.856H71.824ZM70.768 185.864H78.496V190.104H70.768V185.864ZM74 184.296H75.152V192.888L74 192.936V184.296ZM65.44 187.624H69.216V188.712H65.44V187.624ZM68.816 187.624H70C70 187.624 69.984 187.976 69.968 188.152C69.744 191.784 69.504 193.176 69.072 193.672C68.784 193.992 68.48 194.104 68.016 194.136C67.632 194.168 66.896 194.168 66.16 194.12C66.144 193.784 66.016 193.32 65.824 193.016C66.544 193.08 67.248 193.08 67.52 193.08C67.792 193.08 67.936 193.064 68.064 192.92C68.4 192.584 68.624 191.272 68.816 187.816V187.624ZM65.344 184.12H66.432C66.288 185.64 66.064 187.544 65.872 188.712H64.752C64.976 187.512 65.216 185.592 65.344 184.12ZM65.616 184.12H68.72V181.544H64.928V180.44H69.84V185.224H65.616V184.12ZM75.648 181.512L76.496 181C77.488 182.008 78.624 183.416 79.136 184.328L78.24 184.936C77.728 184.008 76.608 182.568 75.648 181.512ZM70.848 184.552C70.784 184.328 70.592 183.768 70.432 183.496C70.704 183.448 70.976 183.192 71.296 182.808C71.616 182.44 72.688 181.032 73.344 179.656L74.592 179.96C73.696 181.464 72.56 182.968 71.552 183.944V183.976C71.552 183.976 70.848 184.312 70.848 184.552ZM70.848 184.552L70.816 183.72L71.488 183.352L77.68 182.856C77.696 183.144 77.792 183.56 77.856 183.8C71.936 184.312 71.248 184.392 70.848 184.552ZM80.736 180.552H88.496V181.624H80.736V180.552ZM80.896 187.784H88.176V188.872H80.896V187.784ZM83.92 188.168H85.072V192.392H83.92V188.168ZM80.608 192.424C82.496 192.168 85.44 191.688 88.256 191.224L88.304 192.328C85.632 192.792 82.8 193.288 80.816 193.624L80.608 192.424ZM81.92 181.848L82.912 182.056C82.608 182.872 82.208 183.816 81.84 184.584C82.384 185.464 82.88 186.52 83.12 187.208L82.176 187.544C81.952 186.76 81.44 185.624 80.832 184.6C81.264 183.672 81.712 182.568 81.92 181.848ZM84.384 181.848L85.36 182.072C85.04 182.872 84.592 183.8 84.192 184.568C84.752 185.448 85.312 186.488 85.552 187.16L84.624 187.528C84.368 186.744 83.808 185.608 83.168 184.584C83.632 183.672 84.128 182.568 84.384 181.848ZM86.928 181.848L87.92 182.088C87.552 182.888 87.056 183.8 86.624 184.568C87.232 185.432 87.84 186.488 88.144 187.16L87.2 187.528C86.896 186.744 86.272 185.608 85.552 184.584C86.08 183.672 86.64 182.568 86.928 181.848ZM88.272 183.304H94.304V184.424H88.272V183.304ZM93.856 183.304H95.008C95.008 183.304 94.992 183.752 94.992 183.912C94.816 190.664 94.656 192.904 94.128 193.592C93.84 194.008 93.52 194.152 93.04 194.2C92.592 194.248 91.824 194.248 91.088 194.2C91.056 193.864 90.928 193.368 90.736 193.048C91.52 193.112 92.224 193.128 92.544 193.128C92.8 193.128 92.96 193.08 93.104 192.872C93.504 192.376 93.68 190.072 93.856 183.592V183.304ZM90.368 179.768H91.52C91.504 186.136 91.488 191.512 87.664 194.376C87.472 194.088 87.072 193.704 86.784 193.512C90.432 190.888 90.352 185.816 90.368 179.768ZM97.744 183.144H109.712V184.328H98.96V194.296H97.744V183.144ZM109.12 183.144H110.336V192.728C110.336 193.48 110.176 193.864 109.632 194.072C109.088 194.264 108.144 194.28 106.8 194.28C106.752 193.928 106.56 193.384 106.384 193.048C107.424 193.08 108.448 193.08 108.752 193.064C109.04 193.048 109.12 192.968 109.12 192.712V183.144ZM100.544 180.28H103.968V181.352H100.544V180.28ZM103.152 180.28H104.48C104.672 184.888 105.808 188.12 108.944 189.464C108.688 189.72 108.288 190.184 108.096 190.504C104.88 188.904 103.648 185.528 103.408 180.872H103.152V180.28ZM103.28 183.464L104.416 183.656C103.872 186.952 102.496 189.256 99.92 190.584C99.744 190.312 99.36 189.848 99.104 189.656C101.52 188.472 102.864 186.472 103.28 183.464ZM115.552 182.024H119.488V183.16H115.552V182.024ZM121.76 179.576H123.024V194.264H121.76V179.576ZM114.096 185.496L114.896 184.76C116.08 185.736 117.584 187.128 118.288 188.04L117.424 188.888C116.752 187.96 115.296 186.504 114.096 185.496ZM115.696 179.56L116.88 179.784C116.224 182.808 115.104 185.608 113.632 187.432C113.424 187.224 112.896 186.856 112.624 186.68C114.096 185.016 115.12 182.36 115.696 179.56ZM119.088 182.024H119.328L119.552 181.976L120.4 182.216C119.552 188.552 117.072 192.344 113.664 194.232C113.456 193.928 112.976 193.448 112.656 193.24C116.032 191.512 118.368 188.072 119.088 182.312V182.024ZM122.544 185.128L123.456 184.424C124.816 185.496 126.592 187.032 127.44 188.04L126.464 188.872C125.648 187.848 123.92 186.248 122.544 185.128ZM129.904 180.248H142.048V181.16H129.904V180.248ZM135.344 180.552H136.528V186.824H135.344V180.552ZM129.2 182.344H142.8V185.8H141.6V183.288H130.352V185.8H129.2V182.344ZM130.64 186.04C131.648 185.928 133.024 185.72 134.464 185.496L134.496 186.264C133.248 186.52 132.032 186.776 130.992 186.968L130.64 186.04ZM131.04 184.216L131.392 183.576C132.432 183.752 133.776 184.104 134.496 184.424L134.144 185.144C133.44 184.84 132.096 184.424 131.04 184.216ZM140.432 183.496L140.976 184.184C140.048 184.584 138.752 184.888 137.824 185.096L137.392 184.472C138.304 184.264 139.664 183.784 140.432 183.496ZM137.184 186.152L137.472 185.416C138.72 185.544 140.336 185.896 141.216 186.2L140.96 187.016C140.08 186.712 138.448 186.328 137.184 186.152ZM129.024 187.304H143.008V188.28H129.024V187.304ZM133.776 190.056H134.896V194.168H133.776V190.056ZM137.328 190.056H138.432V194.168H137.328V190.056ZM130.272 189.432H141.248V190.424H131.408V194.264H130.272V189.432ZM140.944 189.432H142.096V193.096C142.096 193.64 142.016 193.928 141.6 194.104C141.2 194.296 140.608 194.28 139.728 194.28C139.68 193.992 139.504 193.576 139.36 193.288C140 193.304 140.544 193.304 140.72 193.288C140.896 193.272 140.944 193.224 140.944 193.08V189.432ZM135.376 187.672L136.688 187.72C136.4 188.584 136.064 189.464 135.792 190.056L134.736 189.944C134.976 189.288 135.264 188.328 135.376 187.672Z" fill="black"/>
<path d="M99.4947 292.832C95.2261 292.832 90.9634 292.832 86.6948 292.832C86.6948 291.636 86.6948 290.446 86.6948 289.25C86.6948 287.746 86.6948 287.687 88.1808 287.764C89.5188 287.829 90.5075 287.101 90.5134 285.508C90.5312 281.95 90.5431 278.398 90.5075 274.839C90.4957 273.649 90.0517 272.584 88.9031 272.063C88.2163 271.749 87.4289 271.678 86.6948 271.459C85.8955 271.216 84.9956 271.305 84.2852 270.754C84.3444 270.689 84.3976 270.606 84.4687 270.559C85.931 269.612 86.6 268.22 86.6474 266.527C86.6948 264.751 85.8955 263.377 84.4568 262.359C84.4036 262.318 84.3562 262.282 84.3029 262.241C84.3266 262.199 84.3266 262.158 84.3029 262.122C84.3858 261.068 84.4095 260.015 84.3029 258.967C84.1667 257.599 85.3331 256.137 86.7895 256.03C87.2454 255.995 87.6835 255.811 88.0979 255.693C88.9386 255.45 89.8563 255.515 90.6319 255.047C92.2541 255.758 93.8763 255.882 95.4984 255.047C95.5991 255.095 95.6997 255.154 95.8004 255.184C97.2154 255.515 98.6422 255.77 100.028 256.226C100.803 256.48 101.3 257.019 101.561 257.783C102.064 259.239 101.786 260.743 101.833 262.229C101.413 262.596 100.892 262.85 100.578 263.354C99.773 264.656 99.2757 265.905 99.6901 267.563C100.045 268.996 100.809 269.925 101.869 270.766C101.78 270.938 101.65 271.021 101.448 271.062C100.324 271.281 99.2046 271.53 98.0798 271.755C96.795 272.015 95.7234 273.051 95.7175 274.502C95.7175 275.052 95.7057 275.603 95.7057 276.154C95.7057 279.321 95.6997 282.494 95.7057 285.662C95.7057 287.095 96.3806 287.74 97.8015 287.746C98.1922 287.746 98.583 287.775 98.9737 287.74C99.4178 287.693 99.5066 287.876 99.5007 288.285C99.477 289.8 99.4888 291.316 99.4888 292.832H99.4947Z" fill="#F8C700"/>
<path d="M118.145 255.053C119.009 255.45 119.957 255.533 120.868 255.752C121.922 256.006 123.077 256.024 123.799 257.042C124.136 257.516 124.403 258.002 124.48 258.611C124.622 259.778 124.515 260.944 124.604 262.11L124.592 262.104C124.557 262.158 124.515 262.205 124.48 262.258C124.415 262.324 124.367 262.406 124.29 262.454C122.514 263.65 121.674 266.065 122.408 268.037C122.834 269.179 123.527 270.138 124.586 270.796C123.438 271.37 122.159 271.453 120.933 271.731C119.649 272.021 118.411 273.111 118.405 274.306C118.382 278.208 118.394 282.104 118.405 286.005C118.405 286.816 119.128 287.817 120.187 287.758C120.691 287.728 121.2 287.781 121.703 287.746C122.141 287.716 122.242 287.882 122.236 288.296C122.212 289.812 122.224 291.322 122.224 292.837C117.955 292.837 113.693 292.837 109.424 292.837C109.424 291.713 109.418 290.588 109.424 289.469C109.424 288.924 109.252 288.214 109.531 287.876C109.827 287.509 110.561 287.77 111.106 287.764C112.461 287.734 113.207 287.047 113.213 285.715C113.225 282.068 113.213 278.421 113.225 274.774C113.225 273.59 112.331 272.128 111.023 271.873C110.253 271.725 109.477 271.565 108.731 271.328C108.175 271.151 107.506 271.293 107.056 270.784C107.198 270.636 107.316 270.452 107.488 270.346C109.566 269.073 109.856 265.449 108.518 263.685C108.057 263.075 107.429 262.673 106.932 262.122C107.109 261.909 107.08 261.66 107.08 261.412C107.08 260.5 107.074 259.582 107.091 258.671C107.103 257.936 107.417 257.344 107.92 256.806C108.607 256.066 109.56 256.054 110.419 255.781C111.372 255.479 112.408 255.503 113.332 255.077C113.74 255.065 114.024 255.391 114.403 255.479C115.712 255.787 116.967 255.71 118.163 255.071L118.145 255.053Z" fill="#F8C700"/>
<path d="M122.225 292.825C122.225 291.31 122.213 289.8 122.237 288.284C122.243 287.87 122.142 287.704 121.704 287.734C121.201 287.769 120.692 287.716 120.188 287.746C119.129 287.805 118.406 286.798 118.406 285.993C118.406 282.092 118.389 278.196 118.406 274.295C118.412 273.104 119.65 272.009 120.934 271.719C122.16 271.447 123.439 271.358 124.587 270.784C124.718 270.819 124.854 270.837 124.972 270.896C126.032 271.429 127.121 271.624 128.293 271.317C128.714 271.204 129.075 270.932 129.525 270.914C130.845 271.192 132.165 271.447 133.48 271.749C135.031 272.104 135.913 273.229 135.913 274.81C135.913 278.344 135.913 281.879 135.913 285.413C135.913 287.083 135.25 287.74 133.586 287.74C132.572 287.74 132.065 288.239 132.065 289.238C132.065 290.25 132.047 291.257 132.071 292.269C132.083 292.725 131.929 292.867 131.479 292.855C130.33 292.825 129.182 292.837 128.033 292.837C128.033 291.144 128.051 289.451 128.045 287.758C128.045 287.148 127.69 286.787 127.145 286.787C126.6 286.787 126.245 287.148 126.239 287.758C126.239 289.451 126.245 291.144 126.251 292.837C124.901 292.837 123.551 292.837 122.207 292.831L122.225 292.825Z" fill="#5888B7"/>
<path d="M84.2857 270.754C84.9961 271.305 85.8961 271.216 86.6953 271.458C87.4235 271.677 88.2169 271.749 88.9036 272.062C90.0522 272.583 90.4962 273.655 90.5081 274.839C90.5436 278.397 90.5317 281.949 90.514 285.508C90.5081 287.094 89.5194 287.828 88.1813 287.763C86.6953 287.686 86.6953 287.746 86.6953 289.249C86.6953 290.445 86.6953 291.635 86.6953 292.831C85.3455 292.831 83.9956 292.831 82.6457 292.837C82.6457 291.12 82.6694 289.397 82.6517 287.68C82.6457 286.923 81.8702 286.538 81.2308 286.946C80.8459 287.195 80.7216 287.562 80.7275 288.006C80.7394 289.61 80.7334 291.215 80.7394 292.819C79.6145 292.831 78.4896 292.819 77.3647 292.855C76.9148 292.867 76.8319 292.665 76.8378 292.275C76.8556 290.99 76.8141 289.699 76.8556 288.415C76.8733 287.852 76.6779 287.68 76.151 287.734C75.7662 287.769 75.3695 287.746 74.9788 287.74C73.7829 287.728 73.0014 286.964 73.0014 285.78C73.0014 282.103 72.9895 278.427 73.0014 274.75C73.0014 273.465 73.5579 272.412 74.7834 271.979C76.2694 271.458 77.8324 271.198 79.3836 270.914C79.5138 270.943 79.6559 270.943 79.7743 271.003C80.8518 271.5 81.9353 271.606 83.0838 271.233C83.4983 271.097 83.8594 270.855 84.2798 270.754H84.2857Z" fill="#5888B7"/>
<path d="M107.044 270.766C107.494 271.275 108.163 271.133 108.72 271.31C109.466 271.547 110.241 271.707 111.011 271.855C112.319 272.11 113.219 273.572 113.213 274.756C113.201 278.403 113.213 282.05 113.201 285.697C113.201 287.029 112.45 287.722 111.094 287.746C110.549 287.757 109.815 287.497 109.519 287.858C109.247 288.195 109.418 288.906 109.412 289.451C109.406 290.576 109.412 291.7 109.412 292.819C108.074 292.819 106.742 292.819 105.404 292.819C105.404 291.173 105.422 289.528 105.404 287.882C105.404 287.219 104.978 286.769 104.433 286.775C103.889 286.775 103.48 287.236 103.48 287.882C103.48 289.528 103.48 291.173 103.486 292.819C102.148 292.819 100.816 292.819 99.4779 292.819C99.4779 291.304 99.466 289.788 99.4897 288.272C99.4956 287.864 99.4068 287.68 98.9628 287.728C98.578 287.769 98.1813 287.74 97.7905 287.734C96.3696 287.728 95.7006 287.077 95.6947 285.65C95.6829 282.482 95.6947 279.309 95.6947 276.141C95.6947 275.591 95.7006 275.04 95.7066 274.49C95.7125 273.039 96.7841 272.003 98.0688 271.743C99.1937 271.512 100.313 271.269 101.438 271.05C101.639 271.008 101.769 270.926 101.858 270.754C103.001 271.222 104.137 271.713 105.41 271.316C105.949 271.145 106.482 270.943 107.02 270.76L107.044 270.766Z" fill="#5888B7"/>
<path d="M113.313 255.059C112.389 255.491 111.353 255.462 110.4 255.763C109.541 256.036 108.588 256.048 107.901 256.788C107.398 257.332 107.09 257.919 107.072 258.653C107.055 259.564 107.061 260.482 107.061 261.394C107.061 261.642 107.09 261.897 106.913 262.104C105.202 261.394 103.502 261.252 101.833 262.217C101.786 260.731 102.064 259.227 101.561 257.771C101.3 257.013 100.803 256.468 100.027 256.213C98.6418 255.758 97.215 255.503 95.8 255.171C95.6934 255.148 95.5987 255.083 95.498 255.035C95.5454 254.994 95.5869 254.941 95.6401 254.905C97.5702 253.62 98.3162 251.749 97.8603 249.476C97.5939 248.144 96.7117 247.274 95.7289 246.462C95.7289 245.338 95.7349 244.213 95.7467 243.088C95.7585 241.626 96.5164 240.607 97.955 240.234C99.2812 239.891 100.631 239.624 101.975 239.328C102.336 239.305 102.644 239.476 102.958 239.601C103.941 239.997 104.917 239.956 105.9 239.613C106.202 239.506 106.51 239.423 106.812 239.328C108.215 239.636 109.63 239.903 111.021 240.264C112.365 240.613 113.159 241.708 113.176 243.094C113.188 244.219 113.188 245.338 113.194 246.462C113.046 246.563 112.898 246.67 112.744 246.77C111.507 247.593 110.506 250.021 110.903 251.584C111.282 253.087 112.129 254.165 113.319 255.053L113.313 255.059Z" fill="#5888B7"/>
<path d="M129.528 270.92C129.078 270.932 128.717 271.21 128.297 271.322C127.125 271.63 126.035 271.435 124.975 270.902C124.857 270.843 124.721 270.825 124.591 270.79C123.531 270.132 122.838 269.173 122.412 268.031C121.678 266.059 122.518 263.644 124.295 262.448C124.366 262.4 124.419 262.317 124.484 262.252C124.561 262.229 124.608 262.187 124.597 262.098L124.608 262.104C125.964 261.548 127.344 261.335 128.765 261.82C130.416 262.389 131.523 263.531 131.908 265.23C132.411 267.456 131.76 269.309 129.812 270.624C129.706 270.701 129.623 270.819 129.528 270.914V270.92Z" fill="#1E4C7A"/>
<path d="M84.285 270.754C83.8646 270.86 83.5035 271.103 83.0891 271.233C81.9405 271.606 80.8511 271.5 79.7795 271.002C79.6611 270.949 79.519 270.943 79.3888 270.914C78.5836 270.256 77.814 269.593 77.293 268.634C75.878 266.041 77.4646 262.903 79.7677 261.95C81.2596 261.334 82.7161 261.394 84.1488 262.128C84.2021 262.157 84.2495 262.193 84.3027 262.222C84.3146 262.317 84.3619 262.359 84.4567 262.341C85.8894 263.359 86.6946 264.733 86.6472 266.509C86.5999 268.202 85.9249 269.593 84.4685 270.541C84.3975 270.588 84.3442 270.671 84.285 270.736V270.754Z" fill="#1E4C7A"/>
<path d="M95.723 246.475C96.7058 247.292 97.588 248.156 97.8544 249.488C98.3103 251.762 97.5643 253.632 95.6342 254.917C95.581 254.953 95.5395 255 95.4921 255.047C93.87 255.882 92.2478 255.758 90.6256 255.047C89.5658 254.313 88.66 253.431 88.3284 252.152C87.7719 250.003 88.3403 247.682 90.6848 246.368C92.3543 245.439 94.0535 245.652 95.7171 246.475H95.723Z" fill="#FAAA00"/>
<path d="M106.812 239.34C106.51 239.435 106.202 239.518 105.9 239.624C104.917 239.968 103.94 240.009 102.957 239.612C102.644 239.488 102.336 239.316 101.975 239.34C101.388 238.689 100.654 238.203 100.198 237.398C99.4051 236.001 99.2156 234.568 99.8077 233.118C100.483 231.454 101.767 230.371 103.561 230.069C106.373 229.601 109.251 231.567 109.322 234.645C109.375 236.765 108.428 238.191 106.812 239.34Z" fill="#1E4C7A"/>
<path d="M113.314 255.059C112.124 254.171 111.283 253.094 110.899 251.59C110.502 250.027 111.503 247.6 112.74 246.777C112.888 246.676 113.036 246.569 113.19 246.469C116.014 244.787 120.158 246.315 120.626 249.991C120.922 252.294 119.898 253.822 118.145 255.053C116.943 255.687 115.688 255.77 114.386 255.462C114.007 255.373 113.723 255.053 113.314 255.059Z" fill="#FAAA00"/>
<path d="M80.7384 292.82C80.7384 291.215 80.7384 289.611 80.7266 288.006C80.7266 287.562 80.845 287.189 81.2298 286.947C81.8692 286.538 82.6448 286.929 82.6507 287.681C82.6625 289.398 82.6507 291.115 82.6448 292.837C82.0113 292.837 81.3719 292.826 80.7384 292.82Z" fill="#1E4C7A"/>
<path d="M103.504 292.831C103.504 291.185 103.492 289.539 103.498 287.893C103.498 287.248 103.906 286.792 104.451 286.786C104.996 286.786 105.416 287.23 105.422 287.893C105.434 289.539 105.422 291.185 105.422 292.831C104.782 292.831 104.149 292.831 103.51 292.831H103.504Z" fill="#1E4C7A"/>
<path d="M126.267 292.837C126.267 291.144 126.249 289.45 126.255 287.757C126.255 287.147 126.61 286.786 127.161 286.786C127.706 286.786 128.061 287.147 128.061 287.757C128.061 289.45 128.055 291.144 128.049 292.837C127.457 292.837 126.865 292.837 126.267 292.837Z" fill="#1E4C7A"/>
<path d="M84.3031 262.235C84.2496 262.205 84.202 262.17 84.1484 262.14C84.202 262.134 84.2496 262.128 84.3031 262.122C84.3269 262.158 84.3269 262.199 84.3031 262.235Z" fill="#C3B273"/>
<path d="M101.837 262.223C103.513 261.258 105.206 261.4 106.917 262.111C107.414 262.661 108.036 263.064 108.504 263.674C109.842 265.438 109.552 269.061 107.474 270.334C107.302 270.435 107.184 270.624 107.041 270.772C106.503 270.962 105.976 271.163 105.431 271.329C104.158 271.731 103.016 271.234 101.879 270.766C100.819 269.926 100.055 268.996 99.6942 267.563C99.2798 265.906 99.7771 264.651 100.582 263.354C100.896 262.851 101.411 262.596 101.837 262.229V262.223Z" fill="#1E4C7A"/>
<path d="M84.4633 262.36C84.3681 262.378 84.3205 262.336 84.3086 262.241C84.3621 262.282 84.4097 262.318 84.4633 262.36Z" fill="#C3B273"/>
<path d="M124.594 262.098C124.605 262.187 124.558 262.229 124.48 262.253C124.516 262.199 124.558 262.152 124.594 262.098Z" fill="#C3B273"/>
<path d="M58.578 56.736H61.044C60.936 60.462 60.828 69.156 53.304 73.584C52.908 73.008 52.206 72.324 51.504 71.838C58.83 67.896 58.488 59.814 58.578 56.736ZM60.846 58.932C60.99 60.39 61.566 68.49 68.586 71.622C67.938 72.126 67.326 72.864 67.002 73.476C59.622 69.966 59.028 60.966 58.758 59.166L60.846 58.932ZM73.32 61.182L74.778 59.976C75.858 60.498 77.298 61.326 78 61.956L76.47 63.288C75.822 62.658 74.418 61.758 73.32 61.182ZM81.438 58.068H81.852L82.194 57.978L83.598 58.788C81.258 63.126 76.164 65.466 70.926 66.528C70.746 65.988 70.314 65.142 69.936 64.674C74.796 63.9 79.656 61.74 81.438 58.374V58.068ZM75.75 58.068H81.924V59.832H75.75V58.068ZM76.74 56.664L79.098 57.168C77.262 59.256 74.886 60.948 71.52 62.28C71.214 61.776 70.548 61.038 70.08 60.696C73.284 59.652 75.516 58.14 76.74 56.664ZM75.768 68.004L77.334 66.798C78.432 67.392 79.872 68.31 80.592 69.012L78.918 70.344C78.288 69.66 76.884 68.652 75.768 68.004ZM83.706 64.638H84.138L84.516 64.548L85.956 65.286C83.76 70.65 78.558 72.774 72.366 73.638C72.204 73.044 71.808 72.162 71.448 71.676C77.154 71.082 82.032 69.192 83.706 64.944V64.638ZM78.414 64.638H84.282V66.438H78.414V64.638ZM79.674 62.892L82.032 63.432C80.016 65.79 77.244 67.698 73.266 69.138C73.014 68.634 72.402 67.842 71.952 67.464C75.714 66.33 78.288 64.602 79.674 62.892ZM94.47 69.12L93.894 67.662C95.406 67.194 96.234 66.312 96.234 65.268L96.108 63.504L97.098 65.124C96.81 65.394 96.432 65.52 96.036 65.52C95.136 65.52 94.308 64.926 94.308 63.9C94.308 62.892 95.118 62.28 96.09 62.28C97.35 62.28 98.034 63.252 98.034 64.764C98.034 66.798 96.702 68.454 94.47 69.12ZM113.496 57.816H120.462V59.778H113.496V57.816ZM112.776 64.134H122.442V66.186H112.776V64.134ZM116.592 62.424H118.824V71.298C118.824 72.396 118.59 72.954 117.852 73.278C117.096 73.584 116.088 73.638 114.666 73.638C114.558 73.026 114.234 72.144 113.946 71.568C114.846 71.604 115.908 71.604 116.196 71.604C116.484 71.604 116.592 71.514 116.592 71.262V62.424ZM119.634 57.816H120.21L120.714 57.708L122.172 58.752C121.074 60.426 119.472 62.424 117.798 63.63C117.528 63.27 116.934 62.712 116.592 62.424C117.816 61.362 119.076 59.472 119.634 58.284V57.816ZM105.846 66.528L107.142 65.034C109.122 66.708 112.038 69.156 113.37 70.704L111.948 72.504C110.67 70.884 107.862 68.346 105.846 66.528ZM105.846 66.528C106.53 64.044 107.232 59.958 107.43 56.754L109.572 56.862C109.266 60.264 108.51 64.458 107.808 67.194L105.846 66.528ZM110.418 59.274H112.434V61.308C112.434 64.764 111.948 70.074 107.016 73.674C106.71 73.206 105.972 72.486 105.504 72.144C110.022 68.994 110.418 64.296 110.418 61.272V59.274ZM105.486 60.624C107.538 60.552 110.544 60.408 113.388 60.246L113.37 62.172C110.67 62.37 107.79 62.55 105.684 62.676L105.486 60.624ZM129.372 60.678H133.062V62.532H129.372V60.678ZM132.468 60.678H134.196C134.196 60.678 134.178 61.29 134.178 61.524C134.07 69.156 133.998 71.766 133.566 72.486C133.26 73.008 132.954 73.188 132.486 73.278C132.09 73.368 131.55 73.368 130.956 73.35C130.938 72.846 130.758 72.09 130.506 71.604C130.956 71.64 131.316 71.64 131.568 71.64C131.766 71.64 131.892 71.586 132.018 71.334C132.306 70.83 132.396 68.436 132.468 61.11V60.678ZM130.2 56.718H131.856C131.838 64.008 131.658 69.75 129.264 73.638C129.012 73.35 128.256 72.684 127.878 72.414C130.146 69.066 130.254 63.378 130.2 56.718ZM123.702 58.968H128.958V60.696H123.702V58.968ZM123.594 63.918H128.976V65.664H123.594V63.918ZM124.008 61.146L125.394 60.768C125.718 61.65 125.916 62.838 125.916 63.594L124.44 64.008C124.458 63.252 124.296 62.064 124.008 61.146ZM126.996 60.696L128.616 61.02C128.274 62.226 127.896 63.576 127.59 64.476L126.276 64.152C126.546 63.216 126.87 61.722 126.996 60.696ZM125.286 64.458H127.212V67.932C127.212 69.894 126.726 72.234 124.872 73.656C124.62 73.26 124.044 72.612 123.612 72.306C125.124 71.28 125.286 69.354 125.286 67.914V64.458ZM123.81 67.176H128.652V68.922H123.81V67.176ZM124.8 57.438L126.582 56.934C126.996 57.69 127.446 58.734 127.608 59.4L125.736 59.994C125.574 59.328 125.178 58.23 124.8 57.438ZM136.698 64.602H138.624V73.584H136.698V64.602ZM134.916 58.95H140.208V60.696H134.916V58.95ZM134.844 63.936H140.442V65.664H134.844V63.936ZM135.186 67.482H140.208V69.228H135.186V67.482ZM135.294 61.092L136.698 60.714C137.004 61.614 137.22 62.802 137.238 63.576L135.762 63.99C135.78 63.216 135.6 62.01 135.294 61.092ZM138.372 60.678L139.992 61.002C139.686 62.208 139.38 63.576 139.11 64.476L137.724 64.134C137.976 63.216 138.264 61.704 138.372 60.678ZM135.906 57.33L137.67 56.79C138.102 57.636 138.624 58.77 138.804 59.49L136.95 60.102C136.788 59.382 136.338 58.212 135.906 57.33ZM148.83 56.718H151.026V71.568C151.026 72.63 150.756 73.062 150.072 73.368C149.37 73.638 148.398 73.674 146.868 73.674C146.76 73.17 146.418 72.414 146.148 71.982C147.012 72.018 148.074 72 148.38 72C148.722 71.982 148.83 71.874 148.83 71.568V56.718ZM142.08 57.888H157.92V59.598H142.08V57.888ZM145.986 61.686V62.55H153.942V61.686H145.986ZM143.934 60.318H156.156V63.918H143.934V60.318ZM143.484 64.71H156.462V71.748H154.266V66.186H143.484V64.71ZM141.666 66.942H158.334V68.58H141.666V66.942ZM143.34 69.426H155.436V70.992H143.34V69.426Z" fill="black"/>
<defs>
<filter id="filter0_d_1114_1011" x="2" y="39" width="207" height="305" filterUnits="userSpaceOnUse" color-interpolation-filters="sRGB">
<feFlood flood-opacity="0" result="BackgroundImageFix"/>
<feColorMatrix in="SourceAlpha" type="matrix" values="0 0 0 0 0 0 0 0 0 0 0 0 0 0 0 0 0 0 127 0" result="hardAlpha"/>
<feOffset dx="1" dy="2"/>
<feGaussianBlur stdDeviation="15"/>
<feComposite in2="hardAlpha" operator="out"/>
<feColorMatrix type="matrix" values="0 0 0 0 0 0 0 0 0 0 0 0 0 0 0 0 0 0 0.25 0"/>
<feBlend mode="normal" in2="BackgroundImageFix" result="effect1_dropShadow_1114_1011"/>
<feBlend mode="normal" in="SourceGraphic" in2="effect1_dropShadow_1114_1011" result="shape"/>
</filter>
<filter id="filter1_d_1114_1011" x="0" y="0" width="210" height="131.927" filterUnits="userSpaceOnUse" color-interpolation-filters="sRGB">
<feFlood flood-opacity="0" result="BackgroundImageFix"/>
<feColorMatrix in="SourceAlpha" type="matrix" values="0 0 0 0 0 0 0 0 0 0 0 0 0 0 0 0 0 0 127 0" result="hardAlpha"/>
<feOffset dy="4"/>
<feGaussianBlur stdDeviation="10"/>
<feComposite in2="hardAlpha" operator="out"/>
<feColorMatrix type="matrix" values="0 0 0 0 0 0 0 0 0 0 0 0 0 0 0 0 0 0 0.25 0"/>
<feBlend mode="normal" in2="BackgroundImageFix" result="effect1_dropShadow_1114_1011"/>
<feBlend mode="normal" in="SourceGraphic" in2="effect1_dropShadow_1114_1011" result="shape"/>
</filter>
<linearGradient id="paint0_linear_1114_1011" x1="46.9683" y1="16" x2="167.488" y2="141.534" gradientUnits="userSpaceOnUse">
<stop stop-color="#FFDF7E"/>
<stop offset="0.572917" stop-color="#FFC000"/>
<stop offset="1" stop-color="#C59400"/>
</linearGradient>
<linearGradient id="paint1_linear_1114_1011" x1="23.4725" y1="79.6097" x2="174.511" y2="252.809" gradientUnits="userSpaceOnUse">
<stop stop-color="#FFD040"/>
<stop offset="0.520833" stop-color="#FFC000"/>
<stop offset="1" stop-color="#D7A100"/>
</linearGradient>
</defs>
</svg>
