<svg width="210" height="344" viewBox="0 0 210 344" fill="none" xmlns="http://www.w3.org/2000/svg">
<g filter="url(#filter0_d_1114_1019)">
<rect x="31" y="67" width="147" height="245" fill="white"/>
</g>
<g filter="url(#filter1_d_1114_1019)">
<path d="M179.533 64.4116V16H30.467V64.4116H20L105 107.927L190 64.4116H179.533Z" fill="url(#paint0_linear_1114_1019)"/>
</g>
<path d="M31 312L31 81.9688L34.7637 83.7899V308.226H174.252V83.856L178.016 82.0348V312H31Z" fill="url(#paint1_linear_1114_1019)"/>
<path d="M69.856 140.36H78.128V141.48H69.856V140.36ZM67.808 143.656H80.208V144.76H67.808V143.656ZM67.088 148.712H80.928V149.816H67.088V148.712ZM73.312 140.856H74.592V149.272H73.312V140.856ZM69.168 145.528L70.144 145.128C70.768 146.008 71.44 147.24 71.696 148.024L70.64 148.472C70.4 147.688 69.776 146.44 69.168 145.528ZM77.712 145.112L78.848 145.56C78.256 146.584 77.536 147.736 76.944 148.488L76.032 148.088C76.592 147.304 77.312 146.024 77.712 145.112ZM74.464 136.248C75.984 138.04 78.976 139.848 81.552 140.648C81.264 140.92 80.896 141.384 80.704 141.704C78.144 140.76 75.168 138.776 73.456 136.744L74.464 136.248ZM73.984 135.416L75.088 135.928C73.36 138.568 70.432 140.616 67.296 141.752C67.12 141.416 66.784 140.952 66.48 140.664C69.504 139.688 72.448 137.8 73.984 135.416ZM82.72 145.8H97.328V146.824H82.72V145.8ZM92.48 144.76L93.072 144.216C93.616 144.568 94.32 145.096 94.656 145.448L94.048 146.072C93.712 145.704 93.024 145.144 92.48 144.76ZM88.064 140.712H97.056V141.576H88.064V140.712ZM93.888 139.528H95.024V143.208C95.024 143.752 94.912 144.008 94.496 144.168C94.064 144.328 93.408 144.312 92.4 144.312C92.352 144.024 92.192 143.672 92.048 143.384C92.8 143.416 93.424 143.416 93.632 143.4C93.824 143.384 93.888 143.336 93.888 143.176V139.528ZM82.8 140.488H87.024V141.48H82.8V140.488ZM86.32 135.608H87.44V144.664H86.32V135.608ZM83.552 135.944H84.576V138.28H86.96V139.256H83.552V135.944ZM89.296 142.104L90.032 141.512C90.688 141.912 91.472 142.536 91.84 142.984L91.056 143.64C90.704 143.176 89.952 142.52 89.296 142.104ZM90.688 137.192L91.472 136.888C92.256 137.432 93.152 138.28 93.6 138.888L92.752 139.208C92.368 138.616 91.488 137.768 90.688 137.192ZM95.472 136.392H95.68L95.888 136.344L96.528 136.696C95.088 139.16 91.824 140.232 88.48 140.68C88.368 140.456 88.16 140.136 87.984 139.928C91.088 139.576 94.24 138.584 95.472 136.552V136.392ZM92.464 135.528L93.52 135.752C92.416 136.744 90.864 137.528 88.768 138.152C88.64 137.944 88.336 137.624 88.128 137.464C90.08 136.968 91.6 136.248 92.464 135.528ZM91.824 136.392H95.776V137.144H90.88L91.824 136.392ZM83.952 140.856H85.024V141.64C85.024 142.472 84.784 143.928 83.664 144.824C83.456 144.632 83.008 144.392 82.736 144.28C83.76 143.496 83.952 142.296 83.952 141.608V140.856ZM89.328 144.2H90.512V145.224C90.512 146.904 89.712 149.24 83.28 150.328C83.136 150.056 82.848 149.624 82.592 149.352C88.592 148.36 89.328 146.44 89.328 145.192V144.2ZM90.448 147.544L91.008 146.728C93.04 147.48 95.888 148.6 97.392 149.32L96.8 150.264C95.376 149.544 92.544 148.344 90.448 147.544ZM88.448 138.456C89.232 138.424 90.176 138.36 91.248 138.296V138.968C90.288 139.048 89.392 139.112 88.576 139.176L88.448 138.456ZM105.424 135.56H106.672V140.472H105.424V135.56ZM101.488 136.552H102.672V140.36H101.488V136.552ZM109.776 141.896H110.992V148.904C110.992 149.592 110.832 149.944 110.32 150.104C109.792 150.296 108.96 150.296 107.616 150.296C107.552 149.992 107.376 149.496 107.2 149.192C108.16 149.24 109.152 149.224 109.424 149.224C109.696 149.208 109.776 149.128 109.776 148.904V141.896ZM106 137.128H111.408V138.136H106V137.128ZM99.056 139.736H112.912V140.776H99.056V139.736ZM101.68 141.896H110.304V142.888H101.68V141.896ZM101.008 141.896H102.192V145.288C102.192 146.856 101.968 148.92 100.624 150.28C100.464 150.024 100.016 149.528 99.776 149.368C100.88 148.184 101.008 146.6 101.008 145.272V141.896ZM101.856 147.656C103.84 147.224 107.104 146.424 110.176 145.656L110.288 146.52C107.472 147.368 104.4 148.232 102.208 148.84L101.856 147.656ZM102.464 144.072L102.992 143.272C104.816 143.736 107.296 144.488 108.624 145L108.096 145.912C106.816 145.4 104.32 144.584 102.464 144.072ZM117.376 140.504H126.704V141.656H117.376V140.504ZM121.984 144.28H127.376V145.416H121.984V144.28ZM121.344 141.048H122.592V149.144L121.344 148.984V141.048ZM117.584 142.952L118.8 143.08C118.352 146.312 117.36 148.744 115.552 150.328C115.36 150.12 114.864 149.72 114.576 149.528C116.368 148.152 117.232 145.864 117.584 142.952ZM118.336 145C119.472 148.264 121.968 148.824 125.216 148.84C125.808 148.84 128.576 148.84 129.36 148.808C129.168 149.112 128.96 149.672 128.896 150.024H125.152C121.344 150.024 118.736 149.288 117.36 145.384L118.336 145ZM115.312 137.368H128.688V140.872H127.456V138.52H116.496V140.872H115.312V137.368ZM120.8 135.8L121.984 135.464C122.368 136.072 122.784 136.888 122.944 137.432L121.696 137.816C121.552 137.288 121.184 136.44 120.8 135.8ZM136.688 145.992L136.32 145.144C137.632 144.616 138.352 143.8 138.352 142.584L138.048 141.24L138.912 142.456C138.688 142.744 138.368 142.824 138.064 142.824C137.408 142.824 136.864 142.424 136.864 141.672C136.864 140.92 137.44 140.52 138.08 140.52C138.976 140.52 139.456 141.256 139.456 142.376C139.456 144.104 138.368 145.416 136.688 145.992ZM51.701 165.384H61.637V166.6H51.701V165.384ZM57.621 158.12C59.173 160.088 62.149 162.248 64.565 163.288C64.245 163.544 63.845 164.04 63.621 164.376C61.253 163.176 58.309 160.84 56.581 158.632L57.621 158.12ZM57.029 157.448L58.181 158.008C56.405 160.648 53.525 163 50.597 164.472C50.389 164.136 50.021 163.704 49.669 163.416C52.565 162.12 55.429 159.88 57.029 157.448ZM61.493 165.384H61.717L61.925 165.304L62.853 165.768C61.525 167.576 59.397 170.248 57.669 172.328L56.453 171.768C58.213 169.736 60.405 166.984 61.493 165.528V165.384ZM54.437 162.616H59.989V163.768H54.437V162.616ZM69.557 157.512L70.757 157.816C69.877 160.184 68.453 162.408 66.965 163.848C66.725 163.64 66.229 163.24 65.925 163.08C67.445 161.752 68.773 159.672 69.557 157.512ZM69.301 159.496H79.621V160.664H68.725L69.301 159.496ZM68.517 163.128H79.269V164.248H69.717V168.04H68.517V163.128ZM65.877 167.432H80.373V168.6H65.877V167.432ZM73.317 160.104H74.549V172.296H73.317V160.104ZM84.309 164.584H93.829V163.112H83.221V162.088H95.013V165.608H84.309V164.584ZM83.797 164.584H84.949C84.789 165.784 84.581 167.224 84.405 168.136H83.221C83.445 167.176 83.669 165.736 83.797 164.584ZM84.053 167.096H94.677V168.136H83.733L84.053 167.096ZM94.341 167.096H95.557C95.557 167.096 95.541 167.416 95.509 167.592C95.301 169.816 95.077 170.808 94.661 171.208C94.405 171.48 94.101 171.576 93.637 171.592C93.253 171.624 92.453 171.624 91.637 171.592C91.605 171.24 91.477 170.792 91.285 170.472C92.085 170.568 92.837 170.568 93.125 170.568C93.397 170.568 93.557 170.552 93.685 170.424C93.957 170.168 94.165 169.32 94.341 167.256V167.096ZM88.437 162.344H89.621V172.28H88.437V162.344ZM88.101 167.4L89.045 167.816C87.685 169.72 85.237 171.448 83.013 172.296C82.853 172.008 82.501 171.576 82.229 171.352C84.437 170.632 86.869 169.064 88.101 167.4ZM83.941 158.712H89.029V159.672H83.941V158.712ZM90.549 158.728H96.405V159.688H90.549V158.728ZM84.261 157.448L85.333 157.752C84.709 159.272 83.685 160.776 82.693 161.768C82.517 161.56 82.101 161.16 81.845 160.968C82.821 160.088 83.733 158.776 84.261 157.448ZM90.853 157.448L91.957 157.72C91.477 159.048 90.629 160.344 89.749 161.16C89.541 160.968 89.093 160.6 88.821 160.44C89.701 159.704 90.437 158.6 90.853 157.448ZM85.093 160.168L85.845 159.56C86.389 160.024 87.093 160.696 87.429 161.128L86.645 161.816C86.309 161.352 85.637 160.664 85.093 160.168ZM92.069 160.248L92.853 159.624C93.429 160.056 94.165 160.696 94.533 161.128L93.717 161.832C93.365 161.4 92.645 160.728 92.069 160.248ZM98.533 171V169.784H101.141V161.048H99.045V160.104C100.101 159.928 100.853 159.656 101.477 159.272H102.597V169.784H104.965V171H98.533ZM110.208 171.224C108.368 171.224 107.232 170.456 106.464 169.608L107.2 168.648C107.888 169.368 108.768 170.008 110.112 170.008C111.504 170.008 112.496 169.16 112.496 167.816C112.496 166.408 111.552 165.48 108.848 165.48V164.344C111.264 164.344 112.08 163.384 112.08 162.104C112.08 160.984 111.328 160.248 110.112 160.248C109.168 160.248 108.336 160.728 107.68 161.4L106.896 160.456C107.776 159.656 108.816 159.064 110.16 159.064C112.128 159.064 113.568 160.136 113.568 162.008C113.568 163.432 112.736 164.376 111.488 164.824V164.888C112.864 165.224 113.984 166.264 113.984 167.88C113.984 169.96 112.304 171.224 110.208 171.224ZM118.475 162.104H129.851V163.08H118.475V162.104ZM118.699 166.76H127.851V167.752H118.699V166.76ZM121.051 160.712H122.187V164.792H126.091V160.712H127.259V165.736H121.051V160.712ZM127.531 166.76H127.771L127.995 166.712L128.747 167.128C126.955 170.392 122.779 171.688 118.427 172.184C118.331 171.912 118.123 171.448 117.931 171.176C122.011 170.808 126.043 169.624 127.531 166.936V166.76ZM121.259 167.576C122.843 169.688 126.267 170.872 130.251 171.24C129.995 171.496 129.707 171.976 129.563 172.28C125.483 171.8 122.059 170.472 120.219 167.976L121.259 167.576ZM117.451 159.16H130.043V160.28H117.451V159.16ZM116.891 159.16H118.075V163.512C118.075 166.056 117.883 169.752 116.539 172.28C116.299 172.088 115.755 171.832 115.451 171.736C116.763 169.32 116.891 165.912 116.891 163.512V159.16ZM122.443 157.768L123.643 157.48C124.011 158.136 124.427 158.984 124.571 159.528L123.307 159.88C123.163 159.32 122.795 158.424 122.443 157.768ZM132.667 166.376H145.211V167.432H132.667V166.376ZM138.251 164.712H139.451V172.264H138.251V164.712ZM132.219 163.24H145.579V165.832H144.379V164.296H133.371V165.832H132.219V163.24ZM137.691 158.408L138.699 158.792C138.203 159.432 137.675 160.088 137.243 160.536L136.507 160.184C136.907 159.704 137.419 158.92 137.691 158.408ZM134.843 160.952L135.611 160.28C136.459 160.824 137.611 161.592 138.219 162.072L137.403 162.824C136.843 162.328 135.707 161.512 134.843 160.952ZM135.067 157.56H136.155C136.011 160.76 135.387 162.344 132.251 163.208C132.155 162.936 131.851 162.52 131.643 162.328C134.475 161.608 134.955 160.344 135.067 157.56ZM144.699 158.376L145.739 158.776C145.211 159.448 144.587 160.136 144.107 160.6L143.355 160.248C143.803 159.736 144.395 158.92 144.699 158.376ZM141.547 160.84L142.299 160.152C143.403 160.84 144.955 161.832 145.739 162.44L144.971 163.256C144.203 162.632 142.683 161.576 141.547 160.84ZM141.755 157.56H142.843C142.715 160.6 142.091 162.168 139.115 163.048C139.003 162.776 138.715 162.376 138.491 162.168C141.163 161.448 141.627 160.184 141.755 157.56ZM136.539 168.136L137.547 168.536C136.331 169.944 134.171 171.176 132.267 171.768C132.091 171.464 131.723 171.016 131.467 170.776C133.339 170.312 135.451 169.272 136.539 168.136ZM140.395 168.776L141.211 168.056C142.859 168.888 145.019 170.152 146.091 171.016L145.227 171.848C144.203 170.968 142.091 169.656 140.395 168.776ZM131.899 158.792L132.619 158.264C133.067 158.744 133.675 159.432 133.963 159.832L133.227 160.456C132.923 160.024 132.347 159.32 131.899 158.792ZM138.859 158.776L139.563 158.232C140.011 158.696 140.571 159.336 140.859 159.736L140.123 160.36C139.835 159.944 139.291 159.272 138.859 158.776ZM147.915 158.6L148.715 157.944C151.579 160.424 151.931 163.224 151.931 166.184C151.931 168.472 151.755 170.504 151.147 171.4C150.939 171.704 150.651 171.88 150.267 171.944C149.739 172.056 149.083 172.056 148.411 172.024C148.395 171.64 148.267 171.176 148.059 170.84C148.843 170.904 149.451 170.888 149.787 170.856C150.043 170.824 150.187 170.744 150.315 170.584C150.699 170.04 150.843 168.216 150.843 166.152C150.843 163.352 150.459 160.872 147.915 158.6ZM150.795 163.224L151.643 163.752C150.891 165.464 149.483 167.352 148.171 168.408C148.027 168.088 147.739 167.624 147.483 167.368C148.731 166.536 150.123 164.808 150.795 163.224ZM151.467 157.896L152.331 158.472C151.371 160.2 149.579 162.232 148.059 163.384C147.931 163.064 147.611 162.568 147.387 162.296C148.843 161.384 150.603 159.496 151.467 157.896ZM157.035 162.008H158.123V166.76H157.035V162.008ZM154.075 163.16H161.195V163.864H154.075V163.16ZM154.075 164.68H161.195V165.4H154.075V164.68ZM152.715 167.784H160.651V168.696H152.715V167.784ZM154.107 160.328L155.131 160.664C154.523 161.896 153.547 163.176 152.667 164.008C152.491 163.816 152.091 163.416 151.851 163.24C152.715 162.488 153.579 161.416 154.107 160.328ZM160.283 167.784H160.555L160.747 167.752L161.451 168.216C159.659 170.552 155.915 171.72 152.251 172.264C152.171 172.008 151.899 171.544 151.707 171.32C155.259 170.904 158.811 169.864 160.283 167.96V167.784ZM154.283 168.488C155.835 169.992 159.115 170.952 162.395 171.272C162.155 171.512 161.851 171.944 161.707 172.232C158.363 171.8 155.067 170.712 153.307 168.904L154.283 168.488ZM155.211 157.576H156.299V160.696H155.211V157.576ZM157.995 157.576H159.115V160.728H157.995V157.576ZM152.523 158.76H155.803V159.688H152.523V158.76ZM156.283 160.632L157.147 160.168C157.595 160.632 158.155 161.24 158.411 161.624L157.531 162.184C157.259 161.768 156.731 161.112 156.283 160.632ZM153.659 166.232H161.787V167.032H153.659V166.232ZM154.459 161.608H161.595V162.392H154.459V167.448H153.403V162.488L154.251 161.608H154.459ZM158.539 158.728H162.203V159.64H158.539V158.728ZM57.6 184.376V186.44H63.552V184.376H57.6ZM57.6 181.352V183.384H63.552V181.352H57.6ZM56.512 180.312H64.704V187.48H56.512V180.312ZM56.304 189.352H64.928V190.456H56.304V189.352ZM55.072 192.664H65.456V193.752H55.072V192.664ZM50.72 180.648H55.712V181.784H50.72V180.648ZM50.896 185.272H55.488V186.408H50.896V185.272ZM50.56 191.4C51.856 191.048 53.776 190.424 55.632 189.8L55.84 190.952C54.096 191.544 52.272 192.152 50.848 192.632L50.56 191.4ZM52.72 181.096H53.872V191.016L52.72 191.24V181.096ZM60.048 180.808H61.104V186.968H61.184V193.16H59.968V186.968H60.048V180.808ZM66.72 182.68H71.968V183.784H66.72V182.68ZM68.944 179.576H70.048V194.28H68.944V179.576ZM68.88 183.352L69.744 183.608C69.296 186.136 68.288 189.432 67.2 191.144C67.056 190.792 66.736 190.312 66.512 190.04C67.52 188.488 68.496 185.64 68.88 183.352ZM70.048 184.04C70.432 184.568 71.856 186.904 72.144 187.432L71.28 188.424C70.912 187.48 69.824 185.4 69.392 184.616L70.048 184.04ZM72.88 182.44H80.48V194.136H79.248V183.592H74.064V194.248H72.88V182.44ZM73.536 187.288H79.792V188.424H73.536V187.288ZM73.536 192.216H79.792V193.368H73.536V192.216ZM76.064 179.592L77.456 179.768C77.104 180.936 76.672 182.264 76.304 183.128L75.216 182.904C75.536 182.008 75.904 180.584 76.064 179.592ZM85.472 192.232H94.464V193.4H85.472V192.232ZM84.864 187.544H95.12V194.232H93.856V188.68H86.08V194.28H84.864V187.544ZM91.584 182.008L92.512 181.384C94.08 182.744 95.968 184.728 96.8 186.056L95.76 186.808C94.976 185.448 93.152 183.432 91.584 182.008ZM84 186.184C83.952 185.928 83.744 185.32 83.6 185C83.968 184.936 84.384 184.584 84.912 184.056C85.504 183.528 87.376 181.496 88.624 179.512L89.824 180.024C88.288 182.152 86.496 184.136 84.8 185.544V185.576C84.8 185.576 84 185.944 84 186.184ZM84 186.184L83.984 185.24L84.88 184.792L95.12 184.312C95.136 184.648 95.184 185.128 95.248 185.384C85.6 185.928 84.64 185.96 84 186.184ZM105.968 182.472H108.944V183.144H105.968V182.472ZM105.968 183.656H108.944V184.328H105.968V183.656ZM103.552 191.064H111.808V191.88H103.552V191.064ZM105.488 181.176H109.36V181.912H105.488V181.176ZM106.72 185.576V186.632H108.144V185.576H106.72ZM105.936 184.904H108.96V187.304H105.936V184.904ZM103.872 189.48H110.768V188.648H102.928V187.864H111.888V190.264H103.872V189.48ZM103.52 189.48H104.64C104.432 190.328 104.176 191.24 103.952 191.88H102.816C103.072 191.208 103.328 190.28 103.52 189.48ZM111.456 191.064H112.592C112.592 191.064 112.576 191.4 112.512 191.56C112.208 192.936 111.888 193.64 111.456 193.976C111.12 194.216 110.784 194.264 110.24 194.28C109.776 194.28 108.8 194.28 107.776 194.216C107.76 193.944 107.616 193.544 107.44 193.288C108.464 193.384 109.52 193.4 109.92 193.4C110.272 193.4 110.448 193.384 110.608 193.272C110.928 193.048 111.184 192.44 111.456 191.208V191.064ZM98.928 180.552L99.632 179.768C100.432 180.232 101.424 180.936 101.904 181.48L101.152 182.376C100.704 181.816 99.744 181.064 98.928 180.552ZM98.576 184.856L99.248 184.024C100.08 184.44 101.104 185.112 101.6 185.624L100.896 186.536C100.416 186.024 99.392 185.304 98.576 184.856ZM98.88 193.464C99.472 192.216 100.304 190.136 100.896 188.344L101.84 188.968C101.312 190.632 100.592 192.616 99.952 194.088L98.88 193.464ZM104.352 183.208L104.96 183.016C105.28 183.512 105.616 184.168 105.728 184.584L105.104 184.872C104.976 184.424 104.672 183.736 104.352 183.208ZM104.48 185.256L105.072 185.048C105.344 185.608 105.6 186.328 105.648 186.792L105.04 187.048C104.976 186.568 104.736 185.832 104.48 185.256ZM102.24 185.352L102.944 185.512C102.784 186.296 102.544 187.16 102.24 187.736C102.112 187.624 101.808 187.416 101.632 187.336C101.952 186.776 102.128 186.056 102.24 185.352ZM102.096 182.664C102.064 182.536 101.92 182.216 101.824 182.056C102.016 182.024 102.16 181.88 102.304 181.64C102.48 181.432 103.056 180.504 103.312 179.656L104.08 179.928C103.696 180.808 103.136 181.704 102.608 182.312V182.328C102.608 182.328 102.096 182.52 102.096 182.664ZM102.096 182.664L102.08 182.088L102.576 181.848L104.4 181.736C104.352 181.944 104.32 182.232 104.32 182.392C102.656 182.52 102.304 182.6 102.096 182.664ZM102.112 184.84C102.08 184.712 101.952 184.392 101.856 184.232C102.096 184.184 102.32 183.976 102.592 183.672C102.912 183.368 103.904 182.168 104.496 181.016L105.232 181.352C104.512 182.488 103.6 183.656 102.688 184.472V184.488C102.688 184.488 102.112 184.696 102.112 184.84ZM102.112 184.84L102.08 184.248L102.544 183.992L105.056 183.704C105.088 183.88 105.136 184.168 105.2 184.328C102.752 184.648 102.352 184.744 102.112 184.84ZM103.28 185.464L103.92 185.32C104.128 185.944 104.272 186.744 104.288 187.224L103.632 187.448C103.616 186.936 103.488 186.104 103.28 185.464ZM106.56 179.896L107.392 179.688C107.648 180.072 107.952 180.616 108.08 180.952L107.2 181.208C107.104 180.84 106.816 180.296 106.56 179.896ZM111.824 183.176L112.4 182.968C112.752 183.496 113.12 184.216 113.248 184.648L112.64 184.92C112.496 184.456 112.144 183.736 111.824 183.176ZM111.936 185.208L112.512 185C112.848 185.656 113.136 186.504 113.232 187.032L112.608 187.32C112.528 186.76 112.24 185.88 111.936 185.208ZM109.696 185.272L110.416 185.432C110.256 186.216 110 187.08 109.712 187.672C109.584 187.544 109.28 187.352 109.088 187.256C109.408 186.712 109.584 185.976 109.696 185.272ZM109.568 182.632C109.52 182.504 109.392 182.168 109.296 182.008C109.488 181.992 109.616 181.832 109.776 181.608C109.952 181.384 110.512 180.472 110.784 179.624L111.536 179.912C111.168 180.76 110.608 181.656 110.08 182.264V182.28C110.08 182.28 109.568 182.488 109.568 182.632ZM109.568 182.632L109.552 182.056L110.032 181.8L111.856 181.688C111.808 181.896 111.776 182.2 111.792 182.36C110.128 182.488 109.76 182.552 109.568 182.632ZM109.584 184.808C109.552 184.664 109.408 184.344 109.312 184.184C109.568 184.136 109.792 183.944 110.064 183.624C110.384 183.336 111.36 182.136 111.952 180.984L112.688 181.304C111.968 182.456 111.072 183.608 110.144 184.424V184.456C110.144 184.456 109.584 184.664 109.584 184.808ZM109.584 184.808L109.552 184.2L110 183.96L112.528 183.656C112.544 183.848 112.608 184.136 112.672 184.28C110.224 184.616 109.824 184.712 109.584 184.808ZM110.72 185.448L111.344 185.288C111.584 185.976 111.76 186.84 111.76 187.368L111.104 187.592C111.088 187.032 110.944 186.136 110.72 185.448ZM115.472 181.112H128.576V182.136H115.472V181.112ZM115.984 192.84H128.096V193.848H115.984V192.84ZM118.624 183.192H125.36V184.104H118.624V183.192ZM118.624 185.208H125.36V186.12H118.624V185.208ZM114.72 187.272H129.264V188.28H114.72V187.272ZM118.08 190.136H125.936V191.128H118.08V190.136ZM117.904 179.576H119.104V187.832H117.904V179.576ZM124.944 179.576H126.144V187.832H124.944V179.576ZM121.344 188.792H122.576V193.4H121.344V188.792ZM118.752 187.544L119.76 187.928C118.784 189.576 117.024 191.096 115.344 191.88C115.168 191.608 114.832 191.192 114.56 190.968C116.176 190.328 117.888 188.952 118.752 187.544ZM125.296 187.544C126.144 188.904 127.808 190.168 129.472 190.76C129.2 190.984 128.848 191.4 128.672 191.688C126.976 190.968 125.28 189.48 124.352 187.912L125.296 187.544ZM133.856 184.36H142.128V185.48H133.856V184.36ZM131.808 187.656H144.208V188.76H131.808V187.656ZM131.088 192.712H144.928V193.816H131.088V192.712ZM137.312 184.856H138.592V193.272H137.312V184.856ZM133.168 189.528L134.144 189.128C134.768 190.008 135.44 191.24 135.696 192.024L134.64 192.472C134.4 191.688 133.776 190.44 133.168 189.528ZM141.712 189.112L142.848 189.56C142.256 190.584 141.536 191.736 140.944 192.488L140.032 192.088C140.592 191.304 141.312 190.024 141.712 189.112ZM138.464 180.248C139.984 182.04 142.976 183.848 145.552 184.648C145.264 184.92 144.896 185.384 144.704 185.704C142.144 184.76 139.168 182.776 137.456 180.744L138.464 180.248ZM137.984 179.416L139.088 179.928C137.36 182.568 134.432 184.616 131.296 185.752C131.12 185.416 130.784 184.952 130.48 184.664C133.504 183.688 136.448 181.8 137.984 179.416ZM146.72 189.8H161.328V190.824H146.72V189.8ZM156.48 188.76L157.072 188.216C157.616 188.568 158.32 189.096 158.656 189.448L158.048 190.072C157.712 189.704 157.024 189.144 156.48 188.76ZM152.064 184.712H161.056V185.576H152.064V184.712ZM157.888 183.528H159.024V187.208C159.024 187.752 158.912 188.008 158.496 188.168C158.064 188.328 157.408 188.312 156.4 188.312C156.352 188.024 156.192 187.672 156.048 187.384C156.8 187.416 157.424 187.416 157.632 187.4C157.824 187.384 157.888 187.336 157.888 187.176V183.528ZM146.8 184.488H151.024V185.48H146.8V184.488ZM150.32 179.608H151.44V188.664H150.32V179.608ZM147.552 179.944H148.576V182.28H150.96V183.256H147.552V179.944ZM153.296 186.104L154.032 185.512C154.688 185.912 155.472 186.536 155.84 186.984L155.056 187.64C154.704 187.176 153.952 186.52 153.296 186.104ZM154.688 181.192L155.472 180.888C156.256 181.432 157.152 182.28 157.6 182.888L156.752 183.208C156.368 182.616 155.488 181.768 154.688 181.192ZM159.472 180.392H159.68L159.888 180.344L160.528 180.696C159.088 183.16 155.824 184.232 152.48 184.68C152.368 184.456 152.16 184.136 151.984 183.928C155.088 183.576 158.24 182.584 159.472 180.552V180.392ZM156.464 179.528L157.52 179.752C156.416 180.744 154.864 181.528 152.768 182.152C152.64 181.944 152.336 181.624 152.128 181.464C154.08 180.968 155.6 180.248 156.464 179.528ZM155.824 180.392H159.776V181.144H154.88L155.824 180.392ZM147.952 184.856H149.024V185.64C149.024 186.472 148.784 187.928 147.664 188.824C147.456 188.632 147.008 188.392 146.736 188.28C147.76 187.496 147.952 186.296 147.952 185.608V184.856ZM153.328 188.2H154.512V189.224C154.512 190.904 153.712 193.24 147.28 194.328C147.136 194.056 146.848 193.624 146.592 193.352C152.592 192.36 153.328 190.44 153.328 189.192V188.2ZM154.448 191.544L155.008 190.728C157.04 191.48 159.888 192.6 161.392 193.32L160.8 194.264C159.376 193.544 156.544 192.344 154.448 191.544ZM152.448 182.456C153.232 182.424 154.176 182.36 155.248 182.296V182.968C154.288 183.048 153.392 183.112 152.576 183.176L152.448 182.456Z" fill="black"/>
<path d="M69.36 61.074V61.992H74.058V61.074H69.36ZM69.36 58.752V59.652H74.058V58.752H69.36ZM67.272 57.24H76.236V63.504H67.272V57.24ZM66.372 64.296H76.83V66.06H66.372V64.296ZM65.904 67.086H77.19V68.922H65.904V67.086ZM72.546 65.844H74.724V71.478C74.724 72.468 74.544 72.99 73.842 73.296C73.176 73.602 72.276 73.62 71.034 73.62C70.944 73.026 70.638 72.234 70.368 71.694C71.124 71.73 71.97 71.73 72.204 71.712C72.474 71.694 72.546 71.64 72.546 71.424V65.844ZM67.11 69.804L68.604 68.796C69.378 69.498 70.332 70.506 70.8 71.172L69.18 72.324C68.784 71.64 67.848 70.578 67.11 69.804ZM64.644 60.696L66.534 61.488C65.22 63.702 63.114 66.078 61.224 67.554C61.08 67.086 60.54 65.862 60.216 65.34C61.8 64.224 63.564 62.442 64.644 60.696ZM64.158 56.736L66.21 57.564C65.004 59.238 63.168 61.002 61.476 62.1C61.242 61.614 60.738 60.732 60.396 60.282C61.8 59.418 63.402 57.942 64.158 56.736ZM62.862 64.71L64.86 62.712L64.95 62.766V73.62H62.862V64.71ZM78.612 68.184H95.424V69.948H78.612V68.184ZM89.97 67.266L90.96 66.33C91.59 66.726 92.418 67.338 92.832 67.752L91.806 68.796C91.41 68.364 90.6 67.716 89.97 67.266ZM85.056 62.424H95.19V63.828H85.056V62.424ZM91.104 61.272H93.138V64.944C93.138 65.79 92.976 66.186 92.382 66.438C91.788 66.672 90.996 66.654 89.934 66.654C89.862 66.168 89.61 65.556 89.394 65.088C89.988 65.124 90.636 65.124 90.834 65.124C91.032 65.106 91.104 65.052 91.104 64.872V61.272ZM78.684 62.064H83.724V63.738H78.684V62.064ZM82.554 56.772H84.516V67.068H82.554V56.772ZM79.404 57.186H81.204V59.436H83.67V61.092H79.404V57.186ZM86.118 64.368L87.432 63.378C88.098 63.774 88.908 64.422 89.286 64.908L87.9 66.006C87.558 65.52 86.784 64.818 86.118 64.368ZM87.81 58.788L89.142 58.32C89.97 58.914 90.942 59.832 91.428 60.498L90.006 60.984C89.592 60.354 88.656 59.436 87.81 58.788ZM92.958 57.618H93.318L93.66 57.564L94.776 58.122C93.174 61.002 89.772 62.118 85.884 62.64C85.704 62.262 85.344 61.74 85.056 61.416C88.512 61.056 91.698 60.03 92.958 57.87V57.618ZM89.826 56.628L91.572 57.024C90.24 58.194 88.512 58.968 86.136 59.616C85.92 59.238 85.416 58.68 85.074 58.41C87.234 57.978 88.872 57.348 89.826 56.628ZM89.394 57.618H93.498V58.788H87.792L89.394 57.618ZM79.71 62.802H81.6V63.702C81.6 64.53 81.366 66.348 80.16 67.356C79.8 67.068 78.99 66.636 78.522 66.438C79.548 65.628 79.71 64.26 79.71 63.63V62.802ZM85.866 66.492H88.008V67.77C88.008 69.804 86.928 72.594 79.692 73.728C79.44 73.242 78.918 72.45 78.486 71.982C84.912 71.028 85.866 69.048 85.866 67.698V66.492ZM87.45 70.848L88.368 69.39C90.528 70.092 93.822 71.226 95.496 71.946L94.524 73.638C92.94 72.882 89.7 71.64 87.45 70.848ZM85.632 59.814C86.406 59.76 87.288 59.688 88.332 59.616L88.35 60.624C87.45 60.732 86.64 60.804 85.812 60.894L85.632 59.814ZM104.37 57.618H112.434V66.366H110.22V59.85H104.37V57.618ZM105.81 63.27H111.3V65.394H105.81V63.27ZM104.712 63.27H106.98V70.398C106.98 71.172 107.124 71.298 107.934 71.298C108.312 71.298 109.914 71.298 110.364 71.298C111.156 71.298 111.282 70.83 111.39 68.364C111.894 68.724 112.83 69.12 113.442 69.264C113.208 72.36 112.614 73.296 110.544 73.296C110.076 73.296 108.078 73.296 107.628 73.296C105.432 73.296 104.712 72.666 104.712 70.416V63.27ZM101.274 64.062L102.858 63.468C103.398 64.638 104.01 66.186 104.226 67.14L102.534 67.86C102.336 66.87 101.796 65.286 101.274 64.062ZM99.492 68.832L101.202 68.418C101.454 69.714 101.67 71.37 101.724 72.504L99.924 72.954C99.888 71.838 99.69 70.128 99.492 68.832ZM97.314 68.598L99.114 68.904C98.988 70.524 98.664 72.234 98.268 73.35C97.872 73.116 96.99 72.846 96.54 72.72C96.954 71.676 97.188 70.056 97.314 68.598ZM97.224 63.864C97.116 63.468 96.792 62.514 96.576 62.01C96.936 61.902 97.26 61.56 97.62 61.02C98.016 60.516 99.222 58.5 99.906 56.574L101.85 57.384C100.932 59.346 99.636 61.398 98.412 62.82V62.874C98.412 62.874 97.224 63.504 97.224 63.864ZM97.224 63.864L97.17 62.334L98.052 61.758L101.238 61.524C101.13 62.064 101.022 62.838 101.022 63.27C98.196 63.558 97.584 63.684 97.224 63.864ZM97.35 68.04C97.26 67.644 96.9 66.636 96.666 66.096C97.152 65.97 97.566 65.556 98.178 64.89C98.808 64.242 100.788 61.632 101.976 59.13L103.794 60.282C102.408 62.73 100.464 65.196 98.592 66.978V67.032C98.592 67.032 97.35 67.662 97.35 68.04ZM97.35 68.04L97.242 66.456L98.16 65.826L102.894 65.196C102.804 65.736 102.768 66.528 102.786 66.96C98.52 67.626 97.8 67.806 97.35 68.04ZM101.634 68.418L103.236 67.878C103.65 68.976 104.1 70.38 104.316 71.298L102.606 71.928C102.444 70.974 101.994 69.516 101.634 68.418ZM115.836 61.254H120.192V63.054H115.836V61.254ZM114.792 64.386H121.02V66.204H114.792V64.386ZM114.756 67.05L116.16 66.69C116.448 67.662 116.718 68.94 116.826 69.768L115.35 70.182C115.278 69.336 115.008 68.04 114.756 67.05ZM114.486 71.19C116.106 70.992 118.59 70.614 121.002 70.236L121.11 71.928C118.95 72.378 116.664 72.81 114.918 73.134L114.486 71.19ZM119.94 66.582L121.308 66.924C121.02 67.968 120.714 69.174 120.462 69.948L119.346 69.624C119.562 68.796 119.832 67.482 119.94 66.582ZM117.186 61.992H118.932V71.64L117.186 71.982V61.992ZM117.708 56.646L119.328 57.24C118.338 59.382 116.664 61.632 114.972 63.036C114.918 62.586 114.54 61.416 114.306 60.912C115.602 59.868 116.934 58.284 117.708 56.646ZM117.456 58.518L118.59 57.312C119.67 58.32 121.254 59.778 122.01 60.624L120.786 62.046C120.066 61.11 118.554 59.598 117.456 58.518ZM129.768 65.358L131.208 66.564C130.452 67.356 129.57 68.22 128.904 68.778L127.734 67.698C128.364 67.122 129.264 66.114 129.768 65.358ZM121.416 66.402L122.838 65.376C123.468 66.042 124.296 66.96 124.692 67.572L123.18 68.706C122.838 68.094 122.028 67.104 121.416 66.402ZM123.828 58.212H128.526V59.85H123.828V58.212ZM123.36 60.876H128.13V62.496H123.36V60.876ZM121.29 63.288H131.37V65.178H121.29V63.288ZM125.178 64.476H127.158V71.586C127.158 72.504 127.032 73.008 126.438 73.314C125.88 73.584 125.106 73.638 124.08 73.638C124.008 73.098 123.756 72.306 123.504 71.784C124.08 71.82 124.728 71.802 124.908 71.802C125.124 71.802 125.178 71.748 125.178 71.568V64.476ZM120.822 70.758C121.686 70.272 122.964 69.462 124.224 68.634L124.836 70.2C123.9 70.938 122.82 71.73 121.902 72.378L120.822 70.758ZM123.486 56.7L125.484 56.916C125.07 58.788 124.494 61.092 124.062 62.496H121.992C122.496 61.002 123.108 58.572 123.486 56.7ZM127.932 58.212H128.166L128.49 58.14L129.966 58.338C129.696 60.12 129.246 62.262 128.85 63.972L126.888 63.72C127.302 61.974 127.752 59.67 127.932 58.446V58.212ZM127.32 69.93L128.454 68.652C129.444 69.318 130.866 70.326 131.568 70.938L130.38 72.396C129.732 71.748 128.328 70.668 127.32 69.93ZM136.356 56.79L138.372 57.42C137.256 60.462 135.42 63.72 133.512 65.79C133.314 65.268 132.738 64.08 132.378 63.558C133.962 61.92 135.456 59.364 136.356 56.79ZM134.574 61.812L136.698 59.67L136.716 59.688V73.602H134.574V61.812ZM138.768 58.716H148.308V60.732H138.768V58.716ZM138.408 66.762H148.668V68.796H138.408V66.762ZM137.94 62.622H149.118V64.656H137.94V62.622ZM137.4 70.956H149.442V73.044H137.4V70.956ZM142.386 56.718H144.582V63.846H142.386V56.718ZM142.386 65.178H144.582V72.468H142.386V65.178Z" fill="black"/>
<path d="M88.9219 251.621V296.054L95.8856 292.129V251.613L88.9219 251.621Z" fill="#DB3428"/>
<path d="M119.21 251.621L112.246 251.613V292.129L119.21 296.054V251.621Z" fill="#DB3428"/>
<path d="M104.069 251.598L95.8848 251.614V292.129L104.069 287.52L112.245 292.129V251.614L104.069 251.598Z" fill="#0097BB"/>
<path d="M132.322 229.098L124.425 223.72L121.752 214.557L112.208 214.852L104.661 209L104.638 209.023L104.412 237.756L87.5625 261.609L97.1143 261.313L104.661 267.166L112.208 261.313L121.752 261.609L124.425 252.446L132.322 247.067L129.088 238.083L132.322 229.098Z" fill="#F8D602"/>
<path d="M104.637 209.023L97.114 214.852L87.5622 214.557L84.8964 223.72L77 229.099L80.2332 238.083L77 247.067L84.8964 252.446L87.5622 261.609L104.412 237.757L104.637 209.023Z" fill="#FFF95A"/>
<path d="M77 229.098L104.412 237.756L80.2332 238.083" fill="#F8D602"/>
<path d="M90.298 239.024C90.298 230.537 96.912 223.596 105.267 223.075C104.933 223.052 104.591 223.037 104.249 223.037C95.4198 223.037 88.2617 230.195 88.2617 239.024C88.2617 247.853 95.4198 255.011 104.249 255.011C104.591 255.011 104.933 254.995 105.267 254.972C96.912 254.443 90.298 247.511 90.298 239.024Z" fill="#DB3428"/>
<path d="M120.237 239.024C120.237 230.537 113.623 223.596 105.268 223.076C96.9128 223.604 90.2988 230.537 90.2988 239.024C90.2988 247.511 96.9128 254.451 105.268 254.972C113.623 254.444 120.237 247.511 120.237 239.024Z" fill="#F6951E"/>
<path d="M115.496 235.27L107.841 234.158L104.414 227.218V237.757L97.5819 248.187L97.5664 248.296L104.414 244.689L111.261 248.296L109.955 240.671L115.496 235.27Z" fill="#F8D602"/>
<path d="M104.413 227.218L100.993 234.158L93.3379 235.27L98.8716 240.671L97.5814 248.187L104.413 237.757V227.218Z" fill="#FFF95A"/>
<path d="M96.5002 272.823H96.0261L92.7852 274.657V270.966L97.0753 268.51H100.176V285.189H96.508V272.823H96.5002Z" fill="white"/>
<path d="M102.641 280.09H106.309C106.426 281.497 107.428 282.142 108.571 282.142C109.713 282.142 110.762 281.287 110.762 279.733C110.762 278.52 110.071 277.494 108.019 277.494H106.091V274.494L108.998 271.852H103.348V268.518H113.599V271.494L110.622 274.238V274.712C112.768 275.069 114.485 277.02 114.485 279.764C114.485 282.507 112.698 285.484 108.578 285.484C104.762 285.484 102.765 282.865 102.641 280.098V280.09Z" fill="white"/>
<defs>
<filter id="filter0_d_1114_1019" x="2" y="39" width="207" height="305" filterUnits="userSpaceOnUse" color-interpolation-filters="sRGB">
<feFlood flood-opacity="0" result="BackgroundImageFix"/>
<feColorMatrix in="SourceAlpha" type="matrix" values="0 0 0 0 0 0 0 0 0 0 0 0 0 0 0 0 0 0 127 0" result="hardAlpha"/>
<feOffset dx="1" dy="2"/>
<feGaussianBlur stdDeviation="15"/>
<feComposite in2="hardAlpha" operator="out"/>
<feColorMatrix type="matrix" values="0 0 0 0 0 0 0 0 0 0 0 0 0 0 0 0 0 0 0.25 0"/>
<feBlend mode="normal" in2="BackgroundImageFix" result="effect1_dropShadow_1114_1019"/>
<feBlend mode="normal" in="SourceGraphic" in2="effect1_dropShadow_1114_1019" result="shape"/>
</filter>
<filter id="filter1_d_1114_1019" x="0" y="0" width="210" height="131.927" filterUnits="userSpaceOnUse" color-interpolation-filters="sRGB">
<feFlood flood-opacity="0" result="BackgroundImageFix"/>
<feColorMatrix in="SourceAlpha" type="matrix" values="0 0 0 0 0 0 0 0 0 0 0 0 0 0 0 0 0 0 127 0" result="hardAlpha"/>
<feOffset dy="4"/>
<feGaussianBlur stdDeviation="10"/>
<feComposite in2="hardAlpha" operator="out"/>
<feColorMatrix type="matrix" values="0 0 0 0 0 0 0 0 0 0 0 0 0 0 0 0 0 0 0.25 0"/>
<feBlend mode="normal" in2="BackgroundImageFix" result="effect1_dropShadow_1114_1019"/>
<feBlend mode="normal" in="SourceGraphic" in2="effect1_dropShadow_1114_1019" result="shape"/>
</filter>
<linearGradient id="paint0_linear_1114_1019" x1="46.9683" y1="16" x2="167.488" y2="141.534" gradientUnits="userSpaceOnUse">
<stop stop-color="#FFDF7E"/>
<stop offset="0.572917" stop-color="#FFC000"/>
<stop offset="1" stop-color="#C59400"/>
</linearGradient>
<linearGradient id="paint1_linear_1114_1019" x1="23.4725" y1="79.6097" x2="174.511" y2="252.809" gradientUnits="userSpaceOnUse">
<stop stop-color="#FFD040"/>
<stop offset="0.520833" stop-color="#FFC000"/>
<stop offset="1" stop-color="#D7A100"/>
</linearGradient>
</defs>
</svg>
