<svg width="210" height="344" viewBox="0 0 210 344" fill="none" xmlns="http://www.w3.org/2000/svg">
<g filter="url(#filter0_d_1114_1015)">
<rect x="31" y="67" width="147" height="245" fill="white"/>
</g>
<g filter="url(#filter1_d_1114_1015)">
<path d="M179.533 64.4116V16H30.467V64.4116H20L105 107.927L190 64.4116H179.533Z" fill="url(#paint0_linear_1114_1015)"/>
</g>
<path d="M31 312L31 81.9688L34.7637 83.7899V308.226H174.252V83.856L178.016 82.0348V312H31Z" fill="url(#paint1_linear_1114_1015)"/>
<path d="M42.912 145.832H57.104V146.904H42.912V145.832ZM45.84 142.328V143.64H54.224V142.328H45.84ZM45.84 140.152V141.448H54.224V140.152H45.84ZM44.704 139.24H55.408V144.568H44.704V139.24ZM49.456 144.328H50.64C50.16 147.752 48.848 149.528 43.136 150.296C43.056 150.008 42.784 149.496 42.576 149.24C47.968 148.632 49.04 147.192 49.456 144.328ZM46.544 135.576H47.712V138.984H46.544V135.576ZM52.224 135.576H53.408V138.984H52.224V135.576ZM42.992 136.6H49.744V137.672H42.992V136.6ZM50.304 136.6H57.024V137.672H50.304V136.6ZM50.352 147.8L50.912 146.968C52.976 147.624 55.824 148.664 57.312 149.336L56.736 150.296C55.296 149.608 52.464 148.504 50.352 147.8ZM67.44 135.672H68.544V146.552H67.44V135.672ZM64.896 143.176V145.992H71.264V143.176H64.896ZM64.896 139.4V142.168H71.264V139.4H64.896ZM63.856 138.344H72.352V147.064H63.856V138.344ZM59.328 136.12L60.224 135.592C60.96 136.36 61.84 137.384 62.288 138.04L61.36 138.696C60.928 138.024 60.032 136.904 59.328 136.12ZM58.752 139.256H62.256V140.264H58.752V139.256ZM61.6 146.6C62.576 148.696 64.672 148.984 67.824 148.984C69.504 148.984 71.84 148.904 73.472 148.776C73.296 149.032 73.136 149.592 73.072 149.928C71.568 150.008 69.568 150.056 67.824 150.056C64.08 150.056 62 149.608 60.8 146.968L61.6 146.6ZM61.824 143.256H62.096L62.304 143.224L62.912 143.448C62.352 146.872 61.024 149.128 59.232 150.328C59.072 150.072 58.672 149.672 58.448 149.496C60.144 148.424 61.376 146.392 61.824 143.464V143.256ZM58.976 144.456V143.544L59.552 143.256H62.224L62.208 144.232H59.92C59.504 144.232 59.088 144.328 58.976 144.456ZM58.976 144.456C58.896 144.184 58.656 143.624 58.528 143.368C58.768 143.304 59.024 143.208 59.296 142.888C59.808 142.408 61.344 140.232 61.872 139.384V139.336L62.24 139.176L63.024 139.56C62.272 140.648 60.8 142.68 59.872 143.704C59.872 143.704 58.976 144.152 58.976 144.456ZM74.752 136.424H80.032V137.528H74.752V136.424ZM76.304 141.352H79.68V148.264H76.304V147.192H78.656V142.424H76.304V141.352ZM76.832 136.952L77.952 137.192C77.392 140.232 76.464 143.144 74.992 145.064C74.928 144.76 74.64 144.072 74.448 143.752C75.664 142.12 76.416 139.624 76.832 136.952ZM75.808 141.352H76.8V149.56H75.808V141.352ZM89.056 136.456V137.56H81.568V148.584H89.264V149.688H80.48V136.456H89.056ZM84.992 138.248H85.984V147.816H84.992V138.248ZM87.552 139.976H88.512V145.032C88.512 145.48 88.432 145.752 88.128 145.944C87.824 146.104 87.376 146.12 86.656 146.12C86.624 145.848 86.48 145.448 86.352 145.192C86.832 145.192 87.232 145.192 87.36 145.192C87.504 145.176 87.552 145.144 87.552 145V139.976ZM82.56 139.976H88.016V141H83.472V146.184H82.56V139.976ZM91.776 139.64H95.968V140.68H91.776V139.64ZM90.912 142.44H96.464V143.48H90.912V142.44ZM91.2 144.536L91.968 144.328C92.272 145.272 92.528 146.488 92.624 147.288L91.792 147.528C91.728 146.712 91.488 145.496 91.2 144.536ZM90.72 148.664C92.128 148.392 94.32 147.928 96.464 147.464L96.528 148.44C94.56 148.904 92.496 149.4 90.992 149.736L90.72 148.664ZM95.44 144.136L96.304 144.424C96.032 145.416 95.696 146.584 95.424 147.336L94.72 147.08C94.976 146.296 95.28 145.016 95.44 144.136ZM93.312 140.104H94.288V148.648L93.312 148.808V140.104ZM93.744 135.48L94.656 135.896C93.792 137.72 92.368 139.528 90.992 140.68C90.912 140.408 90.656 139.768 90.48 139.464C91.728 138.536 92.992 137.048 93.744 135.48ZM93.344 137.128L93.824 136.264C94.976 136.968 96.192 137.944 96.912 138.664L96.368 139.64C95.648 138.872 94.432 137.864 93.344 137.128ZM97.312 138.056L105.104 137.416L105.2 138.392L97.408 139.048L97.312 138.056ZM97.184 145.112L105.28 144.408L105.36 145.384L97.264 146.104L97.184 145.112ZM99.168 135.592H100.24C100.432 139.176 102.256 141.736 103.904 141.72C104.304 141.72 104.416 141.336 104.48 140.28C104.72 140.488 105.056 140.648 105.328 140.728C105.152 142.296 104.784 142.728 103.856 142.728C101.488 142.728 99.44 139.688 99.168 135.592ZM98.896 142.536H99.984C100.192 146.392 102.224 149.288 103.984 149.272C104.4 149.272 104.544 148.824 104.624 147.592C104.864 147.8 105.2 147.944 105.472 148.04C105.312 149.8 104.912 150.296 103.936 150.296C101.44 150.28 99.168 146.888 98.896 142.536ZM101.36 136.28L101.92 135.608C102.656 135.88 103.568 136.328 104.048 136.664L103.456 137.4C102.992 137.048 102.08 136.584 101.36 136.28ZM101.168 143.336L101.744 142.664C102.544 142.904 103.6 143.304 104.144 143.624L103.568 144.392C103.024 144.072 102 143.608 101.168 143.336ZM103.216 138.76L104.224 139.112C102.816 140.856 100.128 142.024 97.632 142.728C97.488 142.504 97.152 142.072 96.928 141.848C99.408 141.288 101.984 140.264 103.216 138.76ZM103.2 145.768L104.224 146.12C102.8 148.136 100.08 149.48 97.424 150.312C97.312 150.072 96.944 149.624 96.72 149.416C99.344 148.744 101.936 147.528 103.2 145.768ZM112.576 135.752H113.728V143.368H112.576V135.752ZM110.352 138.68H115.824V139.784H110.352V138.68ZM110.784 142.84H111.84V149.56H110.784V142.84ZM111.408 142.84H115.504V148.52H111.408V147.464H114.432V143.88H111.408V142.84ZM117.136 135.576L118.224 135.752C117.76 138.632 116.992 141.432 115.776 143.256C115.648 143.032 115.248 142.552 115.04 142.328C116.112 140.68 116.768 138.152 117.136 135.576ZM117.072 138.68H121.36V139.72H116.768L117.072 138.68ZM119.6 139.096L120.672 139.176C120.128 144.616 118.816 148.12 115.392 150.312C115.248 150.104 114.848 149.672 114.624 149.48C117.968 147.544 119.152 144.168 119.6 139.096ZM117.168 139.4C117.52 142.92 118.352 147.32 121.52 149.336C121.312 149.56 120.944 149.992 120.784 150.28C117.536 147.992 116.672 143.464 116.32 139.928L117.168 139.4ZM109.712 135.656L110.832 135.96C109.92 138.712 108.496 141.512 106.912 143.368C106.8 143.096 106.48 142.456 106.272 142.152C107.68 140.552 108.944 138.104 109.712 135.656ZM108.432 139.576L109.504 138.488L109.536 138.52V150.28H108.432V139.576ZM130.976 138.536H137.216V139.64H130.976V138.536ZM131.536 135.56L132.72 135.784C132.096 138.744 131.072 141.576 129.696 143.416C129.504 143.192 129.04 142.744 128.768 142.536C130.096 140.888 131.008 138.264 131.536 135.56ZM134.976 139.192L136.224 139.336C135.36 144.888 133.52 148.296 129.376 150.344C129.248 150.056 128.88 149.512 128.64 149.256C132.576 147.496 134.256 144.296 134.976 139.192ZM131.52 139.544C132.336 143.992 134.144 147.672 137.472 149.208C137.184 149.432 136.832 149.896 136.64 150.216C133.168 148.44 131.392 144.616 130.448 139.752L131.52 139.544ZM123.392 149.512L123.248 148.328L123.808 147.816L128.88 146.008C128.88 146.36 128.96 146.856 129.024 147.128C124.352 148.92 123.76 149.208 123.392 149.512ZM123.392 149.512C123.328 149.176 123.12 148.584 122.912 148.264C123.152 148.168 123.424 147.96 123.424 147.368V141.272H124.624V148.536C124.624 148.536 123.392 149.08 123.392 149.512ZM123.216 136.68H128.896V142.456H123.696V141.272H127.696V137.864H123.216V136.68ZM145.36 139.864H146.608V150.296H145.36V139.864ZM139.104 136.952H152.912V138.008H139.104V136.952ZM138.832 146.664H153.184V147.768H138.832V146.664ZM142.416 135.56H143.6V139.368H148.368V135.56H149.6V140.296H142.416V135.56ZM141.808 142.392V144.296H150.24V142.392H141.808ZM140.608 141.4H151.504V145.272H140.608V141.4ZM160.688 145.992L160.32 145.144C161.632 144.616 162.352 143.8 162.352 142.584L162.048 141.24L162.912 142.456C162.688 142.744 162.368 142.824 162.064 142.824C161.408 142.824 160.864 142.424 160.864 141.672C160.864 140.92 161.44 140.52 162.08 140.52C162.976 140.52 163.456 141.256 163.456 142.376C163.456 144.104 162.368 145.416 160.688 145.992ZM64.608 158.36H73.12V159.448H64.608V158.36ZM64.96 166.664H72.624V167.736H64.96V166.664ZM64.08 170.808H73.28V171.912H64.08V170.808ZM68.176 167.176H69.376V171.48H68.176V167.176ZM66.144 159.976L67.184 160.248C66.768 161.064 66.144 162.088 65.6 162.904C66.304 163.832 67.024 164.968 67.376 165.688L66.368 166.104C66.032 165.272 65.28 164.04 64.432 162.92C65.072 161.944 65.776 160.744 66.144 159.976ZM68.912 159.992L69.968 160.264C69.52 161.08 68.896 162.088 68.352 162.888C69.072 163.8 69.824 164.92 70.176 165.64L69.184 166.072C68.832 165.24 68.048 164.008 67.168 162.904C67.84 161.944 68.544 160.744 68.912 159.992ZM71.68 159.976L72.752 160.264C72.272 161.08 71.632 162.088 71.088 162.904C71.84 163.816 72.64 164.92 73.024 165.64L72.048 166.104C71.648 165.272 70.8 164.024 69.888 162.92C70.576 161.96 71.296 160.744 71.68 159.976ZM62.448 163.88L63.376 163.624C63.808 164.68 64.272 166.088 64.432 166.936L63.456 167.256C63.296 166.408 62.88 164.968 62.448 163.88ZM60.992 168.008L61.92 167.832C62.112 168.92 62.32 170.296 62.368 171.224L61.392 171.416C61.36 170.488 61.184 169.08 60.992 168.008ZM59.328 167.864L60.368 168.04C60.192 169.448 59.872 171 59.536 172.008C59.312 171.896 58.816 171.736 58.56 171.64C58.944 170.648 59.184 169.192 59.328 167.864ZM58.944 163.56C58.88 163.32 58.704 162.776 58.56 162.488C58.848 162.424 59.12 162.088 59.456 161.592C59.808 161.128 60.928 159.288 61.568 157.544L62.656 157.992C61.824 159.784 60.736 161.656 59.664 162.936V162.952C59.664 162.952 58.944 163.32 58.944 163.56ZM58.944 163.56L58.912 162.68L59.488 162.328L62.32 162.088C62.256 162.376 62.224 162.808 62.224 163.048C59.648 163.336 59.2 163.432 58.944 163.56ZM59.04 167.16C58.976 166.92 58.8 166.376 58.656 166.056C59.008 165.992 59.36 165.576 59.84 165C60.336 164.424 61.984 162.152 63.024 160.008L64.048 160.6C62.832 162.76 61.312 164.984 59.792 166.536V166.568C59.792 166.568 59.04 166.92 59.04 167.16ZM59.04 167.16L59.008 166.28L59.584 165.912L63.52 165.4C63.472 165.688 63.456 166.12 63.472 166.36C59.856 166.888 59.36 167 59.04 167.16ZM62.544 167.688L63.408 167.416C63.728 168.28 64.096 169.4 64.24 170.12L63.328 170.424C63.2 169.688 62.864 168.552 62.544 167.688ZM76.672 158.328H89.104V159.432H76.672V158.328ZM76.896 170.824H89.152V171.848H76.896V170.824ZM83.152 167.88H87.6V168.84H83.152V167.88ZM75.952 158.328H77.088V163.08C77.088 165.736 76.896 169.608 75.536 172.248C75.328 172.072 74.832 171.784 74.528 171.672C75.824 169.144 75.952 165.608 75.952 163.064V158.328ZM82.528 166.264H83.696V171.384H82.528V166.264ZM78.96 167.416H80.112V171.4H78.96V167.416ZM77.584 162.264H82.544V163.16H77.584V162.264ZM79.648 160.472H80.672V166.312H79.648V160.472ZM79.504 162.632L80.208 162.904C79.68 164.168 78.672 165.528 77.728 166.232C77.568 165.992 77.264 165.656 77.04 165.48C77.968 164.92 78.976 163.72 79.504 162.632ZM83.04 162.264H88.88V163.16H83.04V162.264ZM85.216 160.472H86.256V166.312H85.216V160.472ZM84.88 162.632L85.584 162.904C85.024 164.184 83.92 165.544 82.88 166.248C82.736 165.992 82.432 165.656 82.208 165.48C83.216 164.92 84.32 163.736 84.88 162.632ZM80.592 163.208C80.976 163.432 82.176 164.296 82.48 164.568L81.856 165.336C81.504 164.936 80.448 164.008 80 163.672L80.592 163.208ZM81.504 159.816L82.32 160.456C81.184 160.92 79.392 161.208 77.92 161.32C77.856 161.128 77.728 160.808 77.616 160.6C79.024 160.456 80.656 160.184 81.504 159.816ZM87.28 159.768L88.112 160.424C86.88 160.888 84.96 161.176 83.36 161.288C83.312 161.096 83.184 160.744 83.072 160.552C84.576 160.408 86.368 160.152 87.28 159.768ZM86.24 163.288C86.784 163.624 88.688 164.984 89.136 165.352L88.56 166.168C87.984 165.608 86.336 164.264 85.68 163.8L86.24 163.288ZM98.832 163.112V165.928H102.864V163.112H98.832ZM97.776 162.104H103.984V166.936H97.776V162.104ZM99.088 157.72L100.208 157.992C99.52 159.976 98.368 161.832 97.104 163.016C96.928 162.808 96.496 162.408 96.24 162.216C97.472 161.144 98.512 159.48 99.088 157.72ZM99.136 166.664H100.224C100.032 169.528 99.392 171.32 96.592 172.296C96.464 172.04 96.16 171.624 95.936 171.416C98.448 170.6 98.976 169.112 99.136 166.664ZM101.392 166.568H102.512V170.712C102.512 171.096 102.576 171.144 102.928 171.144C103.072 171.144 103.84 171.144 104.032 171.144C104.384 171.144 104.464 170.92 104.496 169.176C104.72 169.352 105.2 169.544 105.504 169.624C105.392 171.704 105.104 172.2 104.16 172.2C103.92 172.2 102.992 172.2 102.768 172.2C101.664 172.2 101.392 171.864 101.392 170.728V166.568ZM93.136 157.64H94.144V161.032H93.136V157.64ZM91.568 160.376H96.224V166.408H91.568V165.384H95.264V161.4H91.568V160.376ZM90.992 160.376H91.936V167.224H90.992V160.376ZM93.232 160.904H94.048V165.752H94.144V170.008H93.12V165.752H93.232V160.904ZM90.56 170.104C91.952 169.864 93.984 169.464 96 169.048L96.08 170.12C94.208 170.536 92.24 170.936 90.784 171.256L90.56 170.104ZM94.928 167.576L95.84 167.336C96.24 168.504 96.608 169.992 96.752 170.984L95.776 171.256C95.664 170.264 95.296 168.744 94.928 167.576ZM101.2 158.104L102.096 157.608C103.328 159.048 104.704 161 105.296 162.264L104.32 162.856C103.744 161.592 102.416 159.592 101.2 158.104ZM111.808 160.392H116.112V161.128H111.808V160.392ZM111.808 161.848H116.112V162.584H111.808V161.848ZM111.472 158.92H116.464V159.672H111.472V158.92ZM112.688 164.12V165.544H115.2V164.12H112.688ZM111.888 163.4H116.032V166.28H111.888V163.4ZM110 161.48L110.72 161.288C111.072 162.024 111.424 162.984 111.536 163.56L110.768 163.8C110.656 163.208 110.336 162.216 110 161.48ZM107.136 161.288C107.088 161.096 106.944 160.648 106.832 160.408C107.056 160.376 107.248 160.2 107.472 159.928C107.712 159.656 108.496 158.568 108.944 157.528L109.84 157.848C109.264 158.968 108.512 160.056 107.824 160.776V160.792C107.824 160.792 107.136 161.064 107.136 161.288ZM107.136 161.288V160.632L107.616 160.36L109.872 160.248C109.824 160.472 109.792 160.808 109.776 160.984C107.744 161.144 107.344 161.192 107.136 161.288ZM107.136 163.768C107.088 163.576 106.944 163.128 106.848 162.888C107.12 162.856 107.44 162.584 107.808 162.232C108.208 161.864 109.52 160.424 110.4 159.016L111.264 159.416C110.208 160.888 109.008 162.312 107.84 163.256V163.288C107.84 163.288 107.136 163.544 107.136 163.768ZM107.136 163.768L107.12 163.112L107.584 162.808L111.056 162.392C111.008 162.616 110.992 162.936 111.008 163.112C107.824 163.544 107.376 163.64 107.136 163.768ZM108.592 164.248L109.344 164.104C109.52 164.808 109.664 165.752 109.696 166.344L108.896 166.52C108.88 165.896 108.736 164.968 108.592 164.248ZM107.2 164.104L108.016 164.264C107.888 165.192 107.68 166.248 107.424 166.952C107.264 166.84 106.928 166.632 106.72 166.52C106.992 165.848 107.12 164.952 107.2 164.104ZM110.096 164.152L110.8 163.96C111.024 164.6 111.264 165.432 111.344 165.944L110.592 166.184C110.512 165.64 110.288 164.792 110.096 164.152ZM113.04 157.816L113.952 157.512C114.272 157.992 114.608 158.664 114.704 159.112L113.76 159.48C113.648 159.016 113.36 158.328 113.04 157.816ZM119.68 161.368L120.416 161.192C120.784 161.928 121.136 162.936 121.232 163.544L120.448 163.784C120.352 163.16 120.032 162.136 119.68 161.368ZM116.72 161.256C116.672 161.064 116.528 160.616 116.432 160.376C116.64 160.344 116.848 160.168 117.072 159.896C117.296 159.624 118.08 158.568 118.544 157.528L119.424 157.848C118.848 158.952 118.096 160.024 117.424 160.728V160.744C117.424 160.744 116.72 161.032 116.72 161.256ZM116.72 161.256V160.6L117.2 160.344L119.456 160.216C119.408 160.44 119.376 160.776 119.376 160.952C117.344 161.112 116.928 161.16 116.72 161.256ZM116.768 163.672C116.72 163.48 116.592 163.048 116.496 162.808C116.768 162.776 117.072 162.52 117.44 162.152C117.84 161.784 119.12 160.376 119.984 158.968L120.832 159.368C119.808 160.808 118.64 162.216 117.52 163.176V163.192C117.52 163.192 116.768 163.464 116.768 163.672ZM116.768 163.672L116.752 163.016L117.232 162.712L120.64 162.312C120.608 162.536 120.592 162.856 120.608 163.016C117.472 163.464 117.024 163.544 116.768 163.672ZM118.336 164.168L119.088 164.04C119.264 164.76 119.392 165.704 119.424 166.296L118.624 166.456C118.624 165.832 118.512 164.904 118.336 164.168ZM116.896 164.04L117.728 164.232C117.6 165.064 117.392 166.072 117.168 166.728C117.008 166.6 116.656 166.408 116.448 166.312C116.672 165.64 116.8 164.808 116.896 164.04ZM119.824 164.008L120.544 163.832C120.816 164.552 121.072 165.528 121.184 166.136L120.432 166.36C120.32 165.72 120.064 164.744 119.824 164.008ZM110.384 167.256H120.752V168.2H110.384V167.256ZM117.744 167.528L118.848 167.896C116.624 170.776 111.872 171.832 107.168 172.392C107.056 172.12 106.784 171.624 106.592 171.368C111.264 171 115.856 169.992 117.744 167.528ZM111.056 166.2L112.112 166.52C111.104 168.104 109.296 169.4 107.536 170.2C107.392 169.96 107.04 169.496 106.832 169.272C108.512 168.632 110.192 167.528 111.056 166.2ZM110.56 167.976C112.672 169.848 117.056 170.984 121.392 171.336C121.168 171.592 120.896 172.024 120.768 172.312C116.416 171.864 112.032 170.616 109.648 168.424L110.56 167.976ZM128.272 161.352H131.136V162.184H128.272V161.352ZM128.048 159.064H137.264V160.056H128.048V159.064ZM129.872 166.472H135.68V167.432H129.872V166.472ZM129.76 168.76H135.696V169.736H129.76V168.76ZM132.304 161.96H133.152V165.352H132.304V161.96ZM135.168 165.416H136.208V172.264H135.168V165.416ZM130.752 161.352H131.536C131.536 161.352 131.536 161.608 131.536 161.736C131.472 163.768 131.424 164.568 131.216 164.856C131.056 165.048 130.896 165.128 130.592 165.16C130.416 165.176 130.096 165.176 129.792 165.176C129.76 164.92 129.696 164.584 129.584 164.36C129.92 164.392 130.16 164.392 130.272 164.392C130.4 164.408 130.464 164.392 130.544 164.28C130.656 164.104 130.704 163.432 130.752 161.496V161.352ZM136.448 160.744L137.136 161.368C136.352 161.8 135.248 162.168 134.288 162.392C134.24 162.216 134.128 161.928 134.016 161.72C134.896 161.48 135.904 161.096 136.448 160.744ZM133.76 160.072L134.56 160.408C134.016 161.048 133.36 161.768 132.832 162.216L132.288 161.96C132.784 161.432 133.408 160.616 133.76 160.072ZM136.128 161.448C136.32 162.728 136.72 164.024 137.408 164.632C137.248 164.76 137.008 165.048 136.88 165.256C136.144 164.504 135.728 163.048 135.52 161.608L136.128 161.448ZM129.344 165.432H130.384V167.56C130.384 169.064 130.096 171 128.448 172.28C128.256 172.088 127.856 171.784 127.616 171.624C129.12 170.472 129.344 168.792 129.344 167.544V165.432ZM129.168 161.624L129.952 161.672C129.84 163.4 129.376 164.664 128.352 165.464C128.24 165.288 128.016 164.936 127.824 164.776C128.72 164.136 129.088 163.08 129.168 161.624ZM131.168 160.408L131.792 160.12C132.08 160.504 132.368 161.032 132.496 161.384L131.824 161.736C131.696 161.368 131.424 160.808 131.168 160.408ZM131.68 157.688L132.592 157.368C132.976 157.928 133.408 158.728 133.584 159.208L132.624 159.592C132.448 159.08 132.048 158.264 131.68 157.688ZM134.016 161.736H134.752V164.584L134.064 165.448C133.984 165.224 133.824 164.84 133.68 164.648C133.84 164.536 134.016 164.28 134.016 163.672V161.736ZM134.064 165.464L134.032 164.76L134.352 164.424L135.936 163.944C135.952 164.152 136.016 164.44 136.064 164.616C134.544 165.16 134.24 165.304 134.064 165.464ZM124.192 159.272V162.04H126.608V159.272H124.192ZM123.232 158.264H127.584V163.048H123.232V158.264ZM125.152 162.632H126.128V170.072H125.152V162.632ZM123.248 164.68H124.176V170.552H123.248V164.68ZM122.624 170.408C123.92 170.12 125.824 169.608 127.728 169.096L127.824 170.072C126.064 170.568 124.24 171.064 122.848 171.464L122.624 170.408ZM125.536 165.464H127.824V166.504H125.536V165.464ZM142.128 161.688H149.712V162.616H142.128V161.688ZM142.128 164.104H149.712V165.032H142.128V164.104ZM149.184 159.16H150.416V170.616C150.416 171.464 150.224 171.864 149.632 172.072C149.024 172.28 147.984 172.296 146.352 172.296C146.288 171.944 146.08 171.384 145.904 171.016C147.168 171.08 148.368 171.064 148.72 171.048C149.072 171.048 149.184 170.936 149.184 170.616V159.16ZM138.864 166.888C141.504 166.76 145.776 166.504 149.76 166.248L149.744 167.256C145.904 167.576 141.824 167.896 139.04 168.088L138.864 166.888ZM151.92 162.712L153.056 163.288C150.016 167.72 145.072 170.52 139.52 172.168C139.36 171.88 138.96 171.32 138.72 171.064C144.304 169.592 149.152 166.856 151.92 162.712ZM145.312 157.528L146.752 157.752C146.336 158.568 145.824 159.448 145.424 160.024L144.352 159.768C144.704 159.128 145.12 158.184 145.312 157.528ZM141.376 159.16H149.584V160.216H142.56V167.368H141.376V159.16ZM80.608 180.36H89.12V181.448H80.608V180.36ZM80.96 188.664H88.624V189.736H80.96V188.664ZM80.08 192.808H89.28V193.912H80.08V192.808ZM84.176 189.176H85.376V193.48H84.176V189.176ZM82.144 181.976L83.184 182.248C82.768 183.064 82.144 184.088 81.6 184.904C82.304 185.832 83.024 186.968 83.376 187.688L82.368 188.104C82.032 187.272 81.28 186.04 80.432 184.92C81.072 183.944 81.776 182.744 82.144 181.976ZM84.912 181.992L85.968 182.264C85.52 183.08 84.896 184.088 84.352 184.888C85.072 185.8 85.824 186.92 86.176 187.64L85.184 188.072C84.832 187.24 84.048 186.008 83.168 184.904C83.84 183.944 84.544 182.744 84.912 181.992ZM87.68 181.976L88.752 182.264C88.272 183.08 87.632 184.088 87.088 184.904C87.84 185.816 88.64 186.92 89.024 187.64L88.048 188.104C87.648 187.272 86.8 186.024 85.888 184.92C86.576 183.96 87.296 182.744 87.68 181.976ZM78.448 185.88L79.376 185.624C79.808 186.68 80.272 188.088 80.432 188.936L79.456 189.256C79.296 188.408 78.88 186.968 78.448 185.88ZM76.992 190.008L77.92 189.832C78.112 190.92 78.32 192.296 78.368 193.224L77.392 193.416C77.36 192.488 77.184 191.08 76.992 190.008ZM75.328 189.864L76.368 190.04C76.192 191.448 75.872 193 75.536 194.008C75.312 193.896 74.816 193.736 74.56 193.64C74.944 192.648 75.184 191.192 75.328 189.864ZM74.944 185.56C74.88 185.32 74.704 184.776 74.56 184.488C74.848 184.424 75.12 184.088 75.456 183.592C75.808 183.128 76.928 181.288 77.568 179.544L78.656 179.992C77.824 181.784 76.736 183.656 75.664 184.936V184.952C75.664 184.952 74.944 185.32 74.944 185.56ZM74.944 185.56L74.912 184.68L75.488 184.328L78.32 184.088C78.256 184.376 78.224 184.808 78.224 185.048C75.648 185.336 75.2 185.432 74.944 185.56ZM75.04 189.16C74.976 188.92 74.8 188.376 74.656 188.056C75.008 187.992 75.36 187.576 75.84 187C76.336 186.424 77.984 184.152 79.024 182.008L80.048 182.6C78.832 184.76 77.312 186.984 75.792 188.536V188.568C75.792 188.568 75.04 188.92 75.04 189.16ZM75.04 189.16L75.008 188.28L75.584 187.912L79.52 187.4C79.472 187.688 79.456 188.12 79.472 188.36C75.856 188.888 75.36 189 75.04 189.16ZM78.544 189.688L79.408 189.416C79.728 190.28 80.096 191.4 80.24 192.12L79.328 192.424C79.2 191.688 78.864 190.552 78.544 189.688ZM90.992 180.424L91.632 179.736C92.48 180.296 93.488 181.16 94 181.752L93.312 182.552C92.832 181.928 91.824 181.016 90.992 180.424ZM90.544 184.936L91.152 184.2C92.016 184.632 93.104 185.352 93.664 185.88L93.04 186.696C92.512 186.168 91.424 185.432 90.544 184.936ZM90.72 193.416C91.328 192.184 92.224 190.12 92.848 188.344L93.648 188.952C93.072 190.6 92.288 192.584 91.632 194.024L90.72 193.416ZM94.608 183.384H97.696V184.216H94.608V183.384ZM94.496 181.096H105.104V182.104H94.496V181.096ZM96.48 188.504H102.768V189.48H96.48V188.504ZM96.352 190.792H102.784V191.768H96.352V190.792ZM99.152 183.976H100.08V187.352H99.152V183.976ZM102.432 187.448H103.552V194.296H102.432V187.448ZM97.296 183.384H98.16C98.16 183.384 98.16 183.64 98.16 183.784C98.096 185.816 98.032 186.6 97.808 186.888C97.632 187.08 97.456 187.176 97.152 187.192C96.944 187.224 96.592 187.208 96.272 187.208C96.256 186.952 96.176 186.616 96.064 186.392C96.4 186.44 96.656 186.44 96.8 186.44C96.928 186.44 97.008 186.424 97.088 186.312C97.216 186.152 97.248 185.464 97.296 183.544V183.384ZM103.808 182.776L104.56 183.4C103.696 183.848 102.496 184.2 101.472 184.424C101.424 184.248 101.28 183.96 101.168 183.768C102.128 183.528 103.2 183.128 103.808 182.776ZM100.72 182.104L101.6 182.44C101.008 183.096 100.288 183.816 99.744 184.264L99.136 183.992C99.68 183.464 100.368 182.648 100.72 182.104ZM103.456 183.48C103.728 184.776 104.304 186.072 105.152 186.664C104.96 186.808 104.72 187.08 104.592 187.288C103.68 186.552 103.088 185.112 102.784 183.656L103.456 183.48ZM95.76 187.464H96.88V189.608C96.88 191.096 96.576 193.032 94.768 194.312C94.576 194.12 94.144 193.816 93.872 193.672C95.52 192.504 95.76 190.824 95.76 189.592V187.464ZM95.584 183.656L96.448 183.72C96.288 185.448 95.696 186.712 94.528 187.496C94.432 187.32 94.176 186.968 93.984 186.824C95.008 186.184 95.472 185.128 95.584 183.656ZM97.92 182.456L98.592 182.152C98.896 182.536 99.216 183.08 99.36 183.416L98.624 183.784C98.496 183.4 98.208 182.856 97.92 182.456ZM98.72 179.592L99.808 179.448C100.032 180.008 100.24 180.776 100.304 181.24L99.136 181.448C99.072 180.952 98.896 180.168 98.72 179.592ZM101.168 183.768H101.952V186.632L101.216 187.48C101.136 187.256 100.944 186.872 100.816 186.68C100.976 186.584 101.168 186.328 101.168 185.704V183.768ZM101.216 187.496L101.168 186.808L101.52 186.456L103.248 185.976C103.264 186.184 103.328 186.488 103.376 186.648C101.728 187.192 101.392 187.352 101.216 187.496ZM112.096 192.728C114.112 192.616 117.312 192.424 120.352 192.2L120.32 193.288C117.456 193.512 114.384 193.752 112.256 193.896L112.096 192.728ZM118.4 190.856L119.408 190.408C120.24 191.496 121.12 192.936 121.456 193.896L120.4 194.376C120.08 193.432 119.216 191.944 118.4 190.856ZM113.824 186.856V189.096H119.408V186.856H113.824ZM112.768 185.864H120.496V190.104H112.768V185.864ZM116 184.296H117.152V192.888L116 192.936V184.296ZM107.44 187.624H111.216V188.712H107.44V187.624ZM110.816 187.624H112C112 187.624 111.984 187.976 111.968 188.152C111.744 191.784 111.504 193.176 111.072 193.672C110.784 193.992 110.48 194.104 110.016 194.136C109.632 194.168 108.896 194.168 108.16 194.12C108.144 193.784 108.016 193.32 107.824 193.016C108.544 193.08 109.248 193.08 109.52 193.08C109.792 193.08 109.936 193.064 110.064 192.92C110.4 192.584 110.624 191.272 110.816 187.816V187.624ZM107.344 184.12H108.432C108.288 185.64 108.064 187.544 107.872 188.712H106.752C106.976 187.512 107.216 185.592 107.344 184.12ZM107.616 184.12H110.72V181.544H106.928V180.44H111.84V185.224H107.616V184.12ZM117.648 181.512L118.496 181C119.488 182.008 120.624 183.416 121.136 184.328L120.24 184.936C119.728 184.008 118.608 182.568 117.648 181.512ZM112.848 184.552C112.784 184.328 112.592 183.768 112.432 183.496C112.704 183.448 112.976 183.192 113.296 182.808C113.616 182.44 114.688 181.032 115.344 179.656L116.592 179.96C115.696 181.464 114.56 182.968 113.552 183.944V183.976C113.552 183.976 112.848 184.312 112.848 184.552ZM112.848 184.552L112.816 183.72L113.488 183.352L119.68 182.856C119.696 183.144 119.792 183.56 119.856 183.8C113.936 184.312 113.248 184.392 112.848 184.552ZM125.328 183.512H134.704V184.424H125.328V183.512ZM132 182.2L132.56 181.624C133.184 181.896 133.92 182.344 134.304 182.712L133.728 183.352C133.344 182.968 132.608 182.504 132 182.2ZM133.056 185.16L134.032 185.352C133.232 188.376 131.632 190.616 129.424 192.04C129.28 191.848 128.928 191.448 128.72 191.272C130.896 190.008 132.368 187.928 133.056 185.16ZM125.168 190.056C126.4 189.848 128.192 189.544 130 189.208L130.032 190.056C128.368 190.376 126.656 190.728 125.328 190.968L125.168 190.056ZM126.752 186.184V187.8H128.576V186.184H126.752ZM125.888 185.432H129.456V188.536H125.888V185.432ZM130.064 181.8H131.088C131.296 186.328 132 190.552 133.552 190.792C133.776 190.84 133.936 190.168 134.048 189.128C134.24 189.32 134.608 189.576 134.832 189.672C134.624 191.432 134.064 192.072 133.216 191.768C131.008 191.288 130.352 186.744 130.064 181.8ZM123.312 180.312H136.688V194.344H135.488V181.4H124.448V194.344H123.312V180.312ZM124.016 192.504H136.16V193.592H124.016V192.504Z" fill="black"/>
<path d="M44.5696 72V58.68H47.5036L49.7716 64.926C50.0776 65.754 50.3116 66.618 50.5996 67.482H50.6716C50.9776 66.618 51.2116 65.754 51.4816 64.926L53.6956 58.68H56.6476V72H54.2176V66.438C54.2176 65.178 54.4336 63.324 54.5776 62.064H54.4876L53.3896 65.196L51.3376 70.812H49.8076L47.7556 65.196L46.6756 62.064H46.6036C46.7476 63.324 46.9456 65.178 46.9456 66.438V72H44.5696ZM62.1653 72.252C60.3653 72.252 59.1953 70.992 59.1953 69.264C59.1953 67.122 60.9413 65.988 64.9913 65.538C64.9373 64.548 64.5233 63.81 63.2813 63.81C62.3453 63.81 61.4273 64.206 60.5093 64.764L59.5553 63C60.7433 62.28 62.1653 61.686 63.7673 61.686C66.3233 61.686 67.6373 63.198 67.6373 66.132V72H65.4773L65.2793 70.938H65.2073C64.3253 71.694 63.3173 72.252 62.1653 72.252ZM63.0293 70.182C63.7853 70.182 64.3433 69.84 64.9913 69.21V67.176C62.5253 67.482 61.7153 68.148 61.7153 69.066C61.7153 69.84 62.2553 70.182 63.0293 70.182ZM73.8801 72.252C71.3601 72.252 69.7401 70.29 69.7401 66.978C69.7401 63.684 71.8101 61.686 73.9701 61.686C75.1041 61.686 75.8061 62.1 76.5441 62.766L76.4361 61.182V57.654H79.0821V72H76.9221L76.7241 70.956H76.6701C75.9321 71.694 74.9241 72.252 73.8801 72.252ZM74.5461 70.074C75.2661 70.074 75.8601 69.786 76.4361 69.048V64.62C75.8421 64.062 75.1941 63.846 74.5641 63.846C73.4301 63.846 72.4581 64.926 72.4581 66.942C72.4581 69.048 73.2321 70.074 74.5461 70.074ZM86.3101 72.252C83.4841 72.252 81.2881 70.308 81.2881 66.978C81.2881 63.702 83.5921 61.686 85.9681 61.686C88.7581 61.686 90.1801 63.702 90.1801 66.492C90.1801 66.996 90.1261 67.464 90.0721 67.716H83.8441C84.0781 69.372 85.1581 70.218 86.6521 70.218C87.4621 70.218 88.1821 69.966 88.9201 69.516L89.8021 71.154C88.8121 71.838 87.5521 72.252 86.3101 72.252ZM83.8081 65.952H87.9301C87.9301 64.584 87.3181 63.72 86.0221 63.72C84.9601 63.72 84.0241 64.476 83.8081 65.952ZM100.667 72.252C98.1292 72.252 95.8252 70.308 95.8252 66.978C95.8252 63.63 98.1292 61.686 100.667 61.686C103.187 61.686 105.491 63.63 105.491 66.978C105.491 70.308 103.187 72.252 100.667 72.252ZM100.667 70.11C102.035 70.11 102.791 68.868 102.791 66.978C102.791 65.07 102.035 63.846 100.667 63.846C99.2812 63.846 98.5252 65.07 98.5252 66.978C98.5252 68.868 99.2812 70.11 100.667 70.11ZM107.723 72V61.938H109.865L110.081 63.27H110.135C110.999 62.406 112.043 61.686 113.411 61.686C115.571 61.686 116.525 63.198 116.525 65.718V72H113.879V66.06C113.879 64.476 113.429 63.954 112.457 63.954C111.629 63.954 111.107 64.35 110.369 65.07V72H107.723ZM123.548 72V58.68H126.212V72H123.548ZM129.274 72V61.938H131.416L131.632 63.27H131.686C132.55 62.406 133.594 61.686 134.962 61.686C137.122 61.686 138.076 63.198 138.076 65.718V72H135.43V66.06C135.43 64.476 134.98 63.954 134.008 63.954C133.18 63.954 132.658 64.35 131.92 65.07V72H129.274ZM144.351 72.252C141.831 72.252 140.211 70.29 140.211 66.978C140.211 63.684 142.281 61.686 144.441 61.686C145.575 61.686 146.277 62.1 147.015 62.766L146.907 61.182V57.654H149.553V72H147.393L147.195 70.956H147.141C146.403 71.694 145.395 72.252 144.351 72.252ZM145.017 70.074C145.737 70.074 146.331 69.786 146.907 69.048V64.62C146.313 64.062 145.665 63.846 145.035 63.846C143.901 63.846 142.929 64.926 142.929 66.942C142.929 69.048 143.703 70.074 145.017 70.074ZM152.389 72V61.938H155.035V72H152.389ZM153.703 60.3C152.785 60.3 152.173 59.724 152.173 58.842C152.173 57.978 152.785 57.42 153.703 57.42C154.621 57.42 155.251 57.978 155.251 58.842C155.251 59.724 154.621 60.3 153.703 60.3ZM160.322 72.252C158.522 72.252 157.352 70.992 157.352 69.264C157.352 67.122 159.098 65.988 163.148 65.538C163.094 64.548 162.68 63.81 161.438 63.81C160.502 63.81 159.584 64.206 158.666 64.764L157.712 63C158.9 62.28 160.322 61.686 161.924 61.686C164.48 61.686 165.794 63.198 165.794 66.132V72H163.634L163.436 70.938H163.364C162.482 71.694 161.474 72.252 160.322 72.252ZM161.186 70.182C161.942 70.182 162.5 69.84 163.148 69.21V67.176C160.682 67.482 159.872 68.148 159.872 69.066C159.872 69.84 160.412 70.182 161.186 70.182Z" fill="black"/>
<mask id="mask0_1114_1015" style="mask-type:luminance" maskUnits="userSpaceOnUse" x="71" y="226" width="68" height="70">
<path d="M77.9644 253.6C77.9644 253.6 78.0635 253.204 77.9644 252.51C77.8653 251.816 77.2706 251.519 77.2706 250.924C77.2706 250.33 75.6848 250.627 75.9822 249.735C76.2795 248.843 77.2948 248.843 75.9459 248.05C74.5946 247.257 74.3964 247.354 75.4866 246.164C76.5769 244.975 77.4689 244.359 77.4689 244.359C77.4689 244.359 77.9644 246.051 78.3609 245.364C78.7573 244.678 78.6582 246.051 79.9467 245.364C81.2351 244.678 81.4333 243.624 82.1271 243.012C82.8209 242.398 83.6138 241.658 83.812 241.085C84.0103 240.515 83.6138 240.094 84.704 239.71C85.7943 239.323 85.4969 238.847 85.7943 238.441C86.0916 238.035 86.4881 238.535 87.1819 237.887C87.8756 237.239 87.3801 236.548 87.1819 235.951C86.9836 235.356 86.9039 235.081 87.5396 234.87C88.173 234.663 89.3647 234.266 88.8668 233.867C88.3712 233.471 87.7765 233.338 87.7765 233.338C87.7765 233.338 87.5783 232.975 87.5783 232.53C87.5783 232.086 86.6863 232.729 86.5872 232.332C86.4881 231.936 85.7943 231.489 86.1907 231.29C86.5872 231.092 86.4881 230.149 86.2415 230.101C85.9925 230.05 86.8869 229.209 86.4397 229.209C85.9925 229.209 86.2415 228.218 85.8958 228.218C85.5501 228.218 86.1448 227.374 86.8386 227.374C87.5324 227.374 89.5654 228.665 90.0609 228.365C90.5565 228.068 90.2108 227.672 90.6556 227.821C91.1028 227.969 91.1512 228.218 91.3494 227.969C91.5476 227.72 91.6951 227.473 91.9441 227.623C92.1931 227.771 92.5895 228.068 92.7877 227.821C92.986 227.572 92.7394 227.227 93.0851 226.929C93.4307 226.632 94.7216 225.641 94.7216 226.136C94.7216 226.632 94.3759 227.626 95.4662 228.119C96.5564 228.614 96.4089 228.665 96.2591 229.011C96.1116 229.356 95.6717 230.647 96.363 231.092C97.052 231.539 97.1511 231.489 97.2018 231.885C97.2502 232.281 97.5983 231.984 97.8956 232.182C98.193 232.381 97.9947 232.53 98.2437 232.975C98.4903 233.42 98.3428 233.42 98.0455 233.57C97.7482 233.717 97.9464 234.015 97.4508 234.065C96.9553 234.116 96.6579 234.116 96.6579 233.768C96.6579 233.42 96.1624 233.321 96.0633 233.669C95.9642 234.017 95.7152 234.484 95.9642 234.87C96.2107 235.257 96.2615 235.059 96.2615 235.603C96.2615 236.147 96.4597 236.693 96.6579 236.891C96.8562 237.09 96.8562 237.339 96.9069 237.636C96.9577 237.933 97.2043 237.885 97.6998 237.885C98.1954 237.885 98.2461 237.933 98.6909 238.281C99.1357 238.629 99.4355 238.828 99.7812 238.828C100.127 238.828 100.277 239.125 100.424 239.323C100.572 239.521 101.07 239.386 100.971 239.802C100.871 240.218 100.92 239.809 100.475 240.285C100.03 240.762 99.8803 240.909 99.8803 241.206C99.8803 241.504 99.8319 241.753 99.7328 242.05C99.6337 242.347 99.3871 242.843 99.4863 243.041C99.5854 243.239 99.3364 243.834 99.9818 243.882C100.627 243.933 102.261 245.519 102.361 245.669C102.46 245.816 104.64 246.558 105.087 247.056C105.532 247.552 105.781 247.255 106.673 247.255C107.565 247.255 108.607 246.957 108.953 247.255C109.301 247.552 109.995 248.444 110.836 248.741C111.679 249.039 111.133 248.691 112.124 249.039C113.115 249.387 113.314 249.633 114.206 249.684C115.098 249.732 115.593 249.732 116.14 249.732C116.686 249.732 117.032 249.781 117.23 249.435C117.428 249.089 117.428 248.345 117.23 248.048C117.032 247.75 117.179 247.801 117.38 247.107C117.578 246.413 118.023 245.258 118.422 245.364C118.818 245.471 119.214 245.42 119.214 245.966C119.214 246.512 119.413 246.711 119.214 247.156C119.016 247.603 118.866 248.296 119.512 248.594C120.157 248.891 120.602 249.387 121.446 249.089C122.289 248.792 122.833 248.444 123.875 248.444C124.917 248.444 125.857 248.543 126.305 248.096C126.752 247.651 127.047 248.147 126.899 247.351C126.749 246.558 126.056 246.757 126.056 246.411C126.056 246.065 125.758 246.111 126.503 245.867C127.245 245.618 128.635 244.874 129.181 244.378C129.725 243.882 130.716 243.633 131.064 243.041C131.412 242.446 131.461 242.101 132.155 242.05C132.848 241.999 133.494 242.197 134.088 241.999C134.683 241.801 134.956 241.255 135.389 241.405C135.822 241.554 135.822 242.05 135.921 242.347C136.02 242.645 136.368 242.502 136.467 242.749C136.566 242.993 135.476 243.636 136.467 243.885C137.458 244.134 138.449 244.035 138.549 244.332C138.648 244.629 138.302 244.961 138.101 245.364C137.903 245.768 138.35 246.363 137.954 246.512C137.557 246.66 137.209 246.66 136.813 246.81C136.416 246.957 135.921 247.653 135.624 247.852C135.326 248.05 134.93 248.347 134.533 248.693C134.137 249.041 133.888 250.131 133.888 250.627C133.888 251.122 133.69 250.924 133.441 251.471C133.194 252.014 132.846 252.213 132.846 252.66C132.846 253.107 132.5 253.9 132.45 254.444C132.399 254.988 132.549 255.534 132.101 255.585C131.657 255.633 131.11 255.585 130.714 255.882C130.317 256.18 130.02 256.08 130.02 256.774C130.02 257.468 130.269 257.903 129.771 258.058C129.275 258.213 129.077 258.261 129.324 258.858C129.573 259.453 129.225 259.902 128.927 260.173C128.63 260.444 128.398 260.543 128.316 259.75C128.234 258.957 126.945 255.486 126.597 256.131C126.251 256.777 126.051 257.224 126.15 257.57C126.249 257.918 125.853 258.017 125.405 257.521C124.958 257.026 124.91 257.224 124.859 256.629C124.808 256.034 124.264 255.735 124.808 255.537C125.355 255.338 125.799 254.99 126.147 254.495C126.493 253.999 126.643 254.05 126.793 253.603C126.943 253.155 127.685 252.909 127.288 252.66C126.892 252.411 125.454 252.363 124.958 252.411C124.463 252.462 122.132 252.657 121.835 252.263C121.537 251.867 121.24 251.768 121.24 251.173C121.24 250.578 120.546 249.686 120.546 250.083C120.546 250.479 120.051 250.627 120.002 250.429C119.952 250.23 119.06 248.94 119.06 249.288C119.06 249.636 119.357 250.33 118.861 250.131C118.366 249.933 118.366 249.288 118.117 249.686C117.87 250.083 117.375 251.173 117.621 251.521C117.87 251.869 118.267 251.819 118.663 251.968C119.06 252.116 119.11 252.266 118.811 252.464C118.513 252.662 117.522 252.612 117.372 253.209C117.222 253.803 117.769 254.25 118.264 254.398C118.76 254.548 118.414 255.043 118.414 255.539C118.414 256.034 118.762 257.125 118.762 257.62C118.762 258.116 118.712 258.96 119.06 259.603C119.408 260.248 119.753 261.684 119.21 261.71C118.666 261.735 118.168 262.032 118.168 261.71C118.168 261.389 117.969 259.511 117.771 260.175C117.573 260.843 117.027 261.536 116.483 261.71C115.939 261.885 114.945 261.536 114.945 262.404C114.945 263.272 115.591 264.66 114.648 265.056C113.705 265.453 114.053 265.996 112.417 266.395C110.78 266.792 109.045 269.666 108.798 269.717C108.549 269.765 107.072 270.609 106.671 271.651C106.269 272.693 104.12 272.642 104.004 273.483C103.888 274.327 103.642 274.624 103.047 274.772C102.452 274.919 101.51 274.672 100.915 275.613C100.32 276.556 100.567 276.505 99.873 276.505C99.1793 276.505 97.9899 277.694 98.1881 278.835C98.3864 279.976 99.3775 282.505 98.3864 284.337C97.3952 286.172 97.2961 290.187 97.4943 290.335C97.6926 290.482 96.2059 289.641 96.2059 290.086C96.2059 290.53 95.8578 291.026 95.6112 291.374C95.3622 291.72 95.662 292.96 95.3622 293.011C95.0649 293.059 93.5274 292.416 93.5274 293.407C93.5274 294.398 92.1882 295.687 91.8909 295.687C91.5936 295.687 90.1069 295.041 89.5605 293.209C89.0142 291.374 87.3293 287.112 86.9329 286.319C86.5364 285.526 85.3471 283.593 85.3471 282.7C85.3471 281.808 83.4132 277.706 83.3648 277.155C83.3141 276.604 83.5631 276.406 83.5631 276.406C83.5631 276.406 82.671 275.859 82.671 275.514C82.671 275.168 81.5808 273.877 81.8274 273.036C82.074 272.195 81.2327 269.586 81.2327 268.931C81.2327 268.276 81.7283 267.188 81.3802 267.239C81.0345 267.287 81.0345 267.089 81.0345 266.347C81.0345 265.605 81.2327 263.026 81.0852 262.404C80.9354 261.785 80.887 261.686 81.136 261.142C81.3826 260.596 80.8387 260.596 81.0369 260.125C81.2351 259.653 81.5832 259.503 81.7307 259.38C81.8781 259.259 81.2351 259.407 80.7879 259.16C80.3407 258.911 80.0941 259.308 80.0434 260.127C79.9926 260.947 79.6469 261.986 78.7041 262.407C77.7638 262.83 76.4729 262.977 76.1756 262.779C75.8782 262.581 72.8541 259.806 72.8541 259.16C72.8541 258.515 72.8058 258.713 73.7461 258.713C74.6865 258.713 76.323 257.722 76.1248 256.929C75.9266 256.134 75.3827 257.971 73.5962 257.623C71.8122 257.275 71.7131 255.292 71.3167 255.343C70.9202 255.394 70.8694 254.698 71.3167 254.55C71.7639 254.4 72.7042 254.995 72.755 254.4C72.8033 253.806 72.2594 253.658 72.506 253.559C72.755 253.46 73.0523 253.559 73.5479 253.656C74.0435 253.755 74.9355 254.548 75.4818 254.253C76.0257 253.956 76.2263 253.806 76.572 253.757C76.9177 253.709 76.9177 253.856 76.9685 254.154C77.0192 254.451 77.9233 254.342 77.9596 253.607L77.9644 253.6Z" fill="white"/>
</mask>
<g mask="url(#mask0_1114_1015)">
<path d="M143.709 226.002H57.2109V251.662H143.709V226.002Z" fill="#F79118"/>
<path d="M135.258 251.662H57.2109V269.417H135.258V251.662Z" fill="#DADADA"/>
<path d="M135.258 269.417H57.2109V296.756H135.258V269.417Z" fill="#80B535"/>
<path d="M103.768 260.543C103.768 264.701 100.394 268.069 96.2332 268.069C92.0729 268.069 88.7031 264.699 88.7031 260.543C88.7031 256.388 92.0778 253.011 96.2332 253.011C100.389 253.011 103.768 256.383 103.768 260.543Z" fill="#0D628E"/>
<path d="M102.772 260.077C102.772 260.077 102.757 260.082 102.747 260.082C102.692 259.224 102.462 258.414 102.104 257.681C102.114 257.681 102.121 257.681 102.126 257.672C102.351 257.544 102.426 257.263 102.298 257.041C102.172 256.818 101.884 256.736 101.664 256.869C101.66 256.869 101.655 256.879 101.655 256.879C101.186 256.188 100.589 255.593 99.9021 255.121C99.9021 255.117 99.9021 255.114 99.9021 255.109C100.033 254.889 99.9553 254.604 99.7353 254.476C99.5153 254.348 99.2301 254.42 99.102 254.648C99.0971 254.653 99.0971 254.66 99.0923 254.669C98.3598 254.309 97.5549 254.087 96.6991 254.029C96.6991 254.019 96.6991 254.012 96.6991 254.005C96.6991 253.746 96.4912 253.541 96.2326 253.541C95.9739 253.541 95.7708 253.748 95.7708 254.005C95.7708 254.012 95.7708 254.019 95.7708 254.029C94.9151 254.087 94.1053 254.309 93.368 254.669C93.368 254.66 93.368 254.653 93.3631 254.648C93.2374 254.42 92.9498 254.348 92.7322 254.476C92.5074 254.604 92.43 254.889 92.5557 255.109C92.5654 255.114 92.5654 255.117 92.5654 255.121C91.874 255.593 91.2818 256.188 90.8128 256.879C90.8056 256.879 90.8056 256.872 90.7983 256.869C90.5783 256.736 90.2931 256.818 90.1674 257.041C90.0344 257.261 90.1142 257.544 90.3342 257.672C90.339 257.679 90.3487 257.679 90.3511 257.681C89.9982 258.414 89.7734 259.224 89.7129 260.082C89.7032 260.082 89.696 260.077 89.6936 260.077C89.4349 260.077 89.2246 260.283 89.2246 260.539C89.2246 260.795 89.4349 261.005 89.6936 261.005C89.6936 261.005 89.7032 261.001 89.7129 260.998C89.7734 261.856 89.9982 262.666 90.3511 263.399C90.3463 263.403 90.339 263.403 90.3342 263.411C90.1142 263.536 90.0344 263.819 90.1674 264.042C90.2931 264.266 90.5759 264.341 90.7983 264.211C90.808 264.211 90.808 264.206 90.8128 264.201C91.2818 264.892 91.874 265.49 92.5654 265.961C92.5654 265.961 92.5654 265.968 92.5582 265.968C92.4252 266.195 92.505 266.476 92.7298 266.604C92.9474 266.73 93.235 266.657 93.3607 266.43C93.3656 266.425 93.3656 266.418 93.3656 266.411C94.1029 266.771 94.9127 266.993 95.7684 267.054C95.7684 267.061 95.7684 267.068 95.7684 267.078C95.7684 267.334 95.9715 267.542 96.2301 267.542C96.4888 267.542 96.6967 267.334 96.6967 267.078C96.6967 267.071 96.6967 267.061 96.6967 267.054C97.5524 266.996 98.3574 266.771 99.0899 266.411C99.0947 266.42 99.0947 266.425 99.0996 266.43C99.2301 266.655 99.5129 266.73 99.7329 266.604C99.9553 266.473 100.033 266.188 99.8997 265.968C99.8997 265.968 99.8997 265.963 99.8997 265.961C100.586 265.49 101.183 264.892 101.652 264.201C101.652 264.206 101.66 264.208 101.662 264.211C101.882 264.344 102.172 264.266 102.295 264.042C102.423 263.822 102.351 263.536 102.124 263.411C102.119 263.403 102.112 263.403 102.102 263.399C102.462 262.666 102.689 261.856 102.745 260.998C102.755 260.998 102.762 261.005 102.769 261.005C103.028 261.005 103.233 260.797 103.233 260.544C103.233 260.29 103.028 260.08 102.769 260.08L102.772 260.077Z" fill="#DADADA"/>
<path d="M98.8313 261.65C100.482 262.098 102.544 262.23 102.544 262.23C102.544 262.23 100.69 261.319 99.0368 260.879C98.4421 260.72 97.9562 260.64 97.5742 260.608C97.5791 260.587 97.5839 260.565 97.5839 260.543C97.5839 260.517 97.5791 260.495 97.5742 260.471C97.9562 260.439 98.4421 260.367 99.0368 260.205C100.69 259.765 102.544 258.849 102.544 258.849C102.544 258.849 100.482 258.986 98.8313 259.431C98.2342 259.588 97.7725 259.77 97.4268 259.929C97.4074 259.89 97.3857 259.849 97.3615 259.811C97.6758 259.593 98.0577 259.284 98.4904 258.846C99.7039 257.642 100.855 255.921 100.855 255.921C100.855 255.921 99.1334 257.072 97.9272 258.278C97.4872 258.716 97.1826 259.098 96.9626 259.409C96.9216 259.385 96.8829 259.368 96.8442 259.347C97.0037 259.003 97.1826 258.539 97.3446 257.942C97.787 256.293 97.9223 254.227 97.9223 254.227C97.9223 254.227 97.0086 256.086 96.571 257.737C96.4067 258.334 96.3317 258.822 96.3003 259.202C96.2809 259.197 96.2544 259.192 96.2302 259.192C96.2108 259.192 96.1843 259.197 96.1601 259.202C96.1311 258.822 96.0586 258.334 95.8942 257.737C95.4566 256.086 94.538 254.227 94.538 254.227C94.538 254.227 94.6758 256.293 95.1158 257.942C95.2753 258.539 95.4566 259.003 95.621 259.347C95.5775 259.368 95.5388 259.385 95.5026 259.409C95.2802 259.098 94.9732 258.716 94.538 258.283C93.3318 257.072 91.6106 255.921 91.6106 255.921C91.6106 255.921 92.7613 257.64 93.9699 258.846C94.4027 259.284 94.7894 259.591 95.0989 259.811C95.0747 259.849 95.0553 259.89 95.0336 259.929C94.6879 259.77 94.2286 259.591 93.6339 259.431C91.9829 258.986 89.916 258.849 89.916 258.849C89.916 258.849 91.775 259.765 93.4236 260.205C94.0207 260.367 94.5042 260.442 94.8861 260.471C94.8861 260.495 94.8765 260.517 94.8765 260.543C94.8765 260.565 94.8861 260.587 94.8861 260.613C94.5042 260.645 94.0207 260.72 93.4236 260.882C91.775 261.322 89.916 262.233 89.916 262.233C89.916 262.233 91.9829 262.098 93.6339 261.655C94.2286 261.496 94.6879 261.319 95.0336 261.155C95.0553 261.193 95.0747 261.237 95.0989 261.273C94.7894 261.491 94.4027 261.803 93.9699 262.238C92.7613 263.444 91.6106 265.165 91.6106 265.165C91.6106 265.165 93.3318 264.012 94.538 262.806C94.9732 262.371 95.2802 261.986 95.5026 261.674C95.5388 261.701 95.5775 261.716 95.621 261.737C95.4566 262.081 95.2802 262.542 95.1206 263.142C94.6734 264.79 94.538 266.857 94.538 266.857C94.538 266.857 95.4566 264.998 95.8942 263.347C96.0586 262.753 96.1335 262.264 96.1601 261.885C96.1843 261.89 96.2108 261.89 96.2302 261.89C96.2544 261.89 96.2809 261.89 96.3003 261.885C96.3317 262.264 96.4067 262.75 96.571 263.347C97.0086 264.998 97.9223 266.857 97.9223 266.857C97.9223 266.857 97.787 264.79 97.3446 263.142C97.185 262.545 97.0037 262.083 96.8442 261.737C96.8829 261.716 96.9264 261.701 96.9626 261.674C97.1826 261.984 97.4921 262.371 97.9272 262.806C99.1334 264.012 100.855 265.165 100.855 265.165C100.855 265.165 99.7039 263.444 98.4953 262.238C98.0577 261.8 97.6758 261.493 97.3615 261.273C97.3857 261.235 97.4074 261.193 97.4268 261.155C97.77 261.319 98.2318 261.496 98.8313 261.653V261.65Z" fill="#0D628E"/>
</g>
<path d="M119.68 297.809C129.279 297.809 137.061 290.027 137.061 280.428C137.061 270.829 129.279 263.047 119.68 263.047C110.081 263.047 102.299 270.829 102.299 280.428C102.299 290.027 110.081 297.809 119.68 297.809Z" fill="#FFB600"/>
<path d="M120.386 277.297C122.779 278.811 124.307 279.954 124.97 280.723C125.849 281.765 126.292 282.993 126.292 284.404C126.292 285.947 125.77 287.252 124.73 288.318C123.688 289.384 122.24 289.998 120.386 290.158V291.915H119.078V290.262C118.015 290.24 117.074 290.153 116.253 289.998C115.431 289.844 114.488 289.561 113.427 289.15V284.296H114.058C114.258 285.398 114.575 286.29 115.005 286.972C115.435 287.653 115.979 288.166 116.634 288.512C117.29 288.857 118.104 289.07 119.076 289.15V281.726C116.661 280.215 115.056 279.004 114.261 278.098C113.463 277.191 113.066 276.137 113.066 274.933C113.066 273.63 113.567 272.482 114.568 271.484C115.568 270.488 117.072 269.864 119.076 269.613V268.907H120.384V269.613C122.086 269.731 123.8 270.26 125.523 271.191V275.535H124.938C124.648 274.554 124.3 273.746 123.894 273.115C123.488 272.484 122.966 271.943 122.323 271.491C121.832 271.16 121.184 270.887 120.384 270.664V277.293L120.386 277.297ZM119.078 270.625C118.346 270.686 117.761 270.887 117.321 271.227C116.62 271.759 116.269 272.4 116.269 273.152C116.269 273.613 116.431 274.077 116.758 274.549C117.084 275.02 117.858 275.661 119.078 276.473V270.628V270.625ZM120.386 289.155C121.247 288.954 121.878 288.613 122.279 288.125C122.68 287.639 122.881 287.03 122.881 286.297C122.881 285.666 122.702 285.077 122.349 284.523C121.994 283.972 121.339 283.346 120.389 282.645V289.152L120.386 289.155Z" fill="white"/>
<path d="M119.681 295.16C127.817 295.16 134.412 288.564 134.412 280.428C134.412 272.292 127.817 265.697 119.681 265.697C111.545 265.697 104.949 272.292 104.949 280.428C104.949 288.564 111.545 295.16 119.681 295.16Z" stroke="white" stroke-width="3" stroke-miterlimit="10"/>
<defs>
<filter id="filter0_d_1114_1015" x="2" y="39" width="207" height="305" filterUnits="userSpaceOnUse" color-interpolation-filters="sRGB">
<feFlood flood-opacity="0" result="BackgroundImageFix"/>
<feColorMatrix in="SourceAlpha" type="matrix" values="0 0 0 0 0 0 0 0 0 0 0 0 0 0 0 0 0 0 127 0" result="hardAlpha"/>
<feOffset dx="1" dy="2"/>
<feGaussianBlur stdDeviation="15"/>
<feComposite in2="hardAlpha" operator="out"/>
<feColorMatrix type="matrix" values="0 0 0 0 0 0 0 0 0 0 0 0 0 0 0 0 0 0 0.25 0"/>
<feBlend mode="normal" in2="BackgroundImageFix" result="effect1_dropShadow_1114_1015"/>
<feBlend mode="normal" in="SourceGraphic" in2="effect1_dropShadow_1114_1015" result="shape"/>
</filter>
<filter id="filter1_d_1114_1015" x="0" y="0" width="210" height="131.927" filterUnits="userSpaceOnUse" color-interpolation-filters="sRGB">
<feFlood flood-opacity="0" result="BackgroundImageFix"/>
<feColorMatrix in="SourceAlpha" type="matrix" values="0 0 0 0 0 0 0 0 0 0 0 0 0 0 0 0 0 0 127 0" result="hardAlpha"/>
<feOffset dy="4"/>
<feGaussianBlur stdDeviation="10"/>
<feComposite in2="hardAlpha" operator="out"/>
<feColorMatrix type="matrix" values="0 0 0 0 0 0 0 0 0 0 0 0 0 0 0 0 0 0 0.25 0"/>
<feBlend mode="normal" in2="BackgroundImageFix" result="effect1_dropShadow_1114_1015"/>
<feBlend mode="normal" in="SourceGraphic" in2="effect1_dropShadow_1114_1015" result="shape"/>
</filter>
<linearGradient id="paint0_linear_1114_1015" x1="46.9683" y1="16" x2="167.488" y2="141.534" gradientUnits="userSpaceOnUse">
<stop stop-color="#FFDF7E"/>
<stop offset="0.572917" stop-color="#FFC000"/>
<stop offset="1" stop-color="#C59400"/>
</linearGradient>
<linearGradient id="paint1_linear_1114_1015" x1="23.4725" y1="79.6097" x2="174.511" y2="252.809" gradientUnits="userSpaceOnUse">
<stop stop-color="#FFD040"/>
<stop offset="0.520833" stop-color="#FFC000"/>
<stop offset="1" stop-color="#D7A100"/>
</linearGradient>
</defs>
</svg>
