<svg width="470" height="573" viewBox="0 0 470 573" fill="none" xmlns="http://www.w3.org/2000/svg">
<g filter="url(#filter0_d_1114_1016)">
<rect x="59.4199" y="138.538" width="350.749" height="402.462" fill="white"/>
</g>
<g filter="url(#filter1_d_1114_1016)">
<path d="M412.541 131.5V16H56.901V131.5H20L234.721 235.319L449.442 131.5H412.541Z" fill="url(#paint0_linear_1114_1016)"/>
</g>
<path d="M59.248 541V173.388L68.2275 177.733V531.995H401.018V177.89L409.997 173.545V541H59.248Z" fill="url(#paint1_linear_1114_1016)"/>
<path d="M148.015 133.504C150.955 132.874 155.225 131.824 159.32 130.809L159.845 134.659C156.17 135.674 152.215 136.724 149.1 137.529L148.015 133.504ZM148.435 122.374H160.44V126.294H148.435V122.374ZM152.635 115.724H156.73V143.899C156.73 145.894 156.38 146.944 155.19 147.574C154 148.204 152.32 148.309 149.835 148.309C149.695 147.259 149.17 145.544 148.68 144.494C150.045 144.564 151.515 144.529 151.97 144.529C152.46 144.529 152.635 144.354 152.635 143.864V115.724ZM164.15 116.844H173.67V120.729H164.15V116.844ZM160.3 130.914H176.19V134.834H160.3V130.914ZM174.79 130.914H175.56L176.295 130.774L179.025 131.894C176.12 141.729 169.05 146.384 159.775 148.589C159.425 147.469 158.515 145.684 157.745 144.774C166.075 143.269 172.585 139.069 174.79 131.544V130.914ZM164.675 134.029C167.44 139.524 173.215 143.304 181.09 144.774C180.18 145.684 179.025 147.504 178.465 148.659C170.135 146.699 164.5 142.219 161 135.324L164.675 134.029ZM163.31 116.844H167.23V120.764C167.23 124.229 166.18 128.184 161.42 130.494C160.93 129.689 159.425 128.044 158.655 127.414C162.82 125.559 163.31 123.004 163.31 120.624V116.844ZM171.745 116.844H175.7V124.509C175.7 125.524 175.805 125.944 176.33 125.944C176.715 125.944 177.8 125.944 178.22 125.944C178.78 125.944 179.69 125.839 180.18 125.699C180.25 126.749 180.32 128.219 180.495 129.164C179.935 129.409 179.095 129.444 178.29 129.444C177.765 129.444 176.47 129.444 175.945 129.444C172.445 129.444 171.745 127.974 171.745 124.439V116.844ZM192.15 134.764V136.269H207.375V134.764H192.15ZM192.15 138.649V140.189H207.375V138.649H192.15ZM192.15 130.914V132.384H207.375V130.914H192.15ZM188.09 128.394H211.61V142.674H188.09V128.394ZM202.37 144.389L205.135 142.184C208.74 143.444 212.835 145.124 215.215 146.314L211.47 148.554C209.44 147.399 205.835 145.684 202.37 144.389ZM193.795 142.324L197.645 144.074C194.775 145.929 190.225 147.679 186.655 148.659C185.92 147.854 184.485 146.314 183.54 145.579C187.25 144.914 191.415 143.689 193.795 142.324ZM197.855 117.859H212.03V120.904H197.855V117.859ZM198.135 115.514L201.81 116.354C200.83 119.259 199.045 122.129 197.155 123.879C196.455 123.284 194.915 122.269 194.04 121.779C195.895 120.239 197.365 117.894 198.135 115.514ZM201.705 120.204H205.52V121.604C205.52 124.159 204.12 127.239 194.215 128.359C193.83 127.414 192.78 125.979 192.045 125.209C200.655 124.544 201.705 122.829 201.705 121.429V120.204ZM205.17 121.604C206.99 123.704 210.84 124.719 215.88 124.964C215.075 125.769 214.06 127.274 213.605 128.324C208.145 127.659 204.33 125.734 202.23 122.199L205.17 121.604ZM184.275 117.439H193.27V120.519H184.275V117.439ZM183.505 122.864H194.11V126.049H183.505V122.864ZM210.56 117.859H211.19L211.785 117.684L214.655 118.559C213.78 120.519 212.555 122.724 211.435 124.124L208.215 122.899C209.02 121.709 210 119.854 210.56 118.349V117.859ZM219.03 121.114H231.875V124.789H219.03V121.114ZM218.435 129.234H232.435V133.014H218.435V129.234ZM223.545 116.074H227.5V128.709C227.5 135.254 226.695 143.339 220.815 148.169C220.255 147.294 218.925 145.859 217.98 145.124C223.195 141.309 223.545 134.029 223.545 128.709V116.074ZM226.94 133.609C228.13 134.694 232.05 139.209 232.925 140.259L230.09 143.304C228.795 141.169 225.855 137.319 224.35 135.569L226.94 133.609ZM237.405 126.049V128.079H245.07V126.049H237.405ZM237.405 131.404V133.469H245.07V131.404H237.405ZM237.405 120.659V122.689H245.07V120.659H237.405ZM233.52 116.949H249.095V137.179H233.52V116.949ZM241.465 135.884H245.385V143.199C245.385 144.179 245.42 144.284 245.945 144.284C246.155 144.284 246.925 144.284 247.17 144.284C247.73 144.284 247.835 143.794 247.94 140.084C248.675 140.714 250.355 141.344 251.37 141.624C251.02 146.629 250.075 147.889 247.59 147.889C246.995 147.889 245.84 147.889 245.245 147.889C242.13 147.889 241.465 146.699 241.465 143.269V135.884ZM235.795 136.584H239.75C239.19 142.044 237.755 146.209 231.315 148.624C230.895 147.679 229.845 146.209 229.04 145.474C234.465 143.689 235.375 140.609 235.795 136.584ZM264.495 137.809H285.425V141.239H264.495V137.809ZM270.2 131.334V132.839H279.825V131.334H270.2ZM270.2 127.099V128.569H279.825V127.099H270.2ZM266.315 124.159H283.885V135.779H266.315V124.159ZM273.07 135.359H277.2C276.57 142.079 274.89 146.419 265.545 148.624C265.16 147.609 264.145 146.069 263.375 145.229C271.565 143.619 272.58 140.504 273.07 135.359ZM264.915 118.209H274.61V121.569H264.915V118.209ZM268.38 115.724H272.125V123.494H268.38V115.724ZM277.865 115.724H281.575V123.494H277.865V115.724ZM275.38 118.174H285.705V121.569H275.38V118.174ZM274.925 143.549L277.445 140.959C280.175 142.219 284.27 144.249 286.405 145.509L283.71 148.449C281.785 147.154 277.76 144.984 274.925 143.549ZM253.715 122.269H265.125V126.119H253.715V122.269ZM257.74 115.724H261.555V148.589H257.74V115.724ZM257.775 125.139L259.945 126.119C259 131.509 257.075 138.299 254.835 141.974C254.45 140.714 253.54 138.789 252.875 137.669C254.975 134.764 256.935 129.234 257.775 125.139ZM261.38 126.504C262.185 127.624 265.16 132.524 265.79 133.679L263.305 136.549C262.5 134.274 260.505 129.934 259.49 128.009L261.38 126.504ZM289.065 125.139H320.215V129.479H289.065V125.139ZM307.02 126.889C309.12 134.904 313.565 141.554 320.985 144.494C319.935 145.439 318.535 147.259 317.835 148.484C309.82 144.739 305.445 137.494 302.785 127.869L307.02 126.889ZM302.19 115.724H306.81C306.635 126.399 306.565 141.239 291.55 148.484C290.885 147.329 289.59 145.824 288.365 144.914C302.715 138.509 302.085 125.209 302.19 115.724Z" fill="black"/>
<path d="M95.2671 283.871C97.2351 283.367 100.091 282.575 102.875 281.783L103.115 283.415C100.571 284.207 97.8831 284.999 95.7951 285.599L95.2671 283.871ZM95.5551 275.999H103.595V277.703H95.5551V275.999ZM98.8431 271.175H100.595V290.951C100.595 291.959 100.379 292.463 99.7311 292.727C99.1071 293.015 98.0991 293.063 96.4431 293.063C96.3711 292.607 96.1311 291.863 95.9151 291.383C97.0431 291.431 98.0751 291.407 98.3871 291.407C98.7231 291.407 98.8431 291.287 98.8431 290.951V271.175ZM106.283 272.039H112.571V273.719H106.283V272.039ZM103.499 281.759H114.563V283.463H103.499V281.759ZM113.939 281.759H114.275L114.611 281.687L115.787 282.215C113.651 288.527 108.347 291.839 102.491 293.279C102.323 292.799 101.915 292.031 101.579 291.647C107.051 290.495 112.139 287.399 113.939 282.047V281.759ZM105.707 283.007C107.651 287.375 111.827 290.471 117.467 291.623C117.059 292.007 116.579 292.775 116.315 293.279C110.531 291.911 106.379 288.527 104.147 283.559L105.707 283.007ZM105.827 272.039H107.531V274.727C107.531 276.887 106.859 279.479 103.883 281.159C103.667 280.823 103.043 280.127 102.707 279.839C105.395 278.375 105.827 276.383 105.827 274.679V272.039ZM111.731 272.039H113.435V277.583C113.435 278.279 113.507 278.519 113.891 278.519C114.227 278.519 115.427 278.519 115.763 278.519C116.099 278.519 116.651 278.471 116.963 278.399C116.987 278.855 117.035 279.527 117.107 279.935C116.795 280.055 116.291 280.079 115.787 280.079C115.403 280.079 114.083 280.079 113.771 280.079C112.091 280.079 111.731 279.383 111.731 277.559V272.039ZM124.547 283.703V285.335H136.643V283.703H124.547ZM124.547 286.511V288.191H136.643V286.511H124.547ZM124.547 280.895V282.527H136.643V280.895H124.547ZM122.795 279.695H138.443V289.391H122.795V279.695ZM132.755 290.519L133.955 289.511C136.571 290.303 139.379 291.359 141.083 292.127L139.475 293.159C137.939 292.391 135.347 291.359 132.755 290.519ZM126.827 289.535L128.459 290.303C126.515 291.455 123.467 292.559 121.067 293.207C120.779 292.871 120.155 292.175 119.747 291.863C122.219 291.335 125.099 290.495 126.827 289.535ZM129.587 272.783H139.475V274.199H129.587V272.783ZM129.971 271.103L131.579 271.463C130.931 273.431 129.779 275.375 128.531 276.599C128.243 276.335 127.571 275.903 127.163 275.687C128.411 274.535 129.419 272.831 129.971 271.103ZM132.827 273.671H134.483V274.487C134.483 276.311 133.715 278.471 126.947 279.527C126.779 279.095 126.299 278.471 125.987 278.135C132.227 277.319 132.827 275.663 132.827 274.439V273.671ZM134.243 275.087C135.467 276.647 138.203 277.655 141.539 277.943C141.179 278.303 140.723 278.951 140.507 279.407C137.051 278.903 134.291 277.535 132.971 275.399L134.243 275.087ZM120.155 272.591H125.939V274.007H120.155V272.591ZM119.627 276.335H126.539V277.799H119.627V276.335ZM138.875 272.783H139.187L139.451 272.711L140.675 273.119C140.075 274.343 139.307 275.735 138.635 276.599L137.219 276.095C137.771 275.303 138.443 274.079 138.875 273.047V272.783ZM144.011 275.159H152.555V276.767H144.011V275.159ZM143.507 280.703H153.035V282.359H143.507V280.703ZM147.467 271.415H149.195V279.695C149.195 283.943 148.811 289.559 144.587 292.967C144.347 292.583 143.771 291.983 143.363 291.647C147.299 288.719 147.467 283.439 147.467 279.719V271.415ZM148.787 283.583C149.603 284.327 152.459 287.543 153.107 288.311L151.883 289.655C151.043 288.407 148.643 285.479 147.683 284.447L148.787 283.583ZM155.603 277.583V279.959H162.467V277.583H155.603ZM155.603 281.447V283.847H162.467V281.447H155.603ZM155.603 273.719V276.071H162.467V273.719H155.603ZM153.899 272.111H164.195V285.479H153.899V272.111ZM159.659 284.759H161.363V290.567C161.363 291.143 161.411 291.215 161.939 291.215C162.155 291.215 163.187 291.215 163.475 291.215C163.979 291.215 164.075 290.855 164.147 288.023C164.483 288.335 165.203 288.599 165.659 288.719C165.515 292.007 165.083 292.823 163.643 292.823C163.307 292.823 162.011 292.823 161.675 292.823C160.043 292.823 159.659 292.295 159.659 290.591V284.759ZM155.867 285.095H157.595C157.163 288.935 156.011 291.695 151.787 293.207C151.595 292.823 151.115 292.175 150.755 291.863C154.595 290.615 155.531 288.263 155.867 285.095ZM174.611 286.391H189.107V287.903H174.611V286.391ZM177.851 281.303V283.031H186.203V281.303H177.851ZM177.851 278.303V280.007H186.203V278.303H177.851ZM176.171 276.959H187.955V284.399H176.171V276.959ZM181.091 284.159H182.867C182.363 288.887 180.995 291.815 174.971 293.255C174.803 292.847 174.347 292.175 174.011 291.815C179.555 290.615 180.659 288.143 181.091 284.159ZM175.091 273.143H181.643V274.655H175.091V273.143ZM178.067 271.175H179.699V276.359H178.067V271.175ZM184.523 271.175H186.131V276.359H184.523V271.175ZM182.459 273.119H189.395V274.631H182.459V273.119ZM182.051 289.199L183.107 288.071C185.219 289.175 188.051 290.807 189.539 291.815L188.411 293.135C186.995 292.103 184.163 290.375 182.051 289.199ZM167.843 275.807H175.307V277.463H167.843V275.807ZM170.915 271.151H172.571V293.207H170.915V271.151ZM170.915 276.887L171.971 277.295C171.275 281.039 169.787 285.791 168.203 288.239C168.011 287.711 167.579 286.919 167.267 286.487C168.755 284.351 170.291 280.151 170.915 276.887ZM172.475 278.279C172.979 278.999 174.899 282.335 175.307 283.103L174.203 284.399C173.699 283.079 172.187 280.031 171.587 278.975L172.475 278.279ZM202.235 272.183H211.979V273.719H202.235V272.183ZM205.691 272.735L207.419 272.831C207.083 276.959 205.595 279.455 202.787 281.063C202.499 280.775 201.803 280.199 201.419 279.959C204.179 278.639 205.451 276.335 205.691 272.735ZM211.067 272.183H212.771C212.771 272.183 212.771 272.663 212.747 272.903C212.555 277.223 212.315 278.903 211.787 279.527C211.427 279.911 210.995 280.079 210.371 280.127C209.843 280.175 208.811 280.151 207.755 280.103C207.707 279.647 207.539 278.975 207.299 278.543C208.307 278.663 209.219 278.663 209.579 278.663C209.915 278.663 210.155 278.639 210.323 278.447C210.659 278.015 210.875 276.527 211.067 272.447V272.183ZM192.203 274.055H201.491V275.639H192.203V274.055ZM191.723 278.615H201.971V280.247H191.723V278.615ZM197.147 283.679H201.755V285.263H197.147V283.679ZM196.043 271.175H197.699V279.479H196.043V271.175ZM196.355 279.647H197.987V290.567H196.355V279.647ZM194.099 284.855C195.395 289.871 198.083 290.903 203.699 290.903C204.875 290.903 212.243 290.903 213.755 290.855C213.443 291.263 213.131 292.103 213.011 292.631H203.747C197.195 292.631 194.339 291.335 192.755 285.287L194.099 284.855ZM192.779 281.975L194.411 282.071C194.315 286.679 194.003 290.615 192.563 293.279C192.275 293.039 191.531 292.607 191.123 292.415C192.515 290.015 192.731 286.223 192.779 281.975ZM204.731 282.959V287.399H210.443V282.959H204.731ZM203.027 281.471H212.243V288.911H203.027V281.471ZM222.731 279.431H235.739V280.871H224.339V289.847H222.731V279.431ZM224.579 271.991H234.467V280.055H232.835V273.407H226.187V280.055H224.579V271.991ZM227.219 282.407H232.643V287.495H227.219V286.223H231.251V283.679H227.219V282.407ZM234.707 279.431H236.387V288.071C236.387 288.887 236.219 289.343 235.619 289.583C235.043 289.847 234.107 289.847 232.667 289.847C232.619 289.415 232.403 288.791 232.187 288.383C233.195 288.407 234.083 288.407 234.347 288.407C234.635 288.383 234.707 288.311 234.707 288.071V279.431ZM226.403 282.407H227.771V288.455H226.403V282.407ZM228.539 275.375H233.627V276.623H229.907V280.199H228.539V275.375ZM216.467 271.943L217.835 271.175C218.867 272.351 220.115 273.911 220.715 274.895L219.275 275.831C218.699 274.823 217.451 273.143 216.467 271.943ZM215.579 276.695H220.763V278.207H215.579V276.695ZM219.851 287.711C221.339 290.855 224.459 291.287 229.259 291.287C231.803 291.287 235.307 291.191 237.779 290.975C237.515 291.359 237.299 292.175 237.203 292.655C234.923 292.799 231.899 292.847 229.259 292.847C223.619 292.847 220.475 292.223 218.651 288.263L219.851 287.711ZM219.851 282.695H220.379L220.691 282.647L221.507 282.983C220.739 288.023 218.891 291.431 216.395 293.279C216.155 292.919 215.555 292.295 215.195 292.031C217.571 290.399 219.251 287.327 219.851 283.007V282.695ZM215.939 284.495V283.127L216.803 282.695H220.595V284.159H217.355C216.731 284.159 216.107 284.303 215.939 284.495ZM215.939 284.495C215.819 284.087 215.459 283.247 215.267 282.863C215.627 282.767 216.011 282.623 216.419 282.143C217.139 281.423 219.419 278.159 220.211 276.887V276.815L220.739 276.575L221.939 277.127C220.811 278.759 218.651 281.831 217.283 283.367C217.283 283.367 215.939 284.039 215.939 284.495ZM239.531 291.311V290.039C245.051 285.215 247.571 281.687 247.571 278.687C247.571 276.671 246.539 275.183 244.355 275.183C242.915 275.183 241.667 276.071 240.683 277.223L239.411 275.999C240.851 274.439 242.387 273.407 244.619 273.407C247.763 273.407 249.731 275.447 249.731 278.591C249.731 282.119 246.971 285.695 242.819 289.607C243.755 289.511 244.811 289.439 245.699 289.439H250.571V291.311H239.531ZM258.46 291.647C255.1 291.647 252.964 288.599 252.964 282.455C252.964 276.359 255.1 273.407 258.46 273.407C261.772 273.407 263.908 276.359 263.908 282.455C263.908 288.599 261.772 291.647 258.46 291.647ZM258.46 289.871C260.452 289.871 261.796 287.639 261.796 282.455C261.796 277.343 260.452 275.159 258.46 275.159C256.444 275.159 255.076 277.343 255.076 282.455C255.076 287.639 256.444 289.871 258.46 289.871ZM271.772 291.647C268.412 291.647 266.276 288.599 266.276 282.455C266.276 276.359 268.412 273.407 271.772 273.407C275.084 273.407 277.22 276.359 277.22 282.455C277.22 288.599 275.084 291.647 271.772 291.647ZM271.772 289.871C273.764 289.871 275.108 287.639 275.108 282.455C275.108 277.343 273.764 275.159 271.772 275.159C269.756 275.159 268.388 277.343 268.388 282.455C268.388 287.639 269.756 289.871 271.772 289.871ZM286.549 273.527H300.709V274.919H286.549V273.527ZM285.445 277.247H301.501V278.735H285.445V277.247ZM288.877 275.327L290.389 274.967C290.797 275.567 291.205 276.407 291.349 276.959L289.765 277.367C289.645 276.791 289.261 275.927 288.877 275.327ZM296.293 274.871L298.069 275.327C297.517 276.383 296.893 277.511 296.389 278.255L294.973 277.847C295.429 277.007 296.005 275.711 296.293 274.871ZM289.189 283.847V285.431H297.781V283.847H289.189ZM289.189 281.231V282.743H297.781V281.231H289.189ZM287.461 279.983H299.581V286.631H287.461V279.983ZM287.077 287.927L288.493 288.551C287.989 289.775 287.293 291.503 286.573 292.631L285.109 291.839C285.853 290.831 286.621 289.127 287.077 287.927ZM289.285 287.879H290.941V291.071C290.941 291.623 291.109 291.695 292.141 291.695C292.645 291.695 295.117 291.695 295.765 291.695C296.533 291.695 296.677 291.479 296.749 289.895C297.109 290.159 297.781 290.375 298.237 290.471C298.069 292.631 297.565 293.159 295.957 293.159C295.477 293.159 292.453 293.159 291.997 293.159C289.813 293.159 289.285 292.727 289.285 291.095V287.879ZM291.157 287.327L292.285 286.415C293.485 287.135 294.997 288.239 295.717 289.031L294.565 290.039C293.845 289.247 292.357 288.119 291.157 287.327ZM297.253 288.263L298.693 287.615C299.749 288.935 301.021 290.711 301.573 291.863L300.085 292.607C299.557 291.431 298.333 289.559 297.253 288.263ZM291.757 271.415L293.413 271.103C293.869 271.919 294.325 273.047 294.517 273.743L292.789 274.127C292.597 273.431 292.141 272.255 291.757 271.415ZM284.797 271.247L286.501 271.775C285.013 275.831 282.685 279.887 280.213 282.599C280.021 282.191 279.493 281.255 279.181 280.823C281.413 278.471 283.525 274.895 284.797 271.247ZM282.253 277.439L283.933 275.735L283.981 275.759V293.207H282.253V277.439ZM304.621 274.511H324.181V276.143H304.621V274.511ZM305.941 278.087H323.005V279.647H305.941V278.087ZM304.285 285.143H324.805V286.727H304.285V285.143ZM303.757 281.687H325.213V283.295H303.757V281.687ZM313.429 275.423H315.277V282.863H313.429V275.423ZM307.837 271.727L309.421 271.079C310.285 271.991 311.149 273.263 311.509 274.127L309.853 274.895C309.517 273.983 308.653 272.687 307.837 271.727ZM319.093 271.079L320.965 271.655C320.149 272.951 319.141 274.391 318.373 275.327L316.813 274.775C317.557 273.767 318.541 272.183 319.093 271.079ZM313.309 282.791H315.181C314.581 288.479 312.901 291.743 304.309 293.159C304.165 292.727 303.709 291.959 303.373 291.551C311.461 290.375 312.781 287.639 313.309 282.791ZM314.509 288.311L315.325 286.991C318.637 288.239 322.981 290.303 325.165 291.767L324.325 293.327C322.189 291.815 317.869 289.655 314.509 288.311ZM340.381 280.847H342.229V290.111C342.229 290.951 342.421 291.095 343.357 291.095C343.789 291.095 345.877 291.095 346.477 291.095C347.461 291.095 347.605 290.471 347.701 286.775C348.109 287.111 348.901 287.423 349.381 287.567C349.189 291.695 348.709 292.823 346.597 292.823C346.117 292.823 343.597 292.823 343.141 292.823C340.957 292.823 340.381 292.199 340.381 290.111V280.847ZM327.829 279.767H349.021V281.519H327.829V279.767ZM329.917 273.023H346.981V274.775H329.917V273.023ZM333.973 281.111H335.869C335.461 286.487 334.405 290.903 328.669 293.183C328.477 292.751 327.949 292.103 327.541 291.767C332.845 289.775 333.613 285.791 333.973 281.111ZM360.445 286.799L359.893 285.527C361.861 284.735 362.941 283.511 362.941 281.687L362.485 279.671L363.781 281.495C363.445 281.927 362.965 282.047 362.509 282.047C361.525 282.047 360.709 281.447 360.709 280.319C360.709 279.191 361.573 278.591 362.533 278.591C363.877 278.591 364.597 279.695 364.597 281.375C364.597 283.967 362.965 285.935 360.445 286.799ZM152.892 308.951H171.972V310.727H152.892V308.951ZM153.996 316.007H170.964V317.759H153.996V316.007ZM151.788 323.663H173.172V325.439H151.788V323.663ZM161.46 310.367H163.404V324.575H161.46V310.367ZM159.396 305.255L160.86 304.247C162.42 305.351 164.364 306.983 165.3 308.135L163.74 309.263C162.876 308.135 160.98 306.431 159.396 305.255ZM176.1 319.847H187.044V321.215H176.1V319.847ZM175.452 308.279H187.428V309.671H175.452V308.279ZM180.66 306.095H182.316V323.759H180.66V306.095ZM175.428 323.807C178.356 323.543 182.844 323.111 187.14 322.655L187.164 324.071C183.084 324.551 178.74 325.055 175.692 325.367L175.428 323.807ZM177.66 315.359V317.135H185.436V315.359H177.66ZM177.66 312.431V314.159H185.436V312.431H177.66ZM176.148 311.183H186.972V318.383H176.148V311.183ZM186.108 304.391L187.02 305.783C184.188 306.407 179.724 306.815 176.124 306.935C176.052 306.551 175.884 305.951 175.692 305.591C179.268 305.399 183.636 304.967 186.108 304.391ZM187.26 309.767H195.924V311.447H187.26V309.767ZM195.228 309.767H196.956C196.956 309.767 196.932 310.439 196.932 310.679C196.668 320.807 196.428 324.167 195.636 325.199C195.204 325.823 194.724 326.039 194.004 326.111C193.332 326.183 192.18 326.183 191.076 326.111C191.028 325.607 190.836 324.863 190.548 324.383C191.724 324.479 192.78 324.503 193.26 324.503C193.644 324.503 193.884 324.431 194.1 324.119C194.7 323.375 194.964 319.919 195.228 310.199V309.767ZM190.164 304.463H191.892C191.868 314.015 191.844 322.079 186.108 326.375C185.82 325.943 185.196 325.367 184.764 325.079C190.26 321.143 190.14 313.535 190.164 304.463ZM215.46 305.351L216.66 304.319C217.908 305.159 219.42 306.407 220.164 307.247L218.892 308.375C218.172 307.511 216.708 306.215 215.46 305.351ZM199.764 308.639H221.148V310.391H199.764V308.639ZM200.58 313.991H211.188V315.743H200.58V313.991ZM204.9 314.927H206.7V323.495H204.9V314.927ZM199.86 323.735C202.716 323.183 207.42 322.223 211.86 321.263L212.004 322.871C207.9 323.831 203.508 324.839 200.412 325.535L199.86 323.735ZM211.98 304.271H213.9C213.828 315.407 215.988 324.407 218.94 324.407C219.612 324.407 219.9 323.087 220.044 319.871C220.452 320.279 221.148 320.687 221.652 320.855C221.34 325.055 220.644 326.279 218.796 326.279C214.02 326.279 212.076 315.887 211.98 304.271ZM228.852 324.047H241.524V325.439H228.852V324.047ZM224.868 310.895H244.404V314.879H242.58V312.335H226.596V314.879H224.868V310.895ZM228.732 313.823H241.452V318.647H228.732V317.255H239.7V315.191H228.732V313.823ZM228.828 320.303H242.724V326.207H240.924V321.719H228.828V320.303ZM227.508 313.823H229.308V326.255H227.508V313.823ZM233.004 309.383L234.612 309.047C235.068 309.719 235.548 310.679 235.692 311.303L234.012 311.687C233.844 311.063 233.412 310.103 233.004 309.383ZM226.668 305.879H234.3V307.319H226.668V305.879ZM236.58 305.903H245.364V307.343H236.58V305.903ZM227.148 303.983L228.756 304.439C227.82 306.719 226.236 308.975 224.724 310.463C224.46 310.151 223.836 309.551 223.452 309.263C224.964 307.943 226.332 305.975 227.148 303.983ZM237.036 303.983L238.692 304.391C237.972 306.311 236.7 308.159 235.404 309.335C235.092 309.047 234.444 308.471 234.012 308.255C235.308 307.199 236.412 305.639 237.036 303.983ZM228.396 308.063L229.524 307.151C230.316 307.823 231.324 308.807 231.828 309.431L230.628 310.439C230.148 309.791 229.164 308.783 228.396 308.063ZM238.86 308.183L240.036 307.247C240.924 307.919 242.076 308.903 242.652 309.575L241.428 310.655C240.876 309.959 239.772 308.927 238.86 308.183ZM257.844 311.375V314.471H266.772V311.375H257.844ZM257.844 306.839V309.887H266.772V306.839H257.844ZM256.212 305.279H268.5V316.031H256.212V305.279ZM255.9 318.839H268.836V320.495H255.9V318.839ZM254.052 323.807H269.628V325.439H254.052V323.807ZM247.524 305.783H255.012V307.487H247.524V305.783ZM247.788 312.719H254.676V314.423H247.788V312.719ZM247.284 321.911C249.228 321.383 252.108 320.447 254.892 319.511L255.204 321.239C252.588 322.127 249.852 323.039 247.716 323.759L247.284 321.911ZM250.524 306.455H252.252V321.335L250.524 321.671V306.455ZM261.516 306.023H263.1V315.263H263.22V324.551H261.396V315.263H261.516V306.023ZM271.548 319.391H293.34V320.879H271.548V319.391ZM272.244 306.023H292.356V307.463H272.244V306.023ZM285.852 317.831H287.58V324.311C287.58 325.247 287.388 325.727 286.644 325.991C285.876 326.231 284.652 326.231 282.708 326.231C282.636 325.775 282.396 325.127 282.156 324.671C283.596 324.719 284.94 324.719 285.348 324.695C285.732 324.671 285.852 324.575 285.852 324.263V317.831ZM281.508 304.199H283.284V317.063H281.508V304.199ZM275.388 321.887L276.612 320.831C278.028 321.647 279.804 322.919 280.644 323.855L279.324 325.055C278.508 324.095 276.828 322.775 275.388 321.887ZM275.796 312.671V314.159H289.14V312.671H275.796ZM275.796 310.031V311.495H289.14V310.031H275.796ZM274.092 308.831H290.892V315.383H274.092V308.831ZM285.996 315.887L287.028 314.975C288.948 315.623 291.228 316.823 292.428 317.711L291.348 318.743C290.172 317.783 287.892 316.535 285.996 315.887ZM272.508 316.775C276.876 316.775 283.86 316.703 290.436 316.583L290.34 317.807C283.932 317.975 277.116 318.119 272.58 318.191L272.508 316.775ZM296.436 306.311H316.572V311.255H314.748V307.967H298.212V311.255H296.436V306.311ZM299.46 310.271H313.38V311.855H299.46V310.271ZM303.876 313.511L305.22 312.743C309.852 316.751 309.684 323.735 307.5 325.343C306.756 326.015 306.108 326.183 305.028 326.183C304.5 326.207 303.732 326.183 302.988 326.159C302.964 325.655 302.796 324.935 302.484 324.455C303.372 324.527 304.188 324.575 304.692 324.575C305.316 324.575 305.772 324.503 306.204 324.071C307.716 322.943 307.956 317.159 303.876 313.511ZM306.348 310.727L307.836 311.375C305.364 313.799 301.092 315.647 297.348 316.775C297.156 316.415 296.676 315.671 296.364 315.335C300.036 314.423 304.164 312.815 306.348 310.727ZM305.628 315.215L306.804 316.079C304.524 317.831 300.348 319.775 297.228 320.783C297.012 320.351 296.628 319.751 296.292 319.367C299.388 318.599 303.564 316.799 305.628 315.215ZM306.972 318.095L308.244 319.031C305.628 321.431 300.78 323.903 296.844 325.079C296.628 324.623 296.244 323.975 295.908 323.567C299.796 322.631 304.62 320.327 306.972 318.095ZM311.124 316.535C312.204 319.775 314.532 322.559 317.604 323.759C317.22 324.095 316.668 324.767 316.428 325.223C313.14 323.759 310.764 320.687 309.54 316.919L311.124 316.535ZM313.404 312.767L314.868 313.943C312.852 315.575 310.116 317.447 308.028 318.599L306.852 317.567C308.94 316.367 311.748 314.327 313.404 312.767ZM304.596 304.535L306.444 304.007C306.972 304.847 307.596 305.999 307.812 306.767L305.868 307.391C305.652 306.623 305.124 305.423 304.596 304.535Z" fill="black"/>
<path d="M203.753 360.84H171.982V487.925H203.753V360.84Z" fill="#1E7AB8"/>
<path d="M177.277 360.84H175.955V392.611H177.277V360.84Z" fill="#03588A"/>
<path d="M182.572 360.84H181.25V392.611H182.572V360.84Z" fill="#03588A"/>
<path d="M187.869 360.84H186.547V413.793H187.869V360.84Z" fill="#03588A"/>
<path d="M193.164 360.84H191.842V413.793H193.164V360.84Z" fill="#03588A"/>
<path d="M198.457 360.84H197.135V413.793H198.457V360.84Z" fill="#03588A"/>
<path d="M235.523 392.611H214.344V487.925H235.523V392.611Z" fill="#4EAFD7"/>
<path d="M256.705 445.564H235.525V487.926H256.705V445.564Z" fill="#4EAFD7"/>
<path d="M171.982 456.155H150.803V487.922H171.982V456.155Z" fill="#1B68A9"/>
<path d="M182.574 403.202H161.395V487.925H182.574V403.202Z" fill="#4EAFD7"/>
<path d="M177.278 429.677L161.395 419.085V487.925H166.69L177.278 429.677Z" fill="#1E7AB8"/>
<path d="M182.577 413.79H161.395V415.112H182.577V413.79Z" fill="white"/>
<path d="M182.577 419.085H161.395V420.408H182.577V419.085Z" fill="white"/>
<path d="M182.577 424.381H161.395V425.704H182.577V424.381Z" fill="white"/>
<path d="M171.986 429.677H161.395V431H171.986V429.677Z" fill="white"/>
<path d="M182.577 434.973H161.395V436.295H182.577V434.973Z" fill="white"/>
<path d="M182.577 440.269H161.395V441.591H182.577V440.269Z" fill="white"/>
<path d="M182.574 445.563H171.982V446.886H182.574V445.563Z" fill="white"/>
<path d="M182.577 450.859H161.395V452.181H182.577V450.859Z" fill="white"/>
<path d="M182.574 456.152H171.982V457.474H182.574V456.152Z" fill="white"/>
<path d="M246.119 434.973H193.166V487.926H246.119V434.973Z" fill="white"/>
<path d="M234.205 466.744H193.166V487.923H234.205V466.744Z" fill="#E3E2F1"/>
<path d="M193.166 458.799H226.262L234.202 466.743H193.166V458.799Z" fill="#E3E2F1"/>
<path d="M246.119 424.381H193.166V434.973H246.119V424.381Z" fill="#1E7AB8"/>
<path d="M219.643 424.381L230.234 434.973H209.055L219.643 424.381Z" fill="white"/>
<path d="M239.497 445.564H236.85V450.86H239.497V445.564Z" fill="#1E7AB8"/>
<path d="M234.204 445.564H231.557V450.86H234.204V445.564Z" fill="#1E7AB8"/>
<path d="M223.615 445.564H220.967V450.86H223.615V445.564Z" fill="#1E7AB8"/>
<path d="M218.32 445.564H215.672V450.86H218.32V445.564Z" fill="#1E7AB8"/>
<path d="M207.726 445.564H205.078V450.86H207.726V445.564Z" fill="#1E7AB8"/>
<path d="M202.431 445.564H199.783V450.86H202.431V445.564Z" fill="#1E7AB8"/>
<path d="M239.497 456.152H236.85V461.448H239.497V456.152Z" fill="#1E7AB8"/>
<path d="M234.204 456.152H231.557V461.448H234.204V456.152Z" fill="#1E7AB8"/>
<path d="M223.615 456.152H220.967V461.448H223.615V456.152Z" fill="#1E7AB8"/>
<path d="M218.32 456.152H215.672V461.448H218.32V456.152Z" fill="#1E7AB8"/>
<path d="M207.726 456.152H205.078V461.448H207.726V456.152Z" fill="#1E7AB8"/>
<path d="M202.431 456.152H199.783V461.448H202.431V456.152Z" fill="#1E7AB8"/>
<path d="M239.497 466.744H236.85V472.039H239.497V466.744Z" fill="#1E7AB8"/>
<path d="M234.204 466.744H231.557V472.039H234.204V466.744Z" fill="#1E7AB8"/>
<path d="M203.753 477.334H171.982V498.514H203.753V477.334Z" fill="white"/>
<path d="M203.756 477.334H171.982L182.574 466.743H214.344L203.756 477.334Z" fill="#1E7AB8"/>
<path d="M203.756 477.334L214.344 466.743L224.935 477.334V498.514H203.756V477.334Z" fill="#4EAFD7"/>
<path d="M183.899 482.63H178.604V493.222H183.899V482.63Z" fill="#1E7AB8"/>
<path d="M194.491 482.63H189.195V493.222H194.491V482.63Z" fill="#1E7AB8"/>
<path d="M182.574 392.611L203.757 403.202V360.84H193.165L182.574 392.611Z" fill="#4EAFD7"/>
<mask id="mask0_1114_1016" style="mask-type:luminance" maskUnits="userSpaceOnUse" x="182" y="360" width="22" height="44">
<path d="M182.574 392.611L203.757 403.202V360.841H193.165L182.574 392.611Z" fill="white"/>
</mask>
<g mask="url(#mask0_1114_1016)">
<path d="M187.869 360.84H186.547V413.793H187.869V360.84Z" fill="white"/>
<path d="M193.164 360.84H191.842V413.793H193.164V360.84Z" fill="white"/>
<path d="M198.457 360.84H197.135V413.793H198.457V360.84Z" fill="white"/>
</g>
<path d="M230.23 382.02H219.639V392.611H230.23V382.02Z" fill="#4EAFD7"/>
<path d="M226.261 371.429H223.613V382.02H226.261V371.429Z" fill="#03588A"/>
<g style="mix-blend-mode:screen" opacity="0.7">
<path d="M203.53 491.738H195.26V499.592H203.53V491.738Z" fill="#F5AD17"/>
</g>
<path d="M245.558 491.738H191.234V499.592H245.558V491.738Z" fill="#F5AD17"/>
<g opacity="0.6">
<path d="M244.343 492.772H243.283V498.554H244.343V492.772Z" fill="#FFB600"/>
<path d="M240.112 492.772H239.053V498.554H240.112V492.772Z" fill="#FFB600"/>
<path d="M235.884 492.772H234.824V498.554H235.884V492.772Z" fill="#FFB600"/>
<path d="M231.655 492.772H230.596V498.554H231.655V492.772Z" fill="#FFB600"/>
<path d="M227.427 492.772H226.367V498.554H227.427V492.772Z" fill="#FFB600"/>
<path d="M223.196 492.772H222.137V498.554H223.196V492.772Z" fill="#FFB600"/>
<path d="M218.972 492.772H217.912V498.554H218.972V492.772Z" fill="#FFB600"/>
<path d="M214.741 492.772H213.682V498.554H214.741V492.772Z" fill="#FFB600"/>
<path d="M210.513 492.772H209.453V498.554H210.513V492.772Z" fill="#FFB600"/>
<path d="M206.286 492.772H205.227V498.554H206.286V492.772Z" fill="#FFB600"/>
<path d="M202.056 492.772H200.996V498.554H202.056V492.772Z" fill="#FFB600"/>
<path d="M197.827 492.772H196.768V498.554H197.827V492.772Z" fill="#FFB600"/>
<path d="M193.601 492.772H192.541V498.554H193.601V492.772Z" fill="#FFB600"/>
</g>
<g style="mix-blend-mode:screen" opacity="0.7">
<path d="M207.598 491.738H199.594V499.592H207.598V491.738Z" fill="#F5AD17"/>
</g>
<path style="mix-blend-mode:multiply" opacity="0.4" d="M195.261 491.739H199.593H203.528H207.597H245.559V499.593H207.597H203.528H199.593H195.261H191.236V491.739H195.261Z" fill="url(#paint2_linear_1114_1016)"/>
<g style="mix-blend-mode:screen" opacity="0.7">
<path d="M204.143 483.871H195.873V491.725H204.143V483.871Z" fill="#F5AD17"/>
</g>
<path d="M246.171 483.871H191.848V491.725H246.171V483.871Z" fill="#F5AD17"/>
<g opacity="0.6">
<path d="M244.954 484.905H243.895V490.687H244.954V484.905Z" fill="#FFB600"/>
<path d="M240.724 484.905H239.664V490.687H240.724V484.905Z" fill="#FFB600"/>
<path d="M236.495 484.905H235.436V490.687H236.495V484.905Z" fill="#FFB600"/>
<path d="M232.271 484.905H231.211V490.687H232.271V484.905Z" fill="#FFB600"/>
<path d="M228.04 484.905H226.98V490.687H228.04V484.905Z" fill="#FFB600"/>
<path d="M223.81 484.905H222.75V490.687H223.81V484.905Z" fill="#FFB600"/>
<path d="M219.585 484.905H218.525V490.687H219.585V484.905Z" fill="#FFB600"/>
<path d="M215.355 484.905H214.295V490.687H215.355V484.905Z" fill="#FFB600"/>
<path d="M211.124 484.905H210.064V490.687H211.124V484.905Z" fill="#FFB600"/>
<path d="M206.898 484.905H205.838V490.687H206.898V484.905Z" fill="#FFB600"/>
<path d="M202.669 484.905H201.609V490.687H202.669V484.905Z" fill="#FFB600"/>
<path d="M198.441 484.905H197.381V490.687H198.441V484.905Z" fill="#FFB600"/>
<path d="M194.214 484.905H193.154V490.687H194.214V484.905Z" fill="#FFB600"/>
</g>
<g style="mix-blend-mode:screen" opacity="0.7">
<path d="M208.205 483.871H200.201V491.725H208.205V483.871Z" fill="#F5AD17"/>
</g>
<path style="mix-blend-mode:multiply" opacity="0.4" d="M195.872 483.871H200.201H204.139H208.208H246.171V491.725H208.208H204.139H200.201H195.872H191.848V483.871H195.872Z" fill="url(#paint3_linear_1114_1016)"/>
<g style="mix-blend-mode:screen" opacity="0.7">
<path d="M208.02 475.986H199.75V483.84H208.02V475.986Z" fill="#F5AD17"/>
</g>
<path d="M250.052 475.986H195.729V483.84H250.052V475.986Z" fill="#F5AD17"/>
<g opacity="0.6">
<path d="M248.831 477.02H247.771V482.802H248.831V477.02Z" fill="#FFB600"/>
<path d="M244.603 477.02H243.543V482.802H244.603V477.02Z" fill="#FFB600"/>
<path d="M240.376 477.02H239.316V482.802H240.376V477.02Z" fill="#FFB600"/>
<path d="M236.146 477.02H235.086V482.802H236.146V477.02Z" fill="#FFB600"/>
<path d="M231.919 477.02H230.859V482.802H231.919V477.02Z" fill="#FFB600"/>
<path d="M227.689 477.02H226.629V482.802H227.689V477.02Z" fill="#FFB600"/>
<path d="M223.462 477.02H222.402V482.802H223.462V477.02Z" fill="#FFB600"/>
<path d="M219.232 477.02H218.172V482.802H219.232V477.02Z" fill="#FFB600"/>
<path d="M215.005 477.02H213.945V482.802H215.005V477.02Z" fill="#FFB600"/>
<path d="M210.777 477.02H209.717V482.802H210.777V477.02Z" fill="#FFB600"/>
<path d="M206.546 477.02H205.486V482.802H206.546V477.02Z" fill="#FFB600"/>
<path d="M202.32 477.02H201.26V482.802H202.32V477.02Z" fill="#FFB600"/>
<path d="M198.091 477.02H197.031V482.802H198.091V477.02Z" fill="#FFB600"/>
</g>
<g style="mix-blend-mode:screen" opacity="0.7">
<path d="M212.086 475.986H204.082V483.84H212.086V475.986Z" fill="#F5AD17"/>
</g>
<path style="mix-blend-mode:multiply" opacity="0.4" d="M199.75 475.986H204.082H208.02H212.086H250.048V483.84H212.086H208.02H204.082H199.75H195.729V475.986H199.75Z" fill="url(#paint4_linear_1114_1016)"/>
<g style="mix-blend-mode:screen" opacity="0.7">
<path d="M210.077 468.12H201.807V475.974H210.077V468.12Z" fill="#F5AD17"/>
</g>
<path d="M252.108 468.12H197.785V475.974H252.108V468.12Z" fill="#F5AD17"/>
<g opacity="0.6">
<path d="M250.89 469.154H249.83V474.937H250.89V469.154Z" fill="#FFB600"/>
<path d="M246.659 469.154H245.6V474.937H246.659V469.154Z" fill="#FFB600"/>
<path d="M242.433 469.154H241.373V474.937H242.433V469.154Z" fill="#FFB600"/>
<path d="M238.204 469.154H237.145V474.937H238.204V469.154Z" fill="#FFB600"/>
<path d="M233.976 469.154H232.916V474.937H233.976V469.154Z" fill="#FFB600"/>
<path d="M229.747 469.154H228.688V474.937H229.747V469.154Z" fill="#FFB600"/>
<path d="M225.521 469.154H224.461V474.937H225.521V469.154Z" fill="#FFB600"/>
<path d="M221.29 469.154H220.23V474.937H221.29V469.154Z" fill="#FFB600"/>
<path d="M217.062 469.154H216.002V474.937H217.062V469.154Z" fill="#FFB600"/>
<path d="M212.833 469.154H211.773V474.937H212.833V469.154Z" fill="#FFB600"/>
<path d="M208.607 469.154H207.547V474.937H208.607V469.154Z" fill="#FFB600"/>
<path d="M204.376 469.154H203.316V474.937H204.376V469.154Z" fill="#FFB600"/>
<path d="M200.148 469.154H199.088V474.937H200.148V469.154Z" fill="#FFB600"/>
</g>
<g style="mix-blend-mode:screen" opacity="0.7">
<path d="M214.145 468.12H206.141V475.974H214.145V468.12Z" fill="#F5AD17"/>
</g>
<path style="mix-blend-mode:multiply" opacity="0.4" d="M201.808 468.12H206.14H210.078H214.145H252.11V475.973H214.145H210.078H206.14H201.808H197.787V468.12H201.808Z" fill="url(#paint5_linear_1114_1016)"/>
<g style="mix-blend-mode:screen" opacity="0.7">
<path d="M207.561 460.271H199.291V468.125H207.561V460.271Z" fill="#F5AD17"/>
</g>
<path d="M249.591 460.271H195.268V468.125H249.591V460.271Z" fill="#F5AD17"/>
<g opacity="0.6">
<path d="M248.368 461.306H247.309V467.088H248.368V461.306Z" fill="#FFB600"/>
<path d="M244.14 461.306H243.08V467.088H244.14V461.306Z" fill="#FFB600"/>
<path d="M239.913 461.306H238.854V467.088H239.913V461.306Z" fill="#FFB600"/>
<path d="M235.685 461.306H234.625V467.088H235.685V461.306Z" fill="#FFB600"/>
<path d="M231.454 461.306H230.395V467.088H231.454V461.306Z" fill="#FFB600"/>
<path d="M227.228 461.306H226.168V467.088H227.228V461.306Z" fill="#FFB600"/>
<path d="M223.001 461.306H221.941V467.088H223.001V461.306Z" fill="#FFB600"/>
<path d="M218.769 461.306H217.709V467.088H218.769V461.306Z" fill="#FFB600"/>
<path d="M214.542 461.306H213.482V467.088H214.542V461.306Z" fill="#FFB600"/>
<path d="M210.312 461.306H209.252V467.088H210.312V461.306Z" fill="#FFB600"/>
<path d="M206.085 461.306H205.025V467.088H206.085V461.306Z" fill="#FFB600"/>
<path d="M201.857 461.306H200.797V467.088H201.857V461.306Z" fill="#FFB600"/>
<path d="M197.628 461.306H196.568V467.088H197.628V461.306Z" fill="#FFB600"/>
</g>
<g style="mix-blend-mode:screen" opacity="0.7">
<path d="M211.623 460.271H203.619V468.125H211.623V460.271Z" fill="#F5AD17"/>
</g>
<path style="mix-blend-mode:multiply" opacity="0.4" d="M199.289 460.271H203.621H207.559H211.625H249.588V468.125H211.625H207.559H203.621H199.289H195.268V460.271H199.289Z" fill="url(#paint6_linear_1114_1016)"/>
<path d="M312.58 453.138C310.54 429.833 289.585 410.776 275.514 410.776C261.442 410.776 240.487 429.833 238.448 453.138C233.738 506.958 218.517 505.863 275.514 495.5C333.762 506.091 317.27 506.734 312.58 453.138Z" fill="#FFB600"/>
<path d="M275.515 500.796C295.986 500.796 312.581 493.683 312.581 484.909C312.581 476.135 295.986 469.022 275.515 469.022C255.044 469.022 238.449 476.135 238.449 484.909C238.449 493.683 255.044 500.796 275.515 500.796Z" fill="#FFB600"/>
<path d="M291.398 401.876C289.97 409.97 280.457 412.509 275.511 412.509C270.564 412.509 261.052 409.973 259.624 401.876C256.787 385.791 240.923 382.029 275.511 388.317C310.096 382.029 294.234 385.791 291.398 401.876Z" fill="#D5A924"/>
<path d="M276.623 377.53C280.382 377.53 283.43 384.827 283.43 395.882C283.43 406.938 280.382 410.546 276.623 410.546C272.864 410.546 269.816 406.941 269.816 395.882C269.816 384.827 272.864 377.53 276.623 377.53Z" fill="#FFB600"/>
<path d="M277.138 451.257C282.648 454.74 286.163 457.369 287.687 459.142C289.714 461.54 290.732 464.364 290.732 467.617C290.732 471.168 289.532 474.171 287.137 476.627C284.739 479.082 281.406 480.494 277.141 480.863V484.91H274.131V481.106C271.685 481.058 269.518 480.856 267.629 480.501C265.737 480.142 263.569 479.492 261.126 478.548V467.377H262.58C263.041 469.916 263.768 471.965 264.76 473.534C265.749 475.103 267.001 476.284 268.512 477.078C270.02 477.872 271.897 478.365 274.131 478.548V461.464C268.573 457.983 264.878 455.198 263.047 453.11C261.213 451.023 260.297 448.596 260.297 445.83C260.297 442.833 261.449 440.188 263.755 437.893C266.06 435.6 269.518 434.163 274.131 433.586V431.96H277.141V433.586C281.06 433.862 285.004 435.075 288.968 437.217V447.213H287.62C286.951 444.952 286.151 443.095 285.216 441.645C284.281 440.192 283.077 438.946 281.601 437.909C280.471 437.147 278.982 436.516 277.138 436.007V451.26V451.257ZM274.128 435.901C272.444 436.039 271.096 436.503 270.081 437.284C268.468 438.507 267.661 439.983 267.661 441.712C267.661 442.775 268.035 443.845 268.785 444.93C269.534 446.015 271.314 447.488 274.128 449.358V435.904V435.901ZM277.138 478.548C279.12 478.087 280.573 477.299 281.495 476.179C282.417 475.061 282.878 473.659 282.878 471.975C282.878 470.521 282.469 469.164 281.652 467.893C280.833 466.625 279.328 465.184 277.138 463.57V478.548Z" fill="white"/>
<path d="M291.397 414.747H259.626C258.163 414.747 256.979 413.563 256.979 412.099C256.979 410.636 258.163 409.452 259.626 409.452H291.397C292.86 409.452 294.045 410.636 294.045 412.099C294.045 413.563 292.86 414.747 291.397 414.747Z" fill="#B05541"/>
<path d="M259.629 427.986C258.899 427.986 258.307 427.394 258.307 426.664C258.307 422.361 261.508 417.971 267.323 414.312C271.863 411.452 277.408 409.455 280.811 409.455C281.541 409.455 282.134 410.047 282.134 410.777C282.134 411.507 281.541 412.099 280.811 412.099C275.25 412.099 260.954 419.021 260.954 426.66C260.954 427.39 260.362 427.983 259.632 427.983L259.629 427.986Z" fill="#B05541"/>
<path d="M264.924 433.282C264.194 433.282 263.602 432.689 263.602 431.959C263.602 424.423 267.399 418.807 269.662 416.127C273.143 412.01 277.414 409.455 280.811 409.455C281.541 409.455 282.133 410.047 282.133 410.777C282.133 411.507 281.541 412.099 280.811 412.099C275.954 412.099 266.249 420.683 266.249 431.956C266.249 432.686 265.657 433.278 264.927 433.278L264.924 433.282Z" fill="#B05541"/>
<path d="M303.184 501.117C303.164 501.117 303.145 501.117 303.126 501.117C302.761 501.085 302.492 500.764 302.524 500.399C302.575 499.81 302.627 499.199 302.684 498.558L302.755 497.761C302.787 497.396 303.104 497.127 303.472 497.159C303.837 497.191 304.106 497.512 304.074 497.877L304.003 498.677C303.949 499.314 303.894 499.926 303.843 500.515C303.814 500.86 303.523 501.12 303.184 501.12V501.117Z" fill="#B05541"/>
<path d="M304.077 490.058C304.077 490.058 304.048 490.058 304.032 490.058C303.667 490.032 303.392 489.719 303.417 489.354C303.549 487.388 303.648 485.553 303.725 483.744C303.741 483.379 304.055 483.091 304.413 483.11C304.778 483.126 305.063 483.434 305.047 483.799C304.97 485.617 304.868 487.461 304.737 489.437C304.714 489.786 304.423 490.055 304.077 490.055V490.058ZM304.564 475.986C304.199 475.986 303.904 475.692 303.901 475.327C303.894 473.419 303.856 471.533 303.786 469.718C303.77 469.353 304.055 469.045 304.42 469.029C304.794 469.016 305.092 469.298 305.108 469.663C305.182 471.495 305.22 473.396 305.226 475.321C305.226 475.686 304.932 475.983 304.567 475.983L304.564 475.986ZM303.843 461.925C303.51 461.925 303.222 461.672 303.187 461.332C302.988 459.443 302.742 457.577 302.457 455.784C302.399 455.422 302.646 455.083 303.008 455.025C303.366 454.971 303.709 455.214 303.766 455.576C304.055 457.391 304.304 459.283 304.506 461.195C304.544 461.56 304.282 461.883 303.917 461.921C303.895 461.921 303.869 461.925 303.846 461.925H303.843ZM301.41 448.068C301.115 448.068 300.846 447.869 300.77 447.571C300.299 445.73 299.764 443.928 299.188 442.218C299.07 441.872 299.258 441.498 299.604 441.379C299.953 441.261 300.328 441.45 300.443 441.796C301.032 443.541 301.573 445.372 302.054 447.245C302.143 447.6 301.932 447.959 301.576 448.052C301.522 448.065 301.468 448.074 301.41 448.074V448.068ZM296.607 434.858C296.364 434.858 296.127 434.723 296.012 434.489C295.179 432.802 294.267 431.169 293.3 429.636C293.105 429.325 293.198 428.918 293.508 428.723C293.816 428.528 294.225 428.621 294.421 428.931C295.41 430.503 296.345 432.175 297.2 433.903C297.363 434.23 297.229 434.627 296.899 434.79C296.806 434.838 296.703 434.858 296.607 434.858ZM288.773 423.219C288.594 423.219 288.414 423.146 288.283 423.002C287.038 421.631 285.699 420.331 284.31 419.137C284.031 418.9 283.999 418.481 284.239 418.202C284.476 417.924 284.896 417.892 285.174 418.132C286.609 419.361 287.985 420.7 289.266 422.112C289.512 422.384 289.493 422.8 289.221 423.046C289.093 423.162 288.936 423.219 288.776 423.219H288.773Z" fill="#B05541"/>
<defs>
<filter id="filter0_d_1114_1016" x="30.4199" y="110.538" width="410.749" height="462.462" filterUnits="userSpaceOnUse" color-interpolation-filters="sRGB">
<feFlood flood-opacity="0" result="BackgroundImageFix"/>
<feColorMatrix in="SourceAlpha" type="matrix" values="0 0 0 0 0 0 0 0 0 0 0 0 0 0 0 0 0 0 127 0" result="hardAlpha"/>
<feOffset dx="1" dy="2"/>
<feGaussianBlur stdDeviation="15"/>
<feComposite in2="hardAlpha" operator="out"/>
<feColorMatrix type="matrix" values="0 0 0 0 0 0 0 0 0 0 0 0 0 0 0 0 0 0 0.25 0"/>
<feBlend mode="normal" in2="BackgroundImageFix" result="effect1_dropShadow_1114_1016"/>
<feBlend mode="normal" in="SourceGraphic" in2="effect1_dropShadow_1114_1016" result="shape"/>
</filter>
<filter id="filter1_d_1114_1016" x="0" y="0" width="469.442" height="259.319" filterUnits="userSpaceOnUse" color-interpolation-filters="sRGB">
<feFlood flood-opacity="0" result="BackgroundImageFix"/>
<feColorMatrix in="SourceAlpha" type="matrix" values="0 0 0 0 0 0 0 0 0 0 0 0 0 0 0 0 0 0 127 0" result="hardAlpha"/>
<feOffset dy="4"/>
<feGaussianBlur stdDeviation="10"/>
<feComposite in2="hardAlpha" operator="out"/>
<feColorMatrix type="matrix" values="0 0 0 0 0 0 0 0 0 0 0 0 0 0 0 0 0 0 0.25 0"/>
<feBlend mode="normal" in2="BackgroundImageFix" result="effect1_dropShadow_1114_1016"/>
<feBlend mode="normal" in="SourceGraphic" in2="effect1_dropShadow_1114_1016" result="shape"/>
</filter>
<linearGradient id="paint0_linear_1114_1016" x1="62.7195" y1="16" x2="375.974" y2="332.302" gradientUnits="userSpaceOnUse">
<stop stop-color="#7FE1FE"/>
<stop offset="0.449935" stop-color="#429DDB"/>
<stop offset="1" stop-color="#0149A6"/>
<stop offset="1" stop-color="#2C73D0"/>
</linearGradient>
<linearGradient id="paint1_linear_1114_1016" x1="41.2891" y1="167.759" x2="401.636" y2="580.977" gradientUnits="userSpaceOnUse">
<stop stop-color="#7CDEFD"/>
<stop offset="0.520833" stop-color="#368ED2"/>
<stop offset="1" stop-color="#2071BF"/>
</linearGradient>
<linearGradient id="paint2_linear_1114_1016" x1="218.396" y1="492.2" x2="218.396" y2="499.147" gradientUnits="userSpaceOnUse">
<stop stop-color="white"/>
<stop offset="1" stop-color="#EFB717"/>
</linearGradient>
<linearGradient id="paint3_linear_1114_1016" x1="219.008" y1="484.332" x2="219.008" y2="491.283" gradientUnits="userSpaceOnUse">
<stop stop-color="white"/>
<stop offset="1" stop-color="#EFB717"/>
</linearGradient>
<linearGradient id="paint4_linear_1114_1016" x1="222.888" y1="476.447" x2="222.888" y2="483.395" gradientUnits="userSpaceOnUse">
<stop stop-color="white"/>
<stop offset="1" stop-color="#EFB717"/>
</linearGradient>
<linearGradient id="paint5_linear_1114_1016" x1="224.947" y1="468.581" x2="224.947" y2="475.528" gradientUnits="userSpaceOnUse">
<stop stop-color="white"/>
<stop offset="1" stop-color="#EFB717"/>
</linearGradient>
<linearGradient id="paint6_linear_1114_1016" x1="222.428" y1="460.733" x2="222.428" y2="467.68" gradientUnits="userSpaceOnUse">
<stop stop-color="white"/>
<stop offset="1" stop-color="#EFB717"/>
</linearGradient>
</defs>
</svg>
