<svg width="210" height="341" viewBox="0 0 210 341" fill="none" xmlns="http://www.w3.org/2000/svg">
<g filter="url(#filter0_d_1114_1010)">
<rect x="32" y="67.0122" width="146.035" height="241.058" fill="white"/>
</g>
<g filter="url(#filter1_d_1114_1010)">
<path d="M179.533 64.4116V16H30.467V64.4116H20L105 107.927L190 64.4116H179.533Z" fill="url(#paint0_linear_1114_1010)"/>
</g>
<path d="M31.4512 312.071V81.9688L35.2149 83.7899V308.296H174.703V83.856L178.467 82.0348V312.071H31.4512Z" fill="url(#paint1_linear_1114_1010)"/>
<path d="M59.8916 61.956H66.3356V63.9H59.8916V61.956ZM59.9096 66.204H66.3536V68.166H59.9096V66.204ZM59.8916 70.47H66.3536V72.414H59.8916V70.47ZM58.8656 57.69H67.3616V73.368H65.1836V59.724H60.9356V73.476H58.8656V57.69ZM51.3056 60.426H58.2356V62.478H51.3056V60.426ZM53.9156 56.718H55.9856V73.62H53.9156V56.718ZM53.7896 61.812L55.0856 62.262C54.4916 65.196 53.3036 68.652 51.8816 70.524C51.6836 69.912 51.1796 69.03 50.8556 68.49C52.1516 66.924 53.3036 64.116 53.7896 61.812ZM55.8236 63.396C56.3456 63.9 58.1096 66.078 58.5056 66.564L57.2816 68.31C56.7596 67.248 55.4816 65.286 54.8336 64.386L55.8236 63.396ZM75.4076 62.226H84.4796V63.918H75.4076V62.226ZM75.4076 64.854H84.4796V66.546H75.4076V64.854ZM76.4696 71.316H83.4176V73.026H76.4696V71.316ZM74.1476 59.526H85.7936V61.272H74.1476V59.526ZM75.1376 67.554H84.7136V73.53H82.8056V69.264H76.9556V73.584H75.1376V67.554ZM78.2156 57.366L80.0336 56.664C80.5376 57.42 81.0776 58.41 81.3476 59.076L79.4576 59.904C79.2236 59.22 78.6656 58.158 78.2156 57.366ZM72.7256 56.79L74.6516 57.384C73.5896 60.408 71.8616 63.612 70.0256 65.664C69.8456 65.178 69.2876 64.062 68.9276 63.558C70.4396 61.902 71.8796 59.346 72.7256 56.79ZM71.3576 61.776L73.3196 59.814V59.832V73.674H71.3576V61.776ZM95.3156 56.682L97.4396 57.222C96.6836 59.292 95.4236 61.38 94.1816 62.676C93.7676 62.316 92.8856 61.668 92.3636 61.398C93.6056 60.264 94.7036 58.464 95.3156 56.682ZM96.1076 58.374H103.614V60.174H95.1896L96.1076 58.374ZM96.3056 64.278V65.016H100.572V64.278H96.3056ZM96.3056 62.262V63H100.572V62.262H96.3056ZM94.2896 60.912H102.696V66.384H94.2896V60.912ZM96.8096 65.7L98.7536 66.276C97.6736 68.166 95.8196 69.786 94.0196 70.776C93.6956 70.416 92.9576 69.678 92.5256 69.354C94.2896 68.544 95.9456 67.23 96.8096 65.7ZM94.9736 66.618C96.5036 69.372 99.7256 71.154 104.082 71.784C103.65 72.216 103.092 73.062 102.822 73.602C98.2496 72.756 95.0816 70.65 93.2096 67.194L94.9736 66.618ZM96.8816 67.14H101.634V68.706H95.8196L96.8816 67.14ZM100.968 67.14H101.382L101.742 67.068L103.092 67.734C101.4 71.226 97.6376 72.918 93.4256 73.692C93.2276 73.188 92.7776 72.396 92.4176 71.964C96.2336 71.424 99.7076 69.966 100.968 67.428V67.14ZM89.2496 65.808L91.2296 63.45V73.62H89.2496V65.808ZM92.6336 63.27L93.9296 64.53C93.1556 65.196 92.5616 65.934 92.0216 66.402L91.1396 65.448C91.5896 64.89 92.2736 63.918 92.6336 63.27ZM87.2336 59.76H91.7876V61.686H87.2336V59.76ZM91.0136 64.476C91.4996 64.854 93.1016 66.474 93.4616 66.87L92.2196 68.508C91.7336 67.68 90.5636 66.06 89.9696 65.358L91.0136 64.476ZM91.1936 59.76H91.6076L91.9856 59.688L93.1376 60.498C92.0036 63.72 89.8076 66.978 87.7556 68.796C87.5936 68.202 87.0716 67.068 86.7476 66.69C88.5656 65.25 90.4196 62.55 91.1936 60.174V59.76ZM88.7096 57.564L90.4196 56.79C90.8876 57.528 91.4276 58.518 91.6796 59.166L89.8976 60.066C89.6816 59.4 89.1416 58.338 88.7096 57.564ZM105.288 62.064H113.928V64.062H105.288V62.064ZM114.792 58.896H116.898V69.012H114.792V58.896ZM108.726 58.5H110.85V73.602H108.726V58.5ZM119.058 57.06H121.2V70.974C121.2 72.252 120.948 72.846 120.21 73.206C119.454 73.548 118.266 73.62 116.61 73.62C116.502 72.99 116.16 72 115.854 71.388C117.042 71.424 118.194 71.424 118.572 71.424C118.914 71.424 119.058 71.316 119.058 70.974V57.06ZM112.344 56.79L113.892 58.446C111.606 59.346 108.438 59.958 105.72 60.336C105.63 59.85 105.324 59.094 105.072 58.644C107.7 58.248 110.598 57.582 112.344 56.79ZM108.708 63.018L110.166 63.648C109.266 66.348 107.682 69.57 105.99 71.37C105.774 70.722 105.234 69.822 104.874 69.246C106.422 67.752 107.988 65.124 108.708 63.018ZM110.526 64.836C111.228 65.286 113.46 67.158 113.982 67.626L112.758 69.48C111.966 68.508 110.292 66.762 109.41 65.952L110.526 64.836ZM123.342 59.202H131.946V61.128H123.342V59.202ZM125.214 61.164L127.05 61.74C126.348 63.432 125.25 65.358 124.296 66.564C123.99 66.222 123.252 65.52 122.838 65.214C123.738 64.17 124.656 62.604 125.214 61.164ZM128.076 63.99L130.11 64.35C129.102 68.328 127.212 71.388 124.404 73.26C124.116 72.846 123.378 72.036 122.946 71.676C125.61 70.128 127.302 67.428 128.076 63.99ZM128.22 61.866L129.786 61.02C130.686 62.082 131.658 63.522 132.018 64.53L130.326 65.484C130.002 64.494 129.084 62.982 128.22 61.866ZM124.728 65.79L126.312 64.638C128.076 66.384 130.308 68.814 131.28 70.488L129.552 71.856C128.67 70.182 126.528 67.626 124.728 65.79ZM133.782 59.868H139.776V61.866H133.782V59.868ZM133.854 56.7L135.87 57.006C135.258 60.786 134.196 64.386 132.414 66.69C132.162 66.258 131.478 65.358 131.064 64.962C132.576 63.036 133.422 59.94 133.854 56.7ZM136.932 61.272L138.984 61.506C138.12 67.644 136.104 71.496 131.712 73.71C131.442 73.314 130.686 72.504 130.236 72.126C134.502 70.29 136.266 66.798 136.932 61.272ZM134.304 62.748C135.204 66.672 137.112 70.218 140.118 71.91C139.632 72.324 138.948 73.098 138.624 73.656C135.438 71.586 133.584 67.752 132.486 63.162L134.304 62.748ZM125.97 57.294L127.824 56.646C128.292 57.294 128.742 58.158 128.94 58.752L126.996 59.508C126.834 58.896 126.402 57.978 125.97 57.294ZM141.468 66.186H157.578V68.166H141.468V66.186ZM148.398 58.284H150.702V73.62H148.398V58.284ZM147.804 67.158L149.604 67.932C147.912 70.182 145.122 72.126 142.386 73.134C142.062 72.612 141.396 71.802 140.928 71.352C143.592 70.542 146.382 68.904 147.804 67.158ZM151.098 67.032C152.574 68.76 155.454 70.398 158.1 71.208C157.632 71.64 156.966 72.486 156.642 73.026C153.978 71.982 151.134 69.984 149.406 67.788L151.098 67.032ZM145.482 62.154V63.324H153.546V62.154H145.482ZM145.482 59.346V60.48H153.546V59.346H145.482ZM143.232 57.546H155.922V65.124H143.232V57.546Z" fill="black"/>
<path d="M65.5492 144.06C66.9892 143.708 69.1492 143.1 71.1812 142.508L71.3252 143.612C69.4532 144.172 67.4372 144.78 65.9012 145.212L65.5492 144.06ZM65.7412 138.812H71.1652V139.948H65.7412V138.812ZM68.0452 135.596H69.2132V148.78C69.2132 149.452 69.0372 149.788 68.6372 149.964C68.2052 150.156 67.5492 150.188 66.4452 150.188C66.3972 149.884 66.2212 149.388 66.0772 149.068C66.8292 149.1 67.5172 149.084 67.7252 149.084C67.9492 149.084 68.0452 149.004 68.0452 148.78V135.596ZM71.3572 140.108L79.9492 139.212L80.0772 140.332L71.4852 141.26L71.3572 140.108ZM75.8212 136.572L76.7332 135.964C77.5332 136.636 78.4932 137.612 78.9412 138.268L77.9812 138.956C77.5652 138.284 76.6052 137.276 75.8212 136.572ZM73.5172 135.644H74.7332C75.0052 142.828 76.3012 148.588 78.6852 148.828C79.1172 148.86 79.3732 147.98 79.5332 146.22C79.7732 146.46 80.3012 146.764 80.5572 146.876C80.1892 149.484 79.5492 150.284 78.7332 150.236C75.1652 149.964 73.9012 143.804 73.5172 135.644ZM78.2692 141.58L79.2612 142.188C77.8212 145.324 74.9412 148.348 71.8212 149.756C71.5972 149.436 71.2132 149.052 70.8772 148.812C74.0612 147.548 76.9412 144.604 78.2692 141.58ZM82.5572 143.948H90.0612V145.004H82.5572V143.948ZM85.7092 142.22H86.8452V148.412H85.7092V142.22ZM82.0132 148.364C84.0292 148.044 87.2132 147.468 90.2212 146.892L90.2852 147.948C87.4372 148.508 84.3812 149.1 82.2852 149.5L82.0132 148.364ZM82.1412 136.636H90.3812V137.708H82.1412V136.636ZM87.0852 138.748L87.9492 138.22C88.8452 139.308 89.9172 140.764 90.3812 141.676L89.4692 142.284C89.0052 141.356 87.9652 139.852 87.0852 138.748ZM91.2772 136.972H92.3972V146.668H91.2772V136.972ZM94.4452 135.852H95.6132V148.428C95.6132 149.18 95.4212 149.548 94.9572 149.74C94.4452 149.932 93.5972 149.964 92.4292 149.964C92.3812 149.644 92.1732 149.1 91.9972 148.764C92.9252 148.796 93.8052 148.796 94.0932 148.796C94.3652 148.78 94.4452 148.7 94.4452 148.428V135.852ZM82.9092 141.996C82.8452 141.74 82.6692 141.18 82.5252 140.876C82.7652 140.828 83.0052 140.54 83.2932 140.156C83.5812 139.772 84.4932 138.316 85.0212 136.908L86.1892 137.372C85.5012 138.828 84.5412 140.332 83.6612 141.356V141.372C83.6612 141.372 82.9092 141.74 82.9092 141.996ZM82.9092 141.996L82.8932 141.132L83.5332 140.748L88.9092 140.3C89.0372 140.604 89.2772 140.988 89.4212 141.228C83.9492 141.756 83.3092 141.82 82.9092 141.996ZM103.517 138.924V140.044H109.901V138.924H103.517ZM103.517 137.004V138.092H109.901V137.004H103.517ZM102.413 136.156H111.069V140.892H102.413V136.156ZM104.877 147.42L105.837 147.26C106.093 148.124 106.301 149.26 106.365 149.996L105.341 150.172C105.309 149.42 105.117 148.3 104.877 147.42ZM107.197 147.452L108.093 147.164C108.557 147.98 109.005 149.084 109.197 149.804L108.237 150.14C108.077 149.42 107.629 148.284 107.197 147.452ZM109.597 147.276L110.493 146.892C111.197 147.82 111.949 149.052 112.269 149.868L111.325 150.3C111.021 149.468 110.285 148.204 109.597 147.276ZM102.861 146.988L103.821 147.404C103.421 148.348 102.845 149.532 102.125 150.268L101.165 149.788C101.885 149.084 102.509 147.9 102.861 146.988ZM105.053 144.556L105.741 144.268C106.173 144.988 106.589 145.98 106.749 146.604L106.029 146.94C105.885 146.268 105.469 145.292 105.053 144.556ZM102.109 144.108C102.045 143.948 101.885 143.564 101.757 143.372C101.997 143.34 102.173 143.196 102.381 142.956C102.621 142.732 103.341 141.788 103.725 140.892L104.669 141.292C104.157 142.172 103.469 143.052 102.813 143.676V143.692C102.813 143.692 102.109 143.932 102.109 144.108ZM102.109 144.108L102.077 143.388L102.701 143.116L105.117 142.988C105.053 143.244 104.989 143.596 105.005 143.804C102.813 143.948 102.365 144.028 102.109 144.108ZM102.221 146.652C102.157 146.476 101.997 146.076 101.853 145.868C102.157 145.836 102.461 145.596 102.845 145.228C103.245 144.876 104.573 143.436 105.373 142.076L106.269 142.556C105.325 143.9 104.125 145.244 102.909 146.188V146.22C102.909 146.22 102.221 146.476 102.221 146.652ZM102.221 146.652L102.157 145.916L102.765 145.612L106.125 145.308C106.077 145.548 106.045 145.916 106.061 146.124C103.005 146.444 102.509 146.54 102.221 146.652ZM110.269 144.604L110.957 144.284C111.469 145.004 111.965 145.98 112.173 146.62L111.453 146.988C111.245 146.316 110.765 145.34 110.269 144.604ZM107.133 144.204C107.085 144.044 106.925 143.66 106.797 143.468C107.021 143.436 107.197 143.276 107.421 143.052C107.629 142.844 108.365 141.916 108.749 141.02L109.693 141.436C109.165 142.3 108.509 143.164 107.853 143.772V143.788C107.853 143.788 107.133 144.028 107.133 144.204ZM107.133 144.204L107.101 143.484L107.741 143.212L110.157 143.1C110.093 143.34 110.029 143.708 110.045 143.916C107.837 144.044 107.389 144.124 107.133 144.204ZM107.277 146.7C107.213 146.524 107.053 146.108 106.925 145.916C107.229 145.884 107.533 145.644 107.917 145.276C108.333 144.924 109.677 143.484 110.509 142.124L111.405 142.62C110.445 143.932 109.213 145.292 107.981 146.236V146.252C107.981 146.252 107.277 146.508 107.277 146.7ZM107.277 146.7L107.213 145.932L107.853 145.644L111.357 145.308C111.309 145.564 111.293 145.932 111.309 146.14C108.109 146.476 107.581 146.572 107.277 146.7ZM98.4292 136.668L99.0212 135.804C99.9012 136.22 101.085 136.924 101.677 137.468L101.069 138.476C100.509 137.916 99.3412 137.164 98.4292 136.668ZM97.5972 141.02L98.1572 140.108C99.0372 140.508 100.205 141.18 100.797 141.692L100.221 142.7C99.6612 142.188 98.4932 141.452 97.5972 141.02ZM98.0132 149.18C98.7492 147.964 99.8212 145.884 100.621 144.076L101.389 144.876C100.653 146.556 99.6932 148.524 98.8932 150.012L98.0132 149.18ZM115.117 138.156H119.981V148.62H115.117V147.532H118.861V139.228H115.117V138.156ZM114.397 138.156H115.517V149.9H114.397V138.156ZM115.037 142.604H119.453V143.676H115.037V142.604ZM116.845 135.548L118.141 135.788C117.821 136.78 117.421 137.884 117.101 138.604L116.141 138.364C116.413 137.596 116.717 136.38 116.845 135.548ZM122.253 138.108H127.165V139.228H122.253V138.108ZM126.749 138.108H127.869C127.869 138.108 127.869 138.556 127.869 138.732C127.613 146.076 127.389 148.556 126.749 149.34C126.397 149.804 126.029 149.948 125.469 149.996C124.925 150.06 123.981 150.028 123.085 149.98C123.053 149.628 122.909 149.132 122.685 148.812C123.725 148.892 124.685 148.908 125.053 148.908C125.373 148.908 125.565 148.86 125.741 148.652C126.269 148.076 126.525 145.42 126.749 138.364V138.108ZM122.589 135.516L123.741 135.788C123.149 138.172 122.205 140.524 121.101 142.044C120.893 141.852 120.397 141.516 120.109 141.356C121.197 139.948 122.077 137.74 122.589 135.516ZM121.853 142.268L122.781 141.724C123.693 142.86 124.797 144.412 125.309 145.356L124.285 145.996C123.805 145.02 122.733 143.436 121.853 142.268ZM130.317 146.412H143.981V147.372H130.317V146.412ZM132.109 148.86H141.581V149.868H132.109V148.86ZM132.061 143.948H142.093V149.868H140.893V144.94H132.061V143.948ZM131.069 136.028H142.893V137.004H131.069V136.028ZM136.349 136.556H137.533V143.244H136.349V136.556ZM130.237 138.14H143.773V141.74H142.653V139.052H131.341V141.74H130.237V138.14ZM131.677 142.508C132.685 142.284 134.109 141.9 135.549 141.484L135.645 142.252C134.381 142.668 133.133 143.084 132.061 143.404L131.677 142.508ZM132.061 140.268L132.413 139.612C133.453 139.804 134.797 140.156 135.517 140.46L135.165 141.196C134.461 140.876 133.117 140.476 132.061 140.268ZM141.453 139.564L141.997 140.268C141.069 140.652 139.773 140.972 138.845 141.164L138.413 140.556C139.325 140.332 140.685 139.868 141.453 139.564ZM138.205 142.124L138.541 141.436C139.869 141.724 141.597 142.236 142.509 142.668L142.205 143.42C141.277 143.004 139.565 142.444 138.205 142.124ZM65.9492 169.116H70.9092V170.268H65.9492V169.116ZM65.5012 159.084H71.4692V171.484H70.2532V160.22H66.6692V171.596H65.5012V159.084ZM60.9572 158.94H62.1572V172.284H60.9572V158.94ZM57.8212 162.316H64.9572V163.436H57.8212V162.316ZM60.8932 162.716L61.7412 163.02C60.9892 165.5 59.5172 168.46 58.0772 169.996C57.9492 169.66 57.6452 169.18 57.4372 168.892C58.7812 167.516 60.2532 164.924 60.8932 162.716ZM64.0292 157.74L64.8452 158.668C63.1332 159.308 60.5092 159.772 58.3172 160.028C58.2532 159.756 58.1092 159.356 57.9652 159.084C60.0932 158.796 62.6372 158.316 64.0292 157.74ZM62.0612 163.756C62.5732 164.268 64.4292 166.444 64.8452 166.972L64.1092 167.948C63.5972 167.1 62.0452 165.052 61.4532 164.348L62.0612 163.756ZM77.3412 161.164L78.4132 161.596C77.3412 163.5 75.6772 165.436 74.1252 166.7C74.0132 166.428 73.6772 165.804 73.4692 165.532C74.9092 164.46 76.4292 162.828 77.3412 161.164ZM77.0532 157.644L78.2052 158.076C77.2612 159.468 75.7412 160.972 74.3492 161.916C74.2052 161.644 73.9012 161.164 73.6932 160.924C74.9572 160.108 76.3652 158.764 77.0532 157.644ZM75.9172 164.06L77.0532 162.94L77.1012 162.956V172.3H75.9172V164.06ZM80.0292 158.3H86.9412V165.324H80.0292V164.268H85.7732V159.356H80.0292V158.3ZM80.0612 161.292H86.1412V162.3H80.0612V161.292ZM83.0372 164.7C83.8372 167.772 85.5972 170.172 88.4292 171.148C88.1572 171.404 87.7892 171.868 87.6132 172.204C84.6852 170.988 82.9252 168.396 82.0452 164.924L83.0372 164.7ZM86.9892 165.852L87.7892 166.684C86.8452 167.468 85.5972 168.284 84.6372 168.812L83.9972 168.044C84.8932 167.5 86.2212 166.556 86.9892 165.852ZM79.3572 172.316L79.2772 171.244L79.8372 170.796L83.4212 169.932C83.4212 170.268 83.4372 170.764 83.4692 171.02C80.1732 171.932 79.6772 172.108 79.3572 172.316ZM79.3572 172.316C79.2772 172.044 79.0052 171.548 78.8132 171.324C79.0692 171.18 79.4052 170.844 79.4052 170.188V158.3H80.5892V171.132C80.5892 171.132 79.3572 171.868 79.3572 172.316ZM89.8532 165.308H104.173V166.38H89.8532V165.308ZM93.3412 160.636H102.109V161.612H93.3412V160.636ZM93.3412 162.956H102.109V163.932H93.3412V162.956ZM97.0852 165.548C98.2372 168.508 100.797 170.428 104.557 171.116C104.301 171.388 103.965 171.868 103.805 172.188C99.9172 171.34 97.3252 169.196 95.9972 165.852L97.0852 165.548ZM102.493 166.524L103.453 167.18C102.253 168.06 100.653 168.988 99.4052 169.58L98.5892 168.956C99.8052 168.348 101.501 167.308 102.493 166.524ZM92.6852 158.22H102.621V159.244H93.9012V165.708H92.6852V158.22ZM92.2372 172.3L92.1732 171.34L92.7492 170.892L97.9972 169.644C97.9652 169.964 97.9332 170.46 97.9492 170.7C93.1492 171.932 92.5892 172.092 92.2372 172.3ZM92.4772 165.964H93.6612V171.148L92.2372 172.316C92.1412 172.028 91.9012 171.436 91.6772 171.132C91.9972 170.972 92.4772 170.636 92.4772 169.996V165.964ZM107.117 160.156H111.981V170.62H107.117V169.532H110.861V161.228H107.117V160.156ZM106.397 160.156H107.517V171.9H106.397V160.156ZM107.037 164.604H111.453V165.676H107.037V164.604ZM108.845 157.548L110.141 157.788C109.821 158.78 109.421 159.884 109.101 160.604L108.141 160.364C108.413 159.596 108.717 158.38 108.845 157.548ZM114.253 160.108H119.165V161.228H114.253V160.108ZM118.749 160.108H119.869C119.869 160.108 119.869 160.556 119.869 160.732C119.613 168.076 119.389 170.556 118.749 171.34C118.397 171.804 118.029 171.948 117.469 171.996C116.925 172.06 115.981 172.028 115.085 171.98C115.053 171.628 114.909 171.132 114.685 170.812C115.725 170.892 116.685 170.908 117.053 170.908C117.373 170.908 117.565 170.86 117.741 170.652C118.269 170.076 118.525 167.42 118.749 160.364V160.108ZM114.589 157.516L115.741 157.788C115.149 160.172 114.205 162.524 113.101 164.044C112.893 163.852 112.397 163.516 112.109 163.356C113.197 161.948 114.077 159.74 114.589 157.516ZM113.853 164.268L114.781 163.724C115.693 164.86 116.797 166.412 117.309 167.356L116.285 167.996C115.805 167.02 114.733 165.436 113.853 164.268ZM128.013 159.948H135.437V161.068H128.013V159.948ZM135.085 159.948H135.277L135.469 159.9L136.349 160.108C136.029 161.244 135.629 162.54 135.293 163.356L134.237 163.1C134.525 162.348 134.877 161.116 135.085 160.124V159.948ZM131.037 157.596H132.205V164.476H131.037V157.596ZM127.389 159.948H128.525V164.14C128.525 166.572 128.189 169.948 125.997 172.172C125.805 171.932 125.341 171.532 125.101 171.388C127.149 169.324 127.389 166.38 127.389 164.124V159.948ZM128.125 163.868H134.621V164.94H128.125V163.868ZM134.413 163.868H134.637L134.845 163.82L135.597 164.108C134.509 168.476 131.661 171.036 128.349 172.284C128.205 171.996 127.901 171.548 127.661 171.324C130.733 170.316 133.469 167.82 134.413 164.076V163.868ZM129.645 164.492C130.733 167.788 133.037 170.268 136.461 171.244C136.205 171.484 135.853 171.948 135.693 172.268C132.157 171.1 129.837 168.444 128.637 164.764L129.645 164.492ZM121.757 161.436H126.653V162.572H121.757V161.436ZM123.741 157.772H124.877V168.156H123.741V157.772ZM121.565 168.428C122.829 167.964 124.733 167.164 126.573 166.38L126.829 167.436C125.165 168.204 123.405 168.988 122.029 169.596L121.565 168.428ZM141.997 159.708H152.173V160.716H141.997V159.708ZM146.365 160.124L147.725 160.252C147.437 161.068 147.037 161.948 146.733 162.54L145.725 162.38C145.965 161.724 146.237 160.78 146.365 160.124ZM149.165 157.596L150.349 157.932C149.821 158.732 149.261 159.612 148.781 160.188L147.821 159.884C148.301 159.26 148.861 158.268 149.165 157.596ZM143.629 158.028L144.589 157.628C145.037 158.156 145.533 158.908 145.725 159.388L144.733 159.852C144.557 159.356 144.077 158.588 143.629 158.028ZM144.445 165.068V166.412H149.629V165.068H144.445ZM144.445 167.26V168.604H149.629V167.26H144.445ZM144.445 162.892V164.22H149.629V162.892H144.445ZM143.309 161.98H150.813V169.532H143.309V161.98ZM138.349 158.14L139.245 157.612C139.981 158.38 140.861 159.404 141.293 160.06L140.365 160.716C139.933 160.044 139.053 158.924 138.349 158.14ZM137.773 161.276H141.277V162.284H137.773V161.276ZM140.621 168.62C141.613 170.716 143.693 171.004 146.877 171.004C148.557 171.004 150.909 170.924 152.541 170.796C152.365 171.052 152.205 171.612 152.141 171.948C150.637 172.028 148.621 172.076 146.861 172.076C143.117 172.076 141.021 171.628 139.821 168.988L140.621 168.62ZM140.845 165.276H141.117L141.325 165.244L141.933 165.468C141.373 168.892 140.045 171.148 138.253 172.348C138.093 172.092 137.693 171.692 137.469 171.516C139.165 170.444 140.397 168.412 140.845 165.484V165.276ZM137.997 166.476V165.564L138.573 165.276H141.245L141.229 166.252H138.941C138.525 166.252 138.109 166.348 137.997 166.476ZM137.997 166.476C137.917 166.204 137.677 165.644 137.549 165.388C137.789 165.324 138.045 165.228 138.317 164.908C138.829 164.412 140.397 162.252 140.941 161.404V161.356L141.309 161.196L142.109 161.58C141.325 162.668 139.837 164.7 138.893 165.724C138.893 165.724 137.997 166.172 137.997 166.476ZM42.3172 190.412H55.9812V191.372H42.3172V190.412ZM44.1092 192.86H53.5812V193.868H44.1092V192.86ZM44.0612 187.948H54.0932V193.868H52.8932V188.94H44.0612V187.948ZM43.0692 180.028H54.8932V181.004H43.0692V180.028ZM48.3492 180.556H49.5332V187.244H48.3492V180.556ZM42.2372 182.14H55.7732V185.74H54.6532V183.052H43.3412V185.74H42.2372V182.14ZM43.6772 186.508C44.6852 186.284 46.1092 185.9 47.5492 185.484L47.6452 186.252C46.3812 186.668 45.1332 187.084 44.0612 187.404L43.6772 186.508ZM44.0612 184.268L44.4132 183.612C45.4532 183.804 46.7972 184.156 47.5172 184.46L47.1652 185.196C46.4612 184.876 45.1172 184.476 44.0612 184.268ZM53.4532 183.564L53.9972 184.268C53.0692 184.652 51.7732 184.972 50.8452 185.164L50.4132 184.556C51.3252 184.332 52.6852 183.868 53.4532 183.564ZM50.2052 186.124L50.5412 185.436C51.8692 185.724 53.5972 186.236 54.5092 186.668L54.2052 187.42C53.2772 187.004 51.5652 186.444 50.2052 186.124ZM63.0372 182.38H72.3492V183.484H63.0372V182.38ZM66.9732 179.596H68.1412V192.812C68.1412 193.532 67.9492 193.884 67.5012 194.076C67.0372 194.284 66.3172 194.316 65.0372 194.316C64.9892 194.012 64.7812 193.484 64.6052 193.164C65.5492 193.196 66.3652 193.18 66.6212 193.18C66.8612 193.164 66.9732 193.084 66.9732 192.812V179.596ZM62.4132 191.66C63.5652 190.732 65.4692 189.068 67.1812 187.5L67.6132 188.364C66.1092 189.9 64.4452 191.5 63.1652 192.7L62.4132 191.66ZM63.2772 184.924L64.2212 184.492C64.9252 185.404 65.6932 186.652 65.9812 187.468L64.9892 187.948C64.7172 187.132 63.9812 185.868 63.2772 184.924ZM71.0852 184.396L72.1252 184.956C71.2452 186.172 70.1252 187.628 69.2132 188.54L68.3812 188.044C69.2452 187.1 70.4292 185.532 71.0852 184.396ZM68.9092 180.396L69.6132 179.772C70.3012 180.236 71.1332 180.956 71.5332 181.452L70.8132 182.172C70.4132 181.628 69.6132 180.892 68.9092 180.396ZM68.0932 183.756C68.7012 188.028 69.8532 190.3 72.6052 192.236C72.3332 192.46 72.0132 192.828 71.8532 193.164C68.9412 191.004 67.7412 188.476 67.0852 183.932L68.0932 183.756ZM57.7412 180.668H62.6692V181.804H57.7412V180.668ZM57.8692 185.292H62.4132V186.428H57.8692V185.292ZM57.5492 191.468C58.8772 191.116 60.8612 190.492 62.7972 189.884L62.9732 190.988C61.1652 191.564 59.2772 192.172 57.8212 192.636L57.5492 191.468ZM59.6772 181.18H60.7972V191.084L59.6772 191.308V181.18ZM75.7892 184.892V186.812H79.4052V184.892H75.7892ZM74.7332 183.916H80.5252V187.804H74.7332V183.916ZM73.8692 181.564H81.1812V182.636H73.8692V181.564ZM81.3412 183.74H88.2692V184.828H81.3412V183.74ZM84.5572 186.108H85.6132V192.316C85.6132 192.668 85.6452 192.86 85.7412 192.924C85.8372 192.988 85.9652 193.004 86.1252 193.004C86.2852 193.004 86.6212 193.004 86.8292 193.004C87.0052 193.004 87.1972 192.988 87.2932 192.94C87.4052 192.892 87.4852 192.748 87.5172 192.476C87.5652 192.22 87.5812 191.564 87.5972 190.748C87.8212 190.956 88.2372 191.148 88.5412 191.244C88.5252 191.98 88.4612 192.812 88.3652 193.132C88.2692 193.452 88.0932 193.66 87.8532 193.772C87.6292 193.9 87.2292 193.932 86.9412 193.932C86.7012 193.932 86.1092 193.932 85.9172 193.932C85.5652 193.932 85.1652 193.852 84.9252 193.66C84.6532 193.452 84.5572 193.196 84.5572 192.188V186.108ZM83.5652 179.628H84.7012C84.6692 184.588 84.5412 190.988 80.8772 194.316C80.6852 194.076 80.3172 193.788 79.9972 193.612C83.5492 190.508 83.5332 184.316 83.5652 179.628ZM77.1492 187.484H78.2372V193.02C78.2372 193.564 78.1412 193.852 77.7572 194.028C77.3892 194.188 76.8612 194.22 76.0132 194.204C75.9812 193.916 75.8052 193.484 75.6612 193.212C76.2372 193.228 76.7652 193.228 76.9252 193.212C77.1012 193.212 77.1492 193.164 77.1492 193.004V187.484ZM75.2932 188.652L76.3012 188.86C75.9332 190.316 75.3412 191.82 74.6692 192.78C74.4772 192.62 74.0452 192.332 73.8052 192.204C74.4772 191.292 74.9732 189.964 75.2932 188.652ZM78.8772 188.86L79.7412 188.46C80.2532 189.34 80.7652 190.508 80.9412 191.276L80.0132 191.708C79.8532 190.924 79.3732 189.74 78.8772 188.86ZM85.3092 180.796L86.1252 180.332C86.7652 181.036 87.4852 182.012 87.7732 182.668L86.9252 183.196C86.6372 182.54 85.9492 181.532 85.3092 180.796ZM76.5572 179.82L77.6612 179.564C78.0452 180.252 78.4452 181.196 78.5892 181.772L77.4372 182.076C77.2932 181.484 76.9252 180.524 76.5572 179.82ZM92.6532 185.004V187.42H101.325V185.004H92.6532ZM91.6292 184.188H102.413V188.236H91.6292V184.188ZM94.2532 182.508H99.8372V183.356H94.2532V182.508ZM96.4612 184.476H97.4692V187.82H96.4612V184.476ZM93.6292 185.484L94.4932 185.196C94.9092 185.756 95.2932 186.508 95.4532 187.02L94.5252 187.356C94.3972 186.844 94.0292 186.06 93.6292 185.484ZM99.3892 185.132L100.413 185.452C100.061 186.14 99.6452 186.876 99.3252 187.356L98.4932 187.068C98.7972 186.524 99.1972 185.676 99.3892 185.132ZM92.5732 189.004H101.613V194.236H100.397V189.852H93.7572V194.3H92.5732V189.004ZM93.2772 190.924H100.925V191.804H93.2772V190.924ZM93.2772 192.892H100.925V193.756H93.2772V192.892ZM96.8932 179.516L97.9652 179.916C96.2692 182.124 93.2612 183.66 90.3012 184.62C90.1732 184.38 89.8372 183.884 89.6132 183.676C92.5412 182.876 95.4052 181.468 96.8932 179.516ZM97.5972 180.076C99.0692 181.612 101.965 182.956 104.557 183.564C104.301 183.772 103.965 184.204 103.789 184.492C101.197 183.788 98.2852 182.252 96.6692 180.476L97.5972 180.076ZM106.317 181.564H112.301V182.636H106.317V181.564ZM105.709 184.668H112.621V185.756H105.709V184.668ZM109.469 187.964H112.365V189.02H109.469V187.964ZM108.765 179.596H109.885V185.276H108.765V179.596ZM109.021 185.372H110.125V192.604H109.021V185.372ZM107.533 188.716C108.477 192.076 110.413 192.748 114.125 192.748C114.861 192.748 119.581 192.748 120.525 192.716C120.333 192.988 120.125 193.548 120.045 193.9H114.141C109.821 193.9 107.773 193.036 106.653 189.02L107.533 188.716ZM116.045 179.596H117.149C117.133 185.996 118.013 190.844 119.117 190.844C119.389 190.844 119.533 190.124 119.581 188.524C119.805 188.748 120.173 188.972 120.429 189.084C120.253 191.244 119.917 191.932 119.005 191.916C116.909 191.916 116.141 186.316 116.045 179.596ZM117.629 180.172L118.477 179.74C119.021 180.332 119.693 181.148 120.045 181.644L119.197 182.156C118.845 181.644 118.173 180.78 117.629 180.172ZM106.621 186.828L107.645 186.876C107.677 189.26 107.517 192.14 106.253 194.268C106.077 194.012 105.677 193.66 105.437 193.548C106.557 191.628 106.669 188.956 106.621 186.828ZM119.101 184.412L120.045 184.668C119.069 188.06 117.213 190.876 114.765 192.348C114.573 192.092 114.253 191.692 114.013 191.484C116.381 190.22 118.205 187.484 119.101 184.412ZM113.021 182.364H120.381V183.404H113.021V182.364ZM112.829 190.764L112.669 189.74L113.021 189.292L115.917 187.708C115.981 187.996 116.109 188.428 116.221 188.636C113.469 190.22 113.053 190.492 112.829 190.764ZM112.829 190.764C112.749 190.476 112.493 189.964 112.301 189.692C112.573 189.548 113.021 189.212 113.021 188.588V182.828H114.109V189.66C114.109 189.66 112.829 190.348 112.829 190.764ZM125.661 181.02H136.173V181.996H125.661V181.02ZM131.325 187.708C132.173 190.268 133.965 192.364 136.493 193.26C136.237 193.484 135.885 193.868 135.725 194.156C133.085 193.084 131.277 190.812 130.333 187.932L131.325 187.708ZM129.933 187.596L130.989 187.9C129.837 189.612 127.837 190.908 125.469 191.756C125.309 191.516 124.941 191.1 124.685 190.924C126.957 190.172 128.973 189.004 129.933 187.596ZM135.101 188.748L136.045 189.34C135.245 190.14 134.173 191.052 133.341 191.628L132.557 191.1C133.373 190.508 134.477 189.468 135.101 188.748ZM129.453 179.884L130.509 179.612C130.829 180.108 131.213 180.828 131.373 181.244L130.253 181.58C130.093 181.148 129.741 180.412 129.453 179.884ZM127.453 194.268L127.405 193.324L127.949 192.908L131.597 192.252C131.581 192.572 131.581 192.988 131.613 193.212C128.237 193.916 127.757 194.076 127.453 194.268ZM122.461 180.748L123.053 179.868C123.901 180.316 125.053 181.036 125.645 181.5L125.053 182.508C124.477 181.996 123.325 181.244 122.461 180.748ZM121.597 185.164L122.141 184.268C123.021 184.604 124.221 185.244 124.829 185.708L124.253 186.732C123.677 186.252 122.493 185.58 121.597 185.164ZM122.013 193.18C122.685 191.996 123.661 189.996 124.397 188.252L125.197 189.004C124.541 190.62 123.661 192.524 122.925 193.964L122.013 193.18ZM127.837 185.708V187.452H133.357V185.708H127.837ZM126.861 184.764H134.365V188.396H126.861V184.764ZM128.685 182.38H129.757C129.485 183.884 128.525 184.508 125.757 184.844C125.677 184.588 125.405 184.172 125.213 183.964C127.661 183.788 128.461 183.42 128.685 182.38ZM131.661 181.708H132.749V183.148C132.749 183.484 132.781 183.564 133.069 183.564C133.325 183.564 134.429 183.564 134.701 183.564C134.973 183.564 135.453 183.548 135.677 183.516C135.693 183.772 135.725 184.092 135.757 184.348C135.565 184.412 135.133 184.428 134.749 184.428C134.413 184.428 133.133 184.428 132.877 184.428C131.869 184.428 131.661 184.044 131.661 183.132V181.708ZM127.453 194.268C127.389 194.012 127.181 193.532 127.021 193.324C127.213 193.212 127.405 193.004 127.405 192.412V189.932H128.445V193.34C128.445 193.34 127.453 193.9 127.453 194.268ZM138.317 181.564H144.301V182.636H138.317V181.564ZM137.709 184.668H144.621V185.756H137.709V184.668ZM141.469 187.964H144.365V189.02H141.469V187.964ZM140.765 179.596H141.885V185.276H140.765V179.596ZM141.021 185.372H142.125V192.604H141.021V185.372ZM139.533 188.716C140.477 192.076 142.413 192.748 146.125 192.748C146.861 192.748 151.581 192.748 152.525 192.716C152.333 192.988 152.125 193.548 152.045 193.9H146.141C141.821 193.9 139.773 193.036 138.653 189.02L139.533 188.716ZM148.045 179.596H149.149C149.133 185.996 150.013 190.844 151.117 190.844C151.389 190.844 151.533 190.124 151.581 188.524C151.805 188.748 152.173 188.972 152.429 189.084C152.253 191.244 151.917 191.932 151.005 191.916C148.909 191.916 148.141 186.316 148.045 179.596ZM149.629 180.172L150.477 179.74C151.021 180.332 151.693 181.148 152.045 181.644L151.197 182.156C150.845 181.644 150.173 180.78 149.629 180.172ZM138.621 186.828L139.645 186.876C139.677 189.26 139.517 192.14 138.253 194.268C138.077 194.012 137.677 193.66 137.437 193.548C138.557 191.628 138.669 188.956 138.621 186.828ZM151.101 184.412L152.045 184.668C151.069 188.06 149.213 190.876 146.765 192.348C146.573 192.092 146.253 191.692 146.013 191.484C148.381 190.22 150.205 187.484 151.101 184.412ZM145.021 182.364H152.381V183.404H145.021V182.364ZM144.829 190.764L144.669 189.74L145.021 189.292L147.917 187.708C147.981 187.996 148.109 188.428 148.221 188.636C145.469 190.22 145.053 190.492 144.829 190.764ZM144.829 190.764C144.749 190.476 144.493 189.964 144.301 189.692C144.573 189.548 145.021 189.212 145.021 188.588V182.828H146.109V189.66C146.109 189.66 144.829 190.348 144.829 190.764ZM154.013 184.188H168.077V185.404H154.013V184.188ZM161.805 184.668C162.845 188.54 165.021 191.772 168.349 193.148C168.045 193.42 167.645 193.932 167.437 194.268C163.981 192.636 161.805 189.26 160.605 184.956L161.805 184.668ZM160.397 179.596H161.693C161.629 183.788 161.597 191.084 154.605 194.284C154.413 193.964 154.029 193.532 153.693 193.292C160.493 190.332 160.365 183.436 160.397 179.596Z" fill="black"/>
<path d="M85.7916 283.044H76.7969V292.893H85.7916V283.044Z" fill="#1E4C7A"/>
<path d="M108.776 280.012H99.7812V292.892H108.776V280.012Z" fill="#1E4C7A"/>
<path d="M135.469 249.261H126.475V292.893H135.469V249.261Z" fill="#1E4C7A"/>
<path d="M70.2314 284.276C69.9483 284.276 69.661 284.177 69.4272 283.976C68.9142 283.533 68.8527 282.753 69.2999 282.24L80.0058 269.819C80.2397 269.548 80.5803 269.392 80.9373 269.392H91.4256L138.316 223.352C138.8 222.876 139.579 222.884 140.055 223.368C140.531 223.853 140.523 224.632 140.039 225.108L92.7921 271.502C92.5623 271.727 92.2504 271.854 91.9304 271.854H81.5035L71.167 283.845C70.9249 284.128 70.5802 284.271 70.2355 284.271L70.2314 284.276Z" fill="#F65B4A"/>
<path d="M81.4386 273.98C83.2924 273.98 84.7952 272.477 84.7952 270.623C84.7952 268.769 83.2924 267.267 81.4386 267.267C79.5848 267.267 78.082 268.769 78.082 270.623C78.082 272.477 79.5848 273.98 81.4386 273.98Z" fill="#FAB541"/>
<path d="M131.259 235.223C133.113 235.223 134.616 233.721 134.616 231.867C134.616 230.013 133.113 228.51 131.259 228.51C129.405 228.51 127.902 230.013 127.902 231.867C127.902 233.721 129.405 235.223 131.259 235.223Z" fill="#FAB541"/>
<path d="M104.408 271.358C97.5512 271.234 92.0403 265.588 92.1019 258.752C92.1265 256.027 93.0292 253.524 94.5434 251.509C95.3887 250.381 96.431 249.404 97.6087 248.629C99.5865 247.324 101.962 246.573 104.519 246.597V241.505C100.912 241.472 97.5553 242.527 94.765 244.369C93.1031 245.465 91.6382 246.844 90.44 248.436C88.3021 251.284 87.0259 254.817 86.9931 258.657H86.989C86.9028 268.309 94.6788 276.273 104.359 276.446C104.412 276.446 104.465 276.446 104.519 276.446V271.353C104.482 271.353 104.445 271.353 104.404 271.353L104.408 271.358Z" fill="#F8C700"/>
<path d="M105.586 241.522C105.5 241.518 105.418 241.522 105.332 241.518C105.114 241.505 104.897 241.509 104.683 241.505C104.63 241.505 104.577 241.505 104.523 241.505V246.598C104.56 246.598 104.597 246.598 104.638 246.598C104.79 246.598 104.946 246.598 105.098 246.606C105.159 246.606 105.217 246.606 105.278 246.606C111.836 247.057 117.006 252.581 116.945 259.203C116.883 266.003 111.331 271.419 104.523 271.358V276.45C114.13 276.536 121.963 268.892 122.053 259.298C122.139 249.95 114.844 242.158 105.59 241.522H105.586Z" fill="#FAAA00"/>
<path d="M106.374 262.079C106.394 261.373 105.611 261.049 104.523 260.762V263.248C105.459 263.261 106.353 262.846 106.374 262.079Z" fill="#F3EA53"/>
<path d="M94.5436 251.51C93.0294 253.528 92.1267 256.032 92.1021 258.752C92.0405 265.588 97.5514 271.235 104.408 271.358C104.445 271.358 104.482 271.358 104.523 271.358V268.075H102.488V266.475C99.6196 265.904 97.892 264.165 97.97 261.596L102.611 261.698C102.578 262.716 103.464 263.229 104.494 263.254C104.503 263.254 104.515 263.254 104.523 263.254V260.767C104.232 260.693 103.92 260.619 103.596 260.541C101.253 259.979 98.2613 259.286 98.3557 256.048C98.4255 253.705 100.128 252.24 102.939 251.871V250.201H104.523V246.598C101.967 246.573 99.5908 247.32 97.613 248.629C96.4353 249.405 95.3971 250.381 94.5477 251.51H94.5436Z" fill="#F3EA53"/>
<path d="M102.938 256.035C102.921 256.626 103.57 256.942 104.517 257.213V255.104C103.725 255.096 102.958 255.379 102.938 256.035Z" fill="#F3EA53"/>
<path d="M106.719 250.197V252.002C109.357 252.577 110.785 254.206 110.716 256.553L106.202 256.454C106.231 255.556 105.472 255.117 104.54 255.096C104.532 255.096 104.524 255.096 104.52 255.096V257.205C104.868 257.304 105.254 257.398 105.664 257.501C108.048 258.092 111.163 258.859 111.073 262.101V262.109C111.073 262.109 111.073 262.105 111.073 262.101C110.995 264.669 109.074 266.171 106.272 266.569V268.071H104.52V271.354C111.327 271.415 116.875 265.999 116.941 259.199C117.002 252.577 111.832 247.053 105.275 246.602C105.213 246.602 105.156 246.602 105.094 246.602C104.942 246.594 104.786 246.598 104.634 246.594C104.597 246.594 104.561 246.594 104.52 246.594V250.197H106.719Z" fill="#F8C700"/>
<path d="M106.272 266.573C109.074 266.175 110.995 264.673 111.073 262.104C111.163 258.863 108.048 258.099 105.664 257.504C105.254 257.406 104.868 257.312 104.52 257.209V260.763C105.611 261.046 106.395 261.374 106.37 262.08C106.346 262.847 105.451 263.266 104.52 263.249V268.075H106.272V266.573Z" fill="#FAAA00"/>
<path d="M104.49 263.253C103.464 263.229 102.578 262.72 102.606 261.698L97.9654 261.596C97.8875 264.164 99.6109 265.904 102.483 266.475V268.075H104.519V263.249C104.519 263.249 104.498 263.249 104.49 263.249V263.253Z" fill="#F8C700"/>
<path d="M104.54 255.1C105.472 255.12 106.231 255.559 106.202 256.458L110.716 256.556C110.785 254.205 109.357 252.58 106.719 252.006V250.2H104.52V255.104C104.52 255.104 104.532 255.104 104.54 255.104V255.1Z" fill="#FAAA00"/>
<path d="M102.938 256.035C102.958 255.379 103.726 255.091 104.517 255.104V250.2H102.934V251.87C100.123 252.235 98.4198 253.705 98.35 256.048C98.2515 259.285 101.247 259.979 103.59 260.541C103.914 260.619 104.226 260.689 104.517 260.767V257.213C103.57 256.942 102.921 256.626 102.938 256.035Z" fill="#F8C700"/>
<defs>
<filter id="filter0_d_1114_1010" x="3" y="39.0122" width="206.035" height="301.058" filterUnits="userSpaceOnUse" color-interpolation-filters="sRGB">
<feFlood flood-opacity="0" result="BackgroundImageFix"/>
<feColorMatrix in="SourceAlpha" type="matrix" values="0 0 0 0 0 0 0 0 0 0 0 0 0 0 0 0 0 0 127 0" result="hardAlpha"/>
<feOffset dx="1" dy="2"/>
<feGaussianBlur stdDeviation="15"/>
<feComposite in2="hardAlpha" operator="out"/>
<feColorMatrix type="matrix" values="0 0 0 0 0 0 0 0 0 0 0 0 0 0 0 0 0 0 0.25 0"/>
<feBlend mode="normal" in2="BackgroundImageFix" result="effect1_dropShadow_1114_1010"/>
<feBlend mode="normal" in="SourceGraphic" in2="effect1_dropShadow_1114_1010" result="shape"/>
</filter>
<filter id="filter1_d_1114_1010" x="0" y="0" width="210" height="131.927" filterUnits="userSpaceOnUse" color-interpolation-filters="sRGB">
<feFlood flood-opacity="0" result="BackgroundImageFix"/>
<feColorMatrix in="SourceAlpha" type="matrix" values="0 0 0 0 0 0 0 0 0 0 0 0 0 0 0 0 0 0 127 0" result="hardAlpha"/>
<feOffset dy="4"/>
<feGaussianBlur stdDeviation="10"/>
<feComposite in2="hardAlpha" operator="out"/>
<feColorMatrix type="matrix" values="0 0 0 0 0 0 0 0 0 0 0 0 0 0 0 0 0 0 0.25 0"/>
<feBlend mode="normal" in2="BackgroundImageFix" result="effect1_dropShadow_1114_1010"/>
<feBlend mode="normal" in="SourceGraphic" in2="effect1_dropShadow_1114_1010" result="shape"/>
</filter>
<linearGradient id="paint0_linear_1114_1010" x1="32.9058" y1="16" x2="164.206" y2="148.578" gradientUnits="userSpaceOnUse">
<stop stop-color="#7FE1FE"/>
<stop offset="0.449935" stop-color="#429DDB"/>
<stop offset="1" stop-color="#0149A6"/>
<stop offset="1" stop-color="#2C73D0"/>
</linearGradient>
<linearGradient id="paint1_linear_1114_1010" x1="23.9237" y1="79.6097" x2="174.963" y2="252.809" gradientUnits="userSpaceOnUse">
<stop stop-color="#7CDEFD"/>
<stop offset="0.520833" stop-color="#368ED2"/>
<stop offset="1" stop-color="#2071BF"/>
</linearGradient>
</defs>
</svg>
