<svg width="470" height="573" viewBox="0 0 470 573" fill="none" xmlns="http://www.w3.org/2000/svg">
<g filter="url(#filter0_d_1114_1012)">
<rect x="59.4199" y="138.538" width="350.749" height="402.462" fill="white"/>
</g>
<g filter="url(#filter1_d_1114_1012)">
<path d="M412.541 131.5V16H56.901V131.5H20L234.721 235.319L449.442 131.5H412.541Z" fill="url(#paint0_linear_1114_1012)"/>
</g>
<path d="M59.248 541V173.388L68.2275 177.733V531.995H401.018V177.89L409.997 173.545V541H59.248Z" fill="url(#paint1_linear_1114_1012)"/>
<path d="M131.565 125.139H162.715V129.479H131.565V125.139ZM149.52 126.889C151.62 134.904 156.065 141.554 163.485 144.494C162.435 145.439 161.035 147.259 160.335 148.484C152.32 144.739 147.945 137.494 145.285 127.869L149.52 126.889ZM144.69 115.724H149.31C149.135 126.399 149.065 141.239 134.05 148.484C133.385 147.329 132.09 145.824 130.865 144.914C145.215 138.509 144.585 125.209 144.69 115.724ZM175.91 121.114V125.839H188.23V121.114H175.91ZM171.85 117.124H192.535V129.829H171.85V117.124ZM167.055 132.769H180.425V148.379H176.225V136.759H171.01V148.589H167.055V132.769ZM183.4 132.769H197.26V148.414H193.025V136.759H187.425V148.589H183.4V132.769ZM168.805 142.814H177.975V146.839H168.805V142.814ZM185.325 142.814H195.125V146.839H185.325V142.814ZM220.57 115.759L225.26 116.389C224.315 118.034 223.475 119.539 222.775 120.624L218.785 119.924C219.45 118.734 220.185 116.984 220.57 115.759ZM218.085 128.079V130.494H227.99V128.079H218.085ZM218.085 122.584V124.999H227.99V122.584H218.085ZM214.235 119.294H231.98V133.819H214.235V119.294ZM213.255 138.194H233.485V141.904H213.255V138.194ZM224.455 134.554H228.2V148.554H224.455V134.554ZM221.235 120.519H224.91V126.609C224.91 128.604 223.58 135.534 217.91 139.489C217.315 138.719 215.95 137.634 215.11 137.039C220.22 133.749 221.235 128.919 221.235 126.609V120.519ZM204.96 124.964H212.555V128.499H204.96V124.964ZM209.09 115.759H212.555V127.064H209.09V115.759ZM205.03 132.524H212.485V148.624H208.635V136.059H205.03V132.524ZM202.79 116.634H206.57V129.724C206.57 135.184 206.15 143.129 204.085 148.554C203.175 148.169 201.46 147.609 200.375 147.364C202.475 142.324 202.79 134.624 202.79 129.724V116.634ZM236.635 130.669H267.645V134.379H236.635V130.669ZM252.315 137.004H265.405V140.609H252.315V137.004ZM250.355 132.559H254.59V145.509H250.355V132.559ZM244.93 138.159C246.855 143.269 251.3 144.074 257.425 144.109C259.35 144.144 266.105 144.109 268.625 144.039C268.03 144.949 267.4 146.804 267.19 148.029H257.18C249.13 148.029 244.335 146.594 241.465 139.279L244.93 138.159ZM241.885 135.114L246.085 135.709C244.93 141.484 242.41 145.894 238.525 148.659C237.895 147.889 236.285 146.349 235.375 145.719C238.945 143.514 241.08 139.804 241.885 135.114ZM243.95 124.404V126.154H260.015V124.404H243.95ZM243.95 119.889V121.639H260.015V119.889H243.95ZM239.89 116.914H264.285V129.129H239.89V116.914ZM272.895 117.859H301.28V121.989H272.895V117.859ZM274.54 129.864H299.915V133.994H274.54V129.864ZM271.18 142.919H303.065V147.049H271.18V142.919ZM284.83 118.944H289.275V145.579H284.83V118.944ZM315.525 119.889H337.96V123.284H315.525V119.889ZM324.275 121.429L329.105 121.744C328.37 123.634 327.32 125.489 326.585 126.749L323.155 126.224C323.61 124.754 324.065 122.829 324.275 121.429ZM330.365 115.689L334.425 116.809C333.235 118.559 332.08 120.274 331.1 121.429L327.81 120.379C328.72 119.084 329.805 117.124 330.365 115.689ZM318.535 117.124L321.86 115.794C322.63 116.879 323.645 118.384 324.1 119.329L320.635 120.834C320.25 119.854 319.305 118.279 318.535 117.124ZM322.14 132.559V134.484H331.1V132.559H322.14ZM322.14 137.144V139.069H331.1V137.144H322.14ZM322.14 128.009V129.899H331.1V128.009H322.14ZM318.185 125.034H335.23V142.044H318.185V125.034ZM306.95 117.649L310.065 115.724C311.745 117.369 313.705 119.574 314.755 120.974L311.535 123.319C310.59 121.814 308.56 119.364 306.95 117.649ZM306.075 123.879H313.495V127.239H306.075V123.879ZM313.18 139.104C315.07 143.829 319.165 144.389 325.5 144.424C329.245 144.424 335.02 144.179 338.975 143.829C338.415 144.669 337.855 146.559 337.645 147.714C334.005 147.924 329.525 148.029 325.43 148.029C317.31 148.029 312.97 146.944 310.38 140.224L313.18 139.104ZM312.34 132.384H313.32L313.985 132.314L316.015 133.049C314.825 140.784 311.955 145.964 307.86 148.624C307.335 147.819 305.97 146.384 305.2 145.824C308.98 143.549 311.465 139.174 312.34 133.014V132.384ZM306.74 136.199V133.189L308.245 132.384H313.53L313.495 135.639H308.875C308.035 135.639 307.02 135.884 306.74 136.199ZM306.74 136.199C306.495 135.324 305.76 133.539 305.375 132.769C305.97 132.629 306.53 132.384 307.195 131.649C308.245 130.669 311.395 126.189 312.585 124.264V124.159L313.67 123.704L316.225 124.859C314.58 127.274 311.535 131.614 309.54 133.889C309.54 133.889 306.74 135.254 306.74 136.199Z" fill="black"/>
<path d="M165.996 284.639H172.26V286.199H165.996V284.639ZM165.228 280.583H166.932V292.055L165.228 291.407V280.583ZM161.748 285.599C162.924 290.351 165.516 291.359 169.068 291.359C169.596 291.359 172.764 291.359 173.508 291.359C173.268 291.743 173.004 292.535 172.956 293.015H168.924C164.628 293.015 161.868 291.743 160.404 286.103L161.748 285.599ZM162.18 271.175L163.908 271.439C163.092 275.519 161.484 278.927 159.132 281.111C158.892 280.799 158.196 280.151 157.788 279.887C160.068 277.943 161.484 274.823 162.18 271.175ZM168.636 271.175L170.388 271.391C169.74 275.567 168.228 278.735 165.78 280.775C165.492 280.463 164.748 279.911 164.34 279.647C166.764 277.871 168.108 274.943 168.636 271.175ZM161.58 276.047L162.444 274.823C163.524 275.639 164.892 276.791 165.564 277.511L164.676 278.903C164.028 278.135 162.66 276.911 161.58 276.047ZM167.868 276.071L169.068 275.015C170.676 276.359 172.692 278.327 173.628 279.551L172.38 280.775C171.444 279.503 169.5 277.487 167.868 276.071ZM160.524 282.335L162.3 282.455C161.964 287.351 160.932 290.831 158.364 293.183C158.1 292.895 157.38 292.295 156.996 292.031C159.444 290.015 160.308 286.703 160.524 282.335ZM156.852 276.047L158.484 276.647C156.828 279.527 154.308 282.431 151.956 284.351C151.788 283.967 151.26 283.127 150.924 282.743C153.156 281.111 155.436 278.591 156.852 276.047ZM156.3 271.175L157.908 271.799C156.516 273.815 154.26 276.071 152.22 277.511C151.98 277.151 151.524 276.527 151.212 276.191C153.084 274.919 155.244 272.879 156.3 271.175ZM154.692 280.511L156.156 279.047L156.396 279.167V293.327H154.692V280.511ZM183.18 282.143H197.484V283.727H183.18V282.143ZM189.012 279.479H190.668V290.975C190.668 291.983 190.476 292.463 189.756 292.751C189.06 293.015 187.884 293.039 186.108 293.039C186.036 292.559 185.82 291.863 185.58 291.383C186.924 291.431 188.172 291.407 188.532 291.407C188.94 291.383 189.012 291.287 189.012 290.975V279.479ZM195.18 271.415L196.428 272.735C193.188 273.671 188.268 274.295 184.092 274.583C184.044 274.223 183.828 273.599 183.636 273.215C187.716 272.855 192.516 272.231 195.18 271.415ZM184.308 278.663H195.708V287.567H184.212V286.079H194.124V280.175H184.308V278.663ZM184.284 275.399L185.556 274.847C186.204 275.783 186.876 277.079 187.116 277.919L185.748 278.567C185.508 277.703 184.908 276.359 184.284 275.399ZM188.676 274.895L190.02 274.535C190.548 275.567 190.98 276.935 191.124 277.823L189.684 278.231C189.564 277.343 189.156 275.927 188.676 274.895ZM194.58 273.863L196.164 274.391C195.54 275.663 194.748 277.079 194.1 277.991L192.684 277.511C193.308 276.527 194.124 274.943 194.58 273.863ZM177.156 272.639H182.532V289.247H177.156V287.639H181.044V274.247H177.156V272.639ZM177.156 277.583H181.956V279.167H177.156V277.583ZM177.156 282.575H181.956V284.111H177.156V282.575ZM176.316 272.639H177.804V291.359H176.316V272.639ZM210.012 272.231H219.876V282.767H210.012V281.183H218.148V273.815H210.012V272.231ZM210.108 276.719H218.964V278.231H210.108V276.719ZM214.572 281.831C215.58 286.343 217.836 289.943 221.556 291.503C221.148 291.863 220.596 292.559 220.308 293.063C216.444 291.167 214.212 287.207 213.084 282.119L214.572 281.831ZM220.02 283.559L221.22 284.807C219.78 285.959 217.836 287.207 216.396 287.999L215.412 286.847C216.828 286.031 218.868 284.615 220.02 283.559ZM208.812 293.255L208.692 291.647L209.556 290.975L214.908 289.679C214.908 290.183 214.932 290.927 215.004 291.311C210.036 292.679 209.292 292.943 208.812 293.255ZM208.812 293.255C208.692 292.847 208.308 292.103 208.02 291.767C208.404 291.551 208.908 291.047 208.908 290.063V272.231H210.66V291.479C210.66 291.479 208.812 292.583 208.812 293.255ZM201.156 272.663H206.82V289.295H201.156V287.687H205.308V274.295H201.156V272.663ZM201.156 277.631H206.316V279.191H201.156V277.631ZM201.156 282.599H206.316V284.159H201.156V282.599ZM200.196 272.663H201.78V291.383H200.196V272.663ZM224.748 283.703H236.004V285.287H224.748V283.703ZM229.476 281.111H231.18V290.399H229.476V281.111ZM223.932 290.327C226.956 289.847 231.732 288.983 236.244 288.119L236.34 289.703C232.068 290.543 227.484 291.431 224.34 292.031L223.932 290.327ZM224.124 272.735H236.484V274.343H224.124V272.735ZM231.54 275.903L232.836 275.111C234.18 276.743 235.788 278.927 236.484 280.295L235.116 281.207C234.42 279.815 232.86 277.559 231.54 275.903ZM237.828 273.239H239.508V287.783H237.828V273.239ZM242.58 271.559H244.332V290.423C244.332 291.551 244.044 292.103 243.348 292.391C242.58 292.679 241.308 292.727 239.556 292.727C239.484 292.247 239.172 291.431 238.908 290.927C240.3 290.975 241.62 290.975 242.052 290.975C242.46 290.951 242.58 290.831 242.58 290.423V271.559ZM225.276 280.775C225.18 280.391 224.916 279.551 224.7 279.095C225.06 279.023 225.42 278.591 225.852 278.015C226.284 277.439 227.652 275.255 228.444 273.143L230.196 273.839C229.164 276.023 227.724 278.279 226.404 279.815V279.839C226.404 279.839 225.276 280.391 225.276 280.775ZM225.276 280.775L225.252 279.479L226.212 278.903L234.276 278.231C234.468 278.687 234.828 279.263 235.044 279.623C226.836 280.415 225.876 280.511 225.276 280.775ZM252.372 283.175H264.564V284.687H252.372V283.175ZM259.188 281.039H260.82V290.783C260.82 291.599 260.652 292.055 260.052 292.319C259.476 292.583 258.564 292.583 257.124 292.583C257.028 292.151 256.788 291.503 256.548 291.095C257.58 291.119 258.516 291.119 258.804 291.119C259.092 291.095 259.188 291.023 259.188 290.759V281.039ZM258.876 284.159L260.172 284.711C258.54 287.303 255.516 289.823 252.876 291.119C252.588 290.711 252.108 290.135 251.724 289.823C254.364 288.743 257.34 286.463 258.876 284.159ZM249.492 275.591H256.164V276.911H249.492V275.591ZM260.556 275.591H267.348V276.911H260.556V275.591ZM266.604 272.183H268.404V290.831C268.404 292.031 268.116 292.607 267.324 292.919C266.508 293.207 265.14 293.231 263.028 293.231C262.932 292.727 262.644 291.887 262.356 291.383C263.964 291.455 265.524 291.431 266.004 291.407C266.436 291.407 266.604 291.263 266.604 290.807V272.183ZM249.636 272.183H257.316V280.439H249.636V279.047H255.612V273.575H249.636V272.183ZM267.492 272.183V273.575H261.204V279.095H267.492V280.463H259.476V272.183H267.492ZM248.604 272.183H250.38V293.255H248.604V272.183ZM282.012 272.231H291.876V282.767H282.012V281.183H290.148V273.815H282.012V272.231ZM282.108 276.719H290.964V278.231H282.108V276.719ZM286.572 281.831C287.58 286.343 289.836 289.943 293.556 291.503C293.148 291.863 292.596 292.559 292.308 293.063C288.444 291.167 286.212 287.207 285.084 282.119L286.572 281.831ZM292.02 283.559L293.22 284.807C291.78 285.959 289.836 287.207 288.396 287.999L287.412 286.847C288.828 286.031 290.868 284.615 292.02 283.559ZM280.812 293.255L280.692 291.647L281.556 290.975L286.908 289.679C286.908 290.183 286.932 290.927 287.004 291.311C282.036 292.679 281.292 292.943 280.812 293.255ZM280.812 293.255C280.692 292.847 280.308 292.103 280.02 291.767C280.404 291.551 280.908 291.047 280.908 290.063V272.231H282.66V291.479C282.66 291.479 280.812 292.583 280.812 293.255ZM273.156 272.663H278.82V289.295H273.156V287.687H277.308V274.295H273.156V272.663ZM273.156 277.631H278.316V279.191H273.156V277.631ZM273.156 282.599H278.316V284.159H273.156V282.599ZM272.196 272.663H273.78V291.383H272.196V272.663ZM304.476 286.799L303.924 285.527C305.892 284.735 306.972 283.511 306.972 281.687L306.516 279.671L307.812 281.495C307.476 281.927 306.996 282.047 306.54 282.047C305.556 282.047 304.74 281.447 304.74 280.319C304.74 279.191 305.604 278.591 306.564 278.591C307.908 278.591 308.628 279.695 308.628 281.375C308.628 283.967 306.996 285.935 304.476 286.799ZM116.316 321.935H123.42V323.639H116.316V321.935ZM115.572 306.239H124.212V325.295H122.412V307.943H117.3V325.559H115.572V306.239ZM108.468 308.207H110.292V313.031C110.292 317.111 109.476 322.631 104.508 326.183C104.268 325.799 103.62 325.103 103.236 324.839C107.916 321.503 108.468 316.727 108.468 313.007V308.207ZM105.996 307.391H114.084V309.071H105.996V307.391ZM103.5 313.847H114.804V315.575H103.5V313.847ZM109.716 317.015C110.652 317.855 113.94 321.551 114.708 322.463L113.484 323.975C112.476 322.511 109.716 319.223 108.612 318.047L109.716 317.015ZM106.212 304.151L107.964 304.487C107.268 307.703 106.116 310.799 104.7 312.839C104.388 312.551 103.62 312.047 103.212 311.807C104.652 309.959 105.636 307.079 106.212 304.151ZM135.18 323.615H146.772V325.271H135.18V323.615ZM134.364 306.575H143.172V308.183H134.364V306.575ZM135.444 304.079L137.46 304.487C135.66 307.607 132.78 310.871 128.604 313.343C128.34 312.887 127.74 312.263 127.332 311.951C131.292 309.791 134.052 306.695 135.444 304.079ZM142.572 306.575H142.908L143.244 306.479L144.444 307.127C141.564 314.375 134.796 319.199 128.268 321.311C128.052 320.831 127.596 320.087 127.212 319.703C133.428 317.903 140.076 313.199 142.572 306.887V306.575ZM131.364 310.847L132.708 309.695C134.604 310.991 136.908 312.911 138.012 314.279L136.548 315.575C135.54 314.207 133.26 312.191 131.364 310.847ZM145.884 316.031H147.732V326.279H145.884V316.031ZM135.996 316.031H146.796V317.687H135.996V326.231H134.196V317.447L135.636 316.031H135.996ZM162.612 316.247H170.556V317.903H162.612V316.247ZM152.34 323.879H172.812V325.535H152.34V323.879ZM161.7 310.727H163.572V324.839H161.7V310.727ZM155.388 314.975H157.14V324.695H155.388V314.975ZM162.396 303.935L164.004 304.703C161.364 308.687 157.044 312.167 152.484 314.207C152.196 313.751 151.692 313.127 151.236 312.695C155.676 310.895 160.02 307.631 162.396 303.935ZM163.188 305.183C166.236 308.903 169.884 311.015 173.772 312.695C173.34 313.079 172.836 313.703 172.596 314.207C168.66 312.311 165.084 310.031 161.724 305.879L163.188 305.183ZM175.956 318.983H196.98V320.495H175.956V318.983ZM176.052 308.447H196.884V309.935H176.052V308.447ZM177.012 312.599H196.02V314.063H177.012V312.599ZM178.236 315.815H194.844V317.207H178.236V315.815ZM185.508 313.247H187.284V326.255H185.508V313.247ZM183.324 304.151H185.004V309.167H183.324V304.151ZM187.86 304.151H189.588V309.095H187.86V304.151ZM193.428 304.439L195.276 304.943C194.556 306.263 193.716 307.679 193.044 308.615L191.58 308.135C192.228 307.127 193.02 305.543 193.428 304.439ZM190.332 309.863L192.18 310.367C191.58 311.279 190.908 312.167 190.356 312.815L188.868 312.359C189.348 311.639 189.996 310.559 190.332 309.863ZM177.996 304.943L179.532 304.391C180.372 305.471 181.26 306.983 181.596 307.967L179.988 308.567C179.652 307.607 178.788 306.071 177.996 304.943ZM180.996 310.247L182.676 309.839C183.228 310.607 183.78 311.639 184.02 312.335L182.292 312.791C182.1 312.119 181.548 311.039 180.996 310.247ZM182.988 321.719L184.332 322.367C182.604 323.663 179.436 324.911 176.94 325.463C176.7 325.031 176.196 324.455 175.836 324.119C178.332 323.711 181.404 322.751 182.988 321.719ZM188.844 322.583L189.948 321.599C192.204 322.367 195.3 323.519 196.932 324.287L195.804 325.415C194.22 324.647 191.148 323.399 188.844 322.583ZM212.556 304.439H214.356V326.231H212.556V304.439ZM206.604 311.855H220.524V313.535H206.604V311.855ZM205.62 317.759H221.532V319.463H205.62V317.759ZM206.916 305.975L208.452 305.399C209.388 306.983 210.324 309.119 210.66 310.439L209.052 311.159C208.716 309.815 207.828 307.631 206.916 305.975ZM218.532 305.207L220.356 305.879C219.492 307.679 218.436 309.767 217.572 311.135L216.132 310.535C216.948 309.119 217.98 306.815 218.532 305.207ZM205.068 304.223L206.772 304.751C205.14 308.807 202.572 312.839 199.908 315.503C199.74 315.095 199.236 314.159 198.9 313.727C201.324 311.447 203.676 307.871 205.068 304.223ZM202.572 310.415L204.276 308.711L204.3 308.735V326.183H202.572V310.415ZM233.604 304.271L235.38 304.655C234.444 308.495 232.932 312.191 231.084 314.639C230.772 314.327 230.052 313.751 229.644 313.487C231.42 311.255 232.812 307.799 233.604 304.271ZM233.196 314.447L234.948 314.807C234.204 317.951 232.908 320.999 231.444 323.015C231.084 322.727 230.316 322.247 229.884 322.031C231.372 320.183 232.524 317.327 233.196 314.447ZM233.388 308.783H244.188V310.463H232.692L233.388 308.783ZM237.108 309.479H238.908V324.047C238.908 325.079 238.692 325.607 238.02 325.895C237.372 326.207 236.34 326.255 234.852 326.255C234.732 325.751 234.468 324.959 234.204 324.431C235.332 324.479 236.364 324.455 236.7 324.455C237.012 324.455 237.108 324.359 237.108 324.047V309.479ZM240.636 314.807L242.244 314.279C243.636 316.799 244.836 320.111 245.244 322.343L243.54 322.919C243.156 320.711 241.956 317.327 240.636 314.807ZM243.66 308.783H243.9L244.212 308.735L245.46 308.999C245.124 310.775 244.716 312.839 244.404 314.135L242.844 313.847C243.108 312.647 243.42 310.631 243.66 309.047V308.783ZM228.78 304.247L230.484 304.775C228.9 308.855 226.428 312.911 223.836 315.599C223.644 315.191 223.14 314.231 222.804 313.823C225.18 311.495 227.436 307.895 228.78 304.247ZM226.284 310.439L227.964 308.735L228.012 308.759V326.207H226.284V310.439ZM251.436 308.831H268.068V310.583H251.436V308.831ZM250.38 315.863H267.204V317.591H250.38V315.863ZM247.764 323.711H269.196V325.463H247.764V323.711ZM257.556 304.175H259.404V324.599H257.556V304.175ZM252.156 304.559L254.004 304.967C252.948 308.687 251.268 312.239 249.348 314.543C248.988 314.231 248.172 313.703 247.716 313.463C249.684 311.327 251.244 307.991 252.156 304.559ZM279.852 316.895H291.828V326.111H290.1V318.551H281.508V326.231H279.852V316.895ZM290.94 304.247L292.356 305.663C289.068 306.791 284.052 307.535 279.756 307.943C279.684 307.511 279.444 306.815 279.228 306.407C283.404 305.951 288.276 305.207 290.94 304.247ZM285.036 306.335H286.764V317.855H285.036V306.335ZM278.1 311.207H293.388V312.935H278.1V311.207ZM280.98 323.543H290.892V325.199H280.98V323.543ZM272.604 305.735L273.612 304.463C275.076 305.183 277.116 306.263 278.148 306.959L277.092 308.423C276.084 307.703 274.092 306.527 272.604 305.735ZM271.428 312.359L272.436 311.039C273.852 311.735 275.868 312.791 276.876 313.487L275.868 314.951C274.884 314.279 272.892 313.127 271.428 312.359ZM272.004 324.695C273.3 322.871 275.196 319.703 276.588 316.967L277.884 318.143C276.612 320.687 274.932 323.687 273.516 325.919L272.004 324.695ZM300.66 310.631H313.188V312.263H300.66V310.631ZM298.932 321.479H316.62V323.087H298.932V321.479ZM299.916 306.599H316.62V308.231H299.916V306.599ZM312.468 310.631H314.244C314.244 310.631 314.22 311.279 314.22 311.519C313.932 321.191 313.596 324.335 312.828 325.343C312.372 325.943 311.844 326.135 311.124 326.207C310.404 326.255 309.204 326.255 308.004 326.183C307.98 325.775 307.812 325.151 307.572 324.743C308.796 324.839 309.9 324.863 310.356 324.839C310.812 324.839 311.028 324.791 311.244 324.503C311.868 323.735 312.204 320.375 312.468 311.015V310.631ZM299.772 310.631H301.596C301.092 314.663 300.348 320.015 299.772 323.087H297.948C298.596 319.943 299.388 314.543 299.772 310.631ZM300.924 304.031L302.724 304.535C301.26 307.823 299.1 311.063 296.988 313.151C296.604 312.863 295.836 312.335 295.38 312.095C297.588 310.151 299.676 307.079 300.924 304.031ZM303.804 313.343L304.836 312.311C306.396 313.007 308.268 314.087 309.228 314.975L308.148 316.103C307.236 315.215 305.388 314.039 303.804 313.343ZM303.204 318.599L304.212 317.591C305.844 318.359 307.836 319.631 308.82 320.567L307.764 321.719C306.804 320.759 304.836 319.439 303.204 318.599ZM295.452 316.007H299.94V316.055H313.188V316.007H317.46V317.639H313.188V317.591H299.94V317.639H295.452V316.007ZM319.5 313.967H341.46V315.935H319.5V313.967ZM355.428 314.303C357.012 319.343 360.42 323.063 365.628 324.551C365.196 324.935 364.668 325.679 364.404 326.183C359.004 324.383 355.596 320.399 353.772 314.735L355.428 314.303ZM344.868 306.023H363.9V307.847H344.868V306.023ZM344.028 313.391H364.932V315.239H344.028V313.391ZM353.34 306.647H355.212V310.703C355.212 315.671 354.252 322.199 344.604 326.207C344.364 325.751 343.812 325.055 343.428 324.695C352.524 320.999 353.34 315.071 353.34 310.679V306.647Z" fill="black"/>
<path d="M164.279 396.945V429.373L174.326 426.451L225.815 368.644L164.279 396.945Z" fill="#00567B"/>
<path d="M225.813 368.644L174.324 426.451L234.807 408.851V364.507L225.813 368.644Z" fill="#0097BB"/>
<path d="M234.805 364.507V408.851L276.817 396.623L298.145 405.649V391.283L234.805 364.507Z" fill="#00567B"/>
<path d="M234.805 450.465L276.817 444.18V426.451L234.805 435.562V450.465Z" fill="#0083AD"/>
<path d="M234.805 473.222L276.817 470.3V451.335L234.805 457.631V473.222Z" fill="#0083AD"/>
<path d="M276.817 418.704V401.071L234.805 413.299V427.815L276.817 418.704Z" fill="#0083AD"/>
<path d="M234.805 480.089V495.11H276.817V477.155L234.805 480.089Z" fill="#0083AD"/>
<path d="M228.544 429.169V415.125L164.279 433.821V443.105L228.544 429.169Z" fill="#0097BB"/>
<path d="M164.279 484.999V495.11H228.544V480.529L164.279 484.999Z" fill="#0097BB"/>
<path d="M228.544 436.916L164.279 450.852V461.027L228.544 451.4V436.916Z" fill="#0097BB"/>
<path d="M164.279 468.194V478.143L228.544 473.663V458.566L164.279 468.194Z" fill="#0097BB"/>
<path d="M159.765 435.132L134.676 442.439V449.53L159.765 444.083V435.132Z" fill="#00B8CC"/>
<path d="M159.765 451.83L134.676 457.267V465.465L159.765 461.705V451.83Z" fill="#00B8CC"/>
<path d="M134.676 487.062V495.11H159.765V485.321L134.676 487.062Z" fill="#00B8CC"/>
<path d="M159.765 468.871L134.676 472.621V480.207L159.765 478.455V468.871Z" fill="#00B8CC"/>
<path d="M276.818 495.11H351.484V485.504L276.818 477.155V495.11Z" fill="#00567B"/>
<path d="M276.818 470.3L351.484 478.638V468.494L276.818 451.335V470.3Z" fill="#00567B"/>
<path d="M276.818 426.451V444.18L351.484 461.328V450.68L276.818 426.451Z" fill="#00567B"/>
<path d="M351.484 442.933V432.64L276.818 401.071V418.704L351.484 442.933Z" fill="#00567B"/>
<path d="M171.812 399.277C172.746 398.632 173.971 398.03 175.304 397.504C176.786 396.924 178.215 396.612 179.311 397.45C180.16 398.084 180.504 399.384 180.504 400.878C180.504 402.79 179.773 404.907 178.205 406.379V406.508C180.031 406.562 181.02 408.302 181.02 410.666C181.02 412.461 180.601 413.965 179.849 415.254C178.914 416.941 177.313 418.198 174.659 419.004C173.488 419.359 172.499 419.574 171.801 419.66V399.255L171.812 399.277ZM174.885 406.411L175.54 406.175C176.647 405.777 177.485 404.219 177.485 402.479C177.485 400.931 176.948 399.943 175.68 400.426C175.347 400.555 175.067 400.684 174.885 400.856V406.411ZM174.885 415.749C175.067 415.749 175.282 415.684 175.561 415.598C176.808 415.201 177.839 413.857 177.839 411.687C177.839 409.517 176.765 408.84 175.54 409.226L174.885 409.452V415.759V415.749Z" fill="white"/>
<path d="M183.139 394.839C184.106 394.205 185.32 393.56 186.491 393.098C188.178 392.432 189.682 392.174 190.714 393.098C191.681 393.958 191.96 395.355 191.96 397.289C191.96 399.696 191.144 402.156 189.521 403.779V403.843C190.596 404.069 191.144 405.315 191.444 407.614C191.745 410.021 192.175 412.654 192.454 413.406L189.242 414.394C189.059 413.825 188.704 411.687 188.468 409.323C188.189 406.647 187.694 406.024 186.663 406.379L186.212 406.529V415.319L183.139 416.264V394.839ZM186.212 403.241L186.749 403.048C188.092 402.575 188.866 400.781 188.866 398.836C188.866 396.891 188.328 395.806 186.942 396.268C186.684 396.365 186.384 396.515 186.212 396.676V403.241Z" fill="white"/>
<path d="M196.677 406.884L195.978 412.332L193.002 413.245L196.43 389.306L200.115 387.855L203.188 410.118L200.212 411.032L199.535 405.949L196.698 406.873L196.677 406.884ZM199.234 402.554L198.718 397.901C198.557 396.558 198.342 394.345 198.202 392.851L198.127 392.873C197.966 394.474 197.73 396.945 197.568 398.342L196.978 403.317L199.234 402.554Z" fill="white"/>
<path d="M204.916 409.602V385.975L207.731 384.868L210.17 393.345C210.643 395.032 211.417 397.891 211.857 399.814H211.9C211.803 397.278 211.599 393.152 211.599 388.693V383.342L214.296 382.278V406.712L211.481 407.572L209.064 399.201C208.548 397.353 207.817 394.592 207.473 392.561L207.43 392.583C207.506 394.957 207.613 398.6 207.613 403.381V408.764L204.916 409.592V409.602Z" fill="white"/>
<path d="M217.017 381.59C217.79 380.989 218.918 380.365 220.133 379.893C222.131 379.108 223.506 379.312 224.516 380.419C225.881 381.859 226.579 384.954 226.579 389.918C226.579 394.882 225.763 398.986 224.377 401.382C223.324 403.359 221.744 404.627 219.542 405.304C218.575 405.594 217.618 405.745 217.006 405.82V381.59H217.017ZM220.09 401.103C220.229 401.135 220.466 401.06 220.627 401.006C222.11 400.533 223.399 397.804 223.399 390.842C223.399 385.673 222.55 382.858 220.702 383.557C220.487 383.632 220.283 383.718 220.09 383.901V401.103Z" fill="white"/>
<defs>
<filter id="filter0_d_1114_1012" x="30.4199" y="110.538" width="410.749" height="462.462" filterUnits="userSpaceOnUse" color-interpolation-filters="sRGB">
<feFlood flood-opacity="0" result="BackgroundImageFix"/>
<feColorMatrix in="SourceAlpha" type="matrix" values="0 0 0 0 0 0 0 0 0 0 0 0 0 0 0 0 0 0 127 0" result="hardAlpha"/>
<feOffset dx="1" dy="2"/>
<feGaussianBlur stdDeviation="15"/>
<feComposite in2="hardAlpha" operator="out"/>
<feColorMatrix type="matrix" values="0 0 0 0 0 0 0 0 0 0 0 0 0 0 0 0 0 0 0.25 0"/>
<feBlend mode="normal" in2="BackgroundImageFix" result="effect1_dropShadow_1114_1012"/>
<feBlend mode="normal" in="SourceGraphic" in2="effect1_dropShadow_1114_1012" result="shape"/>
</filter>
<filter id="filter1_d_1114_1012" x="0" y="0" width="469.442" height="259.319" filterUnits="userSpaceOnUse" color-interpolation-filters="sRGB">
<feFlood flood-opacity="0" result="BackgroundImageFix"/>
<feColorMatrix in="SourceAlpha" type="matrix" values="0 0 0 0 0 0 0 0 0 0 0 0 0 0 0 0 0 0 127 0" result="hardAlpha"/>
<feOffset dy="4"/>
<feGaussianBlur stdDeviation="10"/>
<feComposite in2="hardAlpha" operator="out"/>
<feColorMatrix type="matrix" values="0 0 0 0 0 0 0 0 0 0 0 0 0 0 0 0 0 0 0.25 0"/>
<feBlend mode="normal" in2="BackgroundImageFix" result="effect1_dropShadow_1114_1012"/>
<feBlend mode="normal" in="SourceGraphic" in2="effect1_dropShadow_1114_1012" result="shape"/>
</filter>
<linearGradient id="paint0_linear_1114_1012" x1="62.7195" y1="16" x2="375.974" y2="332.302" gradientUnits="userSpaceOnUse">
<stop stop-color="#7FE1FE"/>
<stop offset="0.449935" stop-color="#429DDB"/>
<stop offset="1" stop-color="#0149A6"/>
<stop offset="1" stop-color="#2C73D0"/>
</linearGradient>
<linearGradient id="paint1_linear_1114_1012" x1="41.2891" y1="167.759" x2="401.636" y2="580.977" gradientUnits="userSpaceOnUse">
<stop stop-color="#7CDEFD"/>
<stop offset="0.520833" stop-color="#368ED2"/>
<stop offset="1" stop-color="#2071BF"/>
</linearGradient>
</defs>
</svg>
