<svg width="470" height="573" viewBox="0 0 470 573" fill="none" xmlns="http://www.w3.org/2000/svg">
<g filter="url(#filter0_d_1114_1017)">
<rect x="59.4199" y="138.538" width="350.749" height="402.462" fill="white"/>
</g>
<g filter="url(#filter1_d_1114_1017)">
<path d="M412.541 131.5V16H56.901V131.5H20L234.721 235.319L449.442 131.5H412.541Z" fill="url(#paint0_linear_1114_1017)"/>
</g>
<path d="M59.3457 541V173.388L68.3252 177.733V531.995H401.116V177.89L410.095 173.545V541H59.3457Z" fill="url(#paint1_linear_1114_1017)"/>
<path d="M94.9154 278.351H107.323V280.031H94.9154V278.351ZM91.8434 283.295H110.443V284.951H91.8434V283.295ZM90.7634 290.879H111.523V292.535H90.7634V290.879ZM100.099 279.095H102.019V291.719H100.099V279.095ZM93.8834 286.103L95.3474 285.503C96.2834 286.823 97.2914 288.671 97.6754 289.847L96.0914 290.519C95.7314 289.343 94.7954 287.471 93.8834 286.103ZM106.699 285.479L108.403 286.151C107.515 287.687 106.435 289.415 105.547 290.543L104.179 289.943C105.019 288.767 106.099 286.847 106.699 285.479ZM101.827 272.183C104.107 274.871 108.595 277.583 112.459 278.783C112.027 279.191 111.475 279.887 111.187 280.367C107.347 278.951 102.883 275.975 100.315 272.927L101.827 272.183ZM101.107 270.935L102.763 271.703C100.171 275.663 95.7794 278.735 91.0754 280.439C90.8114 279.935 90.3074 279.239 89.8514 278.807C94.3874 277.343 98.8034 274.511 101.107 270.935ZM114.211 286.511H136.123V288.047H114.211V286.511ZM128.851 284.951L129.739 284.135C130.555 284.663 131.611 285.455 132.115 285.983L131.203 286.919C130.699 286.367 129.667 285.527 128.851 284.951ZM122.227 278.879H135.715V280.175H122.227V278.879ZM130.963 277.103H132.667V282.623C132.667 283.439 132.499 283.823 131.875 284.063C131.227 284.303 130.243 284.279 128.731 284.279C128.659 283.847 128.419 283.319 128.203 282.887C129.331 282.935 130.267 282.935 130.579 282.911C130.867 282.887 130.963 282.815 130.963 282.575V277.103ZM114.331 278.543H120.667V280.031H114.331V278.543ZM119.611 271.223H121.291V284.807H119.611V271.223ZM115.459 271.727H116.995V275.231H120.571V276.695H115.459V271.727ZM124.075 280.967L125.179 280.079C126.163 280.679 127.339 281.615 127.891 282.287L126.715 283.271C126.187 282.575 125.059 281.591 124.075 280.967ZM126.163 273.599L127.339 273.143C128.515 273.959 129.859 275.231 130.531 276.143L129.259 276.623C128.683 275.735 127.363 274.463 126.163 273.599ZM133.339 272.399H133.651L133.963 272.327L134.923 272.855C132.763 276.551 127.867 278.159 122.851 278.831C122.683 278.495 122.371 278.015 122.107 277.703C126.763 277.175 131.491 275.687 133.339 272.639V272.399ZM128.827 271.103L130.411 271.439C128.755 272.927 126.427 274.103 123.283 275.039C123.091 274.727 122.635 274.247 122.323 274.007C125.251 273.263 127.531 272.183 128.827 271.103ZM127.867 272.399H133.795V273.527H126.451L127.867 272.399ZM116.059 279.095H117.667V280.271C117.667 281.519 117.307 283.703 115.627 285.047C115.315 284.759 114.643 284.399 114.235 284.231C115.771 283.055 116.059 281.255 116.059 280.223V279.095ZM124.123 284.111H125.899V285.647C125.899 288.167 124.699 291.671 115.051 293.303C114.835 292.895 114.403 292.247 114.019 291.839C123.019 290.351 124.123 287.471 124.123 285.599V284.111ZM125.803 289.127L126.643 287.903C129.691 289.031 133.963 290.711 136.219 291.791L135.331 293.207C133.195 292.127 128.947 290.327 125.803 289.127ZM122.803 275.495C123.979 275.447 125.395 275.351 127.003 275.255V276.263C125.563 276.383 124.219 276.479 122.995 276.575L122.803 275.495ZM148.267 271.151H150.139V278.519H148.267V271.151ZM142.363 272.639H144.139V278.351H142.363V272.639ZM154.795 280.655H156.619V291.167C156.619 292.199 156.379 292.727 155.611 292.967C154.819 293.255 153.571 293.255 151.555 293.255C151.459 292.799 151.195 292.055 150.931 291.599C152.371 291.671 153.859 291.647 154.267 291.647C154.675 291.623 154.795 291.503 154.795 291.167V280.655ZM149.131 273.503H157.243V275.015H149.131V273.503ZM138.715 277.415H159.499V278.975H138.715V277.415ZM142.651 280.655H155.587V282.143H142.651V280.655ZM141.643 280.655H143.419V285.743C143.419 288.095 143.083 291.191 141.067 293.231C140.827 292.847 140.155 292.103 139.795 291.863C141.451 290.087 141.643 287.711 141.643 285.719V280.655ZM142.915 289.295C145.891 288.647 150.787 287.447 155.395 286.295L155.563 287.591C151.339 288.863 146.731 290.159 143.443 291.071L142.915 289.295ZM143.827 283.919L144.619 282.719C147.355 283.415 151.075 284.543 153.067 285.311L152.275 286.679C150.355 285.911 146.611 284.687 143.827 283.919ZM166.195 278.567H180.187V280.295H166.195V278.567ZM173.107 284.231H181.195V285.935H173.107V284.231ZM172.147 279.383H174.019V291.527L172.147 291.287V279.383ZM166.507 282.239L168.331 282.431C167.659 287.279 166.171 290.927 163.459 293.303C163.171 292.991 162.427 292.391 161.995 292.103C164.683 290.039 165.979 286.607 166.507 282.239ZM167.635 285.311C169.339 290.207 173.083 291.047 177.955 291.071C178.843 291.071 182.995 291.071 184.171 291.023C183.883 291.479 183.571 292.319 183.475 292.847H177.859C172.147 292.847 168.235 291.743 166.171 285.887L167.635 285.311ZM163.099 273.863H183.163V279.119H181.315V275.591H164.875V279.119H163.099V273.863ZM171.331 271.511L173.107 271.007C173.683 271.919 174.307 273.143 174.547 273.959L172.675 274.535C172.459 273.743 171.907 272.471 171.331 271.511ZM195.163 286.799L194.611 285.527C196.579 284.735 197.659 283.511 197.659 281.687L197.203 279.671L198.499 281.495C198.163 281.927 197.683 282.047 197.227 282.047C196.243 282.047 195.427 281.447 195.427 280.319C195.427 279.191 196.291 278.591 197.251 278.591C198.595 278.591 199.315 279.695 199.315 281.375C199.315 283.967 197.683 285.935 195.163 286.799ZM212.995 282.887H227.899V284.711H212.995V282.887ZM221.875 271.991C224.203 274.943 228.667 278.183 232.291 279.743C231.811 280.127 231.211 280.871 230.875 281.375C227.323 279.575 222.907 276.071 220.315 272.759L221.875 271.991ZM220.987 270.983L222.715 271.823C220.051 275.783 215.731 279.311 211.339 281.519C211.027 281.015 210.475 280.367 209.947 279.935C214.291 277.991 218.587 274.631 220.987 270.983ZM227.683 282.887H228.019L228.331 282.767L229.723 283.463C227.731 286.175 224.539 290.183 221.947 293.303L220.123 292.463C222.763 289.415 226.051 285.287 227.683 283.103V282.887ZM217.099 278.735H225.427V280.463H217.099V278.735ZM239.779 271.079L241.579 271.535C240.259 275.087 238.123 278.423 235.891 280.583C235.531 280.271 234.787 279.671 234.331 279.431C236.611 277.439 238.603 274.319 239.779 271.079ZM239.395 274.055H254.875V275.807H238.531L239.395 274.055ZM238.219 279.503H254.347V281.183H240.019V286.871H238.219V279.503ZM234.259 285.959H256.003V287.711H234.259V285.959ZM245.419 274.967H247.267V293.255H245.419V274.967ZM261.907 281.687H276.187V279.479H260.275V277.943H277.963V283.223H261.907V281.687ZM261.139 281.687H262.867C262.627 283.487 262.315 285.647 262.051 287.015H260.275C260.611 285.575 260.947 283.415 261.139 281.687ZM261.523 285.455H277.459V287.015H261.043L261.523 285.455ZM276.955 285.455H278.779C278.779 285.455 278.755 285.935 278.707 286.199C278.395 289.535 278.059 291.023 277.435 291.623C277.051 292.031 276.595 292.175 275.899 292.199C275.323 292.247 274.123 292.247 272.899 292.199C272.851 291.671 272.659 290.999 272.371 290.519C273.571 290.663 274.699 290.663 275.131 290.663C275.539 290.663 275.779 290.639 275.971 290.447C276.379 290.063 276.691 288.791 276.955 285.695V285.455ZM268.099 278.327H269.875V293.231H268.099V278.327ZM267.595 285.911L269.011 286.535C266.971 289.391 263.299 291.983 259.963 293.255C259.723 292.823 259.195 292.175 258.787 291.839C262.099 290.759 265.747 288.407 267.595 285.911ZM261.355 272.879H268.987V274.319H261.355V272.879ZM271.267 272.903H280.051V274.343H271.267V272.903ZM261.835 270.983L263.443 271.439C262.507 273.719 260.971 275.975 259.483 277.463C259.219 277.151 258.595 276.551 258.211 276.263C259.675 274.943 261.043 272.975 261.835 270.983ZM271.723 270.983L273.379 271.391C272.659 273.383 271.387 275.327 270.067 276.551C269.755 276.263 269.083 275.711 268.675 275.471C269.995 274.367 271.099 272.711 271.723 270.983ZM263.083 275.063L264.211 274.151C265.027 274.847 266.083 275.855 266.587 276.503L265.411 277.535C264.907 276.839 263.899 275.807 263.083 275.063ZM273.547 275.183L274.723 274.247C275.587 274.895 276.691 275.855 277.243 276.503L276.019 277.559C275.491 276.911 274.411 275.903 273.547 275.183ZM283.243 291.311V289.487H287.155V276.383H284.011V274.967C285.595 274.703 286.723 274.295 287.659 273.719H289.339V289.487H292.891V291.311H283.243ZM300.756 291.647C297.996 291.647 296.292 290.495 295.14 289.223L296.244 287.783C297.276 288.863 298.596 289.823 300.612 289.823C302.7 289.823 304.188 288.551 304.188 286.535C304.188 284.423 302.772 283.031 298.716 283.031V281.327C302.34 281.327 303.564 279.887 303.564 277.967C303.564 276.287 302.436 275.183 300.612 275.183C299.196 275.183 297.948 275.903 296.964 276.911L295.788 275.495C297.108 274.295 298.668 273.407 300.684 273.407C303.636 273.407 305.796 275.015 305.796 277.823C305.796 279.959 304.548 281.375 302.676 282.047V282.143C304.74 282.647 306.42 284.207 306.42 286.631C306.42 289.751 303.9 291.647 300.756 291.647ZM313.156 277.967H330.22V279.431H313.156V277.967ZM313.492 284.951H327.22V286.439H313.492V284.951ZM317.02 275.879H318.724V281.999H324.58V275.879H326.332V283.415H317.02V275.879ZM326.74 284.951H327.1L327.436 284.879L328.564 285.503C325.876 290.399 319.612 292.343 313.084 293.087C312.94 292.679 312.628 291.983 312.34 291.575C318.46 291.023 324.508 289.247 326.74 285.215V284.951ZM317.332 286.175C319.708 289.343 324.844 291.119 330.82 291.671C330.436 292.055 330.004 292.775 329.788 293.231C323.668 292.511 318.532 290.519 315.772 286.775L317.332 286.175ZM311.62 273.551H330.508V275.231H311.62V273.551ZM310.78 273.551H312.556V280.079C312.556 283.895 312.268 289.439 310.252 293.231C309.892 292.943 309.076 292.559 308.62 292.415C310.588 288.791 310.78 283.679 310.78 280.079V273.551ZM319.108 271.463L320.908 271.031C321.46 272.015 322.084 273.287 322.3 274.103L320.404 274.631C320.188 273.791 319.636 272.447 319.108 271.463ZM334.444 284.375H353.26V285.959H334.444V284.375ZM342.82 281.879H344.62V293.207H342.82V281.879ZM333.772 279.671H353.812V283.559H352.012V281.255H335.5V283.559H333.772V279.671ZM341.98 272.423L343.492 272.999C342.748 273.959 341.956 274.943 341.308 275.615L340.204 275.087C340.804 274.367 341.572 273.191 341.98 272.423ZM337.708 276.239L338.86 275.231C340.132 276.047 341.86 277.199 342.772 277.919L341.548 279.047C340.708 278.303 339.004 277.079 337.708 276.239ZM338.044 271.151H339.676C339.46 275.951 338.524 278.327 333.82 279.623C333.676 279.215 333.22 278.591 332.908 278.303C337.156 277.223 337.876 275.327 338.044 271.151ZM352.492 272.375L354.052 272.975C353.26 273.983 352.324 275.015 351.604 275.711L350.476 275.183C351.148 274.415 352.036 273.191 352.492 272.375ZM347.764 276.071L348.892 275.039C350.548 276.071 352.876 277.559 354.052 278.471L352.9 279.695C351.748 278.759 349.468 277.175 347.764 276.071ZM348.076 271.151H349.708C349.516 275.711 348.58 278.063 344.116 279.383C343.948 278.975 343.516 278.375 343.18 278.063C347.188 276.983 347.884 275.087 348.076 271.151ZM340.252 287.015L341.764 287.615C339.94 289.727 336.7 291.575 333.844 292.463C333.58 292.007 333.028 291.335 332.644 290.975C335.452 290.279 338.62 288.719 340.252 287.015ZM346.036 287.975L347.26 286.895C349.732 288.143 352.972 290.039 354.58 291.335L353.284 292.583C351.748 291.263 348.58 289.295 346.036 287.975ZM333.292 272.999L334.372 272.207C335.044 272.927 335.956 273.959 336.388 274.559L335.284 275.495C334.828 274.847 333.964 273.791 333.292 272.999ZM343.732 272.975L344.788 272.159C345.46 272.855 346.3 273.815 346.732 274.415L345.628 275.351C345.196 274.727 344.38 273.719 343.732 272.975ZM357.316 272.711L358.516 271.727C362.812 275.447 363.34 279.647 363.34 284.087C363.34 287.519 363.076 290.567 362.164 291.911C361.852 292.367 361.42 292.631 360.844 292.727C360.052 292.895 359.068 292.895 358.06 292.847C358.036 292.271 357.844 291.575 357.532 291.071C358.708 291.167 359.62 291.143 360.124 291.095C360.508 291.047 360.724 290.927 360.916 290.687C361.492 289.871 361.708 287.135 361.708 284.039C361.708 279.839 361.132 276.119 357.316 272.711ZM361.636 279.647L362.908 280.439C361.78 283.007 359.668 285.839 357.7 287.423C357.484 286.943 357.052 286.247 356.668 285.863C358.54 284.615 360.628 282.023 361.636 279.647ZM362.644 271.655L363.94 272.519C362.5 275.111 359.812 278.159 357.532 279.887C357.34 279.407 356.86 278.663 356.524 278.255C358.708 276.887 361.348 274.055 362.644 271.655ZM370.996 277.823H372.628V284.951H370.996V277.823ZM366.556 279.551H377.236V280.607H366.556V279.551ZM366.556 281.831H377.236V282.911H366.556V281.831ZM364.516 286.487H376.42V287.855H364.516V286.487ZM366.604 275.303L368.14 275.807C367.228 277.655 365.764 279.575 364.444 280.823C364.18 280.535 363.58 279.935 363.22 279.671C364.516 278.543 365.812 276.935 366.604 275.303ZM375.868 286.487H376.276L376.564 286.439L377.62 287.135C374.932 290.639 369.316 292.391 363.82 293.207C363.7 292.823 363.292 292.127 363.004 291.791C368.332 291.167 373.66 289.607 375.868 286.751V286.487ZM366.868 287.543C369.196 289.799 374.116 291.239 379.036 291.719C378.676 292.079 378.22 292.727 378.004 293.159C372.988 292.511 368.044 290.879 365.404 288.167L366.868 287.543ZM368.26 271.175H369.892V275.855H368.26V271.175ZM372.436 271.175H374.116V275.903H372.436V271.175ZM364.228 272.951H369.148V274.343H364.228V272.951ZM369.868 275.759L371.164 275.063C371.836 275.759 372.676 276.671 373.06 277.247L371.74 278.087C371.332 277.463 370.54 276.479 369.868 275.759ZM365.932 284.159H378.124V285.359H365.932V284.159ZM367.132 277.223H377.836V278.399H367.132V285.983H365.548V278.543L366.82 277.223H367.132ZM373.252 272.903H378.748V274.271H373.252V272.903ZM161.844 311.375V314.471H170.772V311.375H161.844ZM161.844 306.839V309.887H170.772V306.839H161.844ZM160.212 305.279H172.5V316.031H160.212V305.279ZM159.9 318.839H172.836V320.495H159.9V318.839ZM158.052 323.807H173.628V325.439H158.052V323.807ZM151.524 305.783H159.012V307.487H151.524V305.783ZM151.788 312.719H158.676V314.423H151.788V312.719ZM151.284 321.911C153.228 321.383 156.108 320.447 158.892 319.511L159.204 321.239C156.588 322.127 153.852 323.039 151.716 323.759L151.284 321.911ZM154.524 306.455H156.252V321.335L154.524 321.671V306.455ZM165.516 306.023H167.1V315.263H167.22V324.551H165.396V315.263H165.516V306.023ZM175.524 308.831H183.396V310.487H175.524V308.831ZM178.86 304.175H180.516V326.231H178.86V304.175ZM178.764 309.839L180.06 310.223C179.388 314.015 177.876 318.959 176.244 321.527C176.028 320.999 175.548 320.279 175.212 319.871C176.724 317.543 178.188 313.271 178.764 309.839ZM180.516 310.871C181.092 311.663 183.228 315.167 183.66 315.959L182.364 317.447C181.812 316.031 180.18 312.911 179.532 311.735L180.516 310.871ZM184.764 308.471H196.164V326.015H194.316V310.199H186.54V326.183H184.764V308.471ZM185.748 315.743H195.132V317.447H185.748V315.743ZM185.748 323.135H195.132V324.863H185.748V323.135ZM189.54 304.199L191.628 304.463C191.1 306.215 190.452 308.207 189.9 309.503L188.268 309.167C188.748 307.823 189.3 305.687 189.54 304.199ZM203.652 323.159H217.14V324.911H203.652V323.159ZM202.74 316.127H218.124V326.159H216.228V317.831H204.564V326.231H202.74V316.127ZM212.82 307.823L214.212 306.887C216.564 308.927 219.396 311.903 220.644 313.895L219.084 315.023C217.908 312.983 215.172 309.959 212.82 307.823ZM201.444 314.087C201.372 313.703 201.06 312.791 200.844 312.311C201.396 312.215 202.02 311.687 202.812 310.895C203.7 310.103 206.508 307.055 208.38 304.079L210.18 304.847C207.876 308.039 205.188 311.015 202.644 313.127V313.175C202.644 313.175 201.444 313.727 201.444 314.087ZM201.444 314.087L201.42 312.671L202.764 311.999L218.124 311.279C218.148 311.783 218.22 312.503 218.316 312.887C203.844 313.703 202.404 313.751 201.444 314.087ZM234.396 308.519H238.86V309.527H234.396V308.519ZM234.396 310.295H238.86V311.303H234.396V310.295ZM230.772 321.407H243.156V322.631H230.772V321.407ZM233.676 306.575H239.484V307.679H233.676V306.575ZM235.524 313.175V314.759H237.66V313.175H235.524ZM234.348 312.167H238.884V315.767H234.348V312.167ZM231.252 319.031H241.596V317.783H229.836V316.607H243.276V320.207H231.252V319.031ZM230.724 319.031H232.404C232.092 320.303 231.708 321.671 231.372 322.631H229.668C230.052 321.623 230.436 320.231 230.724 319.031ZM242.628 321.407H244.332C244.332 321.407 244.308 321.911 244.212 322.151C243.756 324.215 243.276 325.271 242.628 325.775C242.124 326.135 241.62 326.207 240.804 326.231C240.108 326.231 238.644 326.231 237.108 326.135C237.084 325.727 236.868 325.127 236.604 324.743C238.14 324.887 239.724 324.911 240.324 324.911C240.852 324.911 241.116 324.887 241.356 324.719C241.836 324.383 242.22 323.471 242.628 321.623V321.407ZM223.836 305.639L224.892 304.463C226.092 305.159 227.58 306.215 228.3 307.031L227.172 308.375C226.5 307.535 225.06 306.407 223.836 305.639ZM223.308 312.095L224.316 310.847C225.564 311.471 227.1 312.479 227.844 313.247L226.788 314.615C226.068 313.847 224.532 312.767 223.308 312.095ZM223.764 325.007C224.652 323.135 225.9 320.015 226.788 317.327L228.204 318.263C227.412 320.759 226.332 323.735 225.372 325.943L223.764 325.007ZM231.972 309.623L232.884 309.335C233.364 310.079 233.868 311.063 234.036 311.687L233.1 312.119C232.908 311.447 232.452 310.415 231.972 309.623ZM232.164 312.695L233.052 312.383C233.46 313.223 233.844 314.303 233.916 314.999L233.004 315.383C232.908 314.663 232.548 313.559 232.164 312.695ZM228.804 312.839L229.86 313.079C229.62 314.255 229.26 315.551 228.804 316.415C228.612 316.247 228.156 315.935 227.892 315.815C228.372 314.975 228.636 313.895 228.804 312.839ZM228.588 308.807C228.54 308.615 228.324 308.135 228.18 307.895C228.468 307.847 228.684 307.631 228.9 307.271C229.164 306.959 230.028 305.567 230.412 304.295L231.564 304.703C230.988 306.023 230.148 307.367 229.356 308.279V308.303C229.356 308.303 228.588 308.591 228.588 308.807ZM228.588 308.807L228.564 307.943L229.308 307.583L232.044 307.415C231.972 307.727 231.924 308.159 231.924 308.399C229.428 308.591 228.9 308.711 228.588 308.807ZM228.612 312.071C228.564 311.879 228.372 311.399 228.228 311.159C228.588 311.087 228.924 310.775 229.332 310.319C229.812 309.863 231.3 308.063 232.188 306.335L233.292 306.839C232.212 308.543 230.844 310.295 229.476 311.519V311.543C229.476 311.543 228.612 311.855 228.612 312.071ZM228.612 312.071L228.564 311.183L229.26 310.799L233.028 310.367C233.076 310.631 233.148 311.063 233.244 311.303C229.572 311.783 228.972 311.927 228.612 312.071ZM230.364 313.007L231.324 312.791C231.636 313.727 231.852 314.927 231.876 315.647L230.892 315.983C230.868 315.215 230.676 313.967 230.364 313.007ZM235.284 304.655L236.532 304.343C236.916 304.919 237.372 305.735 237.564 306.239L236.244 306.623C236.1 306.071 235.668 305.255 235.284 304.655ZM243.18 309.575L244.044 309.263C244.572 310.055 245.124 311.135 245.316 311.783L244.404 312.191C244.188 311.495 243.66 310.415 243.18 309.575ZM243.348 312.623L244.212 312.311C244.716 313.295 245.148 314.567 245.292 315.359L244.356 315.791C244.236 314.951 243.804 313.631 243.348 312.623ZM239.988 312.719L241.068 312.959C240.828 314.135 240.444 315.431 240.012 316.319C239.82 316.127 239.364 315.839 239.076 315.695C239.556 314.879 239.82 313.775 239.988 312.719ZM239.796 308.759C239.724 308.567 239.532 308.063 239.388 307.823C239.676 307.799 239.868 307.559 240.108 307.223C240.372 306.887 241.212 305.519 241.62 304.247L242.748 304.679C242.196 305.951 241.356 307.295 240.564 308.207V308.231C240.564 308.231 239.796 308.543 239.796 308.759ZM239.796 308.759L239.772 307.895L240.492 307.511L243.228 307.343C243.156 307.655 243.108 308.111 243.132 308.351C240.636 308.543 240.084 308.639 239.796 308.759ZM239.82 312.023C239.772 311.807 239.556 311.327 239.412 311.087C239.796 311.015 240.132 310.727 240.54 310.247C241.02 309.815 242.484 308.015 243.372 306.287L244.476 306.767C243.396 308.495 242.052 310.223 240.66 311.447V311.495C240.66 311.495 239.82 311.807 239.82 312.023ZM239.82 312.023L239.772 311.111L240.444 310.751L244.236 310.295C244.26 310.583 244.356 311.015 244.452 311.231C240.78 311.735 240.18 311.879 239.82 312.023ZM241.524 312.983L242.46 312.743C242.82 313.775 243.084 315.071 243.084 315.863L242.1 316.199C242.076 315.359 241.86 314.015 241.524 312.983ZM248.652 306.479H268.308V308.015H248.652V306.479ZM249.42 324.071H267.588V325.583H249.42V324.071ZM253.38 309.599H263.484V310.967H253.38V309.599ZM253.38 312.623H263.484V313.991H253.38V312.623ZM247.524 315.719H269.34V317.231H247.524V315.719ZM252.564 320.015H264.348V321.503H252.564V320.015ZM252.3 304.175H254.1V316.559H252.3V304.175ZM262.86 304.175H264.66V316.559H262.86V304.175ZM257.46 317.999H259.308V324.911H257.46V317.999ZM253.572 316.127L255.084 316.703C253.62 319.175 250.98 321.455 248.46 322.631C248.196 322.223 247.692 321.599 247.284 321.263C249.708 320.303 252.276 318.239 253.572 316.127ZM263.388 316.127C264.66 318.167 267.156 320.063 269.652 320.951C269.244 321.287 268.716 321.911 268.452 322.343C265.908 321.263 263.364 319.031 261.972 316.679L263.388 316.127ZM276.228 311.351H288.636V313.031H276.228V311.351ZM273.156 316.295H291.756V317.951H273.156V316.295ZM272.076 323.879H292.836V325.535H272.076V323.879ZM281.412 312.095H283.332V324.719H281.412V312.095ZM275.196 319.103L276.66 318.503C277.596 319.823 278.604 321.671 278.988 322.847L277.404 323.519C277.044 322.343 276.108 320.471 275.196 319.103ZM288.012 318.479L289.716 319.151C288.828 320.687 287.748 322.415 286.86 323.543L285.492 322.943C286.332 321.767 287.412 319.847 288.012 318.479ZM283.14 305.183C285.42 307.871 289.908 310.583 293.772 311.783C293.34 312.191 292.788 312.887 292.5 313.367C288.66 311.951 284.196 308.975 281.628 305.927L283.14 305.183ZM282.42 303.935L284.076 304.703C281.484 308.663 277.092 311.735 272.388 313.439C272.124 312.935 271.62 312.239 271.164 311.807C275.7 310.343 280.116 307.511 282.42 303.935ZM295.524 319.511H317.436V321.047H295.524V319.511ZM310.164 317.951L311.052 317.135C311.868 317.663 312.924 318.455 313.428 318.983L312.516 319.919C312.012 319.367 310.98 318.527 310.164 317.951ZM303.54 311.879H317.028V313.175H303.54V311.879ZM312.276 310.103H313.98V315.623C313.98 316.439 313.812 316.823 313.188 317.063C312.54 317.303 311.556 317.279 310.044 317.279C309.972 316.847 309.732 316.319 309.516 315.887C310.644 315.935 311.58 315.935 311.892 315.911C312.18 315.887 312.276 315.815 312.276 315.575V310.103ZM295.644 311.543H301.98V313.031H295.644V311.543ZM300.924 304.223H302.604V317.807H300.924V304.223ZM296.772 304.727H298.308V308.231H301.884V309.695H296.772V304.727ZM305.388 313.967L306.492 313.079C307.476 313.679 308.652 314.615 309.204 315.287L308.028 316.271C307.5 315.575 306.372 314.591 305.388 313.967ZM307.476 306.599L308.652 306.143C309.828 306.959 311.172 308.231 311.844 309.143L310.572 309.623C309.996 308.735 308.676 307.463 307.476 306.599ZM314.652 305.399H314.964L315.276 305.327L316.236 305.855C314.076 309.551 309.18 311.159 304.164 311.831C303.996 311.495 303.684 311.015 303.42 310.703C308.076 310.175 312.804 308.687 314.652 305.639V305.399ZM310.14 304.103L311.724 304.439C310.068 305.927 307.74 307.103 304.596 308.039C304.404 307.727 303.948 307.247 303.636 307.007C306.564 306.263 308.844 305.183 310.14 304.103ZM309.18 305.399H315.108V306.527H307.764L309.18 305.399ZM297.372 312.095H298.98V313.271C298.98 314.519 298.62 316.703 296.94 318.047C296.628 317.759 295.956 317.399 295.548 317.231C297.084 316.055 297.372 314.255 297.372 313.223V312.095ZM305.436 317.111H307.212V318.647C307.212 321.167 306.012 324.671 296.364 326.303C296.148 325.895 295.716 325.247 295.332 324.839C304.332 323.351 305.436 320.471 305.436 318.599V317.111ZM307.116 322.127L307.956 320.903C311.004 322.031 315.276 323.711 317.532 324.791L316.644 326.207C314.508 325.127 310.26 323.327 307.116 322.127ZM304.116 308.495C305.292 308.447 306.708 308.351 308.316 308.255V309.263C306.876 309.383 305.532 309.479 304.308 309.575L304.116 308.495Z" fill="black"/>
<path d="M165.305 124.194V125.979H174.44V124.194H165.305ZM165.305 119.679V121.429H174.44V119.679H165.305ZM161.245 116.739H178.675V128.919H161.245V116.739ZM159.495 130.459H179.83V133.889H159.495V130.459ZM158.585 135.884H180.53V139.454H158.585V135.884ZM171.5 133.469H175.735V144.424C175.735 146.349 175.385 147.364 174.02 147.959C172.725 148.554 170.975 148.589 168.56 148.589C168.385 147.434 167.79 145.894 167.265 144.844C168.735 144.914 170.38 144.914 170.835 144.879C171.36 144.844 171.5 144.739 171.5 144.319V133.469ZM160.93 141.169L163.835 139.209C165.34 140.574 167.195 142.534 168.105 143.829L164.955 146.069C164.185 144.739 162.365 142.674 160.93 141.169ZM156.135 123.459L159.81 124.999C157.255 129.304 153.16 133.924 149.485 136.794C149.205 135.884 148.155 133.504 147.525 132.489C150.605 130.319 154.035 126.854 156.135 123.459ZM155.19 115.759L159.18 117.369C156.835 120.624 153.265 124.054 149.975 126.189C149.52 125.244 148.54 123.529 147.875 122.654C150.605 120.974 153.72 118.104 155.19 115.759ZM152.67 131.264L156.555 127.379L156.73 127.484V148.589H152.67V131.264ZM183.295 138.019H215.985V141.449H183.295V138.019ZM205.38 136.234L207.305 134.414C208.53 135.184 210.14 136.374 210.945 137.179L208.95 139.209C208.18 138.369 206.605 137.109 205.38 136.234ZM195.825 126.819H215.53V129.549H195.825V126.819ZM207.585 124.579H211.54V131.719C211.54 133.364 211.225 134.134 210.07 134.624C208.915 135.079 207.375 135.044 205.31 135.044C205.17 134.099 204.68 132.909 204.26 131.999C205.415 132.069 206.675 132.069 207.06 132.069C207.445 132.034 207.585 131.929 207.585 131.579V124.579ZM183.435 126.119H193.235V129.374H183.435V126.119ZM190.96 115.829H194.775V135.849H190.96V115.829ZM184.835 116.634H188.335V121.009H193.13V124.229H184.835V116.634ZM197.89 130.599L200.445 128.674C201.74 129.444 203.315 130.704 204.05 131.649L201.355 133.784C200.69 132.839 199.185 131.474 197.89 130.599ZM201.18 119.749L203.77 118.839C205.38 119.994 207.27 121.779 208.215 123.074L205.45 124.019C204.645 122.794 202.825 121.009 201.18 119.749ZM211.19 117.474H211.89L212.555 117.369L214.725 118.454C211.61 124.054 204.995 126.224 197.435 127.239C197.085 126.504 196.385 125.489 195.825 124.859C202.545 124.159 208.74 122.164 211.19 117.964V117.474ZM205.1 115.549L208.495 116.319C205.905 118.594 202.545 120.099 197.925 121.359C197.505 120.624 196.525 119.539 195.86 119.014C200.06 118.174 203.245 116.949 205.1 115.549ZM204.26 117.474H212.24V119.749H201.145L204.26 117.474ZM185.43 127.554H189.105V129.304C189.105 130.914 188.65 134.449 186.305 136.409C185.605 135.849 184.03 135.009 183.12 134.624C185.115 133.049 185.43 130.389 185.43 129.164V127.554ZM197.4 134.729H201.565V137.214C201.565 141.169 199.465 146.594 185.395 148.799C184.905 147.854 183.89 146.314 183.05 145.404C195.545 143.549 197.4 139.699 197.4 137.074V134.729ZM200.48 143.199L202.265 140.364C206.465 141.729 212.87 143.934 216.125 145.334L214.235 148.624C211.155 147.154 204.855 144.739 200.48 143.199ZM196.945 121.744C198.45 121.639 200.165 121.499 202.195 121.359L202.23 123.319C200.48 123.529 198.905 123.669 197.295 123.844L196.945 121.744ZM233.38 117.474H249.06V134.484H244.755V121.814H233.38V117.474ZM236.18 128.464H246.855V132.594H236.18V128.464ZM234.045 128.464H238.455V142.324C238.455 143.829 238.735 144.074 240.31 144.074C241.045 144.074 244.16 144.074 245.035 144.074C246.575 144.074 246.82 143.164 247.03 138.369C248.01 139.069 249.83 139.839 251.02 140.119C250.565 146.139 249.41 147.959 245.385 147.959C244.475 147.959 240.59 147.959 239.715 147.959C235.445 147.959 234.045 146.734 234.045 142.359V128.464ZM227.36 130.004L230.44 128.849C231.49 131.124 232.68 134.134 233.1 135.989L229.81 137.389C229.425 135.464 228.375 132.384 227.36 130.004ZM223.895 139.279L227.22 138.474C227.71 140.994 228.13 144.214 228.235 146.419L224.735 147.294C224.665 145.124 224.28 141.799 223.895 139.279ZM219.66 138.824L223.16 139.419C222.915 142.569 222.285 145.894 221.515 148.064C220.745 147.609 219.03 147.084 218.155 146.839C218.96 144.809 219.415 141.659 219.66 138.824ZM219.485 129.619C219.275 128.849 218.645 126.994 218.225 126.014C218.925 125.804 219.555 125.139 220.255 124.089C221.025 123.109 223.37 119.189 224.7 115.444L228.48 117.019C226.695 120.834 224.175 124.824 221.795 127.589V127.694C221.795 127.694 219.485 128.919 219.485 129.619ZM219.485 129.619L219.38 126.644L221.095 125.524L227.29 125.069C227.08 126.119 226.87 127.624 226.87 128.464C221.375 129.024 220.185 129.269 219.485 129.619ZM219.73 137.739C219.555 136.969 218.855 135.009 218.4 133.959C219.345 133.714 220.15 132.909 221.34 131.614C222.565 130.354 226.415 125.279 228.725 120.414L232.26 122.654C229.565 127.414 225.785 132.209 222.145 135.674V135.779C222.145 135.779 219.73 137.004 219.73 137.739ZM219.73 137.739L219.52 134.659L221.305 133.434L230.51 132.209C230.335 133.259 230.265 134.799 230.3 135.639C222.005 136.934 220.605 137.284 219.73 137.739ZM228.06 138.474L231.175 137.424C231.98 139.559 232.855 142.289 233.275 144.074L229.95 145.299C229.635 143.444 228.76 140.609 228.06 138.474ZM255.675 124.544H264.145V128.044H255.675V124.544ZM253.645 130.634H265.755V134.169H253.645V130.634ZM253.575 135.814L256.305 135.114C256.865 137.004 257.39 139.489 257.6 141.099L254.73 141.904C254.59 140.259 254.065 137.739 253.575 135.814ZM253.05 143.864C256.2 143.479 261.03 142.744 265.72 142.009L265.93 145.299C261.73 146.174 257.285 147.014 253.89 147.644L253.05 143.864ZM263.655 134.904L266.315 135.569C265.755 137.599 265.16 139.944 264.67 141.449L262.5 140.819C262.92 139.209 263.445 136.654 263.655 134.904ZM258.3 125.979H261.695V144.739L258.3 145.404V125.979ZM259.315 115.584L262.465 116.739C260.54 120.904 257.285 125.279 253.995 128.009C253.89 127.134 253.155 124.859 252.7 123.879C255.22 121.849 257.81 118.769 259.315 115.584ZM258.825 119.224L261.03 116.879C263.13 118.839 266.21 121.674 267.68 123.319L265.3 126.084C263.9 124.264 260.96 121.324 258.825 119.224ZM282.765 132.524L285.565 134.869C284.095 136.409 282.38 138.089 281.085 139.174L278.81 137.074C280.035 135.954 281.785 133.994 282.765 132.524ZM266.525 134.554L269.29 132.559C270.515 133.854 272.125 135.639 272.895 136.829L269.955 139.034C269.29 137.844 267.715 135.919 266.525 134.554ZM271.215 118.629H280.35V121.814H271.215V118.629ZM270.305 123.809H279.58V126.959H270.305V123.809ZM266.28 128.499H285.88V132.174H266.28V128.499ZM273.84 130.809H277.69V144.634C277.69 146.419 277.445 147.399 276.29 147.994C275.205 148.519 273.7 148.624 271.705 148.624C271.565 147.574 271.075 146.034 270.585 145.019C271.705 145.089 272.965 145.054 273.315 145.054C273.735 145.054 273.84 144.949 273.84 144.599V130.809ZM265.37 143.024C267.05 142.079 269.535 140.504 271.985 138.894L273.175 141.939C271.355 143.374 269.255 144.914 267.47 146.174L265.37 143.024ZM270.55 115.689L274.435 116.109C273.63 119.749 272.51 124.229 271.67 126.959H267.645C268.625 124.054 269.815 119.329 270.55 115.689ZM279.195 118.629H279.65L280.28 118.489L283.15 118.874C282.625 122.339 281.75 126.504 280.98 129.829L277.165 129.339C277.97 125.944 278.845 121.464 279.195 119.084V118.629ZM278.005 141.414L280.21 138.929C282.135 140.224 284.9 142.184 286.265 143.374L283.955 146.209C282.695 144.949 279.965 142.849 278.005 141.414ZM295.575 115.864L299.495 117.089C297.325 123.004 293.755 129.339 290.045 133.364C289.66 132.349 288.54 130.039 287.84 129.024C290.92 125.839 293.825 120.869 295.575 115.864ZM292.11 125.629L296.24 121.464L296.275 121.499V148.554H292.11V125.629ZM300.265 119.609H318.815V123.529H300.265V119.609ZM299.565 135.254H319.515V139.209H299.565V135.254ZM298.655 127.204H320.39V131.159H298.655V127.204ZM297.605 143.409H321.02V147.469H297.605V143.409ZM307.3 115.724H311.57V129.584H307.3V115.724ZM307.3 132.174H311.57V146.349H307.3V132.174Z" fill="black"/>
<path d="M270.918 424.298V471.201L280.205 465.975V424.284L270.918 424.298Z" fill="#DB3428"/>
<path d="M311.301 424.298L302.014 424.284V465.975L311.301 471.201V424.298Z" fill="#DB3428"/>
<path d="M291.108 424.269L280.205 424.284V465.975L291.108 459.832L302.012 465.975V424.284L291.108 424.269Z" fill="#0097BB"/>
<path d="M328.782 394.252L318.243 387.09L314.691 374.862L301.968 375.255L291.894 367.467L291.865 367.482L291.574 405.811L269.098 437.618L281.835 437.225L291.894 445.028L301.968 437.225L314.691 437.618L318.243 425.39L328.782 418.228L324.473 406.248L328.782 394.252Z" fill="#DBB600"/>
<path d="M291.866 367.482L281.837 375.255L269.099 374.862L265.547 387.09L255.008 394.253L259.317 406.248L255.008 418.228L265.547 425.39L269.099 437.618L291.575 405.811L291.866 367.482Z" fill="#FFF95A"/>
<path d="M255.008 394.252L291.575 405.811L259.317 406.248" fill="#DBB600"/>
<path d="M272.753 407.499C272.753 396.188 281.574 386.93 292.71 386.231C292.259 386.202 291.808 386.188 291.357 386.188C279.58 386.188 270.045 395.737 270.045 407.499C270.045 419.261 279.594 428.811 291.357 428.811C291.808 428.811 292.259 428.796 292.71 428.767C281.574 428.068 272.753 418.81 272.753 407.499Z" fill="#DB3428"/>
<path d="M312.668 407.499C312.668 396.189 303.846 386.93 292.71 386.231C281.574 386.93 272.752 396.189 272.752 407.499C272.752 418.81 281.574 428.069 292.71 428.767C303.846 428.069 312.668 418.81 312.668 407.499Z" fill="#F6951E"/>
<path d="M306.336 402.491L296.132 401.006L291.575 391.763V405.81L282.463 419.712L282.434 419.858L291.575 415.054L300.703 419.858L298.956 409.683L306.336 402.491Z" fill="#F8D602"/>
<path d="M291.576 391.763L287.005 401.006L276.801 402.491L284.181 409.683L282.464 419.712L291.576 405.81V391.763Z" fill="#FFF95A"/>
<path d="M146.094 426.774V473.677L155.381 468.451V426.759L146.094 426.774Z" fill="#DB3428"/>
<path d="M186.474 426.774L177.201 426.759V468.451L186.474 473.677V426.774Z" fill="#DB3428"/>
<path d="M166.284 426.745L155.381 426.759V468.451L166.284 462.308L177.202 468.451V426.759L166.284 426.745Z" fill="#0097BB"/>
<path d="M203.955 396.743L193.43 389.58L189.878 377.352L177.141 377.745L167.082 369.943L167.038 369.972L166.747 408.286L144.285 440.094L157.008 439.701L167.082 447.503L177.141 439.701L189.878 440.094L193.43 427.866L203.955 420.704L199.646 408.723L203.955 396.743Z" fill="#DBB600"/>
<path d="M167.039 369.972L157.01 377.745L144.287 377.352L140.72 389.58L130.195 396.742L134.504 408.723L130.195 420.703L140.72 427.865L144.287 440.093L166.748 408.286L167.039 369.972Z" fill="#FFF95A"/>
<path d="M130.195 396.743L166.748 408.286L134.504 408.723" fill="#F8D602"/>
<path d="M147.924 409.974C147.924 398.663 156.746 389.405 167.882 388.706C167.431 388.677 166.98 388.663 166.528 388.663C154.752 388.663 145.217 398.212 145.217 409.974C145.217 421.736 154.766 431.286 166.528 431.286C166.98 431.286 167.431 431.271 167.882 431.242C156.746 430.543 147.924 421.285 147.924 409.974Z" fill="#DB3428"/>
<path d="M187.855 409.975C187.855 398.664 179.034 389.405 167.897 388.707C156.761 389.405 147.939 398.664 147.939 409.975C147.939 421.285 156.761 430.544 167.897 431.243C179.034 430.544 187.855 421.285 187.855 409.975Z" fill="#F6951E"/>
<path d="M181.522 404.967L171.317 403.482L166.746 394.238V408.286L157.648 422.203L157.619 422.334L166.746 417.53L175.874 422.334L174.141 412.173L181.522 404.967Z" fill="#F8D602"/>
<path d="M166.748 394.238L162.192 403.482L151.973 404.967L159.368 412.173L157.65 422.203L166.748 408.286V394.238Z" fill="#FFF95A"/>
<path d="M200.012 421.941V505.164L213.055 497.813V421.926L200.012 421.941Z" fill="#DB3428"/>
<path d="M256.74 421.941L243.697 421.926V497.813L256.74 505.164V421.941Z" fill="#DB3428"/>
<path d="M228.383 421.897L213.055 421.927V497.813L228.383 489.181L243.697 497.813V421.927L228.383 421.897Z" fill="#0097BB"/>
<path d="M281.297 379.755L266.507 369.681L261.5 352.518L243.624 353.071L229.489 342.11L229.445 342.154L229.023 395.971L197.463 440.647L215.354 440.094L229.489 451.055L243.624 440.094L261.5 440.647L266.507 423.484L281.297 413.411L275.242 396.583L281.297 379.755Z" fill="#F8D602"/>
<path d="M229.445 342.154L215.354 353.072L197.463 352.518L192.47 369.681L177.68 379.755L183.735 396.583L177.68 413.411L192.47 423.485L197.463 440.647L229.023 395.972L229.445 342.154Z" fill="#FFF95A"/>
<path d="M177.68 379.754L229.023 395.971L183.735 396.582" fill="#F8D602"/>
<path d="M202.587 398.344C202.587 382.448 214.976 369.448 230.624 368.473C229.998 368.429 229.358 368.4 228.717 368.4C212.181 368.4 198.773 381.807 198.773 398.344C198.773 414.881 212.181 428.288 228.717 428.288C229.358 428.288 229.998 428.259 230.624 428.215C214.976 427.225 202.587 414.24 202.587 398.344Z" fill="#DB3428"/>
<path d="M258.662 398.344C258.662 382.448 246.274 369.448 230.625 368.473C214.976 369.463 202.588 382.448 202.588 398.344C202.588 414.24 214.976 427.24 230.625 428.215C246.274 427.225 258.662 414.24 258.662 398.344Z" fill="#F6951E"/>
<path d="M249.783 391.313L235.444 389.231L229.024 376.231V395.971L216.228 415.507L216.199 415.71L229.024 408.956L241.849 415.71L239.403 401.43L249.783 391.313Z" fill="#F8D602"/>
<path d="M229.023 376.231L222.618 389.231L208.279 391.313L218.644 401.43L216.227 415.507L229.023 395.971V376.231Z" fill="#FFF95A"/>
<path d="M214.202 461.652H213.314L207.244 465.087V458.173L215.28 453.573H221.088V484.812H214.217V461.652H214.202Z" fill="white"/>
<path d="M225.701 475.262H232.572C232.791 477.897 234.668 479.106 236.808 479.106C238.948 479.106 240.913 477.504 240.913 474.593C240.913 472.322 239.618 470.4 235.775 470.4H232.165V464.781L237.609 459.832H227.026V453.587H246.227V459.162L240.651 464.301V465.189C244.669 465.859 247.886 469.512 247.886 474.651C247.886 479.79 244.538 485.365 236.823 485.365C229.675 485.365 225.934 480.459 225.701 475.277V475.262Z" fill="white"/>
<defs>
<filter id="filter0_d_1114_1017" x="30.4199" y="110.538" width="410.749" height="462.462" filterUnits="userSpaceOnUse" color-interpolation-filters="sRGB">
<feFlood flood-opacity="0" result="BackgroundImageFix"/>
<feColorMatrix in="SourceAlpha" type="matrix" values="0 0 0 0 0 0 0 0 0 0 0 0 0 0 0 0 0 0 127 0" result="hardAlpha"/>
<feOffset dx="1" dy="2"/>
<feGaussianBlur stdDeviation="15"/>
<feComposite in2="hardAlpha" operator="out"/>
<feColorMatrix type="matrix" values="0 0 0 0 0 0 0 0 0 0 0 0 0 0 0 0 0 0 0.25 0"/>
<feBlend mode="normal" in2="BackgroundImageFix" result="effect1_dropShadow_1114_1017"/>
<feBlend mode="normal" in="SourceGraphic" in2="effect1_dropShadow_1114_1017" result="shape"/>
</filter>
<filter id="filter1_d_1114_1017" x="0" y="0" width="469.442" height="259.319" filterUnits="userSpaceOnUse" color-interpolation-filters="sRGB">
<feFlood flood-opacity="0" result="BackgroundImageFix"/>
<feColorMatrix in="SourceAlpha" type="matrix" values="0 0 0 0 0 0 0 0 0 0 0 0 0 0 0 0 0 0 127 0" result="hardAlpha"/>
<feOffset dy="4"/>
<feGaussianBlur stdDeviation="10"/>
<feComposite in2="hardAlpha" operator="out"/>
<feColorMatrix type="matrix" values="0 0 0 0 0 0 0 0 0 0 0 0 0 0 0 0 0 0 0.25 0"/>
<feBlend mode="normal" in2="BackgroundImageFix" result="effect1_dropShadow_1114_1017"/>
<feBlend mode="normal" in="SourceGraphic" in2="effect1_dropShadow_1114_1017" result="shape"/>
</filter>
<linearGradient id="paint0_linear_1114_1017" x1="96.2695" y1="16" x2="383.805" y2="315.499" gradientUnits="userSpaceOnUse">
<stop stop-color="#FFDF7E"/>
<stop offset="0.572917" stop-color="#FFC000"/>
<stop offset="1" stop-color="#C59400"/>
</linearGradient>
<linearGradient id="paint1_linear_1114_1017" x1="41.3868" y1="167.759" x2="401.734" y2="580.977" gradientUnits="userSpaceOnUse">
<stop stop-color="#FFD040"/>
<stop offset="0.520833" stop-color="#FFC000"/>
<stop offset="1" stop-color="#D7A100"/>
</linearGradient>
</defs>
</svg>
