<svg width="470" height="573" viewBox="0 0 470 573" fill="none" xmlns="http://www.w3.org/2000/svg">
<g filter="url(#filter0_d_1114_1009)">
<rect x="59.4199" y="138.538" width="350.749" height="402.462" fill="white"/>
</g>
<g filter="url(#filter1_d_1114_1009)">
<path d="M412.541 131.5V16H56.901V131.5H20L234.721 235.319L449.442 131.5H412.541Z" fill="url(#paint0_linear_1114_1009)"/>
</g>
<path d="M59.3467 541V173.388L68.3262 177.733V531.995H401.117V177.89L410.096 173.545V541H59.3467Z" fill="url(#paint1_linear_1114_1009)"/>
<path d="M131.435 277.098H145.499V278.466H131.435V277.098ZM141.443 275.13L142.283 274.266C143.219 274.674 144.323 275.346 144.899 275.898L144.035 276.858C143.459 276.282 142.355 275.586 141.443 275.13ZM143.027 279.57L144.491 279.858C143.291 284.394 140.891 287.754 137.579 289.89C137.363 289.602 136.835 289.002 136.523 288.738C139.787 286.842 141.995 283.722 143.027 279.57ZM131.195 286.914C133.043 286.602 135.731 286.146 138.443 285.642L138.491 286.914C135.995 287.394 133.427 287.922 131.435 288.282L131.195 286.914ZM133.571 281.106V283.53H136.307V281.106H133.571ZM132.275 279.978H137.627V284.634H132.275V279.978ZM138.539 274.53H140.075C140.387 281.322 141.443 287.658 143.771 288.018C144.107 288.09 144.347 287.082 144.515 285.522C144.803 285.81 145.355 286.194 145.691 286.338C145.379 288.978 144.539 289.938 143.267 289.482C139.955 288.762 138.971 281.946 138.539 274.53ZM128.411 272.298H148.475V293.346H146.675V273.93H130.115V293.346H128.411V272.298ZM129.467 290.586H147.683V292.218H129.467V290.586ZM152.435 273.33H172.571V278.274H170.747V274.986H154.211V278.274H152.435V273.33ZM155.459 277.29H169.379V278.874H155.459V277.29ZM159.875 280.53L161.219 279.762C165.851 283.77 165.683 290.754 163.499 292.362C162.755 293.034 162.107 293.202 161.027 293.202C160.499 293.226 159.731 293.202 158.987 293.178C158.963 292.674 158.795 291.954 158.483 291.474C159.371 291.546 160.187 291.594 160.691 291.594C161.315 291.594 161.771 291.522 162.203 291.09C163.715 289.962 163.955 284.178 159.875 280.53ZM162.347 277.746L163.835 278.394C161.363 280.818 157.091 282.666 153.347 283.794C153.155 283.434 152.675 282.69 152.363 282.354C156.035 281.442 160.163 279.834 162.347 277.746ZM161.627 282.234L162.803 283.098C160.523 284.85 156.347 286.794 153.227 287.802C153.011 287.37 152.627 286.77 152.291 286.386C155.387 285.618 159.563 283.818 161.627 282.234ZM162.971 285.114L164.243 286.05C161.627 288.45 156.779 290.922 152.843 292.098C152.627 291.642 152.243 290.994 151.907 290.586C155.795 289.65 160.619 287.346 162.971 285.114ZM167.123 283.554C168.203 286.794 170.531 289.578 173.603 290.778C173.219 291.114 172.667 291.786 172.427 292.242C169.139 290.778 166.763 287.706 165.539 283.938L167.123 283.554ZM169.403 279.786L170.867 280.962C168.851 282.594 166.115 284.466 164.027 285.618L162.851 284.586C164.939 283.386 167.747 281.346 169.403 279.786ZM160.595 271.554L162.443 271.026C162.971 271.866 163.595 273.018 163.811 273.786L161.867 274.41C161.651 273.642 161.123 272.442 160.595 271.554ZM175.955 274.29H196.979V275.994H175.955V274.29ZM181.619 282.858H193.043V284.418H181.619V282.858ZM192.395 278.778H194.147V291.018C194.147 292.074 193.931 292.626 193.115 292.914C192.347 293.202 191.003 293.202 188.939 293.202C188.867 292.698 188.603 291.954 188.339 291.45C189.947 291.522 191.411 291.498 191.843 291.498C192.251 291.474 192.395 291.354 192.395 290.994V278.778ZM183.803 271.17L185.627 271.602C184.019 276.81 181.139 282.09 176.627 285.282C176.387 284.874 175.811 284.226 175.475 283.89C179.699 280.962 182.507 275.922 183.803 271.17ZM181.475 286.914H193.043V288.474H181.475V286.914ZM181.499 278.778H192.899V280.41H181.499V278.778ZM180.539 278.778H182.339V285.138C182.339 287.802 181.931 291.186 179.579 293.394C179.339 292.986 178.667 292.242 178.307 291.978C180.323 290.058 180.539 287.394 180.539 285.114V278.778ZM210.443 284.25H219.611V285.954H210.443V284.25ZM205.067 285.282C206.795 290.25 210.659 291.21 215.675 291.21C216.443 291.21 220.523 291.21 221.555 291.186C221.291 291.618 221.003 292.434 220.907 292.938H215.579C209.747 292.938 205.739 291.714 203.579 285.882L205.067 285.282ZM209.627 280.026H211.475V291.954L209.627 291.354V280.026ZM204.251 274.074V278.802H217.043V274.074H204.251ZM202.475 272.37H218.915V280.53H202.475V272.37ZM203.867 282.33L205.763 282.546C205.187 286.482 203.843 290.898 200.771 293.274C200.459 292.914 199.859 292.314 199.475 292.05C202.331 289.866 203.507 285.786 203.867 282.33ZM236.819 271.242L238.499 271.626C237.539 275.058 235.907 278.37 234.083 280.506C233.795 280.218 233.099 279.642 232.691 279.402C234.515 277.434 235.955 274.362 236.819 271.242ZM243.131 274.746H244.859C244.859 274.746 244.859 275.442 244.835 275.706C244.643 287.226 244.475 290.946 243.683 292.05C243.227 292.746 242.723 292.962 242.003 293.034C241.283 293.13 240.179 293.106 239.075 293.058C239.051 292.53 238.835 291.762 238.547 291.282C239.723 291.378 240.779 291.378 241.259 291.378C241.667 291.402 241.859 291.306 242.099 290.994C242.699 290.178 242.939 286.266 243.131 275.178V274.746ZM236.459 279.018H241.211V287.514H236.459V286.026H239.699V280.53H236.459V279.018ZM235.523 279.018H237.011V289.362H235.523V279.018ZM236.195 274.746H243.779V276.354H236.195V274.746ZM228.179 271.146L229.811 271.434C228.731 273.666 227.003 276.018 224.459 277.866C224.219 277.53 223.691 277.05 223.307 276.834C225.707 275.202 227.363 272.994 228.179 271.146ZM229.379 280.074L231.035 280.362C229.763 282.81 227.699 285.33 224.483 287.226C224.267 286.866 223.763 286.338 223.403 286.098C226.379 284.466 228.395 282.09 229.379 280.074ZM227.699 273.498H232.427V274.986H226.331L227.699 273.498ZM231.779 273.498H232.091L232.427 273.426L233.483 273.93C231.971 278.466 228.443 281.418 224.723 282.978C224.507 282.594 224.075 282.018 223.739 281.706C227.171 280.434 230.531 277.578 231.779 273.81V273.498ZM228.659 282.162H233.171V283.722H227.219L228.659 282.162ZM232.643 282.162H232.955L233.291 282.09L234.371 282.546C232.835 288.306 228.899 291.594 224.387 293.154C224.195 292.77 223.763 292.146 223.427 291.81C227.603 290.514 231.347 287.37 232.643 282.45V282.162ZM224.987 276.45L226.259 275.634C227.531 276.402 229.091 277.626 229.859 278.466L228.491 279.378C227.771 278.538 226.259 277.29 224.987 276.45ZM225.611 285.546L226.955 284.73C228.299 285.69 229.907 287.082 230.651 288.09L229.259 289.026C228.515 288.018 226.955 286.554 225.611 285.546ZM247.715 290.466H269.171V292.218H247.715V290.466ZM252.539 278.49H264.395V280.17H252.539V278.49ZM252.539 284.466H264.395V286.194H252.539V284.466ZM251.507 272.562H265.643V291.33H263.795V274.314H253.307V291.33H251.507V272.562ZM277.091 271.098L278.891 271.554C277.571 275.106 275.435 278.442 273.203 280.602C272.843 280.29 272.099 279.69 271.643 279.45C273.923 277.458 275.915 274.338 277.091 271.098ZM276.707 274.074H292.187V275.826H275.843L276.707 274.074ZM275.531 279.522H291.659V281.202H277.331V286.89H275.531V279.522ZM271.571 285.978H293.315V287.73H271.571V285.978ZM282.731 274.986H284.579V293.274H282.731V274.986ZM305.267 272.37H317.219V273.906H305.267V272.37ZM305.723 284.85H316.763V286.386H305.723V284.85ZM304.379 291.09H317.507V292.65H304.379V291.09ZM310.139 285.594H311.939V292.242H310.139V285.594ZM307.187 274.722L308.723 275.106C308.123 276.354 307.259 277.914 306.515 279.162C307.499 280.626 308.507 282.33 308.963 283.458L307.499 284.058C307.019 282.786 306.011 280.89 304.859 279.186C305.747 277.722 306.707 275.874 307.187 274.722ZM311.123 274.722L312.635 275.106C312.035 276.354 311.123 277.914 310.379 279.162C311.411 280.578 312.467 282.282 312.995 283.386L311.507 284.034C311.027 282.762 309.923 280.866 308.699 279.186C309.635 277.698 310.619 275.874 311.123 274.722ZM315.203 274.722L316.763 275.106C316.115 276.402 315.155 277.914 314.387 279.162C315.467 280.578 316.595 282.306 317.123 283.434L315.683 284.058C315.131 282.786 313.931 280.89 312.635 279.186C313.619 277.722 314.675 275.874 315.203 274.722ZM295.667 273.786H304.667V275.394H295.667V273.786ZM295.355 287.466H304.859V289.074H295.355V287.466ZM299.411 271.194H300.923V277.746H299.411V271.194ZM299.555 277.842H300.827V284.826H300.947V293.298H299.411V284.826H299.555V277.842ZM297.467 281.97V284.178H302.939V281.97H297.467ZM297.467 278.514V280.674H302.939V278.514H297.467ZM296.123 277.17H304.355V285.522H296.123V277.17ZM321.587 275.034H328.883V290.73H321.587V289.098H327.203V276.642H321.587V275.034ZM320.507 275.034H322.187V292.65H320.507V275.034ZM321.467 281.706H328.091V283.314H321.467V281.706ZM324.179 271.122L326.123 271.482C325.643 272.97 325.043 274.626 324.563 275.706L323.123 275.346C323.531 274.194 323.987 272.37 324.179 271.122ZM332.291 274.962H339.659V276.642H332.291V274.962ZM339.035 274.962H340.715C340.715 274.962 340.715 275.634 340.715 275.898C340.331 286.914 339.995 290.634 339.035 291.81C338.507 292.506 337.955 292.722 337.115 292.794C336.299 292.89 334.883 292.842 333.539 292.77C333.491 292.242 333.275 291.498 332.939 291.018C334.499 291.138 335.939 291.162 336.491 291.162C336.971 291.162 337.259 291.09 337.523 290.778C338.315 289.914 338.699 285.93 339.035 275.346V274.962ZM332.795 271.074L334.523 271.482C333.635 275.058 332.219 278.586 330.563 280.866C330.251 280.578 329.507 280.074 329.075 279.834C330.707 277.722 332.027 274.41 332.795 271.074ZM331.691 281.202L333.083 280.386C334.451 282.09 336.107 284.418 336.875 285.834L335.339 286.794C334.619 285.33 333.011 282.954 331.691 281.202ZM116.483 312.858H136.523V317.106H134.723V314.466H118.211V317.106H116.483V312.858ZM124.691 305.418L126.203 305.994C125.459 306.978 124.667 307.986 124.019 308.682L122.915 308.154C123.515 307.41 124.283 306.21 124.691 305.418ZM120.419 309.378L121.595 308.394C122.819 309.186 124.523 310.362 125.411 311.106L124.211 312.21C123.371 311.466 121.691 310.242 120.419 309.378ZM117.803 317.418H133.355V319.074H117.803V317.418ZM120.755 304.17H122.363C122.147 309.066 121.235 311.49 116.507 312.81C116.339 312.426 115.907 311.802 115.595 311.49C119.867 310.41 120.563 308.442 120.755 304.17ZM132.851 317.418H134.675C134.675 317.418 134.651 317.946 134.627 318.234C134.291 322.89 133.931 324.786 133.211 325.506C132.755 325.986 132.251 326.154 131.435 326.202C130.691 326.25 129.251 326.25 127.739 326.154C127.691 325.626 127.475 324.906 127.139 324.45C128.675 324.57 130.163 324.594 130.715 324.594C131.195 324.594 131.483 324.546 131.723 324.354C132.227 323.898 132.563 322.098 132.851 317.682V317.418ZM124.811 314.826H126.707C126.299 321.33 125.027 324.714 116.723 326.25C116.579 325.794 116.123 325.026 115.763 324.642C123.491 323.346 124.451 320.586 124.811 314.826ZM135.179 305.418L136.739 306.018C135.947 307.026 135.011 308.13 134.315 308.874L133.163 308.322C133.835 307.53 134.723 306.258 135.179 305.418ZM130.451 309.282L131.555 308.226C133.259 309.258 135.587 310.794 136.811 311.73L135.635 312.93C134.483 311.97 132.155 310.386 130.451 309.282ZM130.787 304.17H132.443C132.227 308.826 131.315 311.274 126.851 312.642C126.683 312.234 126.227 311.586 125.891 311.298C129.923 310.194 130.619 308.226 130.787 304.17ZM116.219 306.066L117.299 305.226C117.971 305.922 118.859 306.858 119.291 307.458L118.211 308.442C117.755 307.818 116.891 306.81 116.219 306.066ZM126.587 306.09L127.595 305.25C128.243 305.826 129.083 306.69 129.491 307.194L128.435 308.202C128.003 307.626 127.211 306.738 126.587 306.09ZM140.099 319.866H151.043V321.234H140.099V319.866ZM139.451 308.298H151.427V309.69H139.451V308.298ZM144.659 306.114H146.315V323.778H144.659V306.114ZM139.427 323.826C142.355 323.562 146.843 323.13 151.139 322.674L151.163 324.09C147.083 324.57 142.739 325.074 139.691 325.386L139.427 323.826ZM141.659 315.378V317.154H149.435V315.378H141.659ZM141.659 312.45V314.178H149.435V312.45H141.659ZM140.147 311.202H150.971V318.402H140.147V311.202ZM150.107 304.41L151.019 305.802C148.187 306.426 143.723 306.834 140.123 306.954C140.051 306.57 139.883 305.97 139.691 305.61C143.267 305.418 147.635 304.986 150.107 304.41ZM151.259 309.786H159.923V311.466H151.259V309.786ZM159.227 309.786H160.955C160.955 309.786 160.931 310.458 160.931 310.698C160.667 320.826 160.427 324.186 159.635 325.218C159.203 325.842 158.723 326.058 158.003 326.13C157.331 326.202 156.179 326.202 155.075 326.13C155.027 325.626 154.835 324.882 154.547 324.402C155.723 324.498 156.779 324.522 157.259 324.522C157.643 324.522 157.883 324.45 158.099 324.138C158.699 323.394 158.963 319.938 159.227 310.218V309.786ZM154.163 304.482H155.891C155.867 314.034 155.843 322.098 150.107 326.394C149.819 325.962 149.195 325.386 148.763 325.098C154.259 321.162 154.139 313.554 154.163 304.482ZM164.411 309.426H183.035V311.25H164.411V309.426ZM182.339 309.426H184.211C184.211 309.426 184.187 310.098 184.163 310.386C183.611 320.322 183.107 323.898 182.051 325.098C181.475 325.794 180.899 325.986 179.987 326.058C179.147 326.154 177.611 326.106 176.123 326.01C176.099 325.482 175.859 324.69 175.523 324.162C177.155 324.306 178.691 324.33 179.291 324.33C179.819 324.33 180.107 324.258 180.419 323.97C181.331 323.082 181.859 319.338 182.339 309.81V309.426ZM172.259 304.218H174.155V308.394C174.155 313.866 173.483 321.282 165.083 326.346C164.819 325.914 164.147 325.242 163.715 324.93C171.683 320.178 172.259 313.362 172.259 308.394V304.218ZM201.995 306.834H203.675V320.106H201.995V306.834ZM206.531 304.29H208.259V323.874C208.259 325.002 207.971 325.554 207.275 325.866C206.579 326.154 205.379 326.202 203.411 326.202C203.315 325.722 203.051 324.93 202.811 324.402C204.275 324.45 205.571 324.45 205.955 324.426C206.363 324.402 206.531 324.282 206.531 323.874V304.29ZM190.427 314.49H198.467V315.69H190.427V314.49ZM191.531 323.682H198.947V325.098H191.531V323.682ZM189.395 311.61H191.075V314.85C191.075 317.85 190.715 322.218 188.771 325.266C188.435 324.978 187.691 324.642 187.235 324.474C189.155 321.546 189.395 317.586 189.395 314.85V311.61ZM190.403 311.61H199.235V318.69H190.307V317.346H197.579V312.954H190.403V311.61ZM190.835 319.794H199.811V326.058H198.203V321.138H192.395V326.106H190.835V319.794ZM194.075 304.362L195.731 304.962C194.027 307.794 191.123 310.218 188.291 311.754C188.099 311.37 187.595 310.482 187.283 310.098C189.947 308.826 192.611 306.762 194.075 304.362ZM193.523 306.33L194.459 305.058C196.451 306.234 199.283 307.962 200.651 309.066L199.691 310.554C198.323 309.402 195.563 307.578 193.523 306.33ZM192.011 309.21H197.075V310.41H192.011V309.21ZM220.859 307.194H232.043V308.778H220.859V307.194ZM218.075 311.85H232.979V313.41H218.075V311.85ZM221.387 304.506L223.019 304.866C222.203 307.314 220.859 309.69 219.491 311.274C219.131 311.01 218.411 310.602 217.979 310.41C219.443 308.946 220.667 306.738 221.387 304.506ZM224.795 304.194H226.571V312.858H224.795V304.194ZM212.435 305.01L213.779 304.218C214.883 305.37 216.203 306.906 216.875 307.89L215.483 308.874C214.835 307.866 213.491 306.186 212.435 305.01ZM211.571 309.714H216.683V311.226H211.571V309.714ZM215.843 320.73C217.331 323.874 220.451 324.306 225.227 324.306C227.747 324.306 231.275 324.186 233.723 323.994C233.459 324.378 233.219 325.218 233.123 325.722C230.867 325.842 227.843 325.914 225.203 325.914C219.587 325.914 216.443 325.242 214.643 321.282L215.843 320.73ZM216.083 315.714H216.515L216.803 315.666L217.715 316.002C216.899 321.114 214.931 324.498 212.291 326.322C212.051 325.938 211.451 325.338 211.091 325.074C213.611 323.442 215.411 320.418 216.083 316.026V315.714ZM211.907 317.514V316.146L212.771 315.714H216.635V317.178H213.323C212.699 317.178 212.075 317.322 211.907 317.514ZM211.907 317.514C211.787 317.106 211.427 316.266 211.235 315.906C211.595 315.81 211.979 315.642 212.363 315.162C213.107 314.442 215.363 311.178 216.155 309.906L216.131 309.834L216.683 309.618L217.859 310.122C216.755 311.754 214.595 314.85 213.251 316.386C213.251 316.386 211.907 317.058 211.907 317.514ZM221.723 316.818V320.682H229.571V316.818H221.723ZM219.971 315.306H231.371V322.194H219.971V315.306ZM243.587 323.922C246.611 323.754 251.411 323.466 255.971 323.13L255.923 324.762C251.627 325.098 247.019 325.458 243.827 325.674L243.587 323.922ZM253.043 321.114L254.555 320.442C255.803 322.074 257.123 324.234 257.627 325.674L256.043 326.394C255.563 324.978 254.267 322.746 253.043 321.114ZM246.179 315.114V318.474H254.555V315.114H246.179ZM244.595 313.626H256.187V319.986H244.595V313.626ZM249.443 311.274H251.171V324.162L249.443 324.234V311.274ZM236.603 316.266H242.267V317.898H236.603V316.266ZM241.667 316.266H243.443C243.443 316.266 243.419 316.794 243.395 317.058C243.059 322.506 242.699 324.594 242.051 325.338C241.619 325.818 241.163 325.986 240.467 326.034C239.891 326.082 238.787 326.082 237.683 326.01C237.659 325.506 237.467 324.81 237.179 324.354C238.259 324.45 239.315 324.45 239.723 324.45C240.131 324.45 240.347 324.426 240.539 324.21C241.043 323.706 241.379 321.738 241.667 316.554V316.266ZM236.459 311.01H238.091C237.875 313.29 237.539 316.146 237.251 317.898H235.571C235.907 316.098 236.267 313.218 236.459 311.01ZM236.867 311.01H241.523V307.146H235.835V305.49H243.203V312.666H236.867V311.01ZM251.915 307.098L253.187 306.33C254.675 307.842 256.379 309.954 257.147 311.322L255.803 312.234C255.035 310.842 253.355 308.682 251.915 307.098ZM244.715 311.658C244.619 311.322 244.331 310.482 244.091 310.074C244.499 310.002 244.907 309.618 245.387 309.042C245.867 308.49 247.475 306.378 248.459 304.314L250.331 304.77C248.987 307.026 247.283 309.282 245.771 310.746V310.794C245.771 310.794 244.715 311.298 244.715 311.658ZM244.715 311.658L244.667 310.41L245.675 309.858L254.963 309.114C254.987 309.546 255.131 310.17 255.227 310.53C246.347 311.298 245.315 311.418 244.715 311.658ZM259.547 305.658H271.187V307.266H259.547V305.658ZM259.787 316.506H270.707V318.138H259.787V316.506ZM264.323 317.082H266.051V323.418H264.323V317.082ZM259.355 323.466C262.187 323.082 266.603 322.362 270.827 321.666L270.899 323.322C266.891 324.018 262.643 324.762 259.667 325.266L259.355 323.466ZM261.323 307.602L262.811 307.914C262.355 309.138 261.755 310.554 261.203 311.706C262.019 313.026 262.763 314.61 263.123 315.642L261.707 316.146C261.371 314.97 260.603 313.266 259.691 311.73C260.339 310.338 261.011 308.682 261.323 307.602ZM265.019 307.602L266.483 307.938C266.003 309.138 265.331 310.53 264.731 311.682C265.571 313.002 266.411 314.562 266.771 315.57L265.379 316.122C264.995 314.946 264.155 313.242 263.195 311.706C263.891 310.338 264.635 308.682 265.019 307.602ZM268.835 307.602L270.323 307.962C269.771 309.162 269.027 310.53 268.379 311.682C269.291 312.978 270.203 314.562 270.659 315.57L269.243 316.122C268.787 314.946 267.851 313.242 266.771 311.706C267.563 310.338 268.403 308.682 268.835 307.602ZM270.851 309.786H279.899V311.466H270.851V309.786ZM279.227 309.786H280.955C280.955 309.786 280.931 310.458 280.931 310.698C280.667 320.826 280.427 324.186 279.635 325.218C279.203 325.842 278.723 326.058 278.003 326.13C277.331 326.202 276.179 326.202 275.075 326.13C275.027 325.626 274.835 324.882 274.547 324.402C275.723 324.498 276.779 324.522 277.259 324.522C277.643 324.522 277.883 324.45 278.099 324.138C278.699 323.394 278.963 319.938 279.227 310.218V309.786ZM273.995 304.482H275.723C275.699 314.034 275.675 322.098 269.939 326.394C269.651 325.962 269.051 325.386 268.619 325.098C274.091 321.162 273.971 313.554 273.995 304.482ZM285.059 309.546H303.011V311.322H286.883V326.274H285.059V309.546ZM302.123 309.546H303.947V323.922C303.947 325.05 303.707 325.626 302.891 325.938C302.075 326.226 300.659 326.25 298.643 326.25C298.571 325.722 298.283 324.906 298.019 324.402C299.579 324.45 301.115 324.45 301.571 324.426C302.003 324.402 302.123 324.282 302.123 323.898V309.546ZM289.259 305.25H294.395V306.858H289.259V305.25ZM293.171 305.25H295.163C295.451 312.162 297.155 317.01 301.859 319.026C301.475 319.41 300.875 320.106 300.587 320.586C295.763 318.186 293.915 313.122 293.555 306.138H293.171V305.25ZM293.363 310.026L295.067 310.314C294.251 315.258 292.187 318.714 288.323 320.706C288.059 320.298 287.483 319.602 287.099 319.314C290.723 317.538 292.739 314.538 293.363 310.026ZM311.771 307.866H317.675V309.57H311.771V307.866ZM321.083 304.194H322.979V326.226H321.083V304.194ZM309.587 313.074L310.787 311.97C312.563 313.434 314.819 315.522 315.875 316.89L314.579 318.162C313.571 316.77 311.387 314.586 309.587 313.074ZM311.987 304.17L313.763 304.506C312.779 309.042 311.099 313.242 308.891 315.978C308.579 315.666 307.787 315.114 307.379 314.85C309.587 312.354 311.123 308.37 311.987 304.17ZM317.075 307.866H317.435L317.771 307.794L319.043 308.154C317.771 317.658 314.051 323.346 308.939 326.178C308.627 325.722 307.907 325.002 307.427 324.69C312.491 322.098 315.995 316.938 317.075 308.298V307.866ZM322.259 312.522L323.627 311.466C325.667 313.074 328.331 315.378 329.603 316.89L328.139 318.138C326.915 316.602 324.323 314.202 322.259 312.522ZM333.299 305.202H351.515V306.57H333.299V305.202ZM341.459 305.658H343.235V315.066H341.459V305.658ZM332.243 308.346H352.643V313.53H350.843V309.762H333.971V313.53H332.243V308.346ZM334.403 313.89C335.915 313.722 337.979 313.41 340.139 313.074L340.187 314.226C338.315 314.61 336.491 314.994 334.931 315.282L334.403 313.89ZM335.003 311.154L335.531 310.194C337.091 310.458 339.107 310.986 340.187 311.466L339.659 312.546C338.603 312.09 336.587 311.466 335.003 311.154ZM349.091 310.074L349.907 311.106C348.515 311.706 346.571 312.162 345.179 312.474L344.531 311.538C345.899 311.226 347.939 310.506 349.091 310.074ZM344.219 314.058L344.651 312.954C346.523 313.146 348.947 313.674 350.267 314.13L349.883 315.354C348.563 314.898 346.115 314.322 344.219 314.058ZM331.979 315.786H352.955V317.25H331.979V315.786ZM339.107 319.914H340.787V326.082H339.107V319.914ZM344.435 319.914H346.091V326.082H344.435V319.914ZM333.851 318.978H350.315V320.466H335.555V326.226H333.851V318.978ZM349.859 318.978H351.587V324.474C351.587 325.29 351.467 325.722 350.843 325.986C350.243 326.274 349.355 326.25 348.035 326.25C347.963 325.818 347.699 325.194 347.483 324.762C348.443 324.786 349.259 324.786 349.523 324.762C349.787 324.738 349.859 324.666 349.859 324.45V318.978ZM341.507 316.338L343.475 316.41C343.043 317.706 342.539 319.026 342.131 319.914L340.547 319.746C340.907 318.762 341.339 317.322 341.507 316.338Z" fill="black"/>
<path d="M224.569 504.045C216.005 504.045 207.453 504.045 198.889 504.045C198.889 501.645 198.889 499.258 198.889 496.859C198.889 493.842 198.889 493.723 201.87 493.877C204.555 494.008 206.538 492.547 206.55 489.352C206.586 482.214 206.609 475.087 206.538 467.948C206.514 465.561 205.624 463.423 203.319 462.378C201.941 461.748 200.362 461.606 198.889 461.166C197.285 460.679 195.48 460.857 194.055 459.753C194.173 459.622 194.28 459.456 194.423 459.361C197.357 457.46 198.699 454.669 198.794 451.272C198.889 447.709 197.285 444.953 194.399 442.91C194.292 442.827 194.197 442.756 194.09 442.673C194.138 442.589 194.138 442.506 194.09 442.435C194.257 440.321 194.304 438.207 194.09 436.104C193.817 433.361 196.157 430.427 199.079 430.213C199.994 430.142 200.872 429.773 201.704 429.536C203.391 429.049 205.232 429.18 206.788 428.241C210.042 429.667 213.297 429.916 216.551 428.241C216.753 428.336 216.955 428.455 217.157 428.514C219.996 429.18 222.858 429.69 225.638 430.605C227.194 431.116 228.191 432.196 228.714 433.729C229.723 436.651 229.165 439.668 229.26 442.649C228.417 443.385 227.372 443.896 226.742 444.906C225.127 447.519 224.129 450.025 224.961 453.351C225.673 456.225 227.205 458.09 229.332 459.777C229.153 460.121 228.892 460.287 228.488 460.37C226.231 460.81 223.987 461.309 221.73 461.76C219.152 462.283 217.002 464.361 216.991 467.271C216.991 468.376 216.967 469.481 216.967 470.585C216.967 476.94 216.955 483.306 216.967 489.661C216.967 492.535 218.321 493.83 221.172 493.842C221.955 493.842 222.739 493.901 223.523 493.83C224.414 493.735 224.592 494.103 224.58 494.923C224.533 497.963 224.557 501.004 224.557 504.045H224.569Z" fill="#F8C700"/>
<path d="M261.985 428.253C263.719 429.049 265.619 429.215 267.448 429.655C269.563 430.165 271.879 430.201 273.328 432.244C274.005 433.194 274.539 434.168 274.694 435.391C274.979 437.731 274.765 440.071 274.943 442.411L274.92 442.399C274.848 442.506 274.765 442.601 274.694 442.708C274.563 442.839 274.468 443.005 274.314 443.1C270.75 445.499 269.064 450.345 270.537 454.301C271.392 456.593 272.782 458.517 274.908 459.836C272.603 460.988 270.038 461.154 267.579 461.712C265.002 462.294 262.519 464.48 262.507 466.879C262.46 474.707 262.484 482.522 262.507 490.35C262.507 491.977 263.956 493.984 266.082 493.865C267.092 493.806 268.114 493.913 269.123 493.842C270.002 493.782 270.204 494.115 270.192 494.946C270.145 497.987 270.168 501.016 270.168 504.056C261.605 504.056 253.053 504.056 244.489 504.056C244.489 501.8 244.477 499.543 244.489 497.298C244.489 496.205 244.144 494.78 244.703 494.103C245.296 493.367 246.769 493.889 247.862 493.877C250.582 493.818 252.079 492.44 252.091 489.768C252.114 482.451 252.091 475.134 252.114 467.818C252.114 465.442 250.321 462.508 247.696 461.998C246.152 461.701 244.596 461.38 243.099 460.905C241.983 460.548 240.64 460.833 239.738 459.812C240.023 459.515 240.26 459.147 240.605 458.933C244.774 456.379 245.356 449.11 242.672 445.571C241.745 444.347 240.486 443.54 239.488 442.435C239.845 442.007 239.785 441.508 239.785 441.01C239.785 439.18 239.773 437.339 239.809 435.51C239.833 434.037 240.462 432.85 241.472 431.769C242.85 430.284 244.762 430.26 246.484 429.714C248.397 429.108 250.475 429.156 252.328 428.3C253.148 428.277 253.718 428.93 254.478 429.108C257.103 429.726 259.621 429.571 262.02 428.289L261.985 428.253Z" fill="#F8C700"/>
<path d="M270.168 504.033C270.168 500.992 270.144 497.963 270.192 494.923C270.204 494.091 270.002 493.759 269.123 493.818C268.113 493.889 267.092 493.782 266.082 493.842C263.956 493.96 262.507 491.941 262.507 490.326C262.507 482.498 262.471 474.683 262.507 466.855C262.519 464.468 265.001 462.271 267.579 461.689C270.038 461.142 272.603 460.964 274.907 459.812C275.169 459.883 275.442 459.919 275.679 460.038C277.806 461.107 279.991 461.499 282.343 460.881C283.186 460.655 283.911 460.109 284.813 460.073C287.462 460.632 290.111 461.142 292.748 461.748C295.86 462.461 297.629 464.718 297.629 467.889C297.629 474.98 297.629 482.071 297.629 489.162C297.629 492.511 296.299 493.83 292.962 493.83C290.926 493.83 289.909 494.831 289.909 496.835C289.909 498.866 289.873 500.885 289.921 502.916C289.945 503.831 289.636 504.116 288.733 504.092C286.429 504.033 284.124 504.056 281.82 504.056C281.82 500.659 281.856 497.262 281.844 493.865C281.844 492.642 281.131 491.917 280.039 491.917C278.946 491.917 278.233 492.642 278.221 493.865C278.221 497.262 278.233 500.659 278.245 504.056C275.537 504.056 272.829 504.056 270.133 504.045L270.168 504.033Z" fill="#5888B7"/>
<path d="M194.056 459.752C195.481 460.857 197.286 460.678 198.89 461.165C200.351 461.605 201.943 461.747 203.32 462.377C205.625 463.422 206.515 465.572 206.539 467.948C206.61 475.086 206.587 482.213 206.551 489.351C206.539 492.534 204.556 494.007 201.871 493.877C198.89 493.722 198.89 493.841 198.89 496.858C198.89 499.257 198.89 501.645 198.89 504.044C196.182 504.044 193.474 504.044 190.766 504.056C190.766 500.611 190.813 497.155 190.777 493.71C190.766 492.19 189.21 491.418 187.927 492.238C187.155 492.736 186.905 493.473 186.917 494.364C186.941 497.582 186.929 500.801 186.941 504.02C184.684 504.044 182.427 504.02 180.171 504.091C179.268 504.115 179.102 503.711 179.114 502.927C179.149 500.35 179.066 497.761 179.149 495.183C179.185 494.055 178.793 493.71 177.736 493.817C176.964 493.889 176.168 493.841 175.384 493.829C172.985 493.805 171.417 492.273 171.417 489.898C171.417 482.522 171.393 475.145 171.417 467.769C171.417 465.192 172.533 463.078 174.992 462.211C177.973 461.165 181.109 460.643 184.221 460.073C184.482 460.132 184.767 460.132 185.005 460.251C187.167 461.249 189.34 461.462 191.645 460.714C192.476 460.441 193.201 459.954 194.044 459.752H194.056Z" fill="#5888B7"/>
<path d="M239.716 459.776C240.618 460.797 241.961 460.512 243.077 460.868C244.574 461.344 246.13 461.664 247.674 461.961C250.299 462.472 252.104 465.406 252.092 467.781C252.069 475.098 252.092 482.415 252.069 489.731C252.069 492.404 250.56 493.793 247.84 493.841C246.747 493.865 245.274 493.342 244.681 494.067C244.134 494.744 244.479 496.169 244.467 497.262C244.455 499.519 244.467 501.775 244.467 504.02C241.782 504.02 239.11 504.02 236.426 504.02C236.426 500.718 236.461 497.416 236.426 494.114C236.426 492.784 235.57 491.881 234.478 491.893C233.385 491.893 232.565 492.82 232.565 494.114C232.565 497.416 232.565 500.718 232.577 504.02C229.893 504.02 227.22 504.02 224.536 504.02C224.536 500.98 224.512 497.939 224.56 494.898C224.572 494.079 224.393 493.71 223.503 493.805C222.731 493.889 221.935 493.829 221.151 493.817C218.3 493.805 216.958 492.499 216.946 489.636C216.922 483.282 216.946 476.915 216.946 470.561C216.946 469.456 216.958 468.351 216.97 467.247C216.982 464.337 219.132 462.258 221.709 461.736C223.966 461.272 226.211 460.785 228.467 460.346C228.871 460.263 229.133 460.096 229.311 459.752C231.603 460.69 233.884 461.676 236.437 460.88C237.518 460.536 238.587 460.132 239.668 459.764L239.716 459.776Z" fill="#5888B7"/>
<path d="M252.29 428.265C250.437 429.132 248.358 429.073 246.446 429.679C244.724 430.225 242.811 430.249 241.434 431.733C240.424 432.826 239.806 434.002 239.771 435.475C239.735 437.304 239.747 439.145 239.747 440.974C239.747 441.473 239.806 441.984 239.45 442.4C236.017 440.974 232.608 440.689 229.259 442.625C229.164 439.644 229.722 436.627 228.713 433.705C228.19 432.185 227.192 431.092 225.636 430.581C222.857 429.667 219.994 429.156 217.156 428.491C216.942 428.443 216.752 428.313 216.55 428.218C216.645 428.135 216.728 428.028 216.835 427.956C220.707 425.379 222.204 421.626 221.289 417.064C220.755 414.392 218.985 412.646 217.013 411.019C217.013 408.762 217.025 406.505 217.049 404.248C217.072 401.315 218.593 399.272 221.479 398.523C224.14 397.834 226.848 397.3 229.544 396.706C230.269 396.659 230.886 397.003 231.516 397.252C233.487 398.048 235.447 397.965 237.419 397.276C238.025 397.062 238.642 396.896 239.248 396.706C242.063 397.324 244.902 397.858 247.693 398.583C250.389 399.284 251.981 401.481 252.017 404.26C252.04 406.517 252.04 408.762 252.052 411.019C251.755 411.221 251.458 411.434 251.15 411.636C248.667 413.287 246.66 418.157 247.456 421.293C248.216 424.31 249.914 426.472 252.302 428.253L252.29 428.265Z" fill="#5888B7"/>
<path d="M284.823 460.086C283.92 460.109 283.196 460.668 282.353 460.893C280.001 461.511 277.815 461.119 275.689 460.05C275.452 459.931 275.178 459.895 274.917 459.824C272.791 458.506 271.401 456.582 270.546 454.289C269.073 450.334 270.76 445.488 274.323 443.089C274.466 442.993 274.573 442.827 274.703 442.697C274.858 442.649 274.953 442.566 274.929 442.388L274.953 442.4C277.673 441.283 280.44 440.856 283.291 441.829C286.605 442.97 288.826 445.262 289.598 448.671C290.608 453.137 289.301 456.855 285.393 459.492C285.179 459.646 285.013 459.884 284.823 460.074V460.086Z" fill="#1E4C7A"/>
<path d="M194.054 459.752C193.211 459.966 192.486 460.453 191.655 460.715C189.351 461.463 187.165 461.249 185.015 460.251C184.778 460.144 184.493 460.133 184.231 460.073C182.616 458.755 181.072 457.424 180.027 455.5C177.188 450.298 180.371 444.003 184.992 442.09C187.985 440.855 190.907 440.974 193.781 442.447C193.888 442.506 193.983 442.577 194.09 442.637C194.114 442.827 194.209 442.91 194.399 442.874C197.273 444.917 198.889 447.673 198.794 451.236C198.699 454.633 197.344 457.424 194.423 459.325C194.28 459.42 194.173 459.586 194.054 459.717V459.752Z" fill="#1E4C7A"/>
<path d="M217.002 411.042C218.974 412.681 220.744 414.415 221.278 417.088C222.193 421.649 220.696 425.402 216.824 427.98C216.717 428.051 216.634 428.146 216.539 428.241C213.284 429.916 210.03 429.666 206.775 428.241C204.649 426.768 202.832 424.998 202.167 422.433C201.05 418.121 202.191 413.465 206.894 410.828C210.244 408.964 213.653 409.391 216.99 411.042H217.002Z" fill="#FAAA00"/>
<path d="M239.25 396.729C238.644 396.919 238.026 397.086 237.421 397.3C235.449 397.988 233.489 398.072 231.517 397.276C230.888 397.026 230.27 396.682 229.546 396.729C228.37 395.423 226.897 394.449 225.982 392.834C224.391 390.03 224.011 387.156 225.199 384.246C226.553 380.908 229.13 378.735 232.729 378.129C238.371 377.191 244.143 381.134 244.286 387.31C244.393 391.563 242.492 394.425 239.25 396.729Z" fill="#1E4C7A"/>
<path d="M252.291 428.265C249.904 426.483 248.217 424.321 247.445 421.304C246.65 418.169 248.657 413.299 251.139 411.648C251.436 411.446 251.733 411.232 252.042 411.03C257.708 407.657 266.022 410.721 266.96 418.097C267.554 422.718 265.499 425.782 261.984 428.253C259.572 429.524 257.054 429.69 254.441 429.072C253.681 428.894 253.111 428.253 252.291 428.265Z" fill="#FAAA00"/>
<path d="M186.94 504.021C186.94 500.802 186.94 497.583 186.916 494.364C186.916 493.474 187.154 492.725 187.926 492.238C189.208 491.419 190.764 492.203 190.776 493.711C190.8 497.156 190.776 500.6 190.764 504.057C189.493 504.057 188.211 504.033 186.94 504.021Z" fill="#1E4C7A"/>
<path d="M232.611 504.045C232.611 500.743 232.587 497.441 232.599 494.139C232.599 492.844 233.419 491.929 234.511 491.917C235.604 491.917 236.447 492.808 236.459 494.139C236.483 497.441 236.459 500.743 236.459 504.045C235.176 504.045 233.906 504.045 232.623 504.045H232.611Z" fill="#1E4C7A"/>
<path d="M278.28 504.057C278.28 500.659 278.244 497.262 278.256 493.865C278.256 492.642 278.969 491.917 280.074 491.917C281.166 491.917 281.879 492.642 281.879 493.865C281.879 497.262 281.867 500.659 281.855 504.057C280.668 504.057 279.48 504.057 278.28 504.057Z" fill="#1E4C7A"/>
<path d="M194.089 442.661C193.982 442.602 193.887 442.531 193.78 442.471C193.887 442.459 193.982 442.447 194.089 442.436C194.137 442.507 194.137 442.59 194.089 442.661Z" fill="#C3B273"/>
<path d="M229.27 442.637C232.632 440.701 236.029 440.986 239.461 442.411C240.459 443.516 241.706 444.323 242.645 445.547C245.329 449.086 244.747 456.355 240.578 458.909C240.233 459.111 239.996 459.491 239.711 459.788C238.63 460.168 237.573 460.572 236.48 460.905C233.926 461.712 231.634 460.715 229.353 459.776C227.227 458.09 225.695 456.225 224.97 453.35C224.139 450.025 225.137 447.507 226.752 444.905C227.382 443.896 228.415 443.385 229.27 442.649V442.637Z" fill="#1E4C7A"/>
<path d="M194.409 442.91C194.219 442.946 194.124 442.862 194.101 442.672C194.207 442.756 194.303 442.827 194.409 442.91Z" fill="#C3B273"/>
<path d="M274.92 442.388C274.944 442.566 274.849 442.649 274.694 442.697C274.766 442.59 274.849 442.495 274.92 442.388Z" fill="#C3B273"/>
<path d="M144.339 115.759H149.134C148.924 123.004 148.714 139.909 134.084 148.519C133.314 147.399 131.949 146.069 130.584 145.124C144.829 137.459 144.164 121.744 144.339 115.759ZM148.749 120.029C149.029 122.864 150.149 138.614 163.799 144.704C162.539 145.684 161.349 147.119 160.719 148.309C146.369 141.484 145.214 123.984 144.689 120.484L148.749 120.029ZM173.004 124.404L175.839 122.059C177.939 123.074 180.739 124.684 182.104 125.909L179.129 128.499C177.869 127.274 175.139 125.524 173.004 124.404ZM188.789 118.349H189.594L190.259 118.174L192.989 119.749C188.439 128.184 178.534 132.734 168.349 134.799C167.999 133.749 167.159 132.104 166.424 131.194C175.874 129.689 185.324 125.489 188.789 118.944V118.349ZM177.729 118.349H189.734V121.779H177.729V118.349ZM179.654 115.619L184.239 116.599C180.669 120.659 176.049 123.949 169.504 126.539C168.909 125.559 167.614 124.124 166.704 123.459C172.934 121.429 177.274 118.489 179.654 115.619ZM177.764 137.669L180.809 135.324C182.944 136.479 185.744 138.264 187.144 139.629L183.889 142.219C182.664 140.889 179.934 138.929 177.764 137.669ZM193.199 131.124H194.039L194.774 130.949L197.574 132.384C193.304 142.814 183.189 146.944 171.149 148.624C170.834 147.469 170.064 145.754 169.364 144.809C180.459 143.654 189.944 139.979 193.199 131.719V131.124ZM182.909 131.124H194.319V134.624H182.909V131.124ZM185.359 127.729L189.944 128.779C186.024 133.364 180.634 137.074 172.899 139.874C172.409 138.894 171.219 137.354 170.344 136.619C177.659 134.414 182.664 131.054 185.359 127.729ZM214.129 139.839L213.009 137.004C215.949 136.094 217.559 134.379 217.559 132.349L217.314 128.919L219.239 132.069C218.679 132.594 217.944 132.839 217.174 132.839C215.424 132.839 213.814 131.684 213.814 129.689C213.814 127.729 215.389 126.539 217.279 126.539C219.729 126.539 221.059 128.429 221.059 131.369C221.059 135.324 218.469 138.544 214.129 139.839ZM251.124 117.859H264.669V121.674H251.124V117.859ZM249.724 130.144H268.519V134.134H249.724V130.144ZM257.144 126.819H261.484V144.074C261.484 146.209 261.029 147.294 259.594 147.924C258.124 148.519 256.164 148.624 253.399 148.624C253.189 147.434 252.559 145.719 251.999 144.599C253.749 144.669 255.814 144.669 256.374 144.669C256.934 144.669 257.144 144.494 257.144 144.004V126.819ZM263.059 117.859H264.179L265.159 117.649L267.994 119.679C265.859 122.934 262.744 126.819 259.489 129.164C258.964 128.464 257.809 127.379 257.144 126.819C259.524 124.754 261.974 121.079 263.059 118.769V117.859ZM236.249 134.799L238.769 131.894C242.619 135.149 248.289 139.909 250.879 142.919L248.114 146.419C245.629 143.269 240.169 138.334 236.249 134.799ZM236.249 134.799C237.579 129.969 238.944 122.024 239.329 115.794L243.494 116.004C242.899 122.619 241.429 130.774 240.064 136.094L236.249 134.799ZM245.139 120.694H249.059V124.649C249.059 131.369 248.114 141.694 238.524 148.694C237.929 147.784 236.494 146.384 235.584 145.719C244.369 139.594 245.139 130.459 245.139 124.579V120.694ZM235.549 123.319C239.539 123.179 245.384 122.899 250.914 122.584L250.879 126.329C245.629 126.714 240.029 127.064 235.934 127.309L235.549 123.319ZM281.994 123.424H289.169V127.029H281.994V123.424ZM288.014 123.424H291.374C291.374 123.424 291.339 124.614 291.339 125.069C291.129 139.909 290.989 144.984 290.149 146.384C289.554 147.399 288.959 147.749 288.049 147.924C287.279 148.099 286.229 148.099 285.074 148.064C285.039 147.084 284.689 145.614 284.199 144.669C285.074 144.739 285.774 144.739 286.264 144.739C286.649 144.739 286.894 144.634 287.139 144.144C287.699 143.164 287.874 138.509 288.014 124.264V123.424ZM283.604 115.724H286.824C286.789 129.899 286.439 141.064 281.784 148.624C281.294 148.064 279.824 146.769 279.089 146.244C283.499 139.734 283.709 128.674 283.604 115.724ZM270.969 120.099H281.189V123.459H270.969V120.099ZM270.759 129.724H281.224V133.119H270.759V129.724ZM271.564 124.334L274.259 123.599C274.889 125.314 275.274 127.624 275.274 129.094L272.404 129.899C272.439 128.429 272.124 126.119 271.564 124.334ZM277.374 123.459L280.524 124.089C279.859 126.434 279.124 129.059 278.529 130.809L275.974 130.179C276.499 128.359 277.129 125.454 277.374 123.459ZM274.049 130.774H277.794V137.529C277.794 141.344 276.849 145.894 273.244 148.659C272.754 147.889 271.634 146.629 270.794 146.034C273.734 144.039 274.049 140.294 274.049 137.494V130.774ZM271.179 136.059H280.594V139.454H271.179V136.059ZM273.104 117.124L276.569 116.144C277.374 117.614 278.249 119.644 278.564 120.939L274.924 122.094C274.609 120.799 273.839 118.664 273.104 117.124ZM296.239 131.054H299.984V148.519H296.239V131.054ZM292.774 120.064H303.064V123.459H292.774V120.064ZM292.634 129.759H303.519V133.119H292.634V129.759ZM293.299 136.654H303.064V140.049H293.299V136.654ZM293.509 124.229L296.239 123.494C296.834 125.244 297.254 127.554 297.289 129.059L294.419 129.864C294.454 128.359 294.104 126.014 293.509 124.229ZM299.494 123.424L302.644 124.054C302.049 126.399 301.454 129.059 300.929 130.809L298.234 130.144C298.724 128.359 299.284 125.419 299.494 123.424ZM294.699 116.914L298.129 115.864C298.969 117.509 299.984 119.714 300.334 121.114L296.729 122.304C296.414 120.904 295.539 118.629 294.699 116.914ZM319.829 115.724H324.099V144.599C324.099 146.664 323.574 147.504 322.244 148.099C320.879 148.624 318.989 148.694 316.014 148.694C315.804 147.714 315.139 146.244 314.614 145.404C316.294 145.474 318.359 145.439 318.954 145.439C319.619 145.404 319.829 145.194 319.829 144.599V115.724ZM306.704 117.999H337.504V121.324H306.704V117.999ZM314.299 125.384V127.064H329.769V125.384H314.299ZM310.309 122.724H334.074V129.724H310.309V122.724ZM309.434 131.264H334.669V144.949H330.399V134.134H309.434V131.264ZM305.899 135.604H338.309V138.789H305.899V135.604ZM309.154 140.434H332.674V143.479H309.154V140.434Z" fill="black"/>
<defs>
<filter id="filter0_d_1114_1009" x="30.4199" y="110.538" width="410.749" height="462.462" filterUnits="userSpaceOnUse" color-interpolation-filters="sRGB">
<feFlood flood-opacity="0" result="BackgroundImageFix"/>
<feColorMatrix in="SourceAlpha" type="matrix" values="0 0 0 0 0 0 0 0 0 0 0 0 0 0 0 0 0 0 127 0" result="hardAlpha"/>
<feOffset dx="1" dy="2"/>
<feGaussianBlur stdDeviation="15"/>
<feComposite in2="hardAlpha" operator="out"/>
<feColorMatrix type="matrix" values="0 0 0 0 0 0 0 0 0 0 0 0 0 0 0 0 0 0 0.25 0"/>
<feBlend mode="normal" in2="BackgroundImageFix" result="effect1_dropShadow_1114_1009"/>
<feBlend mode="normal" in="SourceGraphic" in2="effect1_dropShadow_1114_1009" result="shape"/>
</filter>
<filter id="filter1_d_1114_1009" x="0" y="0" width="469.442" height="259.319" filterUnits="userSpaceOnUse" color-interpolation-filters="sRGB">
<feFlood flood-opacity="0" result="BackgroundImageFix"/>
<feColorMatrix in="SourceAlpha" type="matrix" values="0 0 0 0 0 0 0 0 0 0 0 0 0 0 0 0 0 0 127 0" result="hardAlpha"/>
<feOffset dy="4"/>
<feGaussianBlur stdDeviation="10"/>
<feComposite in2="hardAlpha" operator="out"/>
<feColorMatrix type="matrix" values="0 0 0 0 0 0 0 0 0 0 0 0 0 0 0 0 0 0 0.25 0"/>
<feBlend mode="normal" in2="BackgroundImageFix" result="effect1_dropShadow_1114_1009"/>
<feBlend mode="normal" in="SourceGraphic" in2="effect1_dropShadow_1114_1009" result="shape"/>
</filter>
<linearGradient id="paint0_linear_1114_1009" x1="96.2695" y1="16" x2="383.805" y2="315.499" gradientUnits="userSpaceOnUse">
<stop stop-color="#FFDF7E"/>
<stop offset="0.572917" stop-color="#FFC000"/>
<stop offset="1" stop-color="#C59400"/>
</linearGradient>
<linearGradient id="paint1_linear_1114_1009" x1="41.3877" y1="167.759" x2="401.735" y2="580.977" gradientUnits="userSpaceOnUse">
<stop stop-color="#FFD040"/>
<stop offset="0.520833" stop-color="#FFC000"/>
<stop offset="1" stop-color="#D7A100"/>
</linearGradient>
</defs>
</svg>
