<svg width="210" height="341" viewBox="0 0 210 341" fill="none" xmlns="http://www.w3.org/2000/svg">
<g filter="url(#filter0_d_1114_1018)">
<rect x="32" y="67.0122" width="146.035" height="241.058" fill="white"/>
</g>
<g filter="url(#filter1_d_1114_1018)">
<path d="M179.533 64.4116V16H30.467V64.4116H20L105 107.927L190 64.4116H179.533Z" fill="url(#paint0_linear_1114_1018)"/>
</g>
<path d="M31.4512 312.071V81.9688L35.2149 83.7899V308.296H174.703V83.856L178.467 82.0348V312.071H31.4512Z" fill="url(#paint1_linear_1114_1018)"/>
<path d="M59.9816 65.862C61.4936 65.538 63.6896 64.998 65.7956 64.476L66.0656 66.456C64.1756 66.978 62.1416 67.518 60.5396 67.932L59.9816 65.862ZM60.1976 60.138H66.3716V62.154H60.1976V60.138ZM62.3576 56.718H64.4636V71.208C64.4636 72.234 64.2836 72.774 63.6716 73.098C63.0596 73.422 62.1956 73.476 60.9176 73.476C60.8456 72.936 60.5756 72.054 60.3236 71.514C61.0256 71.55 61.7816 71.532 62.0156 71.532C62.2676 71.532 62.3576 71.442 62.3576 71.19V56.718ZM68.2796 57.294H73.1756V59.292H68.2796V57.294ZM66.2996 64.53H74.4716V66.546H66.2996V64.53ZM73.7516 64.53H74.1476L74.5256 64.458L75.9296 65.034C74.4356 70.092 70.7996 72.486 66.0296 73.62C65.8496 73.044 65.3816 72.126 64.9856 71.658C69.2696 70.884 72.6176 68.724 73.7516 64.854V64.53ZM68.5496 66.132C69.9716 68.958 72.9416 70.902 76.9916 71.658C76.5236 72.126 75.9296 73.062 75.6416 73.656C71.3576 72.648 68.4596 70.344 66.6596 66.798L68.5496 66.132ZM67.8476 57.294H69.8636V59.31C69.8636 61.092 69.3236 63.126 66.8756 64.314C66.6236 63.9 65.8496 63.054 65.4536 62.73C67.5956 61.776 67.8476 60.462 67.8476 59.238V57.294ZM72.1856 57.294H74.2196V61.236C74.2196 61.758 74.2736 61.974 74.5436 61.974C74.7416 61.974 75.2996 61.974 75.5156 61.974C75.8036 61.974 76.2716 61.92 76.5236 61.848C76.5596 62.388 76.5956 63.144 76.6856 63.63C76.3976 63.756 75.9656 63.774 75.5516 63.774C75.2816 63.774 74.6156 63.774 74.3456 63.774C72.5456 63.774 72.1856 63.018 72.1856 61.2V57.294ZM82.6796 66.51V67.284H90.5096V66.51H82.6796ZM82.6796 68.508V69.3H90.5096V68.508H82.6796ZM82.6796 64.53V65.286H90.5096V64.53H82.6796ZM80.5916 63.234H92.6876V70.578H80.5916V63.234ZM87.9356 71.46L89.3576 70.326C91.2116 70.974 93.3176 71.838 94.5416 72.45L92.6156 73.602C91.5716 73.008 89.7176 72.126 87.9356 71.46ZM83.5256 70.398L85.5056 71.298C84.0296 72.252 81.6896 73.152 79.8536 73.656C79.4756 73.242 78.7376 72.45 78.2516 72.072C80.1596 71.73 82.3016 71.1 83.5256 70.398ZM85.6136 57.816H92.9036V59.382H85.6136V57.816ZM85.7576 56.61L87.6476 57.042C87.1436 58.536 86.2256 60.012 85.2536 60.912C84.8936 60.606 84.1016 60.084 83.6516 59.832C84.6056 59.04 85.3616 57.834 85.7576 56.61ZM87.5936 59.022H89.5556V59.742C89.5556 61.056 88.8356 62.64 83.7416 63.216C83.5436 62.73 83.0036 61.992 82.6256 61.596C87.0536 61.254 87.5936 60.372 87.5936 59.652V59.022ZM89.3756 59.742C90.3116 60.822 92.2916 61.344 94.8836 61.47C94.4696 61.884 93.9476 62.658 93.7136 63.198C90.9056 62.856 88.9436 61.866 87.8636 60.048L89.3756 59.742ZM78.6296 57.6H83.2556V59.184H78.6296V57.6ZM78.2336 60.39H83.6876V62.028H78.2336V60.39ZM92.1476 57.816H92.4716L92.7776 57.726L94.2536 58.176C93.8036 59.184 93.1736 60.318 92.5976 61.038L90.9416 60.408C91.3556 59.796 91.8596 58.842 92.1476 58.068V57.816ZM96.5036 59.49H103.11V61.38H96.5036V59.49ZM96.1976 63.666H103.398V65.61H96.1976V63.666ZM98.8256 56.898H100.86V63.396C100.86 66.762 100.446 70.92 97.4216 73.404C97.1336 72.954 96.4496 72.216 95.9636 71.838C98.6456 69.876 98.8256 66.132 98.8256 63.396V56.898ZM100.572 65.916C101.184 66.474 103.2 68.796 103.65 69.336L102.192 70.902C101.526 69.804 100.014 67.824 99.2396 66.924L100.572 65.916ZM105.954 62.028V63.072H109.896V62.028H105.954ZM105.954 64.782V65.844H109.896V64.782H105.954ZM105.954 59.256V60.3H109.896V59.256H105.954ZM103.956 57.348H111.966V67.752H103.956V57.348ZM108.042 67.086H110.058V70.848C110.058 71.352 110.076 71.406 110.346 71.406C110.454 71.406 110.85 71.406 110.976 71.406C111.264 71.406 111.318 71.154 111.372 69.246C111.75 69.57 112.614 69.894 113.136 70.038C112.956 72.612 112.47 73.26 111.192 73.26C110.886 73.26 110.292 73.26 109.986 73.26C108.384 73.26 108.042 72.648 108.042 70.884V67.086ZM105.126 67.446H107.16C106.872 70.254 106.134 72.396 102.822 73.638C102.606 73.152 102.066 72.396 101.652 72.018C104.442 71.1 104.91 69.516 105.126 67.446ZM119.886 68.076H130.65V69.84H119.886V68.076ZM122.82 64.746V65.52H127.77V64.746H122.82ZM122.82 62.568V63.324H127.77V62.568H122.82ZM120.822 61.056H129.858V67.032H120.822V61.056ZM124.296 66.816H126.42C126.096 70.272 125.232 72.504 120.426 73.638C120.228 73.116 119.706 72.324 119.31 71.892C123.522 71.064 124.044 69.462 124.296 66.816ZM120.102 57.996H125.088V59.724H120.102V57.996ZM121.884 56.718H123.81V60.714H121.884V56.718ZM126.762 56.718H128.67V60.714H126.762V56.718ZM125.484 57.978H130.794V59.724H125.484V57.978ZM125.25 71.028L126.546 69.696C127.95 70.344 130.056 71.388 131.154 72.036L129.768 73.548C128.778 72.882 126.708 71.766 125.25 71.028ZM114.342 60.084H120.21V62.064H114.342V60.084ZM116.412 56.718H118.374V73.62H116.412V56.718ZM116.43 61.56L117.546 62.064C117.06 64.836 116.07 68.328 114.918 70.218C114.72 69.57 114.252 68.58 113.91 68.004C114.99 66.51 115.998 63.666 116.43 61.56ZM118.284 62.262C118.698 62.838 120.228 65.358 120.552 65.952L119.274 67.428C118.86 66.258 117.834 64.026 117.312 63.036L118.284 62.262ZM132.522 61.56H148.542V63.792H132.522V61.56ZM141.756 62.46C142.836 66.582 145.122 70.002 148.938 71.514C148.398 72 147.678 72.936 147.318 73.566C143.196 71.64 140.946 67.914 139.578 62.964L141.756 62.46ZM139.272 56.718H141.648C141.558 62.208 141.522 69.84 133.8 73.566C133.458 72.972 132.792 72.198 132.162 71.73C139.542 68.436 139.218 61.596 139.272 56.718Z" fill="black"/>
<path d="M51.6152 141.44C53.0912 141.062 55.2332 140.468 57.3212 139.874L57.5012 141.098C55.5932 141.692 53.5772 142.286 52.0112 142.736L51.6152 141.44ZM51.8312 135.536H57.8612V136.814H51.8312V135.536ZM54.2972 131.918H55.6112V146.75C55.6112 147.506 55.4492 147.884 54.9632 148.082C54.4952 148.298 53.7392 148.334 52.4972 148.334C52.4432 147.992 52.2632 147.434 52.1012 147.074C52.9472 147.11 53.7212 147.092 53.9552 147.092C54.2072 147.092 54.2972 147.002 54.2972 146.75V131.918ZM59.8772 132.566H64.5932V133.826H59.8772V132.566ZM57.7892 139.856H66.0872V141.134H57.7892V139.856ZM65.6192 139.856H65.8712L66.1232 139.802L67.0052 140.198C65.4032 144.932 61.4252 147.416 57.0332 148.496C56.9072 148.136 56.6012 147.56 56.3492 147.272C60.4532 146.408 64.2692 144.086 65.6192 140.072V139.856ZM59.4452 140.792C60.9032 144.068 64.0352 146.39 68.2652 147.254C67.9592 147.542 67.5992 148.118 67.4012 148.496C63.0632 147.47 59.9492 144.932 58.2752 141.206L59.4452 140.792ZM59.5352 132.566H60.8132V134.582C60.8132 136.202 60.3092 138.146 58.0772 139.406C57.9152 139.154 57.4472 138.632 57.1952 138.416C59.2112 137.318 59.5352 135.824 59.5352 134.546V132.566ZM63.9632 132.566H65.2412V136.724C65.2412 137.246 65.2952 137.426 65.5832 137.426C65.8352 137.426 66.7352 137.426 66.9872 137.426C67.2392 137.426 67.6532 137.39 67.8872 137.336C67.9052 137.678 67.9412 138.182 67.9952 138.488C67.7612 138.578 67.3832 138.596 67.0052 138.596C66.7172 138.596 65.7272 138.596 65.4932 138.596C64.2332 138.596 63.9632 138.074 63.9632 136.706V132.566ZM73.5752 141.314V142.538H82.6472V141.314H73.5752ZM73.5752 143.42V144.68H82.6472V143.42H73.5752ZM73.5752 139.208V140.432H82.6472V139.208H73.5752ZM72.2612 138.308H83.9972V145.58H72.2612V138.308ZM79.7312 146.426L80.6312 145.67C82.5932 146.264 84.6992 147.056 85.9772 147.632L84.7712 148.406C83.6192 147.83 81.6752 147.056 79.7312 146.426ZM75.2852 145.688L76.5092 146.264C75.0512 147.128 72.7652 147.956 70.9652 148.442C70.7492 148.19 70.2812 147.668 69.9752 147.434C71.8292 147.038 73.9892 146.408 75.2852 145.688ZM77.3552 133.124H84.7712V134.186H77.3552V133.124ZM77.6432 131.864L78.8492 132.134C78.3632 133.61 77.4992 135.068 76.5632 135.986C76.3472 135.788 75.8432 135.464 75.5372 135.302C76.4732 134.438 77.2292 133.16 77.6432 131.864ZM79.7852 133.79H81.0272V134.402C81.0272 135.77 80.4512 137.39 75.3752 138.182C75.2492 137.858 74.8892 137.39 74.6552 137.138C79.3352 136.526 79.7852 135.284 79.7852 134.366V133.79ZM80.8472 134.852C81.7652 136.022 83.8172 136.778 86.3192 136.994C86.0492 137.264 85.7072 137.75 85.5452 138.092C82.9532 137.714 80.8832 136.688 79.8932 135.086L80.8472 134.852ZM70.2812 132.98H74.6192V134.042H70.2812V132.98ZM69.8852 135.788H75.0692V136.886H69.8852V135.788ZM84.3212 133.124H84.5552L84.7532 133.07L85.6712 133.376C85.2212 134.294 84.6452 135.338 84.1412 135.986L83.0792 135.608C83.4932 135.014 83.9972 134.096 84.3212 133.322V133.124ZM88.1732 134.906H94.5812V136.112H88.1732V134.906ZM87.7952 139.064H94.9412V140.306H87.7952V139.064ZM90.7652 132.098H92.0612V138.308C92.0612 141.494 91.7732 145.706 88.6052 148.262C88.4252 147.974 87.9932 147.524 87.6872 147.272C90.6392 145.076 90.7652 141.116 90.7652 138.326V132.098ZM91.7552 141.224C92.3672 141.782 94.5092 144.194 94.9952 144.77L94.0772 145.778C93.4472 144.842 91.6472 142.646 90.9272 141.872L91.7552 141.224ZM96.8672 136.724V138.506H102.015V136.724H96.8672ZM96.8672 139.622V141.422H102.015V139.622H96.8672ZM96.8672 133.826V135.59H102.015V133.826H96.8672ZM95.5892 132.62H103.311V142.646H95.5892V132.62ZM99.9092 142.106H101.187V146.462C101.187 146.894 101.223 146.948 101.619 146.948C101.781 146.948 102.555 146.948 102.771 146.948C103.149 146.948 103.221 146.678 103.275 144.554C103.527 144.788 104.067 144.986 104.409 145.076C104.301 147.542 103.977 148.154 102.897 148.154C102.645 148.154 101.673 148.154 101.421 148.154C100.197 148.154 99.9092 147.758 99.9092 146.48V142.106ZM97.0652 142.358H98.3612C98.0372 145.238 97.1732 147.308 94.0052 148.442C93.8612 148.154 93.5012 147.668 93.2312 147.434C96.1112 146.498 96.8132 144.734 97.0652 142.358ZM111.123 143.33H121.995V144.464H111.123V143.33ZM113.553 139.514V140.81H119.817V139.514H113.553ZM113.553 137.264V138.542H119.817V137.264H113.553ZM112.293 136.256H121.131V141.836H112.293V136.256ZM115.983 141.656H117.315C116.937 145.202 115.911 147.398 111.393 148.478C111.267 148.172 110.925 147.668 110.673 147.398C114.831 146.498 115.659 144.644 115.983 141.656ZM111.483 133.394H116.397V134.528H111.483V133.394ZM113.715 131.918H114.939V135.806H113.715V131.918ZM118.557 131.918H119.763V135.806H118.557V131.918ZM117.009 133.376H122.211V134.51H117.009V133.376ZM116.703 145.436L117.495 144.59C119.079 145.418 121.203 146.642 122.319 147.398L121.473 148.388C120.411 147.614 118.287 146.318 116.703 145.436ZM106.047 135.392H111.645V136.634H106.047V135.392ZM108.351 131.9H109.593V148.442H108.351V131.9ZM108.351 136.202L109.143 136.508C108.621 139.316 107.505 142.88 106.317 144.716C106.173 144.32 105.849 143.726 105.615 143.402C106.731 141.8 107.883 138.65 108.351 136.202ZM109.521 137.246C109.899 137.786 111.339 140.288 111.645 140.864L110.817 141.836C110.439 140.846 109.305 138.56 108.855 137.768L109.521 137.246ZM131.841 132.674H139.149V133.826H131.841V132.674ZM134.433 133.088L135.729 133.16C135.477 136.256 134.361 138.128 132.255 139.334C132.039 139.118 131.517 138.686 131.229 138.506C133.299 137.516 134.253 135.788 134.433 133.088ZM138.465 132.674H139.743C139.743 132.674 139.743 133.034 139.725 133.214C139.581 136.454 139.401 137.714 139.005 138.182C138.735 138.47 138.411 138.596 137.943 138.632C137.547 138.668 136.773 138.65 135.981 138.614C135.945 138.272 135.819 137.768 135.639 137.444C136.395 137.534 137.079 137.534 137.349 137.534C137.601 137.534 137.781 137.516 137.907 137.372C138.159 137.048 138.321 135.932 138.465 132.872V132.674ZM124.317 134.078H131.283V135.266H124.317V134.078ZM123.957 137.498H131.643V138.722H123.957V137.498ZM128.025 141.296H131.481V142.484H128.025V141.296ZM127.197 131.918H128.439V138.146H127.197V131.918ZM127.431 138.272H128.655V146.462H127.431V138.272ZM125.739 142.178C126.711 145.94 128.727 146.714 132.939 146.714C133.821 146.714 139.347 146.714 140.481 146.678C140.247 146.984 140.013 147.614 139.923 148.01H132.975C128.061 148.01 125.919 147.038 124.731 142.502L125.739 142.178ZM124.749 140.018L125.973 140.09C125.901 143.546 125.667 146.498 124.587 148.496C124.371 148.316 123.813 147.992 123.507 147.848C124.551 146.048 124.713 143.204 124.749 140.018ZM133.713 140.756V144.086H137.997V140.756H133.713ZM132.435 139.64H139.347V145.22H132.435V139.64ZM147.213 138.11H156.969V139.19H148.419V145.922H147.213V138.11ZM148.599 132.53H156.015V138.578H154.791V133.592H149.805V138.578H148.599V132.53ZM150.579 140.342H154.647V144.158H150.579V143.204H153.603V141.296H150.579V140.342ZM156.195 138.11H157.455V144.59C157.455 145.202 157.329 145.544 156.879 145.724C156.447 145.922 155.745 145.922 154.665 145.922C154.629 145.598 154.467 145.13 154.305 144.824C155.061 144.842 155.727 144.842 155.925 144.842C156.141 144.824 156.195 144.77 156.195 144.59V138.11ZM149.967 140.342H150.993V144.878H149.967V140.342ZM151.569 135.068H155.385V136.004H152.595V138.686H151.569V135.068ZM142.515 132.494L143.541 131.918C144.315 132.8 145.251 133.97 145.701 134.708L144.621 135.41C144.189 134.654 143.253 133.394 142.515 132.494ZM141.849 136.058H145.737V137.192H141.849V136.058ZM145.053 144.32C146.169 146.678 148.509 147.002 152.109 147.002C154.017 147.002 156.645 146.93 158.499 146.768C158.301 147.056 158.139 147.668 158.067 148.028C156.357 148.136 154.089 148.172 152.109 148.172C147.879 148.172 145.521 147.704 144.153 144.734L145.053 144.32ZM145.053 140.558H145.449L145.683 140.522L146.295 140.774C145.719 144.554 144.333 147.11 142.461 148.496C142.281 148.226 141.831 147.758 141.561 147.56C143.343 146.336 144.603 144.032 145.053 140.792V140.558ZM142.119 141.908V140.882L142.767 140.558H145.611V141.656H143.181C142.713 141.656 142.245 141.764 142.119 141.908ZM142.119 141.908C142.029 141.602 141.759 140.972 141.615 140.684C141.885 140.612 142.173 140.504 142.479 140.144C143.019 139.604 144.729 137.156 145.323 136.202V136.148L145.719 135.968L146.619 136.382C145.773 137.606 144.153 139.91 143.127 141.062C143.127 141.062 142.119 141.566 142.119 141.908ZM54.8367 172.02V171.066C58.9767 167.448 60.8667 164.802 60.8667 162.552C60.8667 161.04 60.0927 159.924 58.4547 159.924C57.3747 159.924 56.4387 160.59 55.7007 161.454L54.7467 160.536C55.8267 159.366 56.9787 158.592 58.6527 158.592C61.0107 158.592 62.4867 160.122 62.4867 162.48C62.4867 165.126 60.4167 167.808 57.3027 170.742C58.0047 170.67 58.7967 170.616 59.4627 170.616H63.1167V172.02H54.8367ZM69.033 172.272C66.513 172.272 64.911 169.986 64.911 165.378C64.911 160.806 66.513 158.592 69.033 158.592C71.517 158.592 73.119 160.806 73.119 165.378C73.119 169.986 71.517 172.272 69.033 172.272ZM69.033 170.94C70.527 170.94 71.535 169.266 71.535 165.378C71.535 161.544 70.527 159.906 69.033 159.906C67.521 159.906 66.495 161.544 66.495 165.378C66.495 169.266 67.521 170.94 69.033 170.94ZM79.0174 172.272C76.4974 172.272 74.8954 169.986 74.8954 165.378C74.8954 160.806 76.4974 158.592 79.0174 158.592C81.5014 158.592 83.1034 160.806 83.1034 165.378C83.1034 169.986 81.5014 172.272 79.0174 172.272ZM79.0174 170.94C80.5114 170.94 81.5194 169.266 81.5194 165.378C81.5194 161.544 80.5114 159.906 79.0174 159.906C77.5054 159.906 76.4794 161.544 76.4794 165.378C76.4794 169.266 77.5054 170.94 79.0174 170.94ZM90.0998 158.682H100.72V159.726H90.0998V158.682ZM89.2718 161.472H101.314V162.588H89.2718V161.472ZM91.8458 160.032L92.9798 159.762C93.2858 160.212 93.5918 160.842 93.6998 161.256L92.5118 161.562C92.4218 161.13 92.1338 160.482 91.8458 160.032ZM97.4078 159.69L98.7398 160.032C98.3258 160.824 97.8578 161.67 97.4798 162.228L96.4178 161.922C96.7598 161.292 97.1918 160.32 97.4078 159.69ZM92.0798 166.422V167.61H98.5238V166.422H92.0798ZM92.0798 164.46V165.594H98.5238V164.46H92.0798ZM90.7838 163.524H99.8738V168.51H90.7838V163.524ZM90.4958 169.482L91.5578 169.95C91.1798 170.868 90.6578 172.164 90.1178 173.01L89.0198 172.416C89.5778 171.66 90.1538 170.382 90.4958 169.482ZM92.1518 169.446H93.3938V171.84C93.3938 172.254 93.5198 172.308 94.2938 172.308C94.6718 172.308 96.5258 172.308 97.0118 172.308C97.5878 172.308 97.6958 172.146 97.7498 170.958C98.0198 171.156 98.5238 171.318 98.8658 171.39C98.7398 173.01 98.3618 173.406 97.1558 173.406C96.7958 173.406 94.5278 173.406 94.1858 173.406C92.5478 173.406 92.1518 173.082 92.1518 171.858V169.446ZM93.5558 169.032L94.4018 168.348C95.3018 168.888 96.4358 169.716 96.9758 170.31L96.1118 171.066C95.5718 170.472 94.4558 169.626 93.5558 169.032ZM98.1278 169.734L99.2078 169.248C99.9998 170.238 100.954 171.57 101.368 172.434L100.252 172.992C99.8558 172.11 98.9378 170.706 98.1278 169.734ZM94.0058 157.098L95.2478 156.864C95.5898 157.476 95.9318 158.322 96.0758 158.844L94.7798 159.132C94.6358 158.61 94.2938 157.728 94.0058 157.098ZM88.7858 156.972L90.0638 157.368C88.9478 160.41 87.2018 163.452 85.3478 165.486C85.2038 165.18 84.8078 164.478 84.5738 164.154C86.2478 162.39 87.8318 159.708 88.7858 156.972ZM86.8778 161.616L88.1378 160.338L88.1738 160.356V173.442H86.8778V161.616ZM103.654 159.42H118.324V160.644H103.654V159.42ZM104.644 162.102H117.442V163.272H104.644V162.102ZM103.402 167.394H118.792V168.582H103.402V167.394ZM103.006 164.802H119.098V166.008H103.006V164.802ZM110.26 160.104H111.646V165.684H110.26V160.104ZM106.066 157.332L107.254 156.846C107.902 157.53 108.55 158.484 108.82 159.132L107.578 159.708C107.326 159.024 106.678 158.052 106.066 157.332ZM114.508 156.846L115.912 157.278C115.3 158.25 114.544 159.33 113.968 160.032L112.798 159.618C113.356 158.862 114.094 157.674 114.508 156.846ZM110.17 165.63H111.574C111.124 169.896 109.864 172.344 103.42 173.406C103.312 173.082 102.97 172.506 102.718 172.2C108.784 171.318 109.774 169.266 110.17 165.63ZM111.07 169.77L111.682 168.78C114.166 169.716 117.424 171.264 119.062 172.362L118.432 173.532C116.83 172.398 113.59 170.778 111.07 169.77ZM130.474 164.172H131.86V171.12C131.86 171.75 132.004 171.858 132.706 171.858C133.03 171.858 134.596 171.858 135.046 171.858C135.784 171.858 135.892 171.39 135.964 168.618C136.27 168.87 136.864 169.104 137.224 169.212C137.08 172.308 136.72 173.154 135.136 173.154C134.776 173.154 132.886 173.154 132.544 173.154C130.906 173.154 130.474 172.686 130.474 171.12V164.172ZM121.06 163.362H136.954V164.676H121.06V163.362ZM122.626 158.304H135.424V159.618H122.626V158.304ZM125.668 164.37H127.09C126.784 168.402 125.992 171.714 121.69 173.424C121.546 173.1 121.15 172.614 120.844 172.362C124.822 170.868 125.398 167.88 125.668 164.37ZM145.522 168.636L145.108 167.682C146.584 167.088 147.394 166.17 147.394 164.802L147.052 163.29L148.024 164.658C147.772 164.982 147.412 165.072 147.07 165.072C146.332 165.072 145.72 164.622 145.72 163.776C145.72 162.93 146.368 162.48 147.088 162.48C148.096 162.48 148.636 163.308 148.636 164.568C148.636 166.512 147.412 167.988 145.522 168.636ZM43.8572 185.5H58.1672V186.832H43.8572V185.5ZM44.6852 190.792H57.4112V192.106H44.6852V190.792ZM43.0292 196.534H59.0672V197.866H43.0292V196.534ZM50.2832 186.562H51.7412V197.218H50.2832V186.562ZM48.7352 182.728L49.8332 181.972C51.0032 182.8 52.4612 184.024 53.1632 184.888L51.9932 185.734C51.3452 184.888 49.9232 183.61 48.7352 182.728ZM61.2632 193.672H69.4712V194.698H61.2632V193.672ZM60.7772 184.996H69.7592V186.04H60.7772V184.996ZM64.6832 183.358H65.9252V196.606H64.6832V183.358ZM60.7592 196.642C62.9552 196.444 66.3212 196.12 69.5432 195.778L69.5612 196.84C66.5012 197.2 63.2432 197.578 60.9572 197.812L60.7592 196.642ZM62.4332 190.306V191.638H68.2652V190.306H62.4332ZM62.4332 188.11V189.406H68.2652V188.11H62.4332ZM61.2992 187.174H69.4172V192.574H61.2992V187.174ZM68.7692 182.08L69.4532 183.124C67.3292 183.592 63.9812 183.898 61.2812 183.988C61.2272 183.7 61.1012 183.25 60.9572 182.98C63.6392 182.836 66.9152 182.512 68.7692 182.08ZM69.6332 186.112H76.1312V187.372H69.6332V186.112ZM75.6092 186.112H76.9052C76.9052 186.112 76.8872 186.616 76.8872 186.796C76.6892 194.392 76.5092 196.912 75.9152 197.686C75.5912 198.154 75.2312 198.316 74.6912 198.37C74.1872 198.424 73.3232 198.424 72.4952 198.37C72.4592 197.992 72.3152 197.434 72.0992 197.074C72.9812 197.146 73.7732 197.164 74.1332 197.164C74.4212 197.164 74.6012 197.11 74.7632 196.876C75.2132 196.318 75.4112 193.726 75.6092 186.436V186.112ZM71.8112 182.134H73.1072C73.0892 189.298 73.0712 195.346 68.7692 198.568C68.5532 198.244 68.0852 197.812 67.7612 197.596C71.8832 194.644 71.7932 188.938 71.8112 182.134ZM90.7832 182.8L91.6832 182.026C92.6192 182.656 93.7532 183.592 94.3112 184.222L93.3572 185.068C92.8172 184.42 91.7192 183.448 90.7832 182.8ZM79.0112 185.266H95.0492V186.58H79.0112V185.266ZM79.6232 189.28H87.5792V190.594H79.6232V189.28ZM82.8632 189.982H84.2132V196.408H82.8632V189.982ZM79.0832 196.588C81.2252 196.174 84.7532 195.454 88.0832 194.734L88.1912 195.94C85.1132 196.66 81.8192 197.416 79.4972 197.938L79.0832 196.588ZM88.1732 181.99H89.6132C89.5592 190.342 91.1792 197.092 93.3932 197.092C93.8972 197.092 94.1132 196.102 94.2212 193.69C94.5272 193.996 95.0492 194.302 95.4272 194.428C95.1932 197.578 94.6712 198.496 93.2852 198.496C89.7032 198.496 88.2452 190.702 88.1732 181.99ZM100.827 196.822H110.331V197.866H100.827V196.822ZM97.8392 186.958H112.491V189.946H111.123V188.038H99.1352V189.946H97.8392V186.958ZM100.737 189.154H110.277V192.772H100.737V191.728H108.963V190.18H100.737V189.154ZM100.809 194.014H111.231V198.442H109.881V195.076H100.809V194.014ZM99.8192 189.154H101.169V198.478H99.8192V189.154ZM103.941 185.824L105.147 185.572C105.489 186.076 105.849 186.796 105.957 187.264L104.697 187.552C104.571 187.084 104.247 186.364 103.941 185.824ZM99.1892 183.196H104.913V184.276H99.1892V183.196ZM106.623 183.214H113.211V184.294H106.623V183.214ZM99.5492 181.774L100.755 182.116C100.053 183.826 98.8652 185.518 97.7312 186.634C97.5332 186.4 97.0652 185.95 96.7772 185.734C97.9112 184.744 98.9372 183.268 99.5492 181.774ZM106.965 181.774L108.207 182.08C107.667 183.52 106.713 184.906 105.741 185.788C105.507 185.572 105.021 185.14 104.697 184.978C105.669 184.186 106.497 183.016 106.965 181.774ZM100.485 184.834L101.331 184.15C101.925 184.654 102.681 185.392 103.059 185.86L102.159 186.616C101.799 186.13 101.061 185.374 100.485 184.834ZM108.333 184.924L109.215 184.222C109.881 184.726 110.745 185.464 111.177 185.968L110.259 186.778C109.845 186.256 109.017 185.482 108.333 184.924ZM122.571 187.318V189.64H129.267V187.318H122.571ZM122.571 183.916V186.202H129.267V183.916H122.571ZM121.347 182.746H130.563V190.81H121.347V182.746ZM121.113 192.916H130.815V194.158H121.113V192.916ZM119.727 196.642H131.409V197.866H119.727V196.642ZM114.831 183.124H120.447V184.402H114.831V183.124ZM115.029 188.326H120.195V189.604H115.029V188.326ZM114.651 195.22C116.109 194.824 118.269 194.122 120.357 193.42L120.591 194.716C118.629 195.382 116.577 196.066 114.975 196.606L114.651 195.22ZM117.081 183.628H118.377V194.788L117.081 195.04V183.628ZM125.325 183.304H126.513V190.234H126.603V197.2H125.235V190.234H125.325V183.304ZM132.849 193.33H149.193V194.446H132.849V193.33ZM133.371 183.304H148.455V184.384H133.371V183.304ZM143.577 192.16H144.873V197.02C144.873 197.722 144.729 198.082 144.171 198.28C143.595 198.46 142.677 198.46 141.219 198.46C141.165 198.118 140.985 197.632 140.805 197.29C141.885 197.326 142.893 197.326 143.199 197.308C143.487 197.29 143.577 197.218 143.577 196.984V192.16ZM140.319 181.936H141.651V191.584H140.319V181.936ZM135.729 195.202L136.647 194.41C137.709 195.022 139.041 195.976 139.671 196.678L138.681 197.578C138.069 196.858 136.809 195.868 135.729 195.202ZM136.035 188.29V189.406H146.043V188.29H136.035ZM136.035 186.31V187.408H146.043V186.31H136.035ZM134.757 185.41H147.357V190.324H134.757V185.41ZM143.685 190.702L144.459 190.018C145.899 190.504 147.609 191.404 148.509 192.07L147.699 192.844C146.817 192.124 145.107 191.188 143.685 190.702ZM133.569 191.368C136.845 191.368 142.083 191.314 147.015 191.224L146.943 192.142C142.137 192.268 137.025 192.376 133.623 192.43L133.569 191.368ZM151.515 183.52H166.617V187.228H165.249V184.762H152.847V187.228H151.515V183.52ZM153.783 186.49H164.223V187.678H153.783V186.49ZM157.095 188.92L158.103 188.344C161.577 191.35 161.451 196.588 159.813 197.794C159.255 198.298 158.769 198.424 157.959 198.424C157.563 198.442 156.987 198.424 156.429 198.406C156.411 198.028 156.285 197.488 156.051 197.128C156.717 197.182 157.329 197.218 157.707 197.218C158.175 197.218 158.517 197.164 158.841 196.84C159.975 195.994 160.155 191.656 157.095 188.92ZM158.949 186.832L160.065 187.318C158.211 189.136 155.007 190.522 152.199 191.368C152.055 191.098 151.695 190.54 151.461 190.288C154.215 189.604 157.311 188.398 158.949 186.832ZM158.409 190.198L159.291 190.846C157.581 192.16 154.449 193.618 152.109 194.374C151.947 194.05 151.659 193.6 151.407 193.312C153.729 192.736 156.861 191.386 158.409 190.198ZM159.417 192.358L160.371 193.06C158.409 194.86 154.773 196.714 151.821 197.596C151.659 197.254 151.371 196.768 151.119 196.462C154.035 195.76 157.653 194.032 159.417 192.358ZM162.531 191.188C163.341 193.618 165.087 195.706 167.391 196.606C167.103 196.858 166.689 197.362 166.509 197.704C164.043 196.606 162.261 194.302 161.343 191.476L162.531 191.188ZM164.241 188.362L165.339 189.244C163.827 190.468 161.775 191.872 160.209 192.736L159.327 191.962C160.893 191.062 162.999 189.532 164.241 188.362ZM157.635 182.188L159.021 181.792C159.417 182.422 159.885 183.286 160.047 183.862L158.589 184.33C158.427 183.754 158.031 182.854 157.635 182.188Z" fill="black"/>
<path d="M90.6007 226.479H75.2402V287.922H90.6007V226.479Z" fill="#1E7AB8"/>
<path d="M77.7995 226.479H77.1602V241.839H77.7995V226.479Z" fill="#03588A"/>
<path d="M80.36 226.479H79.7207V241.839H80.36V226.479Z" fill="#03588A"/>
<path d="M82.9206 226.479H82.2812V252.08H82.9206V226.479Z" fill="#03588A"/>
<path d="M85.4811 226.479H84.8418V252.08H85.4811V226.479Z" fill="#03588A"/>
<path d="M88.0397 226.479H87.4004V252.08H88.0397V226.479Z" fill="#03588A"/>
<path d="M105.96 241.839H95.7207V287.922H105.96V241.839Z" fill="#4EAFD7"/>
<path d="M116.201 267.441H105.961V287.922H116.201V267.441Z" fill="#4EAFD7"/>
<path d="M75.2398 272.562H65V287.92H75.2398V272.562Z" fill="#1B68A9"/>
<path d="M80.3609 246.959H70.1211V287.922H80.3609V246.959Z" fill="#4EAFD7"/>
<path d="M77.8006 259.759L70.1211 254.639V287.921H72.6814L77.8006 259.759Z" fill="#1E7AB8"/>
<path d="M80.3624 252.079H70.1211V252.718H80.3624V252.079Z" fill="white"/>
<path d="M80.3624 254.639H70.1211V255.278H80.3624V254.639Z" fill="white"/>
<path d="M80.3624 257.199H70.1211V257.839H80.3624V257.199Z" fill="white"/>
<path d="M75.2418 259.76H70.1211V260.399H75.2418V259.76Z" fill="white"/>
<path d="M80.3624 262.32H70.1211V262.959H80.3624V262.32Z" fill="white"/>
<path d="M80.3624 264.88H70.1211V265.52H80.3624V264.88Z" fill="white"/>
<path d="M80.3609 267.44H75.2402V268.08H80.3609V267.44Z" fill="white"/>
<path d="M80.3624 270.001H70.1211V270.64H80.3624V270.001Z" fill="white"/>
<path d="M80.3609 272.56H75.2402V273.199H80.3609V272.56Z" fill="white"/>
<path d="M111.084 262.32H85.4824V287.922H111.084V262.32Z" fill="white"/>
<path d="M105.324 277.681H85.4824V287.921H105.324V277.681Z" fill="#E3E2F1"/>
<path d="M85.4824 273.84H101.484L105.323 277.681H85.4824V273.84Z" fill="#E3E2F1"/>
<path d="M111.084 257.2H85.4824V262.32H111.084V257.2Z" fill="#1E7AB8"/>
<path d="M98.2832 257.2L103.404 262.32H93.1641L98.2832 257.2Z" fill="white"/>
<path d="M107.884 267.441H106.604V270.002H107.884V267.441Z" fill="#1E7AB8"/>
<path d="M105.323 267.441H104.043V270.002H105.323V267.441Z" fill="#1E7AB8"/>
<path d="M100.204 267.441H98.9238V270.002H100.204V267.441Z" fill="#1E7AB8"/>
<path d="M97.6434 267.441H96.3633V270.002H97.6434V267.441Z" fill="#1E7AB8"/>
<path d="M92.5224 267.441H91.2422V270.002H92.5224V267.441Z" fill="#1E7AB8"/>
<path d="M89.9618 267.441H88.6816V270.002H89.9618V267.441Z" fill="#1E7AB8"/>
<path d="M107.884 272.561H106.604V275.121H107.884V272.561Z" fill="#1E7AB8"/>
<path d="M105.323 272.561H104.043V275.121H105.323V272.561Z" fill="#1E7AB8"/>
<path d="M100.204 272.561H98.9238V275.121H100.204V272.561Z" fill="#1E7AB8"/>
<path d="M97.6434 272.561H96.3633V275.121H97.6434V272.561Z" fill="#1E7AB8"/>
<path d="M92.5224 272.561H91.2422V275.121H92.5224V272.561Z" fill="#1E7AB8"/>
<path d="M89.9618 272.561H88.6816V275.121H89.9618V272.561Z" fill="#1E7AB8"/>
<path d="M107.884 277.681H106.604V280.241H107.884V277.681Z" fill="#1E7AB8"/>
<path d="M105.323 277.681H104.043V280.241H105.323V277.681Z" fill="#1E7AB8"/>
<path d="M90.6007 282.802H75.2402V293.042H90.6007V282.802Z" fill="white"/>
<path d="M90.6023 282.802H75.2402L80.3609 277.681H95.7214L90.6023 282.802Z" fill="#1E7AB8"/>
<path d="M90.6035 282.802L95.7226 277.681L100.843 282.802V293.042H90.6035V282.802Z" fill="#4EAFD7"/>
<path d="M81.0017 285.363H78.4414V290.483H81.0017V285.363Z" fill="#1E7AB8"/>
<path d="M86.1228 285.363H83.5625V290.483H86.1228V285.363Z" fill="#1E7AB8"/>
<path d="M80.3613 241.839L90.6027 246.96V226.479H85.482L80.3613 241.839Z" fill="#4EAFD7"/>
<mask id="mask0_1114_1018" style="mask-type:luminance" maskUnits="userSpaceOnUse" x="80" y="226" width="11" height="21">
<path d="M80.3594 241.839L90.6007 246.96V226.479H85.48L80.3594 241.839Z" fill="white"/>
</mask>
<g mask="url(#mask0_1114_1018)">
<path d="M82.9206 226.479H82.2812V252.08H82.9206V226.479Z" fill="white"/>
<path d="M85.4811 226.479H84.8418V252.08H85.4811V226.479Z" fill="white"/>
<path d="M88.0397 226.479H87.4004V252.08H88.0397V226.479Z" fill="white"/>
</g>
<path d="M103.402 236.719H98.2812V241.839H103.402V236.719Z" fill="#4EAFD7"/>
<path d="M101.481 231.598H100.201V236.718H101.481V231.598Z" fill="#03588A"/>
<g style="mix-blend-mode:screen" opacity="0.7">
<path d="M90.4906 289.765H86.4922V293.562H90.4906V289.765Z" fill="#F5AD17"/>
</g>
<path d="M110.811 289.765H84.5469V293.562H110.811V289.765Z" fill="#F5AD17"/>
<g opacity="0.6">
<path d="M110.221 290.264H109.709V293.06H110.221V290.264Z" fill="#FFB600"/>
<path d="M108.178 290.264H107.666V293.06H108.178V290.264Z" fill="#FFB600"/>
<path d="M106.133 290.264H105.621V293.06H106.133V290.264Z" fill="#FFB600"/>
<path d="M104.089 290.264H103.576V293.06H104.089V290.264Z" fill="#FFB600"/>
<path d="M102.046 290.264H101.533V293.06H102.046V290.264Z" fill="#FFB600"/>
<path d="M99.9987 290.264H99.4863V293.06H99.9987V290.264Z" fill="#FFB600"/>
<path d="M97.9557 290.264H97.4434V293.06H97.9557V290.264Z" fill="#FFB600"/>
<path d="M95.9128 290.264H95.4004V293.06H95.9128V290.264Z" fill="#FFB600"/>
<path d="M93.8659 290.264H93.3535V293.06H93.8659V290.264Z" fill="#FFB600"/>
<path d="M91.8229 290.264H91.3105V293.06H91.8229V290.264Z" fill="#FFB600"/>
<path d="M89.778 290.264H89.2656V293.06H89.778V290.264Z" fill="#FFB600"/>
<path d="M87.7331 290.264H87.2207V293.06H87.7331V290.264Z" fill="#FFB600"/>
<path d="M85.6901 290.264H85.1777V293.06H85.6901V290.264Z" fill="#FFB600"/>
</g>
<g style="mix-blend-mode:screen" opacity="0.7">
<path d="M92.4578 289.765H88.5879V293.562H92.4578V289.765Z" fill="#F5AD17"/>
</g>
<path style="mix-blend-mode:multiply" opacity="0.4" d="M86.4946 289.766H88.589H90.4915H92.4589H110.813V293.563H92.4589H90.4915H88.589H86.4946H84.5488V289.766H86.4946Z" fill="url(#paint2_linear_1114_1018)"/>
<g style="mix-blend-mode:screen" opacity="0.7">
<path d="M90.7894 285.962H86.791V289.76H90.7894V285.962Z" fill="#F5AD17"/>
</g>
<path d="M111.11 285.962H84.8457V289.76H111.11V285.962Z" fill="#F5AD17"/>
<g opacity="0.6">
<path d="M110.522 286.462H110.01V289.258H110.522V286.462Z" fill="#FFB600"/>
<path d="M108.475 286.462H107.963V289.258H108.475V286.462Z" fill="#FFB600"/>
<path d="M106.43 286.462H105.918V289.258H106.43V286.462Z" fill="#FFB600"/>
<path d="M104.387 286.462H103.875V289.258H104.387V286.462Z" fill="#FFB600"/>
<path d="M102.342 286.462H101.83V289.258H102.342V286.462Z" fill="#FFB600"/>
<path d="M100.298 286.462H99.7852V289.258H100.298V286.462Z" fill="#FFB600"/>
<path d="M98.2546 286.462H97.7422V289.258H98.2546V286.462Z" fill="#FFB600"/>
<path d="M96.2116 286.462H95.6992V289.258H96.2116V286.462Z" fill="#FFB600"/>
<path d="M94.1647 286.462H93.6523V289.258H94.1647V286.462Z" fill="#FFB600"/>
<path d="M92.1218 286.462H91.6094V289.258H92.1218V286.462Z" fill="#FFB600"/>
<path d="M90.0768 286.462H89.5645V289.258H90.0768V286.462Z" fill="#FFB600"/>
<path d="M88.0319 286.462H87.5195V289.258H88.0319V286.462Z" fill="#FFB600"/>
<path d="M85.9889 286.462H85.4766V289.258H85.9889V286.462Z" fill="#FFB600"/>
</g>
<g style="mix-blend-mode:screen" opacity="0.7">
<path d="M92.7547 285.962H88.8848V289.76H92.7547V285.962Z" fill="#F5AD17"/>
</g>
<path style="mix-blend-mode:multiply" opacity="0.4" d="M86.7895 285.962H88.8824H90.7864H92.7539H111.108V289.76H92.7539H90.7864H88.8824H86.7895H84.8438V285.962H86.7895Z" fill="url(#paint3_linear_1114_1018)"/>
<g style="mix-blend-mode:screen" opacity="0.7">
<path d="M92.6644 282.15H88.666V285.947H92.6644V282.15Z" fill="#F5AD17"/>
</g>
<path d="M112.987 282.15H86.7227V285.947H112.987V282.15Z" fill="#F5AD17"/>
<g opacity="0.6">
<path d="M112.395 282.65H111.883V285.446H112.395V282.65Z" fill="#FFB600"/>
<path d="M110.35 282.65H109.838V285.446H110.35V282.65Z" fill="#FFB600"/>
<path d="M108.309 282.65H107.797V285.446H108.309V282.65Z" fill="#FFB600"/>
<path d="M106.262 282.65H105.75V285.446H106.262V282.65Z" fill="#FFB600"/>
<path d="M104.219 282.65H103.707V285.446H104.219V282.65Z" fill="#FFB600"/>
<path d="M102.174 282.65H101.662V285.446H102.174V282.65Z" fill="#FFB600"/>
<path d="M100.13 282.65H99.6172V285.446H100.13V282.65Z" fill="#FFB600"/>
<path d="M98.0866 282.65H97.5742V285.446H98.0866V282.65Z" fill="#FFB600"/>
<path d="M96.0417 282.65H95.5293V285.446H96.0417V282.65Z" fill="#FFB600"/>
<path d="M93.9968 282.65H93.4844V285.446H93.9968V282.65Z" fill="#FFB600"/>
<path d="M91.9518 282.65H91.4395V285.446H91.9518V282.65Z" fill="#FFB600"/>
<path d="M89.9089 282.65H89.3965V285.446H89.9089V282.65Z" fill="#FFB600"/>
<path d="M87.8639 282.65H87.3516V285.446H87.8639V282.65Z" fill="#FFB600"/>
</g>
<g style="mix-blend-mode:screen" opacity="0.7">
<path d="M94.6316 282.15H90.7617V285.947H94.6316V282.15Z" fill="#F5AD17"/>
</g>
<path style="mix-blend-mode:multiply" opacity="0.4" d="M88.6669 282.15H90.7613H92.6653H94.6312H112.985V285.947H94.6312H92.6653H90.7613H88.6669H86.7227V282.15H88.6669Z" fill="url(#paint4_linear_1114_1018)"/>
<g style="mix-blend-mode:screen" opacity="0.7">
<path d="M93.6586 278.346H89.6602V282.143H93.6586V278.346Z" fill="#F5AD17"/>
</g>
<path d="M113.981 278.346H87.7168V282.143H113.981V278.346Z" fill="#F5AD17"/>
<g opacity="0.6">
<path d="M113.393 278.846H112.881V281.642H113.393V278.846Z" fill="#FFB600"/>
<path d="M111.346 278.846H110.834V281.642H111.346V278.846Z" fill="#FFB600"/>
<path d="M109.303 278.846H108.791V281.642H109.303V278.846Z" fill="#FFB600"/>
<path d="M107.258 278.846H106.746V281.642H107.258V278.846Z" fill="#FFB600"/>
<path d="M105.216 278.846H104.703V281.642H105.216V278.846Z" fill="#FFB600"/>
<path d="M103.171 278.846H102.658V281.642H103.171V278.846Z" fill="#FFB600"/>
<path d="M101.126 278.846H100.613V281.642H101.126V278.846Z" fill="#FFB600"/>
<path d="M99.0827 278.846H98.5703V281.642H99.0827V278.846Z" fill="#FFB600"/>
<path d="M97.0378 278.846H96.5254V281.642H97.0378V278.846Z" fill="#FFB600"/>
<path d="M94.9928 278.846H94.4805V281.642H94.9928V278.846Z" fill="#FFB600"/>
<path d="M92.9499 278.846H92.4375V281.642H92.9499V278.846Z" fill="#FFB600"/>
<path d="M90.905 278.846H90.3926V281.642H90.905V278.846Z" fill="#FFB600"/>
<path d="M88.86 278.846H88.3477V281.642H88.86V278.846Z" fill="#FFB600"/>
</g>
<g style="mix-blend-mode:screen" opacity="0.7">
<path d="M95.6258 278.346H91.7559V282.143H95.6258V278.346Z" fill="#F5AD17"/>
</g>
<path style="mix-blend-mode:multiply" opacity="0.4" d="M89.661 278.346H91.7554H93.6594H95.6254H113.981V282.143H95.6254H93.6594H91.7554H89.661H87.7168V278.346H89.661Z" fill="url(#paint5_linear_1114_1018)"/>
<g style="mix-blend-mode:screen" opacity="0.7">
<path d="M92.4418 274.552H88.4434V278.349H92.4418V274.552Z" fill="#F5AD17"/>
</g>
<path d="M112.762 274.551H86.498V278.348H112.762V274.551Z" fill="#F5AD17"/>
<g opacity="0.6">
<path d="M112.173 275.051H111.66V277.847H112.173V275.051Z" fill="#FFB600"/>
<path d="M110.128 275.051H109.615V277.847H110.128V275.051Z" fill="#FFB600"/>
<path d="M108.083 275.051H107.57V277.847H108.083V275.051Z" fill="#FFB600"/>
<path d="M106.04 275.051H105.527V277.847H106.04V275.051Z" fill="#FFB600"/>
<path d="M103.993 275.051H103.48V277.847H103.993V275.051Z" fill="#FFB600"/>
<path d="M101.95 275.051H101.438V277.847H101.95V275.051Z" fill="#FFB600"/>
<path d="M99.9069 275.051H99.3945V277.847H99.9069V275.051Z" fill="#FFB600"/>
<path d="M97.862 275.051H97.3496V277.847H97.862V275.051Z" fill="#FFB600"/>
<path d="M95.8171 275.051H95.3047V277.847H95.8171V275.051Z" fill="#FFB600"/>
<path d="M93.7721 275.051H93.2598V277.847H93.7721V275.051Z" fill="#FFB600"/>
<path d="M91.7292 275.051H91.2168V277.847H91.7292V275.051Z" fill="#FFB600"/>
<path d="M89.6843 275.051H89.1719V277.847H89.6843V275.051Z" fill="#FFB600"/>
<path d="M87.6393 275.051H87.127V277.847H87.6393V275.051Z" fill="#FFB600"/>
</g>
<g style="mix-blend-mode:screen" opacity="0.7">
<path d="M94.407 274.552H90.5371V278.349H94.407V274.552Z" fill="#F5AD17"/>
</g>
<path style="mix-blend-mode:multiply" opacity="0.4" d="M88.4423 274.552H90.5367H92.4407H94.4066H112.761V278.349H94.4066H92.4407H90.5367H88.4423H86.498V274.552H88.4423Z" fill="url(#paint6_linear_1114_1018)"/>
<path d="M143.217 271.103C142.231 259.836 132.1 250.622 125.297 250.622C118.493 250.622 108.362 259.836 107.376 271.103C105.099 297.125 97.7398 296.595 125.297 291.584C153.459 296.705 145.485 297.016 143.217 271.103Z" fill="#FFB600"/>
<path d="M125.296 294.145C135.193 294.145 143.217 290.706 143.217 286.464C143.217 282.222 135.193 278.783 125.296 278.783C115.398 278.783 107.375 282.222 107.375 286.464C107.375 290.706 115.398 294.145 125.296 294.145Z" fill="#FFB600"/>
<path d="M132.977 246.319C132.286 250.232 127.687 251.46 125.296 251.46C122.904 251.46 118.305 250.234 117.615 246.319C116.243 238.542 108.573 236.723 125.296 239.763C142.017 236.723 134.348 238.542 132.977 246.319Z" fill="#D5A924"/>
<path d="M125.834 234.548C127.651 234.548 129.125 238.076 129.125 243.421C129.125 248.766 127.651 250.51 125.834 250.51C124.017 250.51 122.543 248.767 122.543 243.421C122.543 238.076 124.017 234.548 125.834 234.548Z" fill="#FFB600"/>
<path d="M126.082 270.193C128.746 271.878 130.445 273.148 131.182 274.006C132.162 275.165 132.654 276.531 132.654 278.103C132.654 279.82 132.074 281.272 130.916 282.459C129.757 283.647 128.145 284.329 126.083 284.507V286.464H124.628V284.625C123.446 284.602 122.398 284.504 121.484 284.332C120.569 284.159 119.521 283.845 118.34 283.388V277.987H119.043C119.266 279.215 119.617 280.206 120.097 280.964C120.576 281.723 121.181 282.294 121.912 282.678C122.641 283.062 123.548 283.3 124.628 283.388V275.128C121.941 273.446 120.155 272.099 119.269 271.09C118.382 270.08 117.939 268.907 117.939 267.57C117.939 266.121 118.497 264.842 119.611 263.732C120.726 262.624 122.398 261.929 124.628 261.65V260.864H126.083V261.65C127.978 261.783 129.885 262.37 131.801 263.406V268.238H131.15C130.826 267.145 130.439 266.248 129.987 265.546C129.535 264.844 128.953 264.241 128.24 263.74C127.693 263.371 126.973 263.067 126.082 262.82V270.195V270.193ZM124.627 262.769C123.812 262.836 123.161 263.06 122.67 263.438C121.89 264.029 121.5 264.743 121.5 265.579C121.5 266.093 121.681 266.61 122.043 267.135C122.405 267.659 123.266 268.371 124.627 269.275V262.771V262.769ZM126.082 283.388C127.04 283.165 127.743 282.785 128.189 282.243C128.634 281.702 128.857 281.024 128.857 280.21C128.857 279.507 128.659 278.851 128.264 278.237C127.868 277.624 127.141 276.927 126.082 276.147V283.388Z" fill="white"/>
<path d="M132.975 252.542H117.614C116.907 252.542 116.334 251.969 116.334 251.262C116.334 250.554 116.907 249.981 117.614 249.981H132.975C133.682 249.981 134.255 250.554 134.255 251.262C134.255 251.969 133.682 252.542 132.975 252.542Z" fill="#B05541"/>
<path d="M117.618 258.943C117.265 258.943 116.979 258.656 116.979 258.303C116.979 256.223 118.526 254.1 121.338 252.331C123.533 250.949 126.214 249.983 127.859 249.983C128.212 249.983 128.498 250.269 128.498 250.622C128.498 250.975 128.212 251.262 127.859 251.262C125.17 251.262 118.259 254.608 118.259 258.302C118.259 258.655 117.972 258.941 117.619 258.941L117.618 258.943Z" fill="#B05541"/>
<path d="M120.178 261.503C119.825 261.503 119.539 261.216 119.539 260.864C119.539 257.22 121.375 254.505 122.469 253.209C124.152 251.218 126.217 249.983 127.859 249.983C128.212 249.983 128.499 250.269 128.499 250.622C128.499 250.975 128.212 251.262 127.859 251.262C125.511 251.262 120.819 255.412 120.819 260.862C120.819 261.215 120.533 261.501 120.18 261.501L120.178 261.503Z" fill="#B05541"/>
<path d="M138.674 294.3C138.664 294.3 138.655 294.3 138.646 294.3C138.469 294.285 138.339 294.13 138.355 293.954C138.38 293.669 138.404 293.373 138.432 293.063L138.466 292.678C138.482 292.502 138.635 292.372 138.813 292.387C138.989 292.402 139.119 292.557 139.104 292.734L139.07 293.121C139.044 293.429 139.017 293.724 138.993 294.009C138.979 294.176 138.838 294.302 138.674 294.302V294.3Z" fill="#B05541"/>
<path d="M139.107 288.954C139.107 288.954 139.093 288.954 139.085 288.954C138.908 288.941 138.775 288.789 138.788 288.613C138.851 287.663 138.899 286.776 138.936 285.901C138.944 285.725 139.096 285.585 139.269 285.594C139.446 285.602 139.583 285.751 139.576 285.927C139.539 286.807 139.489 287.698 139.426 288.653C139.415 288.822 139.274 288.952 139.107 288.952V288.954ZM139.342 282.15C139.165 282.15 139.023 282.008 139.021 281.831C139.018 280.909 139 279.997 138.966 279.119C138.958 278.943 139.096 278.794 139.272 278.787C139.453 278.78 139.597 278.917 139.605 279.093C139.641 279.978 139.659 280.898 139.662 281.828C139.662 282.005 139.52 282.149 139.343 282.149L139.342 282.15ZM138.994 275.352C138.833 275.352 138.693 275.229 138.676 275.065C138.58 274.152 138.461 273.249 138.323 272.383C138.295 272.208 138.415 272.044 138.59 272.016C138.763 271.989 138.929 272.107 138.956 272.282C139.096 273.16 139.217 274.075 139.314 274.999C139.333 275.175 139.206 275.331 139.029 275.35C139.018 275.35 139.006 275.352 138.995 275.352H138.994ZM137.817 268.652C137.675 268.652 137.545 268.556 137.508 268.412C137.28 267.522 137.022 266.65 136.743 265.824C136.686 265.657 136.777 265.476 136.944 265.418C137.113 265.361 137.294 265.452 137.35 265.62C137.635 266.463 137.896 267.349 138.128 268.254C138.172 268.426 138.069 268.599 137.898 268.644C137.871 268.65 137.845 268.655 137.817 268.655V268.652ZM135.495 262.265C135.378 262.265 135.263 262.2 135.207 262.087C134.805 261.271 134.364 260.482 133.896 259.74C133.802 259.59 133.847 259.394 133.997 259.299C134.145 259.205 134.344 259.25 134.438 259.4C134.916 260.16 135.368 260.968 135.782 261.804C135.861 261.962 135.796 262.154 135.636 262.233C135.591 262.256 135.542 262.265 135.495 262.265ZM131.707 256.638C131.621 256.638 131.534 256.603 131.471 256.533C130.868 255.87 130.221 255.242 129.549 254.665C129.415 254.55 129.399 254.347 129.515 254.213C129.63 254.078 129.833 254.062 129.967 254.179C130.661 254.773 131.327 255.42 131.946 256.103C132.065 256.234 132.056 256.435 131.924 256.555C131.862 256.61 131.786 256.638 131.709 256.638H131.707Z" fill="#B05541"/>
<defs>
<filter id="filter0_d_1114_1018" x="3" y="39.0122" width="206.035" height="301.058" filterUnits="userSpaceOnUse" color-interpolation-filters="sRGB">
<feFlood flood-opacity="0" result="BackgroundImageFix"/>
<feColorMatrix in="SourceAlpha" type="matrix" values="0 0 0 0 0 0 0 0 0 0 0 0 0 0 0 0 0 0 127 0" result="hardAlpha"/>
<feOffset dx="1" dy="2"/>
<feGaussianBlur stdDeviation="15"/>
<feComposite in2="hardAlpha" operator="out"/>
<feColorMatrix type="matrix" values="0 0 0 0 0 0 0 0 0 0 0 0 0 0 0 0 0 0 0.25 0"/>
<feBlend mode="normal" in2="BackgroundImageFix" result="effect1_dropShadow_1114_1018"/>
<feBlend mode="normal" in="SourceGraphic" in2="effect1_dropShadow_1114_1018" result="shape"/>
</filter>
<filter id="filter1_d_1114_1018" x="0" y="0" width="210" height="131.927" filterUnits="userSpaceOnUse" color-interpolation-filters="sRGB">
<feFlood flood-opacity="0" result="BackgroundImageFix"/>
<feColorMatrix in="SourceAlpha" type="matrix" values="0 0 0 0 0 0 0 0 0 0 0 0 0 0 0 0 0 0 127 0" result="hardAlpha"/>
<feOffset dy="4"/>
<feGaussianBlur stdDeviation="10"/>
<feComposite in2="hardAlpha" operator="out"/>
<feColorMatrix type="matrix" values="0 0 0 0 0 0 0 0 0 0 0 0 0 0 0 0 0 0 0.25 0"/>
<feBlend mode="normal" in2="BackgroundImageFix" result="effect1_dropShadow_1114_1018"/>
<feBlend mode="normal" in="SourceGraphic" in2="effect1_dropShadow_1114_1018" result="shape"/>
</filter>
<linearGradient id="paint0_linear_1114_1018" x1="32.9058" y1="16" x2="164.206" y2="148.578" gradientUnits="userSpaceOnUse">
<stop stop-color="#7FE1FE"/>
<stop offset="0.449935" stop-color="#429DDB"/>
<stop offset="1" stop-color="#0149A6"/>
<stop offset="1" stop-color="#2C73D0"/>
</linearGradient>
<linearGradient id="paint1_linear_1114_1018" x1="23.9237" y1="79.6097" x2="174.963" y2="252.809" gradientUnits="userSpaceOnUse">
<stop stop-color="#7CDEFD"/>
<stop offset="0.520833" stop-color="#368ED2"/>
<stop offset="1" stop-color="#2071BF"/>
</linearGradient>
<linearGradient id="paint2_linear_1114_1018" x1="97.6802" y1="289.989" x2="97.6802" y2="293.348" gradientUnits="userSpaceOnUse">
<stop stop-color="white"/>
<stop offset="1" stop-color="#EFB717"/>
</linearGradient>
<linearGradient id="paint3_linear_1114_1018" x1="97.9751" y1="286.185" x2="97.9751" y2="289.546" gradientUnits="userSpaceOnUse">
<stop stop-color="white"/>
<stop offset="1" stop-color="#EFB717"/>
</linearGradient>
<linearGradient id="paint4_linear_1114_1018" x1="99.8541" y1="282.373" x2="99.8541" y2="285.732" gradientUnits="userSpaceOnUse">
<stop stop-color="white"/>
<stop offset="1" stop-color="#EFB717"/>
</linearGradient>
<linearGradient id="paint5_linear_1114_1018" x1="100.848" y1="278.569" x2="100.848" y2="281.928" gradientUnits="userSpaceOnUse">
<stop stop-color="white"/>
<stop offset="1" stop-color="#EFB717"/>
</linearGradient>
<linearGradient id="paint6_linear_1114_1018" x1="99.6294" y1="274.775" x2="99.6294" y2="278.134" gradientUnits="userSpaceOnUse">
<stop stop-color="white"/>
<stop offset="1" stop-color="#EFB717"/>
</linearGradient>
</defs>
</svg>
