<svg width="470" height="573" viewBox="0 0 470 573" fill="none" xmlns="http://www.w3.org/2000/svg">
<g filter="url(#filter0_d_1114_1008)">
<rect x="59.4199" y="138.538" width="350.749" height="402.462" fill="white"/>
</g>
<g filter="url(#filter1_d_1114_1008)">
<path d="M412.541 131.5V16H56.901V131.5H20L234.721 235.319L449.442 131.5H412.541Z" fill="url(#paint0_linear_1114_1008)"/>
</g>
<path d="M59.248 541V173.388L68.2275 177.733V531.995H401.018V177.89L409.997 173.545V541H59.248Z" fill="url(#paint1_linear_1114_1008)"/>
<path d="M147.839 125.909H160.369V129.689H147.839V125.909ZM147.874 134.169H160.404V137.984H147.874V134.169ZM147.839 142.464H160.404V146.244H147.839V142.464ZM145.844 117.614H162.364V148.099H158.129V121.569H149.869V148.309H145.844V117.614ZM131.144 122.934H144.619V126.924H131.144V122.934ZM136.219 115.724H140.244V148.589H136.219V115.724ZM135.974 125.629L138.494 126.504C137.339 132.209 135.029 138.929 132.264 142.569C131.879 141.379 130.899 139.664 130.269 138.614C132.789 135.569 135.029 130.109 135.974 125.629ZM139.929 128.709C140.944 129.689 144.374 133.924 145.144 134.869L142.764 138.264C141.749 136.199 139.264 132.384 138.004 130.634L139.929 128.709ZM178.009 126.434H195.649V129.724H178.009V126.434ZM178.009 131.544H195.649V134.834H178.009V131.544ZM180.074 144.109H193.584V147.434H180.074V144.109ZM175.559 121.184H198.204V124.579H175.559V121.184ZM177.484 136.794H196.104V148.414H192.394V140.119H181.019V148.519H177.484V136.794ZM183.469 116.984L187.004 115.619C187.984 117.089 189.034 119.014 189.559 120.309L185.884 121.919C185.429 120.589 184.344 118.524 183.469 116.984ZM172.794 115.864L176.539 117.019C174.474 122.899 171.114 129.129 167.544 133.119C167.194 132.174 166.109 130.004 165.409 129.024C168.349 125.804 171.149 120.834 172.794 115.864ZM170.134 125.559L173.949 121.744V121.779V148.694H170.134V125.559ZM216.719 115.654L220.849 116.704C219.379 120.729 216.929 124.789 214.514 127.309C213.709 126.609 211.994 125.349 210.979 124.824C213.394 122.619 215.529 119.119 216.719 115.654ZM218.259 118.944H232.854V122.444H216.474L218.259 118.944ZM218.644 130.424V131.859H226.939V130.424H218.644ZM218.644 126.504V127.939H226.939V126.504H218.644ZM214.724 123.879H231.069V134.519H214.724V123.879ZM219.624 133.189L223.404 134.309C221.304 137.984 217.699 141.134 214.199 143.059C213.569 142.359 212.134 140.924 211.294 140.294C214.724 138.719 217.944 136.164 219.624 133.189ZM216.054 134.974C219.029 140.329 225.294 143.794 233.764 145.019C232.924 145.859 231.839 147.504 231.314 148.554C222.424 146.909 216.264 142.814 212.624 136.094L216.054 134.974ZM219.764 135.989H229.004V139.034H217.699L219.764 135.989ZM227.709 135.989H228.514L229.214 135.849L231.839 137.144C228.549 143.934 221.234 147.224 213.044 148.729C212.659 147.749 211.784 146.209 211.084 145.369C218.504 144.319 225.259 141.484 227.709 136.549V135.989ZM204.924 133.399L208.774 128.814V148.589H204.924V133.399ZM211.504 128.464L214.024 130.914C212.519 132.209 211.364 133.644 210.314 134.554L208.599 132.699C209.474 131.614 210.804 129.724 211.504 128.464ZM201.004 121.639H209.859V125.384H201.004V121.639ZM208.354 130.809C209.299 131.544 212.414 134.694 213.114 135.464L210.699 138.649C209.754 137.039 207.479 133.889 206.324 132.524L208.354 130.809ZM208.704 121.639H209.509L210.244 121.499L212.484 123.074C210.279 129.339 206.009 135.674 202.019 139.209C201.704 138.054 200.689 135.849 200.059 135.114C203.594 132.314 207.199 127.064 208.704 122.444V121.639ZM203.874 117.369L207.199 115.864C208.109 117.299 209.159 119.224 209.649 120.484L206.184 122.234C205.764 120.939 204.714 118.874 203.874 117.369ZM236.109 126.119H252.909V130.004H236.109V126.119ZM254.589 119.959H258.684V139.629H254.589V119.959ZM242.794 119.189H246.924V148.554H242.794V119.189ZM262.884 116.389H267.049V143.444C267.049 145.929 266.559 147.084 265.124 147.784C263.654 148.449 261.344 148.589 258.124 148.589C257.914 147.364 257.249 145.439 256.654 144.249C258.964 144.319 261.204 144.319 261.939 144.319C262.604 144.319 262.884 144.109 262.884 143.444V116.389ZM249.829 115.864L252.839 119.084C248.394 120.834 242.234 122.024 236.949 122.759C236.774 121.814 236.179 120.344 235.689 119.469C240.799 118.699 246.434 117.404 249.829 115.864ZM242.759 127.974L245.594 129.199C243.844 134.449 240.764 140.714 237.474 144.214C237.054 142.954 236.004 141.204 235.304 140.084C238.314 137.179 241.359 132.069 242.759 127.974ZM246.294 131.509C247.659 132.384 251.999 136.024 253.014 136.934L250.634 140.539C249.094 138.649 245.839 135.254 244.124 133.679L246.294 131.509ZM271.214 120.554H287.944V124.299H271.214V120.554ZM274.854 124.369L278.424 125.489C277.059 128.779 274.924 132.524 273.069 134.869C272.474 134.204 271.039 132.839 270.234 132.244C271.984 130.214 273.769 127.169 274.854 124.369ZM280.419 129.864L284.374 130.564C282.414 138.299 278.739 144.249 273.279 147.889C272.719 147.084 271.284 145.509 270.444 144.809C275.624 141.799 278.914 136.549 280.419 129.864ZM280.699 125.734L283.744 124.089C285.494 126.154 287.384 128.954 288.084 130.914L284.794 132.769C284.164 130.844 282.379 127.904 280.699 125.734ZM273.909 133.364L276.989 131.124C280.419 134.519 284.759 139.244 286.649 142.499L283.289 145.159C281.574 141.904 277.409 136.934 273.909 133.364ZM291.514 121.849H303.169V125.734H291.514V121.849ZM291.654 115.689L295.574 116.284C294.384 123.634 292.319 130.634 288.854 135.114C288.364 134.274 287.034 132.524 286.229 131.754C289.169 128.009 290.814 121.989 291.654 115.689ZM297.639 124.579L301.629 125.034C299.949 136.969 296.029 144.459 287.489 148.764C286.964 147.994 285.494 146.419 284.619 145.684C292.914 142.114 296.344 135.324 297.639 124.579ZM292.529 127.449C294.279 135.079 297.989 141.974 303.834 145.264C302.889 146.069 301.559 147.574 300.929 148.659C294.734 144.634 291.129 137.179 288.994 128.254L292.529 127.449ZM276.324 116.844L279.929 115.584C280.839 116.844 281.714 118.524 282.099 119.679L278.319 121.149C278.004 119.959 277.164 118.174 276.324 116.844ZM306.459 134.134H337.784V137.984H306.459V134.134ZM319.934 118.769H324.414V148.589H319.934V118.769ZM318.779 136.024L322.279 137.529C318.989 141.904 313.564 145.684 308.244 147.644C307.614 146.629 306.319 145.054 305.409 144.179C310.589 142.604 316.014 139.419 318.779 136.024ZM325.184 135.779C328.054 139.139 333.654 142.324 338.799 143.899C337.889 144.739 336.594 146.384 335.964 147.434C330.784 145.404 325.254 141.519 321.894 137.249L325.184 135.779ZM314.264 126.294V128.569H329.944V126.294H314.264ZM314.264 120.834V123.039H329.944V120.834H314.264ZM309.889 117.334H334.564V132.069H309.889V117.334Z" fill="black"/>
<path d="M103.235 283.89C105.395 283.362 108.635 282.45 111.683 281.562L111.899 283.218C109.091 284.058 106.067 284.97 103.763 285.618L103.235 283.89ZM103.523 276.018H111.659V277.722H103.523V276.018ZM106.979 271.194H108.731V290.97C108.731 291.978 108.467 292.482 107.867 292.746C107.219 293.034 106.235 293.082 104.579 293.082C104.507 292.626 104.243 291.882 104.027 291.402C105.155 291.45 106.187 291.426 106.499 291.426C106.835 291.426 106.979 291.306 106.979 290.97V271.194ZM111.947 277.962L124.835 276.618L125.027 278.298L112.139 279.69L111.947 277.962ZM118.643 272.658L120.011 271.746C121.211 272.754 122.651 274.218 123.323 275.202L121.883 276.234C121.259 275.226 119.819 273.714 118.643 272.658ZM115.187 271.266H117.011C117.419 282.042 119.363 290.682 122.939 291.042C123.587 291.09 123.971 289.77 124.211 287.13C124.571 287.49 125.363 287.946 125.747 288.114C125.195 292.026 124.235 293.226 123.011 293.154C117.659 292.746 115.763 283.506 115.187 271.266ZM122.315 280.17L123.803 281.082C121.643 285.786 117.323 290.322 112.643 292.434C112.307 291.954 111.731 291.378 111.227 291.018C116.003 289.122 120.323 284.706 122.315 280.17ZM128.747 283.722H140.003V285.306H128.747V283.722ZM133.475 281.13H135.179V290.418H133.475V281.13ZM127.931 290.346C130.955 289.866 135.731 289.002 140.243 288.138L140.339 289.722C136.067 290.562 131.483 291.45 128.339 292.05L127.931 290.346ZM128.123 272.754H140.483V274.362H128.123V272.754ZM135.539 275.922L136.835 275.13C138.179 276.762 139.787 278.946 140.483 280.314L139.115 281.226C138.419 279.834 136.859 277.578 135.539 275.922ZM141.827 273.258H143.507V287.802H141.827V273.258ZM146.579 271.578H148.331V290.442C148.331 291.57 148.043 292.122 147.347 292.41C146.579 292.698 145.307 292.746 143.555 292.746C143.483 292.266 143.171 291.45 142.907 290.946C144.299 290.994 145.619 290.994 146.051 290.994C146.459 290.97 146.579 290.85 146.579 290.442V271.578ZM129.275 280.794C129.179 280.41 128.915 279.57 128.699 279.114C129.059 279.042 129.419 278.61 129.851 278.034C130.283 277.458 131.651 275.274 132.443 273.162L134.195 273.858C133.163 276.042 131.723 278.298 130.403 279.834V279.858C130.403 279.858 129.275 280.41 129.275 280.794ZM129.275 280.794L129.251 279.498L130.211 278.922L138.275 278.25C138.467 278.706 138.827 279.282 139.043 279.642C130.835 280.434 129.875 280.53 129.275 280.794ZM160.187 276.186V277.866H169.763V276.186H160.187ZM160.187 273.306V274.938H169.763V273.306H160.187ZM158.531 272.034H171.515V279.138H158.531V272.034ZM162.227 288.93L163.667 288.69C164.051 289.986 164.363 291.69 164.459 292.794L162.923 293.058C162.875 291.93 162.587 290.25 162.227 288.93ZM165.707 288.978L167.051 288.546C167.747 289.77 168.419 291.426 168.707 292.506L167.267 293.01C167.027 291.93 166.355 290.226 165.707 288.978ZM169.307 288.714L170.651 288.138C171.707 289.53 172.835 291.378 173.315 292.602L171.899 293.25C171.443 292.002 170.339 290.106 169.307 288.714ZM159.203 288.282L160.643 288.906C160.043 290.322 159.179 292.098 158.099 293.202L156.659 292.482C157.739 291.426 158.675 289.65 159.203 288.282ZM162.491 284.634L163.523 284.202C164.171 285.282 164.795 286.77 165.035 287.706L163.955 288.21C163.739 287.202 163.115 285.738 162.491 284.634ZM158.075 283.962C157.979 283.722 157.739 283.146 157.547 282.858C157.907 282.81 158.171 282.594 158.483 282.234C158.843 281.898 159.923 280.482 160.499 279.138L161.915 279.738C161.147 281.058 160.115 282.378 159.131 283.314V283.338C159.131 283.338 158.075 283.698 158.075 283.962ZM158.075 283.962L158.027 282.882L158.963 282.474L162.587 282.282C162.491 282.666 162.395 283.194 162.419 283.506C159.131 283.722 158.459 283.842 158.075 283.962ZM158.243 287.778C158.147 287.514 157.907 286.914 157.691 286.602C158.147 286.554 158.603 286.194 159.179 285.642C159.779 285.114 161.771 282.954 162.971 280.914L164.315 281.634C162.899 283.65 161.099 285.666 159.275 287.082V287.13C159.275 287.13 158.243 287.514 158.243 287.778ZM158.243 287.778L158.147 286.674L159.059 286.218L164.099 285.762C164.027 286.122 163.979 286.674 164.003 286.986C159.419 287.466 158.675 287.61 158.243 287.778ZM170.315 284.706L171.347 284.226C172.115 285.306 172.859 286.77 173.171 287.73L172.091 288.282C171.779 287.274 171.059 285.81 170.315 284.706ZM165.611 284.106C165.539 283.866 165.299 283.29 165.107 283.002C165.443 282.954 165.707 282.714 166.043 282.378C166.355 282.066 167.459 280.674 168.035 279.33L169.451 279.954C168.659 281.25 167.675 282.546 166.691 283.458V283.482C166.691 283.482 165.611 283.842 165.611 284.106ZM165.611 284.106L165.563 283.026L166.523 282.618L170.147 282.45C170.051 282.81 169.955 283.362 169.979 283.674C166.667 283.866 165.995 283.986 165.611 284.106ZM165.827 287.85C165.731 287.586 165.491 286.962 165.299 286.674C165.755 286.626 166.211 286.266 166.787 285.714C167.411 285.186 169.427 283.026 170.675 280.986L172.019 281.73C170.579 283.698 168.731 285.738 166.883 287.154V287.178C166.883 287.178 165.827 287.562 165.827 287.85ZM165.827 287.85L165.731 286.698L166.691 286.266L171.947 285.762C171.875 286.146 171.851 286.698 171.875 287.01C167.075 287.514 166.283 287.658 165.827 287.85ZM152.555 272.802L153.443 271.506C154.763 272.13 156.539 273.186 157.427 274.002L156.515 275.514C155.675 274.674 153.923 273.546 152.555 272.802ZM151.307 279.33L152.147 277.962C153.467 278.562 155.219 279.57 156.107 280.338L155.243 281.85C154.403 281.082 152.651 279.978 151.307 279.33ZM151.931 291.57C153.035 289.746 154.643 286.626 155.843 283.914L156.995 285.114C155.891 287.634 154.451 290.586 153.251 292.818L151.931 291.57ZM177.587 275.034H184.883V290.73H177.587V289.098H183.203V276.642H177.587V275.034ZM176.507 275.034H178.187V292.65H176.507V275.034ZM177.467 281.706H184.091V283.314H177.467V281.706ZM180.179 271.122L182.123 271.482C181.643 272.97 181.043 274.626 180.563 275.706L179.123 275.346C179.531 274.194 179.987 272.37 180.179 271.122ZM188.291 274.962H195.659V276.642H188.291V274.962ZM195.035 274.962H196.715C196.715 274.962 196.715 275.634 196.715 275.898C196.331 286.914 195.995 290.634 195.035 291.81C194.507 292.506 193.955 292.722 193.115 292.794C192.299 292.89 190.883 292.842 189.539 292.77C189.491 292.242 189.275 291.498 188.939 291.018C190.499 291.138 191.939 291.162 192.491 291.162C192.971 291.162 193.259 291.09 193.523 290.778C194.315 289.914 194.699 285.93 195.035 275.346V274.962ZM188.795 271.074L190.523 271.482C189.635 275.058 188.219 278.586 186.563 280.866C186.251 280.578 185.507 280.074 185.075 279.834C186.707 277.722 188.027 274.41 188.795 271.074ZM187.691 281.202L189.083 280.386C190.451 282.09 192.107 284.418 192.875 285.834L191.339 286.794C190.619 285.33 189.011 282.954 187.691 281.202ZM200.387 287.418H220.883V288.858H200.387V287.418ZM203.075 291.09H217.283V292.602H203.075V291.09ZM203.003 283.722H218.051V292.602H216.251V285.21H203.003V283.722ZM201.515 271.842H219.251V273.306H201.515V271.842ZM209.435 272.634H211.211V282.666H209.435V272.634ZM200.267 275.01H220.571V280.41H218.891V276.378H201.923V280.41H200.267V275.01ZM202.427 281.562C203.939 281.226 206.075 280.65 208.235 280.026L208.379 281.178C206.483 281.802 204.611 282.426 203.003 282.906L202.427 281.562ZM203.003 278.202L203.531 277.218C205.091 277.506 207.107 278.034 208.187 278.49L207.659 279.594C206.603 279.114 204.587 278.514 203.003 278.202ZM217.091 277.146L217.907 278.202C216.515 278.778 214.571 279.258 213.179 279.546L212.531 278.634C213.899 278.298 215.939 277.602 217.091 277.146ZM212.219 280.986L212.723 279.954C214.715 280.386 217.307 281.154 218.675 281.802L218.219 282.93C216.827 282.306 214.259 281.466 212.219 280.986ZM235.835 288.474H243.275V290.202H235.835V288.474ZM235.163 273.426H244.115V292.026H242.291V275.13H236.915V292.194H235.163V273.426ZM228.347 273.21H230.147V293.226H228.347V273.21ZM223.643 278.274H234.347V279.954H223.643V278.274ZM228.251 278.874L229.523 279.33C228.395 283.05 226.187 287.49 224.027 289.794C223.835 289.29 223.379 288.57 223.067 288.138C225.083 286.074 227.291 282.186 228.251 278.874ZM232.955 271.41L234.179 272.802C231.611 273.762 227.675 274.458 224.387 274.842C224.291 274.434 224.075 273.834 223.859 273.426C227.051 272.994 230.867 272.274 232.955 271.41ZM230.003 280.434C230.771 281.202 233.555 284.466 234.179 285.258L233.075 286.722C232.307 285.45 229.979 282.378 229.091 281.322L230.003 280.434ZM252.923 276.546L254.531 277.194C252.923 280.05 250.427 282.954 248.099 284.85C247.931 284.442 247.427 283.506 247.115 283.098C249.275 281.49 251.555 279.042 252.923 276.546ZM252.491 271.266L254.219 271.914C252.803 274.002 250.523 276.258 248.435 277.674C248.219 277.266 247.763 276.546 247.451 276.186C249.347 274.962 251.459 272.946 252.491 271.266ZM250.787 280.89L252.491 279.21L252.563 279.234V293.25H250.787V280.89ZM256.955 272.25H267.323V282.786H256.955V281.202H265.571V273.834H256.955V272.25ZM257.003 276.738H266.123V278.25H257.003V276.738ZM261.467 281.85C262.667 286.458 265.307 290.058 269.555 291.522C269.147 291.906 268.595 292.602 268.331 293.106C263.939 291.282 261.299 287.394 259.979 282.186L261.467 281.85ZM267.395 283.578L268.595 284.826C267.179 286.002 265.307 287.226 263.867 288.018L262.907 286.866C264.251 286.05 266.243 284.634 267.395 283.578ZM255.947 293.274L255.827 291.666L256.667 290.994L262.043 289.698C262.043 290.202 262.067 290.946 262.115 291.33C257.171 292.698 256.427 292.962 255.947 293.274ZM255.947 293.274C255.827 292.866 255.419 292.122 255.131 291.786C255.515 291.57 256.019 291.066 256.019 290.082V272.25H257.795V291.498C257.795 291.498 255.947 292.602 255.947 293.274ZM271.691 282.762H293.171V284.37H271.691V282.762ZM276.923 275.754H290.075V277.218H276.923V275.754ZM276.923 279.234H290.075V280.698H276.923V279.234ZM282.539 283.122C284.267 287.562 288.107 290.442 293.747 291.474C293.363 291.882 292.859 292.602 292.619 293.082C286.787 291.81 282.899 288.594 280.907 283.578L282.539 283.122ZM290.651 284.586L292.091 285.57C290.291 286.89 287.891 288.282 286.019 289.17L284.795 288.234C286.619 287.322 289.163 285.762 290.651 284.586ZM275.939 272.13H290.843V273.666H277.763V283.362H275.939V272.13ZM275.267 293.25L275.171 291.81L276.035 291.138L283.907 289.266C283.859 289.746 283.811 290.49 283.835 290.85C276.635 292.698 275.795 292.938 275.267 293.25ZM275.627 283.746H277.403V291.522L275.267 293.274C275.123 292.842 274.763 291.954 274.427 291.498C274.907 291.258 275.627 290.754 275.627 289.794V283.746ZM297.587 275.034H304.883V290.73H297.587V289.098H303.203V276.642H297.587V275.034ZM296.507 275.034H298.187V292.65H296.507V275.034ZM297.467 281.706H304.091V283.314H297.467V281.706ZM300.179 271.122L302.123 271.482C301.643 272.97 301.043 274.626 300.563 275.706L299.123 275.346C299.531 274.194 299.987 272.37 300.179 271.122ZM308.291 274.962H315.659V276.642H308.291V274.962ZM315.035 274.962H316.715C316.715 274.962 316.715 275.634 316.715 275.898C316.331 286.914 315.995 290.634 315.035 291.81C314.507 292.506 313.955 292.722 313.115 292.794C312.299 292.89 310.883 292.842 309.539 292.77C309.491 292.242 309.275 291.498 308.939 291.018C310.499 291.138 311.939 291.162 312.491 291.162C312.971 291.162 313.259 291.09 313.523 290.778C314.315 289.914 314.699 285.93 315.035 275.346V274.962ZM308.795 271.074L310.523 271.482C309.635 275.058 308.219 278.586 306.563 280.866C306.251 280.578 305.507 280.074 305.075 279.834C306.707 277.722 308.027 274.41 308.795 271.074ZM307.691 281.202L309.083 280.386C310.451 282.09 312.107 284.418 312.875 285.834L311.339 286.794C310.619 285.33 309.011 282.954 307.691 281.202ZM328.931 274.722H340.067V276.402H328.931V274.722ZM339.539 274.722H339.827L340.115 274.65L341.435 274.962C340.955 276.666 340.355 278.61 339.851 279.834L338.267 279.45C338.699 278.322 339.227 276.474 339.539 274.986V274.722ZM333.467 271.194H335.219V281.514H333.467V271.194ZM327.995 274.722H329.699V281.01C329.699 284.658 329.195 289.722 325.907 293.058C325.619 292.698 324.923 292.098 324.563 291.882C327.635 288.786 327.995 284.37 327.995 280.986V274.722ZM329.099 280.602H338.843V282.21H329.099V280.602ZM338.531 280.602H338.867L339.179 280.53L340.307 280.962C338.675 287.514 334.403 291.354 329.435 293.226C329.219 292.794 328.763 292.122 328.403 291.786C333.011 290.274 337.115 286.53 338.531 280.914V280.602ZM331.379 281.538C333.011 286.482 336.467 290.202 341.603 291.666C341.219 292.026 340.691 292.722 340.451 293.202C335.147 291.45 331.667 287.466 329.867 281.946L331.379 281.538ZM319.547 276.954H326.891V278.658H319.547V276.954ZM322.523 271.458H324.227V287.034H322.523V271.458ZM319.259 287.442C321.155 286.746 324.011 285.546 326.771 284.37L327.155 285.954C324.659 287.106 322.019 288.282 319.955 289.194L319.259 287.442ZM349.907 274.362H365.171V275.874H349.907V274.362ZM356.459 274.986L358.499 275.178C358.067 276.402 357.467 277.722 357.011 278.61L355.499 278.37C355.859 277.386 356.267 275.97 356.459 274.986ZM360.659 271.194L362.435 271.698C361.643 272.898 360.803 274.218 360.083 275.082L358.643 274.626C359.363 273.69 360.203 272.202 360.659 271.194ZM352.355 271.842L353.795 271.242C354.467 272.034 355.211 273.162 355.499 273.882L354.011 274.578C353.747 273.834 353.027 272.682 352.355 271.842ZM353.579 282.402V284.418H361.355V282.402H353.579ZM353.579 285.69V287.706H361.355V285.69H353.579ZM353.579 279.138V281.13H361.355V279.138H353.579ZM351.875 277.77H363.131V289.098H351.875V277.77ZM344.435 272.01L345.779 271.218C346.883 272.37 348.203 273.906 348.851 274.89L347.459 275.874C346.811 274.866 345.491 273.186 344.435 272.01ZM343.571 276.714H348.827V278.226H343.571V276.714ZM347.843 287.73C349.331 290.874 352.451 291.306 357.227 291.306C359.747 291.306 363.275 291.186 365.723 290.994C365.459 291.378 365.219 292.218 365.123 292.722C362.867 292.842 359.843 292.914 357.203 292.914C351.587 292.914 348.443 292.242 346.643 288.282L347.843 287.73ZM348.179 282.714H348.587L348.899 282.666L349.811 283.002C348.971 288.138 346.979 291.522 344.291 293.322C344.051 292.938 343.451 292.338 343.115 292.074C345.659 290.466 347.507 287.418 348.179 283.026V282.714ZM343.907 284.514V283.146L344.771 282.714H348.779L348.755 284.178H345.323C344.699 284.178 344.075 284.322 343.907 284.514ZM343.907 284.514C343.787 284.106 343.427 283.266 343.235 282.882C343.595 282.786 343.979 282.642 344.387 282.162C345.155 281.418 347.507 278.178 348.323 276.906V276.834L348.875 276.594L350.075 277.17C348.899 278.802 346.667 281.85 345.251 283.386C345.251 283.386 343.907 284.058 343.907 284.514ZM140.387 320.418H160.883V321.858H140.387V320.418ZM143.075 324.09H157.283V325.602H143.075V324.09ZM143.003 316.722H158.051V325.602H156.251V318.21H143.003V316.722ZM141.515 304.842H159.251V306.306H141.515V304.842ZM149.435 305.634H151.211V315.666H149.435V305.634ZM140.267 308.01H160.571V313.41H158.891V309.378H141.923V313.41H140.267V308.01ZM142.427 314.562C143.939 314.226 146.075 313.65 148.235 313.026L148.379 314.178C146.483 314.802 144.611 315.426 143.003 315.906L142.427 314.562ZM143.003 311.202L143.531 310.218C145.091 310.506 147.107 311.034 148.187 311.49L147.659 312.594C146.603 312.114 144.587 311.514 143.003 311.202ZM157.091 310.146L157.907 311.202C156.515 311.778 154.571 312.258 153.179 312.546L152.531 311.634C153.899 311.298 155.939 310.602 157.091 310.146ZM152.219 313.986L152.723 312.954C154.715 313.386 157.307 314.154 158.675 314.802L158.219 315.93C156.827 315.306 154.259 314.466 152.219 313.986ZM171.467 308.37H185.435V310.026H171.467V308.37ZM177.371 304.194H179.123V324.018C179.123 325.098 178.835 325.626 178.163 325.914C177.467 326.226 176.387 326.274 174.467 326.274C174.395 325.818 174.083 325.026 173.819 324.546C175.235 324.594 176.459 324.57 176.843 324.57C177.203 324.546 177.371 324.426 177.371 324.018V304.194ZM170.531 322.29C172.259 320.898 175.115 318.402 177.683 316.05L178.331 317.346C176.075 319.65 173.579 322.05 171.659 323.85L170.531 322.29ZM171.827 312.186L173.243 311.538C174.299 312.906 175.451 314.778 175.883 316.002L174.395 316.722C173.987 315.498 172.883 313.602 171.827 312.186ZM183.539 311.394L185.099 312.234C183.779 314.058 182.099 316.242 180.731 317.61L179.483 316.866C180.779 315.45 182.555 313.098 183.539 311.394ZM180.275 305.394L181.331 304.458C182.363 305.154 183.611 306.234 184.211 306.978L183.131 308.058C182.531 307.242 181.331 306.138 180.275 305.394ZM179.051 310.434C179.963 316.842 181.691 320.25 185.819 323.154C185.411 323.49 184.931 324.042 184.691 324.546C180.323 321.306 178.523 317.514 177.539 310.698L179.051 310.434ZM163.523 305.802H170.915V307.506H163.523V305.802ZM163.715 312.738H170.531V314.442H163.715V312.738ZM163.235 322.002C165.227 321.474 168.203 320.538 171.107 319.626L171.371 321.282C168.659 322.146 165.827 323.058 163.643 323.754L163.235 322.002ZM166.427 306.57H168.107V321.426L166.427 321.762V306.57ZM190.595 312.138V315.018H196.019V312.138H190.595ZM189.011 310.674H197.699V316.506H189.011V310.674ZM187.715 307.146H198.683V308.754H187.715V307.146ZM198.923 310.41H209.315V312.042H198.923V310.41ZM203.747 313.962H205.331V323.274C205.331 323.802 205.379 324.09 205.523 324.186C205.667 324.282 205.859 324.306 206.099 324.306C206.339 324.306 206.843 324.306 207.155 324.306C207.419 324.306 207.707 324.282 207.851 324.21C208.019 324.138 208.139 323.922 208.187 323.514C208.259 323.13 208.283 322.146 208.307 320.922C208.643 321.234 209.267 321.522 209.723 321.666C209.699 322.77 209.603 324.018 209.459 324.498C209.315 324.978 209.051 325.29 208.691 325.458C208.355 325.65 207.755 325.698 207.323 325.698C206.963 325.698 206.075 325.698 205.787 325.698C205.259 325.698 204.659 325.578 204.299 325.29C203.891 324.978 203.747 324.594 203.747 323.082V313.962ZM202.259 304.242H203.963C203.915 311.682 203.723 321.282 198.227 326.274C197.939 325.914 197.387 325.482 196.907 325.218C202.235 320.562 202.211 311.274 202.259 304.242ZM192.635 316.026H194.267V324.33C194.267 325.146 194.123 325.578 193.547 325.842C192.995 326.082 192.203 326.13 190.931 326.106C190.883 325.674 190.619 325.026 190.403 324.618C191.267 324.642 192.059 324.642 192.299 324.618C192.563 324.618 192.635 324.546 192.635 324.306V316.026ZM189.851 317.778L191.363 318.09C190.811 320.274 189.923 322.53 188.915 323.97C188.627 323.73 187.979 323.298 187.619 323.106C188.627 321.738 189.371 319.746 189.851 317.778ZM195.227 318.09L196.523 317.49C197.291 318.81 198.059 320.562 198.323 321.714L196.931 322.362C196.691 321.186 195.971 319.41 195.227 318.09ZM204.875 305.994L206.099 305.298C207.059 306.354 208.139 307.818 208.571 308.802L207.299 309.594C206.867 308.61 205.835 307.098 204.875 305.994ZM191.747 304.53L193.403 304.146C193.979 305.178 194.579 306.594 194.795 307.458L193.067 307.914C192.851 307.026 192.299 305.586 191.747 304.53ZM215.891 312.306V315.93H228.899V312.306H215.891ZM214.355 311.082H230.531V317.154H214.355V311.082ZM218.291 308.562H226.667V309.834H218.291V308.562ZM221.603 311.514H223.115V316.53H221.603V311.514ZM217.355 313.026L218.651 312.594C219.275 313.434 219.851 314.562 220.091 315.33L218.699 315.834C218.507 315.066 217.955 313.89 217.355 313.026ZM225.995 312.498L227.531 312.978C227.003 314.01 226.379 315.114 225.899 315.834L224.651 315.402C225.107 314.586 225.707 313.314 225.995 312.498ZM215.771 318.306H229.331V326.154H227.507V319.578H217.547V326.25H215.771V318.306ZM216.827 321.186H228.299V322.506H216.827V321.186ZM216.827 324.138H228.299V325.434H216.827V324.138ZM222.251 304.074L223.859 304.674C221.315 307.986 216.803 310.29 212.363 311.73C212.171 311.37 211.667 310.626 211.331 310.314C215.723 309.114 220.019 307.002 222.251 304.074ZM223.307 304.914C225.515 307.218 229.859 309.234 233.747 310.146C233.363 310.458 232.859 311.106 232.595 311.538C228.707 310.482 224.339 308.178 221.915 305.514L223.307 304.914ZM236.387 307.146H245.363V308.754H236.387V307.146ZM235.475 311.802H245.843V313.434H235.475V311.802ZM241.115 316.746H245.459V318.33H241.115V316.746ZM240.059 304.194H241.739V312.714H240.059V304.194ZM240.443 312.858H242.099V323.706H240.443V312.858ZM238.211 317.874C239.627 322.914 242.531 323.922 248.099 323.922C249.203 323.922 256.283 323.922 257.699 323.874C257.411 324.282 257.099 325.122 256.979 325.65H248.123C241.643 325.65 238.571 324.354 236.891 318.33L238.211 317.874ZM250.979 304.194H252.635C252.611 313.794 253.931 321.066 255.587 321.066C255.995 321.066 256.211 319.986 256.283 317.586C256.619 317.922 257.171 318.258 257.555 318.426C257.291 321.666 256.787 322.698 255.419 322.674C252.275 322.674 251.123 314.274 250.979 304.194ZM253.355 305.058L254.627 304.41C255.443 305.298 256.451 306.522 256.979 307.266L255.707 308.034C255.179 307.266 254.171 305.97 253.355 305.058ZM236.843 315.042L238.379 315.114C238.427 318.69 238.187 323.01 236.291 326.202C236.027 325.818 235.427 325.29 235.067 325.122C236.747 322.242 236.915 318.234 236.843 315.042ZM255.563 311.418L256.979 311.802C255.515 316.89 252.731 321.114 249.059 323.322C248.771 322.938 248.291 322.338 247.931 322.026C251.483 320.13 254.219 316.026 255.563 311.418ZM246.443 308.346H257.483V309.906H246.443V308.346ZM246.155 320.946L245.915 319.41L246.443 318.738L250.787 316.362C250.883 316.794 251.075 317.442 251.243 317.754C247.115 320.13 246.491 320.538 246.155 320.946ZM246.155 320.946C246.035 320.514 245.651 319.746 245.363 319.338C245.771 319.122 246.443 318.618 246.443 317.682V309.042H248.075V319.29C248.075 319.29 246.155 320.322 246.155 320.946ZM265.403 306.33H281.171V307.794H265.403V306.33ZM273.899 316.362C275.171 320.202 277.859 323.346 281.651 324.69C281.267 325.026 280.739 325.602 280.499 326.034C276.539 324.426 273.827 321.018 272.411 316.698L273.899 316.362ZM271.811 316.194L273.395 316.65C271.667 319.218 268.667 321.162 265.115 322.434C264.875 322.074 264.323 321.45 263.939 321.186C267.347 320.058 270.371 318.306 271.811 316.194ZM279.563 317.922L280.979 318.81C279.779 320.01 278.171 321.378 276.923 322.242L275.747 321.45C276.971 320.562 278.627 319.002 279.563 317.922ZM271.091 304.626L272.675 304.218C273.155 304.962 273.731 306.042 273.971 306.666L272.291 307.17C272.051 306.522 271.523 305.418 271.091 304.626ZM268.091 326.202L268.019 324.786L268.835 324.162L274.307 323.178C274.283 323.658 274.283 324.282 274.331 324.618C269.267 325.674 268.547 325.914 268.091 326.202ZM260.603 305.922L261.491 304.602C262.763 305.274 264.491 306.354 265.379 307.05L264.491 308.562C263.627 307.794 261.899 306.666 260.603 305.922ZM259.307 312.546L260.123 311.202C261.443 311.706 263.243 312.666 264.155 313.362L263.291 314.898C262.427 314.178 260.651 313.17 259.307 312.546ZM259.931 324.57C260.939 322.794 262.403 319.794 263.507 317.178L264.707 318.306C263.723 320.73 262.403 323.586 261.299 325.746L259.931 324.57ZM268.667 313.362V315.978H276.947V313.362H268.667ZM267.203 311.946H278.459V317.394H267.203V311.946ZM269.939 308.37H271.547C271.139 310.626 269.699 311.562 265.547 312.066C265.427 311.682 265.019 311.058 264.731 310.746C268.403 310.482 269.603 309.93 269.939 308.37ZM274.403 307.362H276.035V309.522C276.035 310.026 276.083 310.146 276.515 310.146C276.899 310.146 278.555 310.146 278.963 310.146C279.371 310.146 280.091 310.122 280.427 310.074C280.451 310.458 280.499 310.938 280.547 311.322C280.259 311.418 279.611 311.442 279.035 311.442C278.531 311.442 276.611 311.442 276.227 311.442C274.715 311.442 274.403 310.866 274.403 309.498V307.362ZM268.091 326.202C267.995 325.818 267.683 325.098 267.443 324.786C267.731 324.618 268.019 324.306 268.019 323.418V319.698H269.579V324.81C269.579 324.81 268.091 325.65 268.091 326.202ZM284.387 307.146H293.363V308.754H284.387V307.146ZM283.475 311.802H293.843V313.434H283.475V311.802ZM289.115 316.746H293.459V318.33H289.115V316.746ZM288.059 304.194H289.739V312.714H288.059V304.194ZM288.443 312.858H290.099V323.706H288.443V312.858ZM286.211 317.874C287.627 322.914 290.531 323.922 296.099 323.922C297.203 323.922 304.283 323.922 305.699 323.874C305.411 324.282 305.099 325.122 304.979 325.65H296.123C289.643 325.65 286.571 324.354 284.891 318.33L286.211 317.874ZM298.979 304.194H300.635C300.611 313.794 301.931 321.066 303.587 321.066C303.995 321.066 304.211 319.986 304.283 317.586C304.619 317.922 305.171 318.258 305.555 318.426C305.291 321.666 304.787 322.698 303.419 322.674C300.275 322.674 299.123 314.274 298.979 304.194ZM301.355 305.058L302.627 304.41C303.443 305.298 304.451 306.522 304.979 307.266L303.707 308.034C303.179 307.266 302.171 305.97 301.355 305.058ZM284.843 315.042L286.379 315.114C286.427 318.69 286.187 323.01 284.291 326.202C284.027 325.818 283.427 325.29 283.067 325.122C284.747 322.242 284.915 318.234 284.843 315.042ZM303.563 311.418L304.979 311.802C303.515 316.89 300.731 321.114 297.059 323.322C296.771 322.938 296.291 322.338 295.931 322.026C299.483 320.13 302.219 316.026 303.563 311.418ZM294.443 308.346H305.483V309.906H294.443V308.346ZM294.155 320.946L293.915 319.41L294.443 318.738L298.787 316.362C298.883 316.794 299.075 317.442 299.243 317.754C295.115 320.13 294.491 320.538 294.155 320.946ZM294.155 320.946C294.035 320.514 293.651 319.746 293.363 319.338C293.771 319.122 294.443 318.618 294.443 317.682V309.042H296.075V319.29C296.075 319.29 294.155 320.322 294.155 320.946ZM307.931 311.082H329.027V312.906H307.931V311.082ZM319.619 311.802C321.179 317.61 324.443 322.458 329.435 324.522C328.979 324.93 328.379 325.698 328.067 326.202C322.883 323.754 319.619 318.69 317.819 312.234L319.619 311.802ZM317.507 304.194H319.451C319.355 310.482 319.307 321.426 308.819 326.226C308.531 325.746 307.955 325.098 307.451 324.738C317.651 320.298 317.459 309.954 317.507 304.194Z" fill="black"/>
<path d="M189.071 488.643H167.611V512.138H189.071V488.643Z" fill="#1E4C7A"/>
<path d="M243.903 481.408H222.443V512.138H243.903V481.408Z" fill="#1E4C7A"/>
<path d="M307.589 408.042H286.13V512.138H307.589V408.042Z" fill="#1E4C7A"/>
<path d="M151.947 491.58C151.271 491.58 150.586 491.345 150.028 490.865C148.804 489.808 148.657 487.948 149.724 486.724L175.266 457.09C175.824 456.444 176.637 456.072 177.489 456.072H202.512L314.381 346.229C315.536 345.093 317.396 345.113 318.532 346.268C319.668 347.423 319.648 349.283 318.493 350.419L205.772 461.104C205.223 461.642 204.479 461.946 203.716 461.946H178.84L154.179 490.552C153.601 491.227 152.779 491.57 151.956 491.57L151.947 491.58Z" fill="#F65B4A"/>
<path d="M178.683 467.016C183.106 467.016 186.691 463.431 186.691 459.008C186.691 454.585 183.106 451 178.683 451C174.26 451 170.675 454.585 170.675 459.008C170.675 463.431 174.26 467.016 178.683 467.016Z" fill="#FAB541"/>
<path d="M297.542 374.551C301.965 374.551 305.55 370.966 305.55 366.543C305.55 362.12 301.965 358.535 297.542 358.535C293.12 358.535 289.534 362.12 289.534 366.543C289.534 370.966 293.12 374.551 297.542 374.551Z" fill="#FAB541"/>
<path d="M233.487 460.761C217.128 460.467 203.98 446.996 204.127 430.686C204.185 424.185 206.339 418.214 209.952 413.407C211.968 410.714 214.455 408.384 217.265 406.534C221.984 403.421 227.652 401.629 233.751 401.688V389.539C225.146 389.461 217.138 391.977 210.48 396.372C206.515 398.986 203.02 402.276 200.162 406.074C195.061 412.868 192.017 421.297 191.938 430.461H191.928C191.723 453.487 210.275 472.489 233.369 472.9C233.496 472.9 233.624 472.9 233.751 472.9V460.751C233.663 460.751 233.575 460.751 233.477 460.751L233.487 460.761Z" fill="#F8C700"/>
<path d="M236.298 389.579C236.093 389.569 235.897 389.579 235.691 389.569C235.172 389.54 234.654 389.549 234.145 389.54C234.017 389.54 233.89 389.54 233.763 389.54V401.689C233.851 401.689 233.939 401.689 234.037 401.689C234.399 401.689 234.771 401.689 235.133 401.708C235.28 401.708 235.417 401.708 235.564 401.708C251.208 402.785 263.544 415.963 263.397 431.763C263.25 447.985 250.004 460.908 233.763 460.761V472.911C256.681 473.116 275.37 454.877 275.585 431.989C275.791 409.687 258.384 391.096 236.308 389.579H236.298Z" fill="#FAAA00"/>
<path d="M238.178 438.625C238.227 436.941 236.357 436.168 233.763 435.482V441.415C235.995 441.444 238.129 440.456 238.178 438.625Z" fill="#F3EA53"/>
<path d="M209.953 413.406C206.341 418.223 204.187 424.195 204.128 430.686C203.981 446.996 217.129 460.467 233.488 460.76C233.576 460.76 233.664 460.76 233.762 460.76V452.928H228.906V449.11C222.063 447.75 217.942 443.599 218.128 437.47L229.2 437.715C229.122 440.143 231.236 441.366 233.694 441.425C233.713 441.425 233.743 441.425 233.762 441.425V435.493C233.067 435.316 232.323 435.14 231.55 434.954C225.96 433.613 218.823 431.958 219.048 424.234C219.214 418.644 223.277 415.149 229.983 414.268V410.283H233.762V401.688C227.663 401.629 221.995 403.411 217.276 406.534C214.466 408.384 211.989 410.714 209.963 413.406H209.953Z" fill="#F3EA53"/>
<path d="M229.98 424.206C229.941 425.615 231.488 426.369 233.749 427.015V421.983C231.86 421.964 230.029 422.639 229.98 424.206Z" fill="#F3EA53"/>
<path d="M239 410.274V414.581C245.295 415.952 248.702 419.839 248.536 425.438L237.767 425.203C237.835 423.059 236.024 422.012 233.802 421.963C233.782 421.963 233.763 421.963 233.753 421.963V426.995C234.585 427.23 235.505 427.455 236.484 427.7C242.172 429.11 249.603 430.94 249.387 438.674V438.694C249.387 438.694 249.387 438.684 249.387 438.674C249.201 444.803 244.62 448.386 237.933 449.336V452.919H233.753V460.751C249.994 460.897 263.23 447.975 263.387 431.753C263.534 415.952 251.199 402.775 235.554 401.698C235.407 401.698 235.27 401.698 235.124 401.698C234.761 401.678 234.389 401.688 234.027 401.678C233.939 401.678 233.851 401.678 233.753 401.678V410.274H239Z" fill="#F8C700"/>
<path d="M237.933 449.345C244.62 448.396 249.201 444.813 249.387 438.684C249.603 430.95 242.172 429.129 236.484 427.71C235.505 427.475 234.585 427.25 233.753 427.005V435.483C236.357 436.158 238.227 436.942 238.168 438.626C238.109 440.456 235.975 441.455 233.753 441.416V452.929H237.933V449.345Z" fill="#FAAA00"/>
<path d="M233.681 441.425C231.234 441.367 229.119 440.153 229.188 437.715L218.115 437.47C217.929 443.599 222.041 447.75 228.894 449.11V452.929H233.75V441.416C233.75 441.416 233.701 441.416 233.681 441.416V441.425Z" fill="#F8C700"/>
<path d="M233.802 421.973C236.024 422.022 237.835 423.069 237.767 425.213L248.536 425.448C248.702 419.839 245.295 415.962 239 414.591V410.284H233.753V421.983C233.753 421.983 233.782 421.983 233.802 421.983V421.973Z" fill="#FAAA00"/>
<path d="M229.981 424.205C230.03 422.639 231.861 421.953 233.75 421.983V410.284H229.971V414.268C223.265 415.139 219.202 418.644 219.036 424.234C218.801 431.959 225.948 433.613 231.538 434.954C232.311 435.14 233.055 435.307 233.75 435.493V427.015C231.489 426.369 229.942 425.615 229.981 424.205Z" fill="#F8C700"/>
<defs>
<filter id="filter0_d_1114_1008" x="30.4199" y="110.538" width="410.749" height="462.462" filterUnits="userSpaceOnUse" color-interpolation-filters="sRGB">
<feFlood flood-opacity="0" result="BackgroundImageFix"/>
<feColorMatrix in="SourceAlpha" type="matrix" values="0 0 0 0 0 0 0 0 0 0 0 0 0 0 0 0 0 0 127 0" result="hardAlpha"/>
<feOffset dx="1" dy="2"/>
<feGaussianBlur stdDeviation="15"/>
<feComposite in2="hardAlpha" operator="out"/>
<feColorMatrix type="matrix" values="0 0 0 0 0 0 0 0 0 0 0 0 0 0 0 0 0 0 0.25 0"/>
<feBlend mode="normal" in2="BackgroundImageFix" result="effect1_dropShadow_1114_1008"/>
<feBlend mode="normal" in="SourceGraphic" in2="effect1_dropShadow_1114_1008" result="shape"/>
</filter>
<filter id="filter1_d_1114_1008" x="0" y="0" width="469.442" height="259.319" filterUnits="userSpaceOnUse" color-interpolation-filters="sRGB">
<feFlood flood-opacity="0" result="BackgroundImageFix"/>
<feColorMatrix in="SourceAlpha" type="matrix" values="0 0 0 0 0 0 0 0 0 0 0 0 0 0 0 0 0 0 127 0" result="hardAlpha"/>
<feOffset dy="4"/>
<feGaussianBlur stdDeviation="10"/>
<feComposite in2="hardAlpha" operator="out"/>
<feColorMatrix type="matrix" values="0 0 0 0 0 0 0 0 0 0 0 0 0 0 0 0 0 0 0.25 0"/>
<feBlend mode="normal" in2="BackgroundImageFix" result="effect1_dropShadow_1114_1008"/>
<feBlend mode="normal" in="SourceGraphic" in2="effect1_dropShadow_1114_1008" result="shape"/>
</filter>
<linearGradient id="paint0_linear_1114_1008" x1="62.7195" y1="16" x2="375.974" y2="332.302" gradientUnits="userSpaceOnUse">
<stop stop-color="#7FE1FE"/>
<stop offset="0.449935" stop-color="#429DDB"/>
<stop offset="1" stop-color="#0149A6"/>
<stop offset="1" stop-color="#2C73D0"/>
</linearGradient>
<linearGradient id="paint1_linear_1114_1008" x1="41.2891" y1="167.759" x2="401.636" y2="580.977" gradientUnits="userSpaceOnUse">
<stop stop-color="#7CDEFD"/>
<stop offset="0.520833" stop-color="#368ED2"/>
<stop offset="1" stop-color="#2071BF"/>
</linearGradient>
</defs>
</svg>
