<svg width="210" height="341" viewBox="0 0 210 341" fill="none" xmlns="http://www.w3.org/2000/svg">
<g filter="url(#filter0_d_1114_1014)">
<rect x="32" y="67.0122" width="146.035" height="241.058" fill="white"/>
</g>
<g filter="url(#filter1_d_1114_1014)">
<path d="M179.533 64.4116V16H30.467V64.4116H20L105 107.927L190 64.4116H179.533Z" fill="url(#paint0_linear_1114_1014)"/>
</g>
<path d="M31.4512 312.071V81.9688L35.2149 83.7899V308.296H174.703V83.856L178.467 82.0348V312.071H31.4512Z" fill="url(#paint1_linear_1114_1014)"/>
<path d="M51.5216 61.56H67.5416V63.792H51.5216V61.56ZM60.7556 62.46C61.8356 66.582 64.1216 70.002 67.9376 71.514C67.3976 72 66.6776 72.936 66.3176 73.566C62.1956 71.64 59.9456 67.914 58.5776 62.964L60.7556 62.46ZM58.2716 56.718H60.6476C60.5576 62.208 60.5216 69.84 52.7996 73.566C52.4576 72.972 51.7916 72.198 51.1616 71.73C58.5416 68.436 58.2176 61.596 58.2716 56.718ZM74.3276 59.49V61.92H80.6636V59.49H74.3276ZM72.2396 57.438H82.8776V63.972H72.2396V57.438ZM69.7736 65.484H76.6496V73.512H74.4896V67.536H71.8076V73.62H69.7736V65.484ZM78.1796 65.484H85.3076V73.53H83.1296V67.536H80.2496V73.62H78.1796V65.484ZM70.6736 70.65H75.3896V72.72H70.6736V70.65ZM79.1696 70.65H84.2096V72.72H79.1696V70.65ZM97.2956 56.736L99.7076 57.06C99.2216 57.906 98.7896 58.68 98.4296 59.238L96.3776 58.878C96.7196 58.266 97.0976 57.366 97.2956 56.736ZM96.0176 63.072V64.314H101.112V63.072H96.0176ZM96.0176 60.246V61.488H101.112V60.246H96.0176ZM94.0376 58.554H103.164V66.024H94.0376V58.554ZM93.5336 68.274H103.938V70.182H93.5336V68.274ZM99.2936 66.402H101.22V73.602H99.2936V66.402ZM97.6376 59.184H99.5276V62.316C99.5276 63.342 98.8436 66.906 95.9276 68.94C95.6216 68.544 94.9196 67.986 94.4876 67.68C97.1156 65.988 97.6376 63.504 97.6376 62.316V59.184ZM89.2676 61.47H93.1736V63.288H89.2676V61.47ZM91.3916 56.736H93.1736V62.55H91.3916V56.736ZM89.3036 65.358H93.1376V73.638H91.1576V67.176H89.3036V65.358ZM88.1516 57.186H90.0956V63.918C90.0956 66.726 89.8796 70.812 88.8176 73.602C88.3496 73.404 87.4676 73.116 86.9096 72.99C87.9896 70.398 88.1516 66.438 88.1516 63.918V57.186ZM105.558 64.404H121.506V66.312H105.558V64.404ZM113.622 67.662H120.354V69.516H113.622V67.662ZM112.614 65.376H114.792V72.036H112.614V65.376ZM109.824 68.256C110.814 70.884 113.1 71.298 116.25 71.316C117.24 71.334 120.714 71.316 122.01 71.28C121.704 71.748 121.38 72.702 121.272 73.332H116.124C111.984 73.332 109.518 72.594 108.042 68.832L109.824 68.256ZM108.258 66.69L110.418 66.996C109.824 69.966 108.528 72.234 106.53 73.656C106.206 73.26 105.378 72.468 104.91 72.144C106.746 71.01 107.844 69.102 108.258 66.69ZM109.32 61.182V62.082H117.582V61.182H109.32ZM109.32 58.86V59.76H117.582V58.86H109.32ZM107.232 57.33H119.778V63.612H107.232V57.33ZM124.206 57.816H138.804V59.94H124.206V57.816ZM125.052 63.99H138.102V66.114H125.052V63.99ZM123.324 70.704H139.722V72.828H123.324V70.704ZM130.344 58.374H132.63V72.072H130.344V58.374ZM146.13 58.86H157.668V60.606H146.13V58.86ZM150.63 59.652L153.114 59.814C152.736 60.786 152.196 61.74 151.818 62.388L150.054 62.118C150.288 61.362 150.522 60.372 150.63 59.652ZM153.762 56.7L155.85 57.276C155.238 58.176 154.644 59.058 154.14 59.652L152.448 59.112C152.916 58.446 153.474 57.438 153.762 56.7ZM147.678 57.438L149.388 56.754C149.784 57.312 150.306 58.086 150.54 58.572L148.758 59.346C148.56 58.842 148.074 58.032 147.678 57.438ZM149.532 65.376V66.366H154.14V65.376H149.532ZM149.532 67.734V68.724H154.14V67.734H149.532ZM149.532 63.036V64.008H154.14V63.036H149.532ZM147.498 61.506H156.264V70.254H147.498V61.506ZM141.72 57.708L143.322 56.718C144.186 57.564 145.194 58.698 145.734 59.418L144.078 60.624C143.592 59.85 142.548 58.59 141.72 57.708ZM141.27 60.912H145.086V62.64H141.27V60.912ZM144.924 68.742C145.896 71.172 148.002 71.46 151.26 71.478C153.186 71.478 156.156 71.352 158.19 71.172C157.902 71.604 157.614 72.576 157.506 73.17C155.634 73.278 153.33 73.332 151.224 73.332C147.048 73.332 144.816 72.774 143.484 69.318L144.924 68.742ZM144.492 65.286H144.996L145.338 65.25L146.382 65.628C145.77 69.606 144.294 72.27 142.188 73.638C141.918 73.224 141.216 72.486 140.82 72.198C142.764 71.028 144.042 68.778 144.492 65.61V65.286ZM141.612 67.248V65.7L142.386 65.286H145.104L145.086 66.96H142.71C142.278 66.96 141.756 67.086 141.612 67.248ZM141.612 67.248C141.486 66.798 141.108 65.88 140.91 65.484C141.216 65.412 141.504 65.286 141.846 64.908C142.386 64.404 144.006 62.1 144.618 61.11V61.056L145.176 60.822L146.49 61.416C145.644 62.658 144.078 64.89 143.052 66.06C143.052 66.06 141.612 66.762 141.612 67.248Z" fill="black"/>
<path d="M53.6852 142.016H58.3832V143.186H53.6852V142.016ZM53.1092 138.974H54.3872V147.578L53.1092 147.092V138.974ZM50.4992 142.736C51.3812 146.3 53.3252 147.056 55.9892 147.056C56.3852 147.056 58.7612 147.056 59.3192 147.056C59.1392 147.344 58.9412 147.938 58.9052 148.298H55.8812C52.6592 148.298 50.5892 147.344 49.4912 143.114L50.4992 142.736ZM50.8232 131.918L52.1192 132.116C51.5072 135.176 50.3012 137.732 48.5372 139.37C48.3572 139.136 47.8352 138.65 47.5292 138.452C49.2392 136.994 50.3012 134.654 50.8232 131.918ZM55.6652 131.918L56.9792 132.08C56.4932 135.212 55.3592 137.588 53.5232 139.118C53.3072 138.884 52.7492 138.47 52.4432 138.272C54.2612 136.94 55.2692 134.744 55.6652 131.918ZM50.3732 135.572L51.0212 134.654C51.8312 135.266 52.8572 136.13 53.3612 136.67L52.6952 137.714C52.2092 137.138 51.1832 136.22 50.3732 135.572ZM55.0892 135.59L55.9892 134.798C57.1952 135.806 58.7072 137.282 59.4092 138.2L58.4732 139.118C57.7712 138.164 56.3132 136.652 55.0892 135.59ZM49.5812 140.288L50.9132 140.378C50.6612 144.05 49.8872 146.66 47.9612 148.424C47.7632 148.208 47.2232 147.758 46.9352 147.56C48.7712 146.048 49.4192 143.564 49.5812 140.288ZM46.8272 135.572L48.0512 136.022C46.8092 138.182 44.9192 140.36 43.1552 141.8C43.0292 141.512 42.6332 140.882 42.3812 140.594C44.0552 139.37 45.7652 137.48 46.8272 135.572ZM46.4132 131.918L47.6192 132.386C46.5752 133.898 44.8832 135.59 43.3532 136.67C43.1732 136.4 42.8312 135.932 42.5972 135.68C44.0012 134.726 45.6212 133.196 46.4132 131.918ZM45.2072 138.92L46.3052 137.822L46.4852 137.912V148.532H45.2072V138.92ZM66.5732 140.144H77.3012V141.332H66.5732V140.144ZM70.9472 138.146H72.1892V146.768C72.1892 147.524 72.0452 147.884 71.5052 148.1C70.9832 148.298 70.1012 148.316 68.7692 148.316C68.7152 147.956 68.5532 147.434 68.3732 147.074C69.3812 147.11 70.3172 147.092 70.5872 147.092C70.8932 147.074 70.9472 147.002 70.9472 146.768V138.146ZM75.5732 132.098L76.5092 133.088C74.0792 133.79 70.3892 134.258 67.2572 134.474C67.2212 134.204 67.0592 133.736 66.9152 133.448C69.9752 133.178 73.5752 132.71 75.5732 132.098ZM67.4192 137.534H75.9692V144.212H67.3472V143.096H74.7812V138.668H67.4192V137.534ZM67.4012 135.086L68.3552 134.672C68.8412 135.374 69.3452 136.346 69.5252 136.976L68.4992 137.462C68.3192 136.814 67.8692 135.806 67.4012 135.086ZM70.6952 134.708L71.7032 134.438C72.0992 135.212 72.4232 136.238 72.5312 136.904L71.4512 137.21C71.3612 136.544 71.0552 135.482 70.6952 134.708ZM75.1232 133.934L76.3112 134.33C75.8432 135.284 75.2492 136.346 74.7632 137.03L73.7012 136.67C74.1692 135.932 74.7812 134.744 75.1232 133.934ZM62.0552 133.016H66.0872V145.472H62.0552V144.266H64.9712V134.222H62.0552V133.016ZM62.0552 136.724H65.6552V137.912H62.0552V136.724ZM62.0552 140.468H65.6552V141.62H62.0552V140.468ZM61.4252 133.016H62.5412V147.056H61.4252V133.016ZM86.6972 132.71H94.0952V140.612H86.6972V139.424H92.7992V133.898H86.6972V132.71ZM86.7692 136.076H93.4112V137.21H86.7692V136.076ZM90.1172 139.91C90.8732 143.294 92.5652 145.994 95.3552 147.164C95.0492 147.434 94.6352 147.956 94.4192 148.334C91.5212 146.912 89.8472 143.942 89.0012 140.126L90.1172 139.91ZM94.2032 141.206L95.1032 142.142C94.0232 143.006 92.5652 143.942 91.4852 144.536L90.7472 143.672C91.8092 143.06 93.3392 141.998 94.2032 141.206ZM85.7972 148.478L85.7072 147.272L86.3552 146.768L90.3692 145.796C90.3692 146.174 90.3872 146.732 90.4412 147.02C86.7152 148.046 86.1572 148.244 85.7972 148.478ZM85.7972 148.478C85.7072 148.172 85.4192 147.614 85.2032 147.362C85.4912 147.2 85.8692 146.822 85.8692 146.084V132.71H87.1832V147.146C87.1832 147.146 85.7972 147.974 85.7972 148.478ZM80.0552 133.034H84.3032V145.508H80.0552V144.302H83.1692V134.258H80.0552V133.034ZM80.0552 136.76H83.9252V137.93H80.0552V136.76ZM80.0552 140.486H83.9252V141.656H80.0552V140.486ZM79.3352 133.034H80.5232V147.074H79.3352V133.034ZM97.7492 141.314H106.191V142.502H97.7492V141.314ZM101.295 139.37H102.573V146.336H101.295V139.37ZM97.1372 146.282C99.4052 145.922 102.987 145.274 106.371 144.626L106.443 145.814C103.239 146.444 99.8012 147.11 97.4432 147.56L97.1372 146.282ZM97.2812 133.088H106.551V134.294H97.2812V133.088ZM102.843 135.464L103.815 134.87C104.823 136.094 106.029 137.732 106.551 138.758L105.525 139.442C105.003 138.398 103.833 136.706 102.843 135.464ZM107.559 133.466H108.819V144.374H107.559V133.466ZM111.123 132.206H112.437V146.354C112.437 147.2 112.221 147.614 111.699 147.83C111.123 148.046 110.169 148.082 108.855 148.082C108.801 147.722 108.567 147.11 108.369 146.732C109.413 146.768 110.403 146.768 110.727 146.768C111.033 146.75 111.123 146.66 111.123 146.354V132.206ZM98.1452 139.118C98.0732 138.83 97.8752 138.2 97.7132 137.858C97.9832 137.804 98.2532 137.48 98.5772 137.048C98.9012 136.616 99.9272 134.978 100.521 133.394L101.835 133.916C101.061 135.554 99.9812 137.246 98.9912 138.398V138.416C98.9912 138.416 98.1452 138.83 98.1452 139.118ZM98.1452 139.118L98.1272 138.146L98.8472 137.714L104.895 137.21C105.039 137.552 105.309 137.984 105.471 138.254C99.3152 138.848 98.5952 138.92 98.1452 139.118ZM118.467 140.918H127.611V142.052H118.467V140.918ZM123.579 139.316H124.803V146.624C124.803 147.236 124.677 147.578 124.227 147.776C123.795 147.974 123.111 147.974 122.031 147.974C121.959 147.65 121.779 147.164 121.599 146.858C122.373 146.876 123.075 146.876 123.291 146.876C123.507 146.858 123.579 146.804 123.579 146.606V139.316ZM123.345 141.656L124.317 142.07C123.093 144.014 120.825 145.904 118.845 146.876C118.629 146.57 118.269 146.138 117.981 145.904C119.961 145.094 122.193 143.384 123.345 141.656ZM116.307 135.23H121.311V136.22H116.307V135.23ZM124.605 135.23H129.699V136.22H124.605V135.23ZM129.141 132.674H130.491V146.66C130.491 147.56 130.275 147.992 129.681 148.226C129.069 148.442 128.043 148.46 126.459 148.46C126.387 148.082 126.171 147.452 125.955 147.074C127.161 147.128 128.331 147.11 128.691 147.092C129.015 147.092 129.141 146.984 129.141 146.642V132.674ZM116.415 132.674H122.175V138.866H116.415V137.822H120.897V133.718H116.415V132.674ZM129.807 132.674V133.718H125.091V137.858H129.807V138.884H123.795V132.674H129.807ZM115.641 132.674H116.973V148.478H115.641V132.674ZM140.697 132.71H148.095V140.612H140.697V139.424H146.799V133.898H140.697V132.71ZM140.769 136.076H147.411V137.21H140.769V136.076ZM144.117 139.91C144.873 143.294 146.565 145.994 149.355 147.164C149.049 147.434 148.635 147.956 148.419 148.334C145.521 146.912 143.847 143.942 143.001 140.126L144.117 139.91ZM148.203 141.206L149.103 142.142C148.023 143.006 146.565 143.942 145.485 144.536L144.747 143.672C145.809 143.06 147.339 141.998 148.203 141.206ZM139.797 148.478L139.707 147.272L140.355 146.768L144.369 145.796C144.369 146.174 144.387 146.732 144.441 147.02C140.715 148.046 140.157 148.244 139.797 148.478ZM139.797 148.478C139.707 148.172 139.419 147.614 139.203 147.362C139.491 147.2 139.869 146.822 139.869 146.084V132.71H141.183V147.146C141.183 147.146 139.797 147.974 139.797 148.478ZM134.055 133.034H138.303V145.508H134.055V144.302H137.169V134.258H134.055V133.034ZM134.055 136.76H137.925V137.93H134.055V136.76ZM134.055 140.486H137.925V141.656H134.055V140.486ZM133.335 133.034H134.523V147.074H133.335V133.034ZM157.545 143.636L157.131 142.682C158.607 142.088 159.417 141.17 159.417 139.802L159.075 138.29L160.047 139.658C159.795 139.982 159.435 140.072 159.093 140.072C158.355 140.072 157.743 139.622 157.743 138.776C157.743 137.93 158.391 137.48 159.111 137.48C160.119 137.48 160.659 138.308 160.659 139.568C160.659 141.512 159.435 142.988 157.545 143.636ZM61.4252 170.238H66.7532V171.516H61.4252V170.238ZM60.8672 158.466H67.3472V172.758H65.9972V159.744H62.1632V172.956H60.8672V158.466ZM55.5392 159.942H56.9072V163.56C56.9072 166.62 56.2952 170.76 52.5692 173.424C52.3892 173.136 51.9032 172.614 51.6152 172.416C55.1252 169.914 55.5392 166.332 55.5392 163.542V159.942ZM53.6852 159.33H59.7512V160.59H53.6852V159.33ZM51.8132 164.172H60.2912V165.468H51.8132V164.172ZM56.4752 166.548C57.1772 167.178 59.6432 169.95 60.2192 170.634L59.3012 171.768C58.5452 170.67 56.4752 168.204 55.6472 167.322L56.4752 166.548ZM53.8472 156.9L55.1612 157.152C54.6392 159.564 53.7752 161.886 52.7132 163.416C52.4792 163.2 51.9032 162.822 51.5972 162.642C52.6772 161.256 53.4152 159.096 53.8472 156.9ZM75.5732 171.498H84.2672V172.74H75.5732V171.498ZM74.9612 158.718H81.5672V159.924H74.9612V158.718ZM75.7712 156.846L77.2832 157.152C75.9332 159.492 73.7732 161.94 70.6412 163.794C70.4432 163.452 69.9932 162.984 69.6872 162.75C72.6572 161.13 74.7272 158.808 75.7712 156.846ZM81.1172 158.718H81.3692L81.6212 158.646L82.5212 159.132C80.3612 164.568 75.2852 168.186 70.3892 169.77C70.2272 169.41 69.8852 168.852 69.5972 168.564C74.2592 167.214 79.2452 163.686 81.1172 158.952V158.718ZM72.7112 161.922L73.7192 161.058C75.1412 162.03 76.8692 163.47 77.6972 164.496L76.5992 165.468C75.8432 164.442 74.1332 162.93 72.7112 161.922ZM83.6012 165.81H84.9872V173.496H83.6012V165.81ZM76.1852 165.81H84.2852V167.052H76.1852V173.46H74.8352V166.872L75.9152 165.81H76.1852ZM96.1472 165.972H102.105V167.214H96.1472V165.972ZM88.4432 171.696H103.797V172.938H88.4432V171.696ZM95.4632 161.832H96.8672V172.416H95.4632V161.832ZM90.7292 165.018H92.0432V172.308H90.7292V165.018ZM95.9852 156.738L97.1912 157.314C95.2112 160.302 91.9712 162.912 88.5512 164.442C88.3352 164.1 87.9572 163.632 87.6152 163.308C90.9452 161.958 94.2032 159.51 95.9852 156.738ZM96.5792 157.674C98.8652 160.464 101.601 162.048 104.517 163.308C104.193 163.596 103.815 164.064 103.635 164.442C100.683 163.02 98.0012 161.31 95.4812 158.196L96.5792 157.674ZM106.155 168.024H121.923V169.158H106.155V168.024ZM106.227 160.122H121.851V161.238H106.227V160.122ZM106.947 163.236H121.203V164.334H106.947V163.236ZM107.865 165.648H120.321V166.692H107.865V165.648ZM113.319 163.722H114.651V173.478H113.319V163.722ZM111.681 156.9H112.941V160.662H111.681V156.9ZM115.083 156.9H116.379V160.608H115.083V156.9ZM119.259 157.116L120.645 157.494C120.105 158.484 119.475 159.546 118.971 160.248L117.873 159.888C118.359 159.132 118.953 157.944 119.259 157.116ZM116.937 161.184L118.323 161.562C117.873 162.246 117.369 162.912 116.955 163.398L115.839 163.056C116.199 162.516 116.685 161.706 116.937 161.184ZM107.685 157.494L108.837 157.08C109.467 157.89 110.133 159.024 110.385 159.762L109.179 160.212C108.927 159.492 108.279 158.34 107.685 157.494ZM109.935 161.472L111.195 161.166C111.609 161.742 112.023 162.516 112.203 163.038L110.907 163.38C110.763 162.876 110.349 162.066 109.935 161.472ZM111.429 170.076L112.437 170.562C111.141 171.534 108.765 172.47 106.893 172.884C106.713 172.56 106.335 172.128 106.065 171.876C107.937 171.57 110.241 170.85 111.429 170.076ZM115.821 170.724L116.649 169.986C118.341 170.562 120.663 171.426 121.887 172.002L121.041 172.848C119.853 172.272 117.549 171.336 115.821 170.724ZM133.605 157.116H134.955V173.46H133.605V157.116ZM129.141 162.678H139.581V163.938H129.141V162.678ZM128.403 167.106H140.337V168.384H128.403V167.106ZM129.375 158.268L130.527 157.836C131.229 159.024 131.931 160.626 132.183 161.616L130.977 162.156C130.725 161.148 130.059 159.51 129.375 158.268ZM138.087 157.692L139.455 158.196C138.807 159.546 138.015 161.112 137.367 162.138L136.287 161.688C136.899 160.626 137.673 158.898 138.087 157.692ZM127.989 156.954L129.267 157.35C128.043 160.392 126.117 163.416 124.119 165.414C123.993 165.108 123.615 164.406 123.363 164.082C125.181 162.372 126.945 159.69 127.989 156.954ZM126.117 161.598L127.395 160.32L127.413 160.338V173.424H126.117V161.598ZM149.391 156.99L150.723 157.278C150.021 160.158 148.887 162.93 147.501 164.766C147.267 164.532 146.727 164.1 146.421 163.902C147.753 162.228 148.797 159.636 149.391 156.99ZM149.085 164.622L150.399 164.892C149.841 167.25 148.869 169.536 147.771 171.048C147.501 170.832 146.925 170.472 146.601 170.31C147.717 168.924 148.581 166.782 149.085 164.622ZM149.229 160.374H157.329V161.634H148.707L149.229 160.374ZM152.019 160.896H153.369V171.822C153.369 172.596 153.207 172.992 152.703 173.208C152.217 173.442 151.443 173.478 150.327 173.478C150.237 173.1 150.039 172.506 149.841 172.11C150.687 172.146 151.461 172.128 151.713 172.128C151.947 172.128 152.019 172.056 152.019 171.822V160.896ZM154.665 164.892L155.871 164.496C156.915 166.386 157.815 168.87 158.121 170.544L156.843 170.976C156.555 169.32 155.655 166.782 154.665 164.892ZM156.933 160.374H157.113L157.347 160.338L158.283 160.536C158.031 161.868 157.725 163.416 157.491 164.388L156.321 164.172C156.519 163.272 156.753 161.76 156.933 160.572V160.374ZM145.773 156.972L147.051 157.368C145.863 160.428 144.009 163.47 142.065 165.486C141.921 165.18 141.543 164.46 141.291 164.154C143.073 162.408 144.765 159.708 145.773 156.972ZM143.901 161.616L145.161 160.338L145.197 160.356V173.442H143.901V161.616ZM63.7652 185.41H76.2392V186.724H63.7652V185.41ZM62.9732 190.684H75.5912V191.98H62.9732V190.684ZM61.0112 196.57H77.0852V197.884H61.0112V196.57ZM68.3552 181.918H69.7412V197.236H68.3552V181.918ZM64.3052 182.206L65.6912 182.512C64.8992 185.302 63.6392 187.966 62.1992 189.694C61.9292 189.46 61.3172 189.064 60.9752 188.884C62.4512 187.282 63.6212 184.78 64.3052 182.206ZM85.0772 191.458H94.0592V198.37H92.7632V192.7H86.3192V198.46H85.0772V191.458ZM93.3932 181.972L94.4552 183.034C91.9892 183.88 88.2272 184.438 85.0052 184.744C84.9512 184.42 84.7712 183.898 84.6092 183.592C87.7412 183.25 91.3952 182.692 93.3932 181.972ZM88.9652 183.538H90.2612V192.178H88.9652V183.538ZM83.7632 187.192H95.2292V188.488H83.7632V187.192ZM85.9232 196.444H93.3572V197.686H85.9232V196.444ZM79.6412 183.088L80.3972 182.134C81.4952 182.674 83.0252 183.484 83.7992 184.006L83.0072 185.104C82.2512 184.564 80.7572 183.682 79.6412 183.088ZM78.7592 188.056L79.5152 187.066C80.5772 187.588 82.0892 188.38 82.8452 188.902L82.0892 190C81.3512 189.496 79.8572 188.632 78.7592 188.056ZM79.1912 197.308C80.1632 195.94 81.5852 193.564 82.6292 191.512L83.6012 192.394C82.6472 194.302 81.3872 196.552 80.3252 198.226L79.1912 197.308ZM100.683 186.76H110.079V187.984H100.683V186.76ZM99.3872 194.896H112.653V196.102H99.3872V194.896ZM100.125 183.736H112.653V184.96H100.125V183.736ZM109.539 186.76H110.871C110.871 186.76 110.853 187.246 110.853 187.426C110.637 194.68 110.385 197.038 109.809 197.794C109.467 198.244 109.071 198.388 108.531 198.442C107.991 198.478 107.091 198.478 106.191 198.424C106.173 198.118 106.047 197.65 105.867 197.344C106.785 197.416 107.613 197.434 107.955 197.416C108.297 197.416 108.459 197.38 108.621 197.164C109.089 196.588 109.341 194.068 109.539 187.048V186.76ZM100.017 186.76H101.385C101.007 189.784 100.449 193.798 100.017 196.102H98.6492C99.1352 193.744 99.7292 189.694 100.017 186.76ZM100.881 181.81L102.231 182.188C101.133 184.654 99.5132 187.084 97.9292 188.65C97.6412 188.434 97.0652 188.038 96.7232 187.858C98.3792 186.4 99.9452 184.096 100.881 181.81ZM103.041 188.794L103.815 188.02C104.985 188.542 106.389 189.352 107.109 190.018L106.299 190.864C105.615 190.198 104.229 189.316 103.041 188.794ZM102.591 192.736L103.347 191.98C104.571 192.556 106.065 193.51 106.803 194.212L106.011 195.076C105.291 194.356 103.815 193.366 102.591 192.736ZM96.7772 190.792H100.143V190.828H110.079V190.792H113.283V192.016H110.079V191.98H100.143V192.016H96.7772V190.792ZM114.813 189.262H131.283V190.738H114.813V189.262ZM141.759 189.514C142.947 193.294 145.503 196.084 149.409 197.2C149.085 197.488 148.689 198.046 148.491 198.424C144.441 197.074 141.885 194.086 140.517 189.838L141.759 189.514ZM133.839 183.304H148.113V184.672H133.839V183.304ZM133.209 188.83H148.887V190.216H133.209V188.83ZM140.193 183.772H141.597V186.814C141.597 190.54 140.877 195.436 133.641 198.442C133.461 198.1 133.047 197.578 132.759 197.308C139.581 194.536 140.193 190.09 140.193 186.796V183.772Z" fill="black"/>
<path d="M69.2832 244.556V259.107L73.7911 257.795L96.895 231.856L69.2832 244.556Z" fill="#00567B"/>
<path d="M96.8948 231.856L73.791 257.795L100.93 249.898V230L96.8948 231.856Z" fill="#0097BB"/>
<path d="M100.93 230V249.898L119.781 244.411L129.351 248.461V242.015L100.93 230Z" fill="#00567B"/>
<path d="M100.93 268.571L119.781 265.751V257.795L100.93 261.884V268.571Z" fill="#0083AD"/>
<path d="M100.93 278.782L119.781 277.471V268.961L100.93 271.787V278.782Z" fill="#0083AD"/>
<path d="M119.781 254.319V246.407L100.93 251.894V258.408L119.781 254.319Z" fill="#0083AD"/>
<path d="M100.93 281.863V288.603H119.781V280.547L100.93 281.863Z" fill="#0083AD"/>
<path d="M98.1196 259.015V252.713L69.2832 261.102V265.268L98.1196 259.015Z" fill="#0097BB"/>
<path d="M69.2832 284.067V288.604H98.1196V282.061L69.2832 284.067Z" fill="#0097BB"/>
<path d="M98.1196 262.491L69.2832 268.744V273.31L98.1196 268.99V262.491Z" fill="#0097BB"/>
<path d="M69.2832 276.526V280.991L98.1196 278.98V272.206L69.2832 276.526Z" fill="#0097BB"/>
<path d="M67.2578 261.691L56 264.969V268.151L67.2578 265.707V261.691Z" fill="#00B8CC"/>
<path d="M67.2578 269.183L56 271.623V275.301L67.2578 273.614V269.183Z" fill="#00B8CC"/>
<path d="M56 284.992V288.604H67.2578V284.211L56 284.992Z" fill="#00B8CC"/>
<path d="M67.2578 276.83L56 278.513V281.917L67.2578 281.131V276.83Z" fill="#00B8CC"/>
<path d="M119.781 288.603H153.285V284.293L119.781 280.547V288.603Z" fill="#00567B"/>
<path d="M119.781 277.471L153.285 281.212V276.661L119.781 268.961V277.471Z" fill="#00567B"/>
<path d="M119.781 257.795V265.751L153.285 273.445V268.668L119.781 257.795Z" fill="#00567B"/>
<path d="M153.285 265.191V260.572L119.781 246.407V254.319L153.285 265.191Z" fill="#00567B"/>
<path d="M72.663 245.601C73.0825 245.312 73.6321 245.042 74.23 244.806C74.8953 244.545 75.5365 244.406 76.0283 244.782C76.4092 245.066 76.5635 245.65 76.5635 246.32C76.5635 247.178 76.2356 248.128 75.5317 248.788V248.846C76.3513 248.87 76.7949 249.651 76.7949 250.712C76.7949 251.517 76.6069 252.192 76.2694 252.771C75.8499 253.528 75.1315 254.092 73.9407 254.453C73.4152 254.612 72.9716 254.709 72.6582 254.747V245.592L72.663 245.601ZM74.0419 248.803L74.336 248.697C74.8326 248.518 75.2087 247.819 75.2087 247.038C75.2087 246.344 74.9676 245.9 74.3987 246.117C74.2492 246.175 74.1239 246.233 74.0419 246.31V248.803ZM74.0419 252.992C74.1239 252.992 74.2203 252.964 74.3457 252.925C74.9049 252.747 75.3678 252.144 75.3678 251.17C75.3678 250.196 74.8857 249.892 74.336 250.066L74.0419 250.167V252.997V252.992Z" fill="white"/>
<path d="M77.7441 243.61C78.1781 243.326 78.7229 243.037 79.2484 242.829C80.0053 242.53 80.6803 242.415 81.1432 242.829C81.5771 243.215 81.7025 243.842 81.7025 244.71C81.7025 245.79 81.336 246.894 80.608 247.622V247.651C81.0901 247.752 81.336 248.311 81.471 249.343C81.606 250.423 81.7989 251.604 81.9242 251.942L80.4827 252.385C80.4007 252.13 80.2416 251.17 80.1355 250.11C80.0102 248.909 79.7884 248.629 79.3255 248.789L79.123 248.856V252.8L77.7441 253.224V243.61ZM79.123 247.381L79.3641 247.294C79.9668 247.082 80.3139 246.277 80.3139 245.404C80.3139 244.531 80.0728 244.044 79.4509 244.252C79.3352 244.295 79.2002 244.363 79.123 244.435V247.381Z" fill="white"/>
<path d="M83.8208 249.015L83.5074 251.46L82.1719 251.869L83.7099 241.127L85.3636 240.477L86.7425 250.466L85.407 250.876L85.1032 248.596L83.8304 249.01L83.8208 249.015ZM84.9682 247.072L84.7368 244.985C84.6645 244.382 84.5681 243.389 84.5054 242.718L84.4716 242.728C84.3993 243.447 84.2933 244.555 84.2209 245.182L83.9558 247.414L84.9682 247.072Z" fill="white"/>
<path d="M87.5176 250.235V239.633L88.7808 239.136L89.8752 242.94C90.0873 243.697 90.4345 244.98 90.6322 245.843H90.6514C90.6081 244.705 90.5164 242.853 90.5164 240.852V238.451L91.7266 237.974V248.938L90.4634 249.324L89.3786 245.568C89.1472 244.738 88.8193 243.499 88.6651 242.588L88.6458 242.598C88.6795 243.663 88.7277 245.298 88.7277 247.443V249.859L87.5176 250.23V250.235Z" fill="white"/>
<path d="M92.9462 237.666C93.2934 237.396 93.7996 237.116 94.3444 236.904C95.2412 236.552 95.8583 236.643 96.3115 237.14C96.9238 237.786 97.2372 239.175 97.2372 241.402C97.2372 243.63 96.8708 245.471 96.2488 246.546C95.7763 247.434 95.0676 248.003 94.0792 248.306C93.6453 248.436 93.2162 248.504 92.9414 248.538V237.666H92.9462ZM94.3251 246.421C94.3878 246.436 94.4939 246.402 94.5662 246.378C95.2315 246.166 95.8101 244.941 95.8101 241.817C95.8101 239.498 95.4292 238.235 94.5999 238.548C94.5035 238.582 94.4119 238.62 94.3251 238.702V246.421Z" fill="white"/>
<defs>
<filter id="filter0_d_1114_1014" x="3" y="39.0122" width="206.035" height="301.058" filterUnits="userSpaceOnUse" color-interpolation-filters="sRGB">
<feFlood flood-opacity="0" result="BackgroundImageFix"/>
<feColorMatrix in="SourceAlpha" type="matrix" values="0 0 0 0 0 0 0 0 0 0 0 0 0 0 0 0 0 0 127 0" result="hardAlpha"/>
<feOffset dx="1" dy="2"/>
<feGaussianBlur stdDeviation="15"/>
<feComposite in2="hardAlpha" operator="out"/>
<feColorMatrix type="matrix" values="0 0 0 0 0 0 0 0 0 0 0 0 0 0 0 0 0 0 0.25 0"/>
<feBlend mode="normal" in2="BackgroundImageFix" result="effect1_dropShadow_1114_1014"/>
<feBlend mode="normal" in="SourceGraphic" in2="effect1_dropShadow_1114_1014" result="shape"/>
</filter>
<filter id="filter1_d_1114_1014" x="0" y="0" width="210" height="131.927" filterUnits="userSpaceOnUse" color-interpolation-filters="sRGB">
<feFlood flood-opacity="0" result="BackgroundImageFix"/>
<feColorMatrix in="SourceAlpha" type="matrix" values="0 0 0 0 0 0 0 0 0 0 0 0 0 0 0 0 0 0 127 0" result="hardAlpha"/>
<feOffset dy="4"/>
<feGaussianBlur stdDeviation="10"/>
<feComposite in2="hardAlpha" operator="out"/>
<feColorMatrix type="matrix" values="0 0 0 0 0 0 0 0 0 0 0 0 0 0 0 0 0 0 0.25 0"/>
<feBlend mode="normal" in2="BackgroundImageFix" result="effect1_dropShadow_1114_1014"/>
<feBlend mode="normal" in="SourceGraphic" in2="effect1_dropShadow_1114_1014" result="shape"/>
</filter>
<linearGradient id="paint0_linear_1114_1014" x1="32.9058" y1="16" x2="164.206" y2="148.578" gradientUnits="userSpaceOnUse">
<stop stop-color="#7FE1FE"/>
<stop offset="0.449935" stop-color="#429DDB"/>
<stop offset="1" stop-color="#0149A6"/>
<stop offset="1" stop-color="#2C73D0"/>
</linearGradient>
<linearGradient id="paint1_linear_1114_1014" x1="23.9237" y1="79.6097" x2="174.963" y2="252.809" gradientUnits="userSpaceOnUse">
<stop stop-color="#7CDEFD"/>
<stop offset="0.520833" stop-color="#368ED2"/>
<stop offset="1" stop-color="#2071BF"/>
</linearGradient>
</defs>
</svg>
