<svg width="470" height="573" viewBox="0 0 470 573" fill="none" xmlns="http://www.w3.org/2000/svg">
<g filter="url(#filter0_d_1114_1013)">
<rect x="59.4199" y="138.538" width="350.749" height="402.462" fill="white"/>
</g>
<g filter="url(#filter1_d_1114_1013)">
<path d="M412.541 131.5V16H56.901V131.5H20L234.721 235.319L449.442 131.5H412.541Z" fill="url(#paint0_linear_1114_1013)"/>
</g>
<path d="M59.3457 541V173.388L68.3252 177.733V531.995H401.116V177.89L410.095 173.545V541H59.3457Z" fill="url(#paint1_linear_1114_1013)"/>
<path d="M139.812 286.559H161.1V288.167H139.812V286.559ZM144.204 281.303V283.271H156.78V281.303H144.204ZM144.204 278.039V279.983H156.78V278.039H144.204ZM142.5 276.671H158.556V284.663H142.5V276.671ZM149.628 284.303H151.404C150.684 289.439 148.716 292.103 140.148 293.255C140.028 292.823 139.62 292.055 139.308 291.671C147.396 290.759 149.004 288.599 149.628 284.303ZM145.26 271.175H147.012V276.287H145.26V271.175ZM153.78 271.175H155.556V276.287H153.78V271.175ZM139.932 272.711H150.06V274.319H139.932V272.711ZM150.9 272.711H160.98V274.319H150.9V272.711ZM150.972 289.511L151.812 288.263C154.908 289.247 159.18 290.807 161.412 291.815L160.548 293.255C158.388 292.223 154.14 290.567 150.972 289.511ZM176.604 271.319H178.26V287.639H176.604V271.319ZM172.788 282.575V286.799H182.34V282.575H172.788ZM172.788 276.911V281.063H182.34V276.911H172.788ZM171.228 275.327H183.972V288.407H171.228V275.327ZM164.436 271.991L165.78 271.199C166.884 272.351 168.204 273.887 168.876 274.871L167.484 275.855C166.836 274.847 165.492 273.167 164.436 271.991ZM163.572 276.695H168.828V278.207H163.572V276.695ZM167.844 287.711C169.308 290.855 172.452 291.287 177.18 291.287C179.7 291.287 183.204 291.167 185.652 290.975C185.388 291.359 185.148 292.199 185.052 292.703C182.796 292.823 179.796 292.895 177.18 292.895C171.564 292.895 168.444 292.223 166.644 288.263L167.844 287.711ZM168.18 282.695H168.588L168.9 282.647L169.812 282.983C168.972 288.119 166.98 291.503 164.292 293.303C164.052 292.919 163.452 292.319 163.116 292.055C165.66 290.447 167.508 287.399 168.18 283.007V282.695ZM163.908 284.495V283.127L164.772 282.695H168.78L168.756 284.159H165.324C164.7 284.159 164.076 284.303 163.908 284.495ZM163.908 284.495C163.788 284.087 163.428 283.247 163.236 282.863C163.596 282.767 163.98 282.623 164.388 282.143C165.156 281.423 167.46 278.159 168.252 276.887V276.815L168.804 276.575L169.98 277.151C168.852 278.783 166.644 281.831 165.252 283.367C165.252 283.367 163.908 284.039 163.908 284.495ZM187.572 272.447H195.492V274.103H187.572V272.447ZM189.9 279.839H194.964V290.207H189.9V288.599H193.428V281.447H189.9V279.839ZM190.692 273.239L192.372 273.599C191.532 278.159 190.14 282.527 187.932 285.407C187.836 284.951 187.404 283.919 187.116 283.439C188.94 280.991 190.068 277.247 190.692 273.239ZM189.156 279.839H190.644V292.151H189.156V279.839ZM209.028 272.495V274.151H197.796V290.687H209.34V292.343H196.164V272.495H209.028ZM202.932 275.183H204.42V289.535H202.932V275.183ZM206.772 277.775H208.212V285.359C208.212 286.031 208.092 286.439 207.636 286.727C207.18 286.967 206.508 286.991 205.428 286.991C205.38 286.583 205.164 285.983 204.972 285.599C205.692 285.599 206.292 285.599 206.484 285.599C206.7 285.575 206.772 285.527 206.772 285.311V277.775ZM199.284 277.775H207.468V279.311H200.652V287.087H199.284V277.775ZM213.108 277.271H219.396V278.831H213.108V277.271ZM211.812 281.471H220.14V283.031H211.812V281.471ZM212.244 284.615L213.396 284.303C213.852 285.719 214.236 287.543 214.38 288.743L213.132 289.103C213.036 287.879 212.676 286.055 212.244 284.615ZM211.524 290.807C213.636 290.399 216.924 289.703 220.14 289.007L220.236 290.471C217.284 291.167 214.188 291.911 211.932 292.415L211.524 290.807ZM218.604 284.015L219.9 284.447C219.492 285.935 218.988 287.687 218.58 288.815L217.524 288.431C217.908 287.255 218.364 285.335 218.604 284.015ZM215.412 277.967H216.876V290.783L215.412 291.023V277.967ZM216.06 271.031L217.428 271.655C216.132 274.391 213.996 277.103 211.932 278.831C211.812 278.423 211.428 277.463 211.164 277.007C213.036 275.615 214.932 273.383 216.06 271.031ZM215.46 273.503L216.18 272.207C217.908 273.263 219.732 274.727 220.812 275.807L219.996 277.271C218.916 276.119 217.092 274.607 215.46 273.503ZM221.412 274.895L233.1 273.935L233.244 275.399L221.556 276.383L221.412 274.895ZM221.22 285.479L233.364 284.423L233.484 285.887L221.34 286.967L221.22 285.479ZM224.196 271.199H225.804C226.092 276.575 228.828 280.415 231.3 280.391C231.9 280.391 232.068 279.815 232.164 278.231C232.524 278.543 233.028 278.783 233.436 278.903C233.172 281.255 232.62 281.903 231.228 281.903C227.676 281.903 224.604 277.343 224.196 271.199ZM223.788 281.615H225.42C225.732 287.399 228.78 291.743 231.42 291.719C232.044 291.719 232.26 291.047 232.38 289.199C232.74 289.511 233.244 289.727 233.652 289.871C233.412 292.511 232.812 293.255 231.348 293.255C227.604 293.231 224.196 288.143 223.788 281.615ZM227.484 272.231L228.324 271.223C229.428 271.631 230.796 272.303 231.516 272.807L230.628 273.911C229.932 273.383 228.564 272.687 227.484 272.231ZM227.196 282.815L228.06 281.807C229.26 282.167 230.844 282.767 231.66 283.247L230.796 284.399C229.98 283.919 228.444 283.223 227.196 282.815ZM230.268 275.951L231.78 276.479C229.668 279.095 225.636 280.847 221.892 281.903C221.676 281.567 221.172 280.919 220.836 280.583C224.556 279.743 228.42 278.207 230.268 275.951ZM230.244 286.463L231.78 286.991C229.644 290.015 225.564 292.031 221.58 293.279C221.412 292.919 220.86 292.247 220.524 291.935C224.46 290.927 228.348 289.103 230.244 286.463ZM244.308 271.439H246.036V282.863H244.308V271.439ZM240.972 275.831H249.18V277.487H240.972V275.831ZM241.62 282.071H243.204V292.151H241.62V282.071ZM242.556 282.071H248.7V290.591H242.556V289.007H247.092V283.631H242.556V282.071ZM251.148 271.175L252.78 271.439C252.084 275.759 250.932 279.959 249.108 282.695C248.916 282.359 248.316 281.639 248.004 281.303C249.612 278.831 250.596 275.039 251.148 271.175ZM251.052 275.831H257.484V277.391H250.596L251.052 275.831ZM254.844 276.455L256.452 276.575C255.636 284.735 253.668 289.991 248.532 293.279C248.316 292.967 247.716 292.319 247.38 292.031C252.396 289.127 254.172 284.063 254.844 276.455ZM251.196 276.911C251.724 282.191 252.972 288.791 257.724 291.815C257.412 292.151 256.86 292.799 256.62 293.231C251.748 289.799 250.452 283.007 249.924 277.703L251.196 276.911ZM240.012 271.295L241.692 271.751C240.324 275.879 238.188 280.079 235.812 282.863C235.644 282.455 235.164 281.495 234.852 281.039C236.964 278.639 238.86 274.967 240.012 271.295ZM238.092 277.175L239.7 275.543L239.748 275.591V293.231H238.092V277.175ZM271.908 275.615H281.268V277.271H271.908V275.615ZM272.748 271.151L274.524 271.487C273.588 275.927 272.052 280.175 269.988 282.935C269.7 282.599 269.004 281.927 268.596 281.615C270.588 279.143 271.956 275.207 272.748 271.151ZM277.908 276.599L279.78 276.815C278.484 285.143 275.724 290.255 269.508 293.327C269.316 292.895 268.764 292.079 268.404 291.695C274.308 289.055 276.828 284.255 277.908 276.599ZM272.724 277.127C273.948 283.799 276.66 289.319 281.652 291.623C281.22 291.959 280.692 292.655 280.404 293.135C275.196 290.471 272.532 284.735 271.116 277.439L272.724 277.127ZM260.532 292.079L260.316 290.303L261.156 289.535L268.764 286.823C268.764 287.351 268.884 288.095 268.98 288.503C261.972 291.191 261.084 291.623 260.532 292.079ZM260.532 292.079C260.436 291.575 260.124 290.687 259.812 290.207C260.172 290.063 260.58 289.751 260.58 288.863V279.719H262.38V290.615C262.38 290.615 260.532 291.431 260.532 292.079ZM260.268 272.831H268.788V281.495H260.988V279.719H266.988V274.607H260.268V272.831ZM293.484 277.607H295.356V293.255H293.484V277.607ZM284.1 273.239H304.812V274.823H284.1V273.239ZM283.692 287.807H305.22V289.463H283.692V287.807ZM289.068 271.151H290.844V276.863H297.996V271.151H299.844V278.255H289.068V271.151ZM288.156 281.399V284.255H300.804V281.399H288.156ZM286.356 279.911H302.7V285.719H286.356V279.911ZM316.476 286.799L315.924 285.527C317.892 284.735 318.972 283.511 318.972 281.687L318.516 279.671L319.812 281.495C319.476 281.927 318.996 282.047 318.54 282.047C317.556 282.047 316.74 281.447 316.74 280.319C316.74 279.191 317.604 278.591 318.564 278.591C319.908 278.591 320.628 279.695 320.628 281.375C320.628 283.967 318.996 285.935 316.476 286.799ZM124.356 305.351H137.124V306.983H124.356V305.351ZM124.884 317.807H136.38V319.415H124.884V317.807ZM123.564 324.023H137.364V325.679H123.564V324.023ZM129.708 318.575H131.508V325.031H129.708V318.575ZM126.66 307.775L128.22 308.183C127.596 309.407 126.66 310.943 125.844 312.167C126.9 313.559 127.98 315.263 128.508 316.343L126.996 316.967C126.492 315.719 125.364 313.871 124.092 312.191C125.052 310.727 126.108 308.927 126.66 307.775ZM130.812 307.799L132.396 308.207C131.724 309.431 130.788 310.943 129.972 312.143C131.052 313.511 132.18 315.191 132.708 316.271L131.22 316.919C130.692 315.671 129.516 313.823 128.196 312.167C129.204 310.727 130.26 308.927 130.812 307.799ZM134.964 307.775L136.572 308.207C135.852 309.431 134.892 310.943 134.076 312.167C135.204 313.535 136.404 315.191 136.98 316.271L135.516 316.967C134.916 315.719 133.644 313.847 132.276 312.191C133.308 310.751 134.388 308.927 134.964 307.775ZM121.116 313.631L122.508 313.247C123.156 314.831 123.852 316.943 124.092 318.215L122.628 318.695C122.388 317.423 121.764 315.263 121.116 313.631ZM118.932 319.823L120.324 319.559C120.612 321.191 120.924 323.255 120.996 324.647L119.532 324.935C119.484 323.543 119.22 321.431 118.932 319.823ZM116.436 319.607L117.996 319.871C117.732 321.983 117.252 324.311 116.748 325.823C116.412 325.655 115.668 325.415 115.284 325.271C115.86 323.783 116.22 321.599 116.436 319.607ZM115.86 313.151C115.764 312.791 115.5 311.975 115.284 311.543C115.716 311.447 116.124 310.943 116.628 310.199C117.156 309.503 118.836 306.743 119.796 304.127L121.428 304.799C120.18 307.487 118.548 310.295 116.94 312.215V312.239C116.94 312.239 115.86 312.791 115.86 313.151ZM115.86 313.151L115.812 311.831L116.676 311.303L120.924 310.943C120.828 311.375 120.78 312.023 120.78 312.383C116.916 312.815 116.244 312.959 115.86 313.151ZM116.004 318.551C115.908 318.191 115.644 317.375 115.428 316.895C115.956 316.799 116.484 316.175 117.204 315.311C117.948 314.447 120.42 311.039 121.98 307.823L123.516 308.711C121.692 311.951 119.412 315.287 117.132 317.615V317.663C117.132 317.663 116.004 318.191 116.004 318.551ZM116.004 318.551L115.956 317.231L116.82 316.679L122.724 315.911C122.652 316.343 122.628 316.991 122.652 317.351C117.228 318.143 116.484 318.311 116.004 318.551ZM121.26 319.343L122.556 318.935C123.036 320.231 123.588 321.911 123.804 322.991L122.436 323.447C122.244 322.343 121.74 320.639 121.26 319.343ZM142.452 305.303H161.1V306.959H142.452V305.303ZM142.788 324.047H161.172V325.583H142.788V324.047ZM152.172 319.631H158.844V321.071H152.172V319.631ZM141.372 305.303H143.076V312.431C143.076 316.415 142.788 322.223 140.748 326.183C140.436 325.919 139.692 325.487 139.236 325.319C141.18 321.527 141.372 316.223 141.372 312.407V305.303ZM151.236 317.207H152.988V324.887H151.236V317.207ZM145.884 318.935H147.612V324.911H145.884V318.935ZM143.82 311.207H151.26V312.551H143.82V311.207ZM146.916 308.519H148.452V317.279H146.916V308.519ZM146.7 311.759L147.756 312.167C146.964 314.063 145.452 316.103 144.036 317.159C143.796 316.799 143.34 316.295 143.004 316.031C144.396 315.191 145.908 313.391 146.7 311.759ZM152.004 311.207H160.764V312.551H152.004V311.207ZM155.268 308.519H156.828V317.279H155.268V308.519ZM154.764 311.759L155.82 312.167C154.98 314.087 153.324 316.127 151.764 317.183C151.548 316.799 151.092 316.295 150.756 316.031C152.268 315.191 153.924 313.415 154.764 311.759ZM148.332 312.623C148.908 312.959 150.708 314.255 151.164 314.663L150.228 315.815C149.7 315.215 148.116 313.823 147.444 313.319L148.332 312.623ZM149.7 307.535L150.924 308.495C149.22 309.191 146.532 309.623 144.324 309.791C144.228 309.503 144.036 309.023 143.868 308.711C145.98 308.495 148.428 308.087 149.7 307.535ZM158.364 307.463L159.612 308.447C157.764 309.143 154.884 309.575 152.484 309.743C152.412 309.455 152.22 308.927 152.052 308.639C154.308 308.423 156.996 308.039 158.364 307.463ZM156.804 312.743C157.62 313.247 160.476 315.287 161.148 315.839L160.284 317.063C159.42 316.223 156.948 314.207 155.964 313.511L156.804 312.743ZM175.692 312.479V316.703H181.74V312.479H175.692ZM174.108 310.967H183.42V318.215H174.108V310.967ZM176.076 304.391L177.756 304.799C176.724 307.775 174.996 310.559 173.1 312.335C172.836 312.023 172.188 311.423 171.804 311.135C173.652 309.527 175.212 307.031 176.076 304.391ZM176.148 317.807H177.78C177.492 322.103 176.532 324.791 172.332 326.255C172.14 325.871 171.684 325.247 171.348 324.935C175.116 323.711 175.908 321.479 176.148 317.807ZM179.532 317.663H181.212V323.879C181.212 324.455 181.308 324.527 181.836 324.527C182.052 324.527 183.204 324.527 183.492 324.527C184.02 324.527 184.14 324.191 184.188 321.575C184.524 321.839 185.244 322.127 185.7 322.247C185.532 325.367 185.1 326.111 183.684 326.111C183.324 326.111 181.932 326.111 181.596 326.111C179.94 326.111 179.532 325.607 179.532 323.903V317.663ZM167.148 304.271H168.66V309.359H167.148V304.271ZM164.796 308.375H171.78V317.423H164.796V315.887H170.34V309.911H164.796V308.375ZM163.932 308.375H165.348V318.647H163.932V308.375ZM167.292 309.167H168.516V316.439H168.66V322.823H167.124V316.439H167.292V309.167ZM163.284 322.967C165.372 322.607 168.42 322.007 171.444 321.383L171.564 322.991C168.756 323.615 165.804 324.215 163.62 324.695L163.284 322.967ZM169.836 319.175L171.204 318.815C171.804 320.567 172.356 322.799 172.572 324.287L171.108 324.695C170.94 323.207 170.388 320.927 169.836 319.175ZM179.244 304.967L180.588 304.223C182.436 306.383 184.5 309.311 185.388 311.207L183.924 312.095C183.06 310.199 181.068 307.199 179.244 304.967ZM195.156 308.399H201.612V309.503H195.156V308.399ZM195.156 310.583H201.612V311.687H195.156V310.583ZM194.652 306.191H202.14V307.319H194.652V306.191ZM196.476 313.991V316.127H200.244V313.991H196.476ZM195.276 312.911H201.492V317.231H195.276V312.911ZM192.444 310.031L193.524 309.743C194.052 310.847 194.58 312.287 194.748 313.151L193.596 313.511C193.428 312.623 192.948 311.135 192.444 310.031ZM188.148 309.743C188.076 309.455 187.86 308.783 187.692 308.423C188.028 308.375 188.316 308.111 188.652 307.703C189.012 307.295 190.188 305.663 190.86 304.103L192.204 304.583C191.34 306.263 190.212 307.895 189.18 308.975V308.999C189.18 308.999 188.148 309.407 188.148 309.743ZM188.148 309.743V308.759L188.868 308.351L192.252 308.183C192.18 308.519 192.132 309.023 192.108 309.287C189.06 309.527 188.46 309.599 188.148 309.743ZM188.148 313.463C188.076 313.175 187.86 312.503 187.716 312.143C188.124 312.095 188.604 311.687 189.156 311.159C189.756 310.607 191.724 308.447 193.044 306.335L194.34 306.935C192.756 309.143 190.956 311.279 189.204 312.695V312.743C189.204 312.743 188.148 313.127 188.148 313.463ZM188.148 313.463L188.124 312.479L188.82 312.023L194.028 311.399C193.956 311.735 193.932 312.215 193.956 312.479C189.18 313.127 188.508 313.271 188.148 313.463ZM190.332 314.183L191.46 313.967C191.724 315.023 191.94 316.439 191.988 317.327L190.788 317.591C190.764 316.655 190.548 315.263 190.332 314.183ZM188.244 313.967L189.468 314.207C189.276 315.599 188.964 317.183 188.58 318.239C188.34 318.071 187.836 317.759 187.524 317.591C187.932 316.583 188.124 315.239 188.244 313.967ZM192.588 314.039L193.644 313.751C193.98 314.711 194.34 315.959 194.46 316.727L193.332 317.087C193.212 316.271 192.876 314.999 192.588 314.039ZM197.004 304.535L198.372 304.079C198.852 304.799 199.356 305.807 199.5 306.479L198.084 307.031C197.916 306.335 197.484 305.303 197.004 304.535ZM206.964 309.863L208.068 309.599C208.62 310.703 209.148 312.215 209.292 313.127L208.116 313.487C207.972 312.551 207.492 311.015 206.964 309.863ZM202.524 309.695C202.452 309.407 202.236 308.735 202.092 308.375C202.404 308.327 202.716 308.063 203.052 307.655C203.388 307.247 204.564 305.663 205.26 304.103L206.58 304.583C205.716 306.239 204.588 307.847 203.58 308.903V308.927C203.58 308.927 202.524 309.359 202.524 309.695ZM202.524 309.695V308.711L203.244 308.327L206.628 308.135C206.556 308.471 206.508 308.975 206.508 309.239C203.46 309.479 202.836 309.551 202.524 309.695ZM202.596 313.319C202.524 313.031 202.332 312.383 202.188 312.023C202.596 311.975 203.052 311.591 203.604 311.039C204.204 310.487 206.124 308.375 207.42 306.263L208.692 306.863C207.156 309.023 205.404 311.135 203.724 312.575V312.599C203.724 312.599 202.596 313.007 202.596 313.319ZM202.596 313.319L202.572 312.335L203.292 311.879L208.404 311.279C208.356 311.615 208.332 312.095 208.356 312.335C203.652 313.007 202.98 313.127 202.596 313.319ZM204.948 314.063L206.076 313.871C206.34 314.951 206.532 316.367 206.58 317.255L205.38 317.495C205.38 316.559 205.212 315.167 204.948 314.063ZM202.788 313.871L204.036 314.159C203.844 315.407 203.532 316.919 203.196 317.903C202.956 317.711 202.428 317.423 202.116 317.279C202.452 316.271 202.644 315.023 202.788 313.871ZM207.18 313.823L208.26 313.559C208.668 314.639 209.052 316.103 209.22 317.015L208.092 317.351C207.924 316.391 207.54 314.927 207.18 313.823ZM193.02 318.695H208.572V320.111H193.02V318.695ZM204.06 319.103L205.716 319.655C202.38 323.975 195.252 325.559 188.196 326.399C188.028 325.991 187.62 325.247 187.332 324.863C194.34 324.311 201.228 322.799 204.06 319.103ZM194.028 317.111L195.612 317.591C194.1 319.967 191.388 321.911 188.748 323.111C188.532 322.751 188.004 322.055 187.692 321.719C190.212 320.759 192.732 319.103 194.028 317.111ZM193.284 319.775C196.452 322.583 203.028 324.287 209.532 324.815C209.196 325.199 208.788 325.847 208.596 326.279C202.068 325.607 195.492 323.735 191.916 320.447L193.284 319.775ZM219.852 309.839H224.148V311.087H219.852V309.839ZM219.516 306.407H233.34V307.895H219.516V306.407ZM222.252 317.519H230.964V318.959H222.252V317.519ZM222.084 320.951H230.988V322.415H222.084V320.951ZM225.9 310.751H227.172V315.839H225.9V310.751ZM230.196 315.935H231.756V326.207H230.196V315.935ZM223.572 309.839H224.748C224.748 309.839 224.748 310.223 224.748 310.415C224.652 313.463 224.58 314.663 224.268 315.095C224.028 315.383 223.788 315.503 223.332 315.551C223.068 315.575 222.588 315.575 222.132 315.575C222.084 315.191 221.988 314.687 221.82 314.351C222.324 314.399 222.684 314.399 222.852 314.399C223.044 314.423 223.14 314.399 223.26 314.231C223.428 313.967 223.5 312.959 223.572 310.055V309.839ZM232.116 308.927L233.148 309.863C231.972 310.511 230.316 311.063 228.876 311.399C228.804 311.135 228.636 310.703 228.468 310.391C229.788 310.031 231.3 309.455 232.116 308.927ZM228.084 307.919L229.284 308.423C228.468 309.383 227.484 310.463 226.692 311.135L225.876 310.751C226.62 309.959 227.556 308.735 228.084 307.919ZM231.636 309.983C231.924 311.903 232.524 313.847 233.556 314.759C233.316 314.951 232.956 315.383 232.764 315.695C231.66 314.567 231.036 312.383 230.724 310.223L231.636 309.983ZM221.46 315.959H223.02V319.151C223.02 321.407 222.588 324.311 220.116 326.231C219.828 325.943 219.228 325.487 218.868 325.247C221.124 323.519 221.46 320.999 221.46 319.127V315.959ZM221.196 310.247L222.372 310.319C222.204 312.911 221.508 314.807 219.972 316.007C219.804 315.743 219.468 315.215 219.18 314.975C220.524 314.015 221.076 312.431 221.196 310.247ZM224.196 308.423L225.132 307.991C225.564 308.567 225.996 309.359 226.188 309.887L225.18 310.415C224.988 309.863 224.58 309.023 224.196 308.423ZM224.964 304.343L226.332 303.863C226.908 304.703 227.556 305.903 227.82 306.623L226.38 307.199C226.116 306.431 225.516 305.207 224.964 304.343ZM228.468 310.415H229.572V314.687L228.54 315.983C228.42 315.647 228.18 315.071 227.964 314.783C228.204 314.615 228.468 314.231 228.468 313.319V310.415ZM228.54 316.007L228.492 314.951L228.972 314.447L231.348 313.727C231.372 314.039 231.468 314.471 231.54 314.735C229.26 315.551 228.804 315.767 228.54 316.007ZM213.732 306.719V310.871H217.356V306.719H213.732ZM212.292 305.207H218.82V312.383H212.292V305.207ZM215.172 311.759H216.636V322.919H215.172V311.759ZM212.316 314.831H213.708V323.639H212.316V314.831ZM211.38 323.423C213.324 322.991 216.18 322.223 219.036 321.455L219.18 322.919C216.54 323.663 213.804 324.407 211.716 325.007L211.38 323.423ZM215.748 316.007H219.18V317.567H215.748V316.007ZM240.636 310.343H252.012V311.735H240.636V310.343ZM240.636 313.967H252.012V315.359H240.636V313.967ZM251.22 306.551H253.068V323.735C253.068 325.007 252.78 325.607 251.892 325.919C250.98 326.231 249.42 326.255 246.972 326.255C246.876 325.727 246.564 324.887 246.3 324.335C248.196 324.431 249.996 324.407 250.524 324.383C251.052 324.383 251.22 324.215 251.22 323.735V306.551ZM235.74 318.143C239.7 317.951 246.108 317.567 252.084 317.183L252.06 318.695C246.3 319.175 240.18 319.655 236.004 319.943L235.74 318.143ZM255.324 311.879L257.028 312.743C252.468 319.391 245.052 323.591 236.724 326.063C236.484 325.631 235.884 324.791 235.524 324.407C243.9 322.199 251.172 318.095 255.324 311.879ZM245.412 304.103L247.572 304.439C246.948 305.663 246.18 306.983 245.58 307.847L243.972 307.463C244.5 306.503 245.124 305.087 245.412 304.103ZM239.508 306.551H251.82V308.135H241.284V318.863H239.508V306.551ZM268.356 305.351H281.124V306.983H268.356V305.351ZM268.884 317.807H280.38V319.415H268.884V317.807ZM267.564 324.023H281.364V325.679H267.564V324.023ZM273.708 318.575H275.508V325.031H273.708V318.575ZM270.66 307.775L272.22 308.183C271.596 309.407 270.66 310.943 269.844 312.167C270.9 313.559 271.98 315.263 272.508 316.343L270.996 316.967C270.492 315.719 269.364 313.871 268.092 312.191C269.052 310.727 270.108 308.927 270.66 307.775ZM274.812 307.799L276.396 308.207C275.724 309.431 274.788 310.943 273.972 312.143C275.052 313.511 276.18 315.191 276.708 316.271L275.22 316.919C274.692 315.671 273.516 313.823 272.196 312.167C273.204 310.727 274.26 308.927 274.812 307.799ZM278.964 307.775L280.572 308.207C279.852 309.431 278.892 310.943 278.076 312.167C279.204 313.535 280.404 315.191 280.98 316.271L279.516 316.967C278.916 315.719 277.644 313.847 276.276 312.191C277.308 310.751 278.388 308.927 278.964 307.775ZM265.116 313.631L266.508 313.247C267.156 314.831 267.852 316.943 268.092 318.215L266.628 318.695C266.388 317.423 265.764 315.263 265.116 313.631ZM262.932 319.823L264.324 319.559C264.612 321.191 264.924 323.255 264.996 324.647L263.532 324.935C263.484 323.543 263.22 321.431 262.932 319.823ZM260.436 319.607L261.996 319.871C261.732 321.983 261.252 324.311 260.748 325.823C260.412 325.655 259.668 325.415 259.284 325.271C259.86 323.783 260.22 321.599 260.436 319.607ZM259.86 313.151C259.764 312.791 259.5 311.975 259.284 311.543C259.716 311.447 260.124 310.943 260.628 310.199C261.156 309.503 262.836 306.743 263.796 304.127L265.428 304.799C264.18 307.487 262.548 310.295 260.94 312.215V312.239C260.94 312.239 259.86 312.791 259.86 313.151ZM259.86 313.151L259.812 311.831L260.676 311.303L264.924 310.943C264.828 311.375 264.78 312.023 264.78 312.383C260.916 312.815 260.244 312.959 259.86 313.151ZM260.004 318.551C259.908 318.191 259.644 317.375 259.428 316.895C259.956 316.799 260.484 316.175 261.204 315.311C261.948 314.447 264.42 311.039 265.98 307.823L267.516 308.711C265.692 311.951 263.412 315.287 261.132 317.615V317.663C261.132 317.663 260.004 318.191 260.004 318.551ZM260.004 318.551L259.956 317.231L260.82 316.679L266.724 315.911C266.652 316.343 266.628 316.991 266.652 317.351C261.228 318.143 260.484 318.311 260.004 318.551ZM265.26 319.343L266.556 318.935C267.036 320.231 267.588 321.911 267.804 322.991L266.436 323.447C266.244 322.343 265.74 320.639 265.26 319.343ZM283.932 305.447L284.892 304.415C286.164 305.255 287.676 306.551 288.444 307.439L287.412 308.639C286.692 307.703 285.18 306.335 283.932 305.447ZM283.26 312.215L284.172 311.111C285.468 311.759 287.1 312.839 287.94 313.631L287.004 314.855C286.212 314.063 284.58 312.959 283.26 312.215ZM283.524 324.935C284.436 323.087 285.78 319.991 286.716 317.327L287.916 318.239C287.052 320.711 285.876 323.687 284.892 325.847L283.524 324.935ZM289.356 309.887H293.988V311.135H289.356V309.887ZM289.188 306.455H305.1V307.967H289.188V306.455ZM292.164 317.567H301.596V319.031H292.164V317.567ZM291.972 320.999H301.62V322.463H291.972V320.999ZM296.172 310.775H297.564V315.839H296.172V310.775ZM301.092 315.983H302.772V326.255H301.092V315.983ZM293.388 309.887H294.684C294.684 309.887 294.684 310.271 294.684 310.487C294.588 313.535 294.492 314.711 294.156 315.143C293.892 315.431 293.628 315.575 293.172 315.599C292.86 315.647 292.332 315.623 291.852 315.623C291.828 315.239 291.708 314.735 291.54 314.399C292.044 314.471 292.428 314.471 292.644 314.471C292.836 314.471 292.956 314.447 293.076 314.279C293.268 314.039 293.316 313.007 293.388 310.127V309.887ZM303.156 308.975L304.284 309.911C302.988 310.583 301.188 311.111 299.652 311.447C299.58 311.183 299.364 310.751 299.196 310.463C300.636 310.103 302.244 309.503 303.156 308.975ZM298.524 307.967L299.844 308.471C298.956 309.455 297.876 310.535 297.06 311.207L296.148 310.799C296.964 310.007 297.996 308.783 298.524 307.967ZM302.628 310.031C303.036 311.975 303.9 313.919 305.172 314.807C304.884 315.023 304.524 315.431 304.332 315.743C302.964 314.639 302.076 312.479 301.62 310.295L302.628 310.031ZM291.084 316.007H292.764V319.223C292.764 321.455 292.308 324.359 289.596 326.279C289.308 325.991 288.66 325.535 288.252 325.319C290.724 323.567 291.084 321.047 291.084 319.199V316.007ZM290.82 310.295L292.116 310.391C291.876 312.983 290.988 314.879 289.236 316.055C289.092 315.791 288.708 315.263 288.42 315.047C289.956 314.087 290.652 312.503 290.82 310.295ZM294.324 308.495L295.332 308.039C295.788 308.615 296.268 309.431 296.484 309.935L295.38 310.487C295.188 309.911 294.756 309.095 294.324 308.495ZM295.524 304.199L297.156 303.983C297.492 304.823 297.804 305.975 297.9 306.671L296.148 306.983C296.052 306.239 295.788 305.063 295.524 304.199ZM299.196 310.463H300.372V314.759L299.268 316.031C299.148 315.695 298.86 315.119 298.668 314.831C298.908 314.687 299.196 314.303 299.196 313.367V310.463ZM299.268 316.055L299.196 315.023L299.724 314.495L302.316 313.775C302.34 314.087 302.436 314.543 302.508 314.783C300.036 315.599 299.532 315.839 299.268 316.055ZM315.588 323.903C318.612 323.735 323.412 323.447 327.972 323.111L327.924 324.743C323.628 325.079 319.02 325.439 315.828 325.655L315.588 323.903ZM325.044 321.095L326.556 320.423C327.804 322.055 329.124 324.215 329.628 325.655L328.044 326.375C327.564 324.959 326.268 322.727 325.044 321.095ZM318.18 315.095V318.455H326.556V315.095H318.18ZM316.596 313.607H328.188V319.967H316.596V313.607ZM321.444 311.255H323.172V324.143L321.444 324.215V311.255ZM308.604 316.247H314.268V317.879H308.604V316.247ZM313.668 316.247H315.444C315.444 316.247 315.42 316.775 315.396 317.039C315.06 322.487 314.7 324.575 314.052 325.319C313.62 325.799 313.164 325.967 312.468 326.015C311.892 326.063 310.788 326.063 309.684 325.991C309.66 325.487 309.468 324.791 309.18 324.335C310.26 324.431 311.316 324.431 311.724 324.431C312.132 324.431 312.348 324.407 312.54 324.191C313.044 323.687 313.38 321.719 313.668 316.535V316.247ZM308.46 310.991H310.092C309.876 313.271 309.54 316.127 309.252 317.879H307.572C307.908 316.079 308.268 313.199 308.46 310.991ZM308.868 310.991H313.524V307.127H307.836V305.471H315.204V312.647H308.868V310.991ZM323.916 307.079L325.188 306.311C326.676 307.823 328.38 309.935 329.148 311.303L327.804 312.215C327.036 310.823 325.356 308.663 323.916 307.079ZM316.716 311.639C316.62 311.303 316.332 310.463 316.092 310.055C316.5 309.983 316.908 309.599 317.388 309.023C317.868 308.471 319.476 306.359 320.46 304.295L322.332 304.751C320.988 307.007 319.284 309.263 317.772 310.727V310.775C317.772 310.775 316.716 311.279 316.716 311.639ZM316.716 311.639L316.668 310.391L317.676 309.839L326.964 309.095C326.988 309.527 327.132 310.151 327.228 310.511C318.348 311.279 317.316 311.399 316.716 311.639ZM335.436 310.079H349.5V311.447H335.436V310.079ZM345.444 308.111L346.284 307.247C347.22 307.655 348.324 308.327 348.9 308.879L348.036 309.839C347.46 309.263 346.356 308.567 345.444 308.111ZM347.028 312.551L348.492 312.839C347.292 317.375 344.892 320.735 341.58 322.871C341.364 322.583 340.836 321.983 340.524 321.719C343.788 319.823 345.996 316.703 347.028 312.551ZM335.196 319.895C337.044 319.583 339.732 319.127 342.444 318.623L342.492 319.895C339.996 320.375 337.428 320.903 335.436 321.263L335.196 319.895ZM337.572 314.087V316.511H340.308V314.087H337.572ZM336.276 312.959H341.628V317.615H336.276V312.959ZM342.54 307.511H344.076C344.388 314.303 345.444 320.639 347.772 320.999C348.108 321.071 348.348 320.063 348.516 318.503C348.804 318.791 349.356 319.175 349.692 319.319C349.38 321.959 348.54 322.919 347.268 322.463C343.956 321.743 342.972 314.927 342.54 307.511ZM332.412 305.279H352.476V326.327H350.676V306.911H334.116V326.327H332.412V305.279ZM333.468 323.567H351.684V325.199H333.468V323.567Z" fill="black"/>
<path d="M123.203 145.439V119.539H128.908L133.318 131.684C133.913 133.294 134.368 134.974 134.928 136.654H135.068C135.663 134.974 136.118 133.294 136.643 131.684L140.948 119.539H146.688V145.439H141.963V134.624C141.963 132.174 142.383 128.569 142.663 126.119H142.488L140.353 132.209L136.363 143.129H133.388L129.398 132.209L127.298 126.119H127.158C127.438 128.569 127.823 132.174 127.823 134.624V145.439H123.203ZM157.417 145.929C153.917 145.929 151.642 143.479 151.642 140.119C151.642 135.954 155.037 133.749 162.912 132.874C162.807 130.949 162.002 129.514 159.587 129.514C157.767 129.514 155.982 130.284 154.197 131.369L152.342 127.939C154.652 126.539 157.417 125.384 160.532 125.384C165.502 125.384 168.057 128.324 168.057 134.029V145.439H163.857L163.472 143.374H163.332C161.617 144.844 159.657 145.929 157.417 145.929ZM159.097 141.904C160.567 141.904 161.652 141.239 162.912 140.014V136.059C158.117 136.654 156.542 137.949 156.542 139.734C156.542 141.239 157.592 141.904 159.097 141.904ZM180.196 145.929C175.296 145.929 172.146 142.114 172.146 135.674C172.146 129.269 176.171 125.384 180.371 125.384C182.576 125.384 183.941 126.189 185.376 127.484L185.166 124.404V117.544H190.311V145.439H186.111L185.726 143.409H185.621C184.186 144.844 182.226 145.929 180.196 145.929ZM181.491 141.694C182.891 141.694 184.046 141.134 185.166 139.699V131.089C184.011 130.004 182.751 129.584 181.526 129.584C179.321 129.584 177.431 131.684 177.431 135.604C177.431 139.699 178.936 141.694 181.491 141.694ZM204.365 145.929C198.87 145.929 194.6 142.149 194.6 135.674C194.6 129.304 199.08 125.384 203.7 125.384C209.125 125.384 211.89 129.304 211.89 134.729C211.89 135.709 211.785 136.619 211.68 137.109H199.57C200.025 140.329 202.125 141.974 205.03 141.974C206.605 141.974 208.005 141.484 209.44 140.609L211.155 143.794C209.23 145.124 206.78 145.929 204.365 145.929ZM199.5 133.679H207.515C207.515 131.019 206.325 129.339 203.805 129.339C201.74 129.339 199.92 130.809 199.5 133.679ZM224.092 145.439V125.874H229.237V145.439H224.092ZM226.647 122.689C224.862 122.689 223.672 121.569 223.672 119.854C223.672 118.174 224.862 117.089 226.647 117.089C228.432 117.089 229.657 118.174 229.657 119.854C229.657 121.569 228.432 122.689 226.647 122.689ZM234.721 145.439V125.874H238.886L239.306 128.464H239.411C241.091 126.784 243.121 125.384 245.781 125.384C249.981 125.384 251.836 128.324 251.836 133.224V145.439H246.691V133.889C246.691 130.809 245.816 129.794 243.926 129.794C242.316 129.794 241.301 130.564 239.866 131.964V145.439H234.721ZM265.073 145.439V125.874H270.218V145.439H265.073ZM267.628 122.689C265.843 122.689 264.653 121.569 264.653 119.854C264.653 118.174 265.843 117.089 267.628 117.089C269.413 117.089 270.638 118.174 270.638 119.854C270.638 121.569 269.413 122.689 267.628 122.689ZM275.703 145.439V125.874H279.868L280.288 128.464H280.393C282.073 126.784 284.103 125.384 286.763 125.384C290.963 125.384 292.818 128.324 292.818 133.224V145.439H287.673V133.889C287.673 130.809 286.798 129.794 284.908 129.794C283.298 129.794 282.283 130.564 280.848 131.964V145.439H275.703ZM305.02 145.929C300.12 145.929 296.97 142.114 296.97 135.674C296.97 129.269 300.995 125.384 305.195 125.384C307.4 125.384 308.765 126.189 310.2 127.484L309.99 124.404V117.544H315.135V145.439H310.935L310.55 143.409H310.445C309.01 144.844 307.05 145.929 305.02 145.929ZM306.315 141.694C307.715 141.694 308.87 141.134 309.99 139.699V131.089C308.835 130.004 307.575 129.584 306.35 129.584C304.145 129.584 302.255 131.684 302.255 135.604C302.255 139.699 303.76 141.694 306.315 141.694ZM320.649 145.439V125.874H325.794V145.439H320.649ZM323.204 122.689C321.419 122.689 320.229 121.569 320.229 119.854C320.229 118.174 321.419 117.089 323.204 117.089C324.989 117.089 326.214 118.174 326.214 119.854C326.214 121.569 324.989 122.689 323.204 122.689ZM336.074 145.929C332.574 145.929 330.299 143.479 330.299 140.119C330.299 135.954 333.694 133.749 341.569 132.874C341.464 130.949 340.659 129.514 338.244 129.514C336.424 129.514 334.639 130.284 332.854 131.369L330.999 127.939C333.309 126.539 336.074 125.384 339.189 125.384C344.159 125.384 346.714 128.324 346.714 134.029V145.439H342.514L342.129 143.374H341.989C340.274 144.844 338.314 145.929 336.074 145.929ZM337.754 141.904C339.224 141.904 340.309 141.239 341.569 140.014V136.059C336.774 136.654 335.199 137.949 335.199 139.734C335.199 141.239 336.249 141.904 337.754 141.904Z" fill="black"/>
<mask id="mask0_1114_1013" style="mask-type:luminance" maskUnits="userSpaceOnUse" x="149" y="334" width="173" height="178">
<path d="M166.742 404.31C166.742 404.31 166.994 403.3 166.742 401.534C166.489 399.768 164.975 399.011 164.975 397.497C164.975 395.983 160.938 396.74 161.695 394.469C162.452 392.198 165.037 392.198 161.603 390.18C158.163 388.161 157.658 388.408 160.434 385.38C163.209 382.352 165.48 380.783 165.48 380.783C165.48 380.783 166.742 385.091 167.751 383.343C168.76 381.595 168.508 385.091 171.788 383.343C175.068 381.595 175.573 378.912 177.339 377.355C179.105 375.792 181.124 373.909 181.628 372.45C182.133 370.998 181.124 369.927 183.899 368.948C186.675 367.964 185.918 366.751 186.675 365.718C187.432 364.684 188.441 365.958 190.207 364.308C191.973 362.659 190.712 360.899 190.207 359.379C189.702 357.865 189.499 357.163 191.118 356.628C192.73 356.099 195.764 355.089 194.496 354.074C193.235 353.065 191.721 352.726 191.721 352.726C191.721 352.726 191.216 351.803 191.216 350.671C191.216 349.538 188.945 351.175 188.693 350.166C188.441 349.157 186.675 348.018 187.684 347.514C188.693 347.009 188.441 344.609 187.813 344.486C187.179 344.357 189.456 342.215 188.318 342.215C187.179 342.215 187.813 339.692 186.933 339.692C186.053 339.692 187.567 337.544 189.333 337.544C191.099 337.544 196.275 340.83 197.536 340.067C198.798 339.31 197.918 338.301 199.05 338.683C200.189 339.058 200.312 339.692 200.817 339.058C201.321 338.424 201.697 337.797 202.33 338.178C202.964 338.553 203.974 339.31 204.478 338.683C204.983 338.049 204.355 337.169 205.235 336.412C206.115 335.655 209.402 333.132 209.402 334.393C209.402 335.655 208.521 338.184 211.297 339.44C214.072 340.701 213.697 340.83 213.316 341.711C212.94 342.591 211.82 345.877 213.58 347.009C215.334 348.148 215.586 348.018 215.716 349.028C215.839 350.037 216.725 349.28 217.482 349.785C218.239 350.289 217.734 350.671 218.368 351.803C218.996 352.936 218.62 352.936 217.863 353.317C217.106 353.692 217.611 354.449 216.349 354.579C215.088 354.708 214.331 354.708 214.331 353.822C214.331 352.936 213.069 352.683 212.817 353.569C212.565 354.456 211.931 355.643 212.565 356.628C213.192 357.613 213.322 357.108 213.322 358.493C213.322 359.877 213.826 361.268 214.331 361.773C214.836 362.277 214.836 362.911 214.965 363.668C215.094 364.425 215.722 364.302 216.983 364.302C218.245 364.302 218.374 364.425 219.506 365.311C220.639 366.198 221.402 366.702 222.282 366.702C223.162 366.702 223.544 367.459 223.919 367.964C224.294 368.468 225.562 368.124 225.31 369.182C225.057 370.241 225.181 369.201 224.048 370.413C222.916 371.625 222.534 372.001 222.534 372.758C222.534 373.515 222.411 374.149 222.159 374.906C221.907 375.663 221.279 376.924 221.531 377.429C221.784 377.933 221.15 379.447 222.793 379.57C224.436 379.7 228.596 383.737 228.848 384.118C229.101 384.494 234.652 386.383 235.79 387.651C236.923 388.912 237.556 388.155 239.827 388.155C242.098 388.155 244.75 387.398 245.631 388.155C246.517 388.912 248.283 391.183 250.425 391.94C252.572 392.697 251.181 391.811 253.705 392.697C256.228 393.583 256.732 394.211 259.003 394.34C261.274 394.463 262.536 394.463 263.927 394.463C265.317 394.463 266.197 394.586 266.702 393.706C267.207 392.826 267.207 390.931 266.702 390.174C266.197 389.417 266.573 389.546 267.084 387.78C267.588 386.014 268.721 383.072 269.736 383.343C270.745 383.614 271.755 383.484 271.755 384.875C271.755 386.266 272.259 386.771 271.755 387.903C271.25 389.041 270.868 390.808 272.511 391.565C274.155 392.322 275.287 393.583 277.435 392.826C279.582 392.069 280.967 391.183 283.62 391.183C286.272 391.183 288.666 391.435 289.804 390.297C290.943 389.165 291.694 390.426 291.318 388.401C290.937 386.383 289.171 386.888 289.171 386.007C289.171 385.127 288.414 385.244 290.309 384.623C292.198 383.989 295.737 382.093 297.128 380.832C298.512 379.57 301.036 378.936 301.922 377.429C302.808 375.915 302.931 375.035 304.697 374.906C306.463 374.776 308.107 375.281 309.62 374.776C311.134 374.272 311.83 372.881 312.931 373.262C314.033 373.644 314.033 374.906 314.285 375.663C314.538 376.419 315.424 376.056 315.676 376.684C315.928 377.306 313.153 378.943 315.676 379.576C318.199 380.21 320.722 379.958 320.975 380.715C321.227 381.472 320.347 382.315 319.836 383.343C319.332 384.371 320.47 385.884 319.461 386.266C318.452 386.641 317.565 386.641 316.556 387.023C315.547 387.398 314.285 389.171 313.528 389.675C312.771 390.18 311.762 390.937 310.753 391.817C309.744 392.703 309.11 395.479 309.11 396.74C309.11 398.002 308.605 397.497 307.971 398.888C307.343 400.273 306.457 400.777 306.457 401.916C306.457 403.054 305.577 405.073 305.448 406.457C305.319 407.842 305.7 409.233 304.562 409.362C303.429 409.485 302.039 409.362 301.029 410.119C300.02 410.876 299.263 410.624 299.263 412.39C299.263 414.156 299.897 415.264 298.629 415.658C297.368 416.052 296.863 416.175 297.491 417.695C298.125 419.209 297.239 420.353 296.482 421.043C295.725 421.732 295.134 421.984 294.925 419.966C294.715 417.947 291.435 409.11 290.549 410.753C289.669 412.396 289.158 413.535 289.411 414.415C289.663 415.301 288.654 415.553 287.515 414.292C286.377 413.03 286.253 413.535 286.124 412.021C285.995 410.507 284.61 409.744 285.995 409.239C287.386 408.734 288.518 407.848 289.404 406.587C290.284 405.325 290.666 405.454 291.048 404.316C291.429 403.177 293.318 402.55 292.309 401.916C291.3 401.282 287.638 401.159 286.377 401.282C285.115 401.411 279.182 401.91 278.426 400.906C277.669 399.897 276.912 399.645 276.912 398.131C276.912 396.617 275.145 394.346 275.145 395.356C275.145 396.365 273.884 396.74 273.761 396.236C273.632 395.731 271.361 392.445 271.361 393.331C271.361 394.217 272.118 395.983 270.856 395.479C269.594 394.974 269.594 393.331 268.961 394.346C268.333 395.356 267.071 398.131 267.699 399.017C268.333 399.903 269.342 399.774 270.351 400.156C271.361 400.531 271.49 400.913 270.727 401.417C269.97 401.922 267.447 401.793 267.065 403.313C266.684 404.827 268.074 405.965 269.336 406.341C270.598 406.722 269.718 407.984 269.718 409.245C269.718 410.507 270.604 413.282 270.604 414.544C270.604 415.805 270.474 417.953 271.361 419.59C272.247 421.233 273.127 424.889 271.742 424.957C270.358 425.018 269.09 425.775 269.09 424.957C269.09 424.138 268.585 419.356 268.081 421.049C267.576 422.747 266.185 424.513 264.8 424.957C263.416 425.4 260.886 424.513 260.886 426.723C260.886 428.932 262.53 432.465 260.129 433.474C257.729 434.483 258.616 435.868 254.449 436.883C250.283 437.892 245.864 445.21 245.237 445.339C244.603 445.462 240.843 447.61 239.821 450.262C238.799 452.914 233.329 452.785 233.033 454.927C232.738 457.075 232.11 457.832 230.596 458.207C229.082 458.582 226.682 457.955 225.168 460.349C223.654 462.749 224.282 462.619 222.516 462.619C220.75 462.619 217.722 465.647 218.226 468.552C218.731 471.457 221.254 477.894 218.731 482.559C216.208 487.23 215.956 497.451 216.46 497.827C216.965 498.202 213.18 496.061 213.18 497.193C213.18 498.325 212.294 499.587 211.666 500.473C211.032 501.353 211.795 504.51 211.032 504.639C210.275 504.762 206.361 503.125 206.361 505.649C206.361 508.172 202.952 511.452 202.195 511.452C201.438 511.452 197.653 509.809 196.263 505.144C194.872 500.473 190.582 489.623 189.573 487.605C188.564 485.586 185.536 480.663 185.536 478.392C185.536 476.121 180.613 465.678 180.49 464.275C180.36 462.872 180.994 462.367 180.994 462.367C180.994 462.367 178.724 460.976 178.724 460.096C178.724 459.216 175.948 455.93 176.576 453.788C177.203 451.647 175.062 445.007 175.062 443.339C175.062 441.671 176.323 438.902 175.437 439.031C174.557 439.154 174.557 438.649 174.557 436.76C174.557 434.871 175.062 428.304 174.686 426.723C174.305 425.147 174.182 424.895 174.816 423.51C175.443 422.12 174.059 422.12 174.563 420.92C175.068 419.719 175.954 419.338 176.33 419.024C176.705 418.716 175.068 419.092 173.929 418.464C172.791 417.83 172.163 418.839 172.034 420.926C171.905 423.012 171.025 425.658 168.625 426.729C166.231 427.806 162.944 428.181 162.188 427.677C161.431 427.172 153.732 420.107 153.732 418.464C153.732 416.821 153.609 417.326 156.003 417.326C158.397 417.326 162.563 414.802 162.058 412.784C161.554 410.759 160.169 415.436 155.621 414.55C151.079 413.664 150.827 408.618 149.818 408.747C148.809 408.876 148.679 407.104 149.818 406.728C150.956 406.347 153.35 407.861 153.48 406.347C153.603 404.833 152.218 404.457 152.846 404.205C153.48 403.953 154.236 404.205 155.498 404.451C156.76 404.704 159.03 406.722 160.421 405.971C161.806 405.214 162.317 404.833 163.197 404.71C164.077 404.587 164.077 404.962 164.206 405.719C164.335 406.476 166.637 406.199 166.729 404.328L166.742 404.31Z" fill="white"/>
</mask>
<g mask="url(#mask0_1114_1013)">
<path d="M334.109 334.049H113.904V399.375H334.109V334.049Z" fill="#F79118"/>
<path d="M312.594 399.375H113.904V444.576H312.594V399.375Z" fill="#DADADA"/>
<path d="M312.594 444.577H113.904V514.173H312.594V444.577Z" fill="#80B535"/>
<path d="M232.426 421.985C232.426 432.57 223.835 441.143 213.244 441.143C202.653 441.143 194.074 432.564 194.074 421.985C194.074 411.406 202.665 402.809 213.244 402.809C223.823 402.809 232.426 411.394 232.426 421.985Z" fill="#0D628E"/>
<path d="M229.884 420.797C229.884 420.797 229.847 420.81 229.822 420.81C229.681 418.625 229.096 416.563 228.185 414.699C228.21 414.699 228.228 414.699 228.241 414.674C228.813 414.348 229.004 413.634 228.678 413.068C228.358 412.502 227.625 412.292 227.065 412.631C227.053 412.631 227.041 412.656 227.041 412.656C225.847 410.895 224.327 409.382 222.579 408.181C222.579 408.169 222.579 408.163 222.579 408.151C222.911 407.591 222.714 406.865 222.154 406.538C221.594 406.212 220.868 406.397 220.542 406.975C220.53 406.988 220.53 407.006 220.517 407.031C218.653 406.114 216.603 405.548 214.425 405.4C214.425 405.375 214.425 405.357 214.425 405.338C214.425 404.68 213.896 404.157 213.237 404.157C212.579 404.157 212.062 404.686 212.062 405.338C212.062 405.357 212.062 405.375 212.062 405.4C209.883 405.548 207.822 406.114 205.945 407.031C205.945 407.006 205.945 406.988 205.932 406.975C205.612 406.397 204.88 406.212 204.326 406.538C203.754 406.865 203.557 407.591 203.877 408.151C203.901 408.163 203.901 408.169 203.901 408.181C202.141 409.382 200.634 410.895 199.44 412.656C199.421 412.656 199.421 412.637 199.403 412.631C198.843 412.292 198.117 412.502 197.797 413.068C197.458 413.628 197.661 414.348 198.221 414.674C198.234 414.692 198.258 414.693 198.264 414.699C197.366 416.563 196.793 418.625 196.64 420.81C196.615 420.81 196.597 420.797 196.59 420.797C195.932 420.797 195.396 421.32 195.396 421.973C195.396 422.625 195.932 423.16 196.59 423.16C196.59 423.16 196.615 423.148 196.64 423.142C196.793 425.327 197.366 427.388 198.264 429.253C198.252 429.265 198.234 429.265 198.221 429.284C197.661 429.604 197.458 430.324 197.797 430.89C198.117 431.462 198.837 431.653 199.403 431.321C199.427 431.321 199.427 431.308 199.44 431.296C200.634 433.056 202.141 434.576 203.901 435.776C203.901 435.776 203.901 435.795 203.883 435.795C203.544 436.373 203.748 437.087 204.32 437.413C204.874 437.733 205.606 437.549 205.926 436.97C205.938 436.958 205.938 436.939 205.938 436.921C207.815 437.838 209.877 438.404 212.056 438.558C212.056 438.576 212.056 438.595 212.056 438.62C212.056 439.272 212.572 439.801 213.231 439.801C213.889 439.801 214.419 439.272 214.419 438.62C214.419 438.601 214.419 438.576 214.419 438.558C216.597 438.41 218.647 437.838 220.511 436.921C220.524 436.946 220.524 436.958 220.536 436.97C220.868 437.543 221.588 437.733 222.148 437.413C222.714 437.081 222.911 436.355 222.573 435.795C222.573 435.795 222.573 435.782 222.573 435.776C224.321 434.576 225.841 433.056 227.035 431.296C227.035 431.308 227.053 431.315 227.059 431.321C227.619 431.659 228.358 431.462 228.672 430.89C228.998 430.33 228.813 429.604 228.235 429.284C228.222 429.265 228.204 429.265 228.179 429.253C229.096 427.388 229.675 425.327 229.816 423.142C229.841 423.142 229.859 423.16 229.878 423.16C230.536 423.16 231.059 422.631 231.059 421.985C231.059 421.339 230.536 420.803 229.878 420.803L229.884 420.797Z" fill="#DADADA"/>
<path d="M219.858 424.803C224.062 425.942 229.311 426.28 229.311 426.28C229.311 426.28 224.591 423.96 220.381 422.84C218.868 422.434 217.631 422.231 216.658 422.151C216.671 422.096 216.683 422.04 216.683 421.985C216.683 421.917 216.671 421.862 216.658 421.8C217.631 421.72 218.868 421.536 220.381 421.123C224.591 420.003 229.311 417.671 229.311 417.671C229.311 417.671 224.062 418.022 219.858 419.154C218.338 419.554 217.163 420.016 216.283 420.422C216.234 420.323 216.178 420.219 216.117 420.12C216.917 419.566 217.889 418.779 218.991 417.665C222.08 414.6 225.009 410.218 225.009 410.218C225.009 410.218 220.628 413.148 217.557 416.219C216.437 417.332 215.661 418.305 215.101 419.099C214.997 419.037 214.898 418.994 214.8 418.939C215.206 418.065 215.661 416.883 216.074 415.363C217.2 411.166 217.544 405.904 217.544 405.904C217.544 405.904 215.218 410.637 214.104 414.84C213.686 416.36 213.495 417.603 213.415 418.569C213.366 418.557 213.298 418.545 213.237 418.545C213.187 418.545 213.12 418.557 213.058 418.569C212.984 417.603 212.8 416.36 212.381 414.84C211.267 410.637 208.929 405.904 208.929 405.904C208.929 405.904 209.279 411.166 210.4 415.363C210.806 416.883 211.267 418.065 211.686 418.939C211.575 418.994 211.476 419.037 211.384 419.099C210.818 418.305 210.036 417.332 208.929 416.231C205.858 413.148 201.476 410.218 201.476 410.218C201.476 410.218 204.405 414.594 207.482 417.665C208.584 418.779 209.569 419.56 210.356 420.12C210.295 420.219 210.246 420.323 210.19 420.422C209.31 420.016 208.141 419.56 206.627 419.154C202.424 418.022 197.162 417.671 197.162 417.671C197.162 417.671 201.895 420.003 206.092 421.123C207.612 421.536 208.843 421.726 209.815 421.8C209.815 421.862 209.79 421.917 209.79 421.985C209.79 422.04 209.815 422.096 209.815 422.163C208.843 422.243 207.612 422.434 206.092 422.846C201.895 423.966 197.162 426.287 197.162 426.287C197.162 426.287 202.424 425.942 206.627 424.816C208.141 424.41 209.31 423.96 210.19 423.542C210.246 423.64 210.295 423.751 210.356 423.843C209.569 424.397 208.584 425.191 207.482 426.299C204.405 429.37 201.476 433.751 201.476 433.751C201.476 433.751 205.858 430.816 208.929 427.745C210.036 426.637 210.818 425.659 211.384 424.865C211.476 424.933 211.575 424.97 211.686 425.025C211.267 425.899 210.818 427.074 210.412 428.6C209.273 432.798 208.929 438.059 208.929 438.059C208.929 438.059 211.267 433.327 212.381 429.124C212.8 427.61 212.99 426.367 213.058 425.4C213.12 425.413 213.187 425.413 213.237 425.413C213.298 425.413 213.366 425.413 213.415 425.4C213.495 426.367 213.686 427.604 214.104 429.124C215.218 433.327 217.544 438.059 217.544 438.059C217.544 438.059 217.2 432.798 216.074 428.6C215.667 427.08 215.206 425.905 214.8 425.025C214.898 424.97 215.009 424.933 215.101 424.865C215.661 425.653 216.449 426.637 217.557 427.745C220.628 430.816 225.009 433.751 225.009 433.751C225.009 433.751 222.08 429.37 219.003 426.299C217.889 425.185 216.917 424.403 216.117 423.843C216.178 423.745 216.234 423.64 216.283 423.542C217.157 423.96 218.332 424.41 219.858 424.81V424.803Z" fill="#0D628E"/>
</g>
<path d="M272.939 516.855C297.376 516.855 317.187 497.044 317.187 472.607C317.187 448.17 297.376 428.359 272.939 428.359C248.502 428.359 228.691 448.17 228.691 472.607C228.691 497.044 248.502 516.855 272.939 516.855Z" fill="#FFB600"/>
<path d="M274.738 464.638C280.831 468.49 284.72 471.401 286.406 473.358C288.646 476.01 289.772 479.137 289.772 482.731C289.772 486.657 288.443 489.98 285.797 492.694C283.144 495.408 279.458 496.971 274.738 497.377V501.851H271.409V497.642C268.701 497.586 266.307 497.365 264.215 496.971C262.122 496.577 259.722 495.857 257.02 494.811V482.454H258.627C259.137 485.26 259.944 487.531 261.039 489.266C262.135 491.002 263.519 492.306 265.187 493.186C266.855 494.066 268.929 494.608 271.403 494.811V475.912C265.255 472.066 261.168 468.982 259.144 466.675C257.113 464.367 256.104 461.684 256.104 458.619C256.104 455.302 257.377 452.379 259.925 449.837C262.473 447.302 266.301 445.714 271.403 445.074V443.277H274.732V445.074C279.064 445.375 283.428 446.723 287.815 449.092V460.151H286.326C285.588 457.653 284.701 455.597 283.668 453.991C282.634 452.385 281.304 451.006 279.667 449.856C278.418 449.012 276.769 448.317 274.732 447.751V464.625L274.738 464.638ZM271.409 447.652C269.544 447.806 268.055 448.317 266.935 449.185C265.15 450.539 264.258 452.169 264.258 454.083C264.258 455.259 264.67 456.44 265.501 457.64C266.332 458.84 268.301 460.471 271.409 462.539V447.659V447.652ZM274.738 494.823C276.929 494.313 278.535 493.445 279.557 492.202C280.578 490.965 281.089 489.414 281.089 487.549C281.089 485.943 280.634 484.441 279.735 483.032C278.83 481.629 277.163 480.035 274.744 478.25V494.817L274.738 494.823Z" fill="white"/>
<path d="M272.94 510.11C293.653 510.11 310.443 493.32 310.443 472.607C310.443 451.895 293.653 435.104 272.94 435.104C252.228 435.104 235.438 451.895 235.438 472.607C235.438 493.32 252.228 510.11 272.94 510.11Z" stroke="white" stroke-width="3" stroke-miterlimit="10"/>
<defs>
<filter id="filter0_d_1114_1013" x="30.4199" y="110.538" width="410.749" height="462.462" filterUnits="userSpaceOnUse" color-interpolation-filters="sRGB">
<feFlood flood-opacity="0" result="BackgroundImageFix"/>
<feColorMatrix in="SourceAlpha" type="matrix" values="0 0 0 0 0 0 0 0 0 0 0 0 0 0 0 0 0 0 127 0" result="hardAlpha"/>
<feOffset dx="1" dy="2"/>
<feGaussianBlur stdDeviation="15"/>
<feComposite in2="hardAlpha" operator="out"/>
<feColorMatrix type="matrix" values="0 0 0 0 0 0 0 0 0 0 0 0 0 0 0 0 0 0 0.25 0"/>
<feBlend mode="normal" in2="BackgroundImageFix" result="effect1_dropShadow_1114_1013"/>
<feBlend mode="normal" in="SourceGraphic" in2="effect1_dropShadow_1114_1013" result="shape"/>
</filter>
<filter id="filter1_d_1114_1013" x="0" y="0" width="469.442" height="259.319" filterUnits="userSpaceOnUse" color-interpolation-filters="sRGB">
<feFlood flood-opacity="0" result="BackgroundImageFix"/>
<feColorMatrix in="SourceAlpha" type="matrix" values="0 0 0 0 0 0 0 0 0 0 0 0 0 0 0 0 0 0 127 0" result="hardAlpha"/>
<feOffset dy="4"/>
<feGaussianBlur stdDeviation="10"/>
<feComposite in2="hardAlpha" operator="out"/>
<feColorMatrix type="matrix" values="0 0 0 0 0 0 0 0 0 0 0 0 0 0 0 0 0 0 0.25 0"/>
<feBlend mode="normal" in2="BackgroundImageFix" result="effect1_dropShadow_1114_1013"/>
<feBlend mode="normal" in="SourceGraphic" in2="effect1_dropShadow_1114_1013" result="shape"/>
</filter>
<linearGradient id="paint0_linear_1114_1013" x1="96.2695" y1="16" x2="383.805" y2="315.499" gradientUnits="userSpaceOnUse">
<stop stop-color="#FFDF7E"/>
<stop offset="0.572917" stop-color="#FFC000"/>
<stop offset="1" stop-color="#C59400"/>
</linearGradient>
<linearGradient id="paint1_linear_1114_1013" x1="41.3868" y1="167.759" x2="401.734" y2="580.977" gradientUnits="userSpaceOnUse">
<stop stop-color="#FFD040"/>
<stop offset="0.520833" stop-color="#FFC000"/>
<stop offset="1" stop-color="#D7A100"/>
</linearGradient>
</defs>
</svg>
