<svg width="135" height="44" viewBox="0 0 135 44" fill="none" xmlns="http://www.w3.org/2000/svg">
<rect width="134.277" height="44" rx="10" fill="#08548A"/>
<path d="M37.076 14.5H43.0335L38.0259 19.8089H46V24.1939H38.0259L43.0335 29.5H37.076L30 22.0014L37.076 14.5Z" fill="white"/>
<path d="M63.7973 20.52H70.4053V22.04H63.7973V20.52ZM57.0293 28.056H71.5253V29.576H57.0293V28.056ZM62.9333 15.72H64.5493V28.888H62.9333V15.72ZM72.9333 21.944H87.6533V23.592H72.9333V21.944ZM91.1893 19.224V20.232H93.9413V19.224H91.1893ZM91.1893 17.208V18.216H93.9413V17.208H91.1893ZM89.8453 16.152H95.3493V21.304H89.8453V16.152ZM88.9813 22.376H96.1973V23.512H88.9813V22.376ZM96.1173 16.232H103.445V17.336H96.1173V16.232ZM92.0853 22.728H93.3653V28.968L92.0853 28.216V22.728ZM92.7573 25.048H95.9093V26.168H92.7573V25.048ZM99.2533 16.504L100.645 16.792C100.309 17.656 99.9413 18.584 99.6373 19.192L98.5333 18.92C98.8053 18.232 99.0933 17.224 99.2533 16.504ZM98.0373 21.48V22.488H101.461V21.48H98.0373ZM98.0373 23.496V24.52H101.461V23.496H98.0373ZM98.0373 19.464V20.472H101.461V19.464H98.0373ZM96.6773 18.408H102.869V25.592H96.6773V18.408ZM97.9893 25.8L99.2533 26.184C98.5653 27.08 97.4133 27.992 96.4213 28.536C96.1973 28.312 95.7173 27.848 95.4293 27.64C96.4053 27.192 97.4133 26.504 97.9893 25.8ZM89.9253 24.28H91.1733C91.0773 26.648 90.7893 29.016 89.6213 30.424C89.4293 30.104 89.0133 29.64 88.7093 29.416C89.6533 28.264 89.8613 26.232 89.9253 24.28ZM90.9013 25.752C91.9413 28.472 94.2293 28.792 97.6693 28.792C98.5653 28.792 102.709 28.792 103.813 28.76C103.605 29.048 103.381 29.64 103.301 30.024H97.6693C93.6533 30.024 91.2373 29.496 89.9893 26.056L90.9013 25.752ZM100.245 26.296L101.285 25.736C102.181 26.296 103.205 27.176 103.717 27.784L102.629 28.456C102.117 27.816 101.077 26.888 100.245 26.296Z" fill="white"/>
</svg>
