<svg width="198" height="65" viewBox="0 0 198 65" fill="none" xmlns="http://www.w3.org/2000/svg">
<rect width="197.03" height="65" rx="32.5" fill="#08548A"/>
<path d="M42.2735 19.6621H52.6073L43.9211 28.7496H57.7529V36.2556H43.9211L52.6073 45.3383H42.2735L29.9996 32.5026L42.2735 19.6621Z" fill="white"/>
<path d="M83.4868 29.5703H97.0687V32.6945H83.4868V29.5703ZM69.5759 45.0597H99.3708V48.1839H69.5759V45.0597ZM81.7109 19.7045H85.0324V46.7698H81.7109V19.7045ZM102.265 32.4972H132.52V35.8845H102.265V32.4972ZM139.788 26.9066V28.9784H145.444V26.9066H139.788ZM139.788 22.7629V24.8347H145.444V22.7629H139.788ZM137.025 20.5924H148.338V31.1818H137.025V20.5924ZM135.25 33.3851H150.081V35.72H135.25V33.3851ZM149.917 20.7568H164.979V23.026H149.917V20.7568ZM141.629 34.1086H144.26V46.9342L141.629 45.3886V34.1086ZM143.011 38.8771H149.489V41.1792H143.011V38.8771ZM156.362 21.3159L159.224 21.9079C158.533 23.6837 157.777 25.5911 157.152 26.8408L154.883 26.2817C155.442 24.8676 156.034 22.7958 156.362 21.3159ZM153.863 31.5435V33.6153H160.901V31.5435H153.863ZM153.863 35.6872V37.7919H160.901V35.6872H153.863ZM153.863 27.3999V29.4717H160.901V27.3999H153.863ZM151.068 25.2294H163.795V39.9952H151.068V25.2294ZM153.764 40.4228L156.362 41.212C154.948 43.0537 152.581 44.9282 150.542 46.0463C150.081 45.5859 149.095 44.6322 148.503 44.2047C150.509 43.2839 152.581 41.8698 153.764 40.4228ZM137.19 37.2986H139.755C139.558 42.1657 138.966 47.0329 136.565 49.9269C136.17 49.2691 135.315 48.3154 134.691 47.855C136.631 45.4872 137.058 41.3107 137.19 37.2986ZM139.196 40.3241C141.334 45.9148 146.036 46.5725 153.107 46.5725C154.948 46.5725 163.466 46.5725 165.735 46.5067C165.308 47.0987 164.847 48.3154 164.683 49.1047H153.107C144.852 49.1047 139.887 48.0195 137.321 40.9489L139.196 40.3241ZM158.401 41.4422L160.539 40.2912C162.381 41.4422 164.485 43.251 165.538 44.5007L163.301 45.8819C162.249 44.5664 160.112 42.659 158.401 41.4422Z" fill="white"/>
</svg>
