<svg width="165" height="49" viewBox="0 0 165 49" fill="none" xmlns="http://www.w3.org/2000/svg">
<path d="M38.2096 12.4473C32.0307 12.4473 26.9745 17.2531 26.5735 23.3311H23.3379L26.8794 26.8828L30.2124 30.2249L33.8875 26.5395L37.0857 23.3322H33.687C34.2183 19.2141 37.7349 16.0318 41.998 16.0318C43.1615 16.0318 44.2684 16.2697 45.2744 16.6979L46.3087 15.7202C44.2117 13.6946 41.3568 12.4473 38.2096 12.4473Z" fill="#1E4C7A"/>
<path d="M38.7613 35.5667C44.9413 35.5667 49.9974 30.7609 50.3974 24.6828H53.6329L50.0915 21.1311L46.7585 17.7891L43.0833 21.4744L39.8851 24.6817H43.2838C42.7525 28.7998 39.236 31.9821 34.9728 31.9821C33.8093 31.9821 32.7025 31.7442 31.6965 31.316L30.6621 32.2937C32.7603 34.3193 35.6152 35.5667 38.7613 35.5667Z" fill="#1E4C7A"/>
<path d="M62.6079 32.5668H80.6679V34.0868H62.6079V32.5668ZM62.7279 19.6868H80.5479V21.2068H62.7279V19.6868ZM64.0879 29.6668H79.3879V31.1468H64.0879V29.6668ZM70.5879 17.8068H72.4879V33.3268H70.5879V17.8068ZM77.7079 16.2068L78.6479 17.6668C74.9279 18.3068 69.2879 18.6468 64.6079 18.7068C64.5879 18.2668 64.3879 17.6068 64.2279 17.2268C68.8879 17.1268 74.4479 16.7668 77.7079 16.2068ZM66.5879 25.9468V27.2068H76.7079V25.9468H66.5879ZM66.5879 23.5068V24.7468H76.7079V23.5068H66.5879ZM64.7479 22.2068H78.6279V28.5068H64.7479V22.2068ZM93.5679 22.8268H100.868V24.5868H93.5679V22.8268ZM82.7679 18.1868H91.6879V19.7468H82.7679V18.1868ZM82.5679 26.1268H91.7279V27.7468H82.5679V26.1268ZM82.4679 22.7068H92.0079V24.2868H82.4679V22.7068ZM96.9679 23.5868H98.8079V34.6068H96.9679V23.5868ZM83.9679 20.1468L85.4879 19.7868C85.8479 20.5668 86.1479 21.6068 86.2479 22.2668L84.6679 22.7068C84.5679 22.0268 84.2879 20.9468 83.9679 20.1468ZM88.9479 19.7668L90.6679 20.1068C90.2479 21.2468 89.7879 22.4668 89.3879 23.2668L87.8479 22.9268C88.2279 22.0668 88.6879 20.6868 88.9479 19.7668ZM99.0279 16.4068L100.528 17.8068C98.5279 18.5668 95.7879 19.1468 93.4279 19.4868C93.3279 19.0868 93.0679 18.4468 92.8479 18.0468C95.0679 17.6668 97.5879 17.0468 99.0279 16.4068ZM85.7479 16.4468L87.6279 15.9868C88.0679 16.8068 88.5879 17.9268 88.7879 18.6468L86.8079 19.1868C86.6279 18.4668 86.1479 17.3068 85.7479 16.4468ZM92.8479 18.0468H94.6079V25.0868C94.6079 27.9868 94.3479 32.0268 92.5679 34.6268C92.2479 34.2868 91.5079 33.6868 91.1079 33.4868C92.7079 31.1268 92.8479 27.7268 92.8479 25.0868V18.0468ZM89.0079 29.1268L90.2679 28.4468C90.9079 29.4068 91.6079 30.6668 91.9279 31.4668L90.6079 32.2668C90.2879 31.4268 89.5879 30.0868 89.0079 29.1268ZM84.1879 28.6068L85.6679 29.0468C85.1879 30.4668 84.3679 32.0868 83.6279 33.1068C83.3479 32.8668 82.7079 32.4268 82.3479 32.2268C83.0879 31.2868 83.7679 29.9068 84.1879 28.6068ZM86.4679 23.5668H88.3079V34.5868H86.4679V23.5668ZM109.428 22.3068V24.4468H112.088V22.3068H109.428ZM109.428 25.9868V28.1468H112.088V25.9868H109.428ZM109.428 18.6468V20.7668H112.088V18.6468H109.428ZM107.828 16.9868H113.768V29.8068H107.828V16.9868ZM111.288 30.8068L112.728 30.0068C113.508 30.9468 114.508 32.2668 114.948 33.0868L113.428 34.0068C113.028 33.1668 112.068 31.7868 111.288 30.8068ZM108.528 30.1268L110.268 30.5868C109.588 32.1268 108.488 33.7468 107.468 34.7668C107.108 34.4868 106.388 33.9868 105.968 33.7468C106.968 32.8468 107.968 31.4668 108.528 30.1268ZM118.448 16.1268H120.188V32.4668C120.188 33.5268 119.948 34.0468 119.328 34.3268C118.708 34.6468 117.708 34.6868 116.108 34.6868C116.028 34.2068 115.788 33.4068 115.548 32.8868C116.668 32.9268 117.688 32.9068 118.008 32.9068C118.328 32.8868 118.448 32.7868 118.448 32.4668V16.1268ZM115.048 18.1868H116.688V29.7068H115.048V18.1868ZM103.108 17.6868L104.188 16.3268C105.308 16.8268 106.688 17.6468 107.388 18.2868L106.248 19.8068C105.608 19.1468 104.228 18.2468 103.108 17.6868ZM102.288 23.0668L103.328 21.6668C104.488 22.1268 105.908 22.8668 106.608 23.4868L105.508 25.0268C104.828 24.4068 103.428 23.5668 102.288 23.0668ZM102.668 33.4668C103.468 31.9268 104.568 29.3468 105.368 27.0668L106.888 28.0468C106.168 30.1668 105.228 32.5668 104.368 34.4668L102.668 33.4668ZM124.188 20.1668H129.708V21.6068H124.188V20.1668ZM124.188 23.1268H129.748V24.5668H124.188V23.1268ZM126.288 18.1468H127.768V27.2268H126.288V18.1468ZM126.748 28.5268L127.488 28.2668C127.888 29.0868 128.348 30.1668 128.528 30.8468L127.748 31.1668C127.568 30.4468 127.128 29.3468 126.748 28.5268ZM125.568 28.8068L126.408 28.6468C126.688 29.6668 126.988 31.0068 127.108 31.8868L126.228 32.0868C126.128 31.1868 125.848 29.8268 125.568 28.8068ZM124.368 28.9668L125.228 28.8868C125.368 30.0468 125.448 31.5468 125.468 32.5268L124.548 32.6468C124.568 31.6468 124.508 30.1468 124.368 28.9668ZM123.048 28.5868L124.068 28.9268C123.908 30.2668 123.628 32.2068 123.268 33.3668L122.188 32.9668C122.588 31.8068 122.908 29.9068 123.048 28.5868ZM128.648 26.1668H130.168C130.168 26.1668 130.168 26.6268 130.148 26.8268C130.008 31.7068 129.868 33.4468 129.448 34.0068C129.168 34.4068 128.848 34.5268 128.388 34.5868C128.008 34.6468 127.388 34.6468 126.788 34.6068C126.748 34.1868 126.608 33.5868 126.388 33.1868C126.948 33.2468 127.428 33.2468 127.668 33.2468C127.888 33.2468 128.028 33.2268 128.148 33.0268C128.428 32.6668 128.548 31.0468 128.648 26.4468V26.1668ZM130.068 16.9868V18.5468H124.748V26.1668H129.448V27.7468H123.248V16.9868H130.068ZM132.128 24.6668V26.9268H133.628V24.6668H132.128ZM130.848 23.4068H134.988V28.1668H130.848V23.4068ZM137.088 24.6668V26.9268H138.708V24.6668H137.088ZM135.788 23.4068H140.068V28.1668H135.788V23.4068ZM132.248 28.6868L133.848 28.9668C133.348 31.3068 132.328 33.3868 130.968 34.7068C130.688 34.4468 130.068 33.9068 129.688 33.6468C130.968 32.5068 131.848 30.7068 132.248 28.6868ZM132.428 20.5868H138.388V22.0668H132.428V20.5868ZM132.088 31.4468L133.028 30.3268C133.888 30.8268 134.988 31.6268 135.508 32.1668L134.528 33.4268C134.028 32.8468 132.948 32.0068 132.088 31.4468ZM137.208 28.5868L138.888 28.8668C138.468 31.2668 137.508 33.3668 136.188 34.7068C135.888 34.4268 135.188 33.8868 134.788 33.6268C136.068 32.4868 136.848 30.6668 137.208 28.5868ZM136.748 31.9468L137.828 30.7868C138.848 31.4668 140.168 32.4468 140.808 33.1068L139.688 34.4068C139.068 33.7068 137.768 32.6668 136.748 31.9468ZM134.968 15.9068L136.688 16.4868C135.388 18.7468 133.228 20.7468 130.848 22.1468C130.588 21.8068 130.028 21.2268 129.668 20.9468C131.908 19.7068 133.908 17.7668 134.968 15.9068ZM135.748 16.5068C136.868 17.9068 139.128 19.5068 141.008 20.3468C140.708 20.7668 140.368 21.5668 140.248 22.0268C138.188 20.9068 135.808 18.9868 134.468 17.2868L135.748 16.5068Z" fill="#1E4C7A"/>
</svg>
