<svg width="122" height="45" viewBox="0 0 122 45" fill="none" xmlns="http://www.w3.org/2000/svg">
<g filter="url(#filter0_d_1115_4011)">
<rect x="4.5" y="0.5" width="113" height="36" rx="9.5" fill="#003477" stroke="#D8E9FF"/>
<path d="M26.786 11.383L28.046 11.887C27.434 13.075 26.66 14.389 26.03 15.289L24.914 14.821C25.544 13.903 26.354 12.445 26.786 11.383ZM18.848 11.995L19.946 11.473C20.702 12.499 21.494 13.885 21.782 14.803L20.612 15.397C20.342 14.461 19.604 13.057 18.848 11.995ZM26.192 16.027H27.47V25.765C27.47 26.485 27.326 26.899 26.786 27.115C26.264 27.331 25.382 27.331 24.014 27.331C23.96 26.971 23.78 26.413 23.6 26.053C24.626 26.089 25.544 26.089 25.832 26.071C26.12 26.071 26.192 25.981 26.192 25.747V16.027ZM22.718 10.897H24.014V16.819H22.718V10.897ZM19.802 16.027H26.516V17.215H19.802V16.027ZM19.298 16.027H20.558V21.013C20.558 23.011 20.396 25.711 19.316 27.511C19.1 27.277 18.578 26.863 18.272 26.719C19.208 25.063 19.298 22.795 19.298 21.013V16.027ZM20.576 22.687C22.16 22.363 24.536 21.823 26.822 21.283L26.948 22.363C24.878 22.921 22.7 23.443 21.026 23.857L20.576 22.687ZM20.882 19.321L21.422 18.457C22.844 18.727 24.68 19.303 25.652 19.807L25.094 20.779C24.14 20.275 22.34 19.645 20.882 19.321ZM12.98 15.451H17.534V16.621H12.98V15.451ZM11.882 18.583H18.164V19.771H11.882V18.583ZM12.044 20.941L12.998 20.707C13.322 21.769 13.646 23.137 13.772 24.037L12.782 24.307C12.656 23.389 12.332 22.003 12.044 20.941ZM11.666 25.585C13.268 25.315 15.806 24.829 18.29 24.343L18.344 25.387C16.094 25.891 13.736 26.431 11.99 26.809L11.666 25.585ZM17.282 20.491L18.362 20.815C18.02 21.931 17.606 23.245 17.264 24.091L16.4 23.803C16.706 22.921 17.102 21.481 17.282 20.491ZM14.654 15.955H15.842V25.495L14.654 25.693V15.955ZM14.996 10.879L16.202 11.275C15.248 13.309 13.718 15.343 12.188 16.657C12.098 16.369 11.738 15.649 11.504 15.325C12.872 14.263 14.204 12.607 14.996 10.879ZM14.726 12.499L15.464 11.599C16.58 12.535 18.074 13.831 18.812 14.587L18.038 15.631C17.318 14.821 15.824 13.453 14.726 12.499ZM37.37 11.221L38.612 10.879C39.08 11.599 39.602 12.607 39.8 13.255L38.504 13.669C38.306 13.039 37.82 11.995 37.37 11.221ZM32.852 25.495H43.166V26.611H32.852V25.495ZM32.87 15.127H43.94V16.081H32.87V15.127ZM32.87 17.323H43.994V18.295H32.87V17.323ZM32.114 22.003H44.174V27.475H42.788V23.119H33.464V27.475H32.114V22.003ZM33.482 10.843L34.76 11.239C33.734 13.507 32.114 15.739 30.512 17.179C30.332 16.927 29.846 16.387 29.558 16.171C31.124 14.875 32.6 12.877 33.482 10.843ZM38.09 13.381H39.404V20.239H38.09V13.381ZM33.464 12.877H44.822V13.903H33.464V21.409H32.132V13.939L33.212 12.877H33.464ZM32.816 19.645H45.218V20.689H32.816V19.645ZM47.864 14.371H52.4V15.613H47.864V14.371ZM49.772 10.879H50.96V27.421H49.772V10.879ZM49.754 15.109L50.474 15.415C50.06 18.223 49.124 21.769 48.098 23.569C47.954 23.173 47.666 22.579 47.468 22.237C48.422 20.653 49.358 17.593 49.754 15.109ZM50.852 16.639C51.176 17.089 52.328 19.087 52.598 19.555L51.932 20.563C51.626 19.735 50.672 17.827 50.312 17.179L50.852 16.639ZM52.778 20.185H63.848V21.283H52.778V20.185ZM54.362 22.579L55.172 21.877C56.054 22.561 57.224 23.533 57.8 24.145L56.972 24.955C56.396 24.325 55.262 23.299 54.362 22.579ZM60.248 19.033L60.95 18.385C61.58 18.763 62.408 19.303 62.822 19.699L62.12 20.419C61.688 20.023 60.896 19.447 60.248 19.033ZM61.868 21.481L63.02 21.913C61.814 24.343 59.51 26.215 56.702 27.349C56.54 27.115 56.216 26.701 55.964 26.485C58.7 25.459 60.842 23.659 61.868 21.481ZM57.314 11.023H58.466C58.664 19.573 59.816 25.855 62.678 26.107C63.056 26.143 63.29 25.459 63.452 24.145C63.668 24.397 64.118 24.721 64.37 24.829C64.01 26.827 63.452 27.475 62.714 27.439C58.7 27.169 57.62 20.329 57.314 11.023ZM55.73 16.441L56.576 16.207C56.972 17.071 57.35 18.205 57.494 18.871L56.594 19.195C56.45 18.475 56.09 17.323 55.73 16.441ZM52.994 15.955C52.94 15.721 52.778 15.217 52.67 14.947C52.868 14.893 53.102 14.659 53.336 14.299C53.588 13.939 54.416 12.535 54.866 11.167L55.874 11.491C55.244 12.931 54.398 14.407 53.642 15.361V15.379C53.642 15.379 52.994 15.703 52.994 15.955ZM52.994 15.955L52.976 15.163L53.498 14.821L56.036 14.569C55.892 14.839 55.748 15.253 55.694 15.469C53.624 15.739 53.21 15.829 52.994 15.955ZM53.156 19.033C53.102 18.817 52.94 18.277 52.832 18.025C53.102 17.971 53.408 17.647 53.732 17.197C54.11 16.783 55.352 15.073 56.108 13.417L57.116 13.795C56.108 15.559 54.902 17.287 53.768 18.439V18.457C53.768 18.457 53.156 18.799 53.156 19.033ZM53.156 19.033L53.12 18.205L53.624 17.881L56.612 17.503C56.648 17.773 56.756 18.169 56.846 18.385C53.876 18.799 53.408 18.889 53.156 19.033ZM62.192 16.117L63.038 15.883C63.434 16.729 63.848 17.881 64.028 18.565L63.146 18.889C62.984 18.187 62.57 16.999 62.192 16.117ZM59.438 15.595C59.384 15.361 59.24 14.857 59.114 14.569C59.312 14.551 59.51 14.317 59.726 13.993C59.924 13.651 60.662 12.355 61.04 11.131L62.048 11.455C61.508 12.787 60.752 14.119 60.068 14.983V15.019C60.068 15.019 59.438 15.343 59.438 15.595ZM59.438 15.595V14.785L59.942 14.461L62.372 14.227C62.246 14.497 62.102 14.911 62.03 15.127C60.05 15.379 59.654 15.469 59.438 15.595ZM59.636 18.691C59.582 18.475 59.402 17.917 59.294 17.629C59.564 17.575 59.852 17.269 60.176 16.819C60.536 16.387 61.724 14.659 62.426 13.003L63.47 13.399C62.534 15.163 61.364 16.909 60.266 18.079V18.097C60.266 18.097 59.636 18.457 59.636 18.691ZM59.636 18.691L59.6 17.863L60.104 17.539L63.074 17.161C63.128 17.431 63.236 17.791 63.29 18.007C60.338 18.457 59.888 18.547 59.636 18.691ZM54.146 20.599H55.316V21.553C55.316 23.353 54.74 25.765 52.472 27.457C52.292 27.223 51.842 26.809 51.572 26.647C53.696 25.117 54.146 23.047 54.146 21.517V20.599ZM72.488 14.551H81.632V15.541H72.488V14.551ZM71.714 16.783H82.262V17.809H71.714V16.783ZM71.408 23.425H82.478V24.487H71.408V23.425ZM73.298 21.139H80.552V22.111H73.298V21.139ZM72.146 12.373H81.902V13.381H72.146V12.373ZM74.216 10.879H75.476V17.287H74.216V10.879ZM76.268 17.413H77.51V23.893H76.268V17.413ZM78.374 10.879H79.652V17.233H78.374V10.879ZM72.614 18.889H80.552V19.897H73.874V27.403H72.614V18.889ZM80.048 18.889H81.308V26.017C81.308 26.665 81.164 27.007 80.696 27.187C80.21 27.385 79.418 27.385 78.23 27.385C78.176 27.079 77.996 26.611 77.834 26.287C78.716 26.323 79.508 26.305 79.742 26.305C79.976 26.287 80.048 26.215 80.048 25.999V18.889ZM65.918 14.785H71.768V16.063H65.918V14.785ZM68.456 10.879H69.698V27.421H68.456V10.879ZM68.42 15.541L69.248 15.829C68.69 18.673 67.502 22.219 66.242 24.019C66.098 23.677 65.774 23.155 65.558 22.867C66.746 21.247 67.916 18.115 68.42 15.541ZM69.608 17.179C70.022 17.683 71.534 19.951 71.858 20.473L71.102 21.481C70.706 20.581 69.464 18.475 68.996 17.755L69.608 17.179Z" fill="white"/>
<path d="M99.9248 25.0123H96.0096C96.2944 25.5788 96.3531 26.1584 96.1198 26.7498C95.961 27.1538 95.6977 27.4715 95.3357 27.7013C94.6116 28.1609 93.6729 28.0833 93.0318 27.5154C92.3278 26.8903 92.1818 26.0223 92.6111 24.9669C92.561 24.9494 92.5138 24.9289 92.4637 24.9172C91.4248 24.6639 90.778 24.0008 90.5519 22.9396C89.7234 19.0371 88.9063 15.1317 88.0935 11.2263C88.0549 11.0419 87.9876 10.9877 87.8102 10.9935C87.3909 11.0067 86.9702 11.0009 86.5495 10.9965C86.2047 10.9935 86.0029 10.8076 86 10.5046C85.9972 10.1958 86.2104 10.0026 86.561 10.0011C87.1648 9.99963 87.7687 9.99963 88.3711 10.0011C88.7131 10.0011 88.872 10.1372 88.9435 10.4812C89.0823 11.1443 89.2197 11.8074 89.3628 12.4969C89.4716 12.4969 89.5774 12.4969 89.6819 12.4969C95.5503 12.4969 101.417 12.4969 107.286 12.4969C107.407 12.4969 107.533 12.4983 107.649 12.5291C107.92 12.6008 108.05 12.8613 107.983 13.1761C107.696 14.5008 107.409 15.8255 107.121 17.1503C106.778 18.7341 106.431 20.3179 106.089 21.9017C105.981 22.4053 105.865 22.5034 105.354 22.5034C100.823 22.5034 96.2915 22.5034 91.7611 22.5034H91.4892C91.4892 23.3172 92.1103 23.9554 92.9302 23.9994C93.0146 24.0037 93.0976 24.0023 93.182 24.0023C97.0628 24.0023 100.945 24.0023 104.826 24.0023C104.902 24.0023 104.979 24.0008 105.055 24.0037C105.357 24.0198 105.55 24.216 105.546 24.5044C105.543 24.7869 105.34 24.9918 105.042 24.9962C104.522 25.002 104.003 24.9977 103.484 24.9977C103.445 24.9977 103.408 24.9977 103.339 24.9977C103.577 25.488 103.668 25.9799 103.531 26.501C103.395 27.0148 103.109 27.4144 102.669 27.6969C101.968 28.1463 101.071 28.0877 100.418 27.5593C99.6915 26.9694 99.5312 26.1599 99.9219 25.0108L99.9248 25.0123ZM93.3895 13.5186C93.5169 14.694 93.64 15.8372 93.7644 16.9775H97.7196V13.5186H93.3895ZM93.8789 18.0183C94.0063 19.1923 94.1293 20.3369 94.2524 21.4802H97.7196V18.0183H93.8789ZM98.7227 13.5157V16.9761H102.183C102.309 15.8138 102.433 14.6706 102.559 13.5157H98.7227ZM98.7227 18.0198V21.4816H101.693C101.819 20.3252 101.944 19.1805 102.07 18.0198H98.7227ZM106.892 13.5288C106.828 13.5157 106.806 13.5083 106.783 13.5083C105.76 13.5083 104.737 13.5098 103.714 13.5025C103.547 13.5025 103.535 13.5918 103.522 13.7191C103.469 14.2388 103.409 14.7584 103.353 15.2766C103.293 15.8402 103.235 16.4037 103.173 16.979H106.164C106.407 15.8226 106.647 14.6808 106.891 13.5274L106.892 13.5288ZM105.916 18.0183H103.06C102.934 19.1732 102.81 20.3238 102.682 21.4948C103.506 21.4948 104.292 21.4977 105.078 21.4875C105.126 21.4875 105.201 21.3879 105.215 21.3221C105.33 20.8215 105.433 20.3164 105.538 19.8144C105.663 19.2215 105.787 18.6287 105.916 18.0183ZM92.7656 16.9966C92.7656 16.9395 92.7685 16.9087 92.7656 16.8795C92.6526 15.808 92.5352 14.7379 92.4279 13.6664C92.4122 13.5069 92.3278 13.504 92.2133 13.504C91.3876 13.5054 90.5634 13.504 89.7377 13.5069C89.6891 13.5069 89.639 13.5215 89.576 13.5332C89.8078 14.6311 90.0411 15.7128 90.2586 16.796C90.2929 16.9702 90.3659 17.001 90.5176 16.9995C91.1672 16.9922 91.8169 16.9966 92.4651 16.9966C92.5624 16.9966 92.6597 16.9966 92.7656 16.9966ZM90.5176 18.0183C90.7623 19.1879 91.0041 20.3399 91.2431 21.4758H93.2679C93.142 20.3091 93.0189 19.1674 92.8944 18.0183H90.5176ZM95.2798 25.996C95.2798 25.4456 94.842 24.9977 94.3054 25.0006C93.7644 25.005 93.3352 25.4485 93.3366 26.0018C93.3366 26.5551 93.7702 26.9987 94.3111 26.9987C94.8477 26.9987 95.2784 26.5537 95.2798 25.996ZM102.615 26.0077C102.621 25.4558 102.187 25.0035 101.652 25.0021C101.111 25.0006 100.676 25.4397 100.673 25.993C100.67 26.5493 101.094 26.9913 101.636 27.0001C102.171 27.0089 102.611 26.5639 102.616 26.0091L102.615 26.0077Z" fill="#D8E9FF"/>
</g>
<defs>
<filter id="filter0_d_1115_4011" x="0" y="0" width="122" height="45" filterUnits="userSpaceOnUse" color-interpolation-filters="sRGB">
<feFlood flood-opacity="0" result="BackgroundImageFix"/>
<feColorMatrix in="SourceAlpha" type="matrix" values="0 0 0 0 0 0 0 0 0 0 0 0 0 0 0 0 0 0 127 0" result="hardAlpha"/>
<feOffset dy="4"/>
<feGaussianBlur stdDeviation="2"/>
<feComposite in2="hardAlpha" operator="out"/>
<feColorMatrix type="matrix" values="0 0 0 0 0 0 0 0 0 0 0 0 0 0 0 0 0 0 0.25 0"/>
<feBlend mode="normal" in2="BackgroundImageFix" result="effect1_dropShadow_1115_4011"/>
<feBlend mode="normal" in="SourceGraphic" in2="effect1_dropShadow_1115_4011" result="shape"/>
</filter>
</defs>
</svg>
