<svg width="122" height="45" viewBox="0 0 122 45" fill="none" xmlns="http://www.w3.org/2000/svg">
<g filter="url(#filter0_d_1115_4005)">
<rect x="4.5" y="0.5" width="113" height="36" rx="9.5" fill="#003477" stroke="#D8E9FF"/>
<path d="M19.656 12.625H34.398V13.777H19.656V12.625ZM20.232 25.819H33.858V26.953H20.232V25.819ZM23.202 14.965H30.78V15.991H23.202V14.965ZM23.202 17.233H30.78V18.259H23.202V17.233ZM18.81 19.555H35.172V20.689H18.81V19.555ZM22.59 22.777H31.428V23.893H22.59V22.777ZM22.392 10.897H23.742V20.185H22.392V10.897ZM30.312 10.897H31.662V20.185H30.312V10.897ZM26.262 21.265H27.648V26.449H26.262V21.265ZM23.346 19.861L24.48 20.293C23.382 22.147 21.402 23.857 19.512 24.739C19.314 24.433 18.936 23.965 18.63 23.713C20.448 22.993 22.374 21.445 23.346 19.861ZM30.708 19.861C31.662 21.391 33.534 22.813 35.406 23.479C35.1 23.731 34.704 24.199 34.506 24.523C32.598 23.713 30.69 22.039 29.646 20.275L30.708 19.861ZM40.338 16.279H49.644V17.539H40.338V16.279ZM38.034 19.987H51.984V21.229H38.034V19.987ZM37.224 25.675H52.794V26.917H37.224V25.675ZM44.226 16.837H45.666V26.305H44.226V16.837ZM39.564 22.093L40.662 21.643C41.364 22.633 42.12 24.019 42.408 24.901L41.22 25.405C40.95 24.523 40.248 23.119 39.564 22.093ZM49.176 21.625L50.454 22.129C49.788 23.281 48.978 24.577 48.312 25.423L47.286 24.973C47.916 24.091 48.726 22.651 49.176 21.625ZM45.522 11.653C47.232 13.669 50.598 15.703 53.496 16.603C53.172 16.909 52.758 17.431 52.542 17.791C49.662 16.729 46.314 14.497 44.388 12.211L45.522 11.653ZM44.982 10.717L46.224 11.293C44.28 14.263 40.986 16.567 37.458 17.845C37.26 17.467 36.882 16.945 36.54 16.621C39.942 15.523 43.254 13.399 44.982 10.717ZM55.8 25.999V12.805H59.094C63.162 12.805 65.322 15.163 65.322 19.357C65.322 23.551 63.162 25.999 59.184 25.999H55.8ZM57.474 24.631H58.968C62.064 24.631 63.612 22.705 63.612 19.357C63.612 16.009 62.064 14.173 58.968 14.173H57.474V24.631ZM68.1926 25.999V12.805H70.1906L72.7286 19.879C73.0526 20.779 73.3586 21.697 73.6826 22.633H73.7546C74.0786 21.697 74.3666 20.779 74.6726 19.879L77.1746 12.805H79.1906V25.999H77.6426V18.709C77.6426 17.557 77.7686 15.973 77.8586 14.803H77.7686L76.7246 17.809L74.2226 24.685H73.1066L70.6046 17.809L69.5606 14.803H69.4886C69.5786 15.973 69.7046 17.557 69.7046 18.709V25.999H68.1926Z" fill="white"/>
<path d="M101.203 26.3839C101.203 26.7466 101.188 27.0863 101.206 27.4245C101.26 28.3412 100.539 28.9658 99.6692 28.9615C95.9547 28.9414 92.2387 28.9529 88.5241 28.9529C87.5742 28.9529 87 28.3801 87 27.4331C87 22.4549 87 17.4767 87 12.4986C87 11.5645 87.5771 10.9889 88.5126 10.9889C88.9328 10.9889 89.3516 10.9889 89.7964 10.9889C89.7964 10.8205 89.8036 10.6694 89.7964 10.5182C89.7201 9.24023 90.7865 8.41269 91.8961 8.41701C95.1027 8.42996 98.3106 8.42133 101.517 8.42133C101.912 8.42133 102.304 8.40837 102.684 8.54654C103.485 8.83581 103.998 9.5439 103.998 10.3973C104 15.069 104.001 19.7392 103.998 24.4108C103.998 25.4887 103.154 26.3451 102.06 26.3839C101.782 26.394 101.503 26.3854 101.202 26.3854L101.203 26.3839ZM99.9197 19.991C99.9197 17.5113 99.9197 15.033 99.9197 12.5533C99.9197 12.3662 99.8285 12.2726 99.6462 12.2726C95.9518 12.2726 92.2559 12.2726 88.5615 12.2726C88.3773 12.2726 88.2852 12.3662 88.2852 12.5533C88.2852 17.4983 88.2852 22.4434 88.2852 27.3885C88.2852 27.5756 88.3773 27.6696 88.5615 27.6706C92.2559 27.6706 95.9518 27.6706 99.6462 27.6706C99.8295 27.6706 99.9211 27.577 99.9211 27.3899C99.9211 24.9246 99.9211 22.4578 99.9211 19.9925L99.9197 19.991ZM101.203 25.103C101.455 25.103 101.687 25.1045 101.919 25.103C102.447 25.0987 102.717 24.8253 102.717 24.3C102.717 20.4242 102.717 16.5485 102.717 12.6741C102.717 11.9186 102.717 11.1644 102.717 10.4089C102.717 10.085 102.545 9.84469 102.234 9.75258C102.114 9.71804 101.983 9.70797 101.858 9.70797C98.551 9.70509 95.2437 9.70653 91.9364 9.70653C91.876 9.70653 91.8155 9.70509 91.7565 9.70941C91.4457 9.73531 91.1463 9.93104 91.1089 10.1915C91.0729 10.4492 91.1003 10.7168 91.1003 10.9889H91.3536C94.1456 10.9889 96.9391 10.9903 99.7311 10.9874C100.226 10.9874 100.629 11.1601 100.931 11.5559C101.149 11.8394 101.205 12.1676 101.205 12.5187C101.202 16.6219 101.202 20.7236 101.202 24.8267C101.202 24.9116 101.202 24.9965 101.202 25.1045L101.203 25.103Z" fill="#D8E9FF"/>
<path d="M94.2156 15.8003C95.2316 15.8003 96.2463 15.7974 97.2623 15.8017C97.6005 15.8017 97.8697 16.0521 97.9042 16.3731C97.9373 16.6897 97.7315 16.9833 97.4163 17.0624C97.3588 17.0768 97.2969 17.0812 97.2379 17.0812C95.2259 17.0812 93.2153 17.084 91.2033 17.0812C90.7082 17.0812 90.3887 16.6177 90.583 16.186C90.701 15.9226 90.9169 15.7988 91.2062 15.7988C92.2079 15.7988 93.211 15.7988 94.2127 15.7988L94.2156 15.8003Z" fill="#D8E9FF"/>
<path d="M94.1978 19.65C93.2221 19.65 92.2463 19.65 91.2705 19.65C90.8258 19.65 90.5322 19.3967 90.5293 19.0124C90.5264 18.6253 90.8186 18.3662 91.2604 18.3662C93.2451 18.3662 95.2297 18.3662 97.2144 18.3662C97.5526 18.3662 97.7915 18.5375 97.8807 18.8354C97.9584 19.0973 97.8635 19.3938 97.6202 19.532C97.4936 19.6039 97.3324 19.6428 97.1856 19.6442C96.1897 19.6543 95.1938 19.6485 94.1993 19.6485L94.1978 19.65Z" fill="#D8E9FF"/>
<path d="M94.1978 22.2164C93.2221 22.2164 92.2463 22.2164 91.2705 22.2164C90.8258 22.2164 90.5322 21.9631 90.5293 21.5788C90.5264 21.1917 90.8186 20.9326 91.2604 20.9326C93.2451 20.9326 95.2297 20.9326 97.2144 20.9326C97.5526 20.9326 97.7915 21.1039 97.8807 21.4018C97.9584 21.6637 97.8635 21.9602 97.6202 22.0984C97.4936 22.1703 97.3324 22.2092 97.1856 22.2106C96.1897 22.2207 95.1938 22.2149 94.1993 22.2149L94.1978 22.2164Z" fill="#D8E9FF"/>
</g>
<defs>
<filter id="filter0_d_1115_4005" x="0" y="0" width="122" height="45" filterUnits="userSpaceOnUse" color-interpolation-filters="sRGB">
<feFlood flood-opacity="0" result="BackgroundImageFix"/>
<feColorMatrix in="SourceAlpha" type="matrix" values="0 0 0 0 0 0 0 0 0 0 0 0 0 0 0 0 0 0 127 0" result="hardAlpha"/>
<feOffset dy="4"/>
<feGaussianBlur stdDeviation="2"/>
<feComposite in2="hardAlpha" operator="out"/>
<feColorMatrix type="matrix" values="0 0 0 0 0 0 0 0 0 0 0 0 0 0 0 0 0 0 0.25 0"/>
<feBlend mode="normal" in2="BackgroundImageFix" result="effect1_dropShadow_1115_4005"/>
<feBlend mode="normal" in="SourceGraphic" in2="effect1_dropShadow_1115_4005" result="shape"/>
</filter>
</defs>
</svg>
