<svg width="237" height="71" viewBox="0 0 237 71" fill="none" xmlns="http://www.w3.org/2000/svg">
<g filter="url(#filter0_d_1115_3984)">
<rect x="5" y="1" width="226.261" height="61" rx="30.5" fill="#003477" stroke="#D8E9FF" stroke-width="2"/>
<path d="M67.496 22.176L70.184 23.112C69.44 24.792 68.576 26.496 67.88 27.672L65.456 26.76C66.152 25.536 67.04 23.616 67.496 22.176ZM56.984 23.424L59.288 22.32C60.224 23.664 61.16 25.44 61.496 26.664L59.024 27.888C58.736 26.664 57.872 24.816 56.984 23.424ZM66.656 28.32H69.368V41.064C69.368 42.384 69.128 43.152 68.24 43.584C67.376 44.04 66.128 44.064 64.352 44.064C64.256 43.296 63.896 42.12 63.536 41.4C64.64 41.448 65.84 41.448 66.2 41.424C66.56 41.424 66.656 41.328 66.656 41.016V28.32ZM62.144 21.648H64.904V30.144H62.144V21.648ZM58.664 28.32H67.208V30.816H58.664V28.32ZM57.656 28.32H60.296V35.784C60.296 38.496 60.104 42.12 58.76 44.328C58.304 43.872 57.128 43.032 56.504 42.744C57.584 40.8 57.656 38.04 57.656 35.76V28.32ZM60.008 37.152C62.024 36.744 65.024 36.072 67.904 35.376L68.192 37.608C65.672 38.304 62.984 38.976 60.848 39.504L60.008 37.152ZM60.344 33.552L61.52 31.824C63.128 32.16 65.288 32.904 66.416 33.552L65.168 35.496C64.112 34.848 62 34.008 60.344 33.552ZM49.544 27.648H55.544V30.048H49.544V27.648ZM48.056 31.8H56.552V34.248H48.056V31.8ZM48.152 35.592L50.024 35.112C50.408 36.408 50.792 38.112 50.96 39.216L48.992 39.792C48.872 38.64 48.488 36.912 48.152 35.592ZM47.696 40.848C49.88 40.536 53.336 39.96 56.72 39.408L56.84 41.496C53.84 42.192 50.72 42.912 48.296 43.44L47.696 40.848ZM55.04 34.872L57.2 35.424C56.72 36.84 56.24 38.424 55.856 39.456L54.128 38.952C54.464 37.824 54.872 36.096 55.04 34.872ZM51.392 28.608H53.888V41.424L51.392 41.856V28.608ZM51.896 21.48L54.392 22.368C53.048 25.272 50.888 28.32 48.68 30.216C48.512 29.592 47.864 27.984 47.432 27.264C49.16 25.872 50.888 23.712 51.896 21.48ZM51.632 24.408L53.168 22.488C54.608 23.664 56.72 25.392 57.704 26.4L56.096 28.608C55.136 27.504 53.072 25.704 51.632 24.408ZM81.92 22.32L84.584 21.576C85.16 22.56 85.784 23.904 86 24.792L83.192 25.656C83 24.792 82.448 23.376 81.92 22.32ZM76.544 40.992H89.312V43.248H76.544V40.992ZM76.616 27.12H91.208V28.992H76.616V27.12ZM76.616 30.048H91.232V31.896H76.616V30.048ZM74.816 36.456H91.64V44.232H88.64V38.736H77.672V44.232H74.816V36.456ZM76.856 21.504L79.544 22.368C78.056 25.584 75.68 28.872 73.4 30.936C73.04 30.384 72.032 29.184 71.48 28.68C73.592 26.952 75.656 24.24 76.856 21.504ZM82.784 25.152H85.592V34.248H82.784V25.152ZM77.744 24.048H92.432V26.064H77.744V36H74.912V26.16L77.096 24.048H77.744ZM76.352 33.072H93.032V35.184H76.352V33.072ZM95.984 26.112H102.224V28.752H95.984V26.112ZM98.12 21.624H100.568V44.16H98.12V21.624ZM98.12 27.912L99.416 28.536C98.936 32.232 97.832 36.768 96.488 39.144C96.248 38.328 95.72 37.056 95.36 36.312C96.584 34.392 97.664 30.792 98.12 27.912ZM100.472 29.664C100.928 30.24 102.488 32.76 102.848 33.36L101.576 35.304C101.168 34.08 100.016 31.68 99.488 30.696L100.472 29.664ZM102.752 34.008H117.752V36.216H102.752V34.008ZM104.792 38.184L106.448 36.672C107.456 37.464 108.896 38.616 109.616 39.36L107.888 41.064C107.216 40.296 105.824 39.048 104.792 38.184ZM112.832 32.976L114.296 31.728C114.992 32.232 115.952 32.952 116.432 33.432L114.944 34.824C114.464 34.32 113.552 33.528 112.832 32.976ZM114.464 36.048L116.84 36.936C115.16 40.272 112.136 42.696 108.44 44.088C108.152 43.608 107.456 42.72 106.952 42.264C110.432 41.064 113.12 38.856 114.464 36.048ZM108.488 21.816H110.864C111.08 32.856 112.568 40.992 115.712 41.376C116.168 41.424 116.432 40.56 116.624 38.856C117.056 39.408 117.992 40.104 118.448 40.344C117.824 43.392 116.84 44.208 115.784 44.136C110.384 43.704 108.896 34.8 108.488 21.816ZM106.424 29.352L108.08 28.92C108.488 30.048 108.872 31.512 109.016 32.376L107.24 32.928C107.12 32.016 106.784 30.504 106.424 29.352ZM103.064 28.488C102.944 28.056 102.632 27.072 102.392 26.544C102.68 26.472 102.992 26.16 103.256 25.704C103.52 25.248 104.408 23.52 104.84 21.816L106.928 22.368C106.232 24.216 105.104 26.184 104.168 27.384V27.432C104.168 27.432 103.064 28.08 103.064 28.488ZM103.064 28.488L103.016 27.024L103.928 26.448L107.072 26.208C106.784 26.736 106.496 27.504 106.376 27.912C104 28.176 103.376 28.32 103.064 28.488ZM103.304 32.88C103.208 32.472 102.872 31.44 102.656 30.912C103.04 30.816 103.424 30.408 103.856 29.808C104.312 29.232 105.8 27 106.64 24.816L108.68 25.512C107.456 27.864 105.824 30.24 104.336 31.8V31.824C104.336 31.824 103.304 32.496 103.304 32.88ZM103.304 32.88L103.232 31.32L104.048 30.744L107.456 30.36C107.528 30.864 107.72 31.608 107.864 32.016C104.336 32.496 103.664 32.664 103.304 32.88ZM115.304 29.088L116.936 28.632C117.392 29.736 117.848 31.224 118.064 32.112L116.336 32.688C116.168 31.776 115.712 30.216 115.304 29.088ZM111.944 28.128C111.824 27.696 111.512 26.736 111.272 26.184C111.56 26.136 111.848 25.824 112.088 25.392C112.328 24.96 113.168 23.328 113.552 21.744L115.616 22.296C114.968 24.048 113.912 25.896 113.024 27.024V27.072C113.024 27.072 111.944 27.72 111.944 28.128ZM111.944 28.128L111.92 26.664L112.784 26.088L115.88 25.872C115.616 26.376 115.328 27.168 115.208 27.576C112.856 27.816 112.256 27.96 111.944 28.128ZM112.208 32.52C112.112 32.112 111.776 31.08 111.56 30.552C111.944 30.432 112.304 30.048 112.736 29.448C113.192 28.872 114.632 26.616 115.448 24.432L117.512 25.128C116.36 27.48 114.728 29.88 113.264 31.44V31.464C113.264 31.464 112.208 32.136 112.208 32.52ZM112.208 32.52L112.136 30.984L112.952 30.408L116.312 30C116.408 30.504 116.6 31.2 116.744 31.608C113.24 32.16 112.592 32.328 112.208 32.52ZM104.192 34.776H106.616V35.736C106.616 38.304 105.824 41.784 102.8 44.16C102.416 43.68 101.408 42.816 100.88 42.504C103.712 40.44 104.192 37.68 104.192 35.664V34.776ZM129.08 26.352H141.368V28.272H129.08V26.352ZM128.072 29.304H142.184V31.344H128.072V29.304ZM127.664 38.256H142.448V40.368H127.664V38.256ZM130.496 35.256H139.664V37.128H130.496V35.256ZM128.576 23.376H141.752V25.368H128.576V23.376ZM131.048 21.624H133.712V30.216H131.048V21.624ZM133.736 30.456H136.328V39.168H133.736V30.456ZM136.352 21.624H139.04V30.192H136.352V21.624ZM129.08 32.232H139.52V34.224H131.696V43.992H129.08V32.232ZM138.464 32.232H141.128V41.424C141.128 42.6 140.888 43.224 140.096 43.608C139.28 43.968 138.152 43.992 136.616 43.992C136.52 43.32 136.184 42.36 135.872 41.736C136.76 41.784 137.768 41.76 138.056 41.76C138.368 41.736 138.464 41.664 138.464 41.376V32.232ZM120.056 26.592H128V29.256H120.056V26.592ZM122.984 21.624H125.6V44.16H122.984V21.624ZM122.936 28.416L124.544 28.968C123.848 32.76 122.48 37.392 120.776 39.864C120.536 39.096 119.912 37.992 119.504 37.32C121.04 35.232 122.384 31.464 122.936 28.416ZM125.48 30.216C126.032 30.912 128.024 34.056 128.432 34.776L126.944 36.84C126.392 35.376 124.952 32.568 124.28 31.392L125.48 30.216Z" fill="white"/>
<path d="M175.572 43.0205H168.944C169.426 43.9646 169.526 44.9307 169.131 45.9164C168.862 46.5897 168.416 47.1191 167.803 47.5021C166.578 48.2682 164.989 48.1389 163.903 47.1923C162.712 46.1506 162.464 44.7039 163.191 42.9449C163.106 42.9156 163.026 42.8814 162.942 42.8619C161.183 42.4399 160.088 41.3347 159.705 39.5659C158.303 33.0618 156.92 26.5528 155.544 20.0438C155.479 19.7364 155.365 19.6462 155.064 19.6559C154.355 19.6779 153.642 19.6681 152.93 19.6608C152.346 19.6559 152.005 19.3461 152 18.8411C151.995 18.3263 152.356 18.0043 152.95 18.0018C153.972 17.9994 154.994 17.9994 156.014 18.0018C156.593 18.0018 156.862 18.2287 156.983 18.802C157.218 19.9072 157.45 21.0124 157.693 22.1614C157.877 22.1614 158.056 22.1614 158.233 22.1614C168.167 22.1614 178.098 22.1614 188.032 22.1614C188.238 22.1614 188.451 22.1639 188.647 22.2151C189.105 22.3347 189.326 22.7689 189.212 23.2934C188.727 25.5013 188.24 27.7092 187.754 29.9171C187.172 32.5568 186.586 35.1965 186.007 37.8362C185.823 38.6755 185.627 38.8389 184.762 38.8389C177.093 38.8389 169.421 38.8389 161.752 38.8389H161.292C161.292 40.1954 162.343 41.2591 163.731 41.3323C163.874 41.3396 164.015 41.3371 164.158 41.3371C170.727 41.3371 177.299 41.3371 183.868 41.3371C183.997 41.3371 184.127 41.3347 184.256 41.3396C184.767 41.3664 185.094 41.6933 185.087 42.1739C185.082 42.6448 184.738 42.9863 184.234 42.9937C183.355 43.0034 182.475 42.9961 181.596 42.9961C181.531 42.9961 181.468 42.9961 181.351 42.9961C181.753 43.8134 181.908 44.6331 181.676 45.5016C181.446 46.3579 180.961 47.024 180.218 47.4948C179.031 48.2438 177.512 48.1462 176.407 47.2655C175.177 46.2823 174.906 44.9332 175.567 43.0181L175.572 43.0205ZM164.509 23.8643C164.725 25.8234 164.933 27.7287 165.144 29.6292H171.839V23.8643H164.509ZM165.337 31.3638C165.553 33.3204 165.761 35.2282 165.97 37.1336H171.839V31.3638H165.337ZM173.537 23.8594V29.6268H179.394C179.607 27.6897 179.818 25.7843 180.031 23.8594H173.537ZM173.537 31.3663V37.136H178.566C178.779 35.2087 178.99 33.3009 179.203 31.3663H173.537ZM187.366 23.8814C187.257 23.8594 187.221 23.8472 187.182 23.8472C185.45 23.8472 183.718 23.8497 181.986 23.8375C181.703 23.8375 181.683 23.9863 181.661 24.1986C181.572 25.0646 181.47 25.9307 181.376 26.7943C181.274 27.7336 181.175 28.6729 181.07 29.6317H186.133C186.545 27.7043 186.952 25.8014 187.364 23.879L187.366 23.8814ZM185.714 31.3638H180.879C180.666 33.2887 180.455 35.2063 180.24 37.158C181.635 37.158 182.965 37.1629 184.294 37.1458C184.377 37.1458 184.503 36.9799 184.527 36.8701C184.721 36.0358 184.895 35.1941 185.074 34.3573C185.285 33.3692 185.496 32.3812 185.714 31.3638ZM163.453 29.6609C163.453 29.5658 163.458 29.5146 163.453 29.4658C163.261 27.6799 163.063 25.8966 162.881 24.1107C162.854 23.8448 162.712 23.8399 162.518 23.8399C161.12 23.8424 159.725 23.8399 158.327 23.8448C158.245 23.8448 158.16 23.8692 158.053 23.8887C158.446 25.7185 158.841 27.5214 159.209 29.3267C159.267 29.617 159.391 29.6683 159.647 29.6658C160.747 29.6536 161.847 29.6609 162.944 29.6609C163.109 29.6609 163.274 29.6609 163.453 29.6609ZM159.647 31.3638C160.062 33.3131 160.471 35.2331 160.875 37.1263H164.303C164.09 35.1819 163.882 33.279 163.671 31.3638H159.647ZM167.709 44.6599C167.709 43.7426 166.968 42.9961 166.059 43.001C165.144 43.0083 164.417 43.7475 164.419 44.6697C164.419 45.5919 165.153 46.3311 166.069 46.3311C166.977 46.3311 167.706 45.5895 167.709 44.6599ZM180.126 44.6795C180.135 43.7597 179.401 43.0059 178.495 43.0034C177.58 43.001 176.843 43.7329 176.839 44.6551C176.834 45.5821 177.551 46.3189 178.469 46.3335C179.375 46.3482 180.118 45.6065 180.128 44.6819L180.126 44.6795Z" fill="#D8E9FF"/>
</g>
<defs>
<filter id="filter0_d_1115_3984" x="0" y="0" width="236.262" height="71" filterUnits="userSpaceOnUse" color-interpolation-filters="sRGB">
<feFlood flood-opacity="0" result="BackgroundImageFix"/>
<feColorMatrix in="SourceAlpha" type="matrix" values="0 0 0 0 0 0 0 0 0 0 0 0 0 0 0 0 0 0 127 0" result="hardAlpha"/>
<feOffset dy="4"/>
<feGaussianBlur stdDeviation="2"/>
<feComposite in2="hardAlpha" operator="out"/>
<feColorMatrix type="matrix" values="0 0 0 0 0 0 0 0 0 0 0 0 0 0 0 0 0 0 0.25 0"/>
<feBlend mode="normal" in2="BackgroundImageFix" result="effect1_dropShadow_1115_3984"/>
<feBlend mode="normal" in="SourceGraphic" in2="effect1_dropShadow_1115_3984" result="shape"/>
</filter>
</defs>
</svg>
